<svg width="288" height="295" viewBox="0 0 288 295" fill="none" xmlns="http://www.w3.org/2000/svg">
<path d="M161.054 56.1775L159.704 54.7448C158.851 53.8401 157.677 53.308 156.441 53.2655C155.204 53.2229 154.006 53.6735 153.11 54.518L145.002 62.1602C144.106 63.0047 143.586 64.174 143.555 65.4109C143.525 66.6477 143.986 67.8508 144.839 68.7555L146.19 70.1881C145.573 71.0646 145.281 72.1301 145.362 73.2041C145.443 74.2782 145.893 75.2948 146.634 76.0816C147.376 76.8684 148.364 77.3771 149.432 77.5215C150.499 77.6659 151.58 77.4371 152.491 76.8738L155.128 79.6709C155.469 80.0328 155.938 80.2456 156.433 80.2627C156.927 80.2797 157.407 80.0995 157.765 79.7617L169.927 68.2984C170.285 67.9606 170.493 67.4928 170.506 66.9981C170.518 66.5033 170.333 66.0221 169.992 65.6602L167.356 62.8632C167.972 61.9868 168.264 60.9213 168.183 59.8472C168.102 58.7731 167.652 57.7566 166.911 56.9697C166.169 56.1829 165.181 55.6742 164.113 55.5298C163.046 55.3854 161.965 55.6142 161.054 56.1775ZM146.288 63.5246L154.396 55.8824C154.935 55.3786 155.653 55.1102 156.394 55.1357C157.135 55.1612 157.839 55.4785 158.352 56.0185L159.703 57.4512C159.09 58.3285 158.8 59.3931 158.882 60.4659C158.963 61.5387 159.411 62.5541 160.151 63.3414L153.394 69.7099C152.652 68.9253 151.665 68.4179 150.599 68.273C149.533 68.1281 148.453 68.3547 147.541 68.9145L146.19 67.4818C145.682 66.9376 145.407 66.2164 145.425 65.4752C145.443 64.734 145.754 64.0329 146.288 63.5246ZM165.492 62.172L165.458 62.2038C165.279 62.3727 165.175 62.6066 165.169 62.8539C165.163 63.1013 165.255 63.3419 165.426 63.5229L168.641 66.9339L156.479 78.3972L153.264 74.9862C153.18 74.897 153.079 74.8252 152.967 74.775C152.856 74.7248 152.735 74.6972 152.614 74.6937C152.492 74.6903 152.37 74.7111 152.257 74.755C152.144 74.7989 152.04 74.8649 151.953 74.9493L151.919 74.9812C151.514 75.3506 151.008 75.5909 150.463 75.6722C149.919 75.7534 149.362 75.6719 148.861 75.4378C148.36 75.2038 147.937 74.8276 147.647 74.3565C147.356 73.8853 147.21 73.3402 147.227 72.7894C147.244 72.2386 147.424 71.7067 147.743 71.2603C148.062 70.8139 148.506 70.4729 149.02 70.28C149.534 70.0872 150.096 70.0511 150.633 70.1763C151.171 70.3014 151.661 70.5823 152.043 70.9836L155.258 74.3947C155.429 74.5756 155.663 74.682 155.911 74.6905C156.158 74.699 156.398 74.6089 156.577 74.44C156.756 74.2711 156.86 74.0373 156.866 73.7899C156.872 73.5425 156.78 73.3019 156.609 73.121L154.68 71.0743L161.437 64.7058L163.366 66.7525C163.537 66.9334 163.771 67.0398 164.019 67.0484C164.266 67.0569 164.505 66.9667 164.685 66.7978C164.864 66.6289 164.968 66.3951 164.974 66.1477C164.98 65.9003 164.888 65.6597 164.717 65.4788L161.502 62.0677C161.122 61.6643 160.868 61.1587 160.773 60.6144C160.678 60.07 160.745 59.5112 160.967 59.0081C161.188 58.505 161.554 58.08 162.018 57.7865C162.482 57.4931 163.024 57.3442 163.575 57.3586C164.127 57.373 164.663 57.5501 165.117 57.8675C165.571 58.185 165.923 58.6287 166.128 59.1429C166.332 59.6572 166.381 60.219 166.268 60.758C166.155 61.2969 165.885 61.7888 165.492 62.172Z" fill="black"/>
<path d="M146.288 63.5246L154.396 55.8824C154.935 55.3786 155.653 55.1102 156.394 55.1357C157.135 55.1612 157.839 55.4785 158.352 56.0185L159.703 57.4512C159.09 58.3285 158.8 59.3931 158.882 60.4659C158.963 61.5387 159.411 62.5541 160.151 63.3414L153.394 69.7099C152.652 68.9253 151.665 68.4179 150.599 68.273C149.533 68.1281 148.453 68.3547 147.541 68.9145L146.19 67.4818C145.682 66.9376 145.407 66.2164 145.425 65.4752C145.443 64.734 145.754 64.0329 146.288 63.5246Z" fill="#EA893B"/>
<path d="M165.492 62.172L165.458 62.2038C165.279 62.3727 165.175 62.6066 165.169 62.8539C165.163 63.1013 165.255 63.3419 165.426 63.5229L168.641 66.9339L156.479 78.3972L153.264 74.9862C153.18 74.897 153.079 74.8252 152.967 74.775C152.856 74.7248 152.735 74.6972 152.614 74.6937C152.492 74.6903 152.37 74.7111 152.257 74.755C152.144 74.7989 152.04 74.8649 151.953 74.9493L151.919 74.9812C151.514 75.3506 151.008 75.5909 150.463 75.6722C149.919 75.7534 149.362 75.6719 148.861 75.4378C148.36 75.2038 147.937 74.8276 147.647 74.3565C147.356 73.8853 147.21 73.3402 147.227 72.7894C147.244 72.2386 147.424 71.7067 147.743 71.2603C148.062 70.8139 148.506 70.4729 149.02 70.28C149.534 70.0872 150.096 70.0511 150.633 70.1763C151.171 70.3014 151.661 70.5823 152.043 70.9836L155.258 74.3947C155.429 74.5756 155.663 74.682 155.911 74.6905C156.158 74.699 156.398 74.6089 156.577 74.44C156.756 74.2711 156.86 74.0373 156.866 73.7899C156.872 73.5425 156.78 73.3019 156.609 73.121L154.68 71.0743L161.437 64.7058L163.366 66.7525C163.537 66.9334 163.771 67.0398 164.019 67.0484C164.266 67.0569 164.505 66.9667 164.685 66.7978C164.864 66.6289 164.968 66.3951 164.974 66.1477C164.98 65.9003 164.888 65.6597 164.717 65.4788L161.502 62.0677C161.122 61.6643 160.868 61.1587 160.773 60.6144C160.678 60.07 160.745 59.5112 160.967 59.0081C161.188 58.505 161.554 58.08 162.018 57.7865C162.482 57.4931 163.024 57.3442 163.575 57.3586C164.127 57.373 164.663 57.5501 165.117 57.8675C165.571 58.185 165.923 58.6287 166.128 59.1429C166.332 59.6572 166.381 60.219 166.268 60.758C166.155 61.2969 165.885 61.7888 165.492 62.172Z" fill="#EA893B"/>
</svg>
