<svg width="151" height="150" viewBox="0 0 151 150" fill="none" xmlns="http://www.w3.org/2000/svg">
<rect x="12.3594" y="107.018" width="64.0349" height="127" rx="9.5" transform="rotate(-90 12.3594 107.018)" fill="#FFDF7F" stroke="black"/>
<g clip-path="url(#clip0_784_4763)">
<path d="M35.6438 132.111V134.08C35.6438 135.323 36.1329 136.516 37.0035 137.395C37.8741 138.274 39.055 138.768 40.2862 138.768H51.428C52.6593 138.768 53.8401 138.274 54.7107 137.395C55.5814 136.516 56.0705 135.323 56.0705 134.08V132.111C57.1199 131.896 58.0634 131.321 58.7411 130.484C59.4188 129.647 59.7891 128.599 59.7891 127.518C59.7891 126.436 59.4188 125.388 58.7411 124.551C58.0634 123.714 57.1199 123.139 56.0705 122.924V119.08C56.0705 118.583 55.8748 118.106 55.5266 117.754C55.1783 117.403 54.706 117.205 54.2135 117.205H37.5008C37.0083 117.205 36.5359 117.403 36.1877 117.754C35.8394 118.106 35.6438 118.583 35.6438 119.08V122.924C34.5943 123.139 33.6508 123.714 32.9731 124.551C32.2954 125.388 31.9252 126.436 31.9252 127.518C31.9252 128.599 32.2954 129.647 32.9731 130.484C33.6508 131.321 34.5943 131.896 35.6438 132.111V132.111ZM51.428 136.893H40.2862C39.5484 136.889 38.8417 136.592 38.32 136.065C37.7983 135.539 37.5038 134.825 37.5008 134.08V132.111C38.5484 131.893 39.4896 131.317 40.166 130.481C40.8424 129.644 41.2127 128.598 41.2147 127.518H50.4996C50.5015 128.598 50.8719 129.644 51.5483 130.481C52.2247 131.317 53.1659 131.893 54.2135 132.111V134.08C54.2104 134.825 53.916 135.539 53.3943 136.065C52.8726 136.592 52.1658 136.889 51.428 136.893V136.893ZM36.5258 124.705H36.5723C36.8185 124.705 37.0547 124.606 37.2288 124.43C37.4029 124.255 37.5008 124.016 37.5008 123.768V119.08H54.2135V123.768C54.2135 123.89 54.2376 124.011 54.2844 124.125C54.3312 124.238 54.3998 124.34 54.4861 124.426C54.5725 124.513 54.675 124.58 54.7875 124.626C54.9001 124.672 55.0206 124.695 55.142 124.693H55.1884C55.7368 124.703 56.2702 124.875 56.7219 125.189C57.1735 125.503 57.5233 125.945 57.7274 126.459C57.9315 126.973 57.9807 127.536 57.869 128.078C57.7573 128.621 57.4895 129.117 57.0993 129.506C56.7092 129.896 56.2139 130.16 55.6756 130.266C55.1374 130.372 54.5801 130.315 54.0736 130.103C53.5671 129.89 53.134 129.532 52.8285 129.072C52.5231 128.612 52.3589 128.071 52.3565 127.518V122.83C52.3565 122.581 52.2587 122.343 52.0846 122.167C51.9105 121.991 51.6743 121.893 51.428 121.893C51.1818 121.893 50.9456 121.991 50.7715 122.167C50.5974 122.343 50.4996 122.581 50.4996 122.83V125.643H41.2147V122.83C41.2147 122.581 41.1169 122.343 40.9428 122.167C40.7686 121.991 40.5325 121.893 40.2862 121.893C40.04 121.893 39.8038 121.991 39.6297 122.167C39.4555 122.343 39.3577 122.581 39.3577 122.83V127.518C39.3576 128.072 39.1954 128.614 38.8913 129.075C38.5873 129.537 38.1549 129.897 37.6487 130.111C37.1424 130.325 36.5847 130.384 36.0457 130.279C35.5067 130.174 35.0103 129.911 34.619 129.522C34.2277 129.134 33.9588 128.637 33.8461 128.094C33.7334 127.552 33.782 126.988 33.9858 126.473C34.1895 125.959 34.5393 125.516 34.9912 125.202C35.4431 124.887 35.977 124.714 36.5258 124.705V124.705Z" fill="black"/>
</g>
<g clip-path="url(#clip1_784_4763)">
<path d="M95.6438 132.111V134.08C95.6438 135.323 96.1329 136.516 97.0035 137.395C97.8741 138.274 99.055 138.768 100.286 138.768H111.428C112.659 138.768 113.84 138.274 114.711 137.395C115.581 136.516 116.07 135.323 116.07 134.08V132.111C117.12 131.896 118.063 131.321 118.741 130.484C119.419 129.647 119.789 128.599 119.789 127.518C119.789 126.436 119.419 125.388 118.741 124.551C118.063 123.714 117.12 123.139 116.07 122.924V119.08C116.07 118.583 115.875 118.106 115.527 117.754C115.178 117.403 114.706 117.205 114.213 117.205H97.5008C97.0083 117.205 96.5359 117.403 96.1877 117.754C95.8394 118.106 95.6438 118.583 95.6438 119.08V122.924C94.5943 123.139 93.6508 123.714 92.9731 124.551C92.2954 125.388 91.9252 126.436 91.9252 127.518C91.9252 128.599 92.2954 129.647 92.9731 130.484C93.6508 131.321 94.5943 131.896 95.6438 132.111V132.111ZM111.428 136.893H100.286C99.5484 136.889 98.8417 136.592 98.32 136.065C97.7983 135.539 97.5038 134.825 97.5008 134.08V132.111C98.5484 131.893 99.4896 131.317 100.166 130.481C100.842 129.644 101.213 128.598 101.215 127.518H110.5C110.502 128.598 110.872 129.644 111.548 130.481C112.225 131.317 113.166 131.893 114.213 132.111V134.08C114.21 134.825 113.916 135.539 113.394 136.065C112.873 136.592 112.166 136.889 111.428 136.893V136.893ZM96.5258 124.705H96.5723C96.8185 124.705 97.0547 124.606 97.2288 124.43C97.4029 124.255 97.5008 124.016 97.5008 123.768V119.08H114.213V123.768C114.213 123.89 114.238 124.011 114.284 124.125C114.331 124.238 114.4 124.34 114.486 124.426C114.573 124.513 114.675 124.58 114.788 124.626C114.9 124.672 115.021 124.695 115.142 124.693H115.188C115.737 124.703 116.27 124.875 116.722 125.189C117.174 125.503 117.523 125.945 117.727 126.459C117.931 126.973 117.981 127.536 117.869 128.078C117.757 128.621 117.49 129.117 117.099 129.506C116.709 129.896 116.214 130.16 115.676 130.266C115.137 130.372 114.58 130.315 114.074 130.103C113.567 129.89 113.134 129.532 112.829 129.072C112.523 128.612 112.359 128.071 112.357 127.518V122.83C112.357 122.581 112.259 122.343 112.085 122.167C111.91 121.991 111.674 121.893 111.428 121.893C111.182 121.893 110.946 121.991 110.772 122.167C110.597 122.343 110.5 122.581 110.5 122.83V125.643H101.215V122.83C101.215 122.581 101.117 122.343 100.943 122.167C100.769 121.991 100.532 121.893 100.286 121.893C100.04 121.893 99.8038 121.991 99.6297 122.167C99.4555 122.343 99.3577 122.581 99.3577 122.83V127.518C99.3576 128.072 99.1954 128.614 98.8913 129.075C98.5873 129.537 98.1549 129.897 97.6487 130.111C97.1424 130.325 96.5847 130.384 96.0457 130.279C95.5067 130.174 95.0103 129.911 94.619 129.522C94.2277 129.134 93.9588 128.637 93.8461 128.094C93.7334 127.552 93.782 126.988 93.9858 126.473C94.1895 125.959 94.5393 125.516 94.9912 125.202C95.4431 124.887 95.977 124.714 96.5258 124.705V124.705Z" fill="black"/>
</g>
<g clip-path="url(#clip2_784_4763)">
<path d="M116.075 17.8887V15.9199C116.075 14.6767 115.586 13.4844 114.715 12.6054C113.845 11.7263 112.664 11.2324 111.433 11.2324L100.291 11.2324C99.0595 11.2324 97.8786 11.7263 97.008 12.6054C96.1374 13.4844 95.6483 14.6767 95.6483 15.9199V17.8887C94.5988 18.1038 93.6553 18.6787 92.9776 19.5159C92.2999 20.3531 91.9297 21.4012 91.9297 22.4824C91.9297 23.5637 92.2999 24.6117 92.9776 25.4489C93.6553 26.2861 94.5988 26.861 95.6483 27.0762V30.9199C95.6483 31.4172 95.8439 31.8941 96.1922 32.2457C96.5404 32.5974 97.0128 32.7949 97.5053 32.7949L114.218 32.7949C114.71 32.7949 115.183 32.5974 115.531 32.2457C115.879 31.8941 116.075 31.4172 116.075 30.9199V27.0762C117.124 26.861 118.068 26.2861 118.746 25.4489C119.423 24.6117 119.794 23.5637 119.794 22.4824C119.794 21.4012 119.423 20.3531 118.746 19.5159C118.068 18.6787 117.124 18.1038 116.075 17.8887V17.8887ZM100.291 13.1074L111.433 13.1074C112.17 13.1105 112.877 13.4078 113.399 13.9346C113.92 14.4614 114.215 15.175 114.218 15.9199V17.8887C113.17 18.1068 112.229 18.6827 111.553 19.5193C110.876 20.356 110.506 21.4024 110.504 22.4824L101.219 22.4824C101.217 21.4024 100.847 20.356 100.17 19.5193C99.4941 18.6827 98.5529 18.1068 97.5053 17.8887V15.9199C97.5083 15.175 97.8028 14.4614 98.3245 13.9346C98.8462 13.4078 99.5529 13.1105 100.291 13.1074V13.1074ZM115.193 25.2949H115.146C114.9 25.2949 114.664 25.3937 114.49 25.5695C114.316 25.7453 114.218 25.9838 114.218 26.2324V30.9199L97.5053 30.9199V26.2324C97.5053 26.1099 97.4812 25.9885 97.4344 25.8754C97.3876 25.7623 97.319 25.6597 97.2326 25.5736C97.1462 25.4875 97.0438 25.4195 96.9312 25.3737C96.8186 25.3279 96.6981 25.3051 96.5768 25.3066H96.5303C95.982 25.2974 95.4486 25.1249 94.9969 24.8108C94.5452 24.4968 94.1954 24.055 93.9914 23.5411C93.7873 23.0271 93.738 22.4637 93.8498 21.9216C93.9615 21.3794 94.2292 20.8827 94.6194 20.4935C95.0096 20.1044 95.5049 19.8402 96.0431 19.7341C96.5814 19.628 97.1387 19.6847 97.6452 19.8971C98.1516 20.1095 98.5848 20.4682 98.8902 20.9281C99.1957 21.388 99.3599 21.9287 99.3622 22.4824V27.1699C99.3622 27.4186 99.46 27.657 99.6342 27.8328C99.8083 28.0087 100.044 28.1074 100.291 28.1074C100.537 28.1074 100.773 28.0087 100.947 27.8328C101.121 27.657 101.219 27.4186 101.219 27.1699V24.3574L110.504 24.3574V27.1699C110.504 27.4186 110.602 27.657 110.776 27.8328C110.95 28.0087 111.186 28.1074 111.433 28.1074C111.679 28.1074 111.915 28.0087 112.089 27.8328C112.263 27.657 112.361 27.4186 112.361 27.1699V22.4824C112.361 21.9282 112.523 21.3863 112.827 20.9249C113.131 20.4634 113.564 20.103 114.07 19.8888C114.576 19.6746 115.134 19.6162 115.673 19.721C116.212 19.8258 116.708 20.089 117.1 20.4777C117.491 20.8664 117.76 21.3631 117.873 21.9056C117.985 22.448 117.937 23.012 117.733 23.5266C117.529 24.0413 117.179 24.4837 116.728 24.7983C116.276 25.1129 115.742 25.2857 115.193 25.2949V25.2949Z" fill="black"/>
</g>
<g clip-path="url(#clip3_784_4763)">
<path d="M56.075 17.8887V15.9199C56.075 14.6767 55.5859 13.4844 54.7152 12.6054C53.8446 11.7263 52.6638 11.2324 51.4325 11.2324L40.2907 11.2324C39.0595 11.2324 37.8786 11.7263 37.008 12.6054C36.1374 13.4844 35.6483 14.6767 35.6483 15.9199V17.8887C34.5988 18.1038 33.6553 18.6787 32.9776 19.5159C32.2999 20.3531 31.9297 21.4012 31.9297 22.4824C31.9297 23.5637 32.2999 24.6117 32.9776 25.4489C33.6553 26.2861 34.5988 26.861 35.6483 27.0762V30.9199C35.6483 31.4172 35.8439 31.8941 36.1922 32.2457C36.5404 32.5974 37.0128 32.7949 37.5053 32.7949L54.218 32.7949C54.7105 32.7949 55.1828 32.5974 55.5311 32.2457C55.8793 31.8941 56.075 31.4172 56.075 30.9199V27.0762C57.1244 26.861 58.0679 26.2861 58.7456 25.4489C59.4233 24.6117 59.7936 23.5637 59.7936 22.4824C59.7936 21.4012 59.4233 20.3531 58.7456 19.5159C58.0679 18.6787 57.1244 18.1038 56.075 17.8887V17.8887ZM40.2907 13.1074L51.4325 13.1074C52.1703 13.1105 52.8771 13.4078 53.3988 13.9346C53.9205 14.4614 54.2149 15.175 54.218 15.9199V17.8887C53.1704 18.1068 52.2292 18.6827 51.5528 19.5193C50.8764 20.356 50.506 21.4024 50.5041 22.4824L41.2192 22.4824C41.2172 21.4024 40.8469 20.356 40.1705 19.5193C39.4941 18.6827 38.5529 18.1068 37.5053 17.8887V15.9199C37.5083 15.175 37.8028 14.4614 38.3245 13.9346C38.8462 13.4078 39.5529 13.1105 40.2907 13.1074V13.1074ZM55.1929 25.2949H55.1465C54.9002 25.2949 54.6641 25.3937 54.4899 25.5695C54.3158 25.7453 54.218 25.9838 54.218 26.2324V30.9199L37.5053 30.9199L37.5053 26.2324C37.5053 26.1099 37.4812 25.9885 37.4344 25.8754C37.3876 25.7623 37.319 25.6597 37.2326 25.5736C37.1462 25.4875 37.0438 25.4195 36.9312 25.3737C36.8186 25.3279 36.6981 25.3051 36.5768 25.3066H36.5303C35.982 25.2974 35.4486 25.1249 34.9969 24.8108C34.5452 24.4968 34.1954 24.055 33.9914 23.5411C33.7873 23.0271 33.738 22.4637 33.8498 21.9216C33.9615 21.3794 34.2292 20.8827 34.6194 20.4935C35.0096 20.1044 35.5049 19.8402 36.0431 19.7341C36.5814 19.628 37.1387 19.6847 37.6452 19.8971C38.1516 20.1095 38.5848 20.4682 38.8902 20.9281C39.1957 21.388 39.3599 21.9287 39.3622 22.4824V27.1699C39.3622 27.4186 39.46 27.657 39.6342 27.8328C39.8083 28.0087 40.0445 28.1074 40.2907 28.1074C40.537 28.1074 40.7731 28.0087 40.9472 27.8328C41.1214 27.657 41.2192 27.4186 41.2192 27.1699V24.3574L50.5041 24.3574V27.1699C50.5041 27.4186 50.6019 27.657 50.776 27.8328C50.9501 28.0087 51.1863 28.1074 51.4325 28.1074C51.6788 28.1074 51.915 28.0087 52.0891 27.8328C52.2632 27.657 52.361 27.4186 52.361 27.1699V22.4824C52.3611 21.9282 52.5234 21.3863 52.8274 20.9249C53.1315 20.4634 53.5638 20.103 54.0701 19.8888C54.5764 19.6746 55.134 19.6162 55.673 19.721C56.2121 19.8258 56.7084 20.089 57.0998 20.4777C57.4911 20.8664 57.76 21.3631 57.8726 21.9056C57.9853 22.448 57.9367 23.012 57.733 23.5266C57.5293 24.0413 57.1795 24.4837 56.7276 24.7983C56.2757 25.1129 55.7417 25.2857 55.1929 25.2949V25.2949Z" fill="black"/>
</g>
<path d="M52.0706 86.276V81.056L72.0806 54.898H80.1426L60.4226 81.056L56.6526 79.896H88.8426V86.276H52.0706ZM74.3426 95.498V86.276L74.5746 79.896V71.718H81.6506V95.498H74.3426Z" fill="black"/>
<defs>
<clipPath id="clip0_784_4763">
<rect width="29.7115" height="30" fill="white" transform="translate(60.7148 142.518) rotate(-180)"/>
</clipPath>
<clipPath id="clip1_784_4763">
<rect width="29.7115" height="30" fill="white" transform="translate(120.715 142.518) rotate(-180)"/>
</clipPath>
<clipPath id="clip2_784_4763">
<rect width="29.7115" height="30" fill="white" transform="translate(91.0039 7.48242)"/>
</clipPath>
<clipPath id="clip3_784_4763">
<rect width="29.7115" height="30" fill="white" transform="translate(31.0039 7.48242)"/>
</clipPath>
</defs>
</svg>
