<svg width="251" height="250" viewBox="0 0 251 250" fill="none" xmlns="http://www.w3.org/2000/svg">
<rect x="71.5443" y="219.498" width="64.0349" height="208.681" rx="9.5" transform="rotate(-133.307 71.5443 219.498)" fill="#FFDF7F" stroke="black"/>
<g clip-path="url(#clip0_784_4764)">
<path d="M105.77 219.007L107.121 220.44C107.973 221.345 109.147 221.877 110.384 221.919C111.62 221.962 112.818 221.511 113.714 220.667L121.822 213.025C122.718 212.18 123.238 211.011 123.269 209.774C123.3 208.537 122.838 207.334 121.985 206.429L120.635 204.997C121.251 204.12 121.543 203.055 121.462 201.981C121.381 200.907 120.932 199.89 120.19 199.103C119.448 198.317 118.46 197.808 117.393 197.663C116.325 197.519 115.244 197.748 114.333 198.311L111.697 195.514C111.355 195.152 110.886 194.939 110.391 194.922C109.897 194.905 109.418 195.085 109.059 195.423L96.8974 206.887C96.539 207.224 96.3308 207.692 96.3186 208.187C96.3064 208.682 96.4911 209.163 96.8322 209.525L99.4686 212.322C98.8525 213.198 98.5602 214.264 98.6413 215.338C98.7224 216.412 99.1718 217.428 99.9135 218.215C100.655 219.002 101.643 219.511 102.711 219.655C103.778 219.8 104.859 219.571 105.77 219.007V219.007ZM120.536 211.66L112.428 219.303C111.889 219.806 111.171 220.075 110.43 220.049C109.689 220.024 108.985 219.706 108.472 219.166L107.122 217.734C107.734 216.856 108.024 215.792 107.943 214.719C107.861 213.646 107.413 212.631 106.673 211.844L113.43 205.475C114.172 206.26 115.159 206.767 116.225 206.912C117.292 207.057 118.371 206.83 119.283 206.27L120.634 207.703C121.143 208.247 121.418 208.969 121.399 209.71C121.381 210.451 121.071 211.152 120.536 211.66V211.66ZM101.332 213.013L101.366 212.981C101.545 212.812 101.649 212.578 101.655 212.331C101.662 212.084 101.569 211.843 101.399 211.662L98.1835 208.251L110.345 196.788L113.56 200.199C113.644 200.288 113.745 200.36 113.857 200.41C113.969 200.46 114.089 200.488 114.211 200.491C114.333 200.495 114.454 200.474 114.567 200.43C114.681 200.386 114.784 200.32 114.871 200.236L114.905 200.204C115.31 199.834 115.817 199.594 116.361 199.513C116.905 199.432 117.462 199.513 117.963 199.747C118.465 199.981 118.887 200.357 119.177 200.828C119.468 201.3 119.614 201.845 119.597 202.396C119.58 202.946 119.401 203.478 119.082 203.925C118.763 204.371 118.318 204.712 117.804 204.905C117.29 205.098 116.729 205.134 116.191 205.009C115.653 204.884 115.163 204.603 114.781 204.201L111.566 200.79C111.396 200.609 111.161 200.503 110.913 200.494C110.666 200.486 110.427 200.576 110.247 200.745C110.068 200.914 109.964 201.148 109.958 201.395C109.952 201.642 110.044 201.883 110.215 202.064L112.144 204.111L105.387 210.479L103.458 208.432C103.288 208.252 103.053 208.145 102.806 208.137C102.558 208.128 102.319 208.218 102.14 208.387C101.96 208.556 101.856 208.79 101.85 209.037C101.844 209.285 101.936 209.525 102.107 209.706L105.322 213.117C105.702 213.521 105.956 214.026 106.051 214.571C106.146 215.115 106.079 215.674 105.857 216.177C105.636 216.68 105.27 217.105 104.806 217.398C104.342 217.692 103.8 217.841 103.249 217.826C102.697 217.812 102.161 217.635 101.707 217.317C101.253 217 100.901 216.556 100.697 216.042C100.492 215.528 100.443 214.966 100.556 214.427C100.669 213.888 100.939 213.396 101.332 213.013V213.013Z" fill="black"/>
</g>
<g clip-path="url(#clip1_784_4764)">
<path d="M45.3703 125.147L44.0199 123.715C43.1672 122.81 41.9935 122.278 40.757 122.235C39.5205 122.193 38.3225 122.643 37.4265 123.488L29.3186 131.13C28.4227 131.975 27.9021 133.144 27.8715 134.381C27.841 135.618 28.3028 136.821 29.1555 137.725L30.5059 139.158C29.8898 140.035 29.5975 141.1 29.6786 142.174C29.7597 143.248 30.2091 144.265 30.9508 145.052C31.6924 145.838 32.6807 146.347 33.748 146.491C34.8154 146.636 35.8964 146.407 36.8076 145.844L39.4441 148.641C39.7851 149.003 40.2546 149.216 40.7492 149.233C41.2438 149.25 41.723 149.069 42.0814 148.732L54.2432 137.268C54.6016 136.931 54.8098 136.463 54.822 135.968C54.8343 135.473 54.6495 134.992 54.3084 134.63L51.672 131.833C52.2881 130.957 52.5804 129.891 52.4993 128.817C52.4182 127.743 51.9688 126.727 51.2272 125.94C50.4855 125.153 49.4973 124.644 48.4299 124.5C47.3625 124.355 46.2816 124.584 45.3703 125.147V125.147ZM30.6047 132.495L38.7126 124.852C39.2516 124.349 39.9698 124.08 40.7107 124.106C41.4517 124.131 42.1554 124.448 42.6686 124.988L44.019 126.421C43.4063 127.298 43.1164 128.363 43.198 129.436C43.2796 130.509 43.7279 131.524 44.4672 132.311L37.7107 138.68C36.9685 137.895 35.9813 137.388 34.9152 137.243C33.8491 137.098 32.7692 137.325 31.8572 137.884L30.5068 136.452C29.9981 135.908 29.7229 135.186 29.7412 134.445C29.7596 133.704 30.0699 133.003 30.6047 132.495V132.495ZM49.8084 131.142L49.7746 131.174C49.5954 131.343 49.4913 131.577 49.4852 131.824C49.4791 132.071 49.5714 132.312 49.742 132.493L52.9571 135.904L40.7954 147.367L37.5802 143.956C37.4961 143.867 37.3954 143.795 37.2837 143.745C37.1721 143.695 37.0519 143.667 36.9299 143.664C36.808 143.66 36.6868 143.681 36.5735 143.725C36.4601 143.769 36.3568 143.835 36.2696 143.919L36.2358 143.951C35.8304 144.321 35.3239 144.561 34.7798 144.642C34.2357 144.723 33.6782 144.642 33.1771 144.408C32.6761 144.174 32.2538 143.798 31.9633 143.326C31.6727 142.855 31.5268 142.31 31.5439 141.759C31.5609 141.209 31.7401 140.677 32.059 140.23C32.3779 139.784 32.8224 139.443 33.3366 139.25C33.8509 139.057 34.412 139.021 34.9498 139.146C35.4875 139.271 35.9778 139.552 36.3594 139.954L39.5745 143.365C39.7451 143.546 39.9798 143.652 40.2271 143.661C40.4744 143.669 40.714 143.579 40.8932 143.41C41.0724 143.241 41.1765 143.007 41.1826 142.76C41.1888 142.512 41.0964 142.272 40.9258 142.091L38.9968 140.044L45.7533 133.676L47.6824 135.722C47.8529 135.903 48.0877 136.01 48.335 136.018C48.5823 136.027 48.8219 135.937 49.0011 135.768C49.1803 135.599 49.2844 135.365 49.2905 135.118C49.2966 134.87 49.2042 134.63 49.0337 134.449L45.8185 131.038C45.4384 130.634 45.1848 130.129 45.0896 129.584C44.9944 129.04 45.0617 128.481 45.2832 127.978C45.5048 127.475 45.8705 127.05 46.3346 126.757C46.7987 126.463 47.3405 126.314 47.8918 126.329C48.4432 126.343 48.9796 126.52 49.4336 126.837C49.8877 127.155 50.2392 127.599 50.4439 128.113C50.6487 128.627 50.6976 129.189 50.5845 129.728C50.4714 130.267 50.2014 130.759 49.8084 131.142V131.142Z" fill="black"/>
</g>
<g clip-path="url(#clip2_784_4764)">
<path d="M153.02 174.793L154.371 176.226C155.223 177.13 156.397 177.662 157.634 177.705C158.87 177.747 160.068 177.297 160.964 176.452L169.072 168.81C169.968 167.966 170.488 166.796 170.519 165.559C170.55 164.323 170.088 163.12 169.235 162.215L167.885 160.782C168.501 159.906 168.793 158.84 168.712 157.766C168.631 156.692 168.182 155.676 167.44 154.889C166.698 154.102 165.71 153.593 164.643 153.449C163.575 153.304 162.494 153.533 161.583 154.096L158.947 151.299C158.605 150.938 158.136 150.725 157.641 150.708C157.147 150.691 156.668 150.871 156.309 151.209L144.147 162.672C143.789 163.01 143.581 163.477 143.569 163.972C143.556 164.467 143.741 164.948 144.082 165.31L146.719 168.107C146.103 168.984 145.81 170.049 145.891 171.123C145.972 172.197 146.422 173.214 147.163 174.001C147.905 174.787 148.893 175.296 149.961 175.441C151.028 175.585 152.109 175.356 153.02 174.793V174.793ZM167.786 167.446L159.678 175.088C159.139 175.592 158.421 175.86 157.68 175.835C156.939 175.809 156.235 175.492 155.722 174.952L154.372 173.519C154.984 172.642 155.274 171.577 155.193 170.504C155.111 169.432 154.663 168.416 153.923 167.629L160.68 161.26C161.422 162.045 162.409 162.552 163.475 162.697C164.542 162.842 165.621 162.616 166.533 162.056L167.884 163.489C168.393 164.033 168.668 164.754 168.649 165.495C168.631 166.236 168.321 166.937 167.786 167.446V167.446ZM148.582 168.798L148.616 168.767C148.795 168.598 148.899 168.364 148.905 168.116C148.912 167.869 148.819 167.628 148.649 167.447L145.433 164.036L157.595 152.573L160.81 155.984C160.894 156.073 160.995 156.145 161.107 156.195C161.219 156.246 161.339 156.273 161.461 156.277C161.583 156.28 161.704 156.259 161.817 156.215C161.931 156.171 162.034 156.105 162.121 156.021L162.155 155.989C162.56 155.62 163.067 155.379 163.611 155.298C164.155 155.217 164.712 155.298 165.213 155.532C165.715 155.767 166.137 156.143 166.427 156.614C166.718 157.085 166.864 157.63 166.847 158.181C166.83 158.732 166.651 159.264 166.332 159.71C166.013 160.156 165.568 160.497 165.054 160.69C164.54 160.883 163.979 160.919 163.441 160.794C162.903 160.669 162.413 160.388 162.031 159.987L158.816 156.576C158.646 156.395 158.411 156.288 158.163 156.28C157.916 156.271 157.677 156.361 157.497 156.53C157.318 156.699 157.214 156.933 157.208 157.18C157.202 157.428 157.294 157.668 157.465 157.849L159.394 159.896L152.637 166.264L150.708 164.218C150.538 164.037 150.303 163.93 150.056 163.922C149.808 163.913 149.569 164.004 149.39 164.172C149.21 164.341 149.106 164.575 149.1 164.823C149.094 165.07 149.186 165.311 149.357 165.492L152.572 168.903C152.952 169.306 153.206 169.812 153.301 170.356C153.396 170.9 153.329 171.459 153.107 171.962C152.886 172.465 152.52 172.89 152.056 173.184C151.592 173.477 151.05 173.626 150.499 173.612C149.947 173.597 149.411 173.42 148.957 173.103C148.503 172.785 148.151 172.342 147.947 171.827C147.742 171.313 147.693 170.751 147.806 170.212C147.919 169.673 148.189 169.182 148.582 168.798V168.798Z" fill="black"/>
</g>
<g clip-path="url(#clip3_784_4764)">
<path d="M92.6242 80.9317L91.2738 79.4991C90.4211 78.5944 89.2474 78.0623 88.0109 78.0197C86.7744 77.9772 85.5764 78.4278 84.6804 79.2723L76.5726 86.9145C75.6766 87.759 75.156 88.9283 75.1255 90.1651C75.0949 91.402 75.5567 92.6051 76.4094 93.5098L77.7598 94.9424C77.1437 95.8188 76.8514 96.8843 76.9325 97.9584C77.0136 99.0325 77.463 100.049 78.2047 100.836C78.9463 101.623 79.9346 102.131 81.002 102.276C82.0694 102.42 83.1503 102.191 84.0615 101.628L86.698 104.425C87.039 104.787 87.5085 105 88.0031 105.017C88.4977 105.034 88.9769 104.854 89.3353 104.516L101.497 93.0526C101.855 92.7148 102.064 92.2471 102.076 91.7524C102.088 91.2576 101.903 90.7764 101.562 90.4145L98.9259 87.6174C99.542 86.741 99.8343 85.6755 99.7532 84.6015C99.6721 83.5274 99.2227 82.5108 98.4811 81.724C97.7394 80.9372 96.7512 80.4285 95.6838 80.2841C94.6164 80.1397 93.5355 80.3685 92.6242 80.9317V80.9317ZM77.8586 88.2789L85.9665 80.6367C86.5055 80.1329 87.2237 79.8645 87.9646 79.89C88.7056 79.9155 89.4093 80.2328 89.9225 80.7728L91.2729 82.2054C90.6602 83.0827 90.3703 84.1474 90.4519 85.2201C90.5336 86.2929 90.9818 87.3084 91.7211 88.0957L84.9646 94.4642C84.2224 93.6796 83.2352 93.1722 82.1691 93.0273C81.103 92.8824 80.0231 93.1089 79.1111 93.6687L77.7608 92.2361C77.252 91.6919 76.9768 90.9706 76.9952 90.2295C77.0135 89.4883 77.3238 88.7872 77.8586 88.2789V88.2789ZM97.0623 86.9262L97.0285 86.9581C96.8493 87.127 96.7452 87.3608 96.7391 87.6082C96.733 87.8556 96.8253 88.0962 96.9959 88.2771L100.211 91.6882L88.0493 103.151L84.8341 99.7404C84.75 99.6512 84.6493 99.5794 84.5377 99.5293C84.426 99.4791 84.3058 99.4514 84.1838 99.448C84.0619 99.4446 83.9408 99.4654 83.8274 99.5093C83.714 99.5532 83.6107 99.6192 83.5235 99.7036L83.4897 99.7354C83.0843 100.105 82.5778 100.345 82.0337 100.426C81.4896 100.508 80.9321 100.426 80.431 100.192C79.93 99.9581 79.5077 99.5819 79.2172 99.1108C78.9266 98.6396 78.7807 98.0945 78.7978 97.5437C78.8148 96.9929 78.994 96.4609 79.3129 96.0145C79.6319 95.5681 80.0763 95.2271 80.5905 95.0343C81.1048 94.8415 81.6659 94.8054 82.2037 94.9305C82.7414 95.0557 83.2318 95.3365 83.6133 95.7379L86.8284 99.1489C86.999 99.3299 87.2337 99.4363 87.481 99.4448C87.7283 99.4533 87.9679 99.3632 88.1471 99.1943C88.3263 99.0254 88.4304 98.7915 88.4366 98.5442C88.4427 98.2968 88.3503 98.0562 88.1798 97.8752L86.2507 95.8286L93.0072 89.4601L94.9363 91.5068C95.1068 91.6877 95.3416 91.7941 95.5889 91.8026C95.8362 91.8111 96.0758 91.721 96.255 91.5521C96.4342 91.3832 96.5383 91.1494 96.5444 90.902C96.5505 90.6546 96.4581 90.414 96.2876 90.2331L93.0724 86.822C92.6923 86.4186 92.4387 85.913 92.3435 85.3686C92.2483 84.8243 92.3156 84.2655 92.5371 83.7624C92.7587 83.2593 93.1244 82.8343 93.5885 82.5408C94.0526 82.2473 94.5944 82.0985 95.1458 82.1129C95.6971 82.1273 96.2335 82.3043 96.6875 82.6218C97.1416 82.9392 97.4931 83.383 97.6978 83.8972C97.9026 84.4115 97.9515 84.9733 97.8384 85.5122C97.7254 86.0511 97.4553 86.5431 97.0623 86.9262V86.9262Z" fill="black"/>
</g>
<g clip-path="url(#clip4_784_4764)">
<path d="M200.274 130.578L201.625 132.011C202.477 132.915 203.651 133.448 204.888 133.49C206.124 133.533 207.322 133.082 208.218 132.238L216.326 124.595C217.222 123.751 217.742 122.582 217.773 121.345C217.804 120.108 217.342 118.905 216.489 118L215.139 116.567C215.755 115.691 216.047 114.626 215.966 113.552C215.885 112.477 215.435 111.461 214.694 110.674C213.952 109.887 212.964 109.378 211.896 109.234C210.829 109.09 209.748 109.319 208.837 109.882L206.2 107.085C205.859 106.723 205.39 106.51 204.895 106.493C204.401 106.476 203.921 106.656 203.563 106.994L191.401 118.457C191.043 118.795 190.835 119.263 190.822 119.758C190.81 120.252 190.995 120.734 191.336 121.095L193.973 123.892C193.356 124.769 193.064 125.834 193.145 126.908C193.226 127.982 193.676 128.999 194.417 129.786C195.159 130.573 196.147 131.081 197.215 131.226C198.282 131.37 199.363 131.141 200.274 130.578V130.578ZM215.04 123.231L206.932 130.873C206.393 131.377 205.675 131.645 204.934 131.62C204.193 131.594 203.489 131.277 202.976 130.737L201.626 129.304C202.238 128.427 202.528 127.363 202.447 126.29C202.365 125.217 201.917 124.201 201.177 123.414L207.934 117.046C208.676 117.83 209.663 118.338 210.729 118.483C211.795 118.627 212.875 118.401 213.787 117.841L215.138 119.274C215.646 119.818 215.922 120.539 215.903 121.28C215.885 122.022 215.575 122.723 215.04 123.231V123.231ZM195.836 124.584L195.87 124.552C196.049 124.383 196.153 124.149 196.159 123.902C196.165 123.654 196.073 123.414 195.903 123.233L192.687 119.822L204.849 108.358L208.064 111.769C208.148 111.859 208.249 111.93 208.361 111.981C208.472 112.031 208.593 112.058 208.715 112.062C208.837 112.065 208.958 112.044 209.071 112.001C209.184 111.957 209.288 111.891 209.375 111.806L209.409 111.774C209.814 111.405 210.321 111.165 210.865 111.083C211.409 111.002 211.966 111.084 212.467 111.318C212.968 111.552 213.391 111.928 213.681 112.399C213.972 112.87 214.118 113.415 214.101 113.966C214.084 114.517 213.904 115.049 213.586 115.495C213.267 115.942 212.822 116.283 212.308 116.476C211.794 116.668 211.233 116.705 210.695 116.579C210.157 116.454 209.667 116.173 209.285 115.772L206.07 112.361C205.899 112.18 205.665 112.074 205.417 112.065C205.17 112.057 204.93 112.147 204.751 112.316C204.572 112.484 204.468 112.718 204.462 112.966C204.456 113.213 204.548 113.454 204.719 113.635L206.648 115.681L199.891 122.05L197.962 120.003C197.792 119.822 197.557 119.716 197.31 119.707C197.062 119.699 196.823 119.789 196.643 119.958C196.464 120.127 196.36 120.361 196.354 120.608C196.348 120.855 196.44 121.096 196.611 121.277L199.826 124.688C200.206 125.091 200.46 125.597 200.555 126.141C200.65 126.686 200.583 127.244 200.361 127.748C200.14 128.251 199.774 128.676 199.31 128.969C198.846 129.263 198.304 129.411 197.753 129.397C197.201 129.383 196.665 129.206 196.211 128.888C195.757 128.571 195.405 128.127 195.201 127.613C194.996 127.098 194.947 126.537 195.06 125.998C195.173 125.459 195.443 124.967 195.836 124.584V124.584Z" fill="black"/>
</g>
<g clip-path="url(#clip5_784_4764)">
<path d="M139.874 36.7171L138.524 35.2845C137.671 34.3798 136.497 33.8477 135.261 33.8051C134.024 33.7626 132.826 34.2132 131.93 35.0577L123.823 42.6999C122.927 43.5444 122.406 44.7137 122.375 45.9505C122.345 47.1874 122.807 48.3905 123.659 49.2952L125.01 50.7278C124.394 51.6042 124.101 52.6697 124.183 53.7438C124.264 54.8179 124.713 55.8344 125.455 56.6213C126.196 57.4081 127.185 57.9168 128.252 58.0612C129.319 58.2056 130.4 57.9768 131.312 57.4135L133.948 60.2106C134.289 60.5725 134.759 60.7853 135.253 60.8023C135.748 60.8193 136.227 60.6391 136.585 60.3013L148.747 48.838C149.105 48.5002 149.314 48.0325 149.326 47.5378C149.338 47.043 149.153 46.5618 148.812 46.1999L146.176 43.4028C146.792 42.5264 147.084 41.4609 147.003 40.3869C146.922 39.3128 146.473 38.2962 145.731 37.5094C144.989 36.7226 144.001 36.2139 142.934 36.0695C141.866 35.9251 140.785 36.1539 139.874 36.7171V36.7171ZM125.109 44.0643L133.216 36.4221C133.755 35.9183 134.474 35.6499 135.215 35.6754C135.956 35.7009 136.659 36.0182 137.173 36.5582L138.523 37.9908C137.91 38.8681 137.62 39.9328 137.702 41.0055C137.784 42.0783 138.232 43.0938 138.971 43.8811L132.215 50.2496C131.472 49.465 130.485 48.9576 129.419 48.8127C128.353 48.6678 127.273 48.8943 126.361 49.4541L125.011 48.0215C124.502 47.4773 124.227 46.756 124.245 46.0149C124.263 45.2737 124.574 44.5726 125.109 44.0643V44.0643ZM144.312 42.7116L144.279 42.7435C144.099 42.9124 143.995 43.1462 143.989 43.3936C143.983 43.641 144.075 43.8816 144.246 44.0625L147.461 47.4736L135.299 58.9369L132.084 55.5258C132 55.4366 131.899 55.3648 131.788 55.3147C131.676 55.2645 131.556 55.2368 131.434 55.2334C131.312 55.23 131.191 55.2508 131.077 55.2947C130.964 55.3386 130.861 55.4046 130.773 55.489L130.74 55.5208C130.334 55.8902 129.828 56.1306 129.284 56.2119C128.74 56.2931 128.182 56.2116 127.681 55.9775C127.18 55.7435 126.758 55.3673 126.467 54.8962C126.177 54.425 126.031 53.8799 126.048 53.3291C126.065 52.7783 126.244 52.2463 126.563 51.7999C126.882 51.3535 127.326 51.0125 127.841 50.8197C128.355 50.6269 128.916 50.5908 129.454 50.7159C129.991 50.8411 130.482 51.1219 130.863 51.5233L134.078 54.9343C134.249 55.1153 134.484 55.2217 134.731 55.2302C134.978 55.2387 135.218 55.1486 135.397 54.9797C135.576 54.8108 135.68 54.5769 135.687 54.3296C135.693 54.0822 135.6 53.8416 135.43 53.6606L133.501 51.614L140.257 45.2455L142.186 47.2922C142.357 47.4731 142.592 47.5795 142.839 47.588C143.086 47.5965 143.326 47.5064 143.505 47.3375C143.684 47.1686 143.788 46.9348 143.794 46.6874C143.801 46.44 143.708 46.1994 143.538 46.0185L140.322 42.6074C139.942 42.204 139.689 41.6984 139.594 41.154C139.498 40.6097 139.566 40.0509 139.787 39.5478C140.009 39.0447 140.374 38.6197 140.839 38.3262C141.303 38.0327 141.844 37.8839 142.396 37.8983C142.947 37.9127 143.483 38.0897 143.938 38.4072C144.392 38.7246 144.743 39.1684 144.948 39.6826C145.153 40.1969 145.201 40.7587 145.088 41.2976C144.975 41.8365 144.705 42.3285 144.312 42.7116V42.7116Z" fill="black"/>
</g>
<path d="M126.343 142.18C123.482 142.18 120.679 141.774 117.933 140.962C115.227 140.112 112.945 138.952 111.089 137.482L114.337 131.624C115.807 132.823 117.585 133.79 119.673 134.524C121.761 135.259 123.946 135.626 126.227 135.626C128.934 135.626 131.041 135.085 132.549 134.002C134.057 132.881 134.811 131.373 134.811 129.478C134.811 127.622 134.115 126.153 132.723 125.07C131.331 123.988 129.089 123.446 125.995 123.446H122.283V118.284L133.883 104.48L134.869 107.322H113.061V101H140.727V106.046L129.127 119.85L125.183 117.53H127.445C132.433 117.53 136.165 118.652 138.639 120.894C141.153 123.098 142.409 125.94 142.409 129.42C142.409 131.702 141.829 133.809 140.669 135.742C139.509 137.676 137.731 139.242 135.333 140.44C132.975 141.6 129.978 142.18 126.343 142.18Z" fill="black"/>
<defs>
<clipPath id="clip0_784_4764">
<rect width="29.7115" height="30" fill="white" transform="translate(131.152 209.385) rotate(136.693)"/>
</clipPath>
<clipPath id="clip1_784_4764">
<rect width="29.7115" height="30" fill="white" transform="translate(19.9883 134.77) rotate(-43.3065)"/>
</clipPath>
<clipPath id="clip2_784_4764">
<rect width="29.7115" height="30" fill="white" transform="translate(178.402 165.171) rotate(136.693)"/>
</clipPath>
<clipPath id="clip3_784_4764">
<rect width="29.7115" height="30" fill="white" transform="translate(67.2422 90.5541) rotate(-43.3065)"/>
</clipPath>
<clipPath id="clip4_784_4764">
<rect width="29.7115" height="30" fill="white" transform="translate(225.656 120.956) rotate(136.693)"/>
</clipPath>
<clipPath id="clip5_784_4764">
<rect width="29.7115" height="30" fill="white" transform="translate(114.492 46.3395) rotate(-43.3065)"/>
</clipPath>
</defs>
</svg>
