<svg width="151" height="150" viewBox="0 0 151 150" fill="none" xmlns="http://www.w3.org/2000/svg">
<rect x="43.8438" y="11.5" width="64.0349" height="127" rx="9.5" fill="#FFDF7F" stroke="black"/>
<path d="M18.75 28.1424H16.7812C15.538 28.1424 14.3458 28.6316 13.4667 29.5022C12.5876 30.3728 12.0938 31.5536 12.0938 32.7849L12.0938 43.9267C12.0938 45.1579 12.5876 46.3388 13.4667 47.2094C14.3458 48.08 15.538 48.5691 16.7812 48.5691H18.75C18.9652 49.6186 19.5401 50.5621 20.3773 51.2398C21.2145 51.9175 22.2625 52.2877 23.3438 52.2877C24.425 52.2877 25.473 51.9175 26.3102 51.2398C27.1474 50.5621 27.7223 49.6186 27.9375 48.5691H31.7812C32.2785 48.5691 32.7554 48.3735 33.1071 48.0252C33.4587 47.677 33.6562 47.2047 33.6562 46.7122V29.9994C33.6562 29.5069 33.4587 29.0346 33.1071 28.6863C32.7554 28.3381 32.2785 28.1424 31.7812 28.1424H27.9375C27.7223 27.093 27.1474 26.1495 26.3102 25.4718C25.473 24.7941 24.425 24.4238 23.3438 24.4238C22.2625 24.4238 21.2145 24.7941 20.3773 25.4718C19.5401 26.1495 18.9652 27.093 18.75 28.1424V28.1424ZM13.9688 43.9267L13.9688 32.7849C13.9718 32.0471 14.2691 31.3403 14.7959 30.8186C15.3227 30.2969 16.0363 30.0025 16.7812 29.9994H18.75C18.9682 31.047 19.544 31.9882 20.3807 32.6646C21.2173 33.341 22.2637 33.7114 23.3438 33.7134V42.9982C22.2637 43.0002 21.2173 43.3705 20.3807 44.0469C19.544 44.7234 18.9682 45.6646 18.75 46.7122H16.7812C16.0363 46.7091 15.3227 46.4146 14.7959 45.8929C14.2691 45.3712 13.9718 44.6645 13.9688 43.9267V43.9267ZM26.1562 29.0245V29.0709C26.1562 29.3172 26.255 29.5533 26.4308 29.7275C26.6067 29.9016 26.8451 29.9994 27.0938 29.9994H31.7812V46.7122H27.0938C26.9712 46.7121 26.8498 46.7362 26.7367 46.783C26.6236 46.8298 26.5211 46.8984 26.4349 46.9848C26.3488 47.0712 26.2809 47.1736 26.235 47.2862C26.1892 47.3988 26.1664 47.5193 26.168 47.6406V47.6871C26.1587 48.2354 25.9863 48.7689 25.6722 49.2205C25.3581 49.6722 24.9164 50.022 24.4024 50.2261C23.8884 50.4301 23.325 50.4794 22.7829 50.3677C22.2408 50.2559 21.744 49.9882 21.3549 49.598C20.9657 49.2078 20.7016 48.7126 20.5955 48.1743C20.4894 47.636 20.5461 47.0787 20.7585 46.5722C20.9709 46.0658 21.3295 45.6327 21.7894 45.3272C22.2493 45.0217 22.79 44.8575 23.3438 44.8552H28.0312C28.2799 44.8552 28.5183 44.7574 28.6942 44.5832C28.87 44.4091 28.9688 44.1729 28.9688 43.9267C28.9688 43.6804 28.87 43.4443 28.6942 43.2702C28.5183 43.096 28.2799 42.9982 28.0312 42.9982H25.2188V33.7134H28.0312C28.2799 33.7134 28.5183 33.6155 28.6942 33.4414C28.87 33.2673 28.9688 33.0311 28.9688 32.7849C28.9688 32.5386 28.87 32.3025 28.6942 32.1283C28.5183 31.9542 28.2799 31.8564 28.0312 31.8564H23.3438C22.7895 31.8563 22.2476 31.694 21.7862 31.39C21.3247 31.0859 20.9643 30.6536 20.7501 30.1473C20.5359 29.641 20.4776 29.0834 20.5824 28.5444C20.6871 28.0053 20.9504 27.509 21.339 27.1177C21.7277 26.7263 22.2244 26.4574 22.7669 26.3448C23.3093 26.2321 23.8733 26.2807 24.388 26.4844C24.9026 26.6881 25.345 27.0379 25.6596 27.4898C25.9742 27.9418 26.147 28.4757 26.1562 29.0245V29.0245Z" fill="black"/>
<path d="M18.75 88.1424H16.7812C15.538 88.1424 14.3458 88.6316 13.4667 89.5022C12.5876 90.3728 12.0938 91.5536 12.0938 92.7849L12.0938 103.927C12.0938 105.158 12.5876 106.339 13.4667 107.209C14.3458 108.08 15.538 108.569 16.7812 108.569H18.75C18.9652 109.619 19.5401 110.562 20.3773 111.24C21.2145 111.918 22.2625 112.288 23.3438 112.288C24.425 112.288 25.473 111.918 26.3102 111.24C27.1474 110.562 27.7223 109.619 27.9375 108.569H31.7812C32.2785 108.569 32.7554 108.373 33.1071 108.025C33.4587 107.677 33.6562 107.205 33.6562 106.712V89.9994C33.6562 89.5069 33.4587 89.0346 33.1071 88.6863C32.7554 88.3381 32.2785 88.1424 31.7812 88.1424H27.9375C27.7223 87.093 27.1474 86.1495 26.3102 85.4718C25.473 84.7941 24.425 84.4238 23.3438 84.4238C22.2625 84.4238 21.2145 84.7941 20.3773 85.4718C19.5401 86.1495 18.9652 87.093 18.75 88.1424V88.1424ZM13.9688 103.927L13.9688 92.7849C13.9718 92.0471 14.2691 91.3403 14.7959 90.8186C15.3227 90.2969 16.0363 90.0025 16.7812 89.9994H18.75C18.9682 91.047 19.544 91.9882 20.3807 92.6646C21.2173 93.341 22.2637 93.7114 23.3438 93.7134V102.998C22.2637 103 21.2173 103.371 20.3807 104.047C19.544 104.723 18.9682 105.665 18.75 106.712H16.7812C16.0363 106.709 15.3227 106.415 14.7959 105.893C14.2691 105.371 13.9718 104.665 13.9688 103.927V103.927ZM26.1562 89.0245V89.0709C26.1562 89.3172 26.255 89.5533 26.4308 89.7275C26.6067 89.9016 26.8451 89.9994 27.0938 89.9994H31.7812V106.712H27.0938C26.9712 106.712 26.8498 106.736 26.7367 106.783C26.6236 106.83 26.5211 106.898 26.4349 106.985C26.3488 107.071 26.2809 107.174 26.235 107.286C26.1892 107.399 26.1664 107.519 26.168 107.641V107.687C26.1587 108.235 25.9863 108.769 25.6722 109.221C25.3581 109.672 24.9164 110.022 24.4024 110.226C23.8884 110.43 23.325 110.479 22.7829 110.368C22.2408 110.256 21.744 109.988 21.3549 109.598C20.9657 109.208 20.7016 108.713 20.5955 108.174C20.4894 107.636 20.5461 107.079 20.7585 106.572C20.9709 106.066 21.3295 105.633 21.7894 105.327C22.2493 105.022 22.79 104.858 23.3438 104.855H28.0312C28.2799 104.855 28.5183 104.757 28.6942 104.583C28.87 104.409 28.9688 104.173 28.9688 103.927C28.9688 103.68 28.87 103.444 28.6942 103.27C28.5183 103.096 28.2799 102.998 28.0312 102.998H25.2188V93.7134H28.0312C28.2799 93.7134 28.5183 93.6155 28.6942 93.4414C28.87 93.2673 28.9688 93.0311 28.9688 92.7849C28.9688 92.5386 28.87 92.3025 28.6942 92.1283C28.5183 91.9542 28.2799 91.8564 28.0312 91.8564H23.3438C22.7895 91.8563 22.2476 91.694 21.7862 91.39C21.3247 91.0859 20.9643 90.6536 20.7501 90.1473C20.5359 89.641 20.4776 89.0834 20.5824 88.5444C20.6871 88.0053 20.9504 87.509 21.339 87.1177C21.7277 86.7263 22.2244 86.4574 22.7669 86.3448C23.3093 86.2321 23.8733 86.2807 24.388 86.4844C24.9026 86.6881 25.345 87.0379 25.6596 87.4898C25.9742 87.9418 26.147 88.4757 26.1562 89.0245V89.0245Z" fill="black"/>
<path d="M132.973 108.569H134.941C136.185 108.569 137.377 108.08 138.256 107.209C139.135 106.339 139.629 105.158 139.629 103.927V92.7847C139.629 91.5535 139.135 90.3727 138.256 89.502C137.377 88.6314 136.185 88.1423 134.941 88.1423H132.973C132.757 87.0928 132.183 86.1493 131.345 85.4716C130.508 84.7939 129.46 84.4237 128.379 84.4237C127.298 84.4237 126.25 84.7939 125.412 85.4716C124.575 86.1493 124 87.0928 123.785 88.1423H119.941C119.444 88.1423 118.967 88.3379 118.616 88.6862C118.264 89.0344 118.066 89.5068 118.066 89.9993V106.712C118.066 107.205 118.264 107.677 118.616 108.025C118.967 108.373 119.444 108.569 119.941 108.569H123.785C124 109.618 124.575 110.562 125.412 111.24C126.25 111.917 127.298 112.288 128.379 112.288C129.46 112.288 130.508 111.917 131.345 111.24C132.183 110.562 132.757 109.618 132.973 108.569V108.569ZM137.754 92.7847V103.927C137.751 104.664 137.454 105.371 136.927 105.893C136.4 106.415 135.686 106.709 134.941 106.712H132.973C132.754 105.664 132.179 104.723 131.342 104.047C130.505 103.37 129.459 103 128.379 102.998V93.7132C129.459 93.7113 130.505 93.3409 131.342 92.6645C132.179 91.9881 132.754 91.0469 132.973 89.9993H134.941C135.686 90.0023 136.4 90.2968 136.927 90.8185C137.454 91.3402 137.751 92.0469 137.754 92.7847V92.7847ZM125.566 107.687V107.64C125.566 107.394 125.468 107.158 125.292 106.984C125.116 106.81 124.878 106.712 124.629 106.712H119.941V89.9993H124.629C124.751 89.9993 124.873 89.9752 124.986 89.9284C125.099 89.8816 125.202 89.813 125.288 89.7266C125.374 89.6403 125.442 89.5378 125.488 89.4252C125.533 89.3126 125.556 89.1922 125.555 89.0708V89.0244C125.564 88.476 125.736 87.9426 126.05 87.4909C126.365 87.0392 126.806 86.6894 127.32 86.4854C127.834 86.2813 128.398 86.232 128.94 86.3438C129.482 86.4555 129.979 86.7232 130.368 87.1134C130.757 87.5036 131.021 87.9989 131.127 88.5371C131.233 89.0754 131.177 89.6327 130.964 90.1392C130.752 90.6457 130.393 91.0788 129.933 91.3842C129.473 91.6897 128.933 91.8539 128.379 91.8562H123.691C123.443 91.8562 123.204 91.9541 123.028 92.1282C122.853 92.3023 122.754 92.5385 122.754 92.7847C122.754 93.031 122.853 93.2671 123.028 93.4413C123.204 93.6154 123.443 93.7132 123.691 93.7132H126.504V102.998H123.691C123.443 102.998 123.204 103.096 123.028 103.27C122.853 103.444 122.754 103.68 122.754 103.927C122.754 104.173 122.853 104.409 123.028 104.583C123.204 104.757 123.443 104.855 123.691 104.855H128.379C128.933 104.855 129.475 105.017 129.936 105.321C130.398 105.626 130.758 106.058 130.973 106.564C131.187 107.07 131.245 107.628 131.14 108.167C131.036 108.706 130.772 109.202 130.384 109.594C129.995 109.985 129.498 110.254 128.956 110.367C128.413 110.479 127.849 110.431 127.335 110.227C126.82 110.023 126.378 109.674 126.063 109.222C125.748 108.77 125.576 108.236 125.566 107.687V107.687Z" fill="black"/>
<path d="M132.973 48.569H134.941C136.185 48.569 137.377 48.0799 138.256 47.2092C139.135 46.3386 139.629 45.1578 139.629 43.9266V32.7847C139.629 31.5535 139.135 30.3727 138.256 29.502C137.377 28.6314 136.185 28.1423 134.941 28.1423H132.973C132.757 27.0928 132.183 26.1493 131.345 25.4716C130.508 24.7939 129.46 24.4237 128.379 24.4237C127.298 24.4237 126.25 24.7939 125.412 25.4716C124.575 26.1493 124 27.0928 123.785 28.1423H119.941C119.444 28.1423 118.967 28.3379 118.616 28.6862C118.264 29.0344 118.066 29.5068 118.066 29.9993V46.712C118.066 47.2045 118.264 47.6768 118.616 48.0251C118.967 48.3733 119.444 48.569 119.941 48.569H123.785C124 49.6184 124.575 50.562 125.412 51.2397C126.25 51.9174 127.298 52.2876 128.379 52.2876C129.46 52.2876 130.508 51.9174 131.345 51.2397C132.183 50.562 132.757 49.6184 132.973 48.569V48.569ZM137.754 32.7847V43.9266C137.751 44.6644 137.454 45.3711 136.927 45.8928C136.4 46.4145 135.686 46.709 134.941 46.712H132.973C132.754 45.6644 132.179 44.7232 131.342 44.0468C130.505 43.3704 129.459 43 128.379 42.9981V33.7132C129.459 33.7113 130.505 33.3409 131.342 32.6645C132.179 31.9881 132.754 31.0469 132.973 29.9993H134.941C135.686 30.0023 136.4 30.2968 136.927 30.8185C137.454 31.3402 137.751 32.0469 137.754 32.7847V32.7847ZM125.566 47.6869V47.6405C125.566 47.3942 125.468 47.1581 125.292 46.984C125.116 46.8098 124.878 46.712 124.629 46.712H119.941V29.9993H124.629C124.751 29.9993 124.873 29.9752 124.986 29.9284C125.099 29.8816 125.202 29.813 125.288 29.7266C125.374 29.6403 125.442 29.5378 125.488 29.4252C125.533 29.3126 125.556 29.1922 125.555 29.0708V29.0244C125.564 28.476 125.736 27.9426 126.05 27.4909C126.365 27.0392 126.806 26.6894 127.32 26.4854C127.834 26.2813 128.398 26.232 128.94 26.3438C129.482 26.4555 129.979 26.7232 130.368 27.1134C130.757 27.5036 131.021 27.9989 131.127 28.5371C131.233 29.0754 131.177 29.6327 130.964 30.1392C130.752 30.6457 130.393 31.0788 129.933 31.3842C129.473 31.6897 128.933 31.8539 128.379 31.8562L123.691 31.8562C123.443 31.8562 123.204 31.9541 123.028 32.1282C122.853 32.3023 122.754 32.5385 122.754 32.7847C122.754 33.031 122.853 33.2671 123.028 33.4413C123.204 33.6154 123.443 33.7132 123.691 33.7132H126.504V42.9981H123.691C123.443 42.9981 123.204 43.0959 123.028 43.27C122.853 43.4441 122.754 43.6803 122.754 43.9266C122.754 44.1728 122.853 44.409 123.028 44.5831C123.204 44.7572 123.443 44.855 123.691 44.855H128.379C128.933 44.8551 129.475 45.0174 129.936 45.3214C130.398 45.6255 130.758 46.0578 130.973 46.5641C131.187 47.0704 131.245 47.628 131.14 48.1671C131.036 48.7061 130.772 49.2024 130.384 49.5938C129.995 49.9851 129.498 50.254 128.956 50.3667C128.413 50.4793 127.849 50.4307 127.335 50.227C126.82 50.0233 126.378 49.6735 126.063 49.2216C125.748 48.7697 125.576 48.2358 125.566 47.6869V47.6869Z" fill="black"/>
<path d="M60.5105 89.9209V84.8749L76.6345 69.5629C77.9878 68.2869 78.9931 67.1656 79.6505 66.1989C80.3078 65.2322 80.7331 64.3429 80.9265 63.5309C81.1585 62.6802 81.2745 61.8876 81.2745 61.1529C81.2745 59.2969 80.6365 57.8662 79.3605 56.8609C78.0845 55.8169 76.2091 55.2949 73.7345 55.2949C71.7625 55.2949 69.9645 55.6429 68.3405 56.3389C66.7551 57.0349 65.3825 58.0982 64.2225 59.5289L58.9445 55.4689C60.5298 53.3422 62.6565 51.6989 65.3245 50.5389C68.0311 49.3402 71.0471 48.7409 74.3725 48.7409C77.3111 48.7409 79.8631 49.2242 82.0285 50.1909C84.2325 51.1189 85.9145 52.4529 87.0745 54.1929C88.2731 55.9329 88.8725 58.0016 88.8725 60.3989C88.8725 61.7136 88.6985 63.0282 88.3505 64.3429C88.0025 65.6189 87.3451 66.9722 86.3785 68.4029C85.4118 69.8336 84.0005 71.4382 82.1445 73.2169L68.2825 86.3829L66.7165 83.5409H90.4385V89.9209H60.5105Z" fill="black"/>
</svg>
