<svg width="150" height="150" viewBox="0 0 150 150" fill="none" xmlns="http://www.w3.org/2000/svg">
<rect x="42.9844" y="11.5" width="64.0349" height="127" rx="9.5" fill="#FFDF7F" stroke="black"/>
<path d="M17.8906 34.7867H15.9219C14.6787 34.7867 13.4864 35.2758 12.6073 36.1465C11.7282 37.0171 11.2344 38.1979 11.2344 39.4292L11.2344 50.571C11.2344 51.8022 11.7282 52.9831 12.6073 53.8537C13.4864 54.7243 14.6787 55.2134 15.9219 55.2134H17.8906C18.1058 56.2629 18.6807 57.2064 19.5179 57.8841C20.3551 58.5618 21.4031 58.932 22.4844 58.932C23.5656 58.932 24.6137 58.5618 25.4509 57.8841C26.2881 57.2064 26.863 56.2629 27.0781 55.2134H30.9219C31.4192 55.2134 31.8961 55.0178 32.2477 54.6695C32.5993 54.3213 32.7969 53.8489 32.7969 53.3564V36.6437C32.7969 36.1512 32.5993 35.6789 32.2477 35.3306C31.8961 34.9824 31.4192 34.7867 30.9219 34.7867H27.0781C26.863 33.7373 26.2881 32.7938 25.4509 32.1161C24.6137 31.4383 23.5656 31.0681 22.4844 31.0681C21.4031 31.0681 20.3551 31.4383 19.5179 32.1161C18.6807 32.7938 18.1058 33.7373 17.8906 34.7867V34.7867ZM13.1094 50.571L13.1094 39.4292C13.1125 38.6913 13.4098 37.9846 13.9365 37.4629C14.4633 36.9412 15.1769 36.6468 15.9219 36.6437H17.8906C18.1088 37.6913 18.6846 38.6325 19.5213 39.3089C20.358 39.9853 21.4043 40.3557 22.4844 40.3576V49.6425C21.4043 49.6445 20.358 50.0148 19.5213 50.6912C18.6846 51.3676 18.1088 52.3088 17.8906 53.3564H15.9219C15.1769 53.3534 14.4633 53.0589 13.9365 52.5372C13.4098 52.0155 13.1125 51.3088 13.1094 50.571V50.571ZM25.2969 35.6688V35.7152C25.2969 35.9615 25.3956 36.1976 25.5715 36.3718C25.7473 36.5459 25.9857 36.6437 26.2344 36.6437H30.9219V53.3564H26.2344C26.1118 53.3564 25.9905 53.3805 25.8774 53.4273C25.7643 53.4741 25.6617 53.5427 25.5756 53.6291C25.4894 53.7155 25.4215 53.8179 25.3757 53.9305C25.3298 54.0431 25.307 54.1635 25.3086 54.2849V54.3313C25.2994 54.8797 25.1269 55.4131 24.8128 55.8648C24.4987 56.3165 24.057 56.6663 23.543 56.8703C23.029 57.0744 22.4657 57.1237 21.9235 57.0119C21.3814 56.9002 20.8846 56.6325 20.4955 56.2423C20.1064 55.8521 19.8422 55.3568 19.7361 54.8186C19.63 54.2803 19.6867 53.723 19.8991 53.2165C20.1115 52.7101 20.4701 52.2769 20.93 51.9715C21.3899 51.666 21.9306 51.5018 22.4844 51.4995H27.1719C27.4205 51.4995 27.659 51.4016 27.8348 51.2275C28.0106 51.0534 28.1094 50.8172 28.1094 50.571C28.1094 50.3247 28.0106 50.0886 27.8348 49.9144C27.659 49.7403 27.4205 49.6425 27.1719 49.6425H24.3594V40.3576H27.1719C27.4205 40.3576 27.659 40.2598 27.8348 40.0857C28.0106 39.9116 28.1094 39.6754 28.1094 39.4292C28.1094 39.1829 28.0106 38.9467 27.8348 38.7726C27.659 38.5985 27.4205 38.5007 27.1719 38.5007H22.4844C21.9301 38.5006 21.3883 38.3383 20.9268 38.0343C20.4654 37.7302 20.1049 37.2979 19.8907 36.7916C19.6766 36.2853 19.6182 35.7277 19.723 35.1886C19.8278 34.6496 20.091 34.1533 20.4797 33.7619C20.8683 33.3706 21.3651 33.1017 21.9075 32.9891C22.45 32.8764 23.0139 32.925 23.5286 33.1287C24.0433 33.3324 24.4857 33.6822 24.8003 34.1341C25.1149 34.586 25.2876 35.1199 25.2969 35.6688V35.6688Z" fill="black"/>
<path d="M17.8906 94.7867H15.9219C14.6787 94.7867 13.4864 95.2758 12.6073 96.1465C11.7282 97.0171 11.2344 98.1979 11.2344 99.4292L11.2344 110.571C11.2344 111.802 11.7282 112.983 12.6073 113.854C13.4864 114.724 14.6787 115.213 15.9219 115.213H17.8906C18.1058 116.263 18.6807 117.206 19.5179 117.884C20.3551 118.562 21.4031 118.932 22.4844 118.932C23.5656 118.932 24.6137 118.562 25.4509 117.884C26.2881 117.206 26.863 116.263 27.0781 115.213H30.9219C31.4192 115.213 31.8961 115.018 32.2477 114.67C32.5993 114.321 32.7969 113.849 32.7969 113.356V96.6437C32.7969 96.1512 32.5993 95.6789 32.2477 95.3306C31.8961 94.9824 31.4192 94.7867 30.9219 94.7867H27.0781C26.863 93.7373 26.2881 92.7938 25.4509 92.1161C24.6137 91.4383 23.5656 91.0681 22.4844 91.0681C21.4031 91.0681 20.3551 91.4383 19.5179 92.1161C18.6807 92.7938 18.1058 93.7373 17.8906 94.7867V94.7867ZM13.1094 110.571L13.1094 99.4292C13.1125 98.6913 13.4098 97.9846 13.9365 97.4629C14.4633 96.9412 15.1769 96.6468 15.9219 96.6437H17.8906C18.1088 97.6913 18.6846 98.6325 19.5213 99.3089C20.358 99.9853 21.4043 100.356 22.4844 100.358V109.642C21.4043 109.644 20.358 110.015 19.5213 110.691C18.6846 111.368 18.1088 112.309 17.8906 113.356H15.9219C15.1769 113.353 14.4633 113.059 13.9365 112.537C13.4098 112.016 13.1125 111.309 13.1094 110.571V110.571ZM25.2969 95.6688V95.7152C25.2969 95.9615 25.3956 96.1976 25.5715 96.3718C25.7473 96.5459 25.9857 96.6437 26.2344 96.6437H30.9219V113.356H26.2344C26.1118 113.356 25.9905 113.381 25.8774 113.427C25.7643 113.474 25.6617 113.543 25.5756 113.629C25.4894 113.715 25.4215 113.818 25.3757 113.93C25.3298 114.043 25.307 114.164 25.3086 114.285V114.331C25.2994 114.88 25.1269 115.413 24.8128 115.865C24.4987 116.316 24.057 116.666 23.543 116.87C23.029 117.074 22.4657 117.124 21.9235 117.012C21.3814 116.9 20.8846 116.632 20.4955 116.242C20.1064 115.852 19.8422 115.357 19.7361 114.819C19.63 114.28 19.6867 113.723 19.8991 113.217C20.1115 112.71 20.4701 112.277 20.93 111.971C21.3899 111.666 21.9306 111.502 22.4844 111.499H27.1719C27.4205 111.499 27.659 111.402 27.8348 111.228C28.0106 111.053 28.1094 110.817 28.1094 110.571C28.1094 110.325 28.0106 110.089 27.8348 109.914C27.659 109.74 27.4205 109.642 27.1719 109.642H24.3594V100.358H27.1719C27.4205 100.358 27.659 100.26 27.8348 100.086C28.0106 99.9116 28.1094 99.6754 28.1094 99.4292C28.1094 99.1829 28.0106 98.9467 27.8348 98.7726C27.659 98.5985 27.4205 98.5007 27.1719 98.5007H22.4844C21.9301 98.5006 21.3883 98.3383 20.9268 98.0343C20.4654 97.7302 20.1049 97.2979 19.8907 96.7916C19.6766 96.2853 19.6182 95.7277 19.723 95.1886C19.8278 94.6496 20.091 94.1533 20.4797 93.7619C20.8683 93.3706 21.3651 93.1017 21.9075 92.9891C22.45 92.8764 23.0139 92.925 23.5286 93.1287C24.0433 93.3324 24.4857 93.6822 24.8003 94.1341C25.1149 94.586 25.2876 95.1199 25.2969 95.6688V95.6688Z" fill="black"/>
<path d="M132.113 115.213H134.082C135.325 115.213 136.518 114.724 137.397 113.854C138.276 112.983 138.77 111.802 138.77 110.571V99.429C138.77 98.1978 138.276 97.0169 137.397 96.1463C136.518 95.2757 135.325 94.7866 134.082 94.7866H132.113C131.898 93.7371 131.323 92.7936 130.486 92.1159C129.649 91.4382 128.601 91.068 127.52 91.068C126.438 91.068 125.39 91.4382 124.553 92.1159C123.716 92.7936 123.141 93.7371 122.926 94.7866H119.082C118.585 94.7866 118.108 94.9822 117.756 95.3305C117.405 95.6787 117.207 96.1511 117.207 96.6436V113.356C117.207 113.849 117.405 114.321 117.756 114.669C118.108 115.018 118.585 115.213 119.082 115.213H122.926C123.141 116.263 123.716 117.206 124.553 117.884C125.39 118.562 126.438 118.932 127.52 118.932C128.601 118.932 129.649 118.562 130.486 117.884C131.323 117.206 131.898 116.263 132.113 115.213V115.213ZM136.895 99.429V110.571C136.891 111.309 136.594 112.015 136.067 112.537C135.541 113.059 134.827 113.353 134.082 113.356H132.113C131.895 112.309 131.319 111.368 130.483 110.691C129.646 110.015 128.6 109.644 127.52 109.642V100.358C128.6 100.356 129.646 99.9852 130.483 99.3088C131.319 98.6324 131.895 97.6912 132.113 96.6436H134.082C134.827 96.6466 135.541 96.9411 136.067 97.4628C136.594 97.9845 136.891 98.6912 136.895 99.429V99.429ZM124.707 114.331V114.285C124.707 114.039 124.608 113.802 124.432 113.628C124.257 113.454 124.018 113.356 123.77 113.356H119.082V96.6436H123.77C123.892 96.6436 124.013 96.6195 124.127 96.5727C124.24 96.5259 124.342 96.4573 124.428 96.3709C124.514 96.2845 124.582 96.1821 124.628 96.0695C124.674 95.9569 124.697 95.8365 124.695 95.7151V95.6687C124.705 95.1203 124.877 94.5869 125.191 94.1352C125.505 93.6835 125.947 93.3337 126.461 93.1297C126.975 92.9256 127.538 92.8763 128.08 92.9881C128.623 93.0998 129.119 93.3675 129.508 93.7577C129.898 94.1479 130.162 94.6432 130.268 95.1814C130.374 95.7197 130.317 96.277 130.105 96.7835C129.892 97.2899 129.534 97.7231 129.074 98.0285C128.614 98.334 128.073 98.4982 127.52 98.5005H122.832C122.583 98.5005 122.345 98.5984 122.169 98.7725C121.993 98.9466 121.895 99.1828 121.895 99.429C121.895 99.6753 121.993 99.9114 122.169 100.086C122.345 100.26 122.583 100.358 122.832 100.358H125.645V109.642H122.832C122.583 109.642 122.345 109.74 122.169 109.914C121.993 110.088 121.895 110.325 121.895 110.571C121.895 110.817 121.993 111.053 122.169 111.227C122.345 111.402 122.583 111.499 122.832 111.499H127.52C128.074 111.499 128.616 111.662 129.077 111.966C129.539 112.27 129.899 112.702 130.113 113.208C130.327 113.715 130.386 114.272 130.281 114.811C130.176 115.35 129.913 115.847 129.524 116.238C129.136 116.629 128.639 116.898 128.096 117.011C127.554 117.124 126.99 117.075 126.475 116.871C125.961 116.668 125.518 116.318 125.204 115.866C124.889 115.414 124.716 114.88 124.707 114.331V114.331Z" fill="black"/>
<path d="M132.113 55.2133H134.082C135.325 55.2133 136.518 54.7242 137.397 53.8535C138.276 52.9829 138.77 51.8021 138.77 50.5708V39.429C138.77 38.1978 138.276 37.0169 137.397 36.1463C136.518 35.2757 135.325 34.7866 134.082 34.7866H132.113C131.898 33.7371 131.323 32.7936 130.486 32.1159C129.649 31.4382 128.601 31.068 127.52 31.068C126.438 31.068 125.39 31.4382 124.553 32.1159C123.716 32.7936 123.141 33.7371 122.926 34.7866H119.082C118.585 34.7866 118.108 34.9822 117.756 35.3305C117.405 35.6787 117.207 36.1511 117.207 36.6436V53.3563C117.207 53.8488 117.405 54.3211 117.756 54.6694C118.108 55.0176 118.585 55.2133 119.082 55.2133H122.926C123.141 56.2627 123.716 57.2062 124.553 57.8839C125.39 58.5617 126.438 58.9319 127.52 58.9319C128.601 58.9319 129.649 58.5617 130.486 57.8839C131.323 57.2062 131.898 56.2627 132.113 55.2133V55.2133ZM136.895 39.429V50.5708C136.891 51.3087 136.594 52.0154 136.067 52.5371C135.541 53.0588 134.827 53.3532 134.082 53.3563H132.113C131.895 52.3087 131.319 51.3675 130.483 50.6911C129.646 50.0147 128.6 49.6443 127.52 49.6424V40.3575C128.6 40.3555 129.646 39.9852 130.483 39.3088C131.319 38.6324 131.895 37.6912 132.113 36.6436H134.082C134.827 36.6466 135.541 36.9411 136.067 37.4628C136.594 37.9845 136.891 38.6912 136.895 39.429V39.429ZM124.707 54.3312V54.2848C124.707 54.0385 124.608 53.8024 124.432 53.6282C124.257 53.4541 124.018 53.3563 123.77 53.3563H119.082V36.6436H123.77C123.892 36.6436 124.013 36.6195 124.127 36.5727C124.24 36.5259 124.342 36.4573 124.428 36.3709C124.514 36.2845 124.582 36.1821 124.628 36.0695C124.674 35.9569 124.697 35.8365 124.695 35.7151V35.6687C124.705 35.1203 124.877 34.5869 125.191 34.1352C125.505 33.6835 125.947 33.3337 126.461 33.1297C126.975 32.9256 127.538 32.8763 128.08 32.9881C128.623 33.0998 129.119 33.3675 129.508 33.7577C129.898 34.1479 130.162 34.6432 130.268 35.1814C130.374 35.7197 130.317 36.277 130.105 36.7835C129.892 37.2899 129.534 37.7231 129.074 38.0285C128.614 38.334 128.073 38.4982 127.52 38.5005H122.832C122.583 38.5005 122.345 38.5984 122.169 38.7725C121.993 38.9466 121.895 39.1828 121.895 39.429C121.895 39.6753 121.993 39.9114 122.169 40.0856C122.345 40.2597 122.583 40.3575 122.832 40.3575H125.645V49.6424H122.832C122.583 49.6424 122.345 49.7402 122.169 49.9143C121.993 50.0884 121.895 50.3246 121.895 50.5708C121.895 50.8171 121.993 51.0533 122.169 51.2274C122.345 51.4015 122.583 51.4993 122.832 51.4993H127.52C128.074 51.4994 128.616 51.6617 129.077 51.9657C129.539 52.2698 129.899 52.7021 130.113 53.2084C130.327 53.7147 130.386 54.2723 130.281 54.8114C130.176 55.3504 129.913 55.8467 129.524 56.2381C129.136 56.6294 128.639 56.8983 128.096 57.0109C127.554 57.1236 126.99 57.075 126.475 56.8713C125.961 56.6676 125.518 56.3178 125.204 55.8659C124.889 55.414 124.716 54.8801 124.707 54.3312V54.3312Z" fill="black"/>
<path d="M76.9483 90.5009C73.2749 90.5009 70.1236 89.7276 67.4943 88.1809C64.8649 86.5956 62.8543 84.3142 61.4623 81.3369C60.0703 78.3596 59.3743 74.6862 59.3743 70.3169C59.3743 65.6769 60.2056 61.7522 61.8683 58.5429C63.5696 55.3336 65.9089 52.8976 68.8863 51.2349C71.9023 49.5722 75.3629 48.7409 79.2683 48.7409C81.3176 48.7409 83.2703 48.9536 85.1263 49.3789C87.0209 49.8042 88.6256 50.4616 89.9403 51.3509L87.1563 57.0349C86.0349 56.3002 84.8169 55.7976 83.5023 55.5269C82.2263 55.2176 80.8729 55.0629 79.4423 55.0629C75.6143 55.0629 72.5789 56.2422 70.3363 58.6009C68.0936 60.9596 66.9723 64.4396 66.9723 69.0409C66.9723 69.7756 66.9916 70.6456 67.0303 71.6509C67.0689 72.6176 67.2043 73.6036 67.4363 74.6089L65.1163 72.0569C65.8123 70.4716 66.7596 69.1569 67.9583 68.1129C69.1956 67.0302 70.6456 66.2182 72.3083 65.6769C74.0096 65.1356 75.8463 64.8649 77.8183 64.8649C80.4863 64.8649 82.8643 65.3869 84.9523 66.4309C87.0403 67.4362 88.7029 68.8862 89.9403 70.7809C91.1776 72.6369 91.7963 74.8216 91.7963 77.3349C91.7963 80.0029 91.1389 82.3229 89.8243 84.2949C88.5096 86.2669 86.7309 87.7942 84.4883 88.8769C82.2456 89.9596 79.7323 90.5009 76.9483 90.5009ZM76.5423 84.5849C78.0889 84.5849 79.4616 84.3142 80.6603 83.7729C81.8589 83.1929 82.7869 82.3809 83.4443 81.3369C84.1403 80.2929 84.4883 79.0749 84.4883 77.6829C84.4883 75.5562 83.7536 73.8742 82.2843 72.6369C80.8149 71.3996 78.8429 70.7809 76.3683 70.7809C74.7443 70.7809 73.3136 71.0902 72.0763 71.7089C70.8776 72.2889 69.9109 73.1009 69.1763 74.1449C68.4803 75.1889 68.1323 76.3876 68.1323 77.7409C68.1323 78.9782 68.4609 80.1189 69.1183 81.1629C69.7756 82.2069 70.7229 83.0382 71.9603 83.6569C73.2363 84.2756 74.7636 84.5849 76.5423 84.5849Z" fill="black"/>
</svg>
