<svg width="1408" height="1099" viewBox="0 0 1408 1099" fill="none" xmlns="http://www.w3.org/2000/svg">
<path d="M759.475 1016.47L749.103 1004.89C749.01 1004.79 748.894 1004.7 748.763 1004.64C748.633 1004.59 748.492 1004.56 748.349 1004.56C748.205 1004.56 748.064 1004.59 747.934 1004.64C747.804 1004.7 747.688 1004.79 747.594 1004.89L737.225 1016.47C737.194 1016.51 737.174 1016.55 737.167 1016.59C737.16 1016.64 737.167 1016.69 737.186 1016.73C737.206 1016.77 737.238 1016.81 737.278 1016.83C737.318 1016.86 737.365 1016.87 737.413 1016.87H739.944C740.088 1016.87 740.225 1016.81 740.322 1016.7L747.163 1009.07V1026.11C747.163 1026.25 747.275 1026.35 747.413 1026.35H749.288C749.425 1026.35 749.538 1026.25 749.538 1026.11V1009.07L756.378 1016.7C756.472 1016.81 756.61 1016.87 756.756 1016.87H759.288C759.5 1016.87 759.616 1016.63 759.475 1016.47Z" fill="black"/>
<path d="M1128.01 956.98V825.095H926.758V838.097H985.077C984.017 879.992 945.756 891.547 926.758 892.087V956.98H1128.01Z" fill="#7030A2"/>
<path d="M1128.01 718.583H926.758V734.97H984.856C980.083 775.326 944.135 789.056 926.758 790.877V825.095H1128.01V718.583Z" fill="#7030A2"/>
<path d="M1316.85 449.894H924.301V601.238H977.238L976.214 549.404C1017.75 553.47 1030.32 585.654 1031.42 601.238H1128.01H1129.19H1316.85V449.894Z" fill="#EE7E32"/>
<path d="M1316.85 956.98V601.238H1129.19H1128.01V619.541H1188.13C1182.18 663.839 1145.57 676.447 1128.01 677.214V718.583V825.095V956.98H1316.85Z" fill="#EE7E32"/>
<path d="M1316.85 74.1719H836.508V449.894H924.301H1316.85V74.1719Z" fill="#6FAE46"/>
<path d="M90.8672 74.1719V72.9219H89.6172V74.1719H90.8672ZM1316.85 74.1719H1318.1V72.9219H1316.85V74.1719ZM1316.85 956.98V958.23H1318.1V956.98H1316.85ZM800.291 956.98V955.73H799.041V956.98H800.291ZM90.8672 394.98H89.6172V396.23H90.8672V394.98ZM218.323 962.333H217.073V963.583H218.323V962.333ZM702.282 962.333H703.532V961.083H702.282V962.333ZM356.162 322.014L356.231 323.262L357.412 323.197V322.014H356.162ZM836.508 694.836L837.393 695.718L837.758 695.353V694.836H836.508ZM686.673 845.231V846.481H687.193L687.559 846.113L686.673 845.231ZM1031.42 601.238L1030.17 601.326L1030.26 602.488H1031.42V601.238ZM924.301 601.238H923.051V601.258L923.051 601.277L924.301 601.238ZM977.238 601.238V602.488H978.513L978.488 601.214L977.238 601.238ZM1128.01 677.214L1127.96 675.965L1126.76 676.017V677.214H1128.01ZM1128.01 619.541H1126.76V620.791H1128.01V619.541ZM926.758 680.027H928.008V680.008L928.007 679.988L926.758 680.027ZM926.758 734.97H925.508V736.22H926.758V734.97ZM926.758 790.877L926.628 789.633L925.508 789.751V790.877H926.758ZM926.758 892.087L926.722 890.838L925.508 890.872V892.087H926.758ZM460.302 924.74H461.552V923.49H460.302V924.74ZM460.302 867.657L460.558 868.88L461.552 868.672V867.657H460.302ZM460.302 394.98H461.552V393.771L460.344 393.731L460.302 394.98ZM298.404 377.998L297.155 377.943L297.098 379.248H298.404V377.998ZM407.271 924.74L406.025 924.641L405.918 925.99H407.271V924.74ZM985.077 838.097L986.327 838.128L986.359 836.847H985.077V838.097ZM984.856 734.97L986.098 735.117L986.263 733.72H984.856V734.97ZM976.214 549.404L976.336 548.16L974.937 548.023L974.965 549.429L976.214 549.404ZM702.282 1010.23H701.032V1011.49L702.294 1011.48L702.282 1010.23ZM800.291 1010.23L800.252 1011.48L801.541 1011.52V1010.23H800.291ZM748.863 964.932L750.113 964.901L747.615 964.865L748.863 964.932ZM356.162 377.998H357.412V376.748H356.162V377.998ZM926.758 838.097H925.508V839.347H926.758V838.097ZM1188.13 619.541L1189.37 619.708L1189.56 618.291H1188.13V619.541ZM89.6172 74.1719V394.98H92.1172V74.1719H89.6172ZM90.8672 396.23H218.323V393.73H90.8672V396.23ZM217.073 394.98V962.333H219.573V394.98H217.073ZM90.8672 75.4219H356.162V72.9219H90.8672V75.4219ZM354.912 74.1719V322.014H357.412V74.1719H354.912ZM356.162 75.4219H836.508V72.9219H356.162V75.4219ZM836.508 75.4219H1316.85V72.9219H836.508V75.4219ZM835.622 693.954L685.788 844.349L687.559 846.113L837.393 695.718L835.622 693.954ZM686.673 843.981H604V846.481H686.673V843.981ZM1315.6 74.1719V449.894H1318.1V74.1719H1315.6ZM924.301 451.144H1316.85V448.644H924.301V451.144ZM1315.6 449.894V601.238H1318.1V449.894H1315.6ZM1315.6 601.238V956.98H1318.1V601.238H1315.6ZM923.051 449.894V601.238H925.551V449.894H923.051ZM924.301 602.488H977.238V599.988H924.301V602.488ZM1316.85 955.73H1128.01V958.23H1316.85V955.73ZM1316.85 599.988H1129.19V602.488H1316.85V599.988ZM1129.19 599.988H1128.01V602.488H1129.19V599.988ZM1128.01 599.988H1031.42V602.488H1128.01V599.988ZM1126.76 601.238V619.541H1129.26V601.238H1126.76ZM1129.26 718.583V677.214H1126.76V718.583H1129.26ZM1128.01 717.333H926.758V719.833H1128.01V717.333ZM928.008 718.583V680.027H925.508V718.583H928.008ZM925.508 680.027V734.97H928.008V680.027H925.508ZM1129.26 956.98V825.095H1126.76V956.98H1129.26ZM1129.26 825.095V718.583H1126.76V825.095H1129.26ZM1128.01 823.845H926.758V826.345H1128.01V823.845ZM928.008 825.095V790.877H925.508V825.095H928.008ZM1128.01 955.73H926.758V958.23H1128.01V955.73ZM926.758 955.73H800.291V958.23H926.758V955.73ZM928.008 956.98V892.087H925.508V956.98H928.008ZM218.323 963.583H460.302V961.083H218.323V963.583ZM460.302 963.583H702.282V961.083H460.302V963.583ZM461.552 962.333V924.74H459.052V962.333H461.552ZM356.121 392.807L460.261 396.23L460.344 393.731L356.203 390.309L356.121 392.807ZM218.354 396.23L356.193 392.807L356.131 390.308L218.292 393.731L218.354 396.23ZM356.092 320.766C346.662 321.292 332.445 324.767 320.318 333.51C308.143 342.288 298.102 356.365 297.155 377.943L299.653 378.053C300.563 357.315 310.161 343.915 321.78 335.538C333.449 327.125 347.182 323.767 356.231 323.262L356.092 320.766ZM460.047 866.433C451.652 868.188 438.943 873.185 427.935 882.499C416.902 891.834 407.548 905.536 406.025 924.641L408.517 924.839C409.977 906.523 418.921 893.401 429.55 884.408C440.203 875.394 452.519 870.561 460.558 868.88L460.047 866.433ZM926.793 893.337C936.474 893.061 951.034 889.99 963.346 881.634C975.714 873.24 985.785 859.523 986.327 838.128L983.828 838.065C983.309 858.566 973.719 871.573 961.942 879.566C950.109 887.596 936.04 890.573 926.722 890.838L926.793 893.337ZM926.888 792.12C935.768 791.19 949.319 787.233 961.278 778.379C973.27 769.499 983.665 755.685 986.098 735.117L983.615 734.823C981.275 754.611 971.31 767.84 959.79 776.37C948.237 784.924 935.125 788.743 926.628 789.633L926.888 792.12ZM1032.67 601.15C1031.54 585.171 1018.66 552.304 976.336 548.16L976.093 550.648C1016.83 554.636 1029.1 586.138 1030.17 601.326L1032.67 601.15ZM701.032 962.333V1010.23H703.532V962.333H701.032ZM799.041 956.98V1010.23H801.541V956.98H799.041ZM702.294 1011.48C709.859 1011.4 721.28 1009 731.088 1002C740.949 994.967 749.118 983.335 750.111 965L747.615 964.865C746.664 982.414 738.9 993.358 729.636 999.965C720.319 1006.61 709.422 1008.91 702.269 1008.98L702.294 1011.48ZM800.329 1008.98C792.112 1008.73 779.712 1006.2 769.297 999.464C758.937 992.766 750.543 981.925 750.113 964.901L747.613 964.964C748.067 982.941 757 994.491 767.939 1001.56C778.824 1008.6 791.696 1011.22 800.252 1011.48L800.329 1008.98ZM461.552 867.657V845.231H459.052V867.657H461.552ZM461.552 845.231V394.98H459.052V845.231H461.552ZM604 843.981H460.302V846.481H604V843.981ZM298.404 379.248H356.162V376.748H298.404V379.248ZM354.912 377.998V391.558H357.412V377.998H354.912ZM407.271 925.99H460.302V923.49H407.271V925.99ZM985.077 836.847H926.758V839.347H985.077V836.847ZM928.008 838.097V825.095H925.508V838.097H928.008ZM926.758 736.22H984.856V733.72H926.758V736.22ZM928.007 679.988L925.55 601.199L923.051 601.277L925.508 680.066L928.007 679.988ZM1128.07 678.462C1145.97 677.68 1183.3 664.83 1189.37 619.708L1186.89 619.375C1181.05 662.847 1145.17 675.213 1127.96 675.965L1128.07 678.462ZM1128.01 620.791H1188.13V618.291H1128.01V620.791ZM978.488 601.214L977.464 549.379L974.965 549.429L975.988 601.263L978.488 601.214ZM835.258 74.1719V449.894H837.758V74.1719H835.258ZM835.258 449.894V694.836H837.758V449.894H835.258ZM924.301 448.644H836.508V451.144H924.301V448.644ZM925.508 718.583V734.97H928.008V718.583H925.508Z" fill="black" fill-opacity="0.6"/>
<path d="M123.871 368.887H104.423V364.603H112.243V355.253H104.423V350.969H123.871V355.253H115.779V364.603H123.871V368.887ZM124.211 335.901C124.211 337.964 123.78 339.811 122.919 341.443C122.035 343.052 120.834 344.322 119.315 345.251C117.796 346.18 116.074 346.645 114.147 346.645C112.22 346.645 110.509 346.18 109.013 345.251C107.494 344.322 106.304 343.052 105.443 341.443C104.559 339.811 104.117 337.975 104.117 335.935C104.117 333.872 104.559 332.036 105.443 330.427C106.304 328.795 107.494 327.514 109.013 326.585C110.509 325.656 112.22 325.191 114.147 325.191C116.074 325.191 117.796 325.656 119.315 326.585C120.834 327.514 122.035 328.795 122.919 330.427C123.78 332.036 124.211 333.861 124.211 335.901ZM120.573 335.935C120.573 334.688 120.301 333.589 119.757 332.637C119.19 331.662 118.42 330.903 117.445 330.359C116.47 329.815 115.371 329.543 114.147 329.543C112.9 329.543 111.801 329.826 110.849 330.393C109.874 330.937 109.115 331.685 108.571 332.637C108.027 333.589 107.755 334.677 107.755 335.901C107.755 337.125 108.027 338.224 108.571 339.199C109.115 340.174 109.874 340.944 110.849 341.511C111.801 342.055 112.9 342.327 114.147 342.327C115.371 342.327 116.47 342.055 117.445 341.511C118.42 340.944 119.19 340.174 119.757 339.199C120.301 338.224 120.573 337.136 120.573 335.935ZM123.871 317.67H107.925V324.062H104.423V306.994H107.925V313.386H123.871V317.67ZM123.871 294.512H104.423V285.706C104.423 283.485 104.82 281.569 105.613 279.96C106.406 278.328 107.54 277.07 109.013 276.186C110.464 275.279 112.175 274.826 114.147 274.826C116.142 274.826 117.864 275.279 119.315 276.186C120.766 277.07 121.888 278.328 122.681 279.96C123.474 281.569 123.871 283.485 123.871 285.706V294.512ZM120.403 290.228V285.842C120.403 284.459 120.154 283.269 119.655 282.272C119.156 281.275 118.442 280.504 117.513 279.96C116.584 279.416 115.462 279.144 114.147 279.144C112.832 279.144 111.71 279.416 110.781 279.96C109.852 280.504 109.149 281.275 108.673 282.272C108.174 283.269 107.925 284.459 107.925 285.842V290.228H120.403ZM112.345 266.8V256.94H115.677V266.8H112.345ZM120.437 266.222V255.41H123.871V270.506H104.423V255.784H107.891V266.222H120.437ZM118.125 236.601C119.349 236.601 120.414 236.941 121.321 237.621C122.228 238.278 122.942 239.219 123.463 240.443C123.962 241.667 124.211 243.163 124.211 244.931C124.211 246.449 124.007 247.945 123.599 249.419C123.191 250.869 122.658 252.037 122.001 252.921L118.669 251.323C119.281 250.507 119.768 249.509 120.131 248.331C120.494 247.152 120.675 245.951 120.675 244.727C120.675 243.276 120.46 242.267 120.029 241.701C119.598 241.134 119.088 240.851 118.499 240.851C117.955 240.851 117.524 241.066 117.207 241.497C116.89 241.905 116.64 242.46 116.459 243.163C116.255 243.843 116.074 244.591 115.915 245.407C115.734 246.223 115.53 247.039 115.303 247.855C115.076 248.671 114.759 249.419 114.351 250.099C113.943 250.779 113.399 251.334 112.719 251.765C112.039 252.173 111.178 252.377 110.135 252.377C108.934 252.377 107.88 252.037 106.973 251.357C106.066 250.677 105.364 249.725 104.865 248.501C104.366 247.254 104.117 245.792 104.117 244.115C104.117 242.913 104.253 241.712 104.525 240.511C104.774 239.287 105.194 238.221 105.783 237.315L109.115 238.777C108.548 239.638 108.163 240.545 107.959 241.497C107.732 242.426 107.619 243.344 107.619 244.251C107.619 245.611 107.834 246.597 108.265 247.209C108.696 247.798 109.24 248.093 109.897 248.093C110.441 248.093 110.872 247.889 111.189 247.481C111.506 247.05 111.767 246.495 111.971 245.815C112.152 245.135 112.322 244.387 112.481 243.571C112.64 242.732 112.844 241.916 113.093 241.123C113.32 240.307 113.637 239.559 114.045 238.879C114.43 238.176 114.952 237.621 115.609 237.213C116.266 236.805 117.105 236.601 118.125 236.601ZM119.383 228.746L114.385 228.984L104.423 219.26V214.5L113.467 223L115.949 225.414L119.383 228.746ZM123.871 232.588H104.423V228.304H123.871V232.588ZM123.871 219.056L115.337 226.23L112.243 223.442L123.871 213.99V219.056ZM118.125 187.294C119.349 187.294 120.414 187.634 121.321 188.314C122.228 188.971 122.942 189.912 123.463 191.136C123.962 192.36 124.211 193.856 124.211 195.624C124.211 197.143 124.007 198.639 123.599 200.112C123.191 201.563 122.658 202.73 122.001 203.614L118.669 202.016C119.281 201.2 119.768 200.203 120.131 199.024C120.494 197.845 120.675 196.644 120.675 195.42C120.675 193.969 120.46 192.961 120.029 192.394C119.598 191.827 119.088 191.544 118.499 191.544C117.955 191.544 117.524 191.759 117.207 192.19C116.89 192.598 116.64 193.153 116.459 193.856C116.255 194.536 116.074 195.284 115.915 196.1C115.734 196.916 115.53 197.732 115.303 198.548C115.076 199.364 114.759 200.112 114.351 200.792C113.943 201.472 113.399 202.027 112.719 202.458C112.039 202.866 111.178 203.07 110.135 203.07C108.934 203.07 107.88 202.73 106.973 202.05C106.066 201.37 105.364 200.418 104.865 199.194C104.366 197.947 104.117 196.485 104.117 194.808C104.117 193.607 104.253 192.405 104.525 191.204C104.774 189.98 105.194 188.915 105.783 188.008L109.115 189.47C108.548 190.331 108.163 191.238 107.959 192.19C107.732 193.119 107.619 194.037 107.619 194.944C107.619 196.304 107.834 197.29 108.265 197.902C108.696 198.491 109.24 198.786 109.897 198.786C110.441 198.786 110.872 198.582 111.189 198.174C111.506 197.743 111.767 197.188 111.971 196.508C112.152 195.828 112.322 195.08 112.481 194.264C112.64 193.425 112.844 192.609 113.093 191.816C113.32 191 113.637 190.252 114.045 189.572C114.43 188.869 114.952 188.314 115.609 187.906C116.266 187.498 117.105 187.294 118.125 187.294ZM123.871 183.281H104.423V178.997H112.243V169.647H104.423V165.363H123.871V169.647H115.779V178.997H123.871V183.281ZM123.871 162.57L104.423 153.73V149.48L123.871 140.674V144.924L106.599 152.336V150.908L123.871 158.388V162.57ZM119.655 158.184L116.391 157.028V146.896L119.655 145.74V158.184ZM123.871 137.893H104.423V129.495C104.423 127.749 104.706 126.242 105.273 124.973C105.817 123.703 106.61 122.729 107.653 122.049C108.696 121.346 109.954 120.995 111.427 120.995C112.878 120.995 114.124 121.346 115.167 122.049C116.21 122.729 117.003 123.703 117.547 124.973C118.091 126.242 118.363 127.749 118.363 129.495V135.513L116.493 133.609H123.871V137.893ZM123.871 125.245L116.799 130.243V125.619L123.871 120.621V125.245ZM117.003 133.609L114.997 135.173V129.801C114.997 128.305 114.691 127.183 114.079 126.435C113.444 125.687 112.56 125.313 111.427 125.313C110.294 125.313 109.421 125.687 108.809 126.435C108.197 127.183 107.891 128.305 107.891 129.801V135.173L105.919 133.609H117.003ZM112.345 112.538V102.678H115.677V112.538H112.345ZM120.437 111.96V101.148H123.871V116.244H104.423V101.522H107.891V111.96H120.437ZM164.871 279.654H145.423V271.256C145.423 269.51 145.706 268.003 146.273 266.734C146.817 265.464 147.61 264.49 148.653 263.81C149.696 263.107 150.954 262.756 152.427 262.756C153.9 262.756 155.17 263.107 156.235 263.81C157.278 264.49 158.082 265.464 158.649 266.734C159.193 268.003 159.465 269.51 159.465 271.256V277.274L157.493 275.37H164.871V279.654ZM158.003 275.37L155.997 276.934V271.562C155.997 270.066 155.691 268.944 155.079 268.196C154.444 267.448 153.56 267.074 152.427 267.074C151.294 267.074 150.421 267.448 149.809 268.196C149.197 268.944 148.891 270.066 148.891 271.562V276.934L146.919 275.37H158.003ZM164.871 258.271H145.423V253.987H161.403V243.991H164.871V258.271ZM164.871 243.867L145.423 235.027V230.777L164.871 221.971V226.221L147.599 233.633V232.205L164.871 239.685V243.867ZM160.655 239.481L157.391 238.325V228.193L160.655 227.037V239.481ZM164.871 219.191H145.423V215.655L159.635 203.925V205.523H145.423V201.273H164.871V204.809L150.659 216.539V214.907H164.871V219.191Z" fill="black"/>
<path d="M443.945 338.306V318.858H448.229V326.678H457.579V318.858H461.863V338.306H457.579V330.214H448.229V338.306H443.945ZM476.931 338.646C474.868 338.646 473.021 338.216 471.389 337.354C469.78 336.47 468.51 335.269 467.581 333.75C466.652 332.232 466.187 330.509 466.187 328.582C466.187 326.656 466.652 324.944 467.581 323.448C468.51 321.93 469.78 320.74 471.389 319.878C473.021 318.994 474.857 318.552 476.897 318.552C478.96 318.552 480.796 318.994 482.405 319.878C484.037 320.74 485.318 321.93 486.247 323.448C487.176 324.944 487.641 326.656 487.641 328.582C487.641 330.509 487.176 332.232 486.247 333.75C485.318 335.269 484.037 336.47 482.405 337.354C480.796 338.216 478.971 338.646 476.931 338.646ZM476.897 335.008C478.144 335.008 479.243 334.736 480.195 334.192C481.17 333.626 481.929 332.855 482.473 331.88C483.017 330.906 483.289 329.806 483.289 328.582C483.289 327.336 483.006 326.236 482.439 325.284C481.895 324.31 481.147 323.55 480.195 323.006C479.243 322.462 478.155 322.19 476.931 322.19C475.707 322.19 474.608 322.462 473.633 323.006C472.658 323.55 471.888 324.31 471.321 325.284C470.777 326.236 470.505 327.336 470.505 328.582C470.505 329.806 470.777 330.906 471.321 331.88C471.888 332.855 472.658 333.626 473.633 334.192C474.608 334.736 475.696 335.008 476.897 335.008ZM495.162 338.306V322.36H488.77V318.858H505.838V322.36H499.446V338.306H495.162ZM518.32 338.306V318.858H527.126C529.348 318.858 531.263 319.255 532.872 320.048C534.504 320.842 535.762 321.975 536.646 323.448C537.553 324.899 538.006 326.61 538.006 328.582C538.006 330.577 537.553 332.3 536.646 333.75C535.762 335.201 534.504 336.323 532.872 337.116C531.263 337.91 529.348 338.306 527.126 338.306H518.32ZM522.604 334.838H526.99C528.373 334.838 529.563 334.589 530.56 334.09C531.558 333.592 532.328 332.878 532.872 331.948C533.416 331.019 533.688 329.897 533.688 328.582C533.688 327.268 533.416 326.146 532.872 325.216C532.328 324.287 531.558 323.584 530.56 323.108C529.563 322.61 528.373 322.36 526.99 322.36H522.604V334.838ZM546.032 326.78H555.892V330.112H546.032V326.78ZM546.61 334.872H557.422V338.306H542.326V318.858H557.048V322.326H546.61V334.872ZM576.232 332.56C576.232 333.784 575.892 334.85 575.212 335.756C574.554 336.663 573.614 337.377 572.39 337.898C571.166 338.397 569.67 338.646 567.902 338.646C566.383 338.646 564.887 338.442 563.414 338.034C561.963 337.626 560.796 337.094 559.912 336.436L561.51 333.104C562.326 333.716 563.323 334.204 564.502 334.566C565.68 334.929 566.882 335.11 568.106 335.11C569.556 335.11 570.565 334.895 571.132 334.464C571.698 334.034 571.982 333.524 571.982 332.934C571.982 332.39 571.766 331.96 571.336 331.642C570.928 331.325 570.372 331.076 569.67 330.894C568.99 330.69 568.242 330.509 567.426 330.35C566.61 330.169 565.794 329.965 564.978 329.738C564.162 329.512 563.414 329.194 562.734 328.786C562.054 328.378 561.498 327.834 561.068 327.154C560.66 326.474 560.456 325.613 560.456 324.57C560.456 323.369 560.796 322.315 561.476 321.408C562.156 320.502 563.108 319.799 564.332 319.3C565.578 318.802 567.04 318.552 568.718 318.552C569.919 318.552 571.12 318.688 572.322 318.96C573.546 319.21 574.611 319.629 575.518 320.218L574.056 323.55C573.194 322.984 572.288 322.598 571.336 322.394C570.406 322.168 569.488 322.054 568.582 322.054C567.222 322.054 566.236 322.27 565.624 322.7C565.034 323.131 564.74 323.675 564.74 324.332C564.74 324.876 564.944 325.307 565.352 325.624C565.782 325.942 566.338 326.202 567.018 326.406C567.698 326.588 568.446 326.758 569.262 326.916C570.1 327.075 570.916 327.279 571.71 327.528C572.526 327.755 573.274 328.072 573.954 328.48C574.656 328.866 575.212 329.387 575.62 330.044C576.028 330.702 576.232 331.54 576.232 332.56ZM584.086 333.818L583.848 328.82L593.572 318.858H598.332L589.832 327.902L587.418 330.384L584.086 333.818ZM580.244 338.306V318.858H584.528V338.306H580.244ZM593.776 338.306L586.602 329.772L589.39 326.678L598.842 338.306H593.776ZM628.156 336.164C627.499 336.686 626.74 337.139 625.878 337.524C625.04 337.887 624.156 338.159 623.226 338.34C622.297 338.544 621.356 338.646 620.404 338.646C618.319 338.646 616.449 338.216 614.794 337.354C613.162 336.47 611.882 335.269 610.952 333.75C610.023 332.232 609.558 330.509 609.558 328.582C609.558 326.656 610.023 324.944 610.952 323.448C611.882 321.93 613.151 320.74 614.76 319.878C616.392 318.994 618.24 318.552 620.302 318.552C622.116 318.552 623.702 318.824 625.062 319.368C626.422 319.89 627.556 320.706 628.462 321.816L625.674 324.502C624.972 323.709 624.178 323.131 623.294 322.768C622.41 322.383 621.436 322.19 620.37 322.19C619.124 322.19 618.002 322.462 617.004 323.006C616.03 323.55 615.259 324.31 614.692 325.284C614.148 326.236 613.876 327.336 613.876 328.582C613.876 329.829 614.16 330.94 614.726 331.914C615.293 332.889 616.075 333.648 617.072 334.192C618.07 334.736 619.214 335.008 620.506 335.008C621.526 335.008 622.456 334.85 623.294 334.532C624.156 334.215 624.96 333.739 625.708 333.104L628.156 336.164ZM624.11 336.198V328.412H628.156V336.164L624.11 336.198ZM637.175 326.78H647.035V330.112H637.175V326.78ZM637.753 334.872H648.565V338.306H633.469V318.858H648.191V322.326H637.753V334.872ZM652.992 338.306V318.858H656.528L668.258 333.07H666.66V318.858H670.91V338.306H667.374L655.644 324.094H657.276V338.306H652.992ZM680.538 326.78H690.398V330.112H680.538V326.78ZM681.116 334.872H691.928V338.306H676.832V318.858H691.554V322.326H681.116V334.872ZM696.355 338.306V318.858H704.753C706.499 318.858 708.006 319.142 709.275 319.708C710.545 320.252 711.519 321.046 712.199 322.088C712.902 323.131 713.253 324.389 713.253 325.862C713.253 327.313 712.902 328.56 712.199 329.602C711.519 330.645 710.545 331.438 709.275 331.982C708.006 332.526 706.499 332.798 704.753 332.798H698.735L700.639 330.928V338.306H696.355ZM709.003 338.306L704.005 331.234H708.629L713.627 338.306H709.003ZM700.639 331.438L699.075 329.432H704.447C705.943 329.432 707.065 329.126 707.813 328.514C708.561 327.88 708.935 326.996 708.935 325.862C708.935 324.729 708.561 323.856 707.813 323.244C707.065 322.632 705.943 322.326 704.447 322.326H699.075L700.639 320.354V331.438ZM714.876 338.306L723.716 318.858H727.966L736.772 338.306H732.522L725.11 321.034H726.538L719.058 338.306H714.876ZM719.262 334.09L720.418 330.826H730.55L731.706 334.09H719.262ZM739.553 338.306V318.858H743.837V334.838H753.833V338.306H739.553Z" fill="black"/>
<path d="M489.274 782.278V762.83H493.558V770.65H502.908V762.83H507.192V782.278H502.908V774.186H493.558V782.278H489.274ZM522.26 782.618C520.197 782.618 518.35 782.187 516.718 781.326C515.108 780.442 513.839 779.24 512.91 777.722C511.98 776.203 511.516 774.48 511.516 772.554C511.516 770.627 511.98 768.916 512.91 767.42C513.839 765.901 515.108 764.711 516.718 763.85C518.35 762.966 520.186 762.524 522.226 762.524C524.288 762.524 526.124 762.966 527.734 763.85C529.366 764.711 530.646 765.901 531.576 767.42C532.505 768.916 532.97 770.627 532.97 772.554C532.97 774.48 532.505 776.203 531.576 777.722C530.646 779.24 529.366 780.442 527.734 781.326C526.124 782.187 524.3 782.618 522.26 782.618ZM522.226 778.98C523.472 778.98 524.572 778.708 525.524 778.164C526.498 777.597 527.258 776.826 527.802 775.852C528.346 774.877 528.618 773.778 528.618 772.554C528.618 771.307 528.334 770.208 527.768 769.256C527.224 768.281 526.476 767.522 525.524 766.978C524.572 766.434 523.484 766.162 522.26 766.162C521.036 766.162 519.936 766.434 518.962 766.978C517.987 767.522 517.216 768.281 516.65 769.256C516.106 770.208 515.834 771.307 515.834 772.554C515.834 773.778 516.106 774.877 516.65 775.852C517.216 776.826 517.987 777.597 518.962 778.164C519.936 778.708 521.024 778.98 522.226 778.98ZM540.49 782.278V766.332H534.098V762.83H551.166V766.332H544.774V782.278H540.49ZM563.649 782.278V762.83H572.455C574.676 762.83 576.591 763.226 578.201 764.02C579.833 764.813 581.091 765.946 581.975 767.42C582.881 768.87 583.335 770.582 583.335 772.554C583.335 774.548 582.881 776.271 581.975 777.722C581.091 779.172 579.833 780.294 578.201 781.088C576.591 781.881 574.676 782.278 572.455 782.278H563.649ZM567.933 778.81H572.319C573.701 778.81 574.891 778.56 575.889 778.062C576.886 777.563 577.657 776.849 578.201 775.92C578.745 774.99 579.017 773.868 579.017 772.554C579.017 771.239 578.745 770.117 578.201 769.188C577.657 768.258 576.886 767.556 575.889 767.08C574.891 766.581 573.701 766.332 572.319 766.332H567.933V778.81ZM591.361 770.752H601.221V774.084H591.361V770.752ZM591.939 778.844H602.751V782.278H587.655V762.83H602.377V766.298H591.939V778.844ZM621.56 776.532C621.56 777.756 621.22 778.821 620.54 779.728C619.883 780.634 618.942 781.348 617.718 781.87C616.494 782.368 614.998 782.618 613.23 782.618C611.711 782.618 610.215 782.414 608.742 782.006C607.291 781.598 606.124 781.065 605.24 780.408L606.838 777.076C607.654 777.688 608.651 778.175 609.83 778.538C611.009 778.9 612.21 779.082 613.434 779.082C614.885 779.082 615.893 778.866 616.46 778.436C617.027 778.005 617.31 777.495 617.31 776.906C617.31 776.362 617.095 775.931 616.664 775.614C616.256 775.296 615.701 775.047 614.998 774.866C614.318 774.662 613.57 774.48 612.754 774.322C611.938 774.14 611.122 773.936 610.306 773.71C609.49 773.483 608.742 773.166 608.062 772.758C607.382 772.35 606.827 771.806 606.396 771.126C605.988 770.446 605.784 769.584 605.784 768.542C605.784 767.34 606.124 766.286 606.804 765.38C607.484 764.473 608.436 763.77 609.66 763.272C610.907 762.773 612.369 762.524 614.046 762.524C615.247 762.524 616.449 762.66 617.65 762.932C618.874 763.181 619.939 763.6 620.846 764.19L619.384 767.522C618.523 766.955 617.616 766.57 616.664 766.366C615.735 766.139 614.817 766.026 613.91 766.026C612.55 766.026 611.564 766.241 610.952 766.672C610.363 767.102 610.068 767.646 610.068 768.304C610.068 768.848 610.272 769.278 610.68 769.596C611.111 769.913 611.666 770.174 612.346 770.378C613.026 770.559 613.774 770.729 614.59 770.888C615.429 771.046 616.245 771.25 617.038 771.5C617.854 771.726 618.602 772.044 619.282 772.452C619.985 772.837 620.54 773.358 620.948 774.016C621.356 774.673 621.56 775.512 621.56 776.532ZM629.415 777.79L629.177 772.792L638.901 762.83H643.661L635.161 771.874L632.747 774.356L629.415 777.79ZM625.573 782.278V762.83H629.857V782.278H625.573ZM639.105 782.278L631.931 773.744L634.719 770.65L644.171 782.278H639.105ZM507.536 821.136C506.878 821.657 506.119 822.11 505.258 822.496C504.419 822.858 503.535 823.13 502.606 823.312C501.676 823.516 500.736 823.618 499.784 823.618C497.698 823.618 495.828 823.187 494.174 822.326C492.542 821.442 491.261 820.24 490.332 818.722C489.402 817.203 488.938 815.48 488.938 813.554C488.938 811.627 489.402 809.916 490.332 808.42C491.261 806.901 492.53 805.711 494.14 804.85C495.772 803.966 497.619 803.524 499.682 803.524C501.495 803.524 503.082 803.796 504.442 804.34C505.802 804.861 506.935 805.677 507.842 806.788L505.054 809.474C504.351 808.68 503.558 808.102 502.674 807.74C501.79 807.354 500.815 807.162 499.75 807.162C498.503 807.162 497.381 807.434 496.384 807.978C495.409 808.522 494.638 809.281 494.072 810.256C493.528 811.208 493.256 812.307 493.256 813.554C493.256 814.8 493.539 815.911 494.106 816.886C494.672 817.86 495.454 818.62 496.452 819.164C497.449 819.708 498.594 819.98 499.886 819.98C500.906 819.98 501.835 819.821 502.674 819.504C503.535 819.186 504.34 818.71 505.088 818.076L507.536 821.136ZM503.49 821.17V813.384H507.536V821.136L503.49 821.17ZM516.554 811.752H526.414V815.084H516.554V811.752ZM517.132 819.844H527.944V823.278H512.848V803.83H527.57V807.298H517.132V819.844ZM532.371 823.278V803.83H535.907L547.637 818.042H546.039V803.83H550.289V823.278H546.753L535.023 809.066H536.655V823.278H532.371ZM559.917 811.752H569.777V815.084H559.917V811.752ZM560.495 819.844H571.307V823.278H556.211V803.83H570.933V807.298H560.495V819.844ZM575.735 823.278V803.83H584.133C585.878 803.83 587.385 804.113 588.655 804.68C589.924 805.224 590.899 806.017 591.579 807.06C592.281 808.102 592.633 809.36 592.633 810.834C592.633 812.284 592.281 813.531 591.579 814.574C590.899 815.616 589.924 816.41 588.655 816.954C587.385 817.498 585.878 817.77 584.133 817.77H578.115L580.019 815.9V823.278H575.735ZM588.383 823.278L583.385 816.206H588.009L593.007 823.278H588.383ZM580.019 816.41L578.455 814.404H583.827C585.323 814.404 586.445 814.098 587.193 813.486C587.941 812.851 588.315 811.967 588.315 810.834C588.315 809.7 587.941 808.828 587.193 808.216C586.445 807.604 585.323 807.298 583.827 807.298H578.455L580.019 805.326V816.41ZM594.255 823.278L603.095 803.83H607.345L616.151 823.278H611.901L604.489 806.006H605.917L598.437 823.278H594.255ZM598.641 819.062L599.797 815.798H609.929L611.085 819.062H598.641ZM618.932 823.278V803.83H623.216V819.81H633.212V823.278H618.932Z" fill="black"/>
<path d="M442.297 825.545H422.849V821.261H430.669V811.911H422.849V807.627H442.297V811.911H434.205V821.261H442.297V825.545ZM442.637 792.559C442.637 794.622 442.206 796.469 441.345 798.101C440.461 799.711 439.26 800.98 437.741 801.909C436.222 802.839 434.5 803.303 432.573 803.303C430.646 803.303 428.935 802.839 427.439 801.909C425.92 800.98 424.73 799.711 423.869 798.101C422.985 796.469 422.543 794.633 422.543 792.593C422.543 790.531 422.985 788.695 423.869 787.085C424.73 785.453 425.92 784.173 427.439 783.243C428.935 782.314 430.646 781.849 432.573 781.849C434.5 781.849 436.222 782.314 437.741 783.243C439.26 784.173 440.461 785.453 441.345 787.085C442.206 788.695 442.637 790.519 442.637 792.559ZM438.999 792.593C438.999 791.347 438.727 790.247 438.183 789.295C437.616 788.321 436.846 787.561 435.871 787.017C434.896 786.473 433.797 786.201 432.573 786.201C431.326 786.201 430.227 786.485 429.275 787.051C428.3 787.595 427.541 788.343 426.997 789.295C426.453 790.247 426.181 791.335 426.181 792.559C426.181 793.783 426.453 794.883 426.997 795.857C427.541 796.832 428.3 797.603 429.275 798.169C430.227 798.713 431.326 798.985 432.573 798.985C433.797 798.985 434.896 798.713 435.871 798.169C436.846 797.603 437.616 796.832 438.183 795.857C438.727 794.883 438.999 793.795 438.999 792.593ZM442.297 774.329H426.351V780.721H422.849V763.653H426.351V770.045H442.297V774.329ZM442.297 751.17H422.849V742.364C422.849 740.143 423.246 738.227 424.039 736.618C424.832 734.986 425.966 733.728 427.439 732.844C428.89 731.937 430.601 731.484 432.573 731.484C434.568 731.484 436.29 731.937 437.741 732.844C439.192 733.728 440.314 734.986 441.107 736.618C441.9 738.227 442.297 740.143 442.297 742.364V751.17ZM438.829 746.886V742.5C438.829 741.117 438.58 739.927 438.081 738.93C437.582 737.933 436.868 737.162 435.939 736.618C435.01 736.074 433.888 735.802 432.573 735.802C431.258 735.802 430.136 736.074 429.207 736.618C428.278 737.162 427.575 737.933 427.099 738.93C426.6 739.927 426.351 741.117 426.351 742.5V746.886H438.829ZM430.771 723.458V713.598H434.103V723.458H430.771ZM438.863 722.88V712.068H442.297V727.164H422.849V712.442H426.317V722.88H438.863ZM436.551 693.259C437.775 693.259 438.84 693.599 439.747 694.279C440.654 694.936 441.368 695.877 441.889 697.101C442.388 698.325 442.637 699.821 442.637 701.589C442.637 703.107 442.433 704.603 442.025 706.077C441.617 707.527 441.084 708.695 440.427 709.579L437.095 707.981C437.707 707.165 438.194 706.167 438.557 704.989C438.92 703.81 439.101 702.609 439.101 701.385C439.101 699.934 438.886 698.925 438.455 698.359C438.024 697.792 437.514 697.509 436.925 697.509C436.381 697.509 435.95 697.724 435.633 698.155C435.316 698.563 435.066 699.118 434.885 699.821C434.681 700.501 434.5 701.249 434.341 702.065C434.16 702.881 433.956 703.697 433.729 704.513C433.502 705.329 433.185 706.077 432.777 706.757C432.369 707.437 431.825 707.992 431.145 708.423C430.465 708.831 429.604 709.035 428.561 709.035C427.36 709.035 426.306 708.695 425.399 708.015C424.492 707.335 423.79 706.383 423.291 705.159C422.792 703.912 422.543 702.45 422.543 700.773C422.543 699.571 422.679 698.37 422.951 697.169C423.2 695.945 423.62 694.879 424.209 693.973L427.541 695.435C426.974 696.296 426.589 697.203 426.385 698.155C426.158 699.084 426.045 700.002 426.045 700.909C426.045 702.269 426.26 703.255 426.691 703.867C427.122 704.456 427.666 704.751 428.323 704.751C428.867 704.751 429.298 704.547 429.615 704.139C429.932 703.708 430.193 703.153 430.397 702.473C430.578 701.793 430.748 701.045 430.907 700.229C431.066 699.39 431.27 698.574 431.519 697.781C431.746 696.965 432.063 696.217 432.471 695.537C432.856 694.834 433.378 694.279 434.035 693.871C434.692 693.463 435.531 693.259 436.551 693.259ZM437.809 685.404L432.811 685.642L422.849 675.918V671.158L431.893 679.658L434.375 682.072L437.809 685.404ZM442.297 689.246H422.849V684.962H442.297V689.246ZM442.297 675.714L433.763 682.888L430.669 680.1L442.297 670.648V675.714ZM442.297 658.334H422.849V649.936C422.849 648.191 423.132 646.684 423.699 645.414C424.243 644.145 425.036 643.17 426.079 642.49C427.122 641.788 428.38 641.436 429.853 641.436C431.326 641.436 432.596 641.788 433.661 642.49C434.704 643.17 435.508 644.145 436.075 645.414C436.619 646.684 436.891 648.191 436.891 649.936V655.954L434.919 654.05H442.297V658.334ZM435.429 654.05L433.423 655.614V650.242C433.423 648.746 433.117 647.624 432.505 646.876C431.87 646.128 430.986 645.754 429.853 645.754C428.72 645.754 427.847 646.128 427.235 646.876C426.623 647.624 426.317 648.746 426.317 650.242V655.614L424.345 654.05H435.429ZM442.297 641.607L422.849 632.767V628.517L442.297 619.711V623.961L425.025 631.373V629.945L442.297 637.425V641.607ZM438.081 637.221L434.817 636.065V625.933L438.081 624.777V637.221ZM442.297 613.564H434.477L437.197 612.748L422.849 621.452V616.896L433.933 610.096V612.476L422.849 605.676V601.324L437.197 610.028L434.477 609.246H442.297V613.564ZM442.297 598.502H422.849V590.104C422.849 588.359 423.132 586.851 423.699 585.582C424.243 584.313 425.036 583.338 426.079 582.658C427.122 581.955 428.38 581.604 429.853 581.604C431.304 581.604 432.55 581.955 433.593 582.658C434.636 583.338 435.429 584.313 435.973 585.582C436.517 586.851 436.789 588.359 436.789 590.104V596.122L434.919 594.218H442.297V598.502ZM442.297 585.854L435.225 590.852V586.228L442.297 581.23V585.854ZM435.429 594.218L433.423 595.782V590.41C433.423 588.914 433.117 587.792 432.505 587.044C431.87 586.296 430.986 585.922 429.853 585.922C428.72 585.922 427.847 586.296 427.235 587.044C426.623 587.792 426.317 588.914 426.317 590.41V595.782L424.345 594.218H435.429ZM442.637 567.708C442.637 569.77 442.206 571.618 441.345 573.25C440.461 574.859 439.26 576.128 437.741 577.058C436.222 577.987 434.5 578.452 432.573 578.452C430.646 578.452 428.935 577.987 427.439 577.058C425.92 576.128 424.73 574.859 423.869 573.25C422.985 571.618 422.543 569.782 422.543 567.742C422.543 565.679 422.985 563.843 423.869 562.234C424.73 560.602 425.92 559.321 427.439 558.392C428.935 557.462 430.646 556.998 432.573 556.998C434.5 556.998 436.222 557.462 437.741 558.392C439.26 559.321 440.461 560.602 441.345 562.234C442.206 563.843 442.637 565.668 442.637 567.708ZM438.999 567.742C438.999 566.495 438.727 565.396 438.183 564.444C437.616 563.469 436.846 562.71 435.871 562.166C434.896 561.622 433.797 561.35 432.573 561.35C431.326 561.35 430.227 561.633 429.275 562.2C428.3 562.744 427.541 563.492 426.997 564.444C426.453 565.396 426.181 566.484 426.181 567.708C426.181 568.932 426.453 570.031 426.997 571.006C427.541 571.98 428.3 572.751 429.275 573.318C430.227 573.862 431.326 574.134 432.573 574.134C433.797 574.134 434.896 573.862 435.871 573.318C436.846 572.751 437.616 571.98 438.183 571.006C438.727 570.031 438.999 568.943 438.999 567.742ZM442.297 552.715H422.849V548.431H438.829V538.435H442.297V552.715ZM442.297 535.217H422.849V530.933H438.829V520.937H442.297V535.217Z" fill="black"/>
<path d="M684.039 43.6816V33.3856H688.485C689.409 33.3856 690.207 33.5356 690.879 33.8356C691.551 34.1236 692.067 34.5436 692.427 35.0956C692.799 35.6476 692.985 36.3136 692.985 37.0936C692.985 37.8616 692.799 38.5216 692.427 39.0736C692.067 39.6256 691.551 40.0456 690.879 40.3336C690.207 40.6216 689.409 40.7656 688.485 40.7656H685.299L686.307 39.7756V43.6816H684.039ZM690.735 43.6816L688.089 39.9376H690.537L693.183 43.6816H690.735ZM686.307 40.0456L685.479 38.9836H688.323C689.115 38.9836 689.709 38.8216 690.105 38.4976C690.501 38.1616 690.699 37.6936 690.699 37.0936C690.699 36.4936 690.501 36.0316 690.105 35.7076C689.709 35.3836 689.115 35.2216 688.323 35.2216H685.479L686.307 34.1776V40.0456ZM700.342 43.8616C699.25 43.8616 698.272 43.6336 697.408 43.1776C696.556 42.7096 695.884 42.0736 695.392 41.2696C694.9 40.4656 694.654 39.5536 694.654 38.5336C694.654 37.5136 694.9 36.6076 695.392 35.8156C695.884 35.0116 696.556 34.3816 697.408 33.9256C698.272 33.4576 699.244 33.2236 700.324 33.2236C701.416 33.2236 702.388 33.4576 703.24 33.9256C704.104 34.3816 704.782 35.0116 705.274 35.8156C705.766 36.6076 706.012 37.5136 706.012 38.5336C706.012 39.5536 705.766 40.4656 705.274 41.2696C704.782 42.0736 704.104 42.7096 703.24 43.1776C702.388 43.6336 701.422 43.8616 700.342 43.8616ZM700.324 41.9356C700.984 41.9356 701.566 41.7916 702.07 41.5036C702.586 41.2036 702.988 40.7956 703.276 40.2796C703.564 39.7636 703.708 39.1816 703.708 38.5336C703.708 37.8736 703.558 37.2916 703.258 36.7876C702.97 36.2716 702.574 35.8696 702.07 35.5816C701.566 35.2936 700.99 35.1496 700.342 35.1496C699.694 35.1496 699.112 35.2936 698.596 35.5816C698.08 35.8696 697.672 36.2716 697.372 36.7876C697.084 37.2916 696.94 37.8736 696.94 38.5336C696.94 39.1816 697.084 39.7636 697.372 40.2796C697.672 40.7956 698.08 41.2036 698.596 41.5036C699.112 41.7916 699.688 41.9356 700.324 41.9356ZM713.121 43.8616C712.029 43.8616 711.051 43.6336 710.187 43.1776C709.335 42.7096 708.663 42.0736 708.171 41.2696C707.679 40.4656 707.433 39.5536 707.433 38.5336C707.433 37.5136 707.679 36.6076 708.171 35.8156C708.663 35.0116 709.335 34.3816 710.187 33.9256C711.051 33.4576 712.023 33.2236 713.103 33.2236C714.195 33.2236 715.167 33.4576 716.019 33.9256C716.883 34.3816 717.561 35.0116 718.053 35.8156C718.545 36.6076 718.791 37.5136 718.791 38.5336C718.791 39.5536 718.545 40.4656 718.053 41.2696C717.561 42.0736 716.883 42.7096 716.019 43.1776C715.167 43.6336 714.201 43.8616 713.121 43.8616ZM713.103 41.9356C713.763 41.9356 714.345 41.7916 714.849 41.5036C715.365 41.2036 715.767 40.7956 716.055 40.2796C716.343 39.7636 716.487 39.1816 716.487 38.5336C716.487 37.8736 716.337 37.2916 716.037 36.7876C715.749 36.2716 715.353 35.8696 714.849 35.5816C714.345 35.2936 713.769 35.1496 713.121 35.1496C712.473 35.1496 711.891 35.2936 711.375 35.5816C710.859 35.8696 710.451 36.2716 710.151 36.7876C709.863 37.2916 709.719 37.8736 709.719 38.5336C709.719 39.1816 709.863 39.7636 710.151 40.2796C710.451 40.7956 710.859 41.2036 711.375 41.5036C711.891 41.7916 712.467 41.9356 713.103 41.9356ZM723.038 38.0656H728.24V39.8836H723.038V38.0656ZM723.326 43.6816H721.058V33.3856H728.852V35.2216H723.326V43.6816ZM744.912 42.5476C744.564 42.8236 744.162 43.0636 743.706 43.2676C743.262 43.4596 742.794 43.6036 742.302 43.6996C741.81 43.8076 741.312 43.8616 740.808 43.8616C739.704 43.8616 738.714 43.6336 737.838 43.1776C736.974 42.7096 736.296 42.0736 735.804 41.2696C735.312 40.4656 735.066 39.5536 735.066 38.5336C735.066 37.5136 735.312 36.6076 735.804 35.8156C736.296 35.0116 736.968 34.3816 737.82 33.9256C738.684 33.4576 739.662 33.2236 740.754 33.2236C741.714 33.2236 742.554 33.3676 743.274 33.6556C743.994 33.9316 744.594 34.3636 745.074 34.9516L743.598 36.3736C743.226 35.9536 742.806 35.6476 742.338 35.4556C741.87 35.2516 741.354 35.1496 740.79 35.1496C740.13 35.1496 739.536 35.2936 739.008 35.5816C738.492 35.8696 738.084 36.2716 737.784 36.7876C737.496 37.2916 737.352 37.8736 737.352 38.5336C737.352 39.1936 737.502 39.7816 737.802 40.2976C738.102 40.8136 738.516 41.2156 739.044 41.5036C739.572 41.7916 740.178 41.9356 740.862 41.9356C741.402 41.9356 741.894 41.8516 742.338 41.6836C742.794 41.5156 743.22 41.2636 743.616 40.9276L744.912 42.5476ZM742.77 42.5656V38.4436H744.912V42.5476L742.77 42.5656ZM746.068 43.6816L750.748 33.3856H752.998L757.66 43.6816H755.41L751.486 34.5376H752.242L748.282 43.6816H746.068ZM748.39 41.4496L749.002 39.7216H754.366L754.978 41.4496H748.39ZM759.132 43.6816V33.3856H763.578C764.502 33.3856 765.3 33.5356 765.972 33.8356C766.644 34.1236 767.16 34.5436 767.52 35.0956C767.892 35.6476 768.078 36.3136 768.078 37.0936C768.078 37.8616 767.892 38.5216 767.52 39.0736C767.16 39.6256 766.644 40.0456 765.972 40.3336C765.3 40.6216 764.502 40.7656 763.578 40.7656H760.392L761.4 39.7756V43.6816H759.132ZM765.828 43.6816L763.182 39.9376H765.63L768.276 43.6816H765.828ZM761.4 40.0456L760.572 38.9836H763.416C764.208 38.9836 764.802 38.8216 765.198 38.4976C765.594 38.1616 765.792 37.6936 765.792 37.0936C765.792 36.4936 765.594 36.0316 765.198 35.7076C764.802 35.3836 764.208 35.2216 763.416 35.2216H760.572L761.4 34.1776V40.0456ZM770.593 43.6816V33.3856H775.255C776.431 33.3856 777.445 33.5956 778.297 34.0156C779.161 34.4356 779.827 35.0356 780.295 35.8156C780.775 36.5836 781.015 37.4896 781.015 38.5336C781.015 39.5896 780.775 40.5016 780.295 41.2696C779.827 42.0376 779.161 42.6316 778.297 43.0516C777.445 43.4716 776.431 43.6816 775.255 43.6816H770.593ZM772.861 41.8456H775.183C775.915 41.8456 776.545 41.7136 777.073 41.4496C777.601 41.1856 778.009 40.8076 778.297 40.3156C778.585 39.8236 778.729 39.2296 778.729 38.5336C778.729 37.8376 778.585 37.2436 778.297 36.7516C778.009 36.2596 777.601 35.8876 777.073 35.6356C776.545 35.3716 775.915 35.2396 775.183 35.2396H772.861V41.8456ZM785.264 37.5796H790.484V39.3436H785.264V37.5796ZM785.57 41.8636H791.294V43.6816H783.302V33.3856H791.096V35.2216H785.57V41.8636ZM793.638 43.6816V33.3856H795.51L801.72 40.9096H800.874V33.3856H803.124V43.6816H801.252L795.042 36.1576H795.906V43.6816H793.638Z" fill="black"/>
<path d="M982.345 775.278V759.834H989.014C990.4 759.834 991.597 760.059 992.605 760.509C993.613 760.941 994.387 761.571 994.927 762.399C995.485 763.227 995.764 764.226 995.764 765.396C995.764 766.548 995.485 767.538 994.927 768.366C994.387 769.194 993.613 769.824 992.605 770.256C991.597 770.688 990.4 770.904 989.014 770.904H984.235L985.747 769.419V775.278H982.345ZM992.389 775.278L988.42 769.662H992.092L996.061 775.278H992.389ZM985.747 769.824L984.505 768.231H988.771C989.959 768.231 990.85 767.988 991.444 767.502C992.038 766.998 992.335 766.296 992.335 765.396C992.335 764.496 992.038 763.803 991.444 763.317C990.85 762.831 989.959 762.588 988.771 762.588H984.505L985.747 761.022V769.824ZM1002.48 766.125H1010.31V768.771H1002.48V766.125ZM1002.94 772.551H1011.52V775.278H999.537V759.834H1011.23V762.588H1002.94V772.551ZM1022.25 775.548C1020.63 775.548 1019.18 775.206 1017.9 774.522C1016.62 773.82 1015.62 772.866 1014.88 771.66C1014.14 770.454 1013.77 769.086 1013.77 767.556C1013.77 766.026 1014.14 764.667 1014.88 763.479C1015.62 762.273 1016.62 761.328 1017.9 760.644C1019.18 759.942 1020.63 759.591 1022.25 759.591C1023.65 759.591 1024.88 759.807 1025.92 760.239C1026.98 760.653 1027.88 761.31 1028.62 762.21L1026.41 764.316C1025.87 763.686 1025.26 763.227 1024.57 762.939C1023.89 762.633 1023.15 762.48 1022.36 762.48C1021.37 762.48 1020.48 762.696 1019.68 763.128C1018.91 763.56 1018.3 764.163 1017.85 764.937C1017.42 765.693 1017.2 766.566 1017.2 767.556C1017.2 768.546 1017.42 769.428 1017.85 770.202C1018.3 770.976 1018.91 771.579 1019.68 772.011C1020.48 772.443 1021.37 772.659 1022.36 772.659C1023.15 772.659 1023.89 772.506 1024.57 772.2C1025.26 771.894 1025.87 771.426 1026.41 770.796L1028.62 772.929C1027.88 773.811 1026.98 774.468 1025.92 774.9C1024.86 775.332 1023.64 775.548 1022.25 775.548ZM1034.54 775.278V762.615H1029.46V759.834H1043.02V762.615H1037.94V775.278H1034.54ZM1042.04 775.278L1049.06 759.834H1052.43L1059.42 775.278H1056.05L1050.16 761.562H1051.3L1045.36 775.278H1042.04ZM1045.52 771.93L1046.44 769.338H1054.48L1055.4 771.93H1045.52ZM1061.63 775.278V759.834H1064.44L1073.75 771.12H1072.49V759.834H1075.86V775.278H1073.05L1063.74 763.992H1065.03V775.278H1061.63ZM1094.06 773.577C1093.54 773.991 1092.94 774.351 1092.25 774.657C1091.59 774.945 1090.89 775.161 1090.15 775.305C1089.41 775.467 1088.66 775.548 1087.91 775.548C1086.25 775.548 1084.77 775.206 1083.45 774.522C1082.16 773.82 1081.14 772.866 1080.4 771.66C1079.66 770.454 1079.29 769.086 1079.29 767.556C1079.29 766.026 1079.66 764.667 1080.4 763.479C1081.14 762.273 1082.15 761.328 1083.43 760.644C1084.72 759.942 1086.19 759.591 1087.83 759.591C1089.27 759.591 1090.53 759.807 1091.61 760.239C1092.69 760.653 1093.59 761.301 1094.31 762.183L1092.09 764.316C1091.53 763.686 1090.9 763.227 1090.2 762.939C1089.5 762.633 1088.73 762.48 1087.88 762.48C1086.89 762.48 1086 762.696 1085.21 763.128C1084.43 763.56 1083.82 764.163 1083.37 764.937C1082.94 765.693 1082.72 766.566 1082.72 767.556C1082.72 768.546 1082.95 769.428 1083.4 770.202C1083.85 770.976 1084.47 771.579 1085.26 772.011C1086.05 772.443 1086.96 772.659 1087.99 772.659C1088.8 772.659 1089.54 772.533 1090.2 772.281C1090.89 772.029 1091.53 771.651 1092.12 771.147L1094.06 773.577ZM1090.85 773.604V767.421H1094.06V773.577L1090.85 773.604ZM1098.28 775.278V759.834H1101.68V772.524H1109.62V775.278H1098.28ZM1115.12 766.125H1122.95V768.771H1115.12V766.125ZM1115.58 772.551H1124.17V775.278H1112.18V759.834H1123.87V762.588H1115.58V772.551ZM1016.15 808.278V792.834H1022.82C1024.2 792.834 1025.4 793.059 1026.41 793.509C1027.42 793.941 1028.19 794.571 1028.73 795.399C1029.29 796.227 1029.57 797.226 1029.57 798.396C1029.57 799.548 1029.29 800.538 1028.73 801.366C1028.19 802.194 1027.42 802.824 1026.41 803.256C1025.4 803.688 1024.2 803.904 1022.82 803.904H1018.04L1019.55 802.419V808.278H1016.15ZM1026.19 808.278L1022.22 802.662H1025.9L1029.86 808.278H1026.19ZM1019.55 802.824L1018.31 801.231H1022.57C1023.76 801.231 1024.65 800.988 1025.25 800.502C1025.84 799.998 1026.14 799.296 1026.14 798.396C1026.14 797.496 1025.84 796.803 1025.25 796.317C1024.65 795.831 1023.76 795.588 1022.57 795.588H1018.31L1019.55 794.022V802.824ZM1040.6 808.548C1038.96 808.548 1037.5 808.206 1036.2 807.522C1034.92 806.82 1033.92 805.866 1033.18 804.66C1032.44 803.454 1032.07 802.086 1032.07 800.556C1032.07 799.026 1032.44 797.667 1033.18 796.479C1033.92 795.273 1034.92 794.328 1036.2 793.644C1037.5 792.942 1038.96 792.591 1040.58 792.591C1042.21 792.591 1043.67 792.942 1044.95 793.644C1046.25 794.328 1047.26 795.273 1048 796.479C1048.74 797.667 1049.11 799.026 1049.11 800.556C1049.11 802.086 1048.74 803.454 1048 804.66C1047.26 805.866 1046.25 806.82 1044.95 807.522C1043.67 808.206 1042.22 808.548 1040.6 808.548ZM1040.58 805.659C1041.57 805.659 1042.44 805.443 1043.19 805.011C1043.97 804.561 1044.57 803.949 1045 803.175C1045.44 802.401 1045.65 801.528 1045.65 800.556C1045.65 799.566 1045.43 798.693 1044.98 797.937C1044.54 797.163 1043.95 796.56 1043.19 796.128C1042.44 795.696 1041.57 795.48 1040.6 795.48C1039.63 795.48 1038.76 795.696 1037.98 796.128C1037.21 796.56 1036.6 797.163 1036.15 797.937C1035.72 798.693 1035.5 799.566 1035.5 800.556C1035.5 801.528 1035.72 802.401 1036.15 803.175C1036.6 803.949 1037.21 804.561 1037.98 805.011C1038.76 805.443 1039.62 805.659 1040.58 805.659ZM1059.77 808.548C1058.13 808.548 1056.67 808.206 1055.37 807.522C1054.09 806.82 1053.08 805.866 1052.35 804.66C1051.61 803.454 1051.24 802.086 1051.24 800.556C1051.24 799.026 1051.61 797.667 1052.35 796.479C1053.08 795.273 1054.09 794.328 1055.37 793.644C1056.67 792.942 1058.12 792.591 1059.74 792.591C1061.38 792.591 1062.84 792.942 1064.12 793.644C1065.41 794.328 1066.43 795.273 1067.17 796.479C1067.91 797.667 1068.28 799.026 1068.28 800.556C1068.28 802.086 1067.91 803.454 1067.17 804.66C1066.43 805.866 1065.41 806.82 1064.12 807.522C1062.84 808.206 1061.39 808.548 1059.77 808.548ZM1059.74 805.659C1060.73 805.659 1061.61 805.443 1062.36 805.011C1063.14 804.561 1063.74 803.949 1064.17 803.175C1064.6 802.401 1064.82 801.528 1064.82 800.556C1064.82 799.566 1064.6 798.693 1064.15 797.937C1063.71 797.163 1063.12 796.56 1062.36 796.128C1061.61 795.696 1060.74 795.48 1059.77 795.48C1058.8 795.48 1057.93 795.696 1057.15 796.128C1056.38 796.56 1055.77 797.163 1055.32 797.937C1054.88 798.693 1054.67 799.566 1054.67 800.556C1054.67 801.528 1054.88 802.401 1055.32 803.175C1055.77 803.949 1056.38 804.561 1057.15 805.011C1057.93 805.443 1058.79 805.659 1059.74 805.659ZM1071.68 808.278V792.834H1074.59L1081.15 803.634H1079.78L1086.23 792.834H1089.15L1089.17 808.278H1085.93L1085.91 797.937H1086.42L1081.18 806.55H1079.64L1074.24 797.937H1074.92V808.278H1071.68Z" fill="black"/>
<path d="M992.469 260.847L985.975 241.399H990.395L996.073 258.807H993.829L999.779 241.399H1003.79L1009.47 258.807H1007.33L1013.14 241.399H1017.29L1010.8 260.847H1006.21L1001.07 245.445H1002.26L997.093 260.847H992.469ZM1029.6 261.187C1027.54 261.187 1025.69 260.756 1024.06 259.895C1022.45 259.011 1021.18 257.809 1020.25 256.291C1019.32 254.772 1018.86 253.049 1018.86 251.123C1018.86 249.196 1019.32 247.485 1020.25 245.989C1021.18 244.47 1022.45 243.28 1024.06 242.419C1025.69 241.535 1027.53 241.093 1029.57 241.093C1031.63 241.093 1033.46 241.535 1035.07 242.419C1036.71 243.28 1037.99 244.47 1038.92 245.989C1039.85 247.485 1040.31 249.196 1040.31 251.123C1040.31 253.049 1039.85 254.772 1038.92 256.291C1037.99 257.809 1036.71 259.011 1035.07 259.895C1033.46 260.756 1031.64 261.187 1029.6 261.187ZM1029.57 257.549C1030.81 257.549 1031.91 257.277 1032.86 256.733C1033.84 256.166 1034.6 255.395 1035.14 254.421C1035.69 253.446 1035.96 252.347 1035.96 251.123C1035.96 249.876 1035.67 248.777 1035.11 247.825C1034.56 246.85 1033.82 246.091 1032.86 245.547C1031.91 245.003 1030.82 244.731 1029.6 244.731C1028.38 244.731 1027.28 245.003 1026.3 245.547C1025.33 246.091 1024.56 246.85 1023.99 247.825C1023.45 248.777 1023.17 249.876 1023.17 251.123C1023.17 252.347 1023.45 253.446 1023.99 254.421C1024.56 255.395 1025.33 256.166 1026.3 256.733C1027.28 257.277 1028.36 257.549 1029.57 257.549ZM1044.59 260.847V241.399H1052.99C1054.74 241.399 1056.24 241.682 1057.51 242.249C1058.78 242.793 1059.76 243.586 1060.44 244.629C1061.14 245.671 1061.49 246.929 1061.49 248.403C1061.49 249.853 1061.14 251.1 1060.44 252.143C1059.76 253.185 1058.78 253.979 1057.51 254.523C1056.24 255.067 1054.74 255.339 1052.99 255.339H1046.97L1048.88 253.469V260.847H1044.59ZM1057.24 260.847L1052.24 253.775H1056.87L1061.86 260.847H1057.24ZM1048.88 253.979L1047.31 251.973H1052.68C1054.18 251.973 1055.3 251.667 1056.05 251.055C1056.8 250.42 1057.17 249.536 1057.17 248.403C1057.17 247.269 1056.8 246.397 1056.05 245.785C1055.3 245.173 1054.18 244.867 1052.68 244.867H1047.31L1048.88 242.895V253.979ZM1070.08 256.359L1069.85 251.361L1079.57 241.399H1084.33L1075.83 250.443L1073.42 252.925L1070.08 256.359ZM1066.24 260.847V241.399H1070.53V260.847H1066.24ZM1079.77 260.847L1072.6 252.313L1075.39 249.219L1084.84 260.847H1079.77ZM1106.23 261.187C1104.19 261.187 1102.37 260.756 1100.76 259.895C1099.15 259.011 1097.88 257.809 1096.95 256.291C1096.02 254.772 1095.56 253.049 1095.56 251.123C1095.56 249.196 1096.02 247.485 1096.95 245.989C1097.88 244.47 1099.15 243.28 1100.76 242.419C1102.37 241.535 1104.19 241.093 1106.23 241.093C1108 241.093 1109.54 241.365 1110.86 241.909C1112.19 242.43 1113.33 243.257 1114.26 244.391L1111.47 247.043C1110.79 246.249 1110.02 245.671 1109.16 245.309C1108.29 244.923 1107.36 244.731 1106.37 244.731C1105.12 244.731 1104 245.003 1103 245.547C1102.03 246.091 1101.26 246.85 1100.69 247.825C1100.15 248.777 1099.87 249.876 1099.87 251.123C1099.87 252.369 1100.15 253.48 1100.69 254.455C1101.26 255.429 1102.03 256.189 1103 256.733C1104 257.277 1105.12 257.549 1106.37 257.549C1107.36 257.549 1108.29 257.356 1109.16 256.971C1110.02 256.585 1110.79 255.996 1111.47 255.203L1114.26 257.889C1113.33 258.999 1112.19 259.827 1110.86 260.371C1109.52 260.915 1107.98 261.187 1106.23 261.187ZM1114.51 260.847L1123.35 241.399H1127.6L1136.41 260.847H1132.16L1124.75 243.575H1126.17L1118.69 260.847H1114.51ZM1118.9 256.631L1120.05 253.367H1130.19L1131.34 256.631H1118.9ZM1142.93 250.239H1152.75V253.673H1142.93V250.239ZM1143.47 260.847H1139.19V241.399H1153.91V244.867H1143.47V260.847ZM1161.55 249.321H1171.41V252.653H1161.55V249.321ZM1162.13 257.413H1172.94V260.847H1157.85V241.399H1172.57V244.867H1162.13V257.413Z" fill="black"/>
<path d="M1174.66 787.532C1174.66 788.756 1174.32 789.821 1173.64 790.728C1172.98 791.634 1172.04 792.348 1170.82 792.87C1169.6 793.368 1168.1 793.618 1166.33 793.618C1164.81 793.618 1163.32 793.414 1161.84 793.006C1160.39 792.598 1159.23 792.065 1158.34 791.408L1159.94 788.076C1160.76 788.688 1161.75 789.175 1162.93 789.538C1164.11 789.9 1165.31 790.082 1166.54 790.082C1167.99 790.082 1169 789.866 1169.56 789.436C1170.13 789.005 1170.41 788.495 1170.41 787.906C1170.41 787.362 1170.2 786.931 1169.77 786.614C1169.36 786.296 1168.8 786.047 1168.1 785.866C1167.42 785.662 1166.67 785.48 1165.86 785.322C1165.04 785.14 1164.22 784.936 1163.41 784.71C1162.59 784.483 1161.84 784.166 1161.16 783.758C1160.48 783.35 1159.93 782.806 1159.5 782.126C1159.09 781.446 1158.89 780.584 1158.89 779.542C1158.89 778.34 1159.23 777.286 1159.91 776.38C1160.59 775.473 1161.54 774.77 1162.76 774.272C1164.01 773.773 1165.47 773.524 1167.15 773.524C1168.35 773.524 1169.55 773.66 1170.75 773.932C1171.98 774.181 1173.04 774.6 1173.95 775.19L1172.49 778.522C1171.62 777.955 1170.72 777.57 1169.77 777.366C1168.84 777.139 1167.92 777.026 1167.01 777.026C1165.65 777.026 1164.67 777.241 1164.05 777.672C1163.46 778.102 1163.17 778.646 1163.17 779.304C1163.17 779.848 1163.37 780.278 1163.78 780.596C1164.21 780.913 1164.77 781.174 1165.45 781.378C1166.13 781.559 1166.88 781.729 1167.69 781.888C1168.53 782.046 1169.35 782.25 1170.14 782.5C1170.96 782.726 1171.7 783.044 1172.38 783.452C1173.09 783.837 1173.64 784.358 1174.05 785.016C1174.46 785.673 1174.66 786.512 1174.66 787.532ZM1182.38 781.752H1192.24V785.084H1182.38V781.752ZM1182.96 789.844H1193.77V793.278H1178.67V773.83H1193.4V777.298H1182.96V789.844ZM1198.2 793.278V773.83H1206.6C1208.34 773.83 1209.85 774.113 1211.12 774.68C1212.39 775.224 1213.36 776.017 1214.04 777.06C1214.74 778.102 1215.1 779.36 1215.1 780.834C1215.1 782.284 1214.74 783.531 1214.04 784.574C1213.36 785.616 1212.39 786.41 1211.12 786.954C1209.85 787.498 1208.34 787.77 1206.6 787.77H1200.58L1202.48 785.9V793.278H1198.2ZM1210.85 793.278L1205.85 786.206H1210.47L1215.47 793.278H1210.85ZM1202.48 786.41L1200.92 784.404H1206.29C1207.79 784.404 1208.91 784.098 1209.66 783.486C1210.4 782.851 1210.78 781.967 1210.78 780.834C1210.78 779.7 1210.4 778.828 1209.66 778.216C1208.91 777.604 1207.79 777.298 1206.29 777.298H1200.92L1202.48 775.326V786.41ZM1225.52 793.278L1216.96 773.83H1221.55L1229.03 791.272H1226.41L1233.99 773.83H1238.31L1229.77 793.278H1225.52ZM1245.03 781.752H1254.89V785.084H1245.03V781.752ZM1245.61 789.844H1256.42V793.278H1241.33V773.83H1256.05V777.298H1245.61V789.844ZM1260.85 793.278V773.83H1269.25C1271 773.83 1272.5 774.113 1273.77 774.68C1275.04 775.224 1276.02 776.017 1276.7 777.06C1277.4 778.102 1277.75 779.36 1277.75 780.834C1277.75 782.284 1277.4 783.531 1276.7 784.574C1276.02 785.616 1275.04 786.41 1273.77 786.954C1272.5 787.498 1271 787.77 1269.25 787.77H1263.23L1265.14 785.9V793.278H1260.85ZM1273.5 793.278L1268.5 786.206H1273.13L1278.12 793.278H1273.5ZM1265.14 786.41L1263.57 784.404H1268.94C1270.44 784.404 1271.56 784.098 1272.31 783.486C1273.06 782.851 1273.43 781.967 1273.43 780.834C1273.43 779.7 1273.06 778.828 1272.31 778.216C1271.56 777.604 1270.44 777.298 1268.94 777.298H1263.57L1265.14 775.326V786.41ZM1196.59 834.278V814.83H1204.99C1206.73 814.83 1208.24 815.113 1209.51 815.68C1210.78 816.224 1211.75 817.017 1212.43 818.06C1213.13 819.102 1213.49 820.36 1213.49 821.834C1213.49 823.284 1213.13 824.531 1212.43 825.574C1211.75 826.616 1210.78 827.41 1209.51 827.954C1208.24 828.498 1206.73 828.77 1204.99 828.77H1198.97L1200.87 826.9V834.278H1196.59ZM1209.24 834.278L1204.24 827.206H1208.86L1213.86 834.278H1209.24ZM1200.87 827.41L1199.31 825.404H1204.68C1206.18 825.404 1207.3 825.098 1208.05 824.486C1208.79 823.851 1209.17 822.967 1209.17 821.834C1209.17 820.7 1208.79 819.828 1208.05 819.216C1207.3 818.604 1206.18 818.298 1204.68 818.298H1199.31L1200.87 816.326V827.41ZM1218.24 834.278V814.83H1221.91L1230.17 828.43H1228.44L1236.56 814.83H1240.23L1240.27 834.278H1236.19L1236.15 821.256H1236.8L1230.2 832.102H1228.27L1221.47 821.256H1222.32V834.278H1218.24Z" fill="black"/>
<path d="M975.723 669.732C973.864 669.732 972.266 669.392 970.929 668.712C969.614 668.009 968.605 667.012 967.903 665.72C967.2 664.405 966.849 662.852 966.849 661.062V649.944H971.133V660.926C971.133 662.603 971.529 663.884 972.323 664.768C973.116 665.652 974.261 666.094 975.757 666.094C977.23 666.094 978.352 665.663 979.123 664.802C979.916 663.918 980.313 662.626 980.313 660.926V649.944H984.529V661.062C984.529 662.852 984.177 664.405 983.475 665.72C982.795 667.012 981.797 668.009 980.483 668.712C979.168 669.392 977.581 669.732 975.723 669.732ZM993.832 669.392V653.446H987.44V649.944H1004.51V653.446H998.116V669.392H993.832ZM1007.59 669.392V649.944H1011.88V669.392H1007.59ZM1017.79 669.392V649.944H1022.07V665.924H1032.07V669.392H1017.79ZM1035.29 669.392V649.944H1039.57V669.392H1035.29ZM1049.05 669.392V653.446H1042.66V649.944H1059.72V653.446H1053.33V669.392H1049.05ZM1067.24 669.392V661.572L1068.06 664.292L1059.35 649.944H1063.91L1070.71 661.028H1068.33L1075.13 649.944H1079.48L1070.78 664.292L1071.56 661.572V669.392H1067.24Z" fill="black"/>
<path d="M1007.69 880.718C1007.69 881.69 1007.42 882.536 1006.88 883.256C1006.36 883.976 1005.62 884.543 1004.64 884.957C1003.67 885.353 1002.48 885.551 1001.08 885.551C999.873 885.551 998.685 885.389 997.515 885.065C996.363 884.741 995.436 884.318 994.734 883.796L996.003 881.15C996.651 881.636 997.443 882.023 998.379 882.311C999.315 882.599 1000.27 882.743 1001.24 882.743C1002.39 882.743 1003.19 882.572 1003.64 882.23C1004.09 881.888 1004.32 881.483 1004.32 881.015C1004.32 880.583 1004.15 880.241 1003.81 879.989C1003.48 879.737 1003.04 879.539 1002.48 879.395C1001.94 879.233 1001.35 879.089 1000.7 878.963C1000.05 878.819 999.405 878.657 998.757 878.477C998.109 878.297 997.515 878.045 996.975 877.721C996.435 877.397 995.994 876.965 995.652 876.425C995.328 875.885 995.166 875.201 995.166 874.373C995.166 873.419 995.436 872.582 995.976 871.862C996.516 871.142 997.272 870.584 998.244 870.188C999.234 869.792 1000.4 869.594 1001.73 869.594C1002.68 869.594 1003.64 869.702 1004.59 869.918C1005.56 870.116 1006.41 870.449 1007.13 870.917L1005.97 873.563C1005.28 873.113 1004.56 872.807 1003.81 872.645C1003.07 872.465 1002.34 872.375 1001.62 872.375C1000.54 872.375 999.756 872.546 999.27 872.888C998.802 873.23 998.568 873.662 998.568 874.184C998.568 874.616 998.73 874.958 999.054 875.21C999.396 875.462 999.837 875.669 1000.38 875.831C1000.92 875.975 1001.51 876.11 1002.16 876.236C1002.83 876.362 1003.47 876.524 1004.1 876.722C1004.75 876.902 1005.35 877.154 1005.89 877.478C1006.44 877.784 1006.88 878.198 1007.21 878.72C1007.53 879.242 1007.69 879.908 1007.69 880.718ZM1018.14 885.551C1016.51 885.551 1015.04 885.209 1013.74 884.525C1012.46 883.823 1011.46 882.869 1010.72 881.663C1009.98 880.457 1009.61 879.089 1009.61 877.559C1009.61 876.029 1009.98 874.67 1010.72 873.482C1011.46 872.276 1012.46 871.331 1013.74 870.647C1015.04 869.945 1016.5 869.594 1018.12 869.594C1019.75 869.594 1021.21 869.945 1022.49 870.647C1023.79 871.331 1024.8 872.276 1025.54 873.482C1026.28 874.67 1026.65 876.029 1026.65 877.559C1026.65 879.089 1026.28 880.457 1025.54 881.663C1024.8 882.869 1023.79 883.823 1022.49 884.525C1021.21 885.209 1019.76 885.551 1018.14 885.551ZM1023.33 888.791C1022.52 888.791 1021.76 888.665 1021.06 888.413C1020.36 888.179 1019.64 887.783 1018.9 887.225C1018.18 886.667 1017.38 885.911 1016.5 884.957L1020.14 884.066C1020.56 884.606 1020.93 885.029 1021.28 885.335C1021.62 885.659 1021.96 885.893 1022.3 886.037C1022.64 886.181 1023.01 886.253 1023.41 886.253C1024.34 886.253 1025.17 885.875 1025.89 885.119L1027.49 887.009C1026.98 887.621 1026.38 888.071 1025.68 888.359C1024.97 888.647 1024.19 888.791 1023.33 888.791ZM1018.12 882.662C1019.11 882.662 1019.98 882.446 1020.74 882.014C1021.51 881.564 1022.11 880.952 1022.54 880.178C1022.98 879.404 1023.19 878.531 1023.19 877.559C1023.19 876.569 1022.97 875.696 1022.52 874.94C1022.09 874.166 1021.49 873.563 1020.74 873.131C1019.98 872.699 1019.11 872.483 1018.12 872.483C1017.16 872.483 1016.3 872.699 1015.52 873.131C1014.75 873.563 1014.14 874.166 1013.69 874.94C1013.26 875.696 1013.04 876.569 1013.04 877.559C1013.04 878.531 1013.26 879.404 1013.69 880.178C1014.14 880.952 1014.75 881.564 1015.52 882.014C1016.3 882.446 1017.16 882.662 1018.12 882.662ZM1036.93 885.551C1035.46 885.551 1034.19 885.281 1033.13 884.741C1032.08 884.183 1031.28 883.391 1030.72 882.365C1030.17 881.321 1029.89 880.088 1029.89 878.666V869.837H1033.29V878.558C1033.29 879.89 1033.6 880.907 1034.23 881.609C1034.86 882.311 1035.77 882.662 1036.96 882.662C1038.13 882.662 1039.02 882.32 1039.63 881.636C1040.26 880.934 1040.58 879.908 1040.58 878.558V869.837H1043.93V878.666C1043.93 880.088 1043.65 881.321 1043.09 882.365C1042.55 883.391 1041.76 884.183 1040.71 884.741C1039.67 885.281 1038.41 885.551 1036.93 885.551ZM1045.6 885.281L1052.62 869.837H1056L1062.99 885.281H1059.61L1053.73 871.565H1054.86L1048.92 885.281H1045.6ZM1049.08 881.933L1050 879.341H1058.05L1058.97 881.933H1049.08ZM1065.2 885.281V869.837H1071.87C1073.25 869.837 1074.45 870.062 1075.46 870.512C1076.46 870.944 1077.24 871.574 1077.78 872.402C1078.34 873.23 1078.62 874.229 1078.62 875.399C1078.62 876.551 1078.34 877.541 1077.78 878.369C1077.24 879.197 1076.46 879.827 1075.46 880.259C1074.45 880.691 1073.25 880.907 1071.87 880.907H1067.09L1068.6 879.422V885.281H1065.2ZM1075.24 885.281L1071.27 879.665H1074.94L1078.91 885.281H1075.24ZM1068.6 879.827L1067.36 878.234H1071.62C1072.81 878.234 1073.7 877.991 1074.3 877.505C1074.89 877.001 1075.19 876.299 1075.19 875.399C1075.19 874.499 1074.89 873.806 1074.3 873.32C1073.7 872.834 1072.81 872.591 1071.62 872.591H1067.36L1068.6 871.025V879.827ZM1085.33 876.128H1093.16V878.774H1085.33V876.128ZM1085.79 882.554H1094.38V885.281H1082.39V869.837H1094.08V872.591H1085.79V882.554ZM1008.22 918.281V902.837H1014.89C1016.27 902.837 1017.47 903.062 1018.48 903.512C1019.49 903.944 1020.26 904.574 1020.8 905.402C1021.36 906.23 1021.64 907.229 1021.64 908.399C1021.64 909.551 1021.36 910.541 1020.8 911.369C1020.26 912.197 1019.49 912.827 1018.48 913.259C1017.47 913.691 1016.27 913.907 1014.89 913.907H1010.11L1011.62 912.422V918.281H1008.22ZM1018.26 918.281L1014.29 912.665H1017.96L1021.93 918.281H1018.26ZM1011.62 912.827L1010.38 911.234H1014.64C1015.83 911.234 1016.72 910.991 1017.32 910.505C1017.91 910.001 1018.21 909.299 1018.21 908.399C1018.21 907.499 1017.91 906.806 1017.32 906.32C1016.72 905.834 1015.83 905.591 1014.64 905.591H1010.38L1011.62 904.025V912.827ZM1032.67 918.551C1031.03 918.551 1029.57 918.209 1028.27 917.525C1026.99 916.823 1025.98 915.869 1025.25 914.663C1024.51 913.457 1024.14 912.089 1024.14 910.559C1024.14 909.029 1024.51 907.67 1025.25 906.482C1025.98 905.276 1026.99 904.331 1028.27 903.647C1029.57 902.945 1031.02 902.594 1032.64 902.594C1034.28 902.594 1035.74 902.945 1037.02 903.647C1038.31 904.331 1039.33 905.276 1040.07 906.482C1040.81 907.67 1041.18 909.029 1041.18 910.559C1041.18 912.089 1040.81 913.457 1040.07 914.663C1039.33 915.869 1038.31 916.823 1037.02 917.525C1035.74 918.209 1034.29 918.551 1032.67 918.551ZM1032.64 915.662C1033.63 915.662 1034.51 915.446 1035.26 915.014C1036.04 914.564 1036.64 913.952 1037.07 913.178C1037.5 912.404 1037.72 911.531 1037.72 910.559C1037.72 909.569 1037.5 908.696 1037.05 907.94C1036.61 907.166 1036.02 906.563 1035.26 906.131C1034.51 905.699 1033.64 905.483 1032.67 905.483C1031.7 905.483 1030.83 905.699 1030.05 906.131C1029.28 906.563 1028.67 907.166 1028.22 907.94C1027.78 908.696 1027.57 909.569 1027.57 910.559C1027.57 911.531 1027.78 912.404 1028.22 913.178C1028.67 913.952 1029.28 914.564 1030.05 915.014C1030.83 915.446 1031.69 915.662 1032.64 915.662ZM1051.84 918.551C1050.2 918.551 1048.74 918.209 1047.44 917.525C1046.16 916.823 1045.15 915.869 1044.42 914.663C1043.68 913.457 1043.31 912.089 1043.31 910.559C1043.31 909.029 1043.68 907.67 1044.42 906.482C1045.15 905.276 1046.16 904.331 1047.44 903.647C1048.74 902.945 1050.19 902.594 1051.81 902.594C1053.45 902.594 1054.91 902.945 1056.19 903.647C1057.48 904.331 1058.5 905.276 1059.24 906.482C1059.98 907.67 1060.35 909.029 1060.35 910.559C1060.35 912.089 1059.98 913.457 1059.24 914.663C1058.5 915.869 1057.48 916.823 1056.19 917.525C1054.91 918.209 1053.46 918.551 1051.84 918.551ZM1051.81 915.662C1052.8 915.662 1053.68 915.446 1054.43 915.014C1055.21 914.564 1055.81 913.952 1056.24 913.178C1056.67 912.404 1056.89 911.531 1056.89 910.559C1056.89 909.569 1056.66 908.696 1056.21 907.94C1055.78 907.166 1055.19 906.563 1054.43 906.131C1053.68 905.699 1052.81 905.483 1051.84 905.483C1050.87 905.483 1050 905.699 1049.22 906.131C1048.45 906.563 1047.84 907.166 1047.39 907.94C1046.95 908.696 1046.74 909.569 1046.74 910.559C1046.74 911.531 1046.95 912.404 1047.39 913.178C1047.84 913.952 1048.45 914.564 1049.22 915.014C1050 915.446 1050.86 915.662 1051.81 915.662ZM1063.75 918.281V902.837H1066.66L1073.22 913.637H1071.85L1078.3 902.837H1081.22L1081.24 918.281H1078L1077.98 907.94H1078.49L1073.25 916.553H1071.71L1066.31 907.94H1066.99V918.281H1063.75Z" fill="black"/>
<path d="M1013.39 547.201V527.753H1017.67V547.201H1013.39ZM1027.15 547.201V531.255H1020.76V527.753H1037.83V531.255H1031.44V547.201H1027.15ZM1064.69 541.455C1064.69 542.679 1064.35 543.744 1063.67 544.651C1063.02 545.558 1062.08 546.272 1060.85 546.793C1059.63 547.292 1058.13 547.541 1056.36 547.541C1054.84 547.541 1053.35 547.337 1051.88 546.929C1050.42 546.521 1049.26 545.988 1048.37 545.331L1049.97 541.999C1050.79 542.611 1051.78 543.098 1052.96 543.461C1054.14 543.824 1055.34 544.005 1056.57 544.005C1058.02 544.005 1059.03 543.79 1059.59 543.359C1060.16 542.928 1060.44 542.418 1060.44 541.829C1060.44 541.285 1060.23 540.854 1059.8 540.537C1059.39 540.22 1058.83 539.97 1058.13 539.789C1057.45 539.585 1056.7 539.404 1055.89 539.245C1055.07 539.064 1054.26 538.86 1053.44 538.633C1052.62 538.406 1051.88 538.089 1051.2 537.681C1050.52 537.273 1049.96 536.729 1049.53 536.049C1049.12 535.369 1048.92 534.508 1048.92 533.465C1048.92 532.264 1049.26 531.21 1049.94 530.303C1050.62 529.396 1051.57 528.694 1052.79 528.195C1054.04 527.696 1055.5 527.447 1057.18 527.447C1058.38 527.447 1059.58 527.583 1060.78 527.855C1062.01 528.104 1063.07 528.524 1063.98 529.113L1062.52 532.445C1061.66 531.878 1060.75 531.493 1059.8 531.289C1058.87 531.062 1057.95 530.949 1057.04 530.949C1055.68 530.949 1054.7 531.164 1054.09 531.595C1053.5 532.026 1053.2 532.57 1053.2 533.227C1053.2 533.771 1053.41 534.202 1053.81 534.519C1054.24 534.836 1054.8 535.097 1055.48 535.301C1056.16 535.482 1056.91 535.652 1057.72 535.811C1058.56 535.97 1059.38 536.174 1060.17 536.423C1060.99 536.65 1061.74 536.967 1062.42 537.375C1063.12 537.76 1063.67 538.282 1064.08 538.939C1064.49 539.596 1064.69 540.435 1064.69 541.455ZM1071.94 547.201V531.255H1065.55V527.753H1082.62V531.255H1076.23V547.201H1071.94ZM1094.52 547.541C1092.46 547.541 1090.61 547.11 1088.98 546.249C1087.37 545.365 1086.1 544.164 1085.17 542.645C1084.24 541.126 1083.78 539.404 1083.78 537.477C1083.78 535.55 1084.24 533.839 1085.17 532.343C1086.1 530.824 1087.37 529.634 1088.98 528.773C1090.61 527.889 1092.45 527.447 1094.49 527.447C1096.55 527.447 1098.38 527.889 1099.99 528.773C1101.63 529.634 1102.91 530.824 1103.84 532.343C1104.77 533.839 1105.23 535.55 1105.23 537.477C1105.23 539.404 1104.77 541.126 1103.84 542.645C1102.91 544.164 1101.63 545.365 1099.99 546.249C1098.38 547.11 1096.56 547.541 1094.52 547.541ZM1094.49 543.903C1095.73 543.903 1096.83 543.631 1097.78 543.087C1098.76 542.52 1099.52 541.75 1100.06 540.775C1100.61 539.8 1100.88 538.701 1100.88 537.477C1100.88 536.23 1100.59 535.131 1100.03 534.179C1099.48 533.204 1098.74 532.445 1097.78 531.901C1096.83 531.357 1095.74 531.085 1094.52 531.085C1093.3 531.085 1092.2 531.357 1091.22 531.901C1090.25 532.445 1089.48 533.204 1088.91 534.179C1088.37 535.131 1088.09 536.23 1088.09 537.477C1088.09 538.701 1088.37 539.8 1088.91 540.775C1089.48 541.75 1090.25 542.52 1091.22 543.087C1092.2 543.631 1093.28 543.903 1094.49 543.903ZM1109.51 547.201V527.753H1117.91C1119.66 527.753 1121.16 528.036 1122.43 528.603C1123.7 529.147 1124.68 529.94 1125.36 530.983C1126.06 532.026 1126.41 533.284 1126.41 534.757C1126.41 536.208 1126.06 537.454 1125.36 538.497C1124.68 539.54 1123.7 540.333 1122.43 540.877C1121.16 541.421 1119.66 541.693 1117.91 541.693H1111.89L1113.8 539.823V547.201H1109.51ZM1122.16 547.201L1117.16 540.129H1121.79L1126.78 547.201H1122.16ZM1113.8 540.333L1112.23 538.327H1117.6C1119.1 538.327 1120.22 538.021 1120.97 537.409C1121.72 536.774 1122.09 535.89 1122.09 534.757C1122.09 533.624 1121.72 532.751 1120.97 532.139C1120.22 531.527 1119.1 531.221 1117.6 531.221H1112.23L1113.8 529.249V540.333ZM1134.87 535.675H1144.73V539.007H1134.87V535.675ZM1135.45 543.767H1146.26V547.201H1131.16V527.753H1145.88V531.221H1135.45V543.767ZM1160.08 547.201V527.753H1168.48C1170.22 527.753 1171.73 528.036 1173 528.603C1174.27 529.147 1175.25 529.94 1175.93 530.983C1176.63 532.026 1176.98 533.284 1176.98 534.757C1176.98 536.208 1176.63 537.454 1175.93 538.497C1175.25 539.54 1174.27 540.333 1173 540.877C1171.73 541.421 1170.22 541.693 1168.48 541.693H1162.46L1164.37 539.823V547.201H1160.08ZM1172.73 547.201L1167.73 540.129H1172.36L1177.35 547.201H1172.73ZM1164.37 540.333L1162.8 538.327H1168.17C1169.67 538.327 1170.79 538.021 1171.54 537.409C1172.29 536.774 1172.66 535.89 1172.66 534.757C1172.66 533.624 1172.29 532.751 1171.54 532.139C1170.79 531.527 1169.67 531.221 1168.17 531.221H1162.8L1164.37 529.249V540.333ZM1190.88 547.541C1188.81 547.541 1186.97 547.11 1185.33 546.249C1183.72 545.365 1182.45 544.164 1181.53 542.645C1180.6 541.126 1180.13 539.404 1180.13 537.477C1180.13 535.55 1180.6 533.839 1181.53 532.343C1182.45 530.824 1183.72 529.634 1185.33 528.773C1186.97 527.889 1188.8 527.447 1190.84 527.447C1192.9 527.447 1194.74 527.889 1196.35 528.773C1197.98 529.634 1199.26 530.824 1200.19 532.343C1201.12 533.839 1201.59 535.55 1201.59 537.477C1201.59 539.404 1201.12 541.126 1200.19 542.645C1199.26 544.164 1197.98 545.365 1196.35 546.249C1194.74 547.11 1192.92 547.541 1190.88 547.541ZM1190.84 543.903C1192.09 543.903 1193.19 543.631 1194.14 543.087C1195.11 542.52 1195.87 541.75 1196.42 540.775C1196.96 539.8 1197.23 538.701 1197.23 537.477C1197.23 536.23 1196.95 535.131 1196.38 534.179C1195.84 533.204 1195.09 532.445 1194.14 531.901C1193.19 531.357 1192.1 531.085 1190.88 531.085C1189.65 531.085 1188.55 531.357 1187.58 531.901C1186.6 532.445 1185.83 533.204 1185.27 534.179C1184.72 535.131 1184.45 536.23 1184.45 537.477C1184.45 538.701 1184.72 539.8 1185.27 540.775C1185.83 541.75 1186.6 542.52 1187.58 543.087C1188.55 543.631 1189.64 543.903 1190.84 543.903ZM1215.01 547.541C1212.95 547.541 1211.1 547.11 1209.47 546.249C1207.86 545.365 1206.59 544.164 1205.66 542.645C1204.73 541.126 1204.27 539.404 1204.27 537.477C1204.27 535.55 1204.73 533.839 1205.66 532.343C1206.59 530.824 1207.86 529.634 1209.47 528.773C1211.1 527.889 1212.94 527.447 1214.98 527.447C1217.04 527.447 1218.88 527.889 1220.49 528.773C1222.12 529.634 1223.4 530.824 1224.33 532.343C1225.26 533.839 1225.72 535.55 1225.72 537.477C1225.72 539.404 1225.26 541.126 1224.33 542.645C1223.4 544.164 1222.12 545.365 1220.49 546.249C1218.88 547.11 1217.05 547.541 1215.01 547.541ZM1214.98 543.903C1216.23 543.903 1217.33 543.631 1218.28 543.087C1219.25 542.52 1220.01 541.75 1220.56 540.775C1221.1 539.8 1221.37 538.701 1221.37 537.477C1221.37 536.23 1221.09 535.131 1220.52 534.179C1219.98 533.204 1219.23 532.445 1218.28 531.901C1217.33 531.357 1216.24 531.085 1215.01 531.085C1213.79 531.085 1212.69 531.357 1211.72 531.901C1210.74 532.445 1209.97 533.204 1209.4 534.179C1208.86 535.131 1208.59 536.23 1208.59 537.477C1208.59 538.701 1208.86 539.8 1209.4 540.775C1209.97 541.75 1210.74 542.52 1211.72 543.087C1212.69 543.631 1213.78 543.903 1214.98 543.903ZM1230.01 547.201V527.753H1233.68L1241.94 541.353H1240.21L1248.33 527.753H1252L1252.04 547.201H1247.96L1247.92 534.179H1248.57L1241.97 545.025H1240.04L1233.24 534.179H1234.09V547.201H1230.01Z" fill="black"/>
<path d="M704.081 1052.43H713.941V1055.76H704.081V1052.43ZM704.659 1060.52H715.471V1063.96H700.375V1044.51H715.097V1047.98H704.659V1060.52ZM719.898 1063.96V1044.51H723.434L735.164 1058.72H733.566V1044.51H737.816V1063.96H734.28L722.55 1049.74H724.182V1063.96H719.898ZM747.308 1063.96V1048.01H740.916V1044.51H757.984V1048.01H751.592V1063.96H747.308ZM761.07 1063.96V1044.51H769.468C771.214 1044.51 772.721 1044.79 773.99 1045.36C775.26 1045.9 776.234 1046.7 776.914 1047.74C777.617 1048.78 777.968 1050.04 777.968 1051.51C777.968 1052.96 777.617 1054.21 776.914 1055.25C776.234 1056.29 775.26 1057.09 773.99 1057.63C772.721 1058.18 771.214 1058.45 769.468 1058.45H763.45L765.354 1056.58V1063.96H761.07ZM773.718 1063.96L768.72 1056.88H773.344L778.342 1063.96H773.718ZM765.354 1057.09L763.79 1055.08H769.162C770.658 1055.08 771.78 1054.78 772.528 1054.16C773.276 1053.53 773.65 1052.65 773.65 1051.51C773.65 1050.38 773.276 1049.51 772.528 1048.89C771.78 1048.28 770.658 1047.98 769.162 1047.98H763.79L765.354 1046V1057.09ZM787.181 1063.96V1056.14L787.997 1058.86L779.293 1044.51H783.849L790.649 1055.59H788.269L795.069 1044.51H799.421L790.717 1058.86L791.499 1056.14V1063.96H787.181Z" fill="black"/>
</svg>
