<svg width="228" height="236" viewBox="0 0 228 236" fill="none" xmlns="http://www.w3.org/2000/svg">
<rect x="94.3685" y="175.35" width="39.3001" height="114.693" rx="4.5" transform="rotate(-142.192 94.3685 175.35)" fill="#FFDF7F" stroke="black"/>
<g clip-path="url(#clip0_707_4707)">
<path d="M115.888 179.77L117.263 180.837C118.132 181.511 119.231 181.816 120.317 181.684C121.404 181.552 122.389 180.995 123.057 180.134L129.099 172.348C129.767 171.487 130.062 170.394 129.919 169.309C129.777 168.224 129.209 167.235 128.34 166.561L126.964 165.494C127.383 164.643 127.493 163.672 127.275 162.745C127.058 161.817 126.526 160.99 125.77 160.404C125.015 159.817 124.081 159.508 123.129 159.527C122.176 159.547 121.263 159.895 120.543 160.511L117.857 158.427C117.509 158.157 117.07 158.036 116.635 158.088C116.201 158.141 115.807 158.364 115.54 158.708L106.477 170.388C106.21 170.733 106.092 171.17 106.148 171.604C106.205 172.038 106.433 172.433 106.78 172.703L109.466 174.787C109.048 175.638 108.938 176.609 109.156 177.536C109.373 178.464 109.905 179.291 110.661 179.877C111.416 180.464 112.349 180.773 113.302 180.754C114.255 180.734 115.168 180.386 115.888 179.77V179.77ZM127.788 171.331L121.747 179.118C121.344 179.632 120.753 179.964 120.102 180.043C119.451 180.122 118.793 179.941 118.27 179.539L116.894 178.472C117.31 177.621 117.418 176.651 117.2 175.725C116.982 174.798 116.452 173.972 115.698 173.385L120.733 166.896C121.489 167.48 122.421 167.789 123.372 167.77C124.324 167.751 125.237 167.405 125.957 166.791L127.333 167.859C127.852 168.265 128.191 168.858 128.277 169.508C128.362 170.158 128.186 170.813 127.788 171.331V171.331ZM111.19 175.137L111.215 175.104C111.348 174.932 111.407 174.714 111.379 174.497C111.351 174.28 111.237 174.082 111.063 173.947L107.787 171.405L116.85 159.725L120.126 162.267C120.212 162.333 120.31 162.382 120.414 162.411C120.518 162.439 120.627 162.447 120.734 162.433C120.841 162.42 120.944 162.385 121.037 162.331C121.131 162.277 121.212 162.206 121.277 162.12L121.302 162.087C121.605 161.709 122.015 161.43 122.48 161.285C122.944 161.139 123.443 161.134 123.912 161.27C124.382 161.406 124.803 161.678 125.121 162.05C125.439 162.422 125.641 162.878 125.702 163.362C125.762 163.846 125.678 164.335 125.46 164.769C125.243 165.202 124.901 165.561 124.478 165.8C124.055 166.039 123.569 166.147 123.082 166.111C122.595 166.075 122.128 165.897 121.74 165.598L118.464 163.056C118.29 162.921 118.07 162.86 117.853 162.887C117.636 162.913 117.439 163.025 117.305 163.197C117.172 163.369 117.113 163.587 117.141 163.804C117.169 164.022 117.283 164.219 117.457 164.354L119.422 165.879L114.388 172.368L112.422 170.843C112.248 170.708 112.028 170.647 111.811 170.674C111.594 170.7 111.397 170.812 111.263 170.984C111.13 171.156 111.071 171.374 111.099 171.591C111.128 171.808 111.241 172.006 111.415 172.141L114.691 174.683C115.078 174.983 115.369 175.391 115.527 175.853C115.684 176.316 115.702 176.814 115.577 177.284C115.452 177.754 115.19 178.175 114.825 178.495C114.459 178.815 114.006 179.019 113.522 179.082C113.039 179.145 112.546 179.063 112.105 178.848C111.665 178.632 111.297 178.292 111.048 177.871C110.799 177.45 110.679 176.965 110.705 176.479C110.73 175.992 110.899 175.525 111.19 175.137V175.137Z" fill="black"/>
</g>
<g clip-path="url(#clip1_707_4707)">
<path d="M64.4406 116.99L63.0647 115.922C62.1958 115.248 61.0973 114.943 60.0108 115.075C58.9243 115.207 57.9388 115.764 57.2712 116.625L51.2293 124.412C50.5616 125.272 50.2664 126.365 50.4087 127.45C50.5509 128.535 51.119 129.524 51.9878 130.198L53.3638 131.266C52.9451 132.116 52.8352 133.087 53.0528 134.015C53.2704 134.942 53.8021 135.769 54.5578 136.356C55.3135 136.942 56.2467 137.251 57.1993 137.232C58.1519 137.212 59.0654 136.865 59.7848 136.248L62.4712 138.332C62.8187 138.602 63.2581 138.724 63.6927 138.671C64.1273 138.618 64.5215 138.395 64.7886 138.051L73.8514 126.371C74.1185 126.027 74.2366 125.589 74.1797 125.155C74.1228 124.721 73.8955 124.326 73.548 124.056L70.8617 121.972C71.2804 121.122 71.3902 120.15 71.1726 119.223C70.955 118.295 70.4233 117.468 69.6676 116.882C68.9119 116.295 67.9787 115.986 67.0261 116.006C66.0735 116.025 65.1601 116.373 64.4406 116.99V116.99ZM52.5397 125.428L58.5816 117.641C58.9838 117.127 59.5749 116.795 60.2259 116.716C60.877 116.637 61.5354 116.818 62.0577 117.22L63.4336 118.287C63.018 119.138 62.9101 120.108 63.128 121.034C63.3459 121.961 63.8764 122.787 64.6302 123.374L59.5953 129.863C58.8394 129.279 57.9072 128.97 56.9557 128.989C56.0042 129.008 55.0913 129.354 54.3708 129.968L52.9948 128.9C52.4758 128.494 52.1368 127.901 52.0515 127.251C51.9663 126.601 52.1417 125.946 52.5397 125.428V125.428ZM69.1384 121.622L69.1133 121.655C68.9797 121.827 68.9207 122.045 68.9491 122.263C68.9776 122.48 69.0912 122.677 69.265 122.812L72.541 125.354L63.4782 137.034L60.2021 134.492C60.1165 134.426 60.0186 134.377 59.9142 134.348C59.8098 134.32 59.7009 134.312 59.5938 134.326C59.4868 134.339 59.3838 134.374 59.2907 134.428C59.1976 134.482 59.1163 134.554 59.0516 134.639L59.0264 134.672C58.7226 135.05 58.3128 135.329 57.8484 135.475C57.3839 135.62 56.8855 135.625 56.4157 135.489C55.9458 135.353 55.5253 135.082 55.207 134.71C54.8887 134.337 54.6867 133.881 54.6264 133.397C54.566 132.914 54.6499 132.424 54.8677 131.99C55.0854 131.557 55.4272 131.198 55.8503 130.959C56.2734 130.72 56.7589 130.612 57.246 130.648C57.733 130.684 58.2 130.862 58.5883 131.161L61.8643 133.703C62.0381 133.838 62.2578 133.899 62.4751 133.872C62.6924 133.846 62.8895 133.735 63.023 133.562C63.1565 133.39 63.2156 133.172 63.1871 132.955C63.1587 132.738 63.0451 132.54 62.8713 132.405L60.9057 130.88L65.9406 124.391L67.9062 125.916C68.08 126.051 68.2997 126.112 68.517 126.085C68.7343 126.059 68.9314 125.948 69.0649 125.776C69.1985 125.603 69.2575 125.385 69.229 125.168C69.2006 124.951 69.087 124.753 68.9132 124.618L65.6372 122.076C65.2498 121.776 64.9591 121.368 64.8015 120.906C64.6439 120.443 64.6264 119.945 64.7513 119.475C64.8761 119.005 65.1377 118.584 65.5033 118.264C65.8688 117.944 66.3219 117.74 66.8058 117.677C67.2896 117.615 67.7826 117.696 68.2228 117.912C68.663 118.127 69.0308 118.467 69.28 118.888C69.5292 119.31 69.6488 119.794 69.6236 120.28C69.5984 120.767 69.4296 121.234 69.1384 121.622V121.622Z" fill="black"/>
</g>
<g clip-path="url(#clip2_707_4707)">
<path d="M139.727 149.39L141.103 150.457C141.972 151.131 143.071 151.436 144.157 151.304C145.244 151.172 146.229 150.615 146.897 149.754L152.939 141.968C153.606 141.107 153.902 140.014 153.759 138.929C153.617 137.844 153.049 136.855 152.18 136.181L150.804 135.114C151.223 134.263 151.333 133.292 151.115 132.365C150.898 131.437 150.366 130.61 149.61 130.024C148.854 129.437 147.921 129.128 146.969 129.147C146.016 129.167 145.103 129.515 144.383 130.131L141.697 128.047C141.349 127.777 140.91 127.655 140.475 127.708C140.041 127.761 139.646 127.984 139.379 128.328L130.317 140.008C130.049 140.353 129.931 140.79 129.988 141.224C130.045 141.658 130.272 142.053 130.62 142.323L133.306 144.407C132.888 145.258 132.778 146.229 132.995 147.156C133.213 148.084 133.745 148.911 134.5 149.497C135.256 150.084 136.189 150.393 137.142 150.374C138.094 150.354 139.008 150.006 139.727 149.39V149.39ZM151.628 140.951L145.586 148.738C145.184 149.252 144.593 149.584 143.942 149.663C143.291 149.742 142.633 149.561 142.11 149.159L140.734 148.092C141.15 147.241 141.258 146.271 141.04 145.345C140.822 144.418 140.292 143.592 139.538 143.005L144.573 136.516C145.329 137.1 146.261 137.409 147.212 137.39C148.164 137.371 149.077 137.025 149.797 136.411L151.173 137.479C151.692 137.885 152.031 138.478 152.116 139.128C152.202 139.778 152.026 140.433 151.628 140.951V140.951ZM135.03 144.757L135.055 144.724C135.188 144.552 135.247 144.334 135.219 144.117C135.19 143.9 135.077 143.702 134.903 143.567L131.627 141.025L140.69 129.345L143.966 131.887C144.052 131.953 144.149 132.002 144.254 132.031C144.358 132.059 144.467 132.067 144.574 132.053C144.681 132.04 144.784 132.005 144.877 131.951C144.97 131.897 145.052 131.826 145.116 131.74L145.142 131.707C145.445 131.329 145.855 131.05 146.32 130.905C146.784 130.759 147.282 130.754 147.752 130.89C148.222 131.026 148.643 131.298 148.961 131.67C149.279 132.042 149.481 132.498 149.542 132.982C149.602 133.466 149.518 133.955 149.3 134.389C149.083 134.822 148.741 135.181 148.318 135.42C147.895 135.659 147.409 135.767 146.922 135.731C146.435 135.695 145.968 135.517 145.58 135.218L142.304 132.676C142.13 132.541 141.91 132.48 141.693 132.507C141.476 132.533 141.278 132.645 141.145 132.817C141.011 132.989 140.952 133.207 140.981 133.424C141.009 133.642 141.123 133.839 141.297 133.974L143.262 135.499L138.227 141.988L136.262 140.463C136.088 140.328 135.868 140.267 135.651 140.294C135.434 140.32 135.237 140.432 135.103 140.604C134.97 140.776 134.91 140.994 134.939 141.211C134.967 141.428 135.081 141.626 135.255 141.761L138.531 144.303C138.918 144.603 139.209 145.011 139.366 145.473C139.524 145.936 139.542 146.434 139.417 146.904C139.292 147.374 139.03 147.795 138.665 148.115C138.299 148.435 137.846 148.639 137.362 148.702C136.878 148.764 136.385 148.683 135.945 148.468C135.505 148.252 135.137 147.912 134.888 147.491C134.639 147.07 134.519 146.585 134.544 146.099C134.57 145.612 134.738 145.145 135.03 144.757V144.757Z" fill="black"/>
</g>
<g clip-path="url(#clip3_707_4707)">
<path d="M88.2765 86.6077L86.9006 85.5401C86.0318 84.8659 84.9332 84.5612 83.8468 84.693C82.7603 84.8248 81.7748 85.3822 81.1071 86.2427L75.0652 94.0296C74.3975 94.8901 74.1024 95.9832 74.2446 97.0684C74.3869 98.1535 74.9549 99.1419 75.8238 99.8161L77.1997 100.884C76.781 101.734 76.6712 102.705 76.8888 103.633C77.1064 104.56 77.6381 105.387 78.3937 105.974C79.1494 106.56 80.0826 106.87 81.0353 106.85C81.9879 106.83 82.9013 106.483 83.6208 105.866L86.3071 107.95C86.6547 108.22 87.0941 108.342 87.5287 108.289C87.9633 108.236 88.3574 108.013 88.6245 107.669L97.6874 95.9887C97.9544 95.6445 98.0725 95.2073 98.0156 94.7733C97.9587 94.3392 97.7315 93.9438 97.3839 93.6742L94.6976 91.5898C95.1163 90.7397 95.2262 89.7685 95.0086 88.8409C94.7909 87.9133 94.2592 87.0862 93.5036 86.4999C92.7479 85.9135 91.8147 85.6039 90.8621 85.6236C89.9094 85.6432 88.996 85.9909 88.2765 86.6077V86.6077ZM76.3756 95.0464L82.4175 87.2595C82.8198 86.7455 83.4108 86.4128 84.0619 86.3339C84.7129 86.2549 85.3713 86.4361 85.8936 86.8379L87.2696 87.9055C86.8539 88.756 86.746 89.726 86.964 90.6525C87.1819 91.5789 87.7124 92.4052 88.4661 92.9922L83.4312 99.4813C82.6753 98.897 81.7432 98.5884 80.7916 98.6074C79.8401 98.6265 78.9273 98.972 78.2067 99.5858L76.8308 98.5182C76.3118 98.1121 75.9727 97.5194 75.8875 96.8691C75.8022 96.2188 75.9777 95.5637 76.3756 95.0464V95.0464ZM92.9744 91.2404L92.9492 91.2728C92.8157 91.4449 92.7566 91.6635 92.7851 91.8805C92.8135 92.0976 92.9271 92.2953 93.1009 92.4301L96.377 94.972L87.3141 106.652L84.0381 104.11C83.9524 104.044 83.8545 103.995 83.7501 103.966C83.6457 103.938 83.5368 103.93 83.4298 103.944C83.3228 103.957 83.2197 103.992 83.1266 104.046C83.0336 104.1 82.9523 104.172 82.8875 104.257L82.8624 104.29C82.5586 104.668 82.1488 104.947 81.6843 105.093C81.2199 105.238 80.7215 105.243 80.2516 105.107C79.7817 104.971 79.3613 104.7 79.043 104.328C78.7247 103.955 78.5227 103.499 78.4623 103.015C78.4019 102.532 78.4859 102.042 78.7036 101.608C78.9213 101.175 79.2632 100.816 79.6863 100.577C80.1094 100.338 80.5949 100.23 81.0819 100.266C81.569 100.302 82.0359 100.48 82.4242 100.779L85.7003 103.321C85.874 103.456 86.0937 103.517 86.311 103.49C86.5283 103.464 86.7254 103.353 86.859 103.18C86.9925 103.008 87.0515 102.79 87.0231 102.573C86.9946 102.356 86.881 102.158 86.7072 102.023L84.7416 100.498L89.7765 94.009L91.7422 95.5341C91.9159 95.6689 92.1356 95.7299 92.3529 95.7035C92.5702 95.6772 92.7673 95.5657 92.9009 95.3936C93.0344 95.2215 93.0934 95.0029 93.065 94.7858C93.0365 94.5688 92.9229 94.3711 92.7491 94.2363L89.4731 91.6944C89.0858 91.3938 88.7951 90.9865 88.6375 90.5238C88.4798 90.0611 88.4624 89.5635 88.5872 89.0935C88.7121 88.6235 88.9737 88.2021 89.3392 87.8822C89.7047 87.5623 90.1579 87.3582 90.6417 87.2954C91.1256 87.2327 91.6185 87.3141 92.0587 87.5296C92.4989 87.745 92.8667 88.0848 93.116 88.5062C93.3652 88.9277 93.4847 89.4121 93.4595 89.8985C93.4343 90.3849 93.2655 90.8518 92.9744 91.2404V91.2404Z" fill="black"/>
</g>
<g clip-path="url(#clip4_707_4707)">
<path d="M163.563 119.007L164.939 120.074C165.808 120.749 166.907 121.053 167.993 120.922C169.08 120.79 170.065 120.232 170.733 119.372L176.775 111.585C177.442 110.724 177.737 109.631 177.595 108.546C177.453 107.461 176.885 106.473 176.016 105.798L174.64 104.731C175.059 103.881 175.169 102.91 174.951 101.982C174.733 101.054 174.202 100.227 173.446 99.6409C172.69 99.0545 171.757 98.745 170.805 98.7646C169.852 98.7843 168.939 99.1319 168.219 99.7487L165.533 97.6644C165.185 97.3947 164.746 97.2728 164.311 97.3255C163.877 97.3782 163.482 97.6012 163.215 97.9454L154.152 109.626C153.885 109.97 153.767 110.407 153.824 110.841C153.881 111.275 154.108 111.671 154.456 111.94L157.142 114.025C156.724 114.875 156.614 115.846 156.831 116.774C157.049 117.701 157.581 118.528 158.336 119.115C159.092 119.701 160.025 120.011 160.978 119.991C161.93 119.971 162.844 119.624 163.563 119.007V119.007ZM175.464 110.568L169.422 118.355C169.02 118.869 168.429 119.202 167.778 119.281C167.127 119.36 166.469 119.178 165.946 118.777L164.57 117.709C164.986 116.859 165.094 115.888 164.876 114.962C164.658 114.036 164.127 113.209 163.374 112.622L168.409 106.133C169.165 106.718 170.097 107.026 171.048 107.007C172 106.988 172.913 106.643 173.633 106.029L175.009 107.096C175.528 107.502 175.867 108.095 175.952 108.745C176.038 109.396 175.862 110.051 175.464 110.568V110.568ZM158.865 114.374L158.891 114.342C159.024 114.17 159.083 113.951 159.055 113.734C159.026 113.517 158.913 113.319 158.739 113.184L155.463 110.643L164.526 98.9622L167.802 101.504C167.887 101.571 167.985 101.62 168.09 101.648C168.194 101.677 168.303 101.684 168.41 101.671C168.517 101.657 168.62 101.622 168.713 101.569C168.806 101.515 168.888 101.443 168.952 101.357L168.977 101.325C169.281 100.947 169.691 100.667 170.156 100.522C170.62 100.377 171.118 100.372 171.588 100.508C172.058 100.644 172.479 100.915 172.797 101.287C173.115 101.659 173.317 102.116 173.378 102.599C173.438 103.083 173.354 103.572 173.136 104.006C172.919 104.44 172.577 104.799 172.154 105.037C171.73 105.276 171.245 105.384 170.758 105.348C170.271 105.312 169.804 105.134 169.416 104.835L166.14 102.294C165.966 102.159 165.746 102.098 165.529 102.124C165.312 102.15 165.114 102.262 164.981 102.434C164.847 102.606 164.788 102.825 164.817 103.042C164.845 103.259 164.959 103.456 165.133 103.591L167.098 105.116L162.063 111.606L160.098 110.08C159.924 109.946 159.704 109.885 159.487 109.911C159.27 109.937 159.073 110.049 158.939 110.221C158.805 110.393 158.746 110.612 158.775 110.829C158.803 111.046 158.917 111.243 159.091 111.378L162.367 113.92C162.754 114.221 163.045 114.628 163.202 115.091C163.36 115.553 163.377 116.051 163.253 116.521C163.128 116.991 162.866 117.412 162.501 117.732C162.135 118.052 161.682 118.256 161.198 118.319C160.714 118.382 160.221 118.3 159.781 118.085C159.341 117.87 158.973 117.53 158.724 117.108C158.475 116.687 158.355 116.202 158.38 115.716C158.406 115.23 158.574 114.763 158.865 114.374V114.374Z" fill="black"/>
</g>
<g clip-path="url(#clip5_707_4707)">
<path d="M112.116 56.2268L110.74 55.1592C109.872 54.4851 108.773 54.1804 107.687 54.3121C106.6 54.4439 105.615 55.0014 104.947 55.8619L98.905 63.6488C98.2374 64.5093 97.9422 65.6023 98.0845 66.6875C98.2267 67.7727 98.7948 68.7611 99.6636 69.4352L101.04 70.5028C100.621 71.3529 100.511 72.3241 100.729 73.2517C100.946 74.1794 101.478 75.0064 102.234 75.5928C102.989 76.1791 103.922 76.4887 104.875 76.469C105.828 76.4494 106.741 76.1017 107.461 75.4849L110.147 77.5693C110.495 77.839 110.934 77.9608 111.369 77.9081C111.803 77.8554 112.197 77.6324 112.464 77.2882L121.527 65.6079C121.794 65.2637 121.912 64.8265 121.855 64.3924C121.799 63.9583 121.571 63.563 121.224 63.2933L118.537 61.209C118.956 60.3588 119.066 59.3877 118.848 58.46C118.631 57.5324 118.099 56.7053 117.343 56.119C116.588 55.5327 115.655 55.2231 114.702 55.2427C113.749 55.2624 112.836 55.6101 112.116 56.2268V56.2268ZM100.215 64.6655L106.257 56.8786C106.66 56.3647 107.251 56.032 107.902 55.953C108.553 55.874 109.211 56.0552 109.733 56.457L111.109 57.5246C110.694 58.3751 110.586 59.3452 110.804 60.2716C111.022 61.198 111.552 62.0243 112.306 62.6113L107.271 69.1004C106.515 68.5161 105.583 68.2075 104.631 68.2266C103.68 68.2456 102.767 68.5911 102.047 69.205L100.671 68.1374C100.152 67.7313 99.8126 67.1385 99.7273 66.4883C99.6421 65.838 99.8175 65.1828 100.215 64.6655V64.6655ZM116.814 60.8595L116.789 60.8919C116.656 61.064 116.596 61.2827 116.625 61.4997C116.653 61.7167 116.767 61.9144 116.941 62.0492L120.217 64.5911L111.154 76.2715L107.878 73.7296C107.792 73.6631 107.694 73.6141 107.59 73.5855C107.486 73.5569 107.377 73.5492 107.27 73.5629C107.163 73.5765 107.06 73.6113 106.966 73.6651C106.873 73.7189 106.792 73.7908 106.727 73.8765L106.702 73.9089C106.398 74.2871 105.989 74.5664 105.524 74.7118C105.06 74.8571 104.561 74.862 104.091 74.7259C103.622 74.5898 103.201 74.3188 102.883 73.9467C102.565 73.5746 102.363 73.1181 102.302 72.6344C102.242 72.1507 102.326 71.6613 102.543 71.2276C102.761 70.7939 103.103 70.4351 103.526 70.1963C103.949 69.9575 104.435 69.8493 104.922 69.8852C105.409 69.9211 105.876 70.0996 106.264 70.3982L109.54 72.9401C109.714 73.075 109.934 73.1359 110.151 73.1096C110.368 73.0832 110.565 72.9717 110.699 72.7996C110.832 72.6275 110.891 72.4089 110.863 72.1919C110.834 71.9748 110.721 71.7772 110.547 71.6423L108.581 70.1172L113.616 63.6281L115.582 65.1532C115.756 65.2881 115.975 65.349 116.193 65.3227C116.41 65.2963 116.607 65.1848 116.741 65.0127C116.874 64.8406 116.933 64.622 116.905 64.405C116.876 64.1879 116.763 63.9903 116.589 63.8554L113.313 61.3135C112.926 61.0129 112.635 60.6057 112.477 60.1429C112.32 59.6802 112.302 59.1826 112.427 58.7126C112.552 58.2427 112.814 57.8213 113.179 57.5014C113.545 57.1815 113.998 56.9773 114.482 56.9146C114.965 56.8518 115.458 56.9333 115.899 57.1487C116.339 57.3641 116.707 57.7039 116.956 58.1254C117.205 58.5468 117.325 59.0312 117.299 59.5176C117.274 60.0041 117.105 60.4709 116.814 60.8595V60.8595Z" fill="black"/>
</g>
<path d="M111.113 138.341C108.073 138.341 105.465 137.701 103.289 136.421C101.113 135.109 99.449 133.221 98.297 130.757C97.145 128.293 96.569 125.253 96.569 121.637C96.569 117.797 97.257 114.549 98.633 111.893C100.041 109.237 101.977 107.221 104.441 105.845C106.937 104.469 109.801 103.781 113.033 103.781C114.729 103.781 116.345 103.957 117.881 104.309C119.449 104.661 120.777 105.205 121.865 105.941L119.561 110.645C118.633 110.037 117.625 109.621 116.537 109.397C115.481 109.141 114.361 109.013 113.177 109.013C110.009 109.013 107.497 109.989 105.641 111.941C103.785 113.893 102.857 116.773 102.857 120.581C102.857 121.189 102.873 121.909 102.905 122.741C102.937 123.541 103.049 124.357 103.241 125.189L101.321 123.077C101.897 121.765 102.681 120.677 103.673 119.813C104.697 118.917 105.897 118.245 107.273 117.797C108.681 117.349 110.201 117.125 111.833 117.125C114.041 117.125 116.009 117.557 117.737 118.421C119.465 119.253 120.841 120.453 121.865 122.021C122.889 123.557 123.401 125.365 123.401 127.445C123.401 129.653 122.857 131.573 121.769 133.205C120.681 134.837 119.209 136.101 117.353 136.997C115.497 137.893 113.417 138.341 111.113 138.341ZM110.777 133.445C112.057 133.445 113.193 133.221 114.185 132.773C115.177 132.293 115.945 131.621 116.489 130.757C117.065 129.893 117.353 128.885 117.353 127.733C117.353 125.973 116.745 124.581 115.529 123.557C114.313 122.533 112.681 122.021 110.633 122.021C109.289 122.021 108.105 122.277 107.081 122.789C106.089 123.269 105.289 123.941 104.681 124.805C104.105 125.669 103.817 126.661 103.817 127.781C103.817 128.805 104.089 129.749 104.633 130.613C105.177 131.477 105.961 132.165 106.985 132.677C108.041 133.189 109.305 133.445 110.777 133.445Z" fill="black"/>
<defs>
<clipPath id="clip0_707_4707">
<rect width="26.2826" height="26.5378" fill="white" transform="translate(136.754 167.892) rotate(127.808)"/>
</clipPath>
<clipPath id="clip1_707_4707">
<rect width="26.2826" height="26.5378" fill="white" transform="translate(43.5742 128.867) rotate(-52.1919)"/>
</clipPath>
<clipPath id="clip2_707_4707">
<rect width="26.2826" height="26.5378" fill="white" transform="translate(160.594 137.512) rotate(127.808)"/>
</clipPath>
<clipPath id="clip3_707_4707">
<rect width="26.2826" height="26.5378" fill="white" transform="translate(67.4102 98.4852) rotate(-52.1919)"/>
</clipPath>
<clipPath id="clip4_707_4707">
<rect width="26.2826" height="26.5378" fill="white" transform="translate(184.43 107.129) rotate(127.808)"/>
</clipPath>
<clipPath id="clip5_707_4707">
<rect width="26.2826" height="26.5378" fill="white" transform="translate(91.25 68.1044) rotate(-52.1919)"/>
</clipPath>
</defs>
</svg>
