<svg width="150" height="150" viewBox="0 0 150 150" fill="none" xmlns="http://www.w3.org/2000/svg">
<rect x="94.6484" y="132.347" width="39.3001" height="114.693" rx="4.5" transform="rotate(-180 94.6484 132.347)" fill="#FFDF7F" stroke="black"/>
<path d="M114.358 122.648L116.1 122.648C117.199 122.648 118.254 122.215 119.032 121.445C119.809 120.675 120.246 119.63 120.246 118.541L120.246 108.685C120.246 107.596 119.809 106.551 119.032 105.781C118.254 105.011 117.199 104.579 116.1 104.579L114.358 104.579C114.168 103.65 113.659 102.816 112.919 102.216C112.178 101.617 111.251 101.289 110.294 101.289C109.338 101.289 108.411 101.617 107.67 102.216C106.93 102.816 106.421 103.65 106.231 104.579L102.831 104.579C102.391 104.579 101.969 104.752 101.658 105.06C101.347 105.368 101.172 105.786 101.172 106.221L101.172 121.005C101.172 121.441 101.347 121.859 101.658 122.167C101.969 122.475 102.391 122.648 102.831 122.648L106.231 122.648C106.421 123.576 106.93 124.411 107.67 125.01C108.411 125.61 109.338 125.937 110.294 125.937C111.251 125.937 112.178 125.61 112.919 125.01C113.659 124.411 114.168 123.576 114.358 122.648ZM118.587 108.685L118.587 118.541C118.585 119.194 118.322 119.819 117.856 120.28C117.39 120.742 116.759 121.002 116.1 121.005L114.358 121.005C114.165 120.078 113.656 119.246 112.916 118.648C112.175 118.049 111.25 117.722 110.294 117.72L110.294 109.506C111.25 109.505 112.175 109.177 112.916 108.579C113.656 107.98 114.165 107.148 114.358 106.221L116.1 106.221C116.759 106.224 117.39 106.484 117.856 106.946C118.322 107.407 118.585 108.033 118.587 108.685ZM107.807 121.868L107.807 121.826C107.807 121.609 107.719 121.4 107.564 121.246C107.408 121.092 107.197 121.005 106.977 121.005L102.831 121.005L102.831 106.221L106.977 106.221C107.086 106.221 107.193 106.2 107.293 106.158C107.393 106.117 107.484 106.056 107.56 105.98C107.636 105.904 107.696 105.813 107.737 105.713C107.777 105.614 107.798 105.507 107.796 105.4L107.796 105.359C107.804 104.874 107.957 104.402 108.235 104.002C108.513 103.603 108.903 103.293 109.358 103.113C109.813 102.932 110.311 102.889 110.791 102.988C111.27 103.086 111.71 103.323 112.054 103.668C112.398 104.014 112.632 104.452 112.726 104.928C112.819 105.404 112.769 105.897 112.581 106.345C112.393 106.793 112.076 107.176 111.669 107.446C111.263 107.716 110.784 107.862 110.294 107.864L106.148 107.864C105.928 107.864 105.717 107.95 105.561 108.104C105.406 108.258 105.319 108.467 105.319 108.685C105.319 108.903 105.406 109.112 105.561 109.266C105.717 109.42 105.928 109.506 106.148 109.506L108.636 109.506L108.636 117.72L106.148 117.72C105.928 117.72 105.717 117.806 105.561 117.96C105.406 118.114 105.319 118.323 105.319 118.541C105.319 118.759 105.406 118.968 105.561 119.122C105.717 119.276 105.928 119.362 106.148 119.362L110.294 119.362C110.785 119.363 111.264 119.506 111.672 119.775C112.08 120.044 112.399 120.426 112.589 120.874C112.778 121.322 112.83 121.815 112.737 122.292C112.644 122.769 112.412 123.208 112.068 123.554C111.724 123.901 111.285 124.138 110.805 124.238C110.325 124.338 109.826 124.295 109.371 124.114C108.915 123.934 108.524 123.625 108.246 123.225C107.968 122.825 107.815 122.353 107.807 121.868Z" fill="black"/>
<path d="M35.2279 104.582L33.4864 104.582C32.3866 104.582 31.332 105.014 30.5543 105.784C29.7767 106.555 29.3398 107.599 29.3398 108.688L29.3398 118.544C29.3398 119.633 29.7767 120.678 30.5543 121.448C31.332 122.218 32.3866 122.651 33.4864 122.651L35.2279 122.651C35.4183 123.579 35.9268 124.414 36.6674 125.013C37.408 125.613 38.335 125.94 39.2915 125.94C40.248 125.94 41.1751 125.613 41.9157 125.013C42.6562 124.414 43.1648 123.579 43.3551 122.651L46.7553 122.651C47.1952 122.651 47.617 122.478 47.9281 122.17C48.2391 121.862 48.4139 121.444 48.4139 121.008L48.4139 106.224C48.4139 105.789 48.2391 105.371 47.9281 105.063C47.617 104.755 47.1952 104.582 46.7553 104.582L43.3551 104.582C43.1648 103.653 42.6562 102.819 41.9157 102.219C41.1751 101.62 40.248 101.292 39.2915 101.292C38.335 101.292 37.408 101.62 36.6674 102.219C35.9268 102.819 35.4183 103.653 35.2279 104.582ZM30.9985 118.544L30.9985 108.688C31.0012 108.036 31.2642 107.411 31.7302 106.949C32.1961 106.488 32.8274 106.227 33.4864 106.224L35.2279 106.224C35.4209 107.151 35.9303 107.984 36.6704 108.582C37.4105 109.18 38.3361 109.508 39.2915 109.51L39.2915 117.723C38.3361 117.725 37.4105 118.052 36.6704 118.651C35.9303 119.249 35.4209 120.082 35.2279 121.008L33.4864 121.008C32.8274 121.006 32.1962 120.745 31.7302 120.284C31.2642 119.822 31.0012 119.197 30.9985 118.544ZM41.7794 105.362L41.7794 105.403C41.7794 105.621 41.8668 105.83 42.0223 105.984C42.1779 106.138 42.3888 106.224 42.6087 106.224L46.7553 106.224L46.7553 121.008L42.6087 121.008C42.5003 121.008 42.393 121.03 42.2929 121.071C42.1929 121.112 42.1022 121.173 42.026 121.249C41.9498 121.326 41.8897 121.417 41.8491 121.516C41.8086 121.616 41.7884 121.722 41.7898 121.83L41.7898 121.871C41.7816 122.356 41.6291 122.828 41.3512 123.227C41.0734 123.627 40.6826 123.936 40.228 124.117C39.7733 124.297 39.275 124.341 38.7954 124.242C38.3158 124.143 37.8764 123.906 37.5322 123.561C37.1879 123.216 36.9543 122.778 36.8604 122.302C36.7666 121.826 36.8167 121.333 37.0046 120.885C37.1925 120.437 37.5097 120.053 37.9165 119.783C38.3234 119.513 38.8017 119.368 39.2915 119.366L43.438 119.366C43.658 119.366 43.8689 119.279 44.0245 119.125C44.18 118.971 44.2674 118.762 44.2674 118.544C44.2674 118.326 44.18 118.118 44.0245 117.964C43.8689 117.81 43.658 117.723 43.438 117.723L40.9501 117.723L40.9501 109.51L43.438 109.51C43.658 109.51 43.8689 109.423 44.0245 109.269C44.18 109.115 44.2674 108.906 44.2674 108.688C44.2674 108.471 44.18 108.262 44.0245 108.108C43.8689 107.954 43.658 107.867 43.438 107.867L39.2915 107.867C38.8012 107.867 38.3219 107.723 37.9137 107.454C37.5055 107.185 37.1867 106.803 36.9972 106.355C36.8078 105.907 36.7561 105.414 36.8488 104.937C36.9415 104.46 37.1744 104.021 37.5182 103.675C37.862 103.329 38.3014 103.091 38.7812 102.991C39.2611 102.892 39.76 102.935 40.2152 103.115C40.6705 103.295 41.0618 103.605 41.3401 104.004C41.6184 104.404 41.7713 104.876 41.7794 105.362Z" fill="black"/>
<path d="M114.569 84.0306L116.311 84.0306C117.41 84.0306 118.465 83.598 119.243 82.8278C120.02 82.0577 120.457 81.0131 120.457 79.924L120.457 70.068C120.457 68.9788 120.02 67.9343 119.243 67.1641C118.465 66.394 117.41 65.9613 116.311 65.9613L114.569 65.9613C114.379 65.033 113.87 64.1984 113.129 63.5989C112.389 62.9994 111.462 62.6719 110.505 62.6719C109.549 62.6719 108.622 62.9994 107.881 63.5989C107.141 64.1984 106.632 65.033 106.442 65.9613L103.042 65.9613C102.602 65.9613 102.18 66.1344 101.869 66.4424C101.558 66.7505 101.383 67.1683 101.383 67.604L101.383 82.388C101.383 82.8236 101.558 83.2414 101.869 83.5495C102.18 83.8576 102.602 84.0306 103.042 84.0306L106.442 84.0306C106.632 84.959 107.141 85.7936 107.881 86.3931C108.622 86.9926 109.549 87.3201 110.505 87.3201C111.462 87.3201 112.389 86.9926 113.129 86.3931C113.87 85.7936 114.379 84.959 114.569 84.0306ZM118.798 70.068L118.798 79.924C118.796 80.5766 118.533 81.2018 118.067 81.6633C117.601 82.1248 116.969 82.3853 116.311 82.388L114.569 82.388C114.376 81.4613 113.867 80.6287 113.126 80.0303C112.386 79.432 111.461 79.1044 110.505 79.1026L110.505 70.8893C111.461 70.8876 112.386 70.56 113.126 69.9616C113.867 69.3633 114.376 68.5307 114.569 67.604L116.311 67.604C116.969 67.6067 117.601 67.8672 118.067 68.3287C118.533 68.7902 118.796 69.4153 118.798 70.068ZM108.017 83.2504L108.017 83.2093C108.017 82.9915 107.93 82.7825 107.775 82.6285C107.619 82.4745 107.408 82.388 107.188 82.388L103.042 82.388L103.042 67.604L107.188 67.604C107.297 67.604 107.404 67.5827 107.504 67.5413C107.604 67.4999 107.695 67.4392 107.771 67.3628C107.847 67.2864 107.907 67.1958 107.948 67.0962C107.988 66.9966 108.008 66.89 108.007 66.7827L108.007 66.7416C108.015 66.2565 108.168 65.7846 108.446 65.3851C108.723 64.9856 109.114 64.6761 109.569 64.4956C110.024 64.3151 110.522 64.2715 111.001 64.3704C111.481 64.4692 111.92 64.706 112.265 65.0512C112.609 65.3963 112.843 65.8344 112.936 66.3106C113.03 66.7867 112.98 67.2797 112.792 67.7277C112.604 68.1758 112.287 68.5589 111.88 68.8291C111.474 69.0993 110.995 69.2446 110.505 69.2466L106.359 69.2466C106.139 69.2466 105.928 69.3332 105.772 69.4872C105.617 69.6412 105.53 69.8501 105.53 70.068C105.53 70.2858 105.617 70.4947 105.772 70.6487C105.928 70.8028 106.139 70.8893 106.359 70.8893L108.847 70.8893L108.847 79.1026L106.359 79.1026C106.139 79.1026 105.928 79.1892 105.772 79.3432C105.617 79.4972 105.53 79.7061 105.53 79.924C105.53 80.1418 105.617 80.3507 105.772 80.5047C105.928 80.6588 106.139 80.7453 106.359 80.7453L110.505 80.7453C110.996 80.7454 111.475 80.8889 111.883 81.1579C112.291 81.4268 112.61 81.8093 112.8 82.2571C112.989 82.705 113.041 83.1983 112.948 83.6751C112.855 84.1519 112.623 84.591 112.279 84.9371C111.935 85.2833 111.495 85.5212 111.016 85.6208C110.536 85.7205 110.037 85.6775 109.582 85.4973C109.126 85.3171 108.735 85.0077 108.457 84.6079C108.178 84.2081 108.026 83.7359 108.017 83.2504Z" fill="black"/>
<path d="M35.4349 65.9679L33.6934 65.9679C32.5937 65.9679 31.539 66.4006 30.7614 67.1707C29.9837 67.9409 29.5469 68.9854 29.5469 70.0746L29.5469 79.9306C29.5469 81.0197 29.9837 82.0643 30.7614 82.8344C31.539 83.6046 32.5937 84.0372 33.6934 84.0372L35.4349 84.0372C35.6253 84.9656 36.1338 85.8002 36.8744 86.3997C37.615 86.9992 38.5421 87.3267 39.4985 87.3267C40.455 87.3267 41.3821 86.9992 42.1227 86.3997C42.8633 85.8002 43.3718 84.9656 43.5621 84.0372L46.9623 84.0372C47.4022 84.0372 47.8241 83.8641 48.1351 83.5561C48.4462 83.248 48.6209 82.8302 48.6209 82.3946L48.6209 67.6106C48.6209 67.1749 48.4462 66.7571 48.1351 66.449C47.8241 66.141 47.4022 65.9679 46.9623 65.9679L43.5621 65.9679C43.3718 65.0396 42.8633 64.2049 42.1227 63.6055C41.3821 63.006 40.455 62.6785 39.4985 62.6785C38.5421 62.6785 37.615 63.006 36.8744 63.6055C36.1338 64.2049 35.6253 65.0396 35.4349 65.9679ZM31.2055 79.9306L31.2055 70.0746C31.2082 69.4219 31.4712 68.7968 31.9372 68.3353C32.4032 67.8737 33.0344 67.6133 33.6934 67.6106L35.4349 67.6106C35.6279 68.5373 36.1373 69.3699 36.8774 69.9682C37.6175 70.5666 38.5432 70.8942 39.4985 70.8959L39.4985 79.1092C38.5432 79.111 37.6175 79.4386 36.8774 80.0369C36.1373 80.6353 35.6279 81.4679 35.4349 82.3946L33.6934 82.3946C33.0344 82.3918 32.4032 82.1314 31.9372 81.6699C31.4712 81.2084 31.2082 80.5832 31.2055 79.9306ZM41.9865 66.7482L41.9865 66.7892C41.9865 67.0071 42.0738 67.216 42.2294 67.37C42.3849 67.524 42.5958 67.6106 42.8158 67.6106L46.9623 67.6106L46.9623 82.3946L42.8158 82.3946C42.7073 82.3945 42.6 82.4159 42.5 82.4573C42.3999 82.4987 42.3092 82.5593 42.233 82.6357C42.1568 82.7121 42.0967 82.8028 42.0562 82.9023C42.0156 83.0019 41.9955 83.1085 41.9968 83.2159L41.9968 83.257C41.9887 83.742 41.8361 84.2139 41.5583 84.6134C41.2804 85.013 40.8897 85.3224 40.435 85.5029C39.9803 85.6834 39.482 85.727 39.0024 85.6282C38.5228 85.5294 38.0834 85.2925 37.7392 84.9474C37.395 84.6022 37.1613 84.1641 37.0674 83.6879C36.9736 83.2118 37.0237 82.7188 37.2116 82.2708C37.3995 81.8228 37.7167 81.4396 38.1236 81.1694C38.5304 80.8992 39.0087 80.754 39.4985 80.7519L43.6451 80.7519C43.865 80.7519 44.076 80.6654 44.2315 80.5113C44.387 80.3573 44.4744 80.1484 44.4744 79.9306C44.4744 79.7127 44.387 79.5038 44.2315 79.3498C44.076 79.1958 43.865 79.1092 43.6451 79.1092L41.1572 79.1092L41.1572 70.8959L43.6451 70.8959C43.865 70.8959 44.076 70.8094 44.2315 70.6553C44.387 70.5013 44.4744 70.2924 44.4744 70.0746C44.4744 69.8567 44.387 69.6478 44.2315 69.4938C44.076 69.3398 43.865 69.2532 43.6451 69.2532L39.4985 69.2532C39.0083 69.2532 38.5289 69.1096 38.1207 68.8407C37.7126 68.5717 37.3937 68.1893 37.2042 67.7414C37.0148 67.2936 36.9632 66.8003 37.0558 66.3234C37.1485 65.8466 37.3814 65.4076 37.7252 65.0614C38.069 64.7152 38.5084 64.4774 38.9883 64.3777C39.4681 64.278 39.967 64.321 40.4223 64.5012C40.8775 64.6814 41.2689 64.9909 41.5472 65.3906C41.8255 65.7904 41.9783 66.2627 41.9865 66.7482Z" fill="black"/>
<path d="M114.776 45.4164L116.518 45.4164C117.617 45.4164 118.672 44.9837 119.45 44.2136C120.227 43.4434 120.664 42.3989 120.664 41.3097L120.664 31.4537C120.664 30.3646 120.227 29.32 119.45 28.5499C118.672 27.7797 117.617 27.3471 116.518 27.3471L114.776 27.3471C114.586 26.4187 114.077 25.5841 113.337 24.9846C112.596 24.3851 111.669 24.0576 110.712 24.0576C109.756 24.0576 108.829 24.3851 108.088 24.9846C107.348 25.5841 106.839 26.4187 106.649 27.3471L103.249 27.3471C102.809 27.3471 102.387 27.5201 102.076 27.8282C101.765 28.1362 101.59 28.5541 101.59 28.9897L101.59 43.7737C101.59 44.2094 101.765 44.6272 102.076 44.9352C102.387 45.2433 102.809 45.4164 103.249 45.4164L106.649 45.4164C106.839 46.3447 107.348 47.1793 108.088 47.7788C108.829 48.3783 109.756 48.7058 110.712 48.7058C111.669 48.7058 112.596 48.3783 113.337 47.7788C114.077 47.1793 114.586 46.3447 114.776 45.4164ZM119.005 31.4537L119.005 41.3097C119.003 41.9624 118.74 42.5875 118.274 43.049C117.808 43.5105 117.177 43.771 116.518 43.7737L114.776 43.7737C114.583 42.847 114.074 42.0144 113.334 41.4161C112.593 40.8177 111.668 40.4901 110.712 40.4884L110.712 32.2751C111.668 32.2733 112.593 31.9457 113.334 31.3474C114.074 30.749 114.583 29.9164 114.776 28.9897L116.518 28.9897C117.177 28.9924 117.808 29.2529 118.274 29.7144C118.74 30.1759 119.003 30.8011 119.005 31.4537ZM108.224 44.6361L108.224 44.595C108.224 44.3772 108.137 44.1683 107.982 44.0143C107.826 43.8602 107.615 43.7737 107.395 43.7737L103.249 43.7737L103.249 28.9897L107.395 28.9897C107.504 28.9897 107.611 28.9684 107.711 28.927C107.811 28.8856 107.902 28.825 107.978 28.7486C108.054 28.6721 108.114 28.5815 108.155 28.4819C108.195 28.3823 108.215 28.2758 108.214 28.1684L108.214 28.1273C108.222 27.6423 108.375 27.1704 108.653 26.7708C108.931 26.3713 109.321 26.0619 109.776 25.8814C110.231 25.7008 110.729 25.6573 111.209 25.7561C111.688 25.8549 112.128 26.0918 112.472 26.4369C112.816 26.7821 113.05 27.2202 113.144 27.6963C113.237 28.1725 113.187 28.6655 112.999 29.1135C112.811 29.5615 112.494 29.9446 112.087 30.2148C111.681 30.485 111.202 30.6303 110.712 30.6324L106.566 30.6324C106.346 30.6324 106.135 30.7189 105.979 30.873C105.824 31.027 105.737 31.2359 105.737 31.4537C105.737 31.6716 105.824 31.8805 105.979 32.0345C106.135 32.1885 106.346 32.2751 106.566 32.2751L109.054 32.2751L109.054 40.4884L106.566 40.4884C106.346 40.4884 106.135 40.5749 105.979 40.7289C105.824 40.883 105.737 41.0919 105.737 41.3097C105.737 41.5275 105.824 41.7364 105.979 41.8905C106.135 42.0445 106.346 42.131 106.566 42.131L110.712 42.131C111.203 42.1311 111.682 42.2746 112.09 42.5436C112.498 42.8126 112.817 43.195 113.007 43.6429C113.196 44.0907 113.248 44.584 113.155 45.0608C113.062 45.5376 112.83 45.9767 112.486 46.3229C112.142 46.6691 111.703 46.9069 111.223 47.0066C110.743 47.1062 110.244 47.0633 109.789 46.883C109.333 46.7028 108.942 46.3934 108.664 45.9937C108.385 45.5939 108.233 45.1216 108.224 44.6361Z" fill="black"/>
<path d="M35.642 27.3497L33.9004 27.3497C32.8007 27.3497 31.746 27.7824 30.9684 28.5526C30.1908 29.3227 29.7539 30.3673 29.7539 31.4564L29.7539 41.3124C29.7539 42.4015 30.1908 43.4461 30.9684 44.2162C31.746 44.9864 32.8007 45.4191 33.9004 45.4191L35.642 45.4191C35.8323 46.3474 36.3409 47.182 37.0814 47.7815C37.822 48.381 38.7491 48.7085 39.7056 48.7085C40.6621 48.7085 41.5891 48.381 42.3297 47.7815C43.0703 47.182 43.5788 46.3474 43.7692 45.4191L47.1693 45.4191C47.6092 45.4191 48.0311 45.246 48.3421 44.9379C48.6532 44.6299 48.8279 44.212 48.8279 43.7764L48.8279 28.9924C48.8279 28.5568 48.6532 28.1389 48.3421 27.8309C48.0311 27.5228 47.6092 27.3497 47.1693 27.3497L43.7692 27.3497C43.5788 26.4214 43.0703 25.5868 42.3297 24.9873C41.5891 24.3878 40.6621 24.0603 39.7056 24.0603C38.7491 24.0603 37.822 24.3878 37.0814 24.9873C36.3409 25.5868 35.8323 26.4214 35.642 27.3497ZM31.4125 41.3124L31.4125 31.4564C31.4152 30.8037 31.6782 30.1786 32.1442 29.7171C32.6102 29.2556 33.2414 28.9951 33.9004 28.9924L35.642 28.9924C35.835 29.9191 36.3444 30.7517 37.0845 31.35C37.8246 31.9484 38.7502 32.276 39.7056 32.2777L39.7056 40.4911C38.7502 40.4928 37.8246 40.8204 37.0845 41.4188C36.3444 42.0171 35.835 42.8497 35.642 43.7764L33.9004 43.7764C33.2414 43.7737 32.6102 43.5132 32.1442 43.0517C31.6782 42.5902 31.4152 41.9651 31.4125 41.3124ZM42.1935 28.13L42.1935 28.1711C42.1935 28.3889 42.2809 28.5978 42.4364 28.7519C42.5919 28.9059 42.8029 28.9924 43.0228 28.9924L47.1693 28.9924L47.1693 43.7764L43.0228 43.7764C42.9144 43.7764 42.807 43.7977 42.707 43.8391C42.607 43.8805 42.5162 43.9412 42.44 44.0176C42.3638 44.094 42.3037 44.1846 42.2632 44.2842C42.2227 44.3838 42.2025 44.4903 42.2039 44.5977L42.2039 44.6388C42.1957 45.1238 42.0431 45.5957 41.7653 45.9953C41.4875 46.3948 41.0967 46.7042 40.642 46.8848C40.1874 47.0653 39.689 47.1089 39.2094 47.01C38.7299 46.9112 38.2904 46.6743 37.9462 46.3292C37.602 45.984 37.3683 45.5459 37.2745 45.0698C37.1806 44.5936 37.2308 44.1007 37.4187 43.6526C37.6065 43.2046 37.9238 42.8215 38.3306 42.5513C38.7374 42.2811 39.2157 42.1358 39.7056 42.1337L43.8521 42.1337C44.0721 42.1337 44.283 42.0472 44.4385 41.8932C44.594 41.7391 44.6814 41.5302 44.6814 41.3124C44.6814 41.0946 44.594 40.8857 44.4385 40.7316C44.283 40.5776 44.0721 40.4911 43.8521 40.4911L41.3642 40.4911L41.3642 32.2777L43.8521 32.2777C44.0721 32.2777 44.283 32.1912 44.4385 32.0372C44.594 31.8831 44.6814 31.6742 44.6814 31.4564C44.6814 31.2386 44.594 31.0297 44.4385 30.8756C44.283 30.7216 44.0721 30.6351 43.8521 30.6351L39.7056 30.6351C39.2153 30.635 38.736 30.4915 38.3278 30.2225C37.9196 29.9535 37.6007 29.5711 37.4113 29.1233C37.2218 28.6754 37.1702 28.1821 37.2629 27.7053C37.3555 27.2285 37.5884 26.7894 37.9322 26.4432C38.276 26.0971 38.7154 25.8592 39.1953 25.7595C39.6751 25.6599 40.174 25.7029 40.6293 25.8831C41.0845 26.0633 41.4759 26.3727 41.7542 26.7725C42.0325 27.1722 42.1853 27.6445 42.1935 28.13Z" fill="black"/>
<path d="M64.6218 82.094V79.034L76.3518 63.7H81.0778L69.5178 79.034L67.3078 78.354H86.1778V82.094H64.6218ZM77.6778 87.5V82.094L77.8138 78.354V73.56H81.9618V87.5H77.6778Z" fill="black"/>
</svg>
