<svg width="150" height="150" viewBox="0 0 150 150" fill="none" xmlns="http://www.w3.org/2000/svg">
<g clip-path="url(#clip0_731_4029)">
<rect x="55.3685" y="132.351" width="39.3001" height="114.693" rx="4.5" transform="rotate(-142.192 55.3685 132.351)" fill="#FFDF7F" stroke="black"/>
<g clip-path="url(#clip1_731_4029)">
<path d="M76.8875 136.77L78.2635 137.838C79.1323 138.512 80.2308 138.817 81.3173 138.685C82.4038 138.553 83.3893 137.996 84.057 137.135L90.0989 129.348C90.7665 128.488 91.0617 127.395 90.9194 126.31C90.7772 125.224 90.2091 124.236 89.3403 123.562L87.9643 122.494C88.3831 121.644 88.4929 120.673 88.2753 119.745C88.0577 118.818 87.526 117.991 86.7703 117.404C86.0146 116.818 85.0814 116.508 84.1288 116.528C83.1762 116.548 82.2628 116.895 81.5433 117.512L78.8569 115.428C78.5094 115.158 78.07 115.036 77.6354 115.089C77.2008 115.142 76.8066 115.365 76.5395 115.709L67.4767 127.389C67.2096 127.733 67.0916 128.171 67.1485 128.605C67.2054 129.039 67.4326 129.434 67.7801 129.704L70.4665 131.788C70.0478 132.638 69.9379 133.609 70.1555 134.537C70.3731 135.465 70.9048 136.292 71.6605 136.878C72.4162 137.464 73.3494 137.774 74.302 137.754C75.2546 137.735 76.168 137.387 76.8875 136.77ZM88.7884 128.332L82.7465 136.118C82.3443 136.632 81.7533 136.965 81.1022 137.044C80.4511 137.123 79.7927 136.942 79.2704 136.54L77.8945 135.472C78.3101 134.622 78.418 133.652 78.2001 132.725C77.9822 131.799 77.4517 130.973 76.6979 130.386L81.7329 123.897C82.4888 124.481 83.4209 124.79 84.3724 124.771C85.324 124.751 86.2368 124.406 86.9574 123.792L88.3333 124.86C88.8523 125.266 89.1913 125.859 89.2766 126.509C89.3618 127.159 89.1864 127.814 88.7884 128.332ZM72.1897 132.138L72.2149 132.105C72.3484 131.933 72.4074 131.714 72.379 131.497C72.3505 131.28 72.2369 131.083 72.0631 130.948L68.7871 128.406L77.85 116.726L81.126 119.267C81.2117 119.334 81.3095 119.383 81.414 119.412C81.5184 119.44 81.6273 119.448 81.7343 119.434C81.8413 119.421 81.9443 119.386 82.0374 119.332C82.1305 119.278 82.2118 119.206 82.2765 119.121L82.3017 119.088C82.6055 118.71 83.0153 118.431 83.4797 118.285C83.9442 118.14 84.4426 118.135 84.9125 118.271C85.3823 118.407 85.8028 118.678 86.1211 119.05C86.4394 119.422 86.6414 119.879 86.7018 120.363C86.7621 120.846 86.6782 121.336 86.4605 121.769C86.2427 122.203 85.9009 122.562 85.4778 122.801C85.0547 123.04 84.5692 123.148 84.0821 123.112C83.5951 123.076 83.1281 122.897 82.7399 122.599L79.4638 120.057C79.29 119.922 79.0703 119.861 78.853 119.888C78.6357 119.914 78.4386 120.025 78.3051 120.197C78.1716 120.37 78.1125 120.588 78.141 120.805C78.1694 121.022 78.2831 121.22 78.4568 121.355L80.4225 122.88L75.3875 129.369L73.4219 127.844C73.2481 127.709 73.0284 127.648 72.8111 127.674C72.5938 127.701 72.3967 127.812 72.2632 127.984C72.1297 128.156 72.0706 128.375 72.0991 128.592C72.1275 128.809 72.2411 129.007 72.4149 129.142L75.691 131.684C76.0783 131.984 76.369 132.391 76.5266 132.854C76.6842 133.317 76.7017 133.814 76.5768 134.284C76.452 134.754 76.1904 135.176 75.8249 135.496C75.4593 135.816 75.0062 136.02 74.5224 136.082C74.0385 136.145 73.5455 136.064 73.1053 135.848C72.6651 135.633 72.2973 135.293 72.0481 134.872C71.7989 134.45 71.6794 133.966 71.7046 133.479C71.7297 132.993 71.8985 132.526 72.1897 132.138Z" fill="black"/>
</g>
<g clip-path="url(#clip2_731_4029)">
<path d="M25.4406 73.99L24.0647 72.9224C23.1958 72.2483 22.0973 71.9435 21.0108 72.0753C19.9243 72.2071 18.9388 72.7645 18.2712 73.625L12.2293 81.4119C11.5616 82.2725 11.2664 83.3655 11.4087 84.4507C11.5509 85.5359 12.119 86.5242 12.9878 87.1984L14.3638 88.266C13.9451 89.1161 13.8352 90.0873 14.0528 91.0149C14.2704 91.9425 14.8021 92.7696 15.5578 93.3559C16.3135 93.9423 17.2467 94.2519 18.1993 94.2322C19.1519 94.2126 20.0654 93.8649 20.7848 93.2481L23.4712 95.3325C23.8187 95.6021 24.2581 95.724 24.6927 95.6713C25.1273 95.6186 25.5215 95.3956 25.7886 95.0514L34.8514 83.3711C35.1185 83.0269 35.2366 82.5896 35.1797 82.1556C35.1228 81.7215 34.8955 81.3262 34.548 81.0565L31.8617 78.9721C32.2804 78.122 32.3902 77.1508 32.1726 76.2232C31.955 75.2956 31.4233 74.4685 30.6676 73.8822C29.9119 73.2958 28.9787 72.9863 28.0261 73.0059C27.0735 73.0256 26.1601 73.3732 25.4406 73.99ZM13.5397 82.4287L19.5816 74.6418C19.9838 74.1278 20.5749 73.7951 21.2259 73.7162C21.877 73.6372 22.5354 73.8184 23.0577 74.2202L24.4336 75.2878C24.018 76.1383 23.9101 77.1083 24.128 78.0348C24.3459 78.9612 24.8764 79.7875 25.6302 80.3745L20.5953 86.8636C19.8394 86.2793 18.9072 85.9707 17.9557 85.9898C17.0042 86.0088 16.0913 86.3543 15.3708 86.9682L13.9948 85.9006C13.4758 85.4945 13.1368 84.9017 13.0515 84.2514C12.9663 83.6012 13.1417 82.946 13.5397 82.4287ZM30.1384 78.6227L30.1133 78.6551C29.9797 78.8272 29.9207 79.0458 29.9491 79.2629C29.9776 79.4799 30.0912 79.6776 30.265 79.8124L33.541 82.3543L24.4782 94.0347L21.2021 91.4928C21.1165 91.4263 21.0186 91.3773 20.9142 91.3487C20.8098 91.3201 20.7009 91.3124 20.5938 91.326C20.4868 91.3397 20.3838 91.3745 20.2907 91.4283C20.1976 91.4821 20.1163 91.554 20.0516 91.6396L20.0264 91.6721C19.7226 92.0503 19.3128 92.3296 18.8484 92.475C18.3839 92.6203 17.8855 92.6252 17.4157 92.4891C16.9458 92.353 16.5253 92.082 16.207 91.7099C15.8887 91.3378 15.6867 90.8813 15.6264 90.3976C15.566 89.9139 15.6499 89.4245 15.8677 88.9908C16.0854 88.5571 16.4272 88.1983 16.8503 87.9595C17.2734 87.7207 17.7589 87.6125 18.246 87.6484C18.733 87.6843 19.2 87.8628 19.5883 88.1614L22.8643 90.7033C23.0381 90.8382 23.2578 90.8991 23.4751 90.8727C23.6924 90.8464 23.8895 90.7349 24.023 90.5628C24.1565 90.3907 24.2156 90.1721 24.1871 89.955C24.1587 89.738 24.0451 89.5403 23.8713 89.4055L21.9057 87.8804L26.9406 81.3913L28.9062 82.9164C29.08 83.0513 29.2997 83.1122 29.517 83.0858C29.7343 83.0595 29.9314 82.948 30.0649 82.7759C30.1985 82.6038 30.2575 82.3852 30.229 82.1681C30.2006 81.9511 30.087 81.7534 29.9132 81.6186L26.6372 79.0767C26.2498 78.7761 25.9591 78.3689 25.8015 77.9061C25.6439 77.4434 25.6264 76.9458 25.7513 76.4758C25.8761 76.0058 26.1378 75.5844 26.5033 75.2645C26.8688 74.9446 27.3219 74.7405 27.8058 74.6778C28.2896 74.615 28.7826 74.6965 29.2228 74.9119C29.663 75.1273 30.0308 75.4671 30.28 75.8885C30.5292 76.31 30.6488 76.7944 30.6236 77.2808C30.5984 77.7673 30.4296 78.2341 30.1384 78.6227Z" fill="black"/>
</g>
<g clip-path="url(#clip3_731_4029)">
<path d="M100.727 106.39L102.103 107.458C102.972 108.132 104.071 108.437 105.157 108.305C106.244 108.173 107.229 107.616 107.897 106.755L113.939 98.9684C114.606 98.1079 114.902 97.0149 114.759 95.9297C114.617 94.8445 114.049 93.8561 113.18 93.182L111.804 92.1144C112.223 91.2642 112.333 90.2931 112.115 89.3655C111.898 88.4378 111.366 87.6108 110.61 87.0244C109.854 86.4381 108.921 86.1285 107.969 86.1482C107.016 86.1678 106.103 86.5155 105.383 87.1323L102.697 85.0479C102.349 84.7782 101.91 84.6564 101.475 84.7091C101.041 84.7618 100.646 84.9847 100.379 85.329L91.3165 97.0093C91.0495 97.3535 90.9314 97.7907 90.9883 98.2248C91.0452 98.6589 91.2724 99.0542 91.62 99.3239L94.3063 101.408C93.8876 102.258 93.7777 103.23 93.9954 104.157C94.213 105.085 94.7447 105.912 95.5003 106.498C96.256 107.085 97.1892 107.394 98.1419 107.374C99.0945 107.355 100.008 107.007 100.727 106.39ZM112.628 97.9517L106.586 105.739C106.184 106.253 105.593 106.585 104.942 106.664C104.291 106.743 103.633 106.562 103.11 106.16L101.734 105.093C102.15 104.242 102.258 103.272 102.04 102.346C101.822 101.419 101.292 100.593 100.538 100.006L105.573 93.5168C106.329 94.1011 107.261 94.4097 108.212 94.3906C109.164 94.3716 110.077 94.0261 110.797 93.4122L112.173 94.4798C112.692 94.8859 113.031 95.4787 113.116 96.1289C113.202 96.7792 113.026 97.4343 112.628 97.9517ZM96.0295 101.758L96.0547 101.725C96.1882 101.553 96.2473 101.335 96.2188 101.118C96.1904 100.9 96.0768 100.703 95.903 100.568L92.6269 98.0261L101.69 86.3457L104.966 88.8876C105.052 88.9541 105.149 89.0031 105.254 89.0317C105.358 89.0603 105.467 89.068 105.574 89.0543C105.681 89.0407 105.784 89.0059 105.877 88.9521C105.97 88.8982 106.052 88.8264 106.116 88.7407L106.142 88.7083C106.445 88.3301 106.855 88.0508 107.32 87.9054C107.784 87.7601 108.282 87.7551 108.752 87.8912C109.222 88.0273 109.643 88.2984 109.961 88.6705C110.279 89.0426 110.481 89.4991 110.542 89.9828C110.602 90.4665 110.518 90.9559 110.3 91.3896C110.083 91.8233 109.741 92.182 109.318 92.4208C108.895 92.6596 108.409 92.7679 107.922 92.732C107.435 92.696 106.968 92.5176 106.58 92.219L103.304 89.6771C103.13 89.5422 102.91 89.4813 102.693 89.5076C102.476 89.534 102.278 89.6455 102.145 89.8176C102.011 89.9897 101.952 90.2083 101.981 90.4253C102.009 90.6424 102.123 90.84 102.297 90.9749L104.262 92.5L99.2274 98.9891L97.2618 97.4639C97.088 97.3291 96.8683 97.2682 96.651 97.2945C96.4337 97.3209 96.2366 97.4324 96.103 97.6045C95.9695 97.7766 95.9105 97.9952 95.9389 98.2122C95.9674 98.4293 96.081 98.6269 96.2548 98.7618L99.5308 101.304C99.9181 101.604 100.209 102.012 100.366 102.474C100.524 102.937 100.542 103.435 100.417 103.905C100.292 104.375 100.03 104.796 99.6647 105.116C99.2992 105.436 98.846 105.64 98.3622 105.703C97.8784 105.765 97.3854 105.684 96.9452 105.468C96.505 105.253 96.1372 104.913 95.8879 104.492C95.6387 104.07 95.5192 103.586 95.5444 103.1C95.5696 102.613 95.7384 102.146 96.0295 101.758Z" fill="black"/>
</g>
<g clip-path="url(#clip4_731_4029)">
<path d="M49.2765 43.6082L47.9006 42.5406C47.0318 41.8664 45.9332 41.5617 44.8468 41.6935C43.7603 41.8253 42.7748 42.3827 42.1071 43.2432L36.0652 51.0301C35.3975 51.8906 35.1024 52.9837 35.2446 54.0689C35.3869 55.154 35.9549 56.1424 36.8238 56.8166L38.1997 57.8842C37.781 58.7343 37.6712 59.7054 37.8888 60.6331C38.1064 61.5607 38.6381 62.3878 39.3937 62.9741C40.1494 63.5604 41.0826 63.87 42.0353 63.8504C42.9879 63.8307 43.9013 63.4831 44.6208 62.8663L47.3071 64.9506C47.6547 65.2203 48.0941 65.3422 48.5287 65.2895C48.9633 65.2368 49.3574 65.0138 49.6245 64.6696L58.6874 52.9892C58.9544 52.645 59.0725 52.2078 59.0156 51.7737C58.9587 51.3397 58.7315 50.9443 58.3839 50.6747L55.6976 48.5903C56.1163 47.7402 56.2262 46.769 56.0086 45.8414C55.7909 44.9137 55.2592 44.0867 54.5036 43.5004C53.7479 42.914 52.8147 42.6044 51.8621 42.6241C50.9094 42.6437 49.996 42.9914 49.2765 43.6082ZM37.3756 52.0469L43.4175 44.26C43.8198 43.746 44.4108 43.4133 45.0619 43.3343C45.7129 43.2554 46.3713 43.4365 46.8936 43.8384L48.2696 44.906C47.8539 45.7564 47.746 46.7265 47.964 47.6529C48.1819 48.5794 48.7124 49.4056 49.4661 49.9927L44.4312 56.4818C43.6753 55.8975 42.7432 55.5889 41.7916 55.6079C40.8401 55.627 39.9273 55.9725 39.2067 56.5863L37.8308 55.5187C37.3118 55.1126 36.9727 54.5199 36.8875 53.8696C36.8022 53.2193 36.9777 52.5642 37.3756 52.0469ZM53.9744 48.2408L53.9492 48.2733C53.8157 48.4454 53.7566 48.664 53.7851 48.881C53.8135 49.0981 53.9271 49.2957 54.1009 49.4306L57.377 51.9725L48.3141 63.6528L45.0381 61.1109C44.9524 61.0444 44.8545 60.9955 44.7501 60.9669C44.6457 60.9382 44.5368 60.9305 44.4298 60.9442C44.3228 60.9579 44.2197 60.9926 44.1266 61.0465C44.0336 61.1003 43.9523 61.1721 43.8875 61.2578L43.8624 61.2902C43.5586 61.6685 43.1488 61.9478 42.6843 62.0931C42.2199 62.2385 41.7215 62.2434 41.2516 62.1073C40.7817 61.9712 40.3613 61.7001 40.043 61.3281C39.7247 60.956 39.5227 60.4995 39.4623 60.0158C39.4019 59.5321 39.4859 59.0427 39.7036 58.609C39.9213 58.1752 40.2632 57.8165 40.6863 57.5777C41.1094 57.3389 41.5949 57.2307 42.0819 57.2666C42.569 57.3025 43.0359 57.481 43.4242 57.7796L46.7003 60.3215C46.874 60.4563 47.0937 60.5173 47.311 60.4909C47.5283 60.4645 47.7254 60.3531 47.859 60.181C47.9925 60.0089 48.0515 59.7902 48.0231 59.5732C47.9946 59.3562 47.881 59.1585 47.7072 59.0237L45.7416 57.4985L50.7765 51.0094L52.7422 52.5346C52.9159 52.6694 53.1356 52.7304 53.3529 52.704C53.5702 52.6777 53.7673 52.5662 53.9009 52.3941C54.0344 52.222 54.0934 52.0033 54.065 51.7863C54.0365 51.5693 53.9229 51.3716 53.7491 51.2368L50.4731 48.6949C50.0858 48.3943 49.7951 47.987 49.6375 47.5243C49.4798 47.0615 49.4624 46.5639 49.5872 46.094C49.7121 45.624 49.9737 45.2026 50.3392 44.8827C50.7047 44.5628 51.1579 44.3587 51.6417 44.2959C52.1256 44.2332 52.6185 44.3146 53.0587 44.53C53.4989 44.7455 53.8667 45.0852 54.116 45.5067C54.3652 45.9282 54.4847 46.4125 54.4595 46.899C54.4343 47.3854 54.2655 47.8523 53.9744 48.2408Z" fill="black"/>
</g>
<g clip-path="url(#clip5_731_4029)">
<path d="M124.563 76.0075L125.939 77.0751C126.808 77.7493 127.907 78.054 128.993 77.9222C130.08 77.7905 131.065 77.233 131.733 76.3725L137.775 68.5856C138.442 67.7251 138.737 66.632 138.595 65.5469C138.453 64.4617 137.885 63.4733 137.016 62.7992L135.64 61.7316C136.059 60.8814 136.169 59.9103 135.951 58.9826C135.733 58.055 135.202 57.228 134.446 56.6416C133.69 56.0553 132.757 55.7457 131.805 55.7654C130.852 55.785 129.939 56.1327 129.219 56.7494L126.533 54.6651C126.185 54.3954 125.746 54.2735 125.311 54.3262C124.877 54.379 124.482 54.6019 124.215 54.9461L115.152 66.6265C114.885 66.9707 114.767 67.4079 114.824 67.842C114.881 68.276 115.108 68.6714 115.456 68.9411L118.142 71.0254C117.724 71.8756 117.614 72.8467 117.831 73.7743C118.049 74.702 118.581 75.529 119.336 76.1154C120.092 76.7017 121.025 77.0113 121.978 76.9916C122.93 76.972 123.844 76.6243 124.563 76.0075ZM136.464 67.5689L130.422 75.3558C130.02 75.8697 129.429 76.2024 128.778 76.2814C128.127 76.3603 127.469 76.1792 126.946 75.7773L125.57 74.7097C125.986 73.8593 126.094 72.8892 125.876 71.9628C125.658 71.0363 125.127 70.2101 124.374 69.623L129.409 63.134C130.165 63.7183 131.097 64.0269 132.048 64.0078C133 63.9888 133.913 63.6432 134.633 63.0294L136.009 64.097C136.528 64.5031 136.867 65.0958 136.952 65.7461C137.038 66.3964 136.862 67.0515 136.464 67.5689ZM119.865 71.3749L119.891 71.3424C120.024 71.1703 120.083 70.9517 120.055 70.7347C120.026 70.5177 119.913 70.32 119.739 70.1851L116.463 67.6432L125.526 55.9629L128.802 58.5048C128.887 58.5713 128.985 58.6202 129.09 58.6489C129.194 58.6775 129.303 58.6852 129.41 58.6715C129.517 58.6578 129.62 58.6231 129.713 58.5693C129.806 58.5154 129.888 58.4436 129.952 58.3579L129.977 58.3255C130.281 57.9472 130.691 57.668 131.156 57.5226C131.62 57.3773 132.118 57.3723 132.588 57.5084C133.058 57.6445 133.479 57.9156 133.797 58.2877C134.115 58.6597 134.317 59.1162 134.378 59.6C134.438 60.0837 134.354 60.5731 134.136 61.0068C133.919 61.4405 133.577 61.7992 133.154 62.038C132.73 62.2768 132.245 62.3851 131.758 62.3491C131.271 62.3132 130.804 62.1348 130.416 61.8361L127.14 59.2942C126.966 59.1594 126.746 59.0985 126.529 59.1248C126.312 59.1512 126.114 59.2627 125.981 59.4348C125.847 59.6069 125.788 59.8255 125.817 60.0425C125.845 60.2595 125.959 60.4572 126.133 60.5921L128.098 62.1172L123.063 68.6063L121.098 67.0811C120.924 66.9463 120.704 66.8854 120.487 66.9117C120.27 66.9381 120.073 67.0496 119.939 67.2217C119.805 67.3938 119.746 67.6124 119.775 67.8294C119.803 68.0464 119.917 68.2441 120.091 68.379L123.367 70.9209C123.754 71.2215 124.045 71.6287 124.202 72.0914C124.36 72.5542 124.377 73.0518 124.253 73.5218C124.128 73.9917 123.866 74.4131 123.501 74.733C123.135 75.0529 122.682 75.2571 122.198 75.3198C121.714 75.3825 121.221 75.3011 120.781 75.0857C120.341 74.8703 119.973 74.5305 119.724 74.109C119.475 73.6875 119.355 73.2032 119.38 72.7167C119.406 72.2303 119.574 71.7635 119.865 71.3749Z" fill="black"/>
</g>
<g clip-path="url(#clip6_731_4029)">
<path d="M73.1164 13.2273L71.7405 12.1597C70.8716 11.4856 69.7731 11.1809 68.6866 11.3126C67.6001 11.4444 66.6146 12.0018 65.947 12.8624L59.905 20.6492C59.2374 21.5098 58.9422 22.6028 59.0845 23.688C59.2267 24.7732 59.7948 25.7615 60.6636 26.4357L62.0396 27.5033C61.6209 28.3534 61.511 29.3246 61.7286 30.2522C61.9462 31.1798 62.4779 32.0069 63.2336 32.5932C63.9893 33.1796 64.9225 33.4892 65.8751 33.4695C66.8277 33.4499 67.7411 33.1022 68.4606 32.4854L71.147 34.5698C71.4945 34.8394 71.9339 34.9613 72.3685 34.9086C72.8031 34.8559 73.1973 34.6329 73.4644 34.2887L82.5272 22.6084C82.7943 22.2642 82.9124 21.8269 82.8555 21.3929C82.7985 20.9588 82.5713 20.5635 82.2238 20.2938L79.5374 18.2094C79.9561 17.3593 80.066 16.3882 79.8484 15.4605C79.6308 14.5329 79.0991 13.7058 78.3434 13.1195C77.5877 12.5331 76.6545 12.2236 75.7019 12.2432C74.7493 12.2629 73.8359 12.6105 73.1164 13.2273ZM61.2155 21.666L67.2574 13.8791C67.6596 13.3651 68.2506 13.0324 68.9017 12.9535C69.5528 12.8745 70.2112 13.0557 70.7335 13.4575L72.1094 14.5251C71.6938 15.3756 71.5859 16.3457 71.8038 17.2721C72.0217 18.1985 72.5522 19.0248 73.306 19.6118L68.271 26.1009C67.5152 25.5166 66.583 25.208 65.6315 25.2271C64.68 25.2461 63.7671 25.5916 63.0465 26.2055L61.6706 25.1379C61.1516 24.7318 60.8126 24.139 60.7273 23.4887C60.6421 22.8385 60.8175 22.1833 61.2155 21.666ZM77.8142 17.86L77.789 17.8924C77.6555 18.0645 77.5965 18.2831 77.6249 18.5002C77.6534 18.7172 77.767 18.9149 77.9408 19.0497L81.2168 21.5916L72.1539 33.272L68.8779 30.7301C68.7922 30.6636 68.6944 30.6146 68.59 30.586C68.4855 30.5574 68.3767 30.5497 68.2696 30.5634C68.1626 30.577 68.0596 30.6118 67.9665 30.6656C67.8734 30.7194 67.7921 30.7913 67.7274 30.8769L67.7022 30.9094C67.3984 31.2876 66.9886 31.5669 66.5242 31.7123C66.0597 31.8576 65.5613 31.8625 65.0914 31.7264C64.6216 31.5903 64.2011 31.3193 63.8828 30.9472C63.5645 30.5751 63.3625 30.1186 63.3021 29.6349C63.2418 29.1512 63.3257 28.6618 63.5434 28.2281C63.7612 27.7944 64.103 27.4356 64.5261 27.1968C64.9492 26.958 65.4347 26.8498 65.9218 26.8857C66.4088 26.9216 66.8758 27.1001 67.2641 27.3987L70.5401 29.9406C70.7139 30.0755 70.9336 30.1364 71.1509 30.11C71.3682 30.0837 71.5653 29.9722 71.6988 29.8001C71.8323 29.628 71.8914 29.4094 71.8629 29.1924C71.8345 28.9753 71.7209 28.7776 71.5471 28.6428L69.5815 27.1177L74.6164 20.6286L76.582 22.1537C76.7558 22.2886 76.9755 22.3495 77.1928 22.3231C77.4101 22.2968 77.6072 22.1853 77.7407 22.0132C77.8742 21.8411 77.9333 21.6225 77.9048 21.4055C77.8764 21.1884 77.7628 20.9907 77.589 20.8559L74.3129 18.314C73.9256 18.0134 73.6349 17.6062 73.4773 17.1434C73.3197 16.6807 73.3022 16.1831 73.4271 15.7131C73.5519 15.2431 73.8135 14.8217 74.1791 14.5018C74.5446 14.1819 74.9977 13.9778 75.4816 13.9151C75.9654 13.8523 76.4584 13.9338 76.8986 14.1492C77.3388 14.3646 77.7066 14.7044 77.9558 15.1258C78.205 15.5473 78.3245 16.0317 78.2994 16.5181C78.2742 17.0046 78.1054 17.4714 77.8142 17.86Z" fill="black"/>
</g>
<path d="M74.4602 87.84C72.7828 87.84 71.1395 87.602 69.5302 87.126C67.9435 86.6273 66.6062 85.9473 65.5182 85.086L67.3882 81.652C68.2495 82.3547 69.2922 82.9213 70.5162 83.352C71.7628 83.7827 73.0548 83.998 74.3922 83.998C75.9562 83.998 77.1802 83.6693 78.0642 83.012C78.9708 82.3547 79.4242 81.4707 79.4242 80.36C79.4242 79.612 79.2315 78.9547 78.8462 78.388C78.4835 77.8213 77.8262 77.3907 76.8742 77.096C75.9448 76.8013 74.6642 76.654 73.0322 76.654H67.2862L68.5102 63.7H82.4842V67.406H70.1422L72.4542 65.298L71.5362 74.988L69.2242 72.914H74.0182C76.3755 72.914 78.2682 73.2313 79.6962 73.866C81.1468 74.478 82.2008 75.3393 82.8582 76.45C83.5382 77.538 83.8782 78.7847 83.8782 80.19C83.8782 81.5727 83.5382 82.842 82.8582 83.998C82.1782 85.154 81.1355 86.0833 79.7302 86.786C78.3475 87.4887 76.5908 87.84 74.4602 87.84Z" fill="black"/>
</g>
<defs>
<clipPath id="clip0_731_4029">
<rect width="150" height="150" fill="white"/>
</clipPath>
<clipPath id="clip1_731_4029">
<rect width="26.2826" height="26.5378" fill="white" transform="translate(97.7539 124.893) rotate(127.808)"/>
</clipPath>
<clipPath id="clip2_731_4029">
<rect width="26.2826" height="26.5378" fill="white" transform="translate(4.57422 85.8677) rotate(-52.1919)"/>
</clipPath>
<clipPath id="clip3_731_4029">
<rect width="26.2826" height="26.5378" fill="white" transform="translate(121.594 94.5127) rotate(127.808)"/>
</clipPath>
<clipPath id="clip4_731_4029">
<rect width="26.2826" height="26.5378" fill="white" transform="translate(28.4102 55.4858) rotate(-52.1919)"/>
</clipPath>
<clipPath id="clip5_731_4029">
<rect width="26.2826" height="26.5378" fill="white" transform="translate(145.43 64.1299) rotate(127.808)"/>
</clipPath>
<clipPath id="clip6_731_4029">
<rect width="26.2826" height="26.5378" fill="white" transform="translate(52.25 25.105) rotate(-52.1919)"/>
</clipPath>
</defs>
</svg>
