<svg width="236" height="226" viewBox="0 0 236 226" fill="none" xmlns="http://www.w3.org/2000/svg">
<rect x="137.648" y="170.347" width="39.3001" height="114.693" rx="4.5" transform="rotate(-180 137.648 170.347)" fill="#F6BE98" stroke="black"/>
<path d="M157.358 160.647L159.1 160.647C160.199 160.647 161.254 160.215 162.032 159.445C162.809 158.674 163.246 157.63 163.246 156.541L163.246 146.685C163.246 145.596 162.809 144.551 162.032 143.781C161.254 143.011 160.199 142.578 159.1 142.578L157.358 142.578C157.168 141.65 156.659 140.815 155.919 140.216C155.178 139.616 154.251 139.289 153.294 139.289C152.338 139.289 151.411 139.616 150.67 140.216C149.93 140.815 149.421 141.65 149.231 142.578L145.831 142.578C145.391 142.578 144.969 142.751 144.658 143.059C144.347 143.367 144.172 143.785 144.172 144.221L144.172 159.005C144.172 159.44 144.347 159.858 144.658 160.166C144.969 160.474 145.391 160.647 145.831 160.647L149.231 160.647C149.421 161.576 149.93 162.41 150.67 163.01C151.411 163.609 152.338 163.937 153.294 163.937C154.251 163.937 155.178 163.609 155.919 163.01C156.659 162.41 157.168 161.576 157.358 160.647V160.647ZM161.587 146.685L161.587 156.541C161.585 157.193 161.322 157.819 160.856 158.28C160.39 158.742 159.759 159.002 159.1 159.005L157.358 159.005C157.165 158.078 156.656 157.246 155.916 156.647C155.175 156.049 154.25 155.721 153.294 155.719L153.294 147.506C154.25 147.504 155.175 147.177 155.916 146.578C156.656 145.98 157.165 145.148 157.358 144.221L159.1 144.221C159.759 144.224 160.39 144.484 160.856 144.945C161.322 145.407 161.585 146.032 161.587 146.685V146.685ZM150.807 159.867L150.807 159.826C150.807 159.608 150.719 159.399 150.564 159.245C150.408 159.091 150.197 159.005 149.977 159.005L145.831 159.005L145.831 144.221L149.977 144.221C150.086 144.221 150.193 144.199 150.293 144.158C150.393 144.117 150.484 144.056 150.56 143.98C150.636 143.903 150.696 143.813 150.737 143.713C150.777 143.613 150.798 143.507 150.796 143.399L150.796 143.358C150.804 142.873 150.957 142.401 151.235 142.002C151.513 141.602 151.903 141.293 152.358 141.112C152.813 140.932 153.311 140.888 153.791 140.987C154.27 141.086 154.71 141.323 155.054 141.668C155.398 142.013 155.632 142.451 155.726 142.927C155.819 143.404 155.769 143.897 155.581 144.345C155.393 144.793 155.076 145.176 154.669 145.446C154.263 145.716 153.784 145.861 153.294 145.863L149.148 145.863C148.928 145.863 148.717 145.95 148.561 146.104C148.406 146.258 148.319 146.467 148.319 146.685C148.319 146.903 148.406 147.112 148.561 147.266C148.717 147.42 148.928 147.506 149.148 147.506L151.636 147.506L151.636 155.719L149.148 155.719C148.928 155.719 148.717 155.806 148.561 155.96C148.406 156.114 148.319 156.323 148.319 156.541C148.319 156.759 148.406 156.968 148.561 157.122C148.717 157.276 148.928 157.362 149.148 157.362L153.294 157.362C153.785 157.362 154.264 157.506 154.672 157.775C155.08 158.044 155.399 158.426 155.589 158.874C155.778 159.322 155.83 159.815 155.737 160.292C155.644 160.769 155.412 161.208 155.068 161.554C154.724 161.9 154.285 162.138 153.805 162.238C153.325 162.337 152.826 162.294 152.371 162.114C151.915 161.934 151.524 161.624 151.246 161.225C150.968 160.825 150.815 160.353 150.807 159.867V159.867Z" fill="black"/>
<path d="M78.2279 142.582L76.4864 142.582C75.3866 142.582 74.332 143.014 73.5543 143.784C72.7767 144.555 72.3398 145.599 72.3398 146.688L72.3398 156.544C72.3398 157.633 72.7767 158.678 73.5543 159.448C74.332 160.218 75.3866 160.651 76.4864 160.651L78.2279 160.651C78.4183 161.579 78.9268 162.414 79.6674 163.013C80.408 163.613 81.335 163.94 82.2915 163.94C83.248 163.94 84.1751 163.613 84.9157 163.013C85.6562 162.414 86.1648 161.579 86.3551 160.651L89.7553 160.651C90.1952 160.651 90.617 160.478 90.9281 160.17C91.2391 159.862 91.4139 159.444 91.4139 159.008L91.4139 144.224C91.4139 143.789 91.2391 143.371 90.9281 143.063C90.617 142.755 90.1952 142.582 89.7553 142.582L86.3551 142.582C86.1648 141.653 85.6562 140.819 84.9157 140.219C84.1751 139.62 83.248 139.292 82.2915 139.292C81.335 139.292 80.408 139.62 79.6674 140.219C78.9268 140.819 78.4183 141.653 78.2279 142.582V142.582ZM73.9985 156.544L73.9985 146.688C74.0012 146.036 74.2642 145.41 74.7302 144.949C75.1961 144.487 75.8274 144.227 76.4864 144.224L78.2279 144.224C78.4209 145.151 78.9303 145.983 79.6704 146.582C80.4105 147.18 81.3361 147.508 82.2915 147.51L82.2915 155.723C81.3361 155.725 80.4105 156.052 79.6704 156.651C78.9303 157.249 78.4209 158.082 78.2279 159.008L76.4864 159.008C75.8274 159.005 75.1962 158.745 74.7302 158.284C74.2642 157.822 74.0012 157.197 73.9985 156.544V156.544ZM84.7794 143.362L84.7794 143.403C84.7794 143.621 84.8668 143.83 85.0223 143.984C85.1779 144.138 85.3888 144.224 85.6087 144.224L89.7553 144.224L89.7553 159.008L85.6087 159.008C85.5003 159.008 85.393 159.03 85.2929 159.071C85.1929 159.112 85.1021 159.173 85.026 159.249C84.9498 159.326 84.8897 159.416 84.8491 159.516C84.8086 159.616 84.7884 159.722 84.7898 159.83L84.7898 159.871C84.7816 160.356 84.6291 160.828 84.3512 161.227C84.0734 161.627 83.6826 161.936 83.228 162.117C82.7733 162.297 82.275 162.341 81.7954 162.242C81.3158 162.143 80.8764 161.906 80.5322 161.561C80.1879 161.216 79.9543 160.778 79.8604 160.302C79.7666 159.825 79.8167 159.332 80.0046 158.884C80.1925 158.436 80.5097 158.053 80.9165 157.783C81.3234 157.513 81.8017 157.368 82.2915 157.366L86.438 157.366C86.658 157.366 86.8689 157.279 87.0245 157.125C87.18 156.971 87.2674 156.762 87.2674 156.544C87.2674 156.326 87.18 156.117 87.0245 155.963C86.8689 155.809 86.658 155.723 86.438 155.723L83.9501 155.723L83.9501 147.51L86.438 147.51C86.658 147.51 86.8689 147.423 87.0245 147.269C87.18 147.115 87.2674 146.906 87.2674 146.688C87.2674 146.47 87.18 146.261 87.0245 146.107C86.8689 145.953 86.658 145.867 86.438 145.867L82.2915 145.867C81.8012 145.867 81.3219 145.723 80.9137 145.454C80.5055 145.185 80.1867 144.803 79.9972 144.355C79.8078 143.907 79.7561 143.414 79.8488 142.937C79.9415 142.46 80.1744 142.021 80.5182 141.675C80.862 141.329 81.3014 141.091 81.7812 140.991C82.2611 140.892 82.76 140.935 83.2152 141.115C83.6705 141.295 84.0618 141.605 84.3401 142.004C84.6184 142.404 84.7713 142.876 84.7794 143.362V143.362Z" fill="black"/>
<path d="M157.569 122.03L159.311 122.03C160.41 122.03 161.465 121.598 162.243 120.828C163.02 120.057 163.457 119.013 163.457 117.924L163.457 108.068C163.457 106.979 163.02 105.934 162.243 105.164C161.465 104.394 160.41 103.961 159.311 103.961L157.569 103.961C157.379 103.033 156.87 102.198 156.129 101.599C155.389 100.999 154.462 100.672 153.505 100.672C152.549 100.672 151.622 100.999 150.881 101.599C150.141 102.198 149.632 103.033 149.442 103.961L146.042 103.961C145.602 103.961 145.18 104.134 144.869 104.442C144.558 104.75 144.383 105.168 144.383 105.604L144.383 120.388C144.383 120.823 144.558 121.241 144.869 121.549C145.18 121.857 145.602 122.03 146.042 122.03L149.442 122.03C149.632 122.959 150.141 123.793 150.881 124.393C151.622 124.992 152.549 125.32 153.505 125.32C154.462 125.32 155.389 124.992 156.129 124.393C156.87 123.793 157.379 122.959 157.569 122.03V122.03ZM161.798 108.068L161.798 117.924C161.796 118.576 161.533 119.202 161.067 119.663C160.601 120.125 159.969 120.385 159.311 120.388L157.569 120.388C157.376 119.461 156.867 118.628 156.126 118.03C155.386 117.432 154.461 117.104 153.505 117.102L153.505 108.889C154.461 108.887 155.386 108.56 156.126 107.961C156.867 107.363 157.376 106.53 157.569 105.604L159.311 105.604C159.969 105.606 160.601 105.867 161.067 106.328C161.533 106.79 161.796 107.415 161.798 108.068V108.068ZM151.017 121.25L151.017 121.209C151.017 120.991 150.93 120.782 150.775 120.628C150.619 120.474 150.408 120.388 150.188 120.388L146.042 120.388L146.042 105.604L150.188 105.604C150.297 105.604 150.404 105.582 150.504 105.541C150.604 105.5 150.695 105.439 150.771 105.363C150.847 105.286 150.907 105.196 150.948 105.096C150.988 104.996 151.008 104.89 151.007 104.782L151.007 104.741C151.015 104.256 151.168 103.784 151.446 103.385C151.723 102.985 152.114 102.676 152.569 102.495C153.024 102.315 153.522 102.271 154.001 102.37C154.481 102.469 154.92 102.706 155.265 103.051C155.609 103.396 155.843 103.834 155.936 104.31C156.03 104.786 155.98 105.279 155.792 105.727C155.604 106.176 155.287 106.559 154.88 106.829C154.474 107.099 153.995 107.244 153.505 107.246L149.359 107.246C149.139 107.246 148.928 107.333 148.772 107.487C148.617 107.641 148.53 107.85 148.53 108.068C148.53 108.286 148.617 108.494 148.772 108.649C148.928 108.803 149.139 108.889 149.359 108.889L151.847 108.889L151.847 117.102L149.359 117.102C149.139 117.102 148.928 117.189 148.772 117.343C148.617 117.497 148.53 117.706 148.53 117.924C148.53 118.142 148.617 118.35 148.772 118.504C148.928 118.659 149.139 118.745 149.359 118.745L153.505 118.745C153.996 118.745 154.475 118.889 154.883 119.158C155.291 119.427 155.61 119.809 155.8 120.257C155.989 120.705 156.041 121.198 155.948 121.675C155.855 122.152 155.623 122.591 155.279 122.937C154.935 123.283 154.495 123.521 154.016 123.621C153.536 123.72 153.037 123.677 152.582 123.497C152.126 123.317 151.735 123.007 151.457 122.608C151.178 122.208 151.026 121.736 151.017 121.25V121.25Z" fill="black"/>
<path d="M78.4349 103.968L76.6934 103.968C75.5937 103.968 74.539 104.4 73.7614 105.171C72.9837 105.941 72.5469 106.985 72.5469 108.074L72.5469 117.93C72.5469 119.02 72.9837 120.064 73.7614 120.834C74.539 121.604 75.5937 122.037 76.6934 122.037L78.4349 122.037C78.6253 122.965 79.1338 123.8 79.8744 124.4C80.615 124.999 81.5421 125.327 82.4985 125.327C83.455 125.327 84.3821 124.999 85.1227 124.4C85.8633 123.8 86.3718 122.965 86.5621 122.037L89.9623 122.037C90.4022 122.037 90.8241 121.864 91.1351 121.556C91.4462 121.248 91.6209 120.83 91.6209 120.394L91.6209 105.61C91.6209 105.175 91.4462 104.757 91.1351 104.449C90.8241 104.141 90.4022 103.968 89.9623 103.968L86.5621 103.968C86.3718 103.039 85.8633 102.205 85.1227 101.605C84.3821 101.006 83.455 100.678 82.4985 100.678C81.5421 100.678 80.615 101.006 79.8744 101.605C79.1338 102.205 78.6253 103.039 78.4349 103.968V103.968ZM74.2055 117.93L74.2055 108.074C74.2082 107.422 74.4712 106.797 74.9372 106.335C75.4032 105.874 76.0344 105.613 76.6934 105.61L78.4349 105.61C78.6279 106.537 79.1373 107.37 79.8774 107.968C80.6175 108.566 81.5432 108.894 82.4985 108.896L82.4985 117.109C81.5432 117.111 80.6175 117.438 79.8774 118.037C79.1373 118.635 78.6279 119.468 78.4349 120.394L76.6934 120.394C76.0344 120.392 75.4032 120.131 74.9372 119.67C74.4712 119.208 74.2082 118.583 74.2055 117.93V117.93ZM84.9865 104.748L84.9865 104.789C84.9865 105.007 85.0738 105.216 85.2294 105.37C85.3849 105.524 85.5958 105.61 85.8158 105.61L89.9623 105.61L89.9623 120.394L85.8158 120.394C85.7073 120.394 85.6 120.416 85.5 120.457C85.3999 120.499 85.3092 120.559 85.233 120.636C85.1568 120.712 85.0967 120.803 85.0562 120.902C85.0156 121.002 84.9955 121.108 84.9968 121.216L84.9968 121.257C84.9887 121.742 84.8361 122.214 84.5583 122.613C84.2804 123.013 83.8897 123.322 83.435 123.503C82.9803 123.683 82.482 123.727 82.0024 123.628C81.5228 123.529 81.0834 123.292 80.7392 122.947C80.395 122.602 80.1613 122.164 80.0674 121.688C79.9736 121.212 80.0237 120.719 80.2116 120.271C80.3995 119.823 80.7167 119.44 81.1236 119.169C81.5304 118.899 82.0087 118.754 82.4985 118.752L86.6451 118.752C86.865 118.752 87.076 118.665 87.2315 118.511C87.387 118.357 87.4744 118.148 87.4744 117.93C87.4744 117.713 87.387 117.504 87.2315 117.35C87.076 117.196 86.865 117.109 86.6451 117.109L84.1572 117.109L84.1572 108.896L86.6451 108.896C86.865 108.896 87.076 108.809 87.2315 108.655C87.387 108.501 87.4744 108.292 87.4744 108.074C87.4744 107.857 87.387 107.648 87.2315 107.494C87.076 107.34 86.865 107.253 86.6451 107.253L82.4985 107.253C82.0083 107.253 81.5289 107.11 81.1207 106.841C80.7126 106.572 80.3937 106.189 80.2042 105.741C80.0148 105.293 79.9632 104.8 80.0558 104.323C80.1485 103.847 80.3814 103.407 80.7252 103.061C81.069 102.715 81.5084 102.477 81.9883 102.378C82.4681 102.278 82.967 102.321 83.4223 102.501C83.8775 102.681 84.2689 102.991 84.5472 103.391C84.8255 103.79 84.9783 104.263 84.9865 104.748V104.748Z" fill="black"/>
<path d="M157.776 83.416L159.518 83.416C160.617 83.416 161.672 82.9833 162.45 82.2132C163.227 81.443 163.664 80.3985 163.664 79.3093L163.664 69.4534C163.664 68.3642 163.227 67.3197 162.45 66.5495C161.672 65.7794 160.617 65.3467 159.518 65.3467L157.776 65.3467C157.586 64.4184 157.077 63.5837 156.337 62.9842C155.596 62.3847 154.669 62.0573 153.712 62.0573C152.756 62.0573 151.829 62.3847 151.088 62.9842C150.348 63.5837 149.839 64.4184 149.649 65.3467L146.249 65.3467C145.809 65.3467 145.387 65.5198 145.076 65.8278C144.765 66.1359 144.59 66.5537 144.59 66.9894L144.59 81.7733C144.59 82.209 144.765 82.6268 145.076 82.9349C145.387 83.2429 145.809 83.416 146.249 83.416L149.649 83.416C149.839 84.3443 150.348 85.179 151.088 85.7785C151.829 86.378 152.756 86.7054 153.712 86.7054C154.669 86.7054 155.596 86.378 156.337 85.7785C157.077 85.179 157.586 84.3443 157.776 83.416V83.416ZM162.005 69.4534L162.005 79.3093C162.003 79.962 161.74 80.5872 161.274 81.0487C160.808 81.5102 160.177 81.7706 159.518 81.7733L157.776 81.7733C157.583 80.8466 157.074 80.0141 156.334 79.4157C155.593 78.8173 154.668 78.4897 153.712 78.488L153.712 70.2747C154.668 70.273 155.593 69.9453 156.334 69.347C157.074 68.7486 157.583 67.9161 157.776 66.9894L159.518 66.9894C160.177 66.9921 160.808 67.2525 161.274 67.714C161.74 68.1755 162.003 68.8007 162.005 69.4534V69.4534ZM151.224 82.6357L151.224 82.5947C151.224 82.3768 151.137 82.1679 150.982 82.0139C150.826 81.8599 150.615 81.7733 150.395 81.7733L146.249 81.7733L146.249 66.9894L150.395 66.9894C150.504 66.9894 150.611 66.9681 150.711 66.9267C150.811 66.8853 150.902 66.8246 150.978 66.7482C151.054 66.6718 151.114 66.5812 151.155 66.4816C151.195 66.382 151.215 66.2754 151.214 66.168L151.214 66.127C151.222 65.6419 151.375 65.17 151.653 64.7705C151.931 64.3709 152.321 64.0615 152.776 63.881C153.231 63.7005 153.729 63.6569 154.209 63.7557C154.688 63.8546 155.128 64.0914 155.472 64.4366C155.816 64.7817 156.05 65.2198 156.144 65.696C156.237 66.1721 156.187 66.6651 155.999 67.1131C155.811 67.5611 155.494 67.9443 155.087 68.2145C154.681 68.4847 154.202 68.6299 153.712 68.632L149.566 68.632C149.346 68.632 149.135 68.7186 148.979 68.8726C148.824 69.0266 148.737 69.2355 148.737 69.4534C148.737 69.6712 148.824 69.8801 148.979 70.0341C149.135 70.1882 149.346 70.2747 149.566 70.2747L152.054 70.2747L152.054 78.488L149.566 78.488C149.346 78.488 149.135 78.5745 148.979 78.7286C148.824 78.8826 148.737 79.0915 148.737 79.3093C148.737 79.5272 148.824 79.7361 148.979 79.8901C149.135 80.0441 149.346 80.1307 149.566 80.1307L153.712 80.1307C154.203 80.1307 154.682 80.2743 155.09 80.5432C155.498 80.8122 155.817 81.1946 156.007 81.6425C156.196 82.0903 156.248 82.5837 156.155 83.0605C156.062 83.5373 155.83 83.9763 155.486 84.3225C155.142 84.6687 154.703 84.9065 154.223 85.0062C153.743 85.1059 153.244 85.0629 152.789 84.8827C152.333 84.7025 151.942 84.393 151.664 83.9933C151.385 83.5935 151.233 83.1212 151.224 82.6357V82.6357Z" fill="black"/>
<path d="M78.642 65.3496L76.9004 65.3496C75.8007 65.3496 74.746 65.7823 73.9684 66.5524C73.1908 67.3226 72.7539 68.3671 72.7539 69.4563L72.7539 79.3123C72.7539 80.4014 73.1908 81.446 73.9684 82.2161C74.746 82.9863 75.8007 83.4189 76.9004 83.4189L78.642 83.4189C78.8323 84.3473 79.3409 85.1819 80.0814 85.7814C80.822 86.3809 81.7491 86.7084 82.7056 86.7084C83.6621 86.7084 84.5891 86.3809 85.3297 85.7814C86.0703 85.1819 86.5788 84.3473 86.7692 83.4189L90.1693 83.4189C90.6092 83.4189 91.0311 83.2459 91.3421 82.9378C91.6532 82.6297 91.8279 82.2119 91.8279 81.7763L91.8279 66.9923C91.8279 66.5566 91.6532 66.1388 91.3421 65.8308C91.0311 65.5227 90.6092 65.3496 90.1693 65.3496L86.7692 65.3496C86.5788 64.4213 86.0703 63.5867 85.3297 62.9872C84.5891 62.3877 83.6621 62.0602 82.7056 62.0602C81.7491 62.0602 80.822 62.3877 80.0814 62.9872C79.3409 63.5867 78.8323 64.4213 78.642 65.3496V65.3496ZM74.4125 79.3123L74.4125 69.4563C74.4152 68.8036 74.6782 68.1785 75.1442 67.717C75.6102 67.2555 76.2414 66.995 76.9004 66.9923L78.642 66.9923C78.835 67.919 79.3444 68.7516 80.0845 69.3499C80.8246 69.9483 81.7502 70.2759 82.7056 70.2776L82.7056 78.4909C81.7502 78.4927 80.8246 78.8203 80.0845 79.4186C79.3444 80.017 78.835 80.8496 78.642 81.7763L76.9004 81.7763C76.2414 81.7736 75.6102 81.5131 75.1442 81.0516C74.6782 80.5901 74.4152 79.9649 74.4125 79.3123V79.3123ZM85.1935 66.1299L85.1935 66.171C85.1935 66.3888 85.2809 66.5977 85.4364 66.7517C85.5919 66.9058 85.8029 66.9923 86.0228 66.9923L90.1693 66.9923L90.1693 81.7763L86.0228 81.7763C85.9144 81.7763 85.807 81.7976 85.707 81.839C85.607 81.8804 85.5162 81.941 85.44 82.0174C85.3638 82.0938 85.3037 82.1845 85.2632 82.2841C85.2227 82.3837 85.2025 82.4902 85.2039 82.5976L85.2039 82.6387C85.1957 83.1237 85.0431 83.5956 84.7653 83.9952C84.4875 84.3947 84.0967 84.7041 83.642 84.8846C83.1874 85.0652 82.689 85.1087 82.2094 85.0099C81.7299 84.9111 81.2904 84.6742 80.9462 84.3291C80.602 83.9839 80.3683 83.5458 80.2745 83.0697C80.1806 82.5935 80.2308 82.1005 80.4187 81.6525C80.6065 81.2045 80.9238 80.8213 81.3306 80.5511C81.7374 80.2809 82.2157 80.1357 82.7056 80.1336L86.8521 80.1336C87.0721 80.1336 87.283 80.0471 87.4385 79.893C87.594 79.739 87.6814 79.5301 87.6814 79.3123C87.6814 79.0944 87.594 78.8855 87.4385 78.7315C87.283 78.5775 87.0721 78.4909 86.8521 78.4909L84.3642 78.4909L84.3642 70.2776L86.8521 70.2776C87.0721 70.2776 87.283 70.1911 87.4385 70.0371C87.594 69.883 87.6814 69.6741 87.6814 69.4563C87.6814 69.2385 87.594 69.0295 87.4385 68.8755C87.283 68.7215 87.0721 68.635 86.8521 68.635L82.7056 68.635C82.2153 68.6349 81.736 68.4914 81.3278 68.2224C80.9196 67.9534 80.6007 67.571 80.4113 67.1231C80.2218 66.6753 80.1702 66.182 80.2629 65.7052C80.3555 65.2283 80.5884 64.7893 80.9322 64.4431C81.276 64.0969 81.7154 63.8591 82.1953 63.7594C82.6751 63.6598 83.174 63.7027 83.6293 63.8829C84.0846 64.0632 84.4759 64.3726 84.7542 64.7723C85.0325 65.1721 85.1853 65.6444 85.1935 66.1299V66.1299Z" fill="black"/>
<path d="M100.929 122.293V117.973L117.489 96.325H124.161L107.841 117.973L104.721 117.013H131.361V122.293H100.929ZM119.361 129.925V122.293L119.553 117.013V110.245H125.409V129.925H119.361Z" fill="black"/>
</svg>
