<svg width="150" height="150" viewBox="0 0 150 150" fill="none" xmlns="http://www.w3.org/2000/svg">
<rect x="120.692" y="114.84" width="39.3001" height="114.693" rx="4.5" transform="rotate(150 120.692 114.84)" fill="#FFDF7F" stroke="black"/>
<g clip-path="url(#clip0_731_4033)">
<path d="M132.912 96.5887L134.42 95.7179C135.373 95.1681 136.07 94.266 136.358 93.2103C136.647 92.1545 136.503 91.0314 135.958 90.0882L131.03 81.5527C130.486 80.6094 129.585 79.9233 128.526 79.6451C127.468 79.367 126.338 79.5196 125.386 80.0695L123.878 80.9402C123.249 80.2314 122.391 79.7629 121.45 79.614C120.509 79.4651 119.542 79.6451 118.714 80.1233C117.885 80.6015 117.246 81.3487 116.905 82.2382C116.563 83.1276 116.54 84.1047 116.839 85.0038L113.895 86.7039C113.514 86.9239 113.235 87.2847 113.119 87.707C113.004 88.1293 113.062 88.5785 113.279 88.9558L120.671 101.759C120.889 102.136 121.25 102.411 121.673 102.522C122.096 102.633 122.548 102.572 122.929 102.352L125.874 100.652C126.503 101.361 127.361 101.83 128.302 101.979C129.243 102.127 130.209 101.947 131.038 101.469C131.866 100.991 132.505 100.244 132.847 99.3544C133.188 98.4649 133.212 97.4879 132.912 96.5887ZM129.594 82.382L134.522 90.9175C134.846 91.4841 134.93 92.157 134.758 92.7897C134.585 93.4223 134.168 93.9635 133.599 94.2954L132.091 95.1661C131.46 94.4601 130.603 93.9937 129.663 93.8456C128.723 93.6975 127.757 93.8766 126.929 94.3527L122.822 87.2398C123.649 86.7606 124.287 86.0141 124.628 85.1258C124.97 84.2376 124.995 83.2619 124.699 82.3628L126.207 81.4921C126.779 81.1649 127.456 81.0749 128.09 81.2415C128.725 81.4082 129.265 81.8181 129.594 82.382ZM126.848 99.1887L126.828 99.1532C126.719 98.9645 126.539 98.8273 126.327 98.7717C126.115 98.716 125.889 98.7466 125.699 98.8565L122.108 100.93L114.716 88.1265L118.307 86.0532C118.401 85.999 118.483 85.9269 118.549 85.841C118.615 85.7552 118.663 85.6573 118.691 85.553C118.719 85.4487 118.726 85.3402 118.711 85.2337C118.696 85.1272 118.66 85.0248 118.605 84.9325L118.585 84.8969C118.349 84.4728 118.246 83.9878 118.286 83.5029C118.327 83.0179 118.511 82.5546 118.814 82.1709C119.118 81.7873 119.528 81.5003 119.993 81.3462C120.457 81.192 120.956 81.1774 121.427 81.3042C121.898 81.431 122.319 81.6935 122.638 82.059C122.958 82.4244 123.161 82.8764 123.222 83.3583C123.283 83.8403 123.2 84.3307 122.983 84.7681C122.766 85.2055 122.424 85.5705 122.001 85.8172L118.41 87.8905C118.22 88.0005 118.08 88.1809 118.022 88.392C117.965 88.6032 117.994 88.8278 118.102 89.0164C118.211 89.2051 118.392 89.3423 118.603 89.3979C118.815 89.4536 119.041 89.423 119.231 89.3131L121.386 88.0691L125.493 95.1821L123.338 96.426C123.148 96.536 123.008 96.7164 122.95 96.9276C122.893 97.1387 122.922 97.3633 123.03 97.552C123.139 97.7406 123.32 97.8778 123.531 97.9335C123.743 97.9891 123.969 97.9586 124.159 97.8486L127.75 95.7753C128.175 95.5303 128.662 95.4149 129.15 95.4437C129.638 95.4726 130.105 95.6443 130.493 95.9375C130.881 96.2306 131.173 96.632 131.331 97.0913C131.489 97.5505 131.507 98.0472 131.382 98.5189C131.257 98.9906 130.996 99.4163 130.63 99.7425C130.264 100.069 129.811 100.281 129.326 100.353C128.842 100.424 128.348 100.352 127.907 100.145C127.467 99.9377 127.098 99.6051 126.848 99.1887Z" fill="black"/>
</g>
<g clip-path="url(#clip1_731_4033)">
<path d="M55.3534 120.508L53.8452 121.379C52.8928 121.929 52.1958 122.831 51.9074 123.886C51.619 124.942 51.763 126.065 52.3075 127.008L57.2355 135.544C57.7801 136.487 58.6807 137.173 59.7392 137.452C60.7978 137.73 61.9275 137.577 62.8799 137.027L64.3881 136.156C65.0171 136.865 65.8748 137.334 66.8159 137.483C67.757 137.632 68.7237 137.452 69.552 136.973C70.3803 136.495 71.0195 135.748 71.3611 134.859C71.7027 133.969 71.7258 132.992 71.4265 132.093L74.3711 130.393C74.752 130.173 75.0309 129.812 75.1462 129.39C75.2615 128.967 75.204 128.518 74.9861 128.141L67.5942 115.338C67.3763 114.96 67.0161 114.686 66.5927 114.575C66.1693 114.463 65.7174 114.524 65.3364 114.744L62.3918 116.444C61.7628 115.736 60.9051 115.267 59.964 115.118C59.0229 114.969 58.0562 115.149 57.2279 115.627C56.3996 116.106 55.7604 116.853 55.4188 117.742C55.0772 118.632 55.0541 119.609 55.3534 120.508ZM58.6719 134.715L53.744 126.179C53.42 125.613 53.3352 124.94 53.508 124.307C53.6808 123.674 54.0972 123.133 54.6666 122.801L56.1748 121.931C56.8052 122.637 57.6627 123.103 58.6028 123.251C59.5429 123.399 60.5084 123.22 61.3366 122.744L65.4433 129.857C64.6168 130.336 63.9789 131.083 63.6372 131.971C63.2954 132.859 63.2705 133.835 63.5668 134.734L62.0585 135.605C61.4865 135.932 60.8096 136.022 60.1753 135.855C59.541 135.688 59.0006 135.279 58.6719 134.715ZM61.4174 117.908L61.4379 117.944C61.5468 118.132 61.7269 118.269 61.9386 118.325C62.1503 118.381 62.3763 118.35 62.5668 118.24L66.1578 116.167L73.5497 128.97L69.9587 131.043C69.8648 131.098 69.7825 131.17 69.7166 131.256C69.6507 131.342 69.6024 131.439 69.5746 131.544C69.5469 131.648 69.5401 131.756 69.5548 131.863C69.5695 131.97 69.6053 132.072 69.6602 132.164L69.6807 132.2C69.9162 132.624 70.02 133.109 69.9791 133.594C69.9383 134.079 69.7546 134.542 69.4511 134.926C69.1476 135.309 68.7378 135.596 68.2731 135.751C67.8084 135.905 67.3094 135.919 66.8387 135.793C66.368 135.666 65.9466 135.403 65.6272 135.038C65.3079 134.672 65.1048 134.22 65.0435 133.738C64.9822 133.256 65.0654 132.766 65.2826 132.329C65.4998 131.891 65.8414 131.526 66.2646 131.279L69.8556 129.206C70.0461 129.096 70.1855 128.916 70.2432 128.705C70.3008 128.494 70.2721 128.269 70.1631 128.08C70.0542 127.892 69.8741 127.754 69.6624 127.699C69.4507 127.643 69.2248 127.674 69.0343 127.784L66.8797 129.028L62.773 121.915L64.9276 120.671C65.1181 120.561 65.2575 120.38 65.3152 120.169C65.3729 119.958 65.3441 119.733 65.2352 119.545C65.1262 119.356 64.9461 119.219 64.7344 119.163C64.5227 119.108 64.2968 119.138 64.1063 119.248L60.5153 121.321C60.0907 121.566 59.6038 121.682 59.1158 121.653C58.6278 121.624 58.1605 121.452 57.7724 121.159C57.3844 120.866 57.0931 120.465 56.9349 120.005C56.7768 119.546 56.7589 119.049 56.8836 118.578C57.0082 118.106 57.2699 117.68 57.6356 117.354C58.0013 117.028 58.4549 116.816 58.9392 116.744C59.4236 116.673 59.9172 116.745 60.3581 116.952C60.799 117.159 61.1675 117.492 61.4174 117.908Z" fill="black"/>
</g>
<g clip-path="url(#clip2_731_4033)">
<path d="M113.787 63.0418L115.295 62.1711C116.248 61.6212 116.945 60.7192 117.233 59.6634C117.522 58.6076 117.378 57.4846 116.833 56.5413L111.905 48.0058C111.361 47.0626 110.46 46.3764 109.401 46.0982C108.343 45.8201 107.213 45.9727 106.261 46.5226L104.753 47.3934C104.124 46.6846 103.266 46.216 102.325 46.0671C101.384 45.9183 100.417 46.0982 99.5886 46.5764C98.7603 47.0547 98.1212 47.8018 97.7796 48.6913C97.4379 49.5807 97.4148 50.5578 97.7142 51.457L94.7696 53.157C94.3886 53.377 94.1098 53.7378 93.9944 54.1601C93.8791 54.5824 93.9367 55.0316 94.1545 55.4089L101.546 68.2122C101.764 68.5895 102.125 68.864 102.548 68.9753C102.971 69.0865 103.423 69.0255 103.804 68.8055L106.749 67.1054C107.378 67.8142 108.236 68.2828 109.177 68.4317C110.118 68.5805 111.084 68.4006 111.913 67.9224C112.741 67.4441 113.38 66.697 113.722 65.8075C114.063 64.9181 114.087 63.941 113.787 63.0418ZM110.469 48.8351L115.397 57.3706C115.721 57.9372 115.805 58.6101 115.633 59.2428C115.46 59.8755 115.043 60.4166 114.474 60.7485L112.966 61.6193C112.335 60.9132 111.478 60.4469 110.538 60.2987C109.598 60.1506 108.632 60.3297 107.804 60.8059L103.697 53.6929C104.524 53.2137 105.162 52.4672 105.503 51.579C105.845 50.6907 105.87 49.715 105.574 48.816L107.082 47.9452C107.654 47.618 108.331 47.528 108.965 47.6947C109.6 47.8613 110.14 48.2713 110.469 48.8351ZM107.723 65.6419L107.703 65.6063C107.594 65.4177 107.414 65.2804 107.202 65.2248C106.99 65.1692 106.764 65.1997 106.574 65.3097L102.983 67.3829L95.5909 54.5796L99.1819 52.5064C99.2758 52.4522 99.3581 52.38 99.424 52.2942C99.49 52.2083 99.5382 52.1104 99.566 52.0061C99.5938 51.9019 99.6005 51.7933 99.5858 51.6868C99.5711 51.5803 99.5353 51.4779 99.4804 51.3856L99.4599 51.35C99.2244 50.9259 99.1206 50.4409 99.1615 49.956C99.2023 49.4711 99.386 49.0077 99.6895 48.6241C99.993 48.2404 100.403 47.9535 100.868 47.7993C101.332 47.6451 101.831 47.6305 102.302 47.7573C102.773 47.8841 103.194 48.1467 103.513 48.5121C103.833 48.8775 104.036 49.3295 104.097 49.8115C104.158 50.2934 104.075 50.7838 103.858 51.2212C103.641 51.6587 103.299 52.0236 102.876 52.2703L99.285 54.3436C99.0945 54.4536 98.9551 54.634 98.8975 54.8451C98.8398 55.0563 98.8686 55.2809 98.9775 55.4696C99.0864 55.6582 99.2665 55.7954 99.4782 55.8511C99.6899 55.9067 99.9159 55.8762 100.106 55.7662L102.261 54.5222L106.368 61.6352L104.213 62.8791C104.023 62.9891 103.883 63.1695 103.825 63.3807C103.768 63.5918 103.797 63.8164 103.905 64.0051C104.014 64.1937 104.195 64.331 104.406 64.3866C104.618 64.4422 104.844 64.4117 105.034 64.3017L108.625 62.2285C109.05 61.9834 109.537 61.868 110.025 61.8969C110.513 61.9257 110.98 62.0975 111.368 62.3906C111.756 62.6837 112.048 63.0851 112.206 63.5444C112.364 64.0037 112.382 64.5003 112.257 64.972C112.132 65.4437 111.871 65.8694 111.505 66.1957C111.139 66.5219 110.686 66.7341 110.201 66.8057C109.717 66.8772 109.223 66.805 108.782 66.5979C108.342 66.3908 107.973 66.0582 107.723 65.6419Z" fill="black"/>
</g>
<g clip-path="url(#clip3_731_4033)">
<path d="M36.2206 86.9626L34.7124 87.8333C33.76 88.3832 33.063 89.2852 32.7746 90.341C32.4862 91.3968 32.6302 92.5198 33.1747 93.4631L38.1027 101.999C38.6473 102.942 39.5479 103.628 40.6064 103.906C41.6649 104.184 42.7947 104.032 43.7471 103.482L45.2553 102.611C45.8843 103.32 46.742 103.788 47.6831 103.937C48.6242 104.086 49.5908 103.906 50.4192 103.428C51.2475 102.95 51.8866 102.203 52.2283 101.313C52.5699 100.424 52.593 99.4466 52.2936 98.5474L55.2383 96.8474C55.6192 96.6274 55.898 96.2666 56.0134 95.8443C56.1287 95.422 56.0712 94.9728 55.8533 94.5955L48.4613 81.7922C48.2435 81.4149 47.8833 81.1404 47.4599 81.0291C47.0365 80.9179 46.5846 80.9789 46.2036 81.1989L43.259 82.899C42.63 82.1902 41.7723 81.7216 40.8312 81.5727C39.89 81.4238 38.9234 81.6038 38.0951 82.082C37.2667 82.5603 36.6276 83.3074 36.286 84.1969C35.9444 85.0863 35.9213 86.0634 36.2206 86.9626ZM39.5391 101.169L34.6111 92.6338C34.2872 92.0672 34.2024 91.3943 34.3752 90.7616C34.548 90.1289 34.9644 89.5878 35.5337 89.2559L37.042 88.3851C37.6724 89.0912 38.5299 89.5575 39.47 89.7057C40.4101 89.8538 41.3755 89.6747 42.2038 89.1985L46.3105 96.3115C45.4839 96.7907 44.8461 97.5372 44.5044 98.4254C44.1626 99.3137 44.1377 100.289 44.4339 101.188L42.9257 102.059C42.3537 102.386 41.6768 102.476 41.0425 102.31C40.4082 102.143 39.8678 101.733 39.5391 101.169ZM42.2845 84.3625L42.3051 84.3981C42.414 84.5867 42.5941 84.724 42.8058 84.7796C43.0175 84.8352 43.2435 84.8047 43.4339 84.6947L47.0249 82.6215L54.4169 95.4248L50.8259 97.498C50.732 97.5522 50.6497 97.6244 50.5838 97.7102C50.5178 97.7961 50.4696 97.894 50.4418 97.9983C50.414 98.1025 50.4073 98.2111 50.422 98.3176C50.4367 98.4241 50.4725 98.5265 50.5274 98.6188L50.5479 98.6544C50.7834 99.0785 50.8872 99.5635 50.8463 100.048C50.8055 100.533 50.6218 100.997 50.3183 101.38C50.0148 101.764 49.605 102.051 49.1403 102.205C48.6755 102.359 48.1766 102.374 47.7059 102.247C47.2352 102.12 46.8138 101.858 46.4944 101.492C46.1751 101.127 45.972 100.675 45.9107 100.193C45.8494 99.711 45.9326 99.2206 46.1498 98.7831C46.367 98.3457 46.7086 97.9808 47.1318 97.7341L50.7228 95.6608C50.9133 95.5508 51.0527 95.3704 51.1104 95.1592C51.168 94.9481 51.1392 94.7235 51.0303 94.5348C50.9214 94.3462 50.7413 94.209 50.5296 94.1533C50.3179 94.0977 50.0919 94.1282 49.9015 94.2382L47.7469 95.4822L43.6402 88.3692L45.7948 87.1253C45.9853 87.0153 46.1247 86.8349 46.1824 86.6237C46.24 86.4126 46.2113 86.188 46.1023 85.9993C45.9934 85.8107 45.8133 85.6734 45.6016 85.6178C45.3899 85.5622 45.164 85.5927 44.9735 85.7027L41.3825 87.7759C40.9578 88.021 40.471 88.1364 39.983 88.1075C39.495 88.0787 39.0276 87.9069 38.6396 87.6138C38.2516 87.3207 37.9603 86.9193 37.8021 86.46C37.644 86.0007 37.6261 85.5041 37.7508 85.0324C37.8754 84.5607 38.1371 84.135 38.5028 83.8087C38.8685 83.4825 39.322 83.2703 39.8064 83.1987C40.2908 83.1272 40.7844 83.1994 41.2253 83.4065C41.6662 83.6136 42.0347 83.9462 42.2845 84.3625Z" fill="black"/>
</g>
<g clip-path="url(#clip4_731_4033)">
<path d="M94.6544 29.4969L96.1626 28.6261C97.115 28.0763 97.812 27.1742 98.1004 26.1185C98.3888 25.0627 98.2448 23.9396 97.7003 22.9964L92.7723 14.4609C92.2277 13.5176 91.3271 12.8315 90.2686 12.5533C89.2101 12.2752 88.0803 12.4278 87.1279 12.9777L85.6197 13.8484C84.9907 13.1396 84.133 12.6711 83.1919 12.5222C82.2508 12.3733 81.2842 12.5533 80.4558 13.0315C79.6275 13.5097 78.9884 14.2569 78.6467 15.1464C78.3051 16.0358 78.282 17.0129 78.5814 17.912L75.6367 19.6121C75.2558 19.8321 74.977 20.1929 74.8616 20.6152C74.7463 21.0375 74.8038 21.4867 75.0217 21.864L82.4137 34.6673C82.6315 35.0446 82.9917 35.3191 83.4151 35.4303C83.8385 35.5416 84.2904 35.4805 84.6714 35.2606L87.616 33.5605C88.245 34.2693 89.1027 34.7379 90.0438 34.8867C90.985 35.0356 91.9516 34.8557 92.7799 34.3775C93.6083 33.8992 94.2474 33.1521 94.589 32.2626C94.9306 31.3731 94.9537 30.3961 94.6544 29.4969ZM91.3359 15.2902L96.2639 23.8257C96.5878 24.3923 96.6726 25.0652 96.4998 25.6979C96.327 26.3305 95.9106 26.8717 95.3413 27.2036L93.833 28.0743C93.2026 27.3683 92.3451 26.9019 91.405 26.7538C90.4649 26.6057 89.4995 26.7848 88.6712 27.261L84.5645 20.148C85.3911 19.6688 86.0289 18.9223 86.3706 18.034C86.7124 17.1458 86.7373 16.1701 86.4411 15.271L87.9493 14.4003C88.5213 14.0731 89.1982 13.9831 89.8325 14.1497C90.4668 14.3164 91.0072 14.7263 91.3359 15.2902ZM88.5905 32.0969L88.5699 32.0614C88.461 31.8727 88.2809 31.7355 88.0692 31.6799C87.8575 31.6242 87.6315 31.6548 87.4411 31.7647L83.8501 33.838L76.4581 21.0347L80.0491 18.9614C80.143 18.9072 80.2253 18.8351 80.2912 18.7492C80.3572 18.6634 80.4054 18.5655 80.4332 18.4612C80.461 18.3569 80.4677 18.2484 80.453 18.1419C80.4383 18.0354 80.4025 17.933 80.3476 17.8407L80.3271 17.8051C80.0916 17.381 79.9878 16.896 80.0287 16.4111C80.0695 15.9261 80.2532 15.4628 80.5567 15.0791C80.8602 14.6955 81.27 14.4086 81.7347 14.2544C82.1995 14.1002 82.6984 14.0856 83.1691 14.2124C83.6398 14.3392 84.0612 14.6017 84.3806 14.9672C84.6999 15.3326 84.903 15.7846 84.9643 16.2665C85.0256 16.7485 84.9424 17.2389 84.7252 17.6763C84.508 18.1137 84.1664 18.4787 83.7432 18.7254L80.1522 20.7987C79.9617 20.9087 79.8223 21.0891 79.7646 21.3002C79.707 21.5114 79.7358 21.736 79.8447 21.9246C79.9536 22.1133 80.1337 22.2505 80.3454 22.3061C80.5571 22.3618 80.7831 22.3312 80.9735 22.2213L83.1281 20.9773L87.2348 28.0903L85.0802 29.3342C84.8897 29.4442 84.7503 29.6246 84.6926 29.8358C84.635 30.0469 84.6637 30.2715 84.7727 30.4602C84.8816 30.6488 85.0617 30.786 85.2734 30.8417C85.4851 30.8973 85.711 30.8668 85.9015 30.7568L89.4925 28.6835C89.9172 28.4385 90.404 28.3231 90.892 28.3519C91.38 28.3808 91.8474 28.5525 92.2354 28.8457C92.6234 29.1388 92.9147 29.5402 93.0729 29.9995C93.231 30.4587 93.2489 30.9554 93.1242 31.4271C92.9996 31.8988 92.7379 32.3245 92.3722 32.6507C92.0065 32.977 91.553 33.1892 91.0686 33.2608C90.5842 33.3323 90.0906 33.26 89.6497 33.053C89.2088 32.8459 88.8403 32.5133 88.5905 32.0969Z" fill="black"/>
</g>
<g clip-path="url(#clip5_731_4033)">
<path d="M17.0956 53.4152L15.5874 54.286C14.635 54.8358 13.938 55.7379 13.6496 56.7936C13.3612 57.8494 13.5052 58.9725 14.0497 59.9157L18.9777 68.4512C19.5223 69.3945 20.4229 70.0806 21.4814 70.3588C22.5399 70.6369 23.6697 70.4843 24.6221 69.9344L26.1303 69.0637C26.7593 69.7725 27.617 70.241 28.5581 70.3899C29.4992 70.5388 30.4658 70.3589 31.2942 69.8806C32.1225 69.4024 32.7616 68.6552 33.1033 67.7657C33.4449 66.8763 33.468 65.8992 33.1686 65.0001L36.1133 63.3C36.4942 63.08 36.773 62.7192 36.8884 62.2969C37.0037 61.8746 36.9462 61.4254 36.7283 61.0481L29.3363 48.2448C29.1185 47.8675 28.7583 47.593 28.3349 47.4818C27.9115 47.3705 27.4596 47.4316 27.0786 47.6515L24.134 49.3516C23.505 48.6428 22.6473 48.1743 21.7062 48.0254C20.765 47.8765 19.7984 48.0564 18.9701 48.5346C18.1417 49.0129 17.5026 49.76 17.161 50.6495C16.8194 51.539 16.7963 52.5161 17.0956 53.4152ZM20.4141 67.6219L15.4861 59.0864C15.1622 58.5198 15.0774 57.8469 15.2502 57.2142C15.423 56.5816 15.8394 56.0404 16.4087 55.7086L17.917 54.8378C18.5474 55.5438 19.4049 56.0102 20.345 56.1583C21.2851 56.3064 22.2505 56.1273 23.0788 55.6512L27.1855 62.7641C26.3589 63.2433 25.7211 63.9898 25.3794 64.8781C25.0376 65.7663 25.0127 66.742 25.3089 67.6411L23.8007 68.5118C23.2287 68.839 22.5518 68.929 21.9175 68.7624C21.2832 68.5957 20.7428 68.1858 20.4141 67.6219ZM23.1595 50.8152L23.1801 50.8507C23.289 51.0394 23.4691 51.1766 23.6808 51.2322C23.8925 51.2879 24.1185 51.2573 24.3089 51.1474L27.8999 49.0741L35.2919 61.8774L31.7009 63.9507C31.607 64.0049 31.5247 64.077 31.4588 64.1629C31.3928 64.2487 31.3446 64.3467 31.3168 64.4509C31.289 64.5552 31.2823 64.6637 31.297 64.7702C31.3117 64.8768 31.3475 64.9791 31.4024 65.0714L31.4229 65.107C31.6584 65.5312 31.7622 66.0161 31.7213 66.501C31.6805 66.986 31.4968 67.4493 31.1933 67.833C30.8898 68.2166 30.48 68.5036 30.0153 68.6578C29.5505 68.8119 29.0516 68.8266 28.5809 68.6998C28.1102 68.573 27.6888 68.3104 27.3694 67.945C27.0501 67.5795 26.847 67.1275 26.7857 66.6456C26.7244 66.1636 26.8076 65.6732 27.0248 65.2358C27.242 64.7984 27.5836 64.4334 28.0068 64.1867L31.5978 62.1134C31.7883 62.0035 31.9277 61.823 31.9854 61.6119C32.043 61.4007 32.0142 61.1761 31.9053 60.9875C31.7964 60.7988 31.6163 60.6616 31.4046 60.606C31.1929 60.5503 30.9669 60.5809 30.7765 60.6908L28.6219 61.9348L24.5152 54.8219L26.6698 53.5779C26.8603 53.4679 26.9997 53.2875 27.0574 53.0764C27.115 52.8652 27.0863 52.6406 26.9773 52.4519C26.8684 52.2633 26.6883 52.1261 26.4766 52.0704C26.2649 52.0148 26.039 52.0453 25.8485 52.1553L22.2575 54.2286C21.8328 54.4737 21.346 54.589 20.858 54.5602C20.37 54.5313 19.9026 54.3596 19.5146 54.0664C19.1266 53.7733 18.8353 53.3719 18.6771 52.9127C18.519 52.4534 18.5011 51.9567 18.6258 51.485C18.7504 51.0133 19.0121 50.5876 19.3778 50.2614C19.7435 49.9351 20.197 49.7229 20.6814 49.6514C21.1658 49.5798 21.6594 49.6521 22.1003 49.8591C22.5412 50.0662 22.9097 50.3988 23.1595 50.8152Z" fill="black"/>
</g>
<path d="M73.8333 87.4995V65.3995L75.7713 67.4055H68.8013V63.6995H78.2533V87.4995H73.8333Z" fill="black"/>
<defs>
<clipPath id="clip0_731_4033">
<rect width="26.2826" height="26.5378" fill="white" transform="translate(129.797 72.7812) rotate(60)"/>
</clipPath>
<clipPath id="clip1_731_4033">
<rect width="26.2826" height="26.5378" fill="white" transform="translate(58.4688 144.315) rotate(-120)"/>
</clipPath>
<clipPath id="clip2_731_4033">
<rect width="26.2826" height="26.5378" fill="white" transform="translate(110.672 39.2344) rotate(60)"/>
</clipPath>
<clipPath id="clip3_731_4033">
<rect width="26.2826" height="26.5378" fill="white" transform="translate(39.3359 110.77) rotate(-120)"/>
</clipPath>
<clipPath id="clip4_731_4033">
<rect width="26.2826" height="26.5378" fill="white" transform="translate(91.5391 5.68945) rotate(60)"/>
</clipPath>
<clipPath id="clip5_731_4033">
<rect width="26.2826" height="26.5378" fill="white" transform="translate(20.2109 77.2227) rotate(-120)"/>
</clipPath>
</defs>
</svg>
