<svg width="201" height="272" viewBox="0 0 201 272" fill="none" xmlns="http://www.w3.org/2000/svg">
<rect x="120.148" y="193.347" width="39.3001" height="114.693" rx="4.5" transform="rotate(-180 120.148 193.347)" fill="#F6BE98" stroke="black"/>
<path d="M139.854 183.647L141.596 183.647C142.695 183.647 143.75 183.215 144.528 182.445C145.305 181.674 145.742 180.63 145.742 179.541L145.742 169.685C145.742 168.596 145.305 167.551 144.528 166.781C143.75 166.011 142.695 165.578 141.596 165.578L139.854 165.578C139.664 164.65 139.155 163.815 138.415 163.216C137.674 162.616 136.747 162.289 135.791 162.289C134.834 162.289 133.907 162.616 133.166 163.216C132.426 163.815 131.917 164.65 131.727 165.578L128.327 165.578C127.887 165.578 127.465 165.751 127.154 166.059C126.843 166.367 126.668 166.785 126.668 167.221L126.668 182.005C126.668 182.44 126.843 182.858 127.154 183.166C127.465 183.474 127.887 183.647 128.327 183.647L131.727 183.647C131.917 184.576 132.426 185.41 133.166 186.01C133.907 186.609 134.834 186.937 135.791 186.937C136.747 186.937 137.674 186.609 138.415 186.01C139.155 185.41 139.664 184.576 139.854 183.647V183.647ZM144.084 169.685L144.084 179.541C144.081 180.193 143.818 180.819 143.352 181.28C142.886 181.742 142.255 182.002 141.596 182.005L139.854 182.005C139.661 181.078 139.152 180.246 138.412 179.647C137.672 179.049 136.746 178.721 135.791 178.719L135.791 170.506C136.746 170.504 137.672 170.177 138.412 169.578C139.152 168.98 139.661 168.148 139.854 167.221L141.596 167.221C142.255 167.224 142.886 167.484 143.352 167.945C143.818 168.407 144.081 169.032 144.084 169.685V169.685ZM133.303 182.867L133.303 182.826C133.303 182.608 133.215 182.399 133.06 182.245C132.904 182.091 132.693 182.005 132.473 182.005L128.327 182.005L128.327 167.221L132.473 167.221C132.582 167.221 132.689 167.199 132.789 167.158C132.889 167.117 132.98 167.056 133.056 166.98C133.132 166.903 133.192 166.813 133.233 166.713C133.273 166.613 133.294 166.507 133.292 166.399L133.292 166.358C133.3 165.873 133.453 165.401 133.731 165.002C134.009 164.602 134.399 164.293 134.854 164.112C135.309 163.932 135.807 163.888 136.287 163.987C136.766 164.086 137.206 164.323 137.55 164.668C137.894 165.013 138.128 165.451 138.222 165.927C138.315 166.404 138.265 166.897 138.077 167.345C137.89 167.793 137.572 168.176 137.165 168.446C136.759 168.716 136.28 168.861 135.791 168.863L131.644 168.863C131.424 168.863 131.213 168.95 131.058 169.104C130.902 169.258 130.815 169.467 130.815 169.685C130.815 169.903 130.902 170.112 131.058 170.266C131.213 170.42 131.424 170.506 131.644 170.506L134.132 170.506L134.132 178.719L131.644 178.719C131.424 178.719 131.213 178.806 131.058 178.96C130.902 179.114 130.815 179.323 130.815 179.541C130.815 179.759 130.902 179.968 131.058 180.122C131.213 180.276 131.424 180.362 131.644 180.362L135.791 180.362C136.281 180.362 136.76 180.506 137.168 180.775C137.577 181.044 137.895 181.426 138.085 181.874C138.274 182.322 138.326 182.815 138.233 183.292C138.141 183.769 137.908 184.208 137.564 184.554C137.22 184.9 136.781 185.138 136.301 185.238C135.821 185.337 135.322 185.294 134.867 185.114C134.412 184.934 134.02 184.624 133.742 184.225C133.464 183.825 133.311 183.353 133.303 182.867V182.867Z" fill="black"/>
<path d="M60.7279 165.582L58.9864 165.582C57.8866 165.582 56.832 166.014 56.0543 166.784C55.2767 167.555 54.8398 168.599 54.8398 169.688L54.8398 179.544C54.8398 180.633 55.2767 181.678 56.0543 182.448C56.832 183.218 57.8866 183.651 58.9864 183.651L60.7279 183.651C60.9183 184.579 61.4268 185.414 62.1674 186.013C62.908 186.613 63.835 186.94 64.7915 186.94C65.748 186.94 66.6751 186.613 67.4157 186.013C68.1562 185.414 68.6648 184.579 68.8551 183.651L72.2553 183.651C72.6952 183.651 73.117 183.478 73.4281 183.17C73.7391 182.862 73.9139 182.444 73.9139 182.008L73.9139 167.224C73.9139 166.789 73.7391 166.371 73.4281 166.063C73.117 165.755 72.6952 165.582 72.2553 165.582L68.8551 165.582C68.6648 164.653 68.1562 163.819 67.4157 163.219C66.6751 162.62 65.748 162.292 64.7915 162.292C63.835 162.292 62.908 162.62 62.1674 163.219C61.4268 163.819 60.9183 164.653 60.7279 165.582V165.582ZM56.4985 179.544L56.4985 169.688C56.5012 169.036 56.7642 168.41 57.2302 167.949C57.6961 167.487 58.3274 167.227 58.9864 167.224L60.7279 167.224C60.9209 168.151 61.4303 168.983 62.1704 169.582C62.9105 170.18 63.8361 170.508 64.7915 170.51L64.7915 178.723C63.8361 178.725 62.9105 179.052 62.1704 179.651C61.4303 180.249 60.9209 181.082 60.7279 182.008L58.9864 182.008C58.3274 182.005 57.6962 181.745 57.2302 181.284C56.7642 180.822 56.5012 180.197 56.4985 179.544V179.544ZM67.2794 166.362L67.2794 166.403C67.2794 166.621 67.3668 166.83 67.5223 166.984C67.6779 167.138 67.8888 167.224 68.1087 167.224L72.2553 167.224L72.2553 182.008L68.1087 182.008C68.0003 182.008 67.893 182.03 67.7929 182.071C67.6929 182.112 67.6021 182.173 67.526 182.249C67.4498 182.326 67.3897 182.416 67.3491 182.516C67.3086 182.616 67.2884 182.722 67.2898 182.83L67.2898 182.871C67.2816 183.356 67.1291 183.828 66.8512 184.227C66.5734 184.627 66.1826 184.936 65.728 185.117C65.2733 185.297 64.775 185.341 64.2954 185.242C63.8158 185.143 63.3764 184.906 63.0322 184.561C62.6879 184.216 62.4543 183.778 62.3604 183.302C62.2666 182.825 62.3167 182.332 62.5046 181.884C62.6925 181.436 63.0097 181.053 63.4165 180.783C63.8234 180.513 64.3017 180.368 64.7915 180.366L68.938 180.366C69.158 180.366 69.3689 180.279 69.5245 180.125C69.68 179.971 69.7674 179.762 69.7674 179.544C69.7674 179.326 69.68 179.117 69.5245 178.963C69.3689 178.809 69.158 178.723 68.938 178.723L66.4501 178.723L66.4501 170.51L68.938 170.51C69.158 170.51 69.3689 170.423 69.5245 170.269C69.68 170.115 69.7674 169.906 69.7674 169.688C69.7674 169.47 69.68 169.261 69.5245 169.107C69.3689 168.953 69.158 168.867 68.938 168.867L64.7915 168.867C64.3012 168.867 63.8219 168.723 63.4137 168.454C63.0055 168.185 62.6867 167.803 62.4972 167.355C62.3078 166.907 62.2561 166.414 62.3488 165.937C62.4415 165.46 62.6744 165.021 63.0182 164.675C63.362 164.329 63.8014 164.091 64.2812 163.991C64.7611 163.892 65.26 163.935 65.7152 164.115C66.1705 164.295 66.5618 164.605 66.8401 165.004C67.1184 165.404 67.2713 165.876 67.2794 166.362V166.362Z" fill="black"/>
<path d="M140.069 145.03L141.811 145.03C142.91 145.03 143.965 144.598 144.743 143.828C145.52 143.057 145.957 142.013 145.957 140.924L145.957 131.068C145.957 129.979 145.52 128.934 144.743 128.164C143.965 127.394 142.91 126.961 141.811 126.961L140.069 126.961C139.879 126.033 139.37 125.198 138.629 124.599C137.889 123.999 136.962 123.672 136.005 123.672C135.049 123.672 134.122 123.999 133.381 124.599C132.641 125.198 132.132 126.033 131.942 126.961L128.542 126.961C128.102 126.961 127.68 127.134 127.369 127.442C127.058 127.75 126.883 128.168 126.883 128.604L126.883 143.388C126.883 143.823 127.058 144.241 127.369 144.549C127.68 144.857 128.102 145.03 128.542 145.03L131.942 145.03C132.132 145.959 132.641 146.793 133.381 147.393C134.122 147.992 135.049 148.32 136.005 148.32C136.962 148.32 137.889 147.992 138.629 147.393C139.37 146.793 139.879 145.959 140.069 145.03V145.03ZM144.298 131.068L144.298 140.924C144.296 141.576 144.033 142.202 143.567 142.663C143.101 143.125 142.469 143.385 141.811 143.388L140.069 143.388C139.876 142.461 139.367 141.628 138.626 141.03C137.886 140.432 136.961 140.104 136.005 140.102L136.005 131.889C136.961 131.887 137.886 131.56 138.626 130.961C139.367 130.363 139.876 129.53 140.069 128.604L141.811 128.604C142.469 128.606 143.101 128.867 143.567 129.328C144.033 129.79 144.296 130.415 144.298 131.068V131.068ZM133.517 144.25L133.517 144.209C133.517 143.991 133.43 143.782 133.275 143.628C133.119 143.474 132.908 143.388 132.688 143.388L128.542 143.388L128.542 128.604L132.688 128.604C132.797 128.604 132.904 128.582 133.004 128.541C133.104 128.5 133.195 128.439 133.271 128.363C133.347 128.286 133.407 128.196 133.448 128.096C133.488 127.996 133.508 127.89 133.507 127.782L133.507 127.741C133.515 127.256 133.668 126.784 133.946 126.385C134.223 125.985 134.614 125.676 135.069 125.495C135.524 125.315 136.022 125.271 136.501 125.37C136.981 125.469 137.42 125.706 137.765 126.051C138.109 126.396 138.343 126.834 138.436 127.31C138.53 127.786 138.48 128.279 138.292 128.727C138.104 129.176 137.787 129.559 137.38 129.829C136.974 130.099 136.495 130.244 136.005 130.246L131.859 130.246C131.639 130.246 131.428 130.333 131.272 130.487C131.117 130.641 131.03 130.85 131.03 131.068C131.03 131.286 131.117 131.494 131.272 131.649C131.428 131.803 131.639 131.889 131.859 131.889L134.347 131.889L134.347 140.102L131.859 140.102C131.639 140.102 131.428 140.189 131.272 140.343C131.117 140.497 131.03 140.706 131.03 140.924C131.03 141.142 131.117 141.35 131.272 141.504C131.428 141.659 131.639 141.745 131.859 141.745L136.005 141.745C136.496 141.745 136.975 141.889 137.383 142.158C137.791 142.427 138.11 142.809 138.3 143.257C138.489 143.705 138.541 144.198 138.448 144.675C138.355 145.152 138.123 145.591 137.779 145.937C137.435 146.283 136.995 146.521 136.516 146.621C136.036 146.72 135.537 146.677 135.082 146.497C134.626 146.317 134.235 146.007 133.957 145.608C133.678 145.208 133.526 144.736 133.517 144.25V144.25Z" fill="black"/>
<path d="M60.9349 126.968L59.1934 126.968C58.0937 126.968 57.039 127.4 56.2614 128.171C55.4837 128.941 55.0469 129.985 55.0469 131.074L55.0469 140.93C55.0469 142.02 55.4837 143.064 56.2614 143.834C57.039 144.604 58.0937 145.037 59.1934 145.037L60.9349 145.037C61.1253 145.965 61.6338 146.8 62.3744 147.4C63.115 147.999 64.0421 148.327 64.9985 148.327C65.955 148.327 66.8821 147.999 67.6227 147.4C68.3633 146.8 68.8718 145.965 69.0621 145.037L72.4623 145.037C72.9022 145.037 73.3241 144.864 73.6351 144.556C73.9462 144.248 74.1209 143.83 74.1209 143.394L74.1209 128.61C74.1209 128.175 73.9462 127.757 73.6351 127.449C73.3241 127.141 72.9022 126.968 72.4623 126.968L69.0621 126.968C68.8718 126.039 68.3633 125.205 67.6227 124.605C66.8821 124.006 65.955 123.678 64.9985 123.678C64.0421 123.678 63.115 124.006 62.3744 124.605C61.6338 125.205 61.1253 126.039 60.9349 126.968V126.968ZM56.7055 140.93L56.7055 131.074C56.7082 130.422 56.9712 129.797 57.4372 129.335C57.9032 128.874 58.5344 128.613 59.1934 128.61L60.9349 128.61C61.1279 129.537 61.6373 130.37 62.3774 130.968C63.1175 131.566 64.0432 131.894 64.9985 131.896L64.9985 140.109C64.0432 140.111 63.1175 140.438 62.3774 141.037C61.6373 141.635 61.1279 142.468 60.9349 143.394L59.1934 143.394C58.5344 143.392 57.9032 143.131 57.4372 142.67C56.9712 142.208 56.7082 141.583 56.7055 140.93V140.93ZM67.4865 127.748L67.4865 127.789C67.4865 128.007 67.5738 128.216 67.7294 128.37C67.8849 128.524 68.0958 128.61 68.3158 128.61L72.4623 128.61L72.4623 143.394L68.3158 143.394C68.2073 143.394 68.1 143.416 68 143.457C67.8999 143.499 67.8092 143.559 67.733 143.636C67.6568 143.712 67.5967 143.803 67.5562 143.902C67.5156 144.002 67.4955 144.108 67.4968 144.216L67.4968 144.257C67.4887 144.742 67.3361 145.214 67.0583 145.613C66.7804 146.013 66.3897 146.322 65.935 146.503C65.4803 146.683 64.982 146.727 64.5024 146.628C64.0228 146.529 63.5834 146.292 63.2392 145.947C62.895 145.602 62.6613 145.164 62.5674 144.688C62.4736 144.212 62.5237 143.719 62.7116 143.271C62.8995 142.823 63.2167 142.44 63.6236 142.169C64.0304 141.899 64.5087 141.754 64.9985 141.752L69.1451 141.752C69.365 141.752 69.576 141.665 69.7315 141.511C69.887 141.357 69.9744 141.148 69.9744 140.93C69.9744 140.713 69.887 140.504 69.7315 140.35C69.576 140.196 69.365 140.109 69.1451 140.109L66.6572 140.109L66.6572 131.896L69.1451 131.896C69.365 131.896 69.576 131.809 69.7315 131.655C69.887 131.501 69.9744 131.292 69.9744 131.074C69.9744 130.857 69.887 130.648 69.7315 130.494C69.576 130.34 69.365 130.253 69.1451 130.253L64.9985 130.253C64.5083 130.253 64.0289 130.11 63.6207 129.841C63.2126 129.572 62.8937 129.189 62.7042 128.741C62.5148 128.293 62.4632 127.8 62.5558 127.323C62.6485 126.847 62.8814 126.407 63.2252 126.061C63.569 125.715 64.0084 125.477 64.4883 125.378C64.9681 125.278 65.467 125.321 65.9223 125.501C66.3775 125.681 66.7689 125.991 67.0472 126.391C67.3255 126.79 67.4783 127.263 67.4865 127.748V127.748Z" fill="black"/>
<path d="M140.276 106.416L142.018 106.416C143.117 106.416 144.172 105.983 144.95 105.213C145.727 104.443 146.164 103.398 146.164 102.309L146.164 92.4534C146.164 91.3642 145.727 90.3197 144.95 89.5495C144.172 88.7794 143.117 88.3467 142.018 88.3467L140.276 88.3467C140.086 87.4184 139.577 86.5837 138.837 85.9842C138.096 85.3847 137.169 85.0573 136.212 85.0573C135.256 85.0573 134.329 85.3847 133.588 85.9842C132.848 86.5837 132.339 87.4184 132.149 88.3467L128.749 88.3467C128.309 88.3467 127.887 88.5198 127.576 88.8278C127.265 89.1359 127.09 89.5537 127.09 89.9894L127.09 104.773C127.09 105.209 127.265 105.627 127.576 105.935C127.887 106.243 128.309 106.416 128.749 106.416L132.149 106.416C132.339 107.344 132.848 108.179 133.588 108.778C134.329 109.378 135.256 109.705 136.212 109.705C137.169 109.705 138.096 109.378 138.837 108.778C139.577 108.179 140.086 107.344 140.276 106.416V106.416ZM144.505 92.4534L144.505 102.309C144.503 102.962 144.24 103.587 143.774 104.049C143.308 104.51 142.677 104.771 142.018 104.773L140.276 104.773C140.083 103.847 139.574 103.014 138.834 102.416C138.093 101.817 137.168 101.49 136.212 101.488L136.212 93.2747C137.168 93.273 138.093 92.9453 138.834 92.347C139.574 91.7486 140.083 90.9161 140.276 89.9894L142.018 89.9894C142.677 89.9921 143.308 90.2525 143.774 90.714C144.24 91.1755 144.503 91.8007 144.505 92.4534V92.4534ZM133.724 105.636L133.724 105.595C133.724 105.377 133.637 105.168 133.482 105.014C133.326 104.86 133.115 104.773 132.895 104.773L128.749 104.773L128.749 89.9894L132.895 89.9894C133.004 89.9894 133.111 89.9681 133.211 89.9267C133.311 89.8853 133.402 89.8246 133.478 89.7482C133.554 89.6718 133.614 89.5812 133.655 89.4816C133.695 89.382 133.715 89.2754 133.714 89.168L133.714 89.127C133.722 88.6419 133.875 88.17 134.153 87.7705C134.431 87.3709 134.821 87.0615 135.276 86.881C135.731 86.7005 136.229 86.6569 136.709 86.7557C137.188 86.8546 137.628 87.0914 137.972 87.4366C138.316 87.7817 138.55 88.2198 138.644 88.696C138.737 89.1721 138.687 89.6651 138.499 90.1131C138.311 90.5611 137.994 90.9443 137.587 91.2145C137.181 91.4847 136.702 91.6299 136.212 91.632L132.066 91.632C131.846 91.632 131.635 91.7186 131.479 91.8726C131.324 92.0266 131.237 92.2355 131.237 92.4534C131.237 92.6712 131.324 92.8801 131.479 93.0341C131.635 93.1882 131.846 93.2747 132.066 93.2747L134.554 93.2747L134.554 101.488L132.066 101.488C131.846 101.488 131.635 101.575 131.479 101.729C131.324 101.883 131.237 102.092 131.237 102.309C131.237 102.527 131.324 102.736 131.479 102.89C131.635 103.044 131.846 103.131 132.066 103.131L136.212 103.131C136.703 103.131 137.182 103.274 137.59 103.543C137.998 103.812 138.317 104.195 138.507 104.642C138.696 105.09 138.748 105.584 138.655 106.06C138.562 106.537 138.33 106.976 137.986 107.323C137.642 107.669 137.203 107.907 136.723 108.006C136.243 108.106 135.744 108.063 135.289 107.883C134.833 107.702 134.442 107.393 134.164 106.993C133.885 106.594 133.733 106.121 133.724 105.636V105.636Z" fill="black"/>
<path d="M61.142 88.3496L59.4004 88.3496C58.3007 88.3496 57.246 88.7823 56.4684 89.5524C55.6908 90.3226 55.2539 91.3671 55.2539 92.4563L55.2539 102.312C55.2539 103.401 55.6908 104.446 56.4684 105.216C57.246 105.986 58.3007 106.419 59.4004 106.419L61.142 106.419C61.3323 107.347 61.8409 108.182 62.5814 108.781C63.322 109.381 64.2491 109.708 65.2056 109.708C66.1621 109.708 67.0891 109.381 67.8297 108.781C68.5703 108.182 69.0788 107.347 69.2692 106.419L72.6693 106.419C73.1092 106.419 73.5311 106.246 73.8421 105.938C74.1532 105.63 74.3279 105.212 74.3279 104.776L74.3279 89.9923C74.3279 89.5566 74.1532 89.1388 73.8421 88.8308C73.5311 88.5227 73.1092 88.3496 72.6693 88.3496L69.2692 88.3496C69.0788 87.4213 68.5703 86.5867 67.8297 85.9872C67.0891 85.3877 66.1621 85.0602 65.2056 85.0602C64.2491 85.0602 63.322 85.3877 62.5814 85.9872C61.8409 86.5867 61.3323 87.4213 61.142 88.3496V88.3496ZM56.9125 102.312L56.9125 92.4563C56.9152 91.8036 57.1782 91.1785 57.6442 90.717C58.1102 90.2555 58.7414 89.995 59.4004 89.9923L61.142 89.9923C61.335 90.919 61.8444 91.7516 62.5845 92.3499C63.3246 92.9483 64.2502 93.2759 65.2056 93.2776L65.2056 101.491C64.2502 101.493 63.3246 101.82 62.5845 102.419C61.8444 103.017 61.335 103.85 61.142 104.776L59.4004 104.776C58.7414 104.774 58.1102 104.513 57.6442 104.052C57.1782 103.59 56.9152 102.965 56.9125 102.312V102.312ZM67.6935 89.1299L67.6935 89.171C67.6935 89.3888 67.7809 89.5977 67.9364 89.7517C68.0919 89.9058 68.3029 89.9923 68.5228 89.9923L72.6693 89.9923L72.6693 104.776L68.5228 104.776C68.4144 104.776 68.307 104.798 68.207 104.839C68.107 104.88 68.0162 104.941 67.94 105.017C67.8638 105.094 67.8037 105.184 67.7632 105.284C67.7227 105.384 67.7025 105.49 67.7039 105.598L67.7039 105.639C67.6957 106.124 67.5431 106.596 67.2653 106.995C66.9875 107.395 66.5967 107.704 66.142 107.885C65.6874 108.065 65.189 108.109 64.7094 108.01C64.2299 107.911 63.7904 107.674 63.4462 107.329C63.102 106.984 62.8683 106.546 62.7745 106.07C62.6806 105.594 62.7308 105.101 62.9187 104.653C63.1065 104.204 63.4238 103.821 63.8306 103.551C64.2374 103.281 64.7157 103.136 65.2056 103.134L69.3521 103.134C69.5721 103.134 69.783 103.047 69.9385 102.893C70.094 102.739 70.1814 102.53 70.1814 102.312C70.1814 102.094 70.094 101.886 69.9385 101.732C69.783 101.577 69.5721 101.491 69.3521 101.491L66.8642 101.491L66.8642 93.2776L69.3521 93.2776C69.5721 93.2776 69.783 93.1911 69.9385 93.0371C70.094 92.883 70.1814 92.6741 70.1814 92.4563C70.1814 92.2385 70.094 92.0295 69.9385 91.8755C69.783 91.7215 69.5721 91.635 69.3521 91.635L65.2056 91.635C64.7153 91.6349 64.236 91.4914 63.8278 91.2224C63.4196 90.9534 63.1007 90.571 62.9113 90.1231C62.7218 89.6753 62.6702 89.182 62.7629 88.7052C62.8555 88.2283 63.0884 87.7893 63.4322 87.4431C63.776 87.0969 64.2154 86.8591 64.6953 86.7594C65.1751 86.6598 65.674 86.7027 66.1293 86.8829C66.5846 87.0632 66.9759 87.3726 67.2542 87.7723C67.5325 88.1721 67.6853 88.6444 67.6935 89.1299V89.1299Z" fill="black"/>
<path d="M99.172 147.814C96.804 147.814 94.484 147.478 92.212 146.806C89.972 146.102 88.084 145.142 86.548 143.926L89.236 139.078C90.452 140.07 91.924 140.87 93.652 141.478C95.38 142.086 97.188 142.39 99.076 142.39C101.316 142.39 103.06 141.942 104.308 141.046C105.556 140.118 106.18 138.87 106.18 137.302C106.18 135.766 105.604 134.55 104.452 133.654C103.3 132.758 101.444 132.31 98.884 132.31H95.812V128.038L105.412 116.614L106.228 118.966H88.18V113.734H111.076V117.91L101.476 129.334L98.212 127.414H100.084C104.212 127.414 107.3 128.342 109.348 130.198C111.428 132.022 112.468 134.374 112.468 137.254C112.468 139.142 111.988 140.886 111.028 142.486C110.068 144.086 108.596 145.382 106.612 146.374C104.66 147.334 102.18 147.814 99.172 147.814Z" fill="black"/>
</svg>
