<svg width="225" height="332" viewBox="0 0 225 332" fill="none" xmlns="http://www.w3.org/2000/svg">
<rect x="158.192" y="205.84" width="39.3001" height="114.693" rx="4.5" transform="rotate(150 158.192 205.84)" fill="#FFDF7F" stroke="black"/>
<g clip-path="url(#clip0_707_4710)">
<path d="M170.412 187.589L171.92 186.718C172.873 186.168 173.57 185.266 173.858 184.21C174.147 183.154 174.003 182.031 173.458 181.088L168.53 172.553C167.986 171.609 167.085 170.923 166.026 170.645C164.968 170.367 163.838 170.519 162.886 171.069L161.378 171.94C160.749 171.231 159.891 170.763 158.95 170.614C158.009 170.465 157.042 170.645 156.214 171.123C155.385 171.601 154.746 172.349 154.405 173.238C154.063 174.128 154.04 175.105 154.339 176.004L151.395 177.704C151.014 177.924 150.735 178.285 150.619 178.707C150.504 179.129 150.562 179.578 150.779 179.956L158.171 192.759C158.389 193.136 158.75 193.411 159.173 193.522C159.596 193.633 160.048 193.572 160.429 193.352L163.374 191.652C164.003 192.361 164.861 192.83 165.802 192.978C166.743 193.127 167.709 192.947 168.538 192.469C169.366 191.991 170.005 191.244 170.347 190.354C170.688 189.465 170.712 188.488 170.412 187.589V187.589ZM167.094 173.382L172.022 181.917C172.346 182.484 172.43 183.157 172.258 183.79C172.085 184.422 171.668 184.963 171.099 185.295L169.591 186.166C168.96 185.46 168.103 184.994 167.163 184.845C166.223 184.697 165.257 184.876 164.429 185.353L160.322 178.24C161.149 177.76 161.787 177.014 162.128 176.126C162.47 175.237 162.495 174.262 162.199 173.363L163.707 172.492C164.279 172.165 164.956 172.075 165.59 172.241C166.225 172.408 166.765 172.818 167.094 173.382V173.382ZM164.348 190.189L164.328 190.153C164.219 189.964 164.039 189.827 163.827 189.772C163.615 189.716 163.389 189.746 163.199 189.856L159.608 191.93L152.216 179.126L155.807 177.053C155.901 176.999 155.983 176.927 156.049 176.841C156.115 176.755 156.163 176.657 156.191 176.553C156.219 176.449 156.226 176.34 156.211 176.234C156.196 176.127 156.16 176.025 156.105 175.932L156.085 175.897C155.849 175.473 155.746 174.988 155.786 174.503C155.827 174.018 156.011 173.554 156.314 173.171C156.618 172.787 157.028 172.5 157.493 172.346C157.957 172.192 158.456 172.177 158.927 172.304C159.398 172.431 159.819 172.693 160.138 173.059C160.458 173.424 160.661 173.876 160.722 174.358C160.783 174.84 160.7 175.331 160.483 175.768C160.266 176.205 159.924 176.57 159.501 176.817L155.91 178.89C155.72 179 155.58 179.181 155.522 179.392C155.465 179.603 155.494 179.828 155.602 180.016C155.711 180.205 155.892 180.342 156.103 180.398C156.315 180.453 156.541 180.423 156.731 180.313L158.886 179.069L162.993 186.182L160.838 187.426C160.648 187.536 160.508 187.716 160.45 187.927C160.393 188.139 160.422 188.363 160.53 188.552C160.639 188.74 160.82 188.878 161.031 188.933C161.243 188.989 161.469 188.958 161.659 188.848L165.25 186.775C165.675 186.53 166.162 186.415 166.65 186.444C167.138 186.472 167.605 186.644 167.993 186.937C168.381 187.23 168.673 187.632 168.831 188.091C168.989 188.55 169.007 189.047 168.882 189.519C168.757 189.99 168.496 190.416 168.13 190.742C167.764 191.069 167.311 191.281 166.826 191.352C166.342 191.424 165.848 191.352 165.407 191.145C164.967 190.938 164.598 190.605 164.348 190.189V190.189Z" fill="black"/>
</g>
<g clip-path="url(#clip1_707_4710)">
<path d="M92.8534 211.508L91.3452 212.378C90.3928 212.928 89.6958 213.83 89.4074 214.886C89.119 215.942 89.263 217.065 89.8076 218.008L94.7355 226.544C95.2801 227.487 96.1807 228.173 97.2392 228.451C98.2978 228.729 99.4275 228.577 100.38 228.027L101.888 227.156C102.517 227.865 103.375 228.333 104.316 228.482C105.257 228.631 106.224 228.451 107.052 227.973C107.88 227.495 108.519 226.748 108.861 225.858C109.203 224.969 109.226 223.992 108.926 223.093L111.871 221.392C112.252 221.173 112.531 220.812 112.646 220.389C112.762 219.967 112.704 219.518 112.486 219.141L105.094 206.337C104.876 205.96 104.516 205.686 104.093 205.574C103.669 205.463 103.217 205.524 102.836 205.744L99.8918 207.444C99.2628 206.735 98.4051 206.267 97.464 206.118C96.5229 205.969 95.5562 206.149 94.7279 206.627C93.8996 207.105 93.2604 207.853 92.9188 208.742C92.5772 209.631 92.5541 210.609 92.8534 211.508V211.508ZM96.1719 225.714L91.244 217.179C90.92 216.612 90.8352 215.939 91.008 215.307C91.1808 214.674 91.5972 214.133 92.1666 213.801L93.6748 212.93C94.3052 213.636 95.1627 214.103 96.1028 214.251C97.0429 214.399 98.0084 214.22 98.8366 213.744L102.943 220.857C102.117 221.336 101.479 222.082 101.137 222.971C100.795 223.859 100.771 224.835 101.067 225.734L99.5585 226.604C98.9865 226.931 98.3096 227.022 97.6753 226.855C97.041 226.688 96.5006 226.278 96.1719 225.714V225.714ZM98.9174 208.908L98.9379 208.943C99.0468 209.132 99.2269 209.269 99.4386 209.325C99.6503 209.38 99.8763 209.35 100.067 209.24L103.658 207.167L111.05 219.97L107.459 222.043C107.365 222.097 107.283 222.169 107.217 222.255C107.151 222.341 107.102 222.439 107.075 222.543C107.047 222.648 107.04 222.756 107.055 222.863C107.069 222.969 107.105 223.072 107.16 223.164L107.181 223.199C107.416 223.624 107.52 224.109 107.479 224.594C107.438 225.078 107.255 225.542 106.951 225.925C106.648 226.309 106.238 226.596 105.773 226.75C105.308 226.904 104.809 226.919 104.339 226.792C103.868 226.665 103.447 226.403 103.127 226.037C102.808 225.672 102.605 225.22 102.544 224.738C102.482 224.256 102.565 223.766 102.783 223.328C103 222.891 103.341 222.526 103.765 222.279L107.356 220.206C107.546 220.096 107.685 219.916 107.743 219.704C107.801 219.493 107.772 219.269 107.663 219.08C107.554 218.891 107.374 218.754 107.162 218.698C106.951 218.643 106.725 218.673 106.534 218.783L104.38 220.027L100.273 212.914L102.428 211.67C102.618 211.56 102.758 211.38 102.815 211.169C102.873 210.958 102.844 210.733 102.735 210.544C102.626 210.356 102.446 210.219 102.234 210.163C102.023 210.107 101.797 210.138 101.606 210.248L98.0153 212.321C97.5907 212.566 97.1038 212.681 96.6158 212.653C96.1278 212.624 95.6605 212.452 95.2724 212.159C94.8844 211.866 94.5931 211.464 94.4349 211.005C94.2768 210.546 94.2589 210.049 94.3836 209.577C94.5082 209.106 94.7699 208.68 95.1356 208.354C95.5013 208.028 95.9549 207.815 96.4392 207.744C96.9236 207.672 97.4172 207.745 97.8581 207.952C98.299 208.159 98.6675 208.491 98.9174 208.908V208.908Z" fill="black"/>
</g>
<g clip-path="url(#clip2_707_4710)">
<path d="M151.287 154.042L152.795 153.171C153.748 152.621 154.445 151.719 154.733 150.663C155.022 149.608 154.878 148.485 154.333 147.541L149.405 139.006C148.861 138.063 147.96 137.376 146.901 137.098C145.843 136.82 144.713 136.973 143.761 137.523L142.253 138.393C141.624 137.685 140.766 137.216 139.825 137.067C138.884 136.918 137.917 137.098 137.089 137.576C136.26 138.055 135.621 138.802 135.28 139.691C134.938 140.581 134.915 141.558 135.214 142.457L132.27 144.157C131.889 144.377 131.61 144.738 131.494 145.16C131.379 145.582 131.437 146.032 131.654 146.409L139.046 159.212C139.264 159.59 139.625 159.864 140.048 159.975C140.471 160.087 140.923 160.025 141.304 159.806L144.249 158.105C144.878 158.814 145.736 159.283 146.677 159.432C147.618 159.581 148.584 159.401 149.413 158.922C150.241 158.444 150.88 157.697 151.222 156.808C151.563 155.918 151.587 154.941 151.287 154.042V154.042ZM147.969 139.835L152.897 148.371C153.221 148.937 153.305 149.61 153.133 150.243C152.96 150.875 152.543 151.417 151.974 151.748L150.466 152.619C149.835 151.913 148.978 151.447 148.038 151.299C147.098 151.151 146.132 151.33 145.304 151.806L141.197 144.693C142.024 144.214 142.662 143.467 143.003 142.579C143.345 141.691 143.37 140.715 143.074 139.816L144.582 138.945C145.154 138.618 145.831 138.528 146.465 138.695C147.1 138.861 147.64 139.271 147.969 139.835V139.835ZM145.223 156.642L145.203 156.606C145.094 156.418 144.914 156.28 144.702 156.225C144.49 156.169 144.264 156.2 144.074 156.31L140.483 158.383L133.091 145.58L136.682 143.506C136.776 143.452 136.858 143.38 136.924 143.294C136.99 143.208 137.038 143.11 137.066 143.006C137.094 142.902 137.101 142.793 137.086 142.687C137.071 142.58 137.035 142.478 136.98 142.386L136.96 142.35C136.724 141.926 136.621 141.441 136.661 140.956C136.702 140.471 136.886 140.008 137.189 139.624C137.493 139.24 137.903 138.953 138.368 138.799C138.832 138.645 139.331 138.63 139.802 138.757C140.273 138.884 140.694 139.147 141.013 139.512C141.333 139.878 141.536 140.33 141.597 140.811C141.658 141.293 141.575 141.784 141.358 142.221C141.141 142.659 140.799 143.024 140.376 143.27L136.785 145.344C136.595 145.454 136.455 145.634 136.397 145.845C136.34 146.056 136.369 146.281 136.477 146.47C136.586 146.658 136.767 146.795 136.978 146.851C137.19 146.907 137.416 146.876 137.606 146.766L139.761 145.522L143.868 152.635L141.713 153.879C141.523 153.989 141.383 154.17 141.325 154.381C141.268 154.592 141.297 154.816 141.405 155.005C141.514 155.194 141.695 155.331 141.906 155.387C142.118 155.442 142.344 155.412 142.534 155.302L146.125 153.228C146.55 152.983 147.037 152.868 147.525 152.897C148.013 152.926 148.48 153.097 148.868 153.391C149.256 153.684 149.548 154.085 149.706 154.544C149.864 155.004 149.882 155.5 149.757 155.972C149.632 156.444 149.371 156.869 149.005 157.196C148.639 157.522 148.186 157.734 147.701 157.806C147.217 157.877 146.723 157.805 146.282 157.598C145.842 157.391 145.473 157.058 145.223 156.642V156.642Z" fill="black"/>
</g>
<g clip-path="url(#clip3_707_4710)">
<path d="M73.7206 177.963L72.2124 178.833C71.26 179.383 70.563 180.285 70.2746 181.341C69.9862 182.397 70.1302 183.52 70.6747 184.463L75.6027 192.999C76.1473 193.942 77.0479 194.628 78.1064 194.906C79.1649 195.184 80.2947 195.032 81.2471 194.482L82.7553 193.611C83.3843 194.32 84.242 194.788 85.1831 194.937C86.1242 195.086 87.0908 194.906 87.9192 194.428C88.7475 193.95 89.3866 193.203 89.7283 192.313C90.0699 191.424 90.093 190.447 89.7936 189.548L92.7383 187.847C93.1192 187.628 93.398 187.267 93.5134 186.844C93.6287 186.422 93.5712 185.973 93.3533 185.596L85.9613 172.792C85.7435 172.415 85.3833 172.141 84.9599 172.029C84.5365 171.918 84.0846 171.979 83.7036 172.199L80.759 173.899C80.13 173.19 79.2723 172.722 78.3311 172.573C77.39 172.424 76.4234 172.604 75.5951 173.082C74.7667 173.56 74.1276 174.308 73.786 175.197C73.4444 176.086 73.4213 177.064 73.7206 177.963V177.963ZM77.0391 192.169L72.1111 183.634C71.7872 183.067 71.7024 182.394 71.8752 181.762C72.048 181.129 72.4644 180.588 73.0337 180.256L74.542 179.385C75.1724 180.091 76.0299 180.558 76.97 180.706C77.9101 180.854 78.8755 180.675 79.7038 180.199L83.8105 187.312C82.9839 187.791 82.3461 188.537 82.0044 189.426C81.6626 190.314 81.6377 191.29 81.9339 192.189L80.4257 193.059C79.8537 193.386 79.1768 193.477 78.5425 193.31C77.9082 193.143 77.3678 192.733 77.0391 192.169V192.169ZM79.7845 175.363L79.8051 175.398C79.914 175.587 80.0941 175.724 80.3058 175.78C80.5175 175.835 80.7435 175.805 80.9339 175.695L84.5249 173.622L91.9169 186.425L88.3259 188.498C88.232 188.552 88.1497 188.624 88.0838 188.71C88.0178 188.796 87.9696 188.894 87.9418 188.998C87.914 189.103 87.9073 189.211 87.922 189.318C87.9367 189.424 87.9725 189.527 88.0274 189.619L88.0479 189.654C88.2834 190.079 88.3872 190.564 88.3463 191.049C88.3055 191.533 88.1218 191.997 87.8183 192.38C87.5148 192.764 87.105 193.051 86.6403 193.205C86.1755 193.359 85.6766 193.374 85.2059 193.247C84.7352 193.12 84.3138 192.858 83.9944 192.492C83.6751 192.127 83.472 191.675 83.4107 191.193C83.3494 190.711 83.4326 190.221 83.6498 189.783C83.867 189.346 84.2086 188.981 84.6318 188.734L88.2228 186.661C88.4133 186.551 88.5527 186.371 88.6104 186.159C88.668 185.948 88.6392 185.724 88.5303 185.535C88.4214 185.346 88.2413 185.209 88.0296 185.153C87.8179 185.098 87.5919 185.128 87.4015 185.238L85.2469 186.482L81.1402 179.369L83.2948 178.125C83.4853 178.015 83.6247 177.835 83.6824 177.624C83.74 177.413 83.7113 177.188 83.6023 176.999C83.4934 176.811 83.3133 176.674 83.1016 176.618C82.8899 176.562 82.664 176.593 82.4735 176.703L78.8825 178.776C78.4578 179.021 77.971 179.136 77.483 179.108C76.995 179.079 76.5276 178.907 76.1396 178.614C75.7516 178.321 75.4603 177.919 75.3021 177.46C75.144 177.001 75.1261 176.504 75.2508 176.032C75.3754 175.561 75.6371 175.135 76.0028 174.809C76.3685 174.483 76.822 174.27 77.3064 174.199C77.7908 174.127 78.2844 174.2 78.7253 174.407C79.1662 174.614 79.5347 174.946 79.7845 175.363V175.363Z" fill="black"/>
</g>
<g clip-path="url(#clip4_707_4710)">
<path d="M132.154 120.497L133.663 119.626C134.615 119.076 135.312 118.174 135.6 117.118C135.889 116.063 135.745 114.94 135.2 113.996L130.272 105.461C129.728 104.518 128.827 103.831 127.769 103.553C126.71 103.275 125.58 103.428 124.628 103.978L123.12 104.848C122.491 104.14 121.633 103.671 120.692 103.522C119.751 103.373 118.784 103.553 117.956 104.032C117.127 104.51 116.488 105.257 116.147 106.146C115.805 107.036 115.782 108.013 116.081 108.912L113.137 110.612C112.756 110.832 112.477 111.193 112.362 111.615C112.246 112.038 112.304 112.487 112.522 112.864L119.914 125.667C120.131 126.045 120.492 126.319 120.915 126.43C121.339 126.542 121.79 126.481 122.171 126.261L125.116 124.561C125.745 125.269 126.603 125.738 127.544 125.887C128.485 126.036 129.452 125.856 130.28 125.377C131.108 124.899 131.747 124.152 132.089 123.263C132.431 122.373 132.454 121.396 132.154 120.497V120.497ZM128.836 106.29L133.764 114.826C134.088 115.392 134.173 116.065 134 116.698C133.827 117.331 133.411 117.872 132.841 118.204L131.333 119.074C130.703 118.368 129.845 117.902 128.905 117.754C127.965 117.606 126.999 117.785 126.171 118.261L122.065 111.148C122.891 110.669 123.529 109.922 123.871 109.034C124.212 108.146 124.237 107.17 123.941 106.271L125.449 105.4C126.021 105.073 126.698 104.983 127.333 105.15C127.967 105.316 128.507 105.726 128.836 106.29V106.29ZM126.09 123.097L126.07 123.061C125.961 122.873 125.781 122.736 125.569 122.68C125.357 122.624 125.132 122.655 124.941 122.765L121.35 124.838L113.958 112.035L117.549 109.961C117.643 109.907 117.725 109.835 117.791 109.749C117.857 109.663 117.905 109.565 117.933 109.461C117.961 109.357 117.968 109.248 117.953 109.142C117.938 109.035 117.903 108.933 117.848 108.841L117.827 108.805C117.592 108.381 117.488 107.896 117.529 107.411C117.57 106.926 117.753 106.463 118.057 106.079C118.36 105.695 118.77 105.409 119.235 105.254C119.699 105.1 120.198 105.086 120.669 105.212C121.14 105.339 121.561 105.602 121.881 105.967C122.2 106.333 122.403 106.785 122.464 107.267C122.526 107.748 122.442 108.239 122.225 108.676C122.008 109.114 121.666 109.479 121.243 109.725L117.652 111.799C117.462 111.909 117.322 112.089 117.265 112.3C117.207 112.511 117.236 112.736 117.345 112.925C117.454 113.113 117.634 113.251 117.845 113.306C118.057 113.362 118.283 113.331 118.474 113.221L120.628 111.977L124.735 119.09L122.58 120.334C122.39 120.444 122.25 120.625 122.193 120.836C122.135 121.047 122.164 121.272 122.273 121.46C122.382 121.649 122.562 121.786 122.773 121.842C122.985 121.897 123.211 121.867 123.402 121.757L126.993 119.684C127.417 119.438 127.904 119.323 128.392 119.352C128.88 119.381 129.347 119.553 129.735 119.846C130.123 120.139 130.415 120.54 130.573 120.999C130.731 121.459 130.749 121.955 130.624 122.427C130.5 122.899 130.238 123.325 129.872 123.651C129.506 123.977 129.053 124.189 128.569 124.261C128.084 124.332 127.591 124.26 127.15 124.053C126.709 123.846 126.34 123.513 126.09 123.097V123.097Z" fill="black"/>
</g>
<g clip-path="url(#clip5_707_4710)">
<path d="M54.5956 144.415L53.0874 145.286C52.135 145.836 51.438 146.738 51.1496 147.794C50.8612 148.849 51.0052 149.972 51.5497 150.916L56.4777 159.451C57.0223 160.394 57.9229 161.081 58.9814 161.359C60.0399 161.637 61.1697 161.484 62.1221 160.934L63.6303 160.064C64.2593 160.772 65.117 161.241 66.0581 161.39C66.9992 161.539 67.9658 161.359 68.7942 160.88C69.6225 160.402 70.2616 159.655 70.6033 158.766C70.9449 157.876 70.968 156.899 70.6686 156L73.6133 154.3C73.9942 154.08 74.273 153.719 74.3884 153.297C74.5037 152.874 74.4462 152.425 74.2283 152.048L66.8363 139.245C66.6185 138.867 66.2583 138.593 65.8349 138.482C65.4115 138.37 64.9596 138.431 64.5786 138.651L61.634 140.351C61.005 139.643 60.1473 139.174 59.2061 139.025C58.265 138.876 57.2984 139.056 56.4701 139.535C55.6417 140.013 55.0026 140.76 54.661 141.649C54.3194 142.539 54.2963 143.516 54.5956 144.415V144.415ZM57.9141 158.622L52.9861 150.086C52.6622 149.52 52.5774 148.847 52.7502 148.214C52.923 147.581 53.3394 147.04 53.9087 146.708L55.417 145.838C56.0474 146.544 56.9049 147.01 57.845 147.158C58.7851 147.306 59.7505 147.127 60.5788 146.651L64.6855 153.764C63.8589 154.243 63.2211 154.99 62.8794 155.878C62.5376 156.766 62.5127 157.742 62.8089 158.641L61.3007 159.512C60.7287 159.839 60.0518 159.929 59.4175 159.762C58.7832 159.596 58.2428 159.186 57.9141 158.622V158.622ZM60.6595 141.815L60.6801 141.851C60.789 142.039 60.9691 142.176 61.1808 142.232C61.3925 142.288 61.6185 142.257 61.8089 142.147L65.3999 140.074L72.7919 152.877L69.2009 154.951C69.107 155.005 69.0247 155.077 68.9588 155.163C68.8928 155.249 68.8446 155.347 68.8168 155.451C68.789 155.555 68.7823 155.664 68.797 155.77C68.8117 155.877 68.8475 155.979 68.9024 156.071L68.9229 156.107C69.1584 156.531 69.2622 157.016 69.2213 157.501C69.1805 157.986 68.9968 158.449 68.6933 158.833C68.3898 159.217 67.98 159.503 67.5153 159.658C67.0505 159.812 66.5516 159.826 66.0809 159.7C65.6102 159.573 65.1888 159.31 64.8694 158.945C64.5501 158.579 64.347 158.127 64.2857 157.645C64.2244 157.163 64.3076 156.673 64.5248 156.236C64.742 155.798 65.0836 155.433 65.5068 155.187L69.0978 153.113C69.2883 153.003 69.4277 152.823 69.4854 152.612C69.543 152.401 69.5142 152.176 69.4053 151.987C69.2964 151.799 69.1163 151.661 68.9046 151.606C68.6929 151.55 68.4669 151.581 68.2765 151.691L66.1219 152.935L62.0152 145.822L64.1698 144.578C64.3603 144.468 64.4997 144.287 64.5574 144.076C64.615 143.865 64.5863 143.64 64.4773 143.452C64.3684 143.263 64.1883 143.126 63.9766 143.07C63.7649 143.015 63.539 143.045 63.3485 143.155L59.7575 145.228C59.3328 145.474 58.846 145.589 58.358 145.56C57.87 145.531 57.4026 145.359 57.0146 145.066C56.6266 144.773 56.3353 144.372 56.1771 143.913C56.019 143.453 56.0011 142.957 56.1258 142.485C56.2504 142.013 56.5121 141.587 56.8778 141.261C57.2435 140.935 57.697 140.723 58.1814 140.651C58.6658 140.58 59.1594 140.652 59.6003 140.859C60.0412 141.066 60.4097 141.399 60.6595 141.815V141.815Z" fill="black"/>
</g>
<path d="M110.492 174.818V143.618L113.228 146.45H103.388V141.218H116.732V174.818H110.492Z" fill="black"/>
<defs>
<clipPath id="clip0_707_4710">
<rect width="26.2826" height="26.5378" fill="white" transform="translate(167.297 163.781) rotate(60)"/>
</clipPath>
<clipPath id="clip1_707_4710">
<rect width="26.2826" height="26.5378" fill="white" transform="translate(95.9688 235.315) rotate(-120)"/>
</clipPath>
<clipPath id="clip2_707_4710">
<rect width="26.2826" height="26.5378" fill="white" transform="translate(148.172 130.234) rotate(60)"/>
</clipPath>
<clipPath id="clip3_707_4710">
<rect width="26.2826" height="26.5378" fill="white" transform="translate(76.8359 201.77) rotate(-120)"/>
</clipPath>
<clipPath id="clip4_707_4710">
<rect width="26.2826" height="26.5378" fill="white" transform="translate(129.039 96.6893) rotate(60)"/>
</clipPath>
<clipPath id="clip5_707_4710">
<rect width="26.2826" height="26.5378" fill="white" transform="translate(57.7109 168.223) rotate(-120)"/>
</clipPath>
</defs>
</svg>
