<svg width="150" height="150" viewBox="0 0 150 150" fill="none" xmlns="http://www.w3.org/2000/svg">
<g clip-path="url(#clip0_731_4028)">
<rect x="55.3685" y="132.35" width="39.3001" height="114.693" rx="4.5" transform="rotate(-142.192 55.3685 132.35)" fill="#FFDF7F" stroke="black"/>
<g clip-path="url(#clip1_731_4028)">
<path d="M76.8875 136.77L78.2635 137.837C79.1323 138.512 80.2308 138.816 81.3173 138.684C82.4038 138.553 83.3893 137.995 84.057 137.135L90.0989 129.348C90.7665 128.487 91.0617 127.394 90.9194 126.309C90.7772 125.224 90.2091 124.236 89.3403 123.561L87.9643 122.494C88.3831 121.644 88.4929 120.672 88.2753 119.745C88.0577 118.817 87.526 117.99 86.7703 117.404C86.0146 116.817 85.0814 116.508 84.1288 116.528C83.1762 116.547 82.2628 116.895 81.5433 117.512L78.8569 115.427C78.5094 115.158 78.07 115.036 77.6354 115.088C77.2008 115.141 76.8066 115.364 76.5395 115.708L67.4767 127.389C67.2096 127.733 67.0916 128.17 67.1485 128.604C67.2054 129.038 67.4326 129.434 67.7801 129.703L70.4665 131.788C70.0478 132.638 69.9379 133.609 70.1555 134.537C70.3731 135.464 70.9048 136.291 71.6605 136.878C72.4162 137.464 73.3494 137.773 74.302 137.754C75.2546 137.734 76.168 137.387 76.8875 136.77ZM88.7884 128.331L82.7465 136.118C82.3443 136.632 81.7533 136.965 81.1022 137.044C80.4511 137.123 79.7927 136.941 79.2704 136.54L77.8945 135.472C78.3101 134.621 78.418 133.651 78.2001 132.725C77.9822 131.799 77.4517 130.972 76.6979 130.385L81.7329 123.896C82.4888 124.48 83.4209 124.789 84.3724 124.77C85.324 124.751 86.2368 124.405 86.9574 123.792L88.3333 124.859C88.8523 125.265 89.1913 125.858 89.2766 126.508C89.3618 127.159 89.1864 127.814 88.7884 128.331ZM72.1897 132.137L72.2149 132.105C72.3484 131.933 72.4074 131.714 72.379 131.497C72.3505 131.28 72.2369 131.082 72.0631 130.947L68.7871 128.405L77.85 116.725L81.126 119.267C81.2117 119.333 81.3095 119.382 81.414 119.411C81.5184 119.44 81.6273 119.447 81.7343 119.434C81.8413 119.42 81.9443 119.385 82.0374 119.331C82.1305 119.278 82.2118 119.206 82.2765 119.12L82.3017 119.088C82.6055 118.709 83.0153 118.43 83.4797 118.285C83.9442 118.139 84.4426 118.135 84.9125 118.271C85.3823 118.407 85.8028 118.678 86.1211 119.05C86.4394 119.422 86.6414 119.878 86.7018 120.362C86.7621 120.846 86.6782 121.335 86.4605 121.769C86.2427 122.203 85.9009 122.561 85.4778 122.8C85.0547 123.039 84.5692 123.147 84.0821 123.111C83.5951 123.075 83.1281 122.897 82.7399 122.598L79.4638 120.056C79.29 119.922 79.0703 119.861 78.853 119.887C78.6357 119.913 78.4386 120.025 78.3051 120.197C78.1716 120.369 78.1125 120.588 78.141 120.805C78.1694 121.022 78.2831 121.219 78.4568 121.354L80.4225 122.879L75.3875 129.368L73.4219 127.843C73.2481 127.709 73.0284 127.648 72.8111 127.674C72.5938 127.7 72.3967 127.812 72.2632 127.984C72.1297 128.156 72.0706 128.375 72.0991 128.592C72.1275 128.809 72.2411 129.006 72.4149 129.141L75.691 131.683C76.0783 131.984 76.369 132.391 76.5266 132.854C76.6842 133.316 76.7017 133.814 76.5768 134.284C76.452 134.754 76.1904 135.175 75.8249 135.495C75.4593 135.815 75.0062 136.019 74.5224 136.082C74.0385 136.145 73.5455 136.063 73.1053 135.848C72.6651 135.632 72.2973 135.293 72.0481 134.871C71.7989 134.45 71.6794 133.965 71.7046 133.479C71.7297 132.993 71.8985 132.526 72.1897 132.137Z" fill="black"/>
</g>
<g clip-path="url(#clip2_731_4028)">
<path d="M25.4406 73.9895L24.0647 72.9219C23.1958 72.2478 22.0973 71.9431 21.0108 72.0748C19.9243 72.2066 18.9388 72.7641 18.2712 73.6246L12.2293 81.4115C11.5616 82.272 11.2664 83.365 11.4087 84.4502C11.5509 85.5354 12.119 86.5237 12.9878 87.1979L14.3638 88.2655C13.9451 89.1156 13.8352 90.0868 14.0528 91.0144C14.2704 91.9421 14.8021 92.7691 15.5578 93.3554C16.3135 93.9418 17.2467 94.2514 18.1993 94.2317C19.1519 94.2121 20.0654 93.8644 20.7848 93.2476L23.4712 95.332C23.8187 95.6016 24.2581 95.7235 24.6927 95.6708C25.1273 95.6181 25.5215 95.3951 25.7886 95.0509L34.8514 83.3706C35.1185 83.0264 35.2366 82.5892 35.1797 82.1551C35.1228 81.721 34.8955 81.3257 34.548 81.056L31.8617 78.9716C32.2804 78.1215 32.3902 77.1504 32.1726 76.2227C31.955 75.2951 31.4233 74.468 30.6676 73.8817C29.9119 73.2954 28.9787 72.9858 28.0261 73.0054C27.0735 73.0251 26.1601 73.3727 25.4406 73.9895ZM13.5397 82.4282L19.5816 74.6413C19.9838 74.1273 20.5749 73.7947 21.2259 73.7157C21.877 73.6367 22.5354 73.8179 23.0577 74.2197L24.4336 75.2873C24.018 76.1378 23.9101 77.1079 24.128 78.0343C24.3459 78.9607 24.8764 79.787 25.6302 80.374L20.5953 86.8631C19.8394 86.2788 18.9072 85.9702 17.9557 85.9893C17.0042 86.0083 16.0913 86.3538 15.3708 86.9677L13.9948 85.9001C13.4758 85.494 13.1368 84.9012 13.0515 84.251C12.9663 83.6007 13.1417 82.9455 13.5397 82.4282ZM30.1384 78.6222L30.1133 78.6546C29.9797 78.8267 29.9207 79.0453 29.9491 79.2624C29.9776 79.4794 30.0912 79.6771 30.265 79.8119L33.541 82.3538L24.4782 94.0342L21.2021 91.4923C21.1165 91.4258 21.0186 91.3768 20.9142 91.3482C20.8098 91.3196 20.7009 91.3119 20.5938 91.3256C20.4868 91.3392 20.3838 91.374 20.2907 91.4278C20.1976 91.4816 20.1163 91.5535 20.0516 91.6392L20.0264 91.6716C19.7226 92.0498 19.3128 92.3291 18.8484 92.4745C18.3839 92.6198 17.8855 92.6247 17.4157 92.4886C16.9458 92.3525 16.5253 92.0815 16.207 91.7094C15.8887 91.3373 15.6867 90.8808 15.6264 90.3971C15.566 89.9134 15.6499 89.424 15.8677 88.9903C16.0854 88.5566 16.4272 88.1978 16.8503 87.959C17.2734 87.7202 17.7589 87.612 18.246 87.6479C18.733 87.6838 19.2 87.8623 19.5883 88.1609L22.8643 90.7028C23.0381 90.8377 23.2578 90.8986 23.4751 90.8723C23.6924 90.8459 23.8895 90.7344 24.023 90.5623C24.1565 90.3902 24.2156 90.1716 24.1871 89.9546C24.1587 89.7375 24.0451 89.5398 23.8713 89.405L21.9057 87.8799L26.9406 81.3908L28.9062 82.9159C29.08 83.0508 29.2997 83.1117 29.517 83.0854C29.7343 83.059 29.9314 82.9475 30.0649 82.7754C30.1985 82.6033 30.2575 82.3847 30.229 82.1677C30.2006 81.9506 30.087 81.753 29.9132 81.6181L26.6372 79.0762C26.2498 78.7756 25.9591 78.3684 25.8015 77.9056C25.6439 77.4429 25.6264 76.9453 25.7513 76.4753C25.8761 76.0053 26.1378 75.5839 26.5033 75.2641C26.8688 74.9442 27.3219 74.74 27.8058 74.6773C28.2896 74.6145 28.7826 74.696 29.2228 74.9114C29.663 75.1268 30.0308 75.4666 30.28 75.8881C30.5292 76.3095 30.6488 76.7939 30.6236 77.2803C30.5984 77.7668 30.4296 78.2336 30.1384 78.6222Z" fill="black"/>
</g>
<g clip-path="url(#clip3_731_4028)">
<path d="M100.727 106.39L102.103 107.457C102.972 108.132 104.071 108.436 105.157 108.305C106.244 108.173 107.229 107.615 107.897 106.755L113.939 98.9679C114.606 98.1074 114.902 97.0144 114.759 95.9292C114.617 94.844 114.049 93.8556 113.18 93.1815L111.804 92.1139C112.223 91.2638 112.333 90.2926 112.115 89.365C111.898 88.4373 111.366 87.6103 110.61 87.0239C109.854 86.4376 108.921 86.128 107.969 86.1477C107.016 86.1673 106.103 86.515 105.383 87.1318L102.697 85.0474C102.349 84.7777 101.91 84.6559 101.475 84.7086C101.041 84.7613 100.646 84.9843 100.379 85.3285L91.3165 97.0088C91.0495 97.353 90.9314 97.7902 90.9883 98.2243C91.0452 98.6584 91.2724 99.0537 91.62 99.3234L94.3063 101.408C93.8876 102.258 93.7777 103.229 93.9954 104.157C94.213 105.084 94.7447 105.911 95.5003 106.498C96.256 107.084 97.1892 107.394 98.1419 107.374C99.0945 107.354 100.008 107.007 100.727 106.39ZM112.628 97.9512L106.586 105.738C106.184 106.252 105.593 106.585 104.942 106.664C104.291 106.743 103.633 106.562 103.11 106.16L101.734 105.092C102.15 104.242 102.258 103.272 102.04 102.345C101.822 101.419 101.292 100.592 100.538 100.005L105.573 93.5163C106.329 94.1006 107.261 94.4092 108.212 94.3901C109.164 94.3711 110.077 94.0256 110.797 93.4117L112.173 94.4793C112.692 94.8854 113.031 95.4782 113.116 96.1284C113.202 96.7787 113.026 97.4339 112.628 97.9512ZM96.0295 101.757L96.0547 101.725C96.1882 101.553 96.2473 101.334 96.2188 101.117C96.1904 100.9 96.0768 100.702 95.903 100.567L92.6269 98.0256L101.69 86.3452L104.966 88.8871C105.052 88.9536 105.149 89.0026 105.254 89.0312C105.358 89.0598 105.467 89.0675 105.574 89.0538C105.681 89.0402 105.784 89.0054 105.877 88.9516C105.97 88.8978 106.052 88.8259 106.116 88.7402L106.142 88.7078C106.445 88.3296 106.855 88.0503 107.32 87.9049C107.784 87.7596 108.282 87.7547 108.752 87.8908C109.222 88.0269 109.643 88.2979 109.961 88.67C110.279 89.0421 110.481 89.4986 110.542 89.9823C110.602 90.466 110.518 90.9554 110.3 91.3891C110.083 91.8228 109.741 92.1816 109.318 92.4204C108.895 92.6592 108.409 92.7674 107.922 92.7315C107.435 92.6956 106.968 92.5171 106.58 92.2185L103.304 89.6766C103.13 89.5417 102.91 89.4808 102.693 89.5071C102.476 89.5335 102.278 89.645 102.145 89.8171C102.011 89.9892 101.952 90.2078 101.981 90.4248C102.009 90.6419 102.123 90.8395 102.297 90.9744L104.262 92.4995L99.2274 98.9886L97.2618 97.4635C97.088 97.3286 96.8683 97.2677 96.651 97.294C96.4337 97.3204 96.2366 97.4319 96.103 97.604C95.9695 97.7761 95.9105 97.9947 95.9389 98.2117C95.9674 98.4288 96.081 98.6264 96.2548 98.7613L99.5308 101.303C99.9181 101.604 100.209 102.011 100.366 102.474C100.524 102.937 100.542 103.434 100.417 103.904C100.292 104.374 100.03 104.795 99.6647 105.115C99.2992 105.435 98.846 105.639 98.3622 105.702C97.8784 105.765 97.3854 105.683 96.9452 105.468C96.505 105.253 96.1372 104.913 95.8879 104.491C95.6387 104.07 95.5192 103.586 95.5444 103.099C95.5696 102.613 95.7384 102.146 96.0295 101.757Z" fill="black"/>
</g>
<g clip-path="url(#clip4_731_4028)">
<path d="M49.2765 43.6077L47.9006 42.5401C47.0318 41.8659 45.9332 41.5612 44.8468 41.693C43.7603 41.8248 42.7748 42.3822 42.1071 43.2427L36.0652 51.0296C35.3975 51.8901 35.1024 52.9832 35.2446 54.0684C35.3869 55.1535 35.9549 56.1419 36.8238 56.8161L38.1997 57.8837C37.781 58.7338 37.6712 59.705 37.8888 60.6326C38.1064 61.5602 38.6381 62.3873 39.3937 62.9736C40.1494 63.56 41.0826 63.8695 42.0353 63.8499C42.9879 63.8302 43.9013 63.4826 44.6208 62.8658L47.3071 64.9502C47.6547 65.2198 48.0941 65.3417 48.5287 65.289C48.9633 65.2363 49.3574 65.0133 49.6245 64.6691L58.6874 52.9888C58.9544 52.6445 59.0725 52.2073 59.0156 51.7733C58.9587 51.3392 58.7315 50.9438 58.3839 50.6742L55.6976 48.5898C56.1163 47.7397 56.2262 46.7685 56.0086 45.8409C55.7909 44.9133 55.2592 44.0862 54.5036 43.4999C53.7479 42.9135 52.8147 42.6039 51.8621 42.6236C50.9094 42.6432 49.996 42.9909 49.2765 43.6077ZM37.3756 52.0464L43.4175 44.2595C43.8198 43.7455 44.4108 43.4128 45.0619 43.3339C45.7129 43.2549 46.3713 43.4361 46.8936 43.8379L48.2696 44.9055C47.8539 45.756 47.746 46.726 47.964 47.6525C48.1819 48.5789 48.7124 49.4052 49.4661 49.9922L44.4312 56.4813C43.6753 55.897 42.7432 55.5884 41.7916 55.6074C40.8401 55.6265 39.9273 55.972 39.2067 56.5858L37.8308 55.5182C37.3118 55.1121 36.9727 54.5194 36.8875 53.8691C36.8022 53.2188 36.9777 52.5637 37.3756 52.0464ZM53.9744 48.2404L53.9492 48.2728C53.8157 48.4449 53.7566 48.6635 53.7851 48.8805C53.8135 49.0976 53.9271 49.2953 54.1009 49.4301L57.377 51.972L48.3141 63.6523L45.0381 61.1104C44.9524 61.044 44.8545 60.995 44.7501 60.9664C44.6457 60.9378 44.5368 60.9301 44.4298 60.9437C44.3228 60.9574 44.2197 60.9921 44.1266 61.046C44.0336 61.0998 43.9523 61.1716 43.8875 61.2573L43.8624 61.2898C43.5586 61.668 43.1488 61.9473 42.6843 62.0926C42.2199 62.238 41.7215 62.2429 41.2516 62.1068C40.7817 61.9707 40.3613 61.6996 40.043 61.3276C39.7247 60.9555 39.5227 60.499 39.4623 60.0153C39.4019 59.5316 39.4859 59.0422 39.7036 58.6085C39.9213 58.1747 40.2632 57.816 40.6863 57.5772C41.1094 57.3384 41.5949 57.2302 42.0819 57.2661C42.569 57.302 43.0359 57.4805 43.4242 57.7791L46.7003 60.321C46.874 60.4558 47.0937 60.5168 47.311 60.4904C47.5283 60.4641 47.7254 60.3526 47.859 60.1805C47.9925 60.0084 48.0515 59.7898 48.0231 59.5727C47.9946 59.3557 47.881 59.158 47.7072 59.0232L45.7416 57.498L50.7765 51.009L52.7422 52.5341C52.9159 52.6689 53.1356 52.7299 53.3529 52.7035C53.5702 52.6772 53.7673 52.5657 53.9009 52.3936C54.0344 52.2215 54.0934 52.0029 54.065 51.7858C54.0365 51.5688 53.9229 51.3711 53.7491 51.2363L50.4731 48.6944C50.0858 48.3938 49.7951 47.9865 49.6375 47.5238C49.4798 47.0611 49.4624 46.5635 49.5872 46.0935C49.7121 45.6235 49.9737 45.2021 50.3392 44.8822C50.7047 44.5623 51.1579 44.3582 51.6417 44.2954C52.1256 44.2327 52.6185 44.3141 53.0587 44.5296C53.4989 44.745 53.8667 45.0848 54.116 45.5062C54.3652 45.9277 54.4847 46.4121 54.4595 46.8985C54.4343 47.3849 54.2655 47.8518 53.9744 48.2404Z" fill="black"/>
</g>
<g clip-path="url(#clip5_731_4028)">
<path d="M124.563 76.0071L125.939 77.0747C126.808 77.7488 127.907 78.0535 128.993 77.9218C130.08 77.79 131.065 77.2325 131.733 76.372L137.775 68.5851C138.442 67.7246 138.737 66.6316 138.595 65.5464C138.453 64.4612 137.885 63.4728 137.016 62.7987L135.64 61.7311C136.059 60.8809 136.169 59.9098 135.951 58.9822C135.733 58.0545 135.202 57.2275 134.446 56.6411C133.69 56.0548 132.757 55.7452 131.805 55.7649C130.852 55.7845 129.939 56.1322 129.219 56.749L126.533 54.6646C126.185 54.3949 125.746 54.273 125.311 54.3258C124.877 54.3785 124.482 54.6014 124.215 54.9457L115.152 66.626C114.885 66.9702 114.767 67.4074 114.824 67.8415C114.881 68.2756 115.108 68.6709 115.456 68.9406L118.142 71.0249C117.724 71.8751 117.614 72.8462 117.831 73.7739C118.049 74.7015 118.581 75.5285 119.336 76.1149C120.092 76.7012 121.025 77.0108 121.978 76.9911C122.93 76.9715 123.844 76.6238 124.563 76.0071ZM136.464 67.5684L130.422 75.3553C130.02 75.8692 129.429 76.2019 128.778 76.2809C128.127 76.3599 127.469 76.1787 126.946 75.7768L125.57 74.7092C125.986 73.8588 126.094 72.8887 125.876 71.9623C125.658 71.0358 125.127 70.2096 124.374 69.6225L129.409 63.1335C130.165 63.7178 131.097 64.0264 132.048 64.0073C133 63.9883 133.913 63.6428 134.633 63.0289L136.009 64.0965C136.528 64.5026 136.867 65.0954 136.952 65.7456C137.038 66.3959 136.862 67.051 136.464 67.5684ZM119.865 71.3744L119.891 71.3419C120.024 71.1698 120.083 70.9512 120.055 70.7342C120.026 70.5172 119.913 70.3195 119.739 70.1847L116.463 67.6428L125.526 55.9624L128.802 58.5043C128.887 58.5708 128.985 58.6198 129.09 58.6484C129.194 58.677 129.303 58.6847 129.41 58.671C129.517 58.6574 129.62 58.6226 129.713 58.5688C129.806 58.5149 129.888 58.4431 129.952 58.3574L129.977 58.325C130.281 57.9468 130.691 57.6675 131.156 57.5221C131.62 57.3768 132.118 57.3718 132.588 57.5079C133.058 57.644 133.479 57.9151 133.797 58.2872C134.115 58.6593 134.317 59.1158 134.378 59.5995C134.438 60.0832 134.354 60.5726 134.136 61.0063C133.919 61.44 133.577 61.7987 133.154 62.0375C132.73 62.2763 132.245 62.3846 131.758 62.3487C131.271 62.3127 130.804 62.1343 130.416 61.8357L127.14 59.2937C126.966 59.1589 126.746 59.098 126.529 59.1243C126.312 59.1507 126.114 59.2622 125.981 59.4343C125.847 59.6064 125.788 59.825 125.817 60.042C125.845 60.2591 125.959 60.4567 126.133 60.5916L128.098 62.1167L123.063 68.6058L121.098 67.0806C120.924 66.9458 120.704 66.8849 120.487 66.9112C120.27 66.9376 120.073 67.0491 119.939 67.2212C119.805 67.3933 119.746 67.6119 119.775 67.8289C119.803 68.046 119.917 68.2436 120.091 68.3785L123.367 70.9204C123.754 71.221 124.045 71.6282 124.202 72.091C124.36 72.5537 124.377 73.0513 124.253 73.5213C124.128 73.9912 123.866 74.4126 123.501 74.7325C123.135 75.0524 122.682 75.2566 122.198 75.3193C121.714 75.3821 121.221 75.3006 120.781 75.0852C120.341 74.8698 119.973 74.53 119.724 74.1085C119.475 73.6871 119.355 73.2027 119.38 72.7163C119.406 72.2298 119.574 71.763 119.865 71.3744Z" fill="black"/>
</g>
<g clip-path="url(#clip6_731_4028)">
<path d="M73.1164 13.2268L71.7405 12.1592C70.8716 11.4851 69.7731 11.1804 68.6866 11.3121C67.6001 11.4439 66.6146 12.0014 65.947 12.8619L59.905 20.6488C59.2374 21.5093 58.9422 22.6023 59.0845 23.6875C59.2267 24.7727 59.7948 25.7611 60.6636 26.4352L62.0396 27.5028C61.6209 28.3529 61.511 29.3241 61.7286 30.2517C61.9462 31.1794 62.4779 32.0064 63.2336 32.5928C63.9893 33.1791 64.9225 33.4887 65.8751 33.469C66.8277 33.4494 67.7411 33.1017 68.4606 32.4849L71.147 34.5693C71.4945 34.839 71.9339 34.9608 72.3685 34.9081C72.8031 34.8554 73.1973 34.6324 73.4644 34.2882L82.5272 22.6079C82.7943 22.2637 82.9124 21.8265 82.8555 21.3924C82.7985 20.9583 82.5713 20.563 82.2238 20.2933L79.5374 18.209C79.9561 17.3588 80.066 16.3877 79.8484 15.46C79.6308 14.5324 79.0991 13.7053 78.3434 13.119C77.5877 12.5327 76.6545 12.2231 75.7019 12.2427C74.7493 12.2624 73.8359 12.6101 73.1164 13.2268ZM61.2155 21.6655L67.2574 13.8786C67.6596 13.3647 68.2506 13.032 68.9017 12.953C69.5528 12.874 70.2112 13.0552 70.7335 13.457L72.1094 14.5246C71.6938 15.3751 71.5859 16.3452 71.8038 17.2716C72.0217 18.198 72.5522 19.0243 73.306 19.6113L68.271 26.1004C67.5152 25.5161 66.583 25.2075 65.6315 25.2266C64.68 25.2456 63.7671 25.5911 63.0465 26.205L61.6706 25.1374C61.1516 24.7313 60.8126 24.1385 60.7273 23.4883C60.6421 22.838 60.8175 22.1828 61.2155 21.6655ZM77.8142 17.8595L77.789 17.8919C77.6555 18.064 77.5965 18.2827 77.6249 18.4997C77.6534 18.7167 77.767 18.9144 77.9408 19.0492L81.2168 21.5911L72.1539 33.2715L68.8779 30.7296C68.7922 30.6631 68.6944 30.6141 68.59 30.5855C68.4855 30.5569 68.3767 30.5492 68.2696 30.5629C68.1626 30.5765 68.0596 30.6113 67.9665 30.6651C67.8734 30.7189 67.7921 30.7908 67.7274 30.8765L67.7022 30.9089C67.3984 31.2871 66.9886 31.5664 66.5242 31.7118C66.0597 31.8571 65.5613 31.862 65.0914 31.7259C64.6216 31.5898 64.2011 31.3188 63.8828 30.9467C63.5645 30.5746 63.3625 30.1181 63.3021 29.6344C63.2418 29.1507 63.3257 28.6613 63.5434 28.2276C63.7612 27.7939 64.103 27.4351 64.5261 27.1963C64.9492 26.9575 65.4347 26.8493 65.9218 26.8852C66.4088 26.9211 66.8758 27.0996 67.2641 27.3982L70.5401 29.9401C70.7139 30.075 70.9336 30.1359 71.1509 30.1096C71.3682 30.0832 71.5653 29.9717 71.6988 29.7996C71.8323 29.6275 71.8914 29.4089 71.8629 29.1919C71.8345 28.9748 71.7209 28.7772 71.5471 28.6423L69.5815 27.1172L74.6164 20.6281L76.582 22.1532C76.7558 22.2881 76.9755 22.349 77.1928 22.3227C77.4101 22.2963 77.6072 22.1848 77.7407 22.0127C77.8742 21.8406 77.9333 21.622 77.9048 21.405C77.8764 21.1879 77.7628 20.9903 77.589 20.8554L74.3129 18.3135C73.9256 18.0129 73.6349 17.6057 73.4773 17.1429C73.3197 16.6802 73.3022 16.1826 73.4271 15.7126C73.5519 15.2426 73.8135 14.8213 74.1791 14.5014C74.5446 14.1815 74.9977 13.9773 75.4816 13.9146C75.9654 13.8518 76.4584 13.9333 76.8986 14.1487C77.3388 14.3641 77.7066 14.7039 77.9558 15.1254C78.205 15.5468 78.3245 16.0312 78.2994 16.5176C78.2742 17.0041 78.1054 17.4709 77.8142 17.8595Z" fill="black"/>
</g>
<path d="M76.1398 87.84C73.9865 87.84 72.1391 87.3867 70.5978 86.48C69.0565 85.5507 67.8778 84.2133 67.0618 82.468C66.2458 80.7227 65.8378 78.5693 65.8378 76.008C65.8378 73.288 66.3251 70.9873 67.2998 69.106C68.2971 67.2247 69.6685 65.7967 71.4138 64.822C73.1818 63.8473 75.2105 63.36 77.4998 63.36C78.7011 63.36 79.8458 63.4847 80.9338 63.734C82.0445 63.9833 82.9851 64.3687 83.7558 64.89L82.1238 68.222C81.4665 67.7913 80.7525 67.4967 79.9818 67.338C79.2338 67.1567 78.4405 67.066 77.6018 67.066C75.3578 67.066 73.5785 67.7573 72.2638 69.14C70.9491 70.5227 70.2918 72.5627 70.2918 75.26C70.2918 75.6907 70.3031 76.2007 70.3258 76.79C70.3485 77.3567 70.4278 77.9347 70.5638 78.524L69.2038 77.028C69.6118 76.0987 70.1671 75.328 70.8698 74.716C71.5951 74.0813 72.4451 73.6053 73.4198 73.288C74.4171 72.9707 75.4938 72.812 76.6498 72.812C78.2138 72.812 79.6078 73.118 80.8318 73.73C82.0558 74.3193 83.0305 75.1693 83.7558 76.28C84.4811 77.368 84.8438 78.6487 84.8438 80.122C84.8438 81.686 84.4585 83.046 83.6878 84.202C82.9171 85.358 81.8745 86.2533 80.5598 86.888C79.2451 87.5227 77.7718 87.84 76.1398 87.84ZM75.9018 84.372C76.8085 84.372 77.6131 84.2133 78.3158 83.896C79.0185 83.556 79.5625 83.08 79.9478 82.468C80.3558 81.856 80.5598 81.142 80.5598 80.326C80.5598 79.0793 80.1291 78.0933 79.2678 77.368C78.4065 76.6427 77.2505 76.28 75.7998 76.28C74.8478 76.28 74.0091 76.4613 73.2838 76.824C72.5811 77.164 72.0145 77.64 71.5838 78.252C71.1758 78.864 70.9718 79.5667 70.9718 80.36C70.9718 81.0853 71.1645 81.754 71.5498 82.366C71.9351 82.978 72.4905 83.4653 73.2158 83.828C73.9638 84.1907 74.8591 84.372 75.9018 84.372Z" fill="black"/>
</g>
<defs>
<clipPath id="clip0_731_4028">
<rect width="150" height="150" fill="white"/>
</clipPath>
<clipPath id="clip1_731_4028">
<rect width="26.2826" height="26.5378" fill="white" transform="translate(97.7539 124.892) rotate(127.808)"/>
</clipPath>
<clipPath id="clip2_731_4028">
<rect width="26.2826" height="26.5378" fill="white" transform="translate(4.57422 85.8672) rotate(-52.1919)"/>
</clipPath>
<clipPath id="clip3_731_4028">
<rect width="26.2826" height="26.5378" fill="white" transform="translate(121.594 94.5122) rotate(127.808)"/>
</clipPath>
<clipPath id="clip4_731_4028">
<rect width="26.2826" height="26.5378" fill="white" transform="translate(28.4102 55.4854) rotate(-52.1919)"/>
</clipPath>
<clipPath id="clip5_731_4028">
<rect width="26.2826" height="26.5378" fill="white" transform="translate(145.43 64.1294) rotate(127.808)"/>
</clipPath>
<clipPath id="clip6_731_4028">
<rect width="26.2826" height="26.5378" fill="white" transform="translate(52.25 25.1045) rotate(-52.1919)"/>
</clipPath>
</defs>
</svg>
