<svg width="150" height="150" viewBox="0 0 150 150" fill="none" xmlns="http://www.w3.org/2000/svg">
<rect x="120.688" y="114.841" width="39.3001" height="114.693" rx="4.5" transform="rotate(150 120.688 114.841)" fill="#FFDF7F" stroke="black"/>
<g clip-path="url(#clip0_731_4032)">
<path d="M132.912 96.5892L134.42 95.7184C135.373 95.1686 136.07 94.2665 136.358 93.2107C136.647 92.155 136.503 91.0319 135.958 90.0887L131.03 81.5532C130.486 80.6099 129.585 79.9238 128.526 79.6456C127.468 79.3674 126.338 79.5201 125.386 80.07L123.878 80.9407C123.249 80.2319 122.391 79.7634 121.45 79.6145C120.509 79.4656 119.542 79.6455 118.714 80.1238C117.885 80.602 117.246 81.3492 116.905 82.2386C116.563 83.1281 116.54 84.1052 116.839 85.0043L113.895 86.7044C113.514 86.9244 113.235 87.2852 113.119 87.7075C113.004 88.1298 113.062 88.579 113.279 88.9563L120.671 101.76C120.889 102.137 121.25 102.411 121.673 102.523C122.096 102.634 122.548 102.573 122.929 102.353L125.874 100.653C126.503 101.362 127.361 101.83 128.302 101.979C129.243 102.128 130.209 101.948 131.038 101.47C131.866 100.992 132.505 100.244 132.847 99.3549C133.188 98.4654 133.212 97.4883 132.912 96.5892ZM129.594 82.3825L134.522 90.918C134.846 91.4846 134.93 92.1575 134.758 92.7902C134.585 93.4228 134.168 93.964 133.599 94.2958L132.091 95.1666C131.46 94.4606 130.603 93.9942 129.663 93.8461C128.723 93.6979 127.757 93.877 126.929 94.3532L122.822 87.2403C123.649 86.7611 124.287 86.0146 124.628 85.1263C124.97 84.2381 124.995 83.2624 124.699 82.3633L126.207 81.4925C126.779 81.1654 127.456 81.0753 128.09 81.242C128.725 81.4087 129.265 81.8186 129.594 82.3825ZM126.848 99.1892L126.828 99.1537C126.719 98.965 126.539 98.8278 126.327 98.7722C126.115 98.7165 125.889 98.7471 125.699 98.857L122.108 100.93L114.716 88.127L118.307 86.0537C118.401 85.9995 118.483 85.9274 118.549 85.8415C118.615 85.7556 118.663 85.6577 118.691 85.5535C118.719 85.4492 118.726 85.3407 118.711 85.2342C118.696 85.1276 118.66 85.0253 118.605 84.933L118.585 84.8974C118.349 84.4732 118.246 83.9883 118.286 83.5034C118.327 83.0184 118.511 82.5551 118.814 82.1714C119.118 81.7878 119.528 81.5008 119.993 81.3466C120.457 81.1925 120.956 81.1778 121.427 81.3046C121.898 81.4314 122.319 81.694 122.638 82.0594C122.958 82.4249 123.161 82.8769 123.222 83.3588C123.283 83.8408 123.2 84.3312 122.983 84.7686C122.766 85.206 122.424 85.571 122.001 85.8177L118.41 87.891C118.22 88.0009 118.08 88.1814 118.022 88.3925C117.965 88.6037 117.994 88.8283 118.102 89.0169C118.211 89.2056 118.392 89.3428 118.603 89.3984C118.815 89.4541 119.041 89.4235 119.231 89.3136L121.386 88.0696L125.493 95.1825L123.338 96.4265C123.148 96.5365 123.008 96.7169 122.95 96.928C122.893 97.1392 122.922 97.3638 123.03 97.5524C123.139 97.7411 123.32 97.8783 123.531 97.934C123.743 97.9896 123.969 97.9591 124.159 97.8491L127.75 95.7758C128.175 95.5307 128.662 95.4154 129.15 95.4442C129.638 95.4731 130.105 95.6448 130.493 95.938C130.881 96.2311 131.173 96.6325 131.331 97.0917C131.489 97.551 131.507 98.0477 131.382 98.5194C131.257 98.9911 130.996 99.4168 130.63 99.743C130.264 100.069 129.811 100.281 129.326 100.353C128.842 100.425 128.348 100.352 127.907 100.145C127.467 99.9382 127.098 99.6056 126.848 99.1892Z" fill="black"/>
</g>
<g clip-path="url(#clip1_731_4032)">
<path d="M55.3534 120.508L53.8452 121.379C52.8928 121.929 52.1958 122.831 51.9074 123.887C51.619 124.943 51.763 126.066 52.3075 127.009L57.2355 135.544C57.7801 136.488 58.6807 137.174 59.7392 137.452C60.7978 137.73 61.9275 137.578 62.8799 137.028L64.3881 136.157C65.0171 136.866 65.8748 137.334 66.8159 137.483C67.757 137.632 68.7237 137.452 69.552 136.974C70.3803 136.496 71.0195 135.748 71.3611 134.859C71.7027 133.97 71.7258 132.992 71.4265 132.093L74.3711 130.393C74.752 130.173 75.0309 129.812 75.1462 129.39C75.2615 128.968 75.204 128.519 74.9861 128.141L67.5942 115.338C67.3763 114.961 67.0161 114.686 66.5927 114.575C66.1693 114.464 65.7174 114.525 65.3364 114.745L62.3918 116.445C61.7628 115.736 60.9051 115.268 59.964 115.119C59.0229 114.97 58.0562 115.15 57.2279 115.628C56.3996 116.106 55.7604 116.853 55.4188 117.743C55.0772 118.632 55.0541 119.609 55.3534 120.508ZM58.6719 134.715L53.744 126.18C53.42 125.613 53.3352 124.94 53.508 124.308C53.6808 123.675 54.0972 123.134 54.6666 122.802L56.1748 121.931C56.8052 122.637 57.6627 123.103 58.6028 123.252C59.5429 123.4 60.5084 123.221 61.3366 122.744L65.4433 129.857C64.6168 130.337 63.9789 131.083 63.6372 131.971C63.2954 132.86 63.2705 133.835 63.5668 134.734L62.0585 135.605C61.4865 135.932 60.8096 136.022 60.1753 135.856C59.541 135.689 59.0006 135.279 58.6719 134.715ZM61.4174 117.908L61.4379 117.944C61.5468 118.133 61.7269 118.27 61.9386 118.326C62.1503 118.381 62.3763 118.351 62.5668 118.241L66.1578 116.167L73.5497 128.971L69.9587 131.044C69.8648 131.098 69.7825 131.17 69.7166 131.256C69.6507 131.342 69.6024 131.44 69.5746 131.544C69.5469 131.648 69.5401 131.757 69.5548 131.863C69.5695 131.97 69.6053 132.072 69.6602 132.165L69.6807 132.2C69.9162 132.624 70.02 133.109 69.9791 133.594C69.9383 134.079 69.7546 134.543 69.4511 134.926C69.1476 135.31 68.7378 135.597 68.2731 135.751C67.8084 135.905 67.3094 135.92 66.8387 135.793C66.368 135.666 65.9466 135.404 65.6272 135.038C65.3079 134.673 65.1048 134.221 65.0435 133.739C64.9822 133.257 65.0654 132.766 65.2826 132.329C65.4998 131.892 65.8414 131.527 66.2646 131.28L69.8556 129.207C70.0461 129.097 70.1855 128.916 70.2432 128.705C70.3008 128.494 70.2721 128.269 70.1631 128.081C70.0542 127.892 69.8741 127.755 69.6624 127.699C69.4507 127.644 69.2248 127.674 69.0343 127.784L66.8797 129.028L62.773 121.915L64.9276 120.671C65.1181 120.561 65.2575 120.381 65.3152 120.17C65.3729 119.958 65.3441 119.734 65.2352 119.545C65.1262 119.357 64.9461 119.219 64.7344 119.164C64.5227 119.108 64.2968 119.139 64.1063 119.249L60.5153 121.322C60.0907 121.567 59.6038 121.682 59.1158 121.653C58.6278 121.625 58.1605 121.453 57.7724 121.16C57.3844 120.867 57.0931 120.465 56.9349 120.006C56.7768 119.547 56.7589 119.05 56.8836 118.578C57.0082 118.107 57.2699 117.681 57.6356 117.355C58.0013 117.028 58.4549 116.816 58.9392 116.745C59.4236 116.673 59.9172 116.745 60.3581 116.952C60.799 117.159 61.1675 117.492 61.4174 117.908Z" fill="black"/>
</g>
<g clip-path="url(#clip2_731_4032)">
<path d="M113.787 63.0423L115.295 62.1716C116.248 61.6217 116.945 60.7197 117.233 59.6639C117.522 58.6081 117.378 57.4851 116.833 56.5418L111.905 48.0063C111.361 47.0631 110.46 46.3769 109.401 46.0987C108.343 45.8206 107.213 45.9732 106.261 46.5231L104.753 47.3939C104.124 46.6851 103.266 46.2165 102.325 46.0676C101.384 45.9187 100.417 46.0987 99.5886 46.5769C98.7603 47.0552 98.1212 47.8023 97.7796 48.6918C97.4379 49.5812 97.4148 50.5583 97.7142 51.4575L94.7696 53.1575C94.3886 53.3775 94.1098 53.7383 93.9944 54.1606C93.8791 54.5829 93.9367 55.0321 94.1545 55.4094L101.546 68.2127C101.764 68.59 102.125 68.8645 102.548 68.9757C102.971 69.087 103.423 69.0259 103.804 68.806L106.749 67.1059C107.378 67.8147 108.236 68.2833 109.177 68.4321C110.118 68.581 111.084 68.4011 111.913 67.9229C112.741 67.4446 113.38 66.6975 113.722 65.808C114.063 64.9185 114.087 63.9415 113.787 63.0423ZM110.469 48.8356L115.397 57.3711C115.721 57.9377 115.805 58.6106 115.633 59.2433C115.46 59.8759 115.043 60.4171 114.474 60.749L112.966 61.6197C112.335 60.9137 111.478 60.4474 110.538 60.2992C109.598 60.1511 108.632 60.3302 107.804 60.8064L103.697 53.6934C104.524 53.2142 105.162 52.4677 105.503 51.5795C105.845 50.6912 105.87 49.7155 105.574 48.8164L107.082 47.9457C107.654 47.6185 108.331 47.5285 108.965 47.6952C109.6 47.8618 110.14 48.2717 110.469 48.8356ZM107.723 65.6424L107.703 65.6068C107.594 65.4181 107.414 65.2809 107.202 65.2253C106.99 65.1696 106.764 65.2002 106.574 65.3102L102.983 67.3834L95.5909 54.5801L99.1819 52.5069C99.2758 52.4527 99.3581 52.3805 99.424 52.2946C99.49 52.2088 99.5382 52.1109 99.566 52.0066C99.5938 51.9023 99.6005 51.7938 99.5858 51.6873C99.5711 51.5808 99.5353 51.4784 99.4804 51.3861L99.4599 51.3505C99.2244 50.9264 99.1206 50.4414 99.1615 49.9565C99.2023 49.4715 99.386 49.0082 99.6895 48.6245C99.993 48.2409 100.403 47.954 100.868 47.7998C101.332 47.6456 101.831 47.631 102.302 47.7578C102.773 47.8846 103.194 48.1471 103.513 48.5126C103.833 48.878 104.036 49.33 104.097 49.812C104.158 50.2939 104.075 50.7843 103.858 51.2217C103.641 51.6592 103.299 52.0241 102.876 52.2708L99.285 54.3441C99.0945 54.4541 98.9551 54.6345 98.8975 54.8456C98.8398 55.0568 98.8686 55.2814 98.9775 55.47C99.0864 55.6587 99.2665 55.7959 99.4782 55.8516C99.6899 55.9072 99.9159 55.8767 100.106 55.7667L102.261 54.5227L106.368 61.6357L104.213 62.8796C104.023 62.9896 103.883 63.17 103.825 63.3812C103.768 63.5923 103.797 63.8169 103.905 64.0056C104.014 64.1942 104.195 64.3315 104.406 64.3871C104.618 64.4427 104.844 64.4122 105.034 64.3022L108.625 62.2289C109.05 61.9839 109.537 61.8685 110.025 61.8974C110.513 61.9262 110.98 62.098 111.368 62.3911C111.756 62.6842 112.048 63.0856 112.206 63.5449C112.364 64.0041 112.382 64.5008 112.257 64.9725C112.132 65.4442 111.871 65.8699 111.505 66.1961C111.139 66.5224 110.686 66.7346 110.201 66.8062C109.717 66.8777 109.223 66.8054 108.782 66.5984C108.342 66.3913 107.973 66.0587 107.723 65.6424Z" fill="black"/>
</g>
<g clip-path="url(#clip3_731_4032)">
<path d="M36.2206 86.963L34.7124 87.8338C33.76 88.3837 33.063 89.2857 32.7746 90.3415C32.4862 91.3973 32.6302 92.5203 33.1747 93.4636L38.1027 101.999C38.6473 102.942 39.5479 103.628 40.6064 103.907C41.6649 104.185 42.7947 104.032 43.7471 103.482L45.2553 102.612C45.8843 103.32 46.742 103.789 47.6831 103.938C48.6242 104.087 49.5908 103.907 50.4192 103.428C51.2475 102.95 51.8866 102.203 52.2283 101.314C52.5699 100.424 52.593 99.4471 52.2936 98.5479L55.2383 96.8478C55.6192 96.6279 55.898 96.2671 56.0134 95.8448C56.1287 95.4225 56.0712 94.9732 55.8533 94.5959L48.4613 81.7926C48.2435 81.4154 47.8833 81.1409 47.4599 81.0296C47.0365 80.9184 46.5846 80.9794 46.2036 81.1994L43.259 82.8994C42.63 82.1906 41.7723 81.7221 40.8312 81.5732C39.89 81.4243 38.9234 81.6043 38.0951 82.0825C37.2667 82.5607 36.6276 83.3079 36.286 84.1974C35.9444 85.0868 35.9213 86.0639 36.2206 86.963ZM39.5391 101.17L34.6111 92.6342C34.2872 92.0677 34.2024 91.3948 34.3752 90.7621C34.548 90.1294 34.9644 89.5882 35.5337 89.2564L37.042 88.3856C37.6724 89.0917 38.5299 89.558 39.47 89.7062C40.4101 89.8543 41.3755 89.6752 42.2038 89.199L46.3105 96.312C45.4839 96.7911 44.8461 97.5377 44.5044 98.4259C44.1626 99.3142 44.1377 100.29 44.4339 101.189L42.9257 102.06C42.3537 102.387 41.6768 102.477 41.0425 102.31C40.4082 102.144 39.8678 101.734 39.5391 101.17ZM42.2845 84.363L42.3051 84.3986C42.414 84.5872 42.5941 84.7245 42.8058 84.7801C43.0175 84.8357 43.2435 84.8052 43.4339 84.6952L47.0249 82.622L54.4169 95.4253L50.8259 97.4985C50.732 97.5527 50.6497 97.6249 50.5838 97.7107C50.5178 97.7966 50.4696 97.8945 50.4418 97.9988C50.414 98.103 50.4073 98.2116 50.422 98.3181C50.4367 98.4246 50.4725 98.527 50.5274 98.6193L50.5479 98.6548C50.7834 99.079 50.8872 99.564 50.8463 100.049C50.8055 100.534 50.6218 100.997 50.3183 101.381C50.0148 101.764 49.605 102.051 49.1403 102.206C48.6755 102.36 48.1766 102.374 47.7059 102.248C47.2352 102.121 46.8138 101.858 46.4944 101.493C46.1751 101.127 45.972 100.675 45.9107 100.193C45.8494 99.7115 45.9326 99.2211 46.1498 98.7836C46.367 98.3462 46.7086 97.9813 47.1318 97.7345L50.7228 95.6613C50.9133 95.5513 51.0527 95.3709 51.1104 95.1597C51.168 94.9486 51.1392 94.724 51.0303 94.5353C50.9214 94.3467 50.7413 94.2094 50.5296 94.1538C50.3179 94.0982 50.0919 94.1287 49.9015 94.2387L47.7469 95.4826L43.6402 88.3697L45.7948 87.1257C45.9853 87.0158 46.1247 86.8354 46.1824 86.6242C46.24 86.4131 46.2113 86.1884 46.1023 85.9998C45.9934 85.8111 45.8133 85.6739 45.6016 85.6183C45.3899 85.5627 45.164 85.5932 44.9735 85.7032L41.3825 87.7764C40.9578 88.0215 40.471 88.1369 39.983 88.108C39.495 88.0792 39.0276 87.9074 38.6396 87.6143C38.2516 87.3212 37.9603 86.9198 37.8021 86.4605C37.644 86.0012 37.6261 85.5046 37.7508 85.0329C37.8754 84.5612 38.1371 84.1355 38.5028 83.8092C38.8685 83.483 39.322 83.2708 39.8064 83.1992C40.2908 83.1276 40.7844 83.1999 41.2253 83.407C41.6662 83.614 42.0347 83.9466 42.2845 84.363Z" fill="black"/>
</g>
<g clip-path="url(#clip4_731_4032)">
<path d="M94.6544 29.4974L96.1626 28.6266C97.115 28.0768 97.812 27.1747 98.1004 26.1189C98.3888 25.0632 98.2448 23.9401 97.7003 22.9969L92.7723 14.4614C92.2277 13.5181 91.3271 12.832 90.2686 12.5538C89.2101 12.2757 88.0803 12.4283 87.1279 12.9782L85.6197 13.8489C84.9907 13.1401 84.133 12.6716 83.1919 12.5227C82.2508 12.3738 81.2842 12.5537 80.4558 13.032C79.6275 13.5102 78.9884 14.2574 78.6467 15.1469C78.3051 16.0363 78.282 17.0134 78.5814 17.9125L75.6367 19.6126C75.2558 19.8326 74.977 20.1934 74.8616 20.6157C74.7463 21.038 74.8038 21.4872 75.0217 21.8645L82.4137 34.6678C82.6315 35.0451 82.9917 35.3196 83.4151 35.4308C83.8385 35.5421 84.2904 35.481 84.6714 35.2611L87.616 33.561C88.245 34.2698 89.1027 34.7383 90.0438 34.8872C90.985 35.0361 91.9516 34.8562 92.7799 34.3779C93.6083 33.8997 94.2474 33.1526 94.589 32.2631C94.9306 31.3736 94.9537 30.3965 94.6544 29.4974ZM91.3359 15.2907L96.2639 23.8262C96.5878 24.3928 96.6726 25.0657 96.4998 25.6984C96.327 26.331 95.9106 26.8722 95.3413 27.204L93.833 28.0748C93.2026 27.3688 92.3451 26.9024 91.405 26.7543C90.4649 26.6062 89.4995 26.7852 88.6712 27.2614L84.5645 20.1485C85.3911 19.6693 86.0289 18.9228 86.3706 18.0345C86.7124 17.1463 86.7373 16.1706 86.4411 15.2715L87.9493 14.4007C88.5213 14.0736 89.1982 13.9835 89.8325 14.1502C90.4668 14.3169 91.0072 14.7268 91.3359 15.2907ZM88.5905 32.0974L88.5699 32.0619C88.461 31.8732 88.2809 31.736 88.0692 31.6804C87.8575 31.6247 87.6315 31.6553 87.4411 31.7652L83.8501 33.8385L76.4581 21.0352L80.0491 18.9619C80.143 18.9077 80.2253 18.8356 80.2912 18.7497C80.3572 18.6638 80.4054 18.5659 80.4332 18.4617C80.461 18.3574 80.4677 18.2489 80.453 18.1424C80.4383 18.0358 80.4025 17.9335 80.3476 17.8412L80.3271 17.8056C80.0916 17.3814 79.9878 16.8965 80.0287 16.4116C80.0695 15.9266 80.2532 15.4633 80.5567 15.0796C80.8602 14.696 81.27 14.409 81.7347 14.2548C82.1995 14.1007 82.6984 14.086 83.1691 14.2128C83.6398 14.3396 84.0612 14.6022 84.3806 14.9676C84.6999 15.3331 84.903 15.7851 84.9643 16.267C85.0256 16.749 84.9424 17.2394 84.7252 17.6768C84.508 18.1142 84.1664 18.4792 83.7432 18.7259L80.1522 20.7992C79.9617 20.9091 79.8223 21.0896 79.7646 21.3007C79.707 21.5119 79.7358 21.7365 79.8447 21.9251C79.9536 22.1138 80.1337 22.251 80.3454 22.3066C80.5571 22.3623 80.7831 22.3317 80.9735 22.2218L83.1281 20.9778L87.2348 28.0907L85.0802 29.3347C84.8897 29.4447 84.7503 29.6251 84.6926 29.8362C84.635 30.0474 84.6637 30.272 84.7727 30.4607C84.8816 30.6493 85.0617 30.7865 85.2734 30.8422C85.4851 30.8978 85.711 30.8673 85.9015 30.7573L89.4925 28.684C89.9172 28.4389 90.404 28.3236 90.892 28.3524C91.38 28.3813 91.8474 28.553 92.2354 28.8462C92.6234 29.1393 92.9147 29.5407 93.0729 29.9999C93.231 30.4592 93.2489 30.9559 93.1242 31.4276C92.9996 31.8993 92.7379 32.325 92.3722 32.6512C92.0065 32.9775 91.553 33.1897 91.0686 33.2612C90.5842 33.3328 90.0906 33.2605 89.6497 33.0535C89.2088 32.8464 88.8403 32.5138 88.5905 32.0974Z" fill="black"/>
</g>
<g clip-path="url(#clip5_731_4032)">
<path d="M17.0956 53.4157L15.5874 54.2865C14.635 54.8363 13.938 55.7384 13.6496 56.7941C13.3612 57.8499 13.5052 58.973 14.0497 59.9162L18.9777 68.4517C19.5223 69.395 20.4229 70.0811 21.4814 70.3593C22.5399 70.6374 23.6697 70.4848 24.6221 69.9349L26.1303 69.0642C26.7593 69.773 27.617 70.2415 28.5581 70.3904C29.4992 70.5393 30.4658 70.3593 31.2942 69.8811C32.1225 69.4029 32.7616 68.6557 33.1033 67.7662C33.4449 66.8768 33.468 65.8997 33.1686 65.0006L36.1133 63.3005C36.4942 63.0805 36.773 62.7197 36.8884 62.2974C37.0037 61.8751 36.9462 61.4259 36.7283 61.0486L29.3363 48.2453C29.1185 47.868 28.7583 47.5935 28.3349 47.4823C27.9115 47.371 27.4596 47.4321 27.0786 47.652L24.134 49.3521C23.505 48.6433 22.6473 48.1747 21.7062 48.0259C20.765 47.877 19.7984 48.0569 18.9701 48.5351C18.1417 49.0134 17.5026 49.7605 17.161 50.65C16.8194 51.5395 16.7963 52.5165 17.0956 53.4157ZM20.4141 67.6224L15.4861 59.0869C15.1622 58.5203 15.0774 57.8474 15.2502 57.2147C15.423 56.5821 15.8394 56.0409 16.4087 55.709L17.917 54.8383C18.5474 55.5443 19.4049 56.0107 20.345 56.1588C21.2851 56.3069 22.2505 56.1278 23.0788 55.6516L27.1855 62.7646C26.3589 63.2438 25.7211 63.9903 25.3794 64.8786C25.0376 65.7668 25.0127 66.7425 25.3089 67.6416L23.8007 68.5123C23.2287 68.8395 22.5518 68.9295 21.9175 68.7629C21.2832 68.5962 20.7428 68.1863 20.4141 67.6224ZM23.1595 50.8157L23.1801 50.8512C23.289 51.0399 23.4691 51.1771 23.6808 51.2327C23.8925 51.2884 24.1185 51.2578 24.3089 51.1479L27.8999 49.0746L35.2919 61.8779L31.7009 63.9512C31.607 64.0054 31.5247 64.0775 31.4588 64.1634C31.3928 64.2492 31.3446 64.3471 31.3168 64.4514C31.289 64.5557 31.2823 64.6642 31.297 64.7707C31.3117 64.8772 31.3475 64.9796 31.4024 65.0719L31.4229 65.1075C31.6584 65.5316 31.7622 66.0166 31.7213 66.5015C31.6805 66.9865 31.4968 67.4498 31.1933 67.8335C30.8898 68.2171 30.48 68.504 30.0153 68.6582C29.5505 68.8124 29.0516 68.827 28.5809 68.7002C28.1102 68.5734 27.6888 68.3109 27.3694 67.9454C27.0501 67.58 26.847 67.128 26.7857 66.6461C26.7244 66.1641 26.8076 65.6737 27.0248 65.2363C27.242 64.7989 27.5836 64.4339 28.0068 64.1872L31.5978 62.1139C31.7883 62.0039 31.9277 61.8235 31.9854 61.6124C32.043 61.4012 32.0142 61.1766 31.9053 60.988C31.7964 60.7993 31.6163 60.6621 31.4046 60.6065C31.1929 60.5508 30.9669 60.5814 30.7765 60.6913L28.6219 61.9353L24.5152 54.8223L26.6698 53.5784C26.8603 53.4684 26.9997 53.288 27.0574 53.0768C27.115 52.8657 27.0863 52.6411 26.9773 52.4524C26.8684 52.2638 26.6883 52.1266 26.4766 52.0709C26.2649 52.0153 26.039 52.0458 25.8485 52.1558L22.2575 54.2291C21.8328 54.4741 21.346 54.5895 20.858 54.5607C20.37 54.5318 19.9026 54.36 19.5146 54.0669C19.1266 53.7738 18.8353 53.3724 18.6771 52.9131C18.519 52.4539 18.5011 51.9572 18.6258 51.4855C18.7504 51.0138 19.0121 50.5881 19.3778 50.2619C19.7435 49.9356 20.197 49.7234 20.6814 49.6518C21.1658 49.5803 21.6594 49.6526 22.1003 49.8596C22.5412 50.0667 22.9097 50.3993 23.1595 50.8157Z" fill="black"/>
</g>
<path d="M66.2994 87.4995V84.5415L75.7514 75.5655C76.5447 74.8175 77.134 74.1602 77.5194 73.5935C77.9047 73.0268 78.154 72.5055 78.2674 72.0295C78.4034 71.5308 78.4714 71.0662 78.4714 70.6355C78.4714 69.5475 78.0974 68.7088 77.3494 68.1195C76.6014 67.5075 75.502 67.2015 74.0514 67.2015C72.8954 67.2015 71.8414 67.4055 70.8894 67.8135C69.96 68.2215 69.1554 68.8448 68.4754 69.6835L65.3814 67.3035C66.3107 66.0568 67.5574 65.0935 69.1214 64.4135C70.708 63.7108 72.476 63.3595 74.4254 63.3595C76.148 63.3595 77.644 63.6428 78.9134 64.2095C80.2054 64.7535 81.1914 65.5355 81.8714 66.5555C82.574 67.5755 82.9254 68.7882 82.9254 70.1935C82.9254 70.9642 82.8234 71.7348 82.6194 72.5055C82.4154 73.2535 82.03 74.0468 81.4634 74.8855C80.8967 75.7242 80.0694 76.6648 78.9814 77.7075L70.8554 85.4255L69.9374 83.7595H83.8434V87.4995H66.2994Z" fill="black"/>
<defs>
<clipPath id="clip0_731_4032">
<rect width="26.2826" height="26.5378" fill="white" transform="translate(129.797 72.7817) rotate(60)"/>
</clipPath>
<clipPath id="clip1_731_4032">
<rect width="26.2826" height="26.5378" fill="white" transform="translate(58.4688 144.316) rotate(-120)"/>
</clipPath>
<clipPath id="clip2_731_4032">
<rect width="26.2826" height="26.5378" fill="white" transform="translate(110.672 39.2349) rotate(60)"/>
</clipPath>
<clipPath id="clip3_731_4032">
<rect width="26.2826" height="26.5378" fill="white" transform="translate(39.3359 110.771) rotate(-120)"/>
</clipPath>
<clipPath id="clip4_731_4032">
<rect width="26.2826" height="26.5378" fill="white" transform="translate(91.5391 5.68994) rotate(60)"/>
</clipPath>
<clipPath id="clip5_731_4032">
<rect width="26.2826" height="26.5378" fill="white" transform="translate(20.2109 77.2231) rotate(-120)"/>
</clipPath>
</defs>
</svg>
