<svg width="263" height="262" viewBox="0 0 263 262" fill="none" xmlns="http://www.w3.org/2000/svg">
<rect x="111.869" y="188.35" width="39.3001" height="114.693" rx="4.5" transform="rotate(-142.192 111.869 188.35)" fill="#F6BE98" stroke="black"/>
<g clip-path="url(#clip0_707_4709)">
<path d="M133.388 192.77L134.763 193.837C135.632 194.511 136.731 194.816 137.817 194.684C138.904 194.553 139.889 193.995 140.557 193.135L146.599 185.348C147.267 184.487 147.562 183.394 147.419 182.309C147.277 181.224 146.709 180.235 145.84 179.561L144.464 178.494C144.883 177.644 144.993 176.672 144.775 175.745C144.558 174.817 144.026 173.99 143.27 173.404C142.515 172.817 141.581 172.508 140.629 172.527C139.676 172.547 138.763 172.895 138.043 173.512L135.357 171.427C135.009 171.158 134.57 171.036 134.135 171.088C133.701 171.141 133.307 171.364 133.04 171.708L123.977 183.389C123.71 183.733 123.592 184.17 123.648 184.604C123.705 185.038 123.933 185.433 124.28 185.703L126.966 187.788C126.548 188.638 126.438 189.609 126.656 190.536C126.873 191.464 127.405 192.291 128.161 192.877C128.916 193.464 129.849 193.773 130.802 193.754C131.755 193.734 132.668 193.386 133.388 192.77V192.77ZM145.288 184.331L139.247 192.118C138.844 192.632 138.253 192.965 137.602 193.043C136.951 193.122 136.293 192.941 135.77 192.539L134.394 191.472C134.81 190.621 134.918 189.651 134.7 188.725C134.482 187.798 133.952 186.972 133.198 186.385L138.233 179.896C138.989 180.48 139.921 180.789 140.872 180.77C141.824 180.751 142.737 180.405 143.457 179.791L144.833 180.859C145.352 181.265 145.691 181.858 145.777 182.508C145.862 183.158 145.686 183.814 145.288 184.331V184.331ZM128.69 188.137L128.715 188.105C128.848 187.932 128.907 187.714 128.879 187.497C128.851 187.28 128.737 187.082 128.563 186.947L125.287 184.405L134.35 172.725L137.626 175.267C137.712 175.333 137.81 175.382 137.914 175.411C138.018 175.44 138.127 175.447 138.234 175.434C138.341 175.42 138.444 175.385 138.537 175.331C138.631 175.278 138.712 175.206 138.777 175.12L138.802 175.088C139.105 174.709 139.515 174.43 139.98 174.285C140.444 174.139 140.943 174.134 141.412 174.271C141.882 174.407 142.303 174.678 142.621 175.05C142.939 175.422 143.141 175.878 143.202 176.362C143.262 176.846 143.178 177.335 142.96 177.769C142.743 178.203 142.401 178.561 141.978 178.8C141.555 179.039 141.069 179.147 140.582 179.111C140.095 179.075 139.628 178.897 139.24 178.598L135.964 176.056C135.79 175.921 135.57 175.861 135.353 175.887C135.136 175.913 134.939 176.025 134.805 176.197C134.672 176.369 134.613 176.588 134.641 176.805C134.669 177.022 134.783 177.219 134.957 177.354L136.922 178.879L131.888 185.368L129.922 183.843C129.748 183.708 129.528 183.647 129.311 183.674C129.094 183.7 128.897 183.812 128.763 183.984C128.63 184.156 128.571 184.374 128.599 184.591C128.628 184.809 128.741 185.006 128.915 185.141L132.191 187.683C132.578 187.984 132.869 188.391 133.027 188.854C133.184 189.316 133.202 189.814 133.077 190.284C132.952 190.754 132.69 191.175 132.325 191.495C131.959 191.815 131.506 192.019 131.022 192.082C130.539 192.145 130.046 192.063 129.605 191.848C129.165 191.632 128.797 191.293 128.548 190.871C128.299 190.45 128.179 189.965 128.205 189.479C128.23 188.992 128.399 188.526 128.69 188.137V188.137Z" fill="black"/>
</g>
<g clip-path="url(#clip1_707_4709)">
<path d="M81.9406 129.99L80.5647 128.922C79.6958 128.248 78.5973 127.943 77.5108 128.075C76.4243 128.207 75.4388 128.764 74.7712 129.625L68.7293 137.412C68.0616 138.272 67.7664 139.365 67.9087 140.451C68.0509 141.536 68.619 142.524 69.4878 143.198L70.8638 144.266C70.4451 145.116 70.3352 146.087 70.5528 147.015C70.7704 147.942 71.3021 148.769 72.0578 149.356C72.8135 149.942 73.7467 150.252 74.6993 150.232C75.6519 150.212 76.5654 149.865 77.2848 149.248L79.9712 151.332C80.3187 151.602 80.7581 151.724 81.1927 151.671C81.6273 151.618 82.0215 151.396 82.2886 151.051L91.3514 139.371C91.6185 139.027 91.7366 138.59 91.6797 138.155C91.6228 137.721 91.3955 137.326 91.048 137.056L88.3617 134.972C88.7804 134.122 88.8902 133.151 88.6726 132.223C88.455 131.295 87.9233 130.468 87.1676 129.882C86.4119 129.296 85.4787 128.986 84.5261 129.006C83.5735 129.025 82.6601 129.373 81.9406 129.99V129.99ZM70.0397 138.429L76.0816 130.642C76.4838 130.128 77.0749 129.795 77.7259 129.716C78.377 129.637 79.0354 129.818 79.5577 130.22L80.9336 131.288C80.518 132.138 80.4101 133.108 80.628 134.035C80.8459 134.961 81.3764 135.787 82.1302 136.374L77.0953 142.863C76.3394 142.279 75.4072 141.971 74.4557 141.99C73.5042 142.009 72.5913 142.354 71.8708 142.968L70.4948 141.9C69.9758 141.494 69.6368 140.902 69.5515 140.251C69.4663 139.601 69.6417 138.946 70.0397 138.429V138.429ZM86.6384 134.623L86.6133 134.655C86.4797 134.827 86.4207 135.046 86.4491 135.263C86.4776 135.48 86.5912 135.677 86.765 135.812L90.041 138.354L80.9782 150.035L77.7021 147.493C77.6165 147.426 77.5186 147.377 77.4142 147.349C77.3098 147.32 77.2009 147.312 77.0938 147.326C76.9868 147.34 76.8838 147.374 76.7907 147.428C76.6976 147.482 76.6163 147.554 76.5516 147.64L76.5264 147.672C76.2226 148.05 75.8128 148.329 75.3484 148.475C74.8839 148.62 74.3855 148.625 73.9157 148.489C73.4458 148.353 73.0253 148.082 72.707 147.71C72.3887 147.338 72.1867 146.881 72.1264 146.397C72.066 145.914 72.1499 145.424 72.3677 144.991C72.5854 144.557 72.9272 144.198 73.3503 143.959C73.7734 143.721 74.2589 143.612 74.746 143.648C75.233 143.684 75.7 143.863 76.0883 144.161L79.3643 146.703C79.5381 146.838 79.7578 146.899 79.9751 146.873C80.1924 146.846 80.3895 146.735 80.523 146.563C80.6565 146.391 80.7156 146.172 80.6871 145.955C80.6587 145.738 80.5451 145.54 80.3713 145.405L78.4057 143.88L83.4406 137.391L85.4062 138.916C85.58 139.051 85.7997 139.112 86.017 139.086C86.2343 139.059 86.4314 138.948 86.5649 138.776C86.6985 138.604 86.7575 138.385 86.729 138.168C86.7006 137.951 86.587 137.753 86.4132 137.618L83.1372 135.077C82.7498 134.776 82.4591 134.369 82.3015 133.906C82.1439 133.443 82.1264 132.946 82.2513 132.476C82.3761 132.006 82.6377 131.584 83.0033 131.264C83.3688 130.945 83.8219 130.74 84.3058 130.678C84.7896 130.615 85.2826 130.696 85.7228 130.912C86.163 131.127 86.5308 131.467 86.78 131.888C87.0292 132.31 87.1488 132.794 87.1236 133.281C87.0984 133.767 86.9296 134.234 86.6384 134.623V134.623Z" fill="black"/>
</g>
<g clip-path="url(#clip2_707_4709)">
<path d="M157.227 162.39L158.603 163.457C159.472 164.131 160.571 164.436 161.657 164.304C162.744 164.173 163.729 163.615 164.397 162.755L170.439 154.968C171.106 154.107 171.402 153.014 171.259 151.929C171.117 150.844 170.549 149.855 169.68 149.181L168.304 148.114C168.723 147.264 168.833 146.292 168.615 145.365C168.398 144.437 167.866 143.61 167.11 143.024C166.354 142.437 165.421 142.128 164.469 142.147C163.516 142.167 162.603 142.515 161.883 143.132L159.197 141.047C158.849 140.778 158.41 140.656 157.975 140.708C157.541 140.761 157.146 140.984 156.879 141.328L147.817 153.009C147.549 153.353 147.431 153.79 147.488 154.224C147.545 154.658 147.772 155.053 148.12 155.323L150.806 157.408C150.388 158.258 150.278 159.229 150.495 160.156C150.713 161.084 151.245 161.911 152 162.497C152.756 163.084 153.689 163.393 154.642 163.374C155.594 163.354 156.508 163.006 157.227 162.39V162.39ZM169.128 153.951L163.086 161.738C162.684 162.252 162.093 162.584 161.442 162.663C160.791 162.742 160.133 162.561 159.61 162.159L158.234 161.092C158.65 160.241 158.758 159.271 158.54 158.345C158.322 157.418 157.792 156.592 157.038 156.005L162.073 149.516C162.829 150.1 163.761 150.409 164.712 150.39C165.664 150.371 166.577 150.025 167.297 149.411L168.673 150.479C169.192 150.885 169.531 151.478 169.616 152.128C169.702 152.778 169.526 153.434 169.128 153.951V153.951ZM152.53 157.757L152.555 157.725C152.688 157.552 152.747 157.334 152.719 157.117C152.69 156.9 152.577 156.702 152.403 156.567L149.127 154.025L158.19 142.345L161.466 144.887C161.552 144.953 161.649 145.002 161.754 145.031C161.858 145.06 161.967 145.067 162.074 145.054C162.181 145.04 162.284 145.005 162.377 144.951C162.47 144.898 162.552 144.826 162.616 144.74L162.642 144.708C162.945 144.329 163.355 144.05 163.82 143.905C164.284 143.759 164.782 143.754 165.252 143.891C165.722 144.027 166.143 144.298 166.461 144.67C166.779 145.042 166.981 145.498 167.042 145.982C167.102 146.466 167.018 146.955 166.8 147.389C166.583 147.823 166.241 148.181 165.818 148.42C165.395 148.659 164.909 148.767 164.422 148.731C163.935 148.695 163.468 148.517 163.08 148.218L159.804 145.676C159.63 145.541 159.41 145.481 159.193 145.507C158.976 145.533 158.778 145.645 158.645 145.817C158.511 145.989 158.452 146.208 158.481 146.425C158.509 146.642 158.623 146.839 158.797 146.974L160.762 148.499L155.727 154.988L153.762 153.463C153.588 153.328 153.368 153.267 153.151 153.294C152.934 153.32 152.737 153.432 152.603 153.604C152.47 153.776 152.41 153.994 152.439 154.211C152.467 154.429 152.581 154.626 152.755 154.761L156.031 157.303C156.418 157.604 156.709 158.011 156.866 158.474C157.024 158.936 157.042 159.434 156.917 159.904C156.792 160.374 156.53 160.795 156.165 161.115C155.799 161.435 155.346 161.639 154.862 161.702C154.378 161.765 153.885 161.683 153.445 161.468C153.005 161.252 152.637 160.913 152.388 160.491C152.139 160.07 152.019 159.585 152.044 159.099C152.07 158.612 152.238 158.146 152.53 157.757V157.757Z" fill="black"/>
</g>
<g clip-path="url(#clip3_707_4709)">
<path d="M105.777 99.6079L104.401 98.5403C103.532 97.8662 102.433 97.5615 101.347 97.6932C100.26 97.825 99.2748 98.3825 98.6071 99.243L92.5652 107.03C91.8975 107.89 91.6024 108.983 91.7446 110.069C91.8869 111.154 92.4549 112.142 93.3238 112.816L94.6997 113.884C94.281 114.734 94.1712 115.705 94.3888 116.633C94.6064 117.56 95.1381 118.388 95.8937 118.974C96.6494 119.56 97.5826 119.87 98.5353 119.85C99.4879 119.83 100.401 119.483 101.121 118.866L103.807 120.95C104.155 121.22 104.594 121.342 105.029 121.289C105.463 121.237 105.857 121.014 106.125 120.669L115.187 108.989C115.454 108.645 115.573 108.208 115.516 107.773C115.459 107.339 115.231 106.944 114.884 106.674L112.198 104.59C112.616 103.74 112.726 102.769 112.509 101.841C112.291 100.914 111.759 100.086 111.004 99.5001C110.248 98.9138 109.315 98.6042 108.362 98.6238C107.409 98.6435 106.496 98.9912 105.777 99.6079V99.6079ZM93.8756 108.047L99.9175 100.26C100.32 99.7458 100.911 99.4131 101.562 99.3341C102.213 99.2551 102.871 99.4363 103.394 99.8381L104.77 100.906C104.354 101.756 104.246 102.726 104.464 103.653C104.682 104.579 105.212 105.405 105.966 105.992L100.931 112.482C100.175 111.897 99.2432 111.589 98.2916 111.608C97.3401 111.627 96.4273 111.972 95.7067 112.586L94.3308 111.518C93.8118 111.112 93.4727 110.52 93.3875 109.869C93.3022 109.219 93.4777 108.564 93.8756 108.047V108.047ZM110.474 104.241L110.449 104.273C110.316 104.445 110.257 104.664 110.285 104.881C110.314 105.098 110.427 105.295 110.601 105.43L113.877 107.972L104.814 119.653L101.538 117.111C101.452 117.044 101.355 116.995 101.25 116.967C101.146 116.938 101.037 116.93 100.93 116.944C100.823 116.958 100.72 116.992 100.627 117.046C100.534 117.1 100.452 117.172 100.388 117.258L100.362 117.29C100.059 117.668 99.6488 117.948 99.1843 118.093C98.7199 118.238 98.2215 118.243 97.7516 118.107C97.2817 117.971 96.8613 117.7 96.543 117.328C96.2247 116.956 96.0227 116.499 95.9623 116.016C95.9019 115.532 95.9859 115.042 96.2036 114.609C96.4213 114.175 96.7632 113.816 97.1863 113.577C97.6094 113.339 98.0949 113.23 98.5819 113.266C99.069 113.302 99.5359 113.481 99.9242 113.779L103.2 116.321C103.374 116.456 103.594 116.517 103.811 116.491C104.028 116.464 104.225 116.353 104.359 116.181C104.492 116.009 104.552 115.79 104.523 115.573C104.495 115.356 104.381 115.158 104.207 115.023L102.242 113.498L107.277 107.009L109.242 108.534C109.416 108.669 109.636 108.73 109.853 108.704C110.07 108.677 110.267 108.566 110.401 108.394C110.534 108.222 110.593 108.003 110.565 107.786C110.537 107.569 110.423 107.371 110.249 107.237L106.973 104.695C106.586 104.394 106.295 103.987 106.137 103.524C105.98 103.061 105.962 102.564 106.087 102.094C106.212 101.624 106.474 101.202 106.839 100.882C107.205 100.563 107.658 100.358 108.142 100.296C108.626 100.233 109.119 100.314 109.559 100.53C109.999 100.745 110.367 101.085 110.616 101.506C110.865 101.928 110.985 102.412 110.96 102.899C110.934 103.385 110.766 103.852 110.474 104.241V104.241Z" fill="black"/>
</g>
<g clip-path="url(#clip4_707_4709)">
<path d="M181.063 132.007L182.439 133.075C183.308 133.749 184.407 134.054 185.493 133.922C186.58 133.79 187.565 133.233 188.233 132.372L194.275 124.585C194.942 123.725 195.237 122.632 195.095 121.546C194.953 120.461 194.385 119.473 193.516 118.799L192.14 117.731C192.559 116.881 192.669 115.91 192.451 114.982C192.233 114.055 191.702 113.227 190.946 112.641C190.19 112.055 189.257 111.745 188.305 111.765C187.352 111.785 186.439 112.132 185.719 112.749L183.033 110.665C182.685 110.395 182.246 110.273 181.811 110.326C181.377 110.378 180.982 110.601 180.715 110.946L171.652 122.626C171.385 122.97 171.267 123.407 171.324 123.841C171.381 124.276 171.608 124.671 171.956 124.941L174.642 127.025C174.224 127.875 174.114 128.846 174.331 129.774C174.549 130.701 175.081 131.529 175.836 132.115C176.592 132.701 177.525 133.011 178.478 132.991C179.43 132.971 180.344 132.624 181.063 132.007V132.007ZM192.964 123.568L186.922 131.355C186.52 131.869 185.929 132.202 185.278 132.281C184.627 132.36 183.969 132.179 183.446 131.777L182.07 130.709C182.486 129.859 182.594 128.889 182.376 127.962C182.158 127.036 181.627 126.21 180.874 125.623L185.909 119.133C186.665 119.718 187.597 120.026 188.548 120.007C189.5 119.988 190.413 119.643 191.133 119.029L192.509 120.096C193.028 120.503 193.367 121.095 193.452 121.746C193.538 122.396 193.362 123.051 192.964 123.568V123.568ZM176.365 127.374L176.391 127.342C176.524 127.17 176.583 126.951 176.555 126.734C176.526 126.517 176.413 126.319 176.239 126.185L172.963 123.643L182.026 111.962L185.302 114.504C185.387 114.571 185.485 114.62 185.59 114.648C185.694 114.677 185.803 114.685 185.91 114.671C186.017 114.657 186.12 114.623 186.213 114.569C186.306 114.515 186.388 114.443 186.452 114.357L186.477 114.325C186.781 113.947 187.191 113.667 187.656 113.522C188.12 113.377 188.618 113.372 189.088 113.508C189.558 113.644 189.979 113.915 190.297 114.287C190.615 114.659 190.817 115.116 190.878 115.599C190.938 116.083 190.854 116.573 190.636 117.006C190.419 117.44 190.077 117.799 189.654 118.038C189.23 118.276 188.745 118.385 188.258 118.349C187.771 118.313 187.304 118.134 186.916 117.836L183.64 115.294C183.466 115.159 183.246 115.098 183.029 115.124C182.812 115.151 182.614 115.262 182.481 115.434C182.347 115.606 182.288 115.825 182.317 116.042C182.345 116.259 182.459 116.457 182.633 116.592L184.598 118.117L179.563 124.606L177.598 123.081C177.424 122.946 177.204 122.885 176.987 122.911C176.77 122.938 176.573 123.049 176.439 123.221C176.305 123.393 176.246 123.612 176.275 123.829C176.303 124.046 176.417 124.244 176.591 124.378L179.867 126.92C180.254 127.221 180.545 127.628 180.702 128.091C180.86 128.554 180.877 129.051 180.753 129.521C180.628 129.991 180.366 130.413 180.001 130.733C179.635 131.052 179.182 131.257 178.698 131.319C178.214 131.382 177.721 131.301 177.281 131.085C176.841 130.87 176.473 130.53 176.224 130.109C175.975 129.687 175.855 129.203 175.88 128.716C175.906 128.23 176.074 127.763 176.365 127.374V127.374Z" fill="black"/>
</g>
<g clip-path="url(#clip5_707_4709)">
<path d="M129.616 69.2269L128.24 68.1593C127.372 67.4852 126.273 67.1805 125.187 67.3123C124.1 67.444 123.115 68.0015 122.447 68.862L116.405 76.6489C115.737 77.5094 115.442 78.6025 115.584 79.6876C115.727 80.7728 116.295 81.7612 117.164 82.4353L118.54 83.5029C118.121 84.3531 118.011 85.3242 118.229 86.2518C118.446 87.1795 118.978 88.0065 119.734 88.5929C120.489 89.1792 121.422 89.4888 122.375 89.4691C123.328 89.4495 124.241 89.1018 124.961 88.4851L127.647 90.5694C127.995 90.8391 128.434 90.961 128.869 90.9083C129.303 90.8555 129.697 90.6326 129.964 90.2884L139.027 78.608C139.294 78.2638 139.412 77.8266 139.355 77.3925C139.299 76.9584 139.071 76.5631 138.724 76.2934L136.037 74.2091C136.456 73.3589 136.566 72.3878 136.348 71.4602C136.131 70.5325 135.599 69.7055 134.843 69.1191C134.088 68.5328 133.155 68.2232 132.202 68.2429C131.249 68.2625 130.336 68.6102 129.616 69.2269V69.2269ZM117.715 77.6656L123.757 69.8787C124.16 69.3648 124.751 69.0321 125.402 68.9531C126.053 68.8742 126.711 69.0553 127.233 69.4572L128.609 70.5248C128.194 71.3752 128.086 72.3453 128.304 73.2717C128.522 74.1982 129.052 75.0244 129.806 75.6115L124.771 82.1005C124.015 81.5162 123.083 81.2076 122.131 81.2267C121.18 81.2457 120.267 81.5913 119.547 82.2051L118.171 81.1375C117.652 80.7314 117.313 80.1387 117.227 79.4884C117.142 78.8381 117.318 78.183 117.715 77.6656V77.6656ZM134.314 73.8596L134.289 73.8921C134.156 74.0642 134.096 74.2828 134.125 74.4998C134.153 74.7168 134.267 74.9145 134.441 75.0493L137.717 77.5913L128.654 89.2716L125.378 86.7297C125.292 86.6632 125.194 86.6143 125.09 86.5856C124.986 86.557 124.877 86.5493 124.77 86.563C124.663 86.5767 124.56 86.6114 124.466 86.6652C124.373 86.7191 124.292 86.7909 124.227 86.8766L124.202 86.909C123.898 87.2872 123.489 87.5665 123.024 87.7119C122.56 87.8572 122.061 87.8622 121.591 87.7261C121.122 87.59 120.701 87.3189 120.383 86.9468C120.065 86.5748 119.863 86.1183 119.802 85.6345C119.742 85.1508 119.826 84.6614 120.043 84.2277C120.261 83.794 120.603 83.4353 121.026 83.1965C121.449 82.9577 121.935 82.8494 122.422 82.8854C122.909 82.9213 123.376 83.0997 123.764 83.3984L127.04 85.9403C127.214 86.0751 127.434 86.136 127.651 86.1097C127.868 86.0833 128.065 85.9718 128.199 85.7997C128.332 85.6276 128.391 85.409 128.363 85.192C128.334 84.975 128.221 84.7773 128.047 84.6424L126.081 83.1173L131.116 76.6282L133.082 78.1534C133.256 78.2882 133.475 78.3491 133.693 78.3228C133.91 78.2964 134.107 78.1849 134.241 78.0128C134.374 77.8407 134.433 77.6221 134.405 77.4051C134.376 77.1881 134.263 76.9904 134.089 76.8555L130.813 74.3136C130.426 74.013 130.135 73.6058 129.977 73.1431C129.82 72.6803 129.802 72.1827 129.927 71.7127C130.052 71.2428 130.314 70.8214 130.679 70.5015C131.045 70.1816 131.498 69.9774 131.982 69.9147C132.465 69.852 132.958 69.9334 133.399 70.1488C133.839 70.3642 134.207 70.704 134.456 71.1255C134.705 71.5469 134.825 72.0313 134.799 72.5178C134.774 73.0042 134.605 73.471 134.314 73.8596V73.8596Z" fill="black"/>
</g>
<path d="M129.041 151.341C126.673 151.341 124.353 151.005 122.081 150.333C119.841 149.629 117.953 148.669 116.417 147.453L119.057 142.605C120.273 143.597 121.745 144.397 123.473 145.005C125.233 145.613 127.057 145.917 128.945 145.917C131.153 145.917 132.881 145.453 134.129 144.525C135.409 143.597 136.049 142.349 136.049 140.781C136.049 139.725 135.777 138.797 135.233 137.997C134.721 137.197 133.793 136.589 132.449 136.173C131.137 135.757 129.329 135.549 127.025 135.549H118.913L120.641 117.261H140.369V122.493H122.945L126.209 119.517L124.913 133.197L121.649 130.269H128.417C131.745 130.269 134.417 130.717 136.433 131.613C138.481 132.477 139.969 133.693 140.897 135.261C141.857 136.797 142.337 138.557 142.337 140.541C142.337 142.493 141.857 144.285 140.897 145.917C139.937 147.549 138.465 148.861 136.481 149.853C134.529 150.845 132.049 151.341 129.041 151.341Z" fill="black"/>
<defs>
<clipPath id="clip0_707_4709">
<rect width="26.2826" height="26.5378" fill="white" transform="translate(154.254 180.892) rotate(127.808)"/>
</clipPath>
<clipPath id="clip1_707_4709">
<rect width="26.2826" height="26.5378" fill="white" transform="translate(61.0742 141.867) rotate(-52.1919)"/>
</clipPath>
<clipPath id="clip2_707_4709">
<rect width="26.2826" height="26.5378" fill="white" transform="translate(178.094 150.512) rotate(127.808)"/>
</clipPath>
<clipPath id="clip3_707_4709">
<rect width="26.2826" height="26.5378" fill="white" transform="translate(84.9102 111.485) rotate(-52.1919)"/>
</clipPath>
<clipPath id="clip4_707_4709">
<rect width="26.2826" height="26.5378" fill="white" transform="translate(201.93 120.13) rotate(127.808)"/>
</clipPath>
<clipPath id="clip5_707_4709">
<rect width="26.2826" height="26.5378" fill="white" transform="translate(108.75 81.1045) rotate(-52.1919)"/>
</clipPath>
</defs>
</svg>
