<svg width="150" height="150" viewBox="0 0 150 150" fill="none" xmlns="http://www.w3.org/2000/svg">
<rect x="132.348" y="55.2786" width="39.3001" height="114.693" rx="4.5" transform="rotate(90 132.348 55.2786)" fill="#FFDF7F" stroke="black"/>
<path d="M122.648 35.6475L122.648 33.9059C122.648 32.8062 122.215 31.7515 121.445 30.9739C120.675 30.1963 119.63 29.7594 118.541 29.7594L108.685 29.7594C107.596 29.7594 106.551 30.1963 105.781 30.9739C105.011 31.7515 104.579 32.8062 104.579 33.9059L104.579 35.6475C103.65 35.8378 102.816 36.3464 102.216 37.0869C101.617 37.8275 101.289 38.7546 101.289 39.7111C101.289 40.6676 101.617 41.5946 102.216 42.3352C102.816 43.0758 103.65 43.5843 104.579 43.7747L104.579 47.1748C104.579 47.6147 104.752 48.0366 105.06 48.3476C105.368 48.6587 105.786 48.8334 106.221 48.8334L121.005 48.8334C121.441 48.8334 121.859 48.6587 122.167 48.3476C122.475 48.0366 122.648 47.6147 122.648 47.1748L122.648 43.7747C123.576 43.5843 124.411 43.0758 125.01 42.3352C125.61 41.5946 125.937 40.6676 125.937 39.7111C125.937 38.7546 125.61 37.8275 125.01 37.0869C124.411 36.3464 123.576 35.8378 122.648 35.6475V35.6475ZM108.685 31.418L118.541 31.418C119.194 31.4207 119.819 31.6837 120.28 32.1497C120.742 32.6157 121.002 33.2469 121.005 33.9059L121.005 35.6475C120.078 35.8405 119.246 36.3499 118.648 37.09C118.049 37.8301 117.722 38.7557 117.72 39.7111L109.506 39.7111C109.505 38.7557 109.177 37.8301 108.579 37.09C107.98 36.3499 107.148 35.8405 106.221 35.6475L106.221 33.9059C106.224 33.2469 106.484 32.6157 106.946 32.1497C107.407 31.6837 108.033 31.4207 108.685 31.418V31.418ZM121.868 42.199L121.826 42.199C121.609 42.199 121.4 42.2864 121.246 42.4419C121.092 42.5974 121.005 42.8084 121.005 43.0283L121.005 47.1748L106.221 47.1748L106.221 43.0283C106.221 42.9199 106.2 42.8125 106.158 42.7125C106.117 42.6124 106.056 42.5217 105.98 42.4455C105.904 42.3693 105.813 42.3092 105.713 42.2687C105.614 42.2282 105.507 42.208 105.4 42.2094L105.359 42.2094C104.874 42.2012 104.402 42.0486 104.002 41.7708C103.603 41.4929 103.293 41.1022 103.113 40.6475C102.932 40.1929 102.889 39.6945 102.988 39.2149C103.086 38.7354 103.323 38.2959 103.668 37.9517C104.014 37.6075 104.452 37.3738 104.928 37.28C105.404 37.1861 105.897 37.2363 106.345 37.4241C106.793 37.612 107.176 37.9293 107.446 38.3361C107.716 38.7429 107.862 39.2212 107.864 39.7111L107.864 43.8576C107.864 44.0775 107.95 44.2885 108.104 44.444C108.258 44.5995 108.467 44.6869 108.685 44.6869C108.903 44.6869 109.112 44.5995 109.266 44.444C109.42 44.2885 109.506 44.0775 109.506 43.8576L109.506 41.3697L117.72 41.3697L117.72 43.8576C117.72 44.0775 117.806 44.2885 117.96 44.444C118.114 44.5995 118.323 44.6869 118.541 44.6869C118.759 44.6869 118.968 44.5995 119.122 44.444C119.276 44.2885 119.362 44.0775 119.362 43.8576L119.362 39.7111C119.363 39.2208 119.506 38.7415 119.775 38.3333C120.044 37.9251 120.426 37.6062 120.874 37.4168C121.322 37.2273 121.815 37.1757 122.292 37.2684C122.769 37.361 123.208 37.5939 123.554 37.9377C123.901 38.2815 124.138 38.7209 124.238 39.2008C124.338 39.6806 124.295 40.1795 124.114 40.6348C123.934 41.09 123.625 41.4814 123.225 41.7597C122.825 42.038 122.353 42.1908 121.868 42.199V42.199Z" fill="black"/>
<path d="M104.583 114.772L104.583 116.514C104.583 117.613 105.015 118.668 105.785 119.446C106.556 120.223 107.6 120.66 108.689 120.66L118.545 120.66C119.634 120.66 120.679 120.223 121.449 119.446C122.219 118.668 122.652 117.613 122.652 116.514L122.652 114.772C123.58 114.582 124.415 114.073 125.014 113.333C125.614 112.592 125.941 111.665 125.941 110.709C125.941 109.752 125.614 108.825 125.014 108.084C124.415 107.344 123.58 106.835 122.652 106.645L122.652 103.245C122.652 102.805 122.479 102.383 122.171 102.072C121.863 101.761 121.445 101.586 121.009 101.586L106.225 101.586C105.79 101.586 105.372 101.761 105.064 102.072C104.756 102.383 104.583 102.805 104.583 103.245L104.583 106.645C103.654 106.835 102.82 107.344 102.22 108.084C101.621 108.825 101.293 109.752 101.293 110.709C101.293 111.665 101.621 112.592 102.22 113.333C102.82 114.073 103.654 114.582 104.583 114.772V114.772ZM118.545 119.002L108.689 119.002C108.037 118.999 107.412 118.736 106.95 118.27C106.488 117.804 106.228 117.173 106.225 116.514L106.225 114.772C107.152 114.579 107.985 114.07 108.583 113.33C109.181 112.59 109.509 111.664 109.511 110.709L117.724 110.709C117.726 111.664 118.053 112.59 118.652 113.33C119.25 114.07 120.083 114.579 121.009 114.772L121.009 116.514C121.007 117.173 120.746 117.804 120.285 118.27C119.823 118.736 119.198 118.999 118.545 119.002V119.002ZM105.363 108.221L105.404 108.221C105.622 108.221 105.831 108.133 105.985 107.978C106.139 107.822 106.225 107.611 106.225 107.391L106.225 103.245L121.009 103.245L121.009 107.391C121.009 107.5 121.031 107.607 121.072 107.707C121.113 107.807 121.174 107.898 121.25 107.974C121.327 108.05 121.418 108.11 121.517 108.151C121.617 108.192 121.723 108.212 121.831 108.21L121.872 108.21C122.357 108.218 122.829 108.371 123.228 108.649C123.628 108.927 123.937 109.317 124.118 109.772C124.298 110.227 124.342 110.725 124.243 111.205C124.144 111.684 123.907 112.124 123.562 112.468C123.217 112.812 122.779 113.046 122.303 113.14C121.827 113.234 121.334 113.183 120.886 112.996C120.438 112.808 120.054 112.49 119.784 112.084C119.514 111.677 119.369 111.198 119.367 110.709L119.367 106.562C119.367 106.342 119.28 106.131 119.126 105.976C118.972 105.82 118.763 105.733 118.545 105.733C118.327 105.733 118.119 105.82 117.965 105.976C117.811 106.131 117.724 106.342 117.724 106.562L117.724 109.05L109.511 109.05L109.511 106.562C109.511 106.342 109.424 106.131 109.27 105.976C109.116 105.82 108.907 105.733 108.689 105.733C108.471 105.733 108.263 105.82 108.109 105.976C107.955 106.131 107.868 106.342 107.868 106.562L107.868 110.709C107.868 111.199 107.724 111.678 107.455 112.086C107.186 112.495 106.804 112.813 106.356 113.003C105.908 113.192 105.415 113.244 104.938 113.151C104.461 113.059 104.022 112.826 103.676 112.482C103.33 112.138 103.092 111.699 102.992 111.219C102.893 110.739 102.936 110.24 103.116 109.785C103.296 109.33 103.606 108.938 104.005 108.66C104.405 108.382 104.877 108.229 105.363 108.221V108.221Z" fill="black"/>
<path d="M84.0306 35.4341L84.0306 33.6926C84.0306 32.5928 83.598 31.5381 82.8278 30.7605C82.0577 29.9829 81.0131 29.546 79.924 29.546L70.068 29.546C68.9788 29.546 67.9343 29.9829 67.1641 30.7605C66.394 31.5381 65.9613 32.5928 65.9613 33.6926L65.9613 35.4341C65.033 35.6244 64.1984 36.133 63.5989 36.8736C62.9994 37.6141 62.6719 38.5412 62.6719 39.4977C62.6719 40.4542 62.9994 41.3813 63.5989 42.1218C64.1984 42.8624 65.033 43.371 65.9613 43.5613L65.9613 46.9614C65.9613 47.4013 66.1344 47.8232 66.4424 48.1343C66.7505 48.4453 67.1683 48.6201 67.604 48.6201L82.388 48.6201C82.8236 48.6201 83.2414 48.4453 83.5495 48.1343C83.8576 47.8232 84.0306 47.4013 84.0306 46.9614L84.0306 43.5613C84.959 43.371 85.7936 42.8624 86.3931 42.1218C86.9926 41.3813 87.3201 40.4542 87.3201 39.4977C87.3201 38.5412 86.9926 37.6141 86.3931 36.8736C85.7936 36.133 84.959 35.6244 84.0306 35.4341V35.4341ZM70.068 31.2046L79.924 31.2046C80.5766 31.2074 81.2018 31.4704 81.6633 31.9363C82.1248 32.4023 82.3853 33.0336 82.388 33.6926L82.388 35.4341C81.4613 35.6271 80.6287 36.1365 80.0303 36.8766C79.432 37.6167 79.1044 38.5423 79.1026 39.4977L70.8893 39.4977C70.8876 38.5423 70.56 37.6167 69.9616 36.8766C69.3633 36.1365 68.5307 35.6271 67.604 35.4341L67.604 33.6926C67.6067 33.0336 67.8672 32.4023 68.3287 31.9363C68.7902 31.4704 69.4153 31.2074 70.068 31.2046V31.2046ZM83.2504 41.9856L83.2093 41.9856C82.9915 41.9856 82.7825 42.073 82.6285 42.2285C82.4745 42.384 82.388 42.595 82.388 42.8149L82.388 46.9614L67.604 46.9614L67.604 42.8149C67.604 42.7065 67.5827 42.5991 67.5413 42.4991C67.4999 42.3991 67.4392 42.3083 67.3628 42.2321C67.2864 42.156 67.1958 42.0959 67.0962 42.0553C66.9966 42.0148 66.89 41.9946 66.7827 41.996L66.7416 41.996C66.2565 41.9878 65.7846 41.8352 65.3851 41.5574C64.9856 41.2796 64.6761 40.8888 64.4956 40.4342C64.3151 39.9795 64.2715 39.4811 64.3704 39.0016C64.4692 38.522 64.706 38.0826 65.0512 37.7383C65.3963 37.3941 65.8344 37.1604 66.3106 37.0666C66.7867 36.9727 67.2797 37.0229 67.7277 37.2108C68.1758 37.3986 68.5589 37.7159 68.8291 38.1227C69.0993 38.5295 69.2446 39.0079 69.2466 39.4977L69.2466 43.6442C69.2466 43.8642 69.3332 44.0751 69.4872 44.2306C69.6412 44.3862 69.8501 44.4735 70.068 44.4735C70.2858 44.4735 70.4947 44.3862 70.6487 44.2306C70.8028 44.0751 70.8893 43.8642 70.8893 43.6442L70.8893 41.1563L79.1026 41.1563L79.1026 43.6442C79.1026 43.8642 79.1892 44.0751 79.3432 44.2306C79.4972 44.3862 79.7061 44.4735 79.924 44.4735C80.1418 44.4735 80.3507 44.3862 80.5047 44.2306C80.6588 44.0751 80.7453 43.8642 80.7453 43.6442L80.7453 39.4977C80.7454 39.0074 80.8889 38.5281 81.1579 38.1199C81.4268 37.7117 81.8093 37.3929 82.2571 37.2034C82.705 37.0139 83.1983 36.9623 83.6751 37.055C84.1519 37.1477 84.591 37.3805 84.9371 37.7243C85.2833 38.0681 85.5212 38.5076 85.6208 38.9874C85.7205 39.4672 85.6775 39.9661 85.4973 40.4214C85.3171 40.8767 85.0077 41.268 84.6079 41.5463C84.2081 41.8246 83.7359 41.9774 83.2504 41.9856V41.9856Z" fill="black"/>
<path d="M65.9694 114.566L65.9694 116.307C65.9694 117.407 66.402 118.462 67.1722 119.239C67.9423 120.017 68.9869 120.454 70.076 120.454L79.932 120.454C81.0212 120.454 82.0657 120.017 82.8359 119.239C83.606 118.462 84.0387 117.407 84.0387 116.307L84.0387 114.566C84.967 114.375 85.8016 113.867 86.4011 113.126C87.0006 112.386 87.3281 111.459 87.3281 110.502C87.3281 109.546 87.0006 108.619 86.4011 107.878C85.8016 107.137 84.967 106.629 84.0387 106.439L84.0387 103.038C84.0387 102.599 83.8656 102.177 83.5576 101.866C83.2495 101.555 82.8317 101.38 82.396 101.38L67.612 101.38C67.1764 101.38 66.7586 101.555 66.4505 101.866C66.1424 102.177 65.9694 102.599 65.9694 103.038L65.9694 106.439C65.041 106.629 64.2064 107.137 63.6069 107.878C63.0074 108.619 62.6799 109.546 62.6799 110.502C62.6799 111.459 63.0074 112.386 63.6069 113.126C64.2064 113.867 65.041 114.375 65.9694 114.566V114.566ZM79.932 118.795L70.076 118.795C69.4234 118.793 68.7982 118.53 68.3367 118.064C67.8752 117.598 67.6147 116.966 67.612 116.307L67.612 114.566C68.5387 114.373 69.3713 113.863 69.9697 113.123C70.568 112.383 70.8956 111.458 70.8974 110.502L79.1107 110.502C79.1124 111.458 79.44 112.383 80.0384 113.123C80.6367 113.863 81.4693 114.373 82.396 114.566L82.396 116.307C82.3933 116.966 82.1328 117.598 81.6713 118.064C81.2098 118.53 80.5847 118.793 79.932 118.795V118.795ZM66.7496 108.014L66.7907 108.014C67.0085 108.014 67.2175 107.927 67.3715 107.771C67.5255 107.616 67.612 107.405 67.612 107.185L67.612 103.038L82.396 103.038L82.396 107.185C82.396 107.293 82.4173 107.401 82.4587 107.501C82.5001 107.601 82.5608 107.692 82.6372 107.768C82.7136 107.844 82.8042 107.904 82.9038 107.945C83.0034 107.985 83.11 108.005 83.2173 108.004L83.2584 108.004C83.7435 108.012 84.2154 108.165 84.6149 108.442C85.0144 108.72 85.3239 109.111 85.5044 109.566C85.6849 110.02 85.7285 110.519 85.6296 110.998C85.5308 111.478 85.294 111.917 84.9488 112.262C84.6037 112.606 84.1656 112.839 83.6894 112.933C83.2133 113.027 82.7203 112.977 82.2723 112.789C81.8242 112.601 81.4411 112.284 81.1709 111.877C80.9007 111.47 80.7554 110.992 80.7534 110.502L80.7534 106.356C80.7534 106.136 80.6668 105.925 80.5128 105.769C80.3588 105.614 80.1499 105.526 79.932 105.526C79.7142 105.526 79.5053 105.614 79.3513 105.769C79.1972 105.925 79.1107 106.136 79.1107 106.356L79.1107 108.844L70.8974 108.844L70.8974 106.356C70.8974 106.136 70.8108 105.925 70.6568 105.769C70.5028 105.614 70.2939 105.526 70.076 105.526C69.8582 105.526 69.6493 105.614 69.4953 105.769C69.3412 105.925 69.2547 106.136 69.2547 106.356L69.2547 110.502C69.2546 110.992 69.1111 111.472 68.8421 111.88C68.5732 112.288 68.1907 112.607 67.7429 112.796C67.295 112.986 66.8017 113.038 66.3249 112.945C65.8481 112.852 65.409 112.619 65.0629 112.276C64.7167 111.932 64.4788 111.492 64.3792 111.012C64.2795 110.533 64.3225 110.034 64.5027 109.578C64.6829 109.123 64.9923 108.732 65.3921 108.454C65.7919 108.175 66.2641 108.022 66.7496 108.014V108.014Z" fill="black"/>
<path d="M45.4134 35.2277L45.4134 33.4861C45.4134 32.3864 44.9808 31.3317 44.2106 30.5541C43.4405 29.7765 42.3959 29.3396 41.3068 29.3396L31.4508 29.3396C30.3616 29.3396 29.3171 29.7765 28.5469 30.5541C27.7768 31.3317 27.3441 32.3864 27.3441 33.4861L27.3441 35.2277C26.4158 35.418 25.5812 35.9266 24.9817 36.6671C24.3822 37.4077 24.0547 38.3348 24.0547 39.2913C24.0547 40.2478 24.3822 41.1748 24.9817 41.9154C25.5812 42.656 26.4158 43.1645 27.3441 43.3549L27.3441 46.755C27.3441 47.1949 27.5172 47.6168 27.8253 47.9278C28.1333 48.2389 28.5511 48.4136 28.9868 48.4136L43.7708 48.4136C44.2064 48.4136 44.6243 48.2389 44.9323 47.9278C45.2404 47.6168 45.4134 47.1949 45.4134 46.755L45.4134 43.3549C46.3418 43.1645 47.1764 42.656 47.7759 41.9154C48.3754 41.1748 48.7029 40.2478 48.7029 39.2913C48.7029 38.3348 48.3754 37.4077 47.7759 36.6671C47.1764 35.9266 46.3418 35.418 45.4134 35.2277V35.2277ZM31.4508 30.9982L41.3068 30.9982C41.9594 31.0009 42.5846 31.2639 43.0461 31.7299C43.5076 32.1959 43.7681 32.8271 43.7708 33.4861L43.7708 35.2277C42.8441 35.4207 42.0115 35.9301 41.4131 36.6702C40.8148 37.4103 40.4872 38.3359 40.4854 39.2913L32.2721 39.2913C32.2704 38.3359 31.9428 37.4103 31.3444 36.6702C30.7461 35.9301 29.9135 35.4207 28.9868 35.2277L28.9868 33.4861C28.9895 32.8271 29.25 32.1959 29.7115 31.7299C30.173 31.2639 30.7981 31.0009 31.4508 30.9982V30.9982ZM44.6332 41.7792L44.5921 41.7792C44.3743 41.7792 44.1654 41.8666 44.0113 42.0221C43.8573 42.1776 43.7708 42.3886 43.7708 42.6085L43.7708 46.755L28.9868 46.755L28.9868 42.6085C28.9868 42.5001 28.9655 42.3927 28.9241 42.2927C28.8827 42.1926 28.822 42.1019 28.7456 42.0257C28.6692 41.9495 28.5786 41.8894 28.479 41.8489C28.3794 41.8084 28.2728 41.7882 28.1655 41.7896L28.1244 41.7896C27.6393 41.7814 27.1675 41.6288 26.7679 41.351C26.3684 41.0731 26.0589 40.6824 25.8784 40.2277C25.6979 39.7731 25.6543 39.2747 25.7532 38.7951C25.852 38.3156 26.0888 37.8761 26.434 37.5319C26.7791 37.1877 27.2173 36.954 27.6934 36.8602C28.1695 36.7663 28.6625 36.8165 29.1106 37.0043C29.5586 37.1922 29.9417 37.5095 30.2119 37.9163C30.4821 38.3231 30.6274 38.8014 30.6295 39.2913L30.6295 43.4378C30.6295 43.6577 30.716 43.8687 30.87 44.0242C31.0241 44.1797 31.233 44.2671 31.4508 44.2671C31.6686 44.2671 31.8775 44.1797 32.0316 44.0242C32.1856 43.8687 32.2721 43.6577 32.2721 43.4378L32.2721 40.9499L40.4854 40.9499L40.4854 43.4378C40.4854 43.6577 40.572 43.8687 40.726 44.0242C40.88 44.1797 41.0889 44.2671 41.3068 44.2671C41.5246 44.2671 41.7335 44.1797 41.8875 44.0242C42.0416 43.8687 42.1281 43.6577 42.1281 43.4378L42.1281 39.2913C42.1282 38.801 42.2717 38.3217 42.5407 37.9135C42.8097 37.5053 43.1921 37.1864 43.6399 36.997C44.0878 36.8075 44.5811 36.7559 45.0579 36.8486C45.5347 36.9412 45.9738 37.1741 46.32 37.5179C46.6661 37.8617 46.904 38.3011 47.0036 38.781C47.1033 39.2608 47.0603 39.7597 46.8801 40.215C46.6999 40.6702 46.3905 41.0616 45.9907 41.3399C45.591 41.6182 45.1187 41.771 44.6332 41.7792V41.7792Z" fill="black"/>
<path d="M27.3522 114.359L27.3522 116.101C27.3522 117.201 27.7849 118.255 28.555 119.033C29.3252 119.81 30.3697 120.247 31.4589 120.247L41.3148 120.247C42.404 120.247 43.4485 119.81 44.2187 119.033C44.9888 118.255 45.4215 117.201 45.4215 116.101L45.4215 114.359C46.3498 114.169 47.1845 113.66 47.784 112.92C48.3834 112.179 48.7109 111.252 48.7109 110.296C48.7109 109.339 48.3834 108.412 47.784 107.672C47.1845 106.931 46.3498 106.422 45.4215 106.232L45.4215 102.832C45.4215 102.392 45.2484 101.97 44.9404 101.659C44.6323 101.348 44.2145 101.173 43.7788 101.173L28.9949 101.173C28.5592 101.173 28.1414 101.348 27.8333 101.659C27.5253 101.97 27.3522 102.392 27.3522 102.832L27.3522 106.232C26.4238 106.422 25.5892 106.931 24.9897 107.672C24.3902 108.412 24.0627 109.339 24.0627 110.296C24.0627 111.252 24.3902 112.179 24.9897 112.92C25.5892 113.66 26.4238 114.169 27.3522 114.359V114.359ZM41.3148 118.589L31.4589 118.589C30.8062 118.586 30.181 118.323 29.7195 117.857C29.258 117.391 28.9976 116.76 28.9949 116.101L28.9949 114.359C29.9216 114.166 30.7541 113.657 31.3525 112.917C31.9508 112.177 32.2784 111.251 32.2802 110.296L40.4935 110.296C40.4952 111.251 40.8228 112.177 41.4212 112.917C42.0196 113.657 42.8521 114.166 43.7788 114.359L43.7788 116.101C43.7761 116.76 43.5157 117.391 43.0542 117.857C42.5927 118.323 41.9675 118.586 41.3148 118.589V118.589ZM28.1325 107.808L28.1735 107.808C28.3914 107.808 28.6003 107.72 28.7543 107.565C28.9083 107.409 28.9949 107.198 28.9949 106.978L28.9949 102.832L43.7788 102.832L43.7788 106.978C43.7788 107.087 43.8001 107.194 43.8415 107.294C43.8829 107.394 43.9436 107.485 44.02 107.561C44.0964 107.637 44.187 107.697 44.2866 107.738C44.3862 107.779 44.4928 107.799 44.6002 107.797L44.6412 107.797C45.1263 107.806 45.5982 107.958 45.9977 108.236C46.3973 108.514 46.7067 108.905 46.8872 109.359C47.0677 109.814 47.1113 110.312 47.0125 110.792C46.9136 111.271 46.6768 111.711 46.3316 112.055C45.9865 112.399 45.5484 112.633 45.0722 112.727C44.5961 112.821 44.1031 112.77 43.6551 112.583C43.207 112.395 42.8239 112.077 42.5537 111.671C42.2835 111.264 42.1383 110.785 42.1362 110.296L42.1362 106.149C42.1362 105.929 42.0496 105.718 41.8956 105.563C41.7416 105.407 41.5327 105.32 41.3148 105.32C41.097 105.32 40.8881 105.407 40.7341 105.563C40.58 105.718 40.4935 105.929 40.4935 106.149L40.4935 108.637L32.2802 108.637L32.2802 106.149C32.2802 105.929 32.1936 105.718 32.0396 105.563C31.8856 105.407 31.6767 105.32 31.4588 105.32C31.241 105.32 31.0321 105.407 30.8781 105.563C30.7241 105.718 30.6375 105.929 30.6375 106.149L30.6375 110.296C30.6375 110.786 30.4939 111.265 30.2249 111.673C29.956 112.082 29.5735 112.4 29.1257 112.59C28.6778 112.779 28.1845 112.831 27.7077 112.738C27.2309 112.646 26.7918 112.413 26.4457 112.069C26.0995 111.725 25.8616 111.286 25.762 110.806C25.6623 110.326 25.7053 109.827 25.8855 109.372C26.0657 108.917 26.3751 108.525 26.7749 108.247C27.1747 107.969 27.647 107.816 28.1325 107.808V107.808Z" fill="black"/>
<path d="M68.9439 89.4287L80.5039 63.5087L81.8639 65.8287H65.9839L68.4639 63.3087V70.5887H63.6239V61.4287H85.3839V64.9087L74.5039 89.4287H68.9439Z" fill="black"/>
</svg>
