<svg width="136" height="129" viewBox="0 0 136 129" fill="none" xmlns="http://www.w3.org/2000/svg">
<rect x="35.6641" y="1.19" width="64.0349" height="127" rx="9.5" fill="#FFDF7F" stroke="black"/>
<path d="M10.5703 17.8324H8.60156C7.35836 17.8324 6.16608 18.3215 5.287 19.1922C4.40792 20.0628 3.91406 21.2436 3.91406 22.4749L3.91406 33.6167C3.91406 34.8479 4.40792 36.0288 5.287 36.8994C6.16608 37.77 7.35836 38.2591 8.60156 38.2591H10.5703C10.7855 39.3086 11.3604 40.2521 12.1976 40.9298C13.0348 41.6075 14.0828 41.9777 15.1641 41.9777C16.2453 41.9777 17.2934 41.6075 18.1306 40.9298C18.9678 40.2521 19.5426 39.3086 19.7578 38.2591H23.6016C24.0988 38.2591 24.5758 38.0635 24.9274 37.7152C25.279 37.367 25.4766 36.8946 25.4766 36.4021V19.6894C25.4766 19.1969 25.279 18.7246 24.9274 18.3763C24.5758 18.0281 24.0988 17.8324 23.6016 17.8324H19.7578C19.5426 16.783 18.9678 15.8395 18.1306 15.1618C17.2934 14.484 16.2453 14.1138 15.1641 14.1138C14.0828 14.1138 13.0348 14.484 12.1976 15.1618C11.3604 15.8395 10.7855 16.783 10.5703 17.8324V17.8324ZM5.78906 33.6167L5.78906 22.4749C5.79215 21.737 6.08945 21.0303 6.61623 20.5086C7.14301 19.9869 7.85659 19.6925 8.60156 19.6894H10.5703C10.7885 20.737 11.3643 21.6782 12.201 22.3546C13.0376 23.031 14.084 23.4014 15.1641 23.4033L15.1641 32.6882C14.084 32.6902 13.0376 33.0605 12.201 33.7369C11.3643 34.4133 10.7885 35.3545 10.5703 36.4021H8.60156C7.85659 36.3991 7.14301 36.1046 6.61623 35.5829C6.08945 35.0612 5.79215 34.3545 5.78906 33.6167V33.6167ZM17.9766 18.7145V18.7609C17.9766 19.0072 18.0753 19.2433 18.2511 19.4175C18.427 19.5916 18.6654 19.6894 18.9141 19.6894H23.6016V36.4021H18.9141C18.7915 36.4021 18.6701 36.4262 18.5571 36.473C18.444 36.5198 18.3414 36.5884 18.2553 36.6748C18.1691 36.7612 18.1012 36.8636 18.0554 36.9762C18.0095 37.0888 17.9867 37.2092 17.9883 37.3306V37.377C17.979 37.9254 17.8066 38.4588 17.4925 38.9105C17.1784 39.3622 16.7367 39.712 16.2227 39.916C15.7087 40.1201 15.1453 40.1694 14.6032 40.0576C14.0611 39.9459 13.5643 39.6782 13.1752 39.288C12.786 38.8978 12.5219 38.4025 12.4158 37.8643C12.3097 37.326 12.3664 36.7687 12.5788 36.2622C12.7912 35.7558 13.1498 35.3226 13.6097 35.0172C14.0696 34.7117 14.6103 34.5475 15.1641 34.5452H19.8516C20.1002 34.5452 20.3387 34.4473 20.5145 34.2732C20.6903 34.0991 20.7891 33.8629 20.7891 33.6167C20.7891 33.3704 20.6903 33.1343 20.5145 32.9601C20.3387 32.786 20.1002 32.6882 19.8516 32.6882H17.0391V23.4033H19.8516C20.1002 23.4033 20.3387 23.3055 20.5145 23.1314C20.6903 22.9573 20.7891 22.7211 20.7891 22.4749C20.7891 22.2286 20.6903 21.9924 20.5145 21.8183C20.3387 21.6442 20.1002 21.5464 19.8516 21.5464H15.1641C14.6098 21.5463 14.0679 21.384 13.6065 21.08C13.1451 20.7759 12.7846 20.3436 12.5704 19.8373C12.3563 19.331 12.2979 18.7734 12.4027 18.2343C12.5074 17.6953 12.7707 17.199 13.1593 16.8076C13.548 16.4163 14.0448 16.1474 14.5872 16.0348C15.1296 15.9221 15.6936 15.9707 16.2083 16.1744C16.7229 16.3781 17.1654 16.7279 17.48 17.1798C17.7946 17.6317 17.9673 18.1656 17.9766 18.7145V18.7145Z" fill="black"/>
<path d="M10.5703 77.8324H8.60156C7.35836 77.8324 6.16608 78.3216 5.287 79.1922C4.40792 80.0628 3.91406 81.2436 3.91406 82.4749L3.91406 93.6167C3.91406 94.8479 4.40792 96.0288 5.287 96.8994C6.16608 97.77 7.35836 98.2591 8.60156 98.2591H10.5703C10.7855 99.3086 11.3604 100.252 12.1976 100.93C13.0348 101.608 14.0828 101.978 15.1641 101.978C16.2453 101.978 17.2934 101.608 18.1306 100.93C18.9678 100.252 19.5426 99.3086 19.7578 98.2591H23.6016C24.0988 98.2591 24.5758 98.0635 24.9274 97.7152C25.279 97.367 25.4766 96.8947 25.4766 96.4022V79.6894C25.4766 79.1969 25.279 78.7246 24.9274 78.3763C24.5758 78.0281 24.0988 77.8324 23.6016 77.8324H19.7578C19.5426 76.783 18.9678 75.8395 18.1306 75.1618C17.2934 74.4841 16.2453 74.1138 15.1641 74.1138C14.0828 74.1138 13.0348 74.4841 12.1976 75.1618C11.3604 75.8395 10.7855 76.783 10.5703 77.8324V77.8324ZM5.78906 93.6167L5.78906 82.4749C5.79215 81.7371 6.08945 81.0303 6.61623 80.5086C7.14301 79.9869 7.85659 79.6925 8.60156 79.6894H10.5703C10.7885 80.737 11.3643 81.6782 12.201 82.3546C13.0376 83.031 14.084 83.4014 15.1641 83.4034L15.1641 92.6882C14.084 92.6902 13.0376 93.0605 12.201 93.7369C11.3643 94.4134 10.7885 95.3546 10.5703 96.4022H8.60156C7.85659 96.3991 7.14301 96.1047 6.61623 95.5829C6.08945 95.0612 5.79215 94.3545 5.78906 93.6167V93.6167ZM17.9766 78.7145V78.7609C17.9766 79.0072 18.0753 79.2433 18.2511 79.4175C18.427 79.5916 18.6654 79.6894 18.9141 79.6894H23.6016V96.4022H18.9141C18.7915 96.4021 18.6701 96.4262 18.5571 96.473C18.444 96.5198 18.3414 96.5884 18.2553 96.6748C18.1691 96.7612 18.1012 96.8636 18.0554 96.9762C18.0095 97.0888 17.9867 97.2093 17.9883 97.3306V97.3771C17.979 97.9254 17.8066 98.4589 17.4925 98.9105C17.1784 99.3622 16.7367 99.712 16.2227 99.9161C15.7087 100.12 15.1453 100.169 14.6032 100.058C14.0611 99.9459 13.5643 99.6782 13.1752 99.288C12.786 98.8978 12.5219 98.4026 12.4158 97.8643C12.3097 97.326 12.3664 96.7687 12.5788 96.2622C12.7912 95.7558 13.1498 95.3227 13.6097 95.0172C14.0696 94.7117 14.6103 94.5475 15.1641 94.5452H19.8516C20.1002 94.5452 20.3387 94.4474 20.5145 94.2732C20.6903 94.0991 20.7891 93.8629 20.7891 93.6167C20.7891 93.3704 20.6903 93.1343 20.5145 92.9602C20.3387 92.786 20.1002 92.6882 19.8516 92.6882H17.0391V83.4034H19.8516C20.1002 83.4034 20.3387 83.3055 20.5145 83.1314C20.6903 82.9573 20.7891 82.7211 20.7891 82.4749C20.7891 82.2286 20.6903 81.9925 20.5145 81.8183C20.3387 81.6442 20.1002 81.5464 19.8516 81.5464H15.1641C14.6098 81.5463 14.0679 81.384 13.6065 81.08C13.1451 80.7759 12.7846 80.3436 12.5704 79.8373C12.3563 79.331 12.2979 78.7734 12.4027 78.2344C12.5074 77.6953 12.7707 77.199 13.1593 76.8077C13.548 76.4163 14.0448 76.1474 14.5872 76.0348C15.1296 75.9221 15.6936 75.9707 16.2083 76.1744C16.7229 76.3781 17.1654 76.7279 17.48 77.1798C17.7946 77.6318 17.9673 78.1657 17.9766 78.7145V78.7145Z" fill="black"/>
<path d="M124.793 98.259H126.762C128.005 98.259 129.197 97.7699 130.076 96.8993C130.955 96.0286 131.449 94.8478 131.449 93.6166V82.4747C131.449 81.2435 130.955 80.0627 130.076 79.192C129.197 78.3214 128.005 77.8323 126.762 77.8323H124.793C124.578 76.7828 124.003 75.8393 123.166 75.1616C122.329 74.4839 121.28 74.1137 120.199 74.1137C119.118 74.1137 118.07 74.4839 117.233 75.1616C116.396 75.8393 115.821 76.7828 115.605 77.8323H111.762C111.264 77.8323 110.788 78.0279 110.436 78.3762C110.084 78.7244 109.887 79.1968 109.887 79.6893V96.402C109.887 96.8945 110.084 97.3668 110.436 97.7151C110.788 98.0633 111.264 98.259 111.762 98.259H115.605C115.821 99.3084 116.396 100.252 117.233 100.93C118.07 101.607 119.118 101.978 120.199 101.978C121.28 101.978 122.329 101.607 123.166 100.93C124.003 100.252 124.578 99.3084 124.793 98.259V98.259ZM129.574 82.4747V93.6166C129.571 94.3544 129.274 95.0611 128.747 95.5828C128.22 96.1045 127.507 96.399 126.762 96.402H124.793C124.575 95.3544 123.999 94.4132 123.162 93.7368C122.326 93.0604 121.279 92.69 120.199 92.6881V83.4032C121.279 83.4013 122.326 83.0309 123.162 82.3545C123.999 81.6781 124.575 80.7369 124.793 79.6893H126.762C127.507 79.6923 128.22 79.9868 128.747 80.5085C129.274 81.0302 129.571 81.7369 129.574 82.4747V82.4747ZM117.387 97.3769V97.3305C117.387 97.0843 117.288 96.8481 117.112 96.674C116.936 96.4998 116.698 96.402 116.449 96.402H111.762V79.6893H116.449C116.572 79.6893 116.693 79.6652 116.806 79.6184C116.919 79.5716 117.022 79.503 117.108 79.4166C117.194 79.3303 117.262 79.2278 117.308 79.1152C117.354 79.0026 117.377 78.8822 117.375 78.7608V78.7144C117.384 78.166 117.557 77.6326 117.871 77.1809C118.185 76.7292 118.627 76.3794 119.141 76.1754C119.655 75.9713 120.218 75.922 120.76 76.0338C121.302 76.1455 121.799 76.4132 122.188 76.8034C122.577 77.1936 122.841 77.6889 122.948 78.2271C123.054 78.7654 122.997 79.3227 122.785 79.8292C122.572 80.3357 122.213 80.7688 121.754 81.0742C121.294 81.3797 120.753 81.5439 120.199 81.5462H115.512C115.263 81.5462 115.025 81.6441 114.849 81.8182C114.673 81.9923 114.574 82.2285 114.574 82.4747C114.574 82.721 114.673 82.9571 114.849 83.1313C115.025 83.3054 115.263 83.4032 115.512 83.4032H118.324V92.6881H115.512C115.263 92.6881 115.025 92.7859 114.849 92.96C114.673 93.1341 114.574 93.3703 114.574 93.6166C114.574 93.8628 114.673 94.099 114.849 94.2731C115.025 94.4472 115.263 94.545 115.512 94.545H120.199C120.753 94.5451 121.295 94.7074 121.757 95.0114C122.218 95.3155 122.579 95.7478 122.793 96.2541C123.007 96.7604 123.065 97.318 122.961 97.8571C122.856 98.3961 122.593 98.8924 122.204 99.2838C121.815 99.6751 121.319 99.944 120.776 100.057C120.234 100.169 119.67 100.121 119.155 99.917C118.64 99.7133 118.198 99.3635 117.883 98.9116C117.569 98.4597 117.396 97.9258 117.387 97.3769V97.3769Z" fill="black"/>
<path d="M124.793 38.259H126.762C128.005 38.259 129.197 37.7699 130.076 36.8993C130.955 36.0286 131.449 34.8478 131.449 33.6166V22.4747C131.449 21.2435 130.955 20.0627 130.076 19.192C129.197 18.3214 128.005 17.8323 126.762 17.8323H124.793C124.578 16.7828 124.003 15.8393 123.166 15.1616C122.329 14.4839 121.28 14.1137 120.199 14.1137C119.118 14.1137 118.07 14.4839 117.233 15.1616C116.396 15.8393 115.821 16.7828 115.605 17.8323H111.762C111.264 17.8323 110.788 18.0279 110.436 18.3762C110.084 18.7244 109.887 19.1968 109.887 19.6893V36.402C109.887 36.8945 110.084 37.3668 110.436 37.7151C110.788 38.0633 111.264 38.259 111.762 38.259H115.605C115.821 39.3084 116.396 40.252 117.233 40.9297C118.07 41.6074 119.118 41.9776 120.199 41.9776C121.28 41.9776 122.329 41.6074 123.166 40.9297C124.003 40.252 124.578 39.3084 124.793 38.259V38.259ZM129.574 22.4747V33.6166C129.571 34.3544 129.274 35.0611 128.747 35.5828C128.22 36.1045 127.507 36.399 126.762 36.402H124.793C124.575 35.3544 123.999 34.4132 123.162 33.7368C122.326 33.0604 121.279 32.69 120.199 32.6881V23.4032C121.279 23.4013 122.326 23.0309 123.162 22.3545C123.999 21.6781 124.575 20.7369 124.793 19.6893H126.762C127.507 19.6923 128.22 19.9868 128.747 20.5085C129.274 21.0302 129.571 21.7369 129.574 22.4747V22.4747ZM117.387 37.3769V37.3305C117.387 37.0843 117.288 36.8481 117.112 36.674C116.936 36.4998 116.698 36.402 116.449 36.402H111.762V19.6893H116.449C116.572 19.6893 116.693 19.6652 116.806 19.6184C116.919 19.5716 117.022 19.503 117.108 19.4166C117.194 19.3303 117.262 19.2278 117.308 19.1152C117.354 19.0026 117.377 18.8822 117.375 18.7608V18.7144C117.384 18.166 117.557 17.6326 117.871 17.1809C118.185 16.7292 118.627 16.3794 119.141 16.1754C119.655 15.9713 120.218 15.922 120.76 16.0338C121.302 16.1455 121.799 16.4132 122.188 16.8034C122.577 17.1936 122.841 17.6889 122.948 18.2271C123.054 18.7654 122.997 19.3227 122.785 19.8292C122.572 20.3357 122.213 20.7688 121.754 21.0742C121.294 21.3797 120.753 21.5439 120.199 21.5462L115.512 21.5462C115.263 21.5462 115.025 21.6441 114.849 21.8182C114.673 21.9923 114.574 22.2285 114.574 22.4747C114.574 22.721 114.673 22.9571 114.849 23.1313C115.025 23.3054 115.263 23.4032 115.512 23.4032L118.324 23.4032V32.6881H115.512C115.263 32.6881 115.025 32.7859 114.849 32.96C114.673 33.1341 114.574 33.3703 114.574 33.6166C114.574 33.8628 114.673 34.099 114.849 34.2731C115.025 34.4472 115.263 34.545 115.512 34.545H120.199C120.753 34.5451 121.295 34.7074 121.757 35.0114C122.218 35.3155 122.579 35.7478 122.793 36.2541C123.007 36.7604 123.065 37.318 122.961 37.8571C122.856 38.3961 122.593 38.8924 122.204 39.2838C121.815 39.6751 121.319 39.944 120.776 40.0567C120.234 40.1693 119.67 40.1207 119.155 39.917C118.64 39.7133 118.198 39.3635 117.883 38.9116C117.569 38.4597 117.396 37.9258 117.387 37.3769V37.3769Z" fill="black"/>
<path d="M46.0021 85.19V47.49L49.3081 50.912H37.4181V44.59H53.5421V85.19H46.0021ZM61.0159 75.968V70.748L81.0259 44.59H89.0879L69.3679 70.748L65.5979 69.588H97.7879V75.968H61.0159ZM83.2879 85.19V75.968L83.5199 69.588V61.41H90.5959V85.19H83.2879Z" fill="black"/>
</svg>
