<svg width="150" height="150" viewBox="0 0 150 150" fill="none" xmlns="http://www.w3.org/2000/svg">
<g clip-path="url(#clip0_784_5172)">
<rect x="48.9857" y="132.35" width="39.3001" height="114.693" rx="4.5" transform="rotate(-142.192 48.9857 132.35)" fill="#FFDF7F" stroke="black"/>
<g clip-path="url(#clip1_784_5172)">
<path d="M70.5047 136.77L71.8806 137.837C72.7495 138.511 73.848 138.816 74.9345 138.684C76.021 138.552 77.0065 137.995 77.6741 137.134L83.716 129.348C84.3837 128.487 84.6789 127.394 84.5366 126.309C84.3944 125.224 83.8263 124.235 82.9575 123.561L81.5815 122.494C82.0002 121.643 82.1101 120.672 81.8925 119.745C81.6749 118.817 81.1432 117.99 80.3875 117.404C79.6318 116.817 78.6986 116.508 77.746 116.527C76.7934 116.547 75.88 116.895 75.1605 117.511L72.4741 115.427C72.1266 115.157 71.6872 115.036 71.2526 115.088C70.818 115.141 70.4238 115.364 70.1567 115.708L61.0939 127.388C60.8268 127.733 60.7087 128.17 60.7656 128.604C60.8225 129.038 61.0498 129.433 61.3973 129.703L64.0837 131.787C63.6649 132.638 63.5551 133.609 63.7727 134.536C63.9903 135.464 64.522 136.291 65.2777 136.877C66.0334 137.464 66.9666 137.773 67.9192 137.754C68.8718 137.734 69.7852 137.386 70.5047 136.77V136.77ZM82.4056 128.331L76.3637 136.118C75.9615 136.632 75.3705 136.964 74.7194 137.043C74.0683 137.122 73.4099 136.941 72.8876 136.539L71.5117 135.472C71.9273 134.621 72.0352 133.651 71.8173 132.725C71.5994 131.798 71.0689 130.972 70.3151 130.385L75.3501 123.896C76.1059 124.48 77.0381 124.789 77.9896 124.77C78.9411 124.751 79.854 124.405 80.5745 123.791L81.9505 124.859C82.4695 125.265 82.8085 125.858 82.8938 126.508C82.979 127.158 82.8036 127.813 82.4056 128.331V128.331ZM65.8069 132.137L65.832 132.104C65.9656 131.932 66.0246 131.714 65.9962 131.497C65.9677 131.28 65.8541 131.082 65.6803 130.947L62.4043 128.405L71.4671 116.725L74.7432 119.267C74.8288 119.333 74.9267 119.382 75.0311 119.411C75.1356 119.439 75.2444 119.447 75.3515 119.433C75.4585 119.42 75.5615 119.385 75.6546 119.331C75.7477 119.277 75.829 119.206 75.8937 119.12L75.9189 119.087C76.2227 118.709 76.6325 118.43 77.0969 118.285C77.5614 118.139 78.0598 118.134 78.5296 118.27C78.9995 118.406 79.42 118.678 79.7383 119.05C80.0566 119.422 80.2586 119.878 80.319 120.362C80.3793 120.846 80.2954 121.335 80.0776 121.769C79.8599 122.202 79.5181 122.561 79.095 122.8C78.6719 123.039 78.1864 123.147 77.6993 123.111C77.2123 123.075 76.7453 122.897 76.357 122.598L73.081 120.056C72.9072 119.921 72.6875 119.86 72.4702 119.887C72.2529 119.913 72.0558 120.025 71.9223 120.197C71.7888 120.369 71.7297 120.587 71.7582 120.804C71.7866 121.022 71.9002 121.219 72.074 121.354L74.0396 122.879L69.0047 129.368L67.0391 127.843C66.8653 127.708 66.6456 127.647 66.4283 127.674C66.211 127.7 66.0139 127.812 65.8804 127.984C65.7469 128.156 65.6878 128.374 65.7163 128.591C65.7447 128.808 65.8583 129.006 66.0321 129.141L69.3081 131.683C69.6955 131.983 69.9862 132.391 70.1438 132.853C70.3014 133.316 70.3189 133.814 70.194 134.284C70.0692 134.754 69.8076 135.175 69.442 135.495C69.0765 135.815 68.6234 136.019 68.1395 136.082C67.6557 136.145 67.1627 136.063 66.7225 135.848C66.2823 135.632 65.9145 135.292 65.6653 134.871C65.4161 134.45 65.2966 133.965 65.3217 133.479C65.3469 132.992 65.5157 132.525 65.8069 132.137V132.137Z" fill="black"/>
</g>
<g clip-path="url(#clip2_784_5172)">
<path d="M19.0578 73.9896L17.6819 72.922C16.813 72.2479 15.7145 71.9432 14.628 72.075C13.5415 72.2067 12.556 72.7642 11.8884 73.6247L5.84645 81.4116C5.17878 82.2721 4.88361 83.3652 5.02587 84.4503C5.16813 85.5355 5.73617 86.5239 6.60503 87.198L7.98097 88.2656C7.56226 89.1158 7.4524 90.0869 7.67001 91.0145C7.88762 91.9422 8.41931 92.7692 9.175 93.3556C9.93069 93.9419 10.8639 94.2515 11.8165 94.2318C12.7691 94.2122 13.6825 93.8645 14.402 93.2477L17.0884 95.3321C17.4359 95.6018 17.8753 95.7237 18.3099 95.6709C18.7445 95.6182 19.1387 95.3953 19.4058 95.0511L28.4686 83.3707C28.7357 83.0265 28.8538 82.5893 28.7969 82.1552C28.74 81.7211 28.5127 81.3258 28.1652 81.0561L25.4788 78.9718C25.8976 78.1216 26.0074 77.1505 25.7898 76.2228C25.5722 75.2952 25.0405 74.4682 24.2848 73.8818C23.5291 73.2955 22.5959 72.9859 21.6433 73.0056C20.6907 73.0252 19.7773 73.3729 19.0578 73.9896V73.9896ZM7.15687 82.4283L13.1988 74.6414C13.601 74.1275 14.192 73.7948 14.8431 73.7158C15.4942 73.6368 16.1526 73.818 16.6749 74.2199L18.0508 75.2875C17.6352 76.1379 17.5273 77.108 17.7452 78.0344C17.9631 78.9609 18.4936 79.7871 19.2474 80.3742L14.2124 86.8632C13.4566 86.2789 12.5244 85.9703 11.5729 85.9894C10.6214 86.0084 9.70851 86.354 8.98796 86.9678L7.61202 85.9002C7.09302 85.4941 6.75398 84.9014 6.66873 84.2511C6.58348 83.6008 6.75893 82.9457 7.15687 82.4283V82.4283ZM23.7556 78.6223L23.7305 78.6548C23.5969 78.8269 23.5379 79.0455 23.5663 79.2625C23.5948 79.4795 23.7084 79.6772 23.8822 79.812L27.1582 82.3539L18.0954 94.0343L14.8193 91.4924C14.7337 91.4259 14.6358 91.377 14.5314 91.3483C14.4269 91.3197 14.3181 91.312 14.211 91.3257C14.104 91.3393 14.001 91.3741 13.9079 91.4279C13.8148 91.4818 13.7335 91.5536 13.6688 91.6393L13.6436 91.6717C13.3398 92.0499 12.93 92.3292 12.4656 92.4746C12.0011 92.6199 11.5027 92.6249 11.0329 92.4888C10.563 92.3527 10.1425 92.0816 9.82422 91.7095C9.50591 91.3375 9.30391 90.8809 9.24354 90.3972C9.18317 89.9135 9.26712 89.4241 9.48485 88.9904C9.70259 88.5567 10.0444 88.198 10.4675 87.9592C10.8906 87.7204 11.3761 87.6121 11.8632 87.6481C12.3502 87.684 12.8172 87.8624 13.2055 88.1611L16.4815 90.703C16.6553 90.8378 16.875 90.8987 17.0923 90.8724C17.3096 90.846 17.5067 90.7345 17.6402 90.5624C17.7737 90.3903 17.8328 90.1717 17.8043 89.9547C17.7759 89.7376 17.6623 89.54 17.4885 89.4051L15.5229 87.88L20.5578 81.3909L22.5234 82.9161C22.6972 83.0509 22.9169 83.1118 23.1342 83.0855C23.3515 83.0591 23.5486 82.9476 23.6821 82.7755C23.8156 82.6034 23.8747 82.3848 23.8462 82.1678C23.8178 81.9507 23.7042 81.7531 23.5304 81.6182L20.2544 79.0763C19.867 78.7757 19.5763 78.3685 19.4187 77.9058C19.2611 77.443 19.2436 76.9454 19.3685 76.4754C19.4933 76.0055 19.7549 75.5841 20.1205 75.2642C20.486 74.9443 20.9391 74.7401 21.423 74.6774C21.9068 74.6147 22.3998 74.6961 22.84 74.9115C23.2802 75.1269 23.648 75.4667 23.8972 75.8882C24.1464 76.3096 24.2659 76.794 24.2408 77.2805C24.2156 77.7669 24.0468 78.2337 23.7556 78.6223V78.6223Z" fill="black"/>
</g>
<g clip-path="url(#clip3_784_5172)">
<path d="M94.3445 106.39L95.7205 107.457C96.5893 108.131 97.6878 108.436 98.7743 108.304C99.8608 108.172 100.846 107.615 101.514 106.754L107.556 98.9676C108.224 98.1071 108.519 97.014 108.376 95.9288C108.234 94.8437 107.666 93.8553 106.797 93.1811L105.421 92.1135C105.84 91.2634 105.95 90.2922 105.732 89.3646C105.515 88.437 104.983 87.6099 104.227 87.0236C103.472 86.4372 102.538 86.1277 101.586 86.1473C100.633 86.167 99.7198 86.5146 99.0003 87.1314L96.314 85.047C95.9664 84.7774 95.527 84.6555 95.0924 84.7082C94.6578 84.7609 94.2636 84.9839 93.9966 85.3281L84.9337 97.0084C84.6666 97.3526 84.5486 97.7899 84.6055 98.2239C84.6624 98.658 84.8896 99.0534 85.2372 99.323L87.9235 101.407C87.5048 102.258 87.3949 103.229 87.6125 104.156C87.8302 105.084 88.3618 105.911 89.1175 106.497C89.8732 107.084 90.8064 107.393 91.759 107.374C92.7116 107.354 93.6251 107.006 94.3445 106.39V106.39ZM106.245 97.9508L100.204 105.738C99.8013 106.252 99.2103 106.584 98.5592 106.663C97.9082 106.742 97.2498 106.561 96.7275 106.159L95.3515 105.092C95.7671 104.241 95.8751 103.271 95.6571 102.345C95.4392 101.418 94.9087 100.592 94.155 100.005L99.1899 93.5159C99.9458 94.1002 100.878 94.4088 101.829 94.3898C102.781 94.3707 103.694 94.0252 104.414 93.4113L105.79 94.4789C106.309 94.8851 106.648 95.4778 106.734 96.1281C106.819 96.7784 106.643 97.4335 106.245 97.9508V97.9508ZM89.6467 101.757L89.6719 101.724C89.8054 101.552 89.8645 101.334 89.836 101.117C89.8076 100.9 89.6939 100.702 89.5202 100.567L86.2441 98.0252L95.307 86.3449L98.583 88.8868C98.6687 88.9532 98.7666 89.0022 98.871 89.0308C98.9754 89.0594 99.0843 89.0671 99.1913 89.0535C99.2983 89.0398 99.4014 89.005 99.4945 88.9512C99.5875 88.8974 99.6688 88.8255 99.7335 88.7399L99.7587 88.7074C100.063 88.3292 100.472 88.0499 100.937 87.9046C101.401 87.7592 101.9 87.7543 102.369 87.8904C102.839 88.0265 103.26 88.2976 103.578 88.6696C103.896 89.0417 104.098 89.4982 104.159 89.9819C104.219 90.4656 104.135 90.955 103.917 91.3887C103.7 91.8224 103.358 92.1812 102.935 92.42C102.512 92.6588 102.026 92.767 101.539 92.7311C101.052 92.6952 100.585 92.5167 100.197 92.2181L96.9208 89.6762C96.7471 89.5414 96.5274 89.4804 96.3101 89.5068C96.0928 89.5331 95.8957 89.6446 95.7621 89.8167C95.6286 89.9888 95.5696 90.2074 95.598 90.4245C95.6265 90.6415 95.7401 90.8392 95.9139 90.974L97.8795 92.4992L92.8446 98.9882L90.8789 97.4631C90.7052 97.3283 90.4855 97.2673 90.2682 97.2937C90.0509 97.32 89.8538 97.4315 89.7202 97.6036C89.5867 97.7757 89.5277 97.9943 89.5561 98.2114C89.5846 98.4284 89.6982 98.6261 89.872 98.7609L93.148 101.303C93.5353 101.603 93.826 102.011 93.9836 102.473C94.1412 102.936 94.1587 103.434 94.0339 103.904C93.909 104.374 93.6474 104.795 93.2819 105.115C92.9164 105.435 92.4632 105.639 91.9794 105.702C91.4955 105.764 91.0026 105.683 90.5624 105.468C90.1222 105.252 89.7543 104.912 89.5051 104.491C89.2559 104.07 89.1364 103.585 89.1616 103.099C89.1868 102.612 89.3556 102.145 89.6467 101.757V101.757Z" fill="black"/>
</g>
<g clip-path="url(#clip4_784_5172)">
<path d="M42.8937 43.6077L41.5178 42.5401C40.6489 41.8659 39.5504 41.5612 38.4639 41.693C37.3774 41.8248 36.392 42.3822 35.7243 43.2427L29.6824 51.0296C29.0147 51.8901 28.7195 52.9832 28.8618 54.0684C29.0041 55.1535 29.5721 56.1419 30.441 56.8161L31.8169 57.8837C31.3982 58.7338 31.2883 59.705 31.5059 60.6326C31.7236 61.5602 32.2552 62.3873 33.0109 62.9736C33.7666 63.56 34.6998 63.8695 35.6524 63.8499C36.6051 63.8302 37.5185 63.4826 38.2379 62.8658L40.9243 64.9502C41.2718 65.2198 41.7112 65.3417 42.1458 65.289C42.5804 65.2363 42.9746 65.0133 43.2417 64.6691L52.3046 52.9887C52.5716 52.6445 52.6897 52.2073 52.6328 51.7733C52.5759 51.3392 52.3487 50.9438 52.0011 50.6742L49.3148 48.5898C49.7335 47.7397 49.8433 46.7685 49.6257 45.8409C49.4081 44.9133 48.8764 44.0862 48.1207 43.4999C47.3651 42.9135 46.4319 42.6039 45.4792 42.6236C44.5266 42.6432 43.6132 42.9909 42.8937 43.6077V43.6077ZM30.9928 52.0464L37.0347 44.2595C37.437 43.7455 38.028 43.4128 38.6791 43.3339C39.3301 43.2549 39.9885 43.4361 40.5108 43.8379L41.8868 44.9055C41.4711 45.756 41.3632 46.726 41.5811 47.6525C41.7991 48.5789 42.3295 49.4052 43.0833 49.9922L38.0484 56.4813C37.2925 55.897 36.3604 55.5884 35.4088 55.6074C34.4573 55.6265 33.5444 55.972 32.8239 56.5858L31.448 55.5182C30.929 55.1121 30.5899 54.5194 30.5047 53.8691C30.4194 53.2188 30.5949 52.5637 30.9928 52.0464V52.0464ZM47.5916 48.2404L47.5664 48.2728C47.4329 48.4449 47.3738 48.6635 47.4023 48.8805C47.4307 49.0976 47.5443 49.2953 47.7181 49.4301L50.9941 51.972L41.9313 63.6523L38.6552 61.1104C38.5696 61.044 38.4717 60.995 38.3673 60.9664C38.2629 60.9378 38.154 60.9301 38.047 60.9437C37.9399 60.9574 37.8369 60.9921 37.7438 61.046C37.6507 61.0998 37.5695 61.1716 37.5047 61.2573L37.4796 61.2898C37.1758 61.668 36.7659 61.9473 36.3015 62.0926C35.8371 62.238 35.3387 62.2429 34.8688 62.1068C34.3989 61.9707 33.9785 61.6996 33.6602 61.3276C33.3419 60.9555 33.1399 60.499 33.0795 60.0153C33.0191 59.5316 33.1031 59.0422 33.3208 58.6085C33.5385 58.1747 33.8804 57.816 34.3035 57.5772C34.7265 57.3384 35.212 57.2302 35.6991 57.2661C36.1862 57.302 36.6531 57.4805 37.0414 57.7791L40.3174 60.321C40.4912 60.4558 40.7109 60.5168 40.9282 60.4904C41.1455 60.4641 41.3426 60.3526 41.4761 60.1805C41.6097 60.0084 41.6687 59.7898 41.6403 59.5727C41.6118 59.3557 41.4982 59.158 41.3244 59.0232L39.3588 57.498L44.3937 51.009L46.3593 52.5341C46.5331 52.6689 46.7528 52.7299 46.9701 52.7035C47.1874 52.6772 47.3845 52.5657 47.518 52.3936C47.6516 52.2215 47.7106 52.0029 47.6822 51.7858C47.6537 51.5688 47.5401 51.3711 47.3663 51.2363L44.0903 48.6944C43.703 48.3938 43.4123 47.9865 43.2546 47.5238C43.097 47.0611 43.0796 46.5635 43.2044 46.0935C43.3293 45.6235 43.5909 45.2021 43.9564 44.8822C44.3219 44.5623 44.7751 44.3582 45.2589 44.2954C45.7427 44.2327 46.2357 44.3141 46.6759 44.5296C47.1161 44.745 47.4839 45.0848 47.7331 45.5062C47.9824 45.9277 48.1019 46.4121 48.0767 46.8985C48.0515 47.3849 47.8827 47.8518 47.5916 48.2404V48.2404Z" fill="black"/>
</g>
<g clip-path="url(#clip5_784_5172)">
<path d="M118.18 76.0069L119.556 77.0745C120.425 77.7487 121.524 78.0534 122.61 77.9216C123.697 77.7899 124.682 77.2324 125.35 76.3719L131.392 68.585C132.06 67.7245 132.355 66.6314 132.212 65.5463C132.07 64.4611 131.502 63.4727 130.633 62.7986L129.257 61.731C129.676 60.8808 129.786 59.9097 129.568 58.982C129.351 58.0544 128.819 57.2274 128.063 56.641C127.308 56.0547 126.374 55.7451 125.422 55.7647C124.469 55.7844 123.556 56.1321 122.836 56.7488L120.15 54.6645C119.802 54.3948 119.363 54.2729 118.928 54.3256C118.494 54.3783 118.1 54.6013 117.833 54.9455L108.77 66.6259C108.503 66.9701 108.385 67.4073 108.441 67.8414C108.498 68.2754 108.726 68.6708 109.073 68.9405L111.759 71.0248C111.341 71.8749 111.231 72.8461 111.448 73.7737C111.666 74.7014 112.198 75.5284 112.953 76.1148C113.709 76.7011 114.642 77.0107 115.595 76.991C116.548 76.9714 117.461 76.6237 118.18 76.0069V76.0069ZM130.081 67.5682L124.04 75.3551C123.637 75.8691 123.046 76.2018 122.395 76.2808C121.744 76.3597 121.086 76.1786 120.563 75.7767L119.187 74.7091C119.603 73.8587 119.711 72.8886 119.493 71.9622C119.275 71.0357 118.745 70.2095 117.991 69.6224L123.026 63.1333C123.782 63.7176 124.714 64.0262 125.665 64.0072C126.617 63.9881 127.53 63.6426 128.25 63.0288L129.626 64.0964C130.145 64.5025 130.484 65.0952 130.57 65.7455C130.655 66.3958 130.479 67.0509 130.081 67.5682V67.5682ZM113.483 71.3743L113.508 71.3418C113.641 71.1697 113.7 70.9511 113.672 70.7341C113.643 70.517 113.53 70.3194 113.356 70.1845L110.08 67.6426L119.143 55.9623L122.419 58.5042C122.505 58.5707 122.603 58.6196 122.707 58.6482C122.811 58.6769 122.92 58.6846 123.027 58.6709C123.134 58.6572 123.237 58.6225 123.33 58.5686C123.423 58.5148 123.505 58.443 123.569 58.3573L123.595 58.3249C123.898 57.9466 124.308 57.6673 124.773 57.522C125.237 57.3767 125.736 57.3717 126.205 57.5078C126.675 57.6439 127.096 57.915 127.414 58.2871C127.732 58.6591 127.934 59.1156 127.995 59.5993C128.055 60.0831 127.971 60.5724 127.753 61.0062C127.536 61.4399 127.194 61.7986 126.771 62.0374C126.348 62.2762 125.862 62.3844 125.375 62.3485C124.888 62.3126 124.421 62.1342 124.033 61.8355L120.757 59.2936C120.583 59.1588 120.363 59.0979 120.146 59.1242C119.929 59.1506 119.732 59.2621 119.598 59.4342C119.465 59.6063 119.406 59.8249 119.434 60.0419C119.462 60.2589 119.576 60.4566 119.75 60.5914L121.715 62.1166L116.68 68.6057L114.715 67.0805C114.541 66.9457 114.321 66.8848 114.104 66.9111C113.887 66.9375 113.69 67.049 113.556 67.2211C113.423 67.3932 113.364 67.6118 113.392 67.8288C113.421 68.0458 113.534 68.2435 113.708 68.3783L116.984 70.9202C117.371 71.2208 117.662 71.6281 117.82 72.0908C117.977 72.5536 117.995 73.0512 117.87 73.5211C117.745 73.9911 117.483 74.4125 117.118 74.7324C116.752 75.0523 116.299 75.2564 115.815 75.3192C115.331 75.3819 114.839 75.3005 114.398 75.0851C113.958 74.8696 113.59 74.5299 113.341 74.1084C113.092 73.6869 112.972 73.2026 112.998 72.7161C113.023 72.2297 113.191 71.7629 113.483 71.3743V71.3743Z" fill="black"/>
</g>
<g clip-path="url(#clip6_784_5172)">
<path d="M66.7336 13.2268L65.3576 12.1592C64.4888 11.4851 63.3903 11.1804 62.3038 11.3121C61.2173 11.4439 60.2318 12.0014 59.5641 12.8619L53.5222 20.6488C52.8546 21.5093 52.5594 22.6023 52.7017 23.6875C52.8439 24.7727 53.412 25.7611 54.2808 26.4352L55.6568 27.5028C55.238 28.3529 55.1282 29.3241 55.3458 30.2517C55.5634 31.1794 56.0951 32.0064 56.8508 32.5928C57.6065 33.1791 58.5397 33.4887 59.4923 33.469C60.4449 33.4494 61.3583 33.1017 62.0778 32.4849L64.7641 34.5693C65.1117 34.839 65.5511 34.9608 65.9857 34.9081C66.4203 34.8554 66.8145 34.6324 67.0815 34.2882L76.1444 22.6079C76.4115 22.2637 76.5295 21.8265 76.4726 21.3924C76.4157 20.9583 76.1885 20.563 75.841 20.2933L73.1546 18.209C73.5733 17.3588 73.6832 16.3877 73.4656 15.46C73.248 14.5324 72.7163 13.7053 71.9606 13.119C71.2049 12.5327 70.2717 12.2231 69.3191 12.2427C68.3665 12.2624 67.4531 12.6101 66.7336 13.2268V13.2268ZM54.8327 21.6655L60.8746 13.8786C61.2768 13.3647 61.8678 13.032 62.5189 12.953C63.17 12.874 63.8283 13.0552 64.3507 13.457L65.7266 14.5246C65.311 15.3751 65.2031 16.3452 65.421 17.2716C65.6389 18.198 66.1694 19.0243 66.9231 19.6113L61.8882 26.1004C61.1323 25.5161 60.2002 25.2075 59.2487 25.2266C58.2971 25.2456 57.3843 25.5911 56.6637 26.205L55.2878 25.1374C54.7688 24.7313 54.4298 24.1385 54.3445 23.4883C54.2593 22.838 54.4347 22.1828 54.8327 21.6655V21.6655ZM71.4314 17.8595L71.4062 17.8919C71.2727 18.064 71.2137 18.2827 71.2421 18.4997C71.2706 18.7167 71.3842 18.9144 71.5579 19.0492L74.834 21.5911L65.7711 33.2715L62.4951 30.7296C62.4094 30.6631 62.3116 30.6141 62.2071 30.5855C62.1027 30.5569 61.9938 30.5492 61.8868 30.5629C61.7798 30.5765 61.6767 30.6113 61.5837 30.6651C61.4906 30.7189 61.4093 30.7908 61.3446 30.8765L61.3194 30.9089C61.0156 31.2871 60.6058 31.5664 60.1413 31.7118C59.6769 31.8571 59.1785 31.862 58.7086 31.7259C58.2388 31.5898 57.8183 31.3188 57.5 30.9467C57.1817 30.5746 56.9797 30.1181 56.9193 29.6344C56.859 29.1507 56.9429 28.6613 57.1606 28.2276C57.3784 27.7939 57.7202 27.4351 58.1433 27.1963C58.5664 26.9575 59.0519 26.8493 59.539 26.8852C60.026 26.9211 60.493 27.0996 60.8812 27.3982L64.1573 29.9401C64.3311 30.075 64.5508 30.1359 64.7681 30.1096C64.9854 30.0832 65.1824 29.9717 65.316 29.7996C65.4495 29.6275 65.5086 29.4089 65.4801 29.1919C65.4516 28.9748 65.338 28.7772 65.1643 28.6423L63.1986 27.1172L68.2336 20.6281L70.1992 22.1532C70.373 22.2881 70.5927 22.349 70.81 22.3227C71.0273 22.2963 71.2244 22.1848 71.3579 22.0127C71.4914 21.8406 71.5505 21.622 71.522 21.405C71.4936 21.1879 71.3799 20.9903 71.2062 20.8554L67.9301 18.3135C67.5428 18.0129 67.2521 17.6057 67.0945 17.1429C66.9369 16.6802 66.9194 16.1826 67.0443 15.7126C67.1691 15.2427 67.4307 14.8213 67.7962 14.5014C68.1618 14.1815 68.6149 13.9773 69.0987 13.9146C69.5826 13.8518 70.0756 13.9333 70.5158 14.1487C70.956 14.3641 71.3238 14.7039 71.573 15.1254C71.8222 15.5468 71.9417 16.0312 71.9165 16.5176C71.8913 17.0041 71.7226 17.4709 71.4314 17.8595V17.8595Z" fill="black"/>
</g>
<path d="M69.5011 89.9C66.9678 89.9 64.7944 89.3667 62.9811 88.3C61.1678 87.2067 59.7811 85.6333 58.8211 83.58C57.8611 81.5267 57.3811 78.9933 57.3811 75.98C57.3811 72.78 57.9544 70.0733 59.1011 67.86C60.2744 65.6467 61.8878 63.9667 63.9411 62.82C66.0211 61.6733 68.4078 61.1 71.1011 61.1C72.5144 61.1 73.8611 61.2467 75.1411 61.54C76.4478 61.8333 77.5544 62.2867 78.4611 62.9L76.5411 66.82C75.7678 66.3133 74.9278 65.9667 74.0211 65.78C73.1411 65.5667 72.2078 65.46 71.2211 65.46C68.5811 65.46 66.4878 66.2733 64.9411 67.9C63.3944 69.5267 62.6211 71.9267 62.6211 75.1C62.6211 75.6067 62.6344 76.2067 62.6611 76.9C62.6878 77.5667 62.7811 78.2467 62.9411 78.94L61.3411 77.18C61.8211 76.0867 62.4744 75.18 63.3011 74.46C64.1544 73.7133 65.1544 73.1533 66.3011 72.78C67.4744 72.4067 68.7411 72.22 70.1011 72.22C71.9411 72.22 73.5811 72.58 75.0211 73.3C76.4611 73.9933 77.6078 74.9933 78.4611 76.3C79.3144 77.58 79.7411 79.0867 79.7411 80.82C79.7411 82.66 79.2878 84.26 78.3811 85.62C77.4744 86.98 76.2478 88.0333 74.7011 88.78C73.1544 89.5267 71.4211 89.9 69.5011 89.9ZM69.2211 85.82C70.2878 85.82 71.2344 85.6333 72.0611 85.26C72.8878 84.86 73.5278 84.3 73.9811 83.58C74.4611 82.86 74.7011 82.02 74.7011 81.06C74.7011 79.5933 74.1944 78.4333 73.1811 77.58C72.1678 76.7267 70.8078 76.3 69.1011 76.3C67.9811 76.3 66.9944 76.5133 66.1411 76.94C65.3144 77.34 64.6478 77.9 64.1411 78.62C63.6611 79.34 63.4211 80.1667 63.4211 81.1C63.4211 81.9533 63.6478 82.74 64.1011 83.46C64.5544 84.18 65.2078 84.7533 66.0611 85.18C66.9411 85.6067 67.9944 85.82 69.2211 85.82Z" fill="black"/>
</g>
<defs>
<clipPath id="clip0_784_5172">
<rect width="150" height="150" fill="white"/>
</clipPath>
<clipPath id="clip1_784_5172">
<rect width="26.2826" height="26.5378" fill="white" transform="translate(91.3711 124.892) rotate(127.808)"/>
</clipPath>
<clipPath id="clip2_784_5172">
<rect width="26.2826" height="26.5378" fill="white" transform="translate(-1.80859 85.8672) rotate(-52.1919)"/>
</clipPath>
<clipPath id="clip3_784_5172">
<rect width="26.2826" height="26.5378" fill="white" transform="translate(115.211 94.512) rotate(127.808)"/>
</clipPath>
<clipPath id="clip4_784_5172">
<rect width="26.2826" height="26.5378" fill="white" transform="translate(22.0273 55.4852) rotate(-52.1919)"/>
</clipPath>
<clipPath id="clip5_784_5172">
<rect width="26.2826" height="26.5378" fill="white" transform="translate(139.047 64.1294) rotate(127.808)"/>
</clipPath>
<clipPath id="clip6_784_5172">
<rect width="26.2826" height="26.5378" fill="white" transform="translate(45.8672 25.1044) rotate(-52.1919)"/>
</clipPath>
</defs>
</svg>
