<svg width="150" height="150" viewBox="0 0 150 150" fill="none" xmlns="http://www.w3.org/2000/svg">
<rect x="94.8633" y="132.347" width="39.3001" height="114.693" rx="4.5" transform="rotate(-180 94.8633 132.347)" fill="#FFDF7F" stroke="black"/>
<path d="M114.358 122.647L116.1 122.647C117.199 122.647 118.254 122.215 119.032 121.445C119.809 120.674 120.246 119.63 120.246 118.541L120.246 108.685C120.246 107.596 119.809 106.551 119.032 105.781C118.254 105.011 117.199 104.578 116.1 104.578L114.358 104.578C114.168 103.65 113.659 102.815 112.919 102.216C112.178 101.616 111.251 101.289 110.294 101.289C109.338 101.289 108.411 101.616 107.67 102.216C106.93 102.815 106.421 103.65 106.231 104.578L102.831 104.578C102.391 104.578 101.969 104.751 101.658 105.059C101.347 105.367 101.172 105.785 101.172 106.221L101.172 121.005C101.172 121.44 101.347 121.858 101.658 122.166C101.969 122.474 102.391 122.647 102.831 122.647L106.231 122.647C106.421 123.576 106.93 124.41 107.67 125.01C108.411 125.609 109.338 125.937 110.294 125.937C111.251 125.937 112.178 125.609 112.919 125.01C113.659 124.41 114.168 123.576 114.358 122.647V122.647ZM118.587 108.685L118.587 118.541C118.585 119.193 118.322 119.819 117.856 120.28C117.39 120.742 116.759 121.002 116.1 121.005L114.358 121.005C114.165 120.078 113.656 119.246 112.916 118.647C112.175 118.049 111.25 117.721 110.294 117.719L110.294 109.506C111.25 109.504 112.175 109.177 112.916 108.578C113.656 107.98 114.165 107.148 114.358 106.221L116.1 106.221C116.759 106.224 117.39 106.484 117.856 106.945C118.322 107.407 118.585 108.032 118.587 108.685V108.685ZM107.807 121.867L107.807 121.826C107.807 121.608 107.719 121.399 107.564 121.245C107.408 121.091 107.197 121.005 106.977 121.005L102.831 121.005L102.831 106.221L106.977 106.221C107.086 106.221 107.193 106.199 107.293 106.158C107.393 106.117 107.484 106.056 107.56 105.98C107.636 105.903 107.696 105.813 107.737 105.713C107.777 105.613 107.798 105.507 107.796 105.399L107.796 105.358C107.804 104.873 107.957 104.401 108.235 104.002C108.513 103.602 108.903 103.293 109.358 103.112C109.813 102.932 110.311 102.888 110.791 102.987C111.27 103.086 111.71 103.323 112.054 103.668C112.398 104.013 112.632 104.451 112.726 104.927C112.819 105.404 112.769 105.897 112.581 106.345C112.393 106.793 112.076 107.176 111.669 107.446C111.263 107.716 110.784 107.861 110.294 107.863L106.148 107.863C105.928 107.863 105.717 107.95 105.561 108.104C105.406 108.258 105.319 108.467 105.319 108.685C105.319 108.903 105.406 109.112 105.561 109.266C105.717 109.42 105.928 109.506 106.148 109.506L108.636 109.506L108.636 117.719L106.148 117.719C105.928 117.719 105.717 117.806 105.561 117.96C105.406 118.114 105.319 118.323 105.319 118.541C105.319 118.759 105.406 118.968 105.561 119.122C105.717 119.276 105.928 119.362 106.148 119.362L110.294 119.362C110.785 119.362 111.264 119.506 111.672 119.775C112.08 120.044 112.399 120.426 112.589 120.874C112.778 121.322 112.83 121.815 112.737 122.292C112.644 122.769 112.412 123.208 112.068 123.554C111.724 123.9 111.285 124.138 110.805 124.238C110.325 124.337 109.826 124.294 109.371 124.114C108.915 123.934 108.524 123.624 108.246 123.225C107.968 122.825 107.815 122.353 107.807 121.867V121.867Z" fill="black"/>
<path d="M35.2279 104.582L33.4864 104.582C32.3866 104.582 31.332 105.014 30.5543 105.784C29.7767 106.555 29.3398 107.599 29.3398 108.688L29.3398 118.544C29.3398 119.633 29.7767 120.678 30.5543 121.448C31.332 122.218 32.3866 122.651 33.4864 122.651L35.2279 122.651C35.4183 123.579 35.9268 124.414 36.6674 125.013C37.408 125.613 38.335 125.94 39.2915 125.94C40.248 125.94 41.1751 125.613 41.9157 125.013C42.6562 124.414 43.1648 123.579 43.3551 122.651L46.7553 122.651C47.1952 122.651 47.617 122.478 47.9281 122.17C48.2391 121.862 48.4139 121.444 48.4139 121.008L48.4139 106.224C48.4139 105.789 48.2391 105.371 47.9281 105.063C47.617 104.755 47.1952 104.582 46.7553 104.582L43.3551 104.582C43.1648 103.653 42.6562 102.819 41.9157 102.219C41.1751 101.62 40.248 101.292 39.2915 101.292C38.335 101.292 37.408 101.62 36.6674 102.219C35.9268 102.819 35.4183 103.653 35.2279 104.582V104.582ZM30.9985 118.544L30.9985 108.688C31.0012 108.036 31.2642 107.41 31.7302 106.949C32.1961 106.487 32.8274 106.227 33.4864 106.224L35.2279 106.224C35.4209 107.151 35.9303 107.983 36.6704 108.582C37.4105 109.18 38.3361 109.508 39.2915 109.51L39.2915 117.723C38.3361 117.725 37.4105 118.052 36.6704 118.651C35.9303 119.249 35.4209 120.082 35.2279 121.008L33.4864 121.008C32.8274 121.005 32.1962 120.745 31.7302 120.284C31.2642 119.822 31.0012 119.197 30.9985 118.544V118.544ZM41.7794 105.362L41.7794 105.403C41.7794 105.621 41.8668 105.83 42.0223 105.984C42.1779 106.138 42.3888 106.224 42.6087 106.224L46.7553 106.224L46.7553 121.008L42.6087 121.008C42.5003 121.008 42.393 121.03 42.2929 121.071C42.1929 121.112 42.1021 121.173 42.026 121.249C41.9498 121.326 41.8897 121.416 41.8491 121.516C41.8086 121.616 41.7884 121.722 41.7898 121.83L41.7898 121.871C41.7816 122.356 41.6291 122.828 41.3512 123.227C41.0734 123.627 40.6826 123.936 40.228 124.117C39.7733 124.297 39.275 124.341 38.7954 124.242C38.3158 124.143 37.8764 123.906 37.5322 123.561C37.1879 123.216 36.9543 122.778 36.8604 122.302C36.7666 121.825 36.8167 121.332 37.0046 120.884C37.1925 120.436 37.5097 120.053 37.9165 119.783C38.3234 119.513 38.8017 119.368 39.2915 119.366L43.438 119.366C43.658 119.366 43.8689 119.279 44.0245 119.125C44.18 118.971 44.2674 118.762 44.2674 118.544C44.2674 118.326 44.18 118.117 44.0245 117.963C43.8689 117.809 43.658 117.723 43.438 117.723L40.9501 117.723L40.9501 109.51L43.438 109.51C43.658 109.51 43.8689 109.423 44.0245 109.269C44.18 109.115 44.2674 108.906 44.2674 108.688C44.2674 108.47 44.18 108.261 44.0245 108.107C43.8689 107.953 43.658 107.867 43.438 107.867L39.2915 107.867C38.8012 107.867 38.3219 107.723 37.9137 107.454C37.5055 107.185 37.1867 106.803 36.9972 106.355C36.8078 105.907 36.7561 105.414 36.8488 104.937C36.9415 104.46 37.1744 104.021 37.5182 103.675C37.862 103.329 38.3014 103.091 38.7812 102.991C39.2611 102.892 39.76 102.935 40.2152 103.115C40.6705 103.295 41.0618 103.605 41.3401 104.004C41.6184 104.404 41.7713 104.876 41.7794 105.362V105.362Z" fill="black"/>
<path d="M114.569 84.0305L116.311 84.0305C117.41 84.0305 118.465 83.5978 119.243 82.8277C120.02 82.0575 120.457 81.013 120.457 79.9238L120.457 70.0679C120.457 68.9787 120.02 67.9342 119.243 67.164C118.465 66.3939 117.41 65.9612 116.311 65.9612L114.569 65.9612C114.379 65.0329 113.87 64.1982 113.129 63.5987C112.389 62.9992 111.462 62.6718 110.505 62.6718C109.549 62.6718 108.622 62.9992 107.881 63.5987C107.141 64.1982 106.632 65.0329 106.442 65.9612L103.042 65.9612C102.602 65.9612 102.18 66.1343 101.869 66.4423C101.558 66.7504 101.383 67.1682 101.383 67.6039L101.383 82.3878C101.383 82.8235 101.558 83.2413 101.869 83.5494C102.18 83.8574 102.602 84.0305 103.042 84.0305L106.442 84.0305C106.632 84.9588 107.141 85.7935 107.881 86.393C108.622 86.9925 109.549 87.3199 110.505 87.3199C111.462 87.3199 112.389 86.9925 113.129 86.393C113.87 85.7935 114.379 84.9588 114.569 84.0305V84.0305ZM118.798 70.0679L118.798 79.9238C118.796 80.5765 118.533 81.2017 118.067 81.6632C117.601 82.1247 116.969 82.3851 116.311 82.3878L114.569 82.3878C114.376 81.4611 113.867 80.6286 113.126 80.0302C112.386 79.4318 111.461 79.1042 110.505 79.1025L110.505 70.8892C111.461 70.8875 112.386 70.5598 113.126 69.9615C113.867 69.3631 114.376 68.5306 114.569 67.6039L116.311 67.6039C116.969 67.6066 117.601 67.867 118.067 68.3285C118.533 68.79 118.796 69.4152 118.798 70.0679V70.0679ZM108.017 83.2502L108.017 83.2092C108.017 82.9913 107.93 82.7824 107.775 82.6284C107.619 82.4744 107.408 82.3878 107.188 82.3878L103.042 82.3878L103.042 67.6039L107.188 67.6039C107.297 67.6039 107.404 67.5826 107.504 67.5412C107.604 67.4998 107.695 67.4391 107.771 67.3627C107.847 67.2863 107.907 67.1957 107.948 67.0961C107.988 66.9965 108.008 66.8899 108.007 66.7825L108.007 66.7415C108.015 66.2564 108.168 65.7845 108.446 65.385C108.723 64.9854 109.114 64.676 109.569 64.4955C110.024 64.315 110.522 64.2714 111.001 64.3702C111.481 64.4691 111.92 64.7059 112.265 65.0511C112.609 65.3962 112.843 65.8343 112.936 66.3105C113.03 66.7866 112.98 67.2796 112.792 67.7276C112.604 68.1756 112.287 68.5588 111.88 68.829C111.474 69.0992 110.995 69.2444 110.505 69.2465L106.359 69.2465C106.139 69.2465 105.928 69.3331 105.772 69.4871C105.617 69.6411 105.53 69.85 105.53 70.0679C105.53 70.2857 105.617 70.4946 105.772 70.6486C105.928 70.8027 106.139 70.8892 106.359 70.8892L108.847 70.8892L108.847 79.1025L106.359 79.1025C106.139 79.1025 105.928 79.189 105.772 79.3431C105.617 79.4971 105.53 79.706 105.53 79.9238C105.53 80.1417 105.617 80.3506 105.772 80.5046C105.928 80.6586 106.139 80.7452 106.359 80.7452L110.505 80.7452C110.996 80.7452 111.475 80.8888 111.883 81.1577C112.291 81.4267 112.61 81.8091 112.8 82.257C112.989 82.7048 113.041 83.1982 112.948 83.675C112.855 84.1518 112.623 84.5908 112.279 84.937C111.935 85.2832 111.495 85.521 111.016 85.6207C110.536 85.7204 110.037 85.6774 109.582 85.4972C109.126 85.317 108.735 85.0076 108.457 84.6078C108.178 84.208 108.026 83.7357 108.017 83.2502V83.2502Z" fill="black"/>
<path d="M35.4349 65.9678L33.6934 65.9678C32.5937 65.9678 31.539 66.4005 30.7614 67.1706C29.9837 67.9408 29.5469 68.9853 29.5469 70.0745L29.5469 79.9304C29.5469 81.0196 29.9837 82.0641 30.7614 82.8343C31.539 83.6044 32.5937 84.0371 33.6934 84.0371L35.4349 84.0371C35.6253 84.9654 36.1338 85.8001 36.8744 86.3996C37.615 86.999 38.5421 87.3265 39.4985 87.3265C40.455 87.3265 41.3821 86.999 42.1227 86.3996C42.8633 85.8001 43.3718 84.9654 43.5621 84.0371L46.9623 84.0371C47.4022 84.0371 47.8241 83.864 48.1351 83.556C48.4462 83.2479 48.6209 82.8301 48.6209 82.3944L48.6209 67.6105C48.6209 67.1748 48.4462 66.757 48.1351 66.4489C47.8241 66.1409 47.4022 65.9678 46.9623 65.9678L43.5621 65.9678C43.3718 65.0394 42.8633 64.2048 42.1227 63.6053C41.3821 63.0058 40.455 62.6783 39.4985 62.6783C38.5421 62.6783 37.615 63.0058 36.8744 63.6053C36.1338 64.2048 35.6253 65.0394 35.4349 65.9678V65.9678ZM31.2055 79.9304L31.2055 70.0745C31.2082 69.4218 31.4712 68.7966 31.9372 68.3351C32.4032 67.8736 33.0344 67.6132 33.6934 67.6105L35.4349 67.6105C35.6279 68.5372 36.1373 69.3697 36.8774 69.9681C37.6175 70.5664 38.5432 70.8941 39.4985 70.8958L39.4985 79.1091C38.5432 79.1108 37.6175 79.4384 36.8774 80.0368C36.1373 80.6352 35.6279 81.4677 35.4349 82.3944L33.6934 82.3944C33.0344 82.3917 32.4032 82.1313 31.9372 81.6698C31.4712 81.2083 31.2082 80.5831 31.2055 79.9304V79.9304ZM41.9865 66.7481L41.9865 66.7891C41.9865 67.007 42.0738 67.2159 42.2294 67.3699C42.3849 67.5239 42.5958 67.6105 42.8158 67.6105L46.9623 67.6105L46.9623 82.3944L42.8158 82.3944C42.7073 82.3944 42.6 82.4157 42.5 82.4571C42.3999 82.4985 42.3092 82.5592 42.233 82.6356C42.1568 82.712 42.0967 82.8026 42.0562 82.9022C42.0156 83.0018 41.9955 83.1084 41.9968 83.2158L41.9968 83.2568C41.9887 83.7419 41.8361 84.2138 41.5583 84.6133C41.2804 85.0129 40.8897 85.3223 40.435 85.5028C39.9803 85.6833 39.482 85.7269 39.0024 85.6281C38.5228 85.5292 38.0834 85.2924 37.7392 84.9472C37.395 84.6021 37.1613 84.164 37.0674 83.6878C36.9736 83.2117 37.0237 82.7187 37.2116 82.2707C37.3995 81.8226 37.7167 81.4395 38.1236 81.1693C38.5304 80.8991 39.0087 80.7539 39.4985 80.7518L43.6451 80.7518C43.865 80.7518 44.076 80.6652 44.2315 80.5112C44.387 80.3572 44.4744 80.1483 44.4744 79.9304C44.4744 79.7126 44.387 79.5037 44.2315 79.3497C44.076 79.1956 43.865 79.1091 43.6451 79.1091L41.1572 79.1091L41.1572 70.8958L43.6451 70.8958C43.865 70.8958 44.076 70.8093 44.2315 70.6552C44.387 70.5012 44.4744 70.2923 44.4744 70.0745C44.4744 69.8566 44.387 69.6477 44.2315 69.4937C44.076 69.3397 43.865 69.2531 43.6451 69.2531L39.4985 69.2531C39.0083 69.2531 38.5289 69.1095 38.1207 68.8405C37.7126 68.5716 37.3937 68.1891 37.2042 67.7413C37.0148 67.2934 36.9632 66.8001 37.0558 66.3233C37.1485 65.8465 37.3814 65.4074 37.7252 65.0613C38.069 64.7151 38.5084 64.4772 38.9883 64.3776C39.4681 64.2779 39.967 64.3209 40.4223 64.5011C40.8775 64.6813 41.2689 64.9907 41.5472 65.3905C41.8255 65.7903 41.9783 66.2626 41.9865 66.7481V66.7481Z" fill="black"/>
<path d="M114.776 45.416L116.518 45.416C117.617 45.416 118.672 44.9833 119.45 44.2132C120.227 43.443 120.664 42.3985 120.664 41.3093L120.664 31.4534C120.664 30.3642 120.227 29.3197 119.45 28.5495C118.672 27.7794 117.617 27.3467 116.518 27.3467L114.776 27.3467C114.586 26.4184 114.077 25.5837 113.337 24.9842C112.596 24.3847 111.669 24.0573 110.712 24.0573C109.756 24.0573 108.829 24.3847 108.088 24.9842C107.348 25.5837 106.839 26.4184 106.649 27.3467L103.249 27.3467C102.809 27.3467 102.387 27.5198 102.076 27.8278C101.765 28.1359 101.59 28.5537 101.59 28.9894L101.59 43.7733C101.59 44.209 101.765 44.6268 102.076 44.9349C102.387 45.2429 102.809 45.416 103.249 45.416L106.649 45.416C106.839 46.3443 107.348 47.179 108.088 47.7785C108.829 48.378 109.756 48.7054 110.712 48.7054C111.669 48.7054 112.596 48.378 113.337 47.7785C114.077 47.179 114.586 46.3443 114.776 45.416V45.416ZM119.005 31.4534L119.005 41.3093C119.003 41.962 118.74 42.5872 118.274 43.0487C117.808 43.5102 117.177 43.7706 116.518 43.7733L114.776 43.7733C114.583 42.8466 114.074 42.0141 113.334 41.4157C112.593 40.8173 111.668 40.4897 110.712 40.488L110.712 32.2747C111.668 32.273 112.593 31.9453 113.334 31.347C114.074 30.7486 114.583 29.9161 114.776 28.9894L116.518 28.9894C117.177 28.9921 117.808 29.2525 118.274 29.714C118.74 30.1755 119.003 30.8007 119.005 31.4534V31.4534ZM108.224 44.6357L108.224 44.5947C108.224 44.3768 108.137 44.1679 107.982 44.0139C107.826 43.8599 107.615 43.7733 107.395 43.7733L103.249 43.7733L103.249 28.9894L107.395 28.9894C107.504 28.9894 107.611 28.9681 107.711 28.9267C107.811 28.8853 107.902 28.8246 107.978 28.7482C108.054 28.6718 108.114 28.5812 108.155 28.4816C108.195 28.382 108.215 28.2754 108.214 28.168L108.214 28.127C108.222 27.6419 108.375 27.17 108.653 26.7705C108.931 26.3709 109.321 26.0615 109.776 25.881C110.231 25.7005 110.729 25.6569 111.209 25.7557C111.688 25.8546 112.128 26.0914 112.472 26.4366C112.816 26.7817 113.05 27.2198 113.144 27.696C113.237 28.1721 113.187 28.6651 112.999 29.1131C112.811 29.5611 112.494 29.9443 112.087 30.2145C111.681 30.4847 111.202 30.6299 110.712 30.632L106.566 30.632C106.346 30.632 106.135 30.7186 105.979 30.8726C105.824 31.0266 105.737 31.2355 105.737 31.4534C105.737 31.6712 105.824 31.8801 105.979 32.0341C106.135 32.1882 106.346 32.2747 106.566 32.2747L109.054 32.2747L109.054 40.488L106.566 40.488C106.346 40.488 106.135 40.5745 105.979 40.7286C105.824 40.8826 105.737 41.0915 105.737 41.3093C105.737 41.5272 105.824 41.7361 105.979 41.8901C106.135 42.0441 106.346 42.1307 106.566 42.1307L110.712 42.1307C111.203 42.1307 111.682 42.2743 112.09 42.5432C112.498 42.8122 112.817 43.1946 113.007 43.6425C113.196 44.0903 113.248 44.5837 113.155 45.0605C113.062 45.5373 112.83 45.9763 112.486 46.3225C112.142 46.6687 111.703 46.9065 111.223 47.0062C110.743 47.1059 110.244 47.0629 109.789 46.8827C109.333 46.7025 108.942 46.393 108.664 45.9933C108.385 45.5935 108.233 45.1212 108.224 44.6357V44.6357Z" fill="black"/>
<path d="M35.642 27.3496L33.9004 27.3496C32.8007 27.3496 31.746 27.7823 30.9684 28.5524C30.1908 29.3226 29.7539 30.3671 29.7539 31.4563L29.7539 41.3123C29.7539 42.4014 30.1908 43.446 30.9684 44.2161C31.746 44.9863 32.8007 45.4189 33.9004 45.4189L35.642 45.4189C35.8323 46.3473 36.3409 47.1819 37.0814 47.7814C37.822 48.3809 38.7491 48.7084 39.7056 48.7084C40.6621 48.7084 41.5891 48.3809 42.3297 47.7814C43.0703 47.1819 43.5788 46.3473 43.7692 45.4189L47.1693 45.4189C47.6092 45.4189 48.0311 45.2459 48.3421 44.9378C48.6532 44.6297 48.8279 44.2119 48.8279 43.7763L48.8279 28.9923C48.8279 28.5566 48.6532 28.1388 48.3421 27.8308C48.0311 27.5227 47.6092 27.3496 47.1693 27.3496L43.7692 27.3496C43.5788 26.4213 43.0703 25.5867 42.3297 24.9872C41.5891 24.3877 40.6621 24.0602 39.7056 24.0602C38.7491 24.0602 37.822 24.3877 37.0814 24.9872C36.3409 25.5867 35.8323 26.4213 35.642 27.3496V27.3496ZM31.4125 41.3123L31.4125 31.4563C31.4152 30.8036 31.6782 30.1785 32.1442 29.717C32.6102 29.2555 33.2414 28.995 33.9004 28.9923L35.642 28.9923C35.835 29.919 36.3444 30.7516 37.0845 31.3499C37.8246 31.9483 38.7502 32.2759 39.7056 32.2776L39.7056 40.4909C38.7502 40.4927 37.8246 40.8203 37.0845 41.4186C36.3444 42.017 35.835 42.8496 35.642 43.7763L33.9004 43.7763C33.2414 43.7736 32.6102 43.5131 32.1442 43.0516C31.6782 42.5901 31.4152 41.9649 31.4125 41.3123V41.3123ZM42.1935 28.1299L42.1935 28.171C42.1935 28.3888 42.2809 28.5977 42.4364 28.7517C42.5919 28.9058 42.8029 28.9923 43.0228 28.9923L47.1693 28.9923L47.1693 43.7763L43.0228 43.7763C42.9144 43.7763 42.807 43.7976 42.707 43.839C42.607 43.8804 42.5162 43.941 42.44 44.0174C42.3638 44.0938 42.3037 44.1845 42.2632 44.2841C42.2227 44.3837 42.2025 44.4902 42.2039 44.5976L42.2039 44.6387C42.1957 45.1237 42.0431 45.5956 41.7653 45.9952C41.4875 46.3947 41.0967 46.7041 40.642 46.8846C40.1874 47.0652 39.689 47.1087 39.2094 47.0099C38.7299 46.9111 38.2904 46.6742 37.9462 46.3291C37.602 45.9839 37.3683 45.5458 37.2745 45.0697C37.1806 44.5935 37.2308 44.1005 37.4187 43.6525C37.6065 43.2045 37.9238 42.8213 38.3306 42.5511C38.7374 42.2809 39.2157 42.1357 39.7056 42.1336L43.8521 42.1336C44.0721 42.1336 44.283 42.0471 44.4385 41.893C44.594 41.739 44.6814 41.5301 44.6814 41.3123C44.6814 41.0944 44.594 40.8855 44.4385 40.7315C44.283 40.5775 44.0721 40.4909 43.8521 40.4909L41.3642 40.4909L41.3642 32.2776L43.8521 32.2776C44.0721 32.2776 44.283 32.1911 44.4385 32.0371C44.594 31.883 44.6814 31.6741 44.6814 31.4563C44.6814 31.2385 44.594 31.0295 44.4385 30.8755C44.283 30.7215 44.0721 30.635 43.8521 30.635L39.7056 30.635C39.2153 30.6349 38.736 30.4914 38.3278 30.2224C37.9196 29.9534 37.6007 29.571 37.4113 29.1231C37.2218 28.6753 37.1702 28.182 37.2629 27.7052C37.3555 27.2283 37.5884 26.7893 37.9322 26.4431C38.276 26.0969 38.7154 25.8591 39.1953 25.7594C39.6751 25.6598 40.174 25.7027 40.6293 25.8829C41.0846 26.0632 41.4759 26.3726 41.7542 26.7723C42.0325 27.1721 42.1853 27.6444 42.1935 28.1299V28.1299Z" fill="black"/>
<path d="M61.4509 89.5V63.5L63.7309 65.86H55.5309V61.5H66.6509V89.5H61.4509ZM76.8853 89.5L88.4453 63.58L89.8053 65.9H73.9253L76.4053 63.38V70.66H71.5653V61.5H93.3253V64.98L82.4453 89.5H76.8853Z" fill="black"/>
</svg>
