<svg width="150" height="150" viewBox="0 0 150 150" fill="none" xmlns="http://www.w3.org/2000/svg">
<g clip-path="url(#clip0_784_5168)">
<rect x="114.301" y="114.426" width="39.3001" height="114.693" rx="4.5" transform="rotate(150 114.301 114.426)" fill="#FFDF7F" stroke="black"/>
<g clip-path="url(#clip1_784_5168)">
<path d="M132.912 96.1738L134.42 95.303C135.373 94.7532 136.07 93.8511 136.358 92.7953C136.647 91.7396 136.503 90.6165 135.958 89.6733L131.03 81.1378C130.486 80.1945 129.585 79.5084 128.526 79.2302C127.468 78.952 126.338 79.1047 125.386 79.6546L123.878 80.5253C123.249 79.8165 122.391 79.348 121.45 79.1991C120.509 79.0502 119.542 79.2301 118.714 79.7084C117.885 80.1866 117.246 80.9338 116.905 81.8232C116.563 82.7127 116.54 83.6898 116.839 84.5889L113.895 86.289C113.514 86.5089 113.235 86.8698 113.119 87.2921C113.004 87.7144 113.062 88.1636 113.279 88.5409L120.671 101.344C120.889 101.721 121.25 101.996 121.673 102.107C122.096 102.218 122.548 102.157 122.929 101.937L125.874 100.237C126.503 100.946 127.361 101.415 128.302 101.564C129.243 101.713 130.209 101.533 131.038 101.054C131.866 100.576 132.505 99.8289 132.847 98.9395C133.188 98.05 133.212 97.0729 132.912 96.1738V96.1738ZM129.594 81.9671L134.522 90.5026C134.846 91.0692 134.93 91.7421 134.758 92.3747C134.585 93.0074 134.168 93.5486 133.599 93.8804L132.091 94.7512C131.46 94.0452 130.603 93.5788 129.663 93.4307C128.723 93.2825 127.757 93.4616 126.929 93.9378L122.822 86.8249C123.649 86.3457 124.287 85.5992 124.628 84.7109C124.97 83.8227 124.995 82.8469 124.699 81.9479L126.207 81.0771C126.779 80.75 127.456 80.6599 128.09 80.8266C128.725 80.9933 129.265 81.4032 129.594 81.9671V81.9671ZM126.848 98.7738L126.828 98.7383C126.719 98.5496 126.539 98.4124 126.327 98.3567C126.115 98.3011 125.889 98.3316 125.699 98.4416L122.108 100.515L114.716 87.7116L118.307 85.6383C118.401 85.5841 118.483 85.512 118.549 85.4261C118.615 85.3402 118.663 85.2423 118.691 85.1381C118.719 85.0338 118.726 84.9253 118.711 84.8188C118.696 84.7122 118.66 84.6099 118.605 84.5176L118.585 84.482C118.349 84.0578 118.246 83.5729 118.286 83.088C118.327 82.603 118.511 82.1397 118.814 81.756C119.118 81.3723 119.528 81.0854 119.993 80.9312C120.457 80.777 120.956 80.7624 121.427 80.8892C121.898 81.016 122.319 81.2786 122.638 81.644C122.958 82.0095 123.161 82.4615 123.222 82.9434C123.283 83.4254 123.2 83.9158 122.983 84.3532C122.766 84.7906 122.424 85.1556 122.001 85.4023L118.41 87.4756C118.22 87.5855 118.08 87.7659 118.022 87.9771C117.965 88.1883 117.994 88.4129 118.102 88.6015C118.211 88.7902 118.392 88.9274 118.603 88.983C118.815 89.0387 119.041 89.0081 119.231 88.8982L121.386 87.6542L125.493 94.7671L123.338 96.0111C123.148 96.1211 123.008 96.3015 122.95 96.5126C122.893 96.7238 122.922 96.9484 123.03 97.137C123.139 97.3257 123.32 97.4629 123.531 97.5186C123.743 97.5742 123.969 97.5437 124.159 97.4337L127.75 95.3604C128.175 95.1153 128.662 95 129.15 95.0288C129.638 95.0577 130.105 95.2294 130.493 95.5225C130.881 95.8157 131.173 96.2171 131.331 96.6763C131.489 97.1356 131.507 97.6323 131.382 98.104C131.257 98.5757 130.996 99.0014 130.63 99.3276C130.264 99.6538 129.811 99.8661 129.326 99.9376C128.842 100.009 128.348 99.9369 127.907 99.7299C127.467 99.5228 127.098 99.1902 126.848 98.7738V98.7738Z" fill="black"/>
</g>
<g clip-path="url(#clip2_784_5168)">
<path d="M55.3534 120.093L53.8452 120.964C52.8928 121.514 52.1958 122.416 51.9074 123.471C51.619 124.527 51.763 125.65 52.3076 126.593L57.2355 135.129C57.7801 136.072 58.6807 136.758 59.7392 137.037C60.7978 137.315 61.9275 137.162 62.8799 136.612L64.3881 135.741C65.0171 136.45 65.8748 136.919 66.8159 137.068C67.757 137.217 68.7237 137.037 69.552 136.558C70.3803 136.08 71.0195 135.333 71.3611 134.443C71.7027 133.554 71.7258 132.577 71.4265 131.678L74.3711 129.978C74.752 129.758 75.0309 129.397 75.1462 128.975C75.2615 128.552 75.204 128.103 74.9861 127.726L67.5942 114.923C67.3763 114.545 67.0161 114.271 66.5927 114.16C66.1693 114.048 65.7174 114.109 65.3364 114.329L62.3918 116.029C61.7628 115.321 60.9051 114.852 59.964 114.703C59.0229 114.554 58.0562 114.734 57.2279 115.212C56.3996 115.691 55.7604 116.438 55.4188 117.327C55.0772 118.217 55.0541 119.194 55.3534 120.093V120.093ZM58.6719 134.3L53.744 125.764C53.42 125.198 53.3352 124.525 53.508 123.892C53.6808 123.259 54.0972 122.718 54.6666 122.386L56.1748 121.516C56.8052 122.222 57.6627 122.688 58.6028 122.836C59.5429 122.984 60.5084 122.805 61.3366 122.329L65.4433 129.442C64.6168 129.921 63.9789 130.668 63.6372 131.556C63.2954 132.444 63.2705 133.42 63.5668 134.319L62.0585 135.19C61.4865 135.517 60.8096 135.607 60.1753 135.44C59.541 135.273 59.0006 134.864 58.6719 134.3V134.3ZM61.4174 117.493L61.4379 117.528C61.5468 117.717 61.7269 117.854 61.9386 117.91C62.1503 117.966 62.3763 117.935 62.5668 117.825L66.1578 115.752L73.5497 128.555L69.9587 130.628C69.8648 130.683 69.7825 130.755 69.7166 130.841C69.6507 130.926 69.6024 131.024 69.5746 131.129C69.5469 131.233 69.5401 131.341 69.5548 131.448C69.5695 131.554 69.6053 131.657 69.6602 131.749L69.6807 131.785C69.9162 132.209 70.02 132.694 69.9791 133.179C69.9383 133.664 69.7546 134.127 69.4511 134.511C69.1476 134.894 68.7378 135.181 68.2731 135.335C67.8084 135.49 67.3094 135.504 66.8387 135.377C66.368 135.251 65.9466 134.988 65.6272 134.623C65.3079 134.257 65.1048 133.805 65.0435 133.323C64.9822 132.841 65.0654 132.351 65.2826 131.914C65.4998 131.476 65.8414 131.111 66.2646 130.864L69.8556 128.791C70.0461 128.681 70.1855 128.501 70.2432 128.29C70.3008 128.078 70.2721 127.854 70.1631 127.665C70.0542 127.477 69.8741 127.339 69.6624 127.284C69.4507 127.228 69.2248 127.259 69.0343 127.369L66.8797 128.613L62.773 121.5L64.9276 120.256C65.1181 120.146 65.2575 119.965 65.3152 119.754C65.3729 119.543 65.3441 119.318 65.2352 119.13C65.1262 118.941 64.9461 118.804 64.7344 118.748C64.5227 118.693 64.2968 118.723 64.1063 118.833L60.5153 120.906C60.0907 121.151 59.6038 121.267 59.1158 121.238C58.6278 121.209 58.1605 121.037 57.7724 120.744C57.3844 120.451 57.0931 120.05 56.9349 119.59C56.7768 119.131 56.7589 118.634 56.8836 118.163C57.0082 117.691 57.2699 117.265 57.6356 116.939C58.0013 116.613 58.4549 116.401 58.9392 116.329C59.4236 116.258 59.9172 116.33 60.3581 116.537C60.799 116.744 61.1675 117.077 61.4174 117.493V117.493Z" fill="black"/>
</g>
<g clip-path="url(#clip3_784_5168)">
<path d="M113.787 62.627L115.295 61.7563C116.248 61.2064 116.945 60.3044 117.233 59.2486C117.522 58.1928 117.378 57.0698 116.833 56.1265L111.905 47.591C111.361 46.6478 110.46 45.9616 109.401 45.6834C108.343 45.4053 107.213 45.5579 106.261 46.1078L104.753 46.9786C104.124 46.2698 103.266 45.8012 102.325 45.6523C101.384 45.5035 100.417 45.6834 99.5886 46.1616C98.7603 46.6399 98.1212 47.387 97.7796 48.2765C97.4379 49.166 97.4148 50.143 97.7142 51.0422L94.7696 52.7422C94.3886 52.9622 94.1098 53.323 93.9944 53.7453C93.8791 54.1676 93.9367 54.6168 94.1545 54.9941L101.546 67.7974C101.764 68.1747 102.125 68.4492 102.548 68.5605C102.971 68.6717 103.423 68.6107 103.804 68.3907L106.749 66.6906C107.378 67.3994 108.236 67.868 109.177 68.0169C110.118 68.1658 111.084 67.9858 111.913 67.5076C112.741 67.0293 113.38 66.2822 113.722 65.3927C114.063 64.5033 114.087 63.5262 113.787 62.627V62.627ZM110.469 48.4203L115.397 56.9558C115.721 57.5224 115.805 58.1953 115.633 58.828C115.46 59.4607 115.043 60.0018 114.474 60.3337L112.966 61.2045C112.335 60.4984 111.478 60.0321 110.538 59.8839C109.598 59.7358 108.632 59.9149 107.804 60.3911L103.697 53.2781C104.524 52.7989 105.162 52.0524 105.503 51.1642C105.845 50.2759 105.87 49.3002 105.574 48.4012L107.082 47.5304C107.654 47.2032 108.331 47.1132 108.965 47.2799C109.6 47.4466 110.14 47.8565 110.469 48.4203V48.4203ZM107.723 65.2271L107.703 65.1915C107.594 65.0029 107.414 64.8656 107.202 64.81C106.99 64.7544 106.764 64.7849 106.574 64.8949L102.983 66.9681L95.5909 54.1648L99.1819 52.0916C99.2758 52.0374 99.3581 51.9652 99.424 51.8794C99.49 51.7935 99.5382 51.6956 99.566 51.5913C99.5938 51.4871 99.6005 51.3785 99.5858 51.272C99.5711 51.1655 99.5353 51.0631 99.4804 50.9708L99.4599 50.9352C99.2244 50.5111 99.1206 50.0261 99.1615 49.5412C99.2023 49.0563 99.386 48.5929 99.6895 48.2093C99.993 47.8256 100.403 47.5387 100.868 47.3845C101.332 47.2303 101.831 47.2157 102.302 47.3425C102.773 47.4693 103.194 47.7319 103.513 48.0973C103.833 48.4627 104.036 48.9147 104.097 49.3967C104.158 49.8786 104.075 50.369 103.858 50.8065C103.641 51.2439 103.299 51.6088 102.876 51.8555L99.285 53.9288C99.0945 54.0388 98.9551 54.2192 98.8975 54.4304C98.8398 54.6415 98.8686 54.8661 98.9775 55.0548C99.0864 55.2434 99.2665 55.3806 99.4782 55.4363C99.6899 55.4919 99.9159 55.4614 100.106 55.3514L102.261 54.1074L106.368 61.2204L104.213 62.4643C104.023 62.5743 103.883 62.7547 103.825 62.9659C103.768 63.177 103.797 63.4016 103.905 63.5903C104.014 63.7789 104.195 63.9162 104.406 63.9718C104.618 64.0274 104.844 63.9969 105.034 63.8869L108.625 61.8137C109.05 61.5686 109.537 61.4532 110.025 61.4821C110.513 61.5109 110.98 61.6827 111.368 61.9758C111.756 62.2689 112.048 62.6703 112.206 63.1296C112.364 63.5889 112.382 64.0855 112.257 64.5572C112.132 65.0289 111.871 65.4546 111.505 65.7809C111.139 66.1071 110.686 66.3193 110.201 66.3909C109.717 66.4624 109.223 66.3902 108.782 66.1831C108.342 65.976 107.973 65.6434 107.723 65.2271V65.2271Z" fill="black"/>
</g>
<g clip-path="url(#clip4_784_5168)">
<path d="M36.2206 86.5479L34.7124 87.4187C33.76 87.9685 33.063 88.8706 32.7746 89.9263C32.4862 90.9821 32.6302 92.1052 33.1747 93.0484L38.1027 101.584C38.6473 102.527 39.5479 103.213 40.6064 103.491C41.6649 103.77 42.7947 103.617 43.7471 103.067L45.2553 102.196C45.8843 102.905 46.742 103.374 47.6831 103.523C48.6242 103.671 49.5908 103.492 50.4192 103.013C51.2475 102.535 51.8866 101.788 52.2283 100.898C52.5699 100.009 52.593 99.0319 52.2936 98.1328L55.2383 96.4327C55.6192 96.2127 55.898 95.8519 56.0134 95.4296C56.1287 95.0073 56.0712 94.5581 55.8533 94.1808L48.4613 81.3775C48.2435 81.0002 47.8833 80.7257 47.4599 80.6145C47.0365 80.5032 46.5846 80.5643 46.2036 80.7842L43.259 82.4843C42.63 81.7755 41.7723 81.3069 40.8311 81.1581C39.89 81.0092 38.9234 81.1891 38.0951 81.6673C37.2667 82.1456 36.6276 82.8927 36.286 83.7822C35.9444 84.6717 35.9213 85.6487 36.2206 86.5479V86.5479ZM39.5391 100.755L34.6111 92.2191C34.2872 91.6525 34.2024 90.9796 34.3752 90.3469C34.548 89.7143 34.9644 89.1731 35.5337 88.8412L37.042 87.9705C37.6724 88.6765 38.5299 89.1429 39.47 89.291C40.4101 89.4391 41.3755 89.26 42.2038 88.7838L46.3105 95.8968C45.4839 96.376 44.8461 97.1225 44.5044 98.0108C44.1626 98.899 44.1377 99.8747 44.4339 100.774L42.9257 101.645C42.3537 101.972 41.6768 102.062 41.0425 101.895C40.4082 101.728 39.8678 101.318 39.5391 100.755V100.755ZM42.2845 83.9479L42.3051 83.9834C42.414 84.1721 42.5941 84.3093 42.8058 84.3649C43.0175 84.4206 43.2435 84.39 43.4339 84.2801L47.0249 82.2068L54.4169 95.0101L50.8259 97.0834C50.732 97.1376 50.6497 97.2097 50.5838 97.2956C50.5178 97.3814 50.4696 97.4793 50.4418 97.5836C50.414 97.6879 50.4073 97.7964 50.422 97.9029C50.4367 98.0094 50.4725 98.1118 50.5274 98.2041L50.5479 98.2397C50.7834 98.6638 50.8872 99.1488 50.8463 99.6337C50.8055 100.119 50.6218 100.582 50.3183 100.966C50.0148 101.349 49.605 101.636 49.1403 101.79C48.6755 101.945 48.1766 101.959 47.7059 101.832C47.2352 101.706 46.8138 101.443 46.4944 101.078C46.1751 100.712 45.972 100.26 45.9107 99.7783C45.8494 99.2963 45.9326 98.8059 46.1498 98.3685C46.367 97.9311 46.7086 97.5661 47.1318 97.3194L50.7228 95.2461C50.9133 95.1361 51.0527 94.9557 51.1104 94.7446C51.168 94.5334 51.1392 94.3088 51.0303 94.1202C50.9214 93.9315 50.7413 93.7943 50.5296 93.7387C50.3179 93.683 50.0919 93.7136 49.9015 93.8235L47.7469 95.0675L43.6402 87.9545L45.7948 86.7106C45.9853 86.6006 46.1247 86.4202 46.1824 86.209C46.24 85.9979 46.2113 85.7733 46.1023 85.5846C45.9934 85.396 45.8133 85.2588 45.6016 85.2031C45.3899 85.1475 45.164 85.178 44.9735 85.288L41.3825 87.3613C40.9578 87.6063 40.471 87.7217 39.983 87.6929C39.495 87.664 39.0276 87.4923 38.6396 87.1991C38.2516 86.906 37.9603 86.5046 37.8021 86.0453C37.644 85.5861 37.6261 85.0894 37.7508 84.6177C37.8754 84.146 38.1371 83.7203 38.5028 83.3941C38.8685 83.0678 39.322 82.8556 39.8064 82.784C40.2908 82.7125 40.7844 82.7848 41.2253 82.9918C41.6662 83.1989 42.0347 83.5315 42.2845 83.9479V83.9479Z" fill="black"/>
</g>
<g clip-path="url(#clip5_784_5168)">
<path d="M94.6544 29.0821L96.1626 28.2114C97.115 27.6615 97.812 26.7594 98.1004 25.7037C98.3888 24.6479 98.2448 23.5248 97.7003 22.5816L92.7723 14.0461C92.2277 13.1028 91.3271 12.4167 90.2686 12.1385C89.2101 11.8604 88.0803 12.013 87.1279 12.5629L85.6197 13.4336C84.9907 12.7248 84.133 12.2563 83.1919 12.1074C82.2508 11.9585 81.2842 12.1385 80.4558 12.6167C79.6275 13.0949 78.9884 13.8421 78.6467 14.7316C78.3051 15.621 78.282 16.5981 78.5814 17.4972L75.6367 19.1973C75.2558 19.4173 74.977 19.7781 74.8616 20.2004C74.7463 20.6227 74.8038 21.0719 75.0217 21.4492L82.4137 34.2525C82.6315 34.6298 82.9917 34.9043 83.4151 35.0155C83.8385 35.1268 84.2904 35.0657 84.6714 34.8458L87.616 33.1457C88.245 33.8545 89.1027 34.3231 90.0439 34.4719C90.985 34.6208 91.9516 34.4409 92.7799 33.9627C93.6083 33.4844 94.2474 32.7373 94.589 31.8478C94.9306 30.9583 94.9537 29.9813 94.6544 29.0821V29.0821ZM91.3359 14.8754L96.2639 23.4109C96.5878 23.9775 96.6726 24.6504 96.4998 25.2831C96.327 25.9157 95.9106 26.4569 95.3413 26.7888L93.833 27.6595C93.2026 26.9535 92.3451 26.4871 91.405 26.339C90.4649 26.1909 89.4995 26.37 88.6712 26.8462L84.5645 19.7332C85.3911 19.254 86.0289 18.5075 86.3706 17.6192C86.7124 16.731 86.7373 15.7553 86.4411 14.8562L87.9493 13.9855C88.5213 13.6583 89.1982 13.5683 89.8325 13.7349C90.4668 13.9016 91.0072 14.3115 91.3359 14.8754V14.8754ZM88.5905 31.6822L88.5699 31.6466C88.461 31.4579 88.2809 31.3207 88.0692 31.2651C87.8575 31.2094 87.6315 31.24 87.4411 31.3499L83.8501 33.4232L76.4581 20.6199L80.0491 18.5466C80.143 18.4924 80.2253 18.4203 80.2912 18.3344C80.3572 18.2486 80.4054 18.1507 80.4332 18.0464C80.461 17.9421 80.4677 17.8336 80.453 17.7271C80.4383 17.6206 80.4025 17.5182 80.3476 17.4259L80.3271 17.3903C80.0916 16.9662 79.9878 16.4812 80.0287 15.9963C80.0695 15.5113 80.2532 15.048 80.5567 14.6643C80.8602 14.2807 81.27 13.9938 81.7347 13.8396C82.1995 13.6854 82.6984 13.6708 83.1691 13.7976C83.6398 13.9244 84.0612 14.1869 84.3806 14.5524C84.6999 14.9178 84.903 15.3698 84.9643 15.8518C85.0256 16.3337 84.9424 16.8241 84.7252 17.2615C84.508 17.6989 84.1664 18.0639 83.7432 18.3106L80.1522 20.3839C79.9617 20.4939 79.8223 20.6743 79.7646 20.8854C79.707 21.0966 79.7358 21.3212 79.8447 21.5098C79.9536 21.6985 80.1337 21.8357 80.3454 21.8913C80.5571 21.947 80.7831 21.9165 80.9735 21.8065L83.1281 20.5625L87.2348 27.6755L85.0802 28.9194C84.8897 29.0294 84.7503 29.2098 84.6926 29.421C84.635 29.6321 84.6637 29.8567 84.7727 30.0454C84.8816 30.234 85.0617 30.3713 85.2734 30.4269C85.4851 30.4825 85.711 30.452 85.9015 30.342L89.4925 28.2687C89.9172 28.0237 90.404 27.9083 90.892 27.9371C91.38 27.966 91.8474 28.1378 92.2354 28.4309C92.6234 28.724 92.9147 29.1254 93.0729 29.5847C93.231 30.0439 93.2489 30.5406 93.1242 31.0123C92.9996 31.484 92.7379 31.9097 92.3722 32.2359C92.0065 32.5622 91.553 32.7744 91.0686 32.846C90.5842 32.9175 90.0906 32.8452 89.6497 32.6382C89.2088 32.4311 88.8403 32.0985 88.5905 31.6822V31.6822Z" fill="black"/>
</g>
<g clip-path="url(#clip6_784_5168)">
<path d="M17.0956 53.0003L15.5874 53.871C14.635 54.4209 13.938 55.323 13.6496 56.3787C13.3612 57.4345 13.5052 58.5575 14.0497 59.5008L18.9777 68.0363C19.5223 68.9795 20.4229 69.6657 21.4814 69.9439C22.5399 70.222 23.6697 70.0694 24.6221 69.5195L26.1303 68.6487C26.7593 69.3575 27.617 69.8261 28.5581 69.975C29.4992 70.1239 30.4658 69.9439 31.2942 69.4657C32.1225 68.9874 32.7616 68.2403 33.1033 67.3508C33.4449 66.4614 33.468 65.4843 33.1686 64.5851L36.1133 62.8851C36.4942 62.6651 36.773 62.3043 36.8884 61.882C37.0037 61.4597 36.9462 61.0105 36.7283 60.6332L29.3363 47.8299C29.1185 47.4526 28.7583 47.1781 28.3349 47.0669C27.9115 46.9556 27.4596 47.0167 27.0786 47.2366L24.134 48.9367C23.505 48.2279 22.6473 47.7593 21.7061 47.6105C20.765 47.4616 19.7984 47.6415 18.9701 48.1197C18.1417 48.598 17.5026 49.3451 17.161 50.2346C16.8194 51.1241 16.7963 52.1011 17.0956 53.0003V53.0003ZM20.4141 67.207L15.4861 58.6715C15.1622 58.1049 15.0774 57.432 15.2502 56.7993C15.423 56.1667 15.8394 55.6255 16.4087 55.2936L17.917 54.4229C18.5474 55.1289 19.4049 55.5952 20.345 55.7434C21.2851 55.8915 22.2505 55.7124 23.0788 55.2362L27.1855 62.3492C26.3589 62.8284 25.7211 63.5749 25.3794 64.4631C25.0376 65.3514 25.0127 66.3271 25.3089 67.2262L23.8007 68.0969C23.2287 68.4241 22.5518 68.5141 21.9175 68.3475C21.2832 68.1808 20.7428 67.7709 20.4141 67.207V67.207ZM23.1595 50.4002L23.1801 50.4358C23.289 50.6245 23.4691 50.7617 23.6808 50.8173C23.8925 50.873 24.1185 50.8424 24.3089 50.7325L27.8999 48.6592L35.2919 61.4625L31.7009 63.5357C31.607 63.59 31.5247 63.6621 31.4588 63.748C31.3928 63.8338 31.3446 63.9317 31.3168 64.036C31.289 64.1403 31.2823 64.2488 31.297 64.3553C31.3117 64.4618 31.3475 64.5642 31.4024 64.6565L31.4229 64.6921C31.6584 65.1162 31.7622 65.6012 31.7213 66.0861C31.6805 66.5711 31.4968 67.0344 31.1933 67.4181C30.8898 67.8017 30.48 68.0886 30.0153 68.2428C29.5505 68.397 29.0516 68.4116 28.5809 68.2848C28.1102 68.158 27.6888 67.8955 27.3694 67.53C27.0501 67.1646 26.847 66.7126 26.7857 66.2306C26.7244 65.7487 26.8076 65.2583 27.0248 64.8209C27.242 64.3834 27.5836 64.0185 28.0068 63.7718L31.5978 61.6985C31.7883 61.5885 31.9277 61.4081 31.9854 61.197C32.043 60.9858 32.0142 60.7612 31.9053 60.5726C31.7964 60.3839 31.6163 60.2467 31.4046 60.191C31.1929 60.1354 30.9669 60.1659 30.7765 60.2759L28.6219 61.5199L24.5152 54.4069L26.6698 53.163C26.8603 53.053 26.9997 52.8726 27.0574 52.6614C27.115 52.4503 27.0863 52.2257 26.9773 52.037C26.8684 51.8484 26.6883 51.7111 26.4766 51.6555C26.2649 51.5999 26.039 51.6304 25.8485 51.7404L22.2575 53.8137C21.8328 54.0587 21.346 54.1741 20.858 54.1453C20.37 54.1164 19.9026 53.9446 19.5146 53.6515C19.1266 53.3584 18.8353 52.957 18.6771 52.4977C18.519 52.0385 18.5011 51.5418 18.6258 51.0701C18.7504 50.5984 19.0121 50.1727 19.3778 49.8465C19.7435 49.5202 20.197 49.308 20.6814 49.2364C21.1658 49.1649 21.6594 49.2372 22.1003 49.4442C22.5412 49.6513 22.9097 49.9839 23.1595 50.4002V50.4002Z" fill="black"/>
</g>
<path d="M64.4 89.0847V85.6047L75.52 75.0447C76.4533 74.1647 77.1467 73.3914 77.6 72.7247C78.0533 72.058 78.3467 71.4447 78.48 70.8847C78.64 70.298 78.72 69.7514 78.72 69.2447C78.72 67.9647 78.28 66.978 77.4 66.2847C76.52 65.5647 75.2267 65.2047 73.52 65.2047C72.16 65.2047 70.92 65.4447 69.8 65.9247C68.7067 66.4047 67.76 67.138 66.96 68.1247L63.32 65.3247C64.4133 63.858 65.88 62.7247 67.72 61.9247C69.5867 61.098 71.6667 60.6847 73.96 60.6847C75.9867 60.6847 77.7467 61.018 79.24 61.6847C80.76 62.3247 81.92 63.2447 82.72 64.4447C83.5467 65.6447 83.96 67.0714 83.96 68.7247C83.96 69.6314 83.84 70.538 83.6 71.4447C83.36 72.3247 82.9067 73.258 82.24 74.2447C81.5733 75.2314 80.6 76.338 79.32 77.5647L69.76 86.6447L68.68 84.6847H85.04V89.0847H64.4Z" fill="black"/>
</g>
<defs>
<clipPath id="clip0_784_5168">
<rect width="150" height="150" fill="white"/>
</clipPath>
<clipPath id="clip1_784_5168">
<rect width="26.2826" height="26.5378" fill="white" transform="translate(129.797 72.3662) rotate(60)"/>
</clipPath>
<clipPath id="clip2_784_5168">
<rect width="26.2826" height="26.5378" fill="white" transform="translate(58.4688 143.901) rotate(-120)"/>
</clipPath>
<clipPath id="clip3_784_5168">
<rect width="26.2826" height="26.5378" fill="white" transform="translate(110.672 38.8195) rotate(60)"/>
</clipPath>
<clipPath id="clip4_784_5168">
<rect width="26.2826" height="26.5378" fill="white" transform="translate(39.3359 110.355) rotate(-120)"/>
</clipPath>
<clipPath id="clip5_784_5168">
<rect width="26.2826" height="26.5378" fill="white" transform="translate(91.5391 5.27454) rotate(60)"/>
</clipPath>
<clipPath id="clip6_784_5168">
<rect width="26.2826" height="26.5378" fill="white" transform="translate(20.2109 76.8079) rotate(-120)"/>
</clipPath>
</defs>
</svg>
