<svg width="150" height="150" viewBox="0 0 150 150" fill="none" xmlns="http://www.w3.org/2000/svg">
<rect x="132.344" y="56.2786" width="39.3001" height="114.693" rx="4.5" transform="rotate(90 132.344 56.2786)" fill="#FFDF7F" stroke="black"/>
<path d="M122.644 35.6475L122.644 33.9059C122.644 32.8062 122.211 31.7515 121.441 30.9739C120.671 30.1963 119.626 29.7594 118.537 29.7594L108.681 29.7594C107.592 29.7594 106.548 30.1963 105.777 30.9739C105.007 31.7515 104.575 32.8062 104.575 33.9059L104.575 35.6475C103.646 35.8378 102.812 36.3464 102.212 37.0869C101.613 37.8275 101.285 38.7546 101.285 39.7111C101.285 40.6676 101.613 41.5946 102.212 42.3352C102.812 43.0758 103.646 43.5843 104.575 43.7747L104.575 47.1748C104.575 47.6147 104.748 48.0366 105.056 48.3476C105.364 48.6587 105.782 48.8334 106.217 48.8334L121.001 48.8334C121.437 48.8334 121.855 48.6587 122.163 48.3476C122.471 48.0366 122.644 47.6147 122.644 47.1748L122.644 43.7747C123.572 43.5843 124.407 43.0758 125.006 42.3352C125.606 41.5946 125.933 40.6676 125.933 39.7111C125.933 38.7546 125.606 37.8275 125.006 37.0869C124.407 36.3464 123.572 35.8378 122.644 35.6475V35.6475ZM108.681 31.418L118.537 31.418C119.19 31.4207 119.815 31.6837 120.277 32.1497C120.738 32.6157 120.999 33.2469 121.001 33.9059L121.001 35.6475C120.075 35.8405 119.242 36.3499 118.644 37.09C118.045 37.8301 117.718 38.7557 117.716 39.7111L109.503 39.7111C109.501 38.7557 109.173 37.8301 108.575 37.09C107.977 36.3499 107.144 35.8405 106.217 35.6475L106.217 33.9059C106.22 33.2469 106.48 32.6157 106.942 32.1497C107.403 31.6837 108.029 31.4207 108.681 31.418V31.418ZM121.864 42.199L121.823 42.199C121.605 42.199 121.396 42.2864 121.242 42.4419C121.088 42.5974 121.001 42.8084 121.001 43.0283L121.001 47.1748L106.217 47.1748L106.217 43.0283C106.217 42.9199 106.196 42.8125 106.155 42.7125C106.113 42.6124 106.052 42.5217 105.976 42.4455C105.9 42.3693 105.809 42.3092 105.709 42.2687C105.61 42.2282 105.503 42.208 105.396 42.2094L105.355 42.2094C104.87 42.2012 104.398 42.0486 103.998 41.7708C103.599 41.4929 103.289 41.1022 103.109 40.6475C102.928 40.1929 102.885 39.6945 102.984 39.2149C103.082 38.7354 103.319 38.2959 103.664 37.9517C104.01 37.6075 104.448 37.3738 104.924 37.28C105.4 37.1861 105.893 37.2363 106.341 37.4241C106.789 37.612 107.172 37.9293 107.442 38.3361C107.713 38.7429 107.858 39.2212 107.86 39.7111L107.86 43.8576C107.86 44.0775 107.946 44.2885 108.1 44.444C108.255 44.5995 108.463 44.6869 108.681 44.6869C108.899 44.6869 109.108 44.5995 109.262 44.444C109.416 44.2885 109.503 44.0775 109.503 43.8576L109.503 41.3697L117.716 41.3697L117.716 43.8576C117.716 44.0775 117.802 44.2885 117.956 44.444C118.111 44.5995 118.319 44.6869 118.537 44.6869C118.755 44.6869 118.964 44.5995 119.118 44.444C119.272 44.2885 119.359 44.0775 119.359 43.8576L119.359 39.7111C119.359 39.2208 119.502 38.7415 119.771 38.3333C120.04 37.9251 120.423 37.6062 120.87 37.4168C121.318 37.2273 121.812 37.1757 122.288 37.2684C122.765 37.361 123.204 37.5939 123.55 37.9377C123.897 38.2815 124.134 38.7209 124.234 39.2008C124.334 39.6806 124.291 40.1795 124.111 40.6348C123.93 41.09 123.621 41.4814 123.221 41.7597C122.821 42.038 122.349 42.1908 121.864 42.199V42.199Z" fill="black"/>
<path d="M104.579 114.772L104.579 116.514C104.579 117.613 105.011 118.668 105.782 119.446C106.552 120.223 107.596 120.66 108.685 120.66L118.541 120.66C119.631 120.66 120.675 120.223 121.445 119.446C122.215 118.668 122.648 117.613 122.648 116.514L122.648 114.772C123.576 114.582 124.411 114.073 125.011 113.333C125.61 112.592 125.937 111.665 125.937 110.709C125.937 109.752 125.61 108.825 125.011 108.084C124.411 107.344 123.576 106.835 122.648 106.645L122.648 103.245C122.648 102.805 122.475 102.383 122.167 102.072C121.859 101.761 121.441 101.586 121.005 101.586L106.221 101.586C105.786 101.586 105.368 101.761 105.06 102.072C104.752 102.383 104.579 102.805 104.579 103.245L104.579 106.645C103.65 106.835 102.816 107.344 102.216 108.084C101.617 108.825 101.289 109.752 101.289 110.709C101.289 111.665 101.617 112.592 102.216 113.333C102.816 114.073 103.65 114.582 104.579 114.772V114.772ZM118.541 119.002L108.685 119.002C108.033 118.999 107.408 118.736 106.946 118.27C106.485 117.804 106.224 117.173 106.221 116.514L106.221 114.772C107.148 114.579 107.981 114.07 108.579 113.33C109.177 112.59 109.505 111.664 109.507 110.709L117.72 110.709C117.722 111.664 118.049 112.59 118.648 113.33C119.246 114.07 120.079 114.579 121.005 114.772L121.005 116.514C121.003 117.173 120.742 117.804 120.281 118.27C119.819 118.736 119.194 118.999 118.541 119.002V119.002ZM105.359 108.221L105.4 108.221C105.618 108.221 105.827 108.133 105.981 107.978C106.135 107.822 106.221 107.611 106.221 107.391L106.221 103.245L121.005 103.245L121.005 107.391C121.005 107.5 121.027 107.607 121.068 107.707C121.109 107.807 121.17 107.898 121.247 107.974C121.323 108.05 121.414 108.11 121.513 108.151C121.613 108.192 121.719 108.212 121.827 108.21L121.868 108.21C122.353 108.218 122.825 108.371 123.224 108.649C123.624 108.927 123.933 109.317 124.114 109.772C124.294 110.227 124.338 110.725 124.239 111.205C124.14 111.684 123.903 112.124 123.558 112.468C123.213 112.812 122.775 113.046 122.299 113.14C121.823 113.234 121.33 113.183 120.882 112.996C120.434 112.808 120.05 112.49 119.78 112.084C119.51 111.677 119.365 111.198 119.363 110.709L119.363 106.562C119.363 106.342 119.276 106.131 119.122 105.976C118.968 105.82 118.759 105.733 118.541 105.733C118.324 105.733 118.115 105.82 117.961 105.976C117.807 106.131 117.72 106.342 117.72 106.562L117.72 109.05L109.507 109.05L109.507 106.562C109.507 106.342 109.42 106.131 109.266 105.976C109.112 105.82 108.903 105.733 108.685 105.733C108.468 105.733 108.259 105.82 108.105 105.976C107.951 106.131 107.864 106.342 107.864 106.562L107.864 110.709C107.864 111.199 107.72 111.678 107.452 112.086C107.183 112.495 106.8 112.813 106.352 113.003C105.904 113.192 105.411 113.244 104.934 113.151C104.457 113.059 104.018 112.826 103.672 112.482C103.326 112.138 103.088 111.699 102.989 111.219C102.889 110.739 102.932 110.24 103.112 109.785C103.292 109.33 103.602 108.938 104.001 108.66C104.401 108.382 104.874 108.229 105.359 108.221V108.221Z" fill="black"/>
<path d="M84.0267 35.4341L84.0267 33.6926C84.0267 32.5928 83.5941 31.5381 82.8239 30.7605C82.0538 29.9829 81.0092 29.546 79.9201 29.546L70.0641 29.546C68.9749 29.546 67.9304 29.9829 67.1602 30.7605C66.3901 31.5381 65.9574 32.5928 65.9574 33.6926L65.9574 35.4341C65.0291 35.6244 64.1944 36.133 63.595 36.8736C62.9955 37.6141 62.668 38.5412 62.668 39.4977C62.668 40.4542 62.9955 41.3813 63.595 42.1218C64.1944 42.8624 65.0291 43.371 65.9574 43.5613L65.9574 46.9614C65.9574 47.4013 66.1305 47.8232 66.4385 48.1343C66.7466 48.4453 67.1644 48.6201 67.6001 48.6201L82.3841 48.6201C82.8197 48.6201 83.2375 48.4453 83.5456 48.1343C83.8536 47.8232 84.0267 47.4013 84.0267 46.9614L84.0267 43.5613C84.9551 43.371 85.7897 42.8624 86.3892 42.1218C86.9887 41.3813 87.3162 40.4542 87.3162 39.4977C87.3162 38.5412 86.9887 37.6141 86.3892 36.8736C85.7897 36.133 84.9551 35.6244 84.0267 35.4341V35.4341ZM70.0641 31.2046L79.9201 31.2046C80.5727 31.2074 81.1979 31.4704 81.6594 31.9363C82.1209 32.4023 82.3813 33.0336 82.3841 33.6926L82.3841 35.4341C81.4574 35.6271 80.6248 36.1365 80.0264 36.8766C79.4281 37.6167 79.1005 38.5423 79.0987 39.4977L70.8854 39.4977C70.8837 38.5423 70.5561 37.6167 69.9577 36.8766C69.3594 36.1365 68.5268 35.6271 67.6001 35.4341L67.6001 33.6926C67.6028 33.0336 67.8632 32.4023 68.3248 31.9363C68.7863 31.4704 69.4114 31.2074 70.0641 31.2046V31.2046ZM83.2465 41.9856L83.2054 41.9856C82.9876 41.9856 82.7786 42.073 82.6246 42.2285C82.4706 42.384 82.3841 42.595 82.3841 42.8149L82.3841 46.9614L67.6001 46.9614L67.6001 42.8149C67.6001 42.7065 67.5788 42.5991 67.5374 42.4991C67.496 42.3991 67.4353 42.3083 67.3589 42.2321C67.2825 42.156 67.1919 42.0959 67.0923 42.0553C66.9927 42.0148 66.8861 41.9946 66.7787 41.996L66.7377 41.996C66.2526 41.9878 65.7807 41.8352 65.3812 41.5574C64.9816 41.2796 64.6722 40.8888 64.4917 40.4342C64.3112 39.9795 64.2676 39.4811 64.3664 39.0016C64.4653 38.522 64.7021 38.0826 65.0473 37.7383C65.3924 37.3941 65.8305 37.1604 66.3067 37.0666C66.7828 36.9727 67.2758 37.0229 67.7238 37.2108C68.1719 37.3986 68.555 37.7159 68.8252 38.1227C69.0954 38.5295 69.2407 39.0079 69.2427 39.4977L69.2427 43.6442C69.2427 43.8642 69.3293 44.0751 69.4833 44.2306C69.6373 44.3862 69.8462 44.4735 70.0641 44.4735C70.2819 44.4735 70.4908 44.3862 70.6448 44.2306C70.7989 44.0751 70.8854 43.8642 70.8854 43.6442L70.8854 41.1563L79.0987 41.1563L79.0987 43.6442C79.0987 43.8642 79.1853 44.0751 79.3393 44.2306C79.4933 44.3862 79.7022 44.4735 79.9201 44.4735C80.1379 44.4735 80.3468 44.3862 80.5008 44.2306C80.6549 44.0751 80.7414 43.8642 80.7414 43.6442L80.7414 39.4977C80.7415 39.0074 80.885 38.5281 81.154 38.1199C81.4229 37.7117 81.8054 37.3929 82.2532 37.2034C82.7011 37.0139 83.1944 36.9623 83.6712 37.055C84.148 37.1477 84.5871 37.3805 84.9332 37.7243C85.2794 38.0681 85.5173 38.5076 85.6169 38.9874C85.7166 39.4672 85.6736 39.9661 85.4934 40.4214C85.3132 40.8767 85.0038 41.268 84.604 41.5463C84.2042 41.8246 83.732 41.9774 83.2465 41.9856V41.9856Z" fill="black"/>
<path d="M65.9655 114.566L65.9655 116.307C65.9655 117.407 66.3981 118.462 67.1683 119.239C67.9384 120.017 68.983 120.454 70.0721 120.454L79.9281 120.454C81.0173 120.454 82.0618 120.017 82.832 119.239C83.6021 118.462 84.0348 117.407 84.0348 116.307L84.0348 114.566C84.9631 114.375 85.7977 113.867 86.3972 113.126C86.9967 112.386 87.3242 111.459 87.3242 110.502C87.3242 109.546 86.9967 108.619 86.3972 107.878C85.7977 107.137 84.9631 106.629 84.0348 106.439L84.0348 103.038C84.0348 102.599 83.8617 102.177 83.5536 101.866C83.2456 101.555 82.8278 101.38 82.3921 101.38L67.6081 101.38C67.1725 101.38 66.7547 101.555 66.4466 101.866C66.1385 102.177 65.9655 102.599 65.9655 103.038L65.9655 106.439C65.0371 106.629 64.2025 107.137 63.603 107.878C63.0035 108.619 62.676 109.546 62.676 110.502C62.676 111.459 63.0035 112.386 63.603 113.126C64.2025 113.867 65.0371 114.375 65.9655 114.566V114.566ZM79.9281 118.795L70.0721 118.795C69.4195 118.793 68.7943 118.53 68.3328 118.064C67.8713 117.598 67.6108 116.966 67.6081 116.307L67.6081 114.566C68.5348 114.373 69.3674 113.863 69.9658 113.123C70.5641 112.383 70.8917 111.458 70.8935 110.502L79.1068 110.502C79.1085 111.458 79.4361 112.383 80.0345 113.123C80.6328 113.863 81.4654 114.373 82.3921 114.566L82.3921 116.307C82.3894 116.966 82.1289 117.598 81.6674 118.064C81.2059 118.53 80.5808 118.793 79.9281 118.795V118.795ZM66.7457 108.014L66.7868 108.014C67.0046 108.014 67.2135 107.927 67.3676 107.771C67.5216 107.616 67.6081 107.405 67.6081 107.185L67.6081 103.038L82.3921 103.038L82.3921 107.185C82.3921 107.293 82.4134 107.401 82.4548 107.501C82.4962 107.601 82.5569 107.692 82.6333 107.768C82.7097 107.844 82.8003 107.904 82.8999 107.945C82.9995 107.985 83.1061 108.005 83.2134 108.004L83.2545 108.004C83.7396 108.012 84.2115 108.165 84.611 108.442C85.0105 108.72 85.32 109.111 85.5005 109.566C85.681 110.02 85.7246 110.519 85.6257 110.998C85.5269 111.478 85.2901 111.917 84.9449 112.262C84.5998 112.606 84.1617 112.839 83.6855 112.933C83.2094 113.027 82.7164 112.977 82.2683 112.789C81.8203 112.601 81.4372 112.284 81.167 111.877C80.8968 111.47 80.7515 110.992 80.7494 110.502L80.7494 106.356C80.7494 106.136 80.6629 105.925 80.5089 105.769C80.3549 105.614 80.1459 105.526 79.9281 105.526C79.7103 105.526 79.5014 105.614 79.3473 105.769C79.1933 105.925 79.1068 106.136 79.1068 106.356L79.1068 108.844L70.8935 108.844L70.8935 106.356C70.8935 106.136 70.8069 105.925 70.6529 105.769C70.4989 105.614 70.29 105.526 70.0721 105.526C69.8543 105.526 69.6454 105.614 69.4914 105.769C69.3373 105.925 69.2508 106.136 69.2508 106.356L69.2508 110.502C69.2507 110.992 69.1072 111.472 68.8382 111.88C68.5692 112.288 68.1868 112.607 67.739 112.796C67.2911 112.986 66.7978 113.038 66.321 112.945C65.8442 112.852 65.4051 112.619 65.059 112.276C64.7128 111.932 64.4749 111.492 64.3753 111.012C64.2756 110.533 64.3186 110.034 64.4988 109.578C64.679 109.123 64.9884 108.732 65.3882 108.454C65.7879 108.175 66.2602 108.022 66.7457 108.014V108.014Z" fill="black"/>
<path d="M45.4095 35.2277L45.4095 33.4861C45.4095 32.3864 44.9769 31.3317 44.2067 30.5541C43.4366 29.7765 42.392 29.3396 41.3029 29.3396L31.4469 29.3396C30.3577 29.3396 29.3132 29.7765 28.543 30.5541C27.7729 31.3317 27.3402 32.3864 27.3402 33.4861L27.3402 35.2277C26.4119 35.418 25.5773 35.9266 24.9778 36.6671C24.3783 37.4077 24.0508 38.3348 24.0508 39.2913C24.0508 40.2478 24.3783 41.1748 24.9778 41.9154C25.5773 42.656 26.4119 43.1645 27.3402 43.3549L27.3402 46.755C27.3402 47.1949 27.5133 47.6168 27.8214 47.9278C28.1294 48.2389 28.5472 48.4136 28.9829 48.4136L43.7669 48.4136C44.2025 48.4136 44.6203 48.2389 44.9284 47.9278C45.2365 47.6168 45.4095 47.1949 45.4095 46.755L45.4095 43.3549C46.3379 43.1645 47.1725 42.656 47.772 41.9154C48.3715 41.1748 48.699 40.2478 48.699 39.2913C48.699 38.3348 48.3715 37.4077 47.772 36.6671C47.1725 35.9266 46.3379 35.418 45.4095 35.2277V35.2277ZM31.4469 30.9982L41.3029 30.9982C41.9555 31.0009 42.5807 31.2639 43.0422 31.7299C43.5037 32.1959 43.7642 32.8271 43.7669 33.4861L43.7669 35.2277C42.8402 35.4207 42.0076 35.9301 41.4092 36.6702C40.8109 37.4103 40.4833 38.3359 40.4815 39.2913L32.2682 39.2913C32.2665 38.3359 31.9389 37.4103 31.3405 36.6702C30.7422 35.9301 29.9096 35.4207 28.9829 35.2277L28.9829 33.4861C28.9856 32.8271 29.2461 32.1959 29.7076 31.7299C30.1691 31.2639 30.7942 31.0009 31.4469 30.9982V30.9982ZM44.6293 41.7792L44.5882 41.7792C44.3704 41.7792 44.1615 41.8666 44.0074 42.0221C43.8534 42.1776 43.7669 42.3886 43.7669 42.6085L43.7669 46.755L28.9829 46.755L28.9829 42.6085C28.9829 42.5001 28.9616 42.3927 28.9202 42.2927C28.8788 42.1926 28.8181 42.1019 28.7417 42.0257C28.6653 41.9495 28.5747 41.8894 28.4751 41.8489C28.3755 41.8084 28.2689 41.7882 28.1616 41.7896L28.1205 41.7896C27.6354 41.7814 27.1635 41.6288 26.764 41.351C26.3645 41.0731 26.055 40.6824 25.8745 40.2277C25.694 39.7731 25.6504 39.2747 25.7493 38.7951C25.8481 38.3156 26.0849 37.8761 26.4301 37.5319C26.7752 37.1877 27.2133 36.954 27.6895 36.8602C28.1656 36.7663 28.6586 36.8165 29.1067 37.0043C29.5547 37.1922 29.9378 37.5095 30.208 37.9163C30.4782 38.3231 30.6235 38.8014 30.6256 39.2913L30.6256 43.4378C30.6256 43.6577 30.7121 43.8687 30.8661 44.0242C31.0201 44.1797 31.2291 44.2671 31.4469 44.2671C31.6647 44.2671 31.8736 44.1797 32.0277 44.0242C32.1817 43.8687 32.2682 43.6577 32.2682 43.4378L32.2682 40.9499L40.4815 40.9499L40.4815 43.4378C40.4815 43.6577 40.5681 43.8687 40.7221 44.0242C40.8761 44.1797 41.085 44.2671 41.3029 44.2671C41.5207 44.2671 41.7296 44.1797 41.8836 44.0242C42.0377 43.8687 42.1242 43.6577 42.1242 43.4378L42.1242 39.2913C42.1243 38.801 42.2678 38.3217 42.5368 37.9135C42.8058 37.5053 43.1882 37.1864 43.636 36.997C44.0839 36.8075 44.5772 36.7559 45.054 36.8486C45.5308 36.9412 45.9699 37.1741 46.316 37.5179C46.6622 37.8617 46.9001 38.3011 46.9997 38.781C47.0994 39.2608 47.0564 39.7597 46.8762 40.215C46.696 40.6702 46.3866 41.0616 45.9868 41.3399C45.5871 41.6182 45.1148 41.771 44.6293 41.7792V41.7792Z" fill="black"/>
<path d="M27.3483 114.359L27.3483 116.101C27.3483 117.201 27.7809 118.255 28.5511 119.033C29.3212 119.81 30.3658 120.247 31.4549 120.247L41.3109 120.247C42.4001 120.247 43.4446 119.81 44.2148 119.033C44.9849 118.255 45.4176 117.201 45.4176 116.101L45.4176 114.359C46.3459 114.169 47.1806 113.66 47.78 112.92C48.3795 112.179 48.707 111.252 48.707 110.296C48.707 109.339 48.3795 108.412 47.78 107.672C47.1806 106.931 46.3459 106.422 45.4176 106.232L45.4176 102.832C45.4176 102.392 45.2445 101.97 44.9365 101.659C44.6284 101.348 44.2106 101.173 43.7749 101.173L28.9909 101.173C28.5553 101.173 28.1375 101.348 27.8294 101.659C27.5214 101.97 27.3483 102.392 27.3483 102.832L27.3483 106.232C26.4199 106.422 25.5853 106.931 24.9858 107.672C24.3863 108.412 24.0588 109.339 24.0588 110.296C24.0588 111.252 24.3863 112.179 24.9858 112.92C25.5853 113.66 26.4199 114.169 27.3483 114.359V114.359ZM41.3109 118.589L31.4549 118.589C30.8023 118.586 30.1771 118.323 29.7156 117.857C29.2541 117.391 28.9937 116.76 28.9909 116.101L28.9909 114.359C29.9176 114.166 30.7502 113.657 31.3486 112.917C31.9469 112.177 32.2745 111.251 32.2763 110.296L40.4896 110.296C40.4913 111.251 40.8189 112.177 41.4173 112.917C42.0156 113.657 42.8482 114.166 43.7749 114.359L43.7749 116.101C43.7722 116.76 43.5118 117.391 43.0502 117.857C42.5887 118.323 41.9636 118.586 41.3109 118.589V118.589ZM28.1285 107.808L28.1696 107.808C28.3874 107.808 28.5964 107.72 28.7504 107.565C28.9044 107.409 28.9909 107.198 28.9909 106.978L28.9909 102.832L43.7749 102.832L43.7749 106.978C43.7749 107.087 43.7962 107.194 43.8376 107.294C43.879 107.394 43.9397 107.485 44.0161 107.561C44.0925 107.637 44.1831 107.697 44.2827 107.738C44.3823 107.779 44.4889 107.799 44.5963 107.797L44.6373 107.797C45.1224 107.806 45.5943 107.958 45.9938 108.236C46.3934 108.514 46.7028 108.905 46.8833 109.359C47.0638 109.814 47.1074 110.312 47.0086 110.792C46.9097 111.271 46.6729 111.711 46.3277 112.055C45.9826 112.399 45.5445 112.633 45.0683 112.727C44.5922 112.821 44.0992 112.77 43.6512 112.583C43.2031 112.395 42.82 112.077 42.5498 111.671C42.2796 111.264 42.1343 110.785 42.1323 110.296L42.1323 106.149C42.1323 105.929 42.0457 105.718 41.8917 105.563C41.7377 105.407 41.5288 105.32 41.3109 105.32C41.0931 105.32 40.8842 105.407 40.7302 105.563C40.5761 105.718 40.4896 105.929 40.4896 106.149L40.4896 108.637L32.2763 108.637L32.2763 106.149C32.2763 105.929 32.1897 105.718 32.0357 105.563C31.8817 105.407 31.6728 105.32 31.4549 105.32C31.2371 105.32 31.0282 105.407 30.8742 105.563C30.7201 105.718 30.6336 105.929 30.6336 106.149L30.6336 110.296C30.6335 110.786 30.49 111.265 30.221 111.673C29.9521 112.082 29.5696 112.4 29.1218 112.59C28.6739 112.779 28.1806 112.831 27.7038 112.738C27.227 112.646 26.7879 112.413 26.4418 112.069C26.0956 111.725 25.8577 111.286 25.7581 110.806C25.6584 110.326 25.7014 109.827 25.8816 109.372C26.0618 108.917 26.3712 108.525 26.771 108.247C27.1708 107.969 27.643 107.816 28.1285 107.808V107.808Z" fill="black"/>
<path d="M74.5 90.8287C72.18 90.8287 70.1667 90.482 68.46 89.7887C66.7533 89.0954 65.4333 88.122 64.5 86.8687C63.5667 85.5887 63.1 84.0954 63.1 82.3887C63.1 80.682 63.5533 79.242 64.46 78.0687C65.3667 76.8954 66.6733 76.002 68.38 75.3887C70.0867 74.7754 72.1267 74.4687 74.5 74.4687C76.8733 74.4687 78.9133 74.7754 80.62 75.3887C82.3533 76.002 83.6733 76.9087 84.58 78.1087C85.5133 79.282 85.98 80.7087 85.98 82.3887C85.98 84.0954 85.5 85.5887 84.54 86.8687C83.6067 88.122 82.2733 89.0954 80.54 89.7887C78.8333 90.482 76.82 90.8287 74.5 90.8287ZM74.5 86.7487C76.42 86.7487 77.94 86.3487 79.06 85.5487C80.18 84.7487 80.74 83.642 80.74 82.2287C80.74 80.842 80.18 79.7487 79.06 78.9487C77.94 78.1487 76.42 77.7487 74.5 77.7487C72.58 77.7487 71.0733 78.1487 69.98 78.9487C68.8867 79.7487 68.34 80.842 68.34 82.2287C68.34 83.642 68.8867 84.7487 69.98 85.5487C71.0733 86.3487 72.58 86.7487 74.5 86.7487ZM74.5 77.1887C72.34 77.1887 70.4867 76.9087 68.94 76.3487C67.3933 75.762 66.1933 74.922 65.34 73.8287C64.5133 72.7087 64.1 71.3754 64.1 69.8287C64.1 68.2287 64.5267 66.8554 65.38 65.7087C66.26 64.5354 67.4867 63.6287 69.06 62.9887C70.6333 62.3487 72.4467 62.0287 74.5 62.0287C76.58 62.0287 78.4067 62.3487 79.98 62.9887C81.5533 63.6287 82.78 64.5354 83.66 65.7087C84.54 66.8554 84.98 68.2287 84.98 69.8287C84.98 71.3754 84.5533 72.7087 83.7 73.8287C82.8733 74.922 81.6733 75.762 80.1 76.3487C78.5267 76.9087 76.66 77.1887 74.5 77.1887ZM74.5 73.9887C76.1533 73.9887 77.46 73.642 78.42 72.9487C79.38 72.2287 79.86 71.2687 79.86 70.0687C79.86 68.8154 79.3667 67.842 78.38 67.1487C77.3933 66.4554 76.1 66.1087 74.5 66.1087C72.9 66.1087 71.62 66.4554 70.66 67.1487C69.7 67.842 69.22 68.8154 69.22 70.0687C69.22 71.2687 69.6867 72.2287 70.62 72.9487C71.58 73.642 72.8733 73.9887 74.5 73.9887Z" fill="black"/>
</svg>
