<svg width="150" height="150" viewBox="0 0 150 150" fill="none" xmlns="http://www.w3.org/2000/svg">
<g clip-path="url(#clip0_784_5171)">
<rect x="49.8255" y="133.078" width="39.3001" height="114.693" rx="4.5" transform="rotate(-142.192 49.8255 133.078)" fill="#FFDF7F" stroke="black"/>
<g clip-path="url(#clip1_784_5171)">
<path d="M77.7274 137.497L79.1033 138.565C79.9722 139.239 81.0707 139.544 82.1572 139.412C83.2436 139.28 84.2291 138.723 84.8968 137.862L90.9387 130.075C91.6064 129.215 91.9015 128.122 91.7593 127.037C91.617 125.952 91.049 124.963 90.1801 124.289L88.8042 123.221C89.2229 122.371 89.3328 121.4 89.1151 120.473C88.8975 119.545 88.3658 118.718 87.6102 118.131C86.8545 117.545 85.9213 117.236 84.9686 117.255C84.016 117.275 83.1026 117.623 82.3831 118.239L79.6968 116.155C79.3492 115.885 78.9098 115.763 78.4752 115.816C78.0407 115.869 77.6465 116.092 77.3794 116.436L68.3165 128.116C68.0495 128.461 67.9314 128.898 67.9883 129.332C68.0452 129.766 68.2724 130.161 68.62 130.431L71.3063 132.515C70.8876 133.365 70.7777 134.337 70.9954 135.264C71.213 136.192 71.7447 137.019 72.5003 137.605C73.256 138.192 74.1892 138.501 75.1419 138.482C76.0945 138.462 77.0079 138.114 77.7274 137.497V137.497ZM89.6283 129.059L83.5864 136.846C83.1841 137.36 82.5931 137.692 81.942 137.771C81.291 137.85 80.6326 137.669 80.1103 137.267L78.7343 136.2C79.15 135.349 79.2579 134.379 79.04 133.453C78.822 132.526 78.2915 131.7 77.5378 131.113L82.5727 124.624C83.3286 125.208 84.2607 125.517 85.2123 125.498C86.1638 125.479 87.0766 125.133 87.7972 124.519L89.1731 125.587C89.6921 125.993 90.0312 126.586 90.1164 127.236C90.2017 127.886 90.0262 128.541 89.6283 129.059V129.059ZM73.0295 132.865L73.0547 132.832C73.1882 132.66 73.2473 132.442 73.2188 132.225C73.1904 132.008 73.0768 131.81 72.903 131.675L69.6269 129.133L78.6898 117.453L81.9658 119.995C82.0515 120.061 82.1494 120.11 82.2538 120.139C82.3582 120.167 82.4671 120.175 82.5741 120.161C82.6811 120.148 82.7842 120.113 82.8773 120.059C82.9704 120.005 83.0516 119.933 83.1164 119.848L83.1415 119.815C83.4453 119.437 83.8552 119.158 84.3196 119.012C84.784 118.867 85.2824 118.862 85.7523 118.998C86.2222 119.134 86.6426 119.405 86.9609 119.778C87.2792 120.15 87.4812 120.606 87.5416 121.09C87.602 121.574 87.518 122.063 87.3003 122.497C87.0826 122.93 86.7407 123.289 86.3176 123.528C85.8946 123.767 85.409 123.875 84.922 123.839C84.4349 123.803 83.968 123.625 83.5797 123.326L80.3037 120.784C80.1299 120.649 79.9102 120.588 79.6929 120.615C79.4756 120.641 79.2785 120.753 79.145 120.925C79.0114 121.097 78.9524 121.315 78.9808 121.532C79.0093 121.749 79.1229 121.947 79.2967 122.082L81.2623 123.607L76.2274 130.096L74.2617 128.571C74.088 128.436 73.8683 128.375 73.651 128.402C73.4337 128.428 73.2366 128.539 73.103 128.712C72.9695 128.884 72.9105 129.102 72.9389 129.319C72.9674 129.536 73.081 129.734 73.2548 129.869L76.5308 132.411C76.9181 132.711 77.2088 133.119 77.3664 133.581C77.5241 134.044 77.5415 134.542 77.4167 135.012C77.2918 135.482 77.0302 135.903 76.6647 136.223C76.2992 136.543 75.846 136.747 75.3622 136.81C74.8784 136.872 74.3854 136.791 73.9452 136.576C73.505 136.36 73.1372 136.02 72.8879 135.599C72.6387 135.177 72.5192 134.693 72.5444 134.207C72.5696 133.72 72.7384 133.253 73.0295 132.865V132.865Z" fill="black"/>
</g>
<g clip-path="url(#clip2_784_5171)">
<path d="M26.2805 74.7175L24.9045 73.6499C24.0357 72.9758 22.9372 72.6711 21.8507 72.8029C20.7642 72.9346 19.7787 73.4921 19.111 74.3526L13.0691 82.1395C12.4014 83 12.1063 84.0931 12.2485 85.1782C12.3908 86.2634 12.9588 87.2518 13.8277 87.9259L15.2036 88.9935C14.7849 89.8437 14.6751 90.8148 14.8927 91.7424C15.1103 92.6701 15.642 93.4971 16.3977 94.0835C17.1533 94.6698 18.0866 94.9794 19.0392 94.9597C19.9918 94.9401 20.9052 94.5924 21.6247 93.9757L24.311 96.06C24.6586 96.3297 25.098 96.4516 25.5326 96.3989C25.9672 96.3461 26.3614 96.1232 26.6284 95.779L35.6913 84.0986C35.9584 83.7544 36.0764 83.3172 36.0195 82.8831C35.9626 82.449 35.7354 82.0537 35.3878 81.784L32.7015 79.6997C33.1202 78.8495 33.2301 77.8784 33.0125 76.9508C32.7948 76.0231 32.2632 75.1961 31.5075 74.6097C30.7518 74.0234 29.8186 73.7138 28.866 73.7335C27.9134 73.7531 26.9999 74.1008 26.2805 74.7175V74.7175ZM14.3795 83.1562L20.4214 75.3693C20.8237 74.8554 21.4147 74.5227 22.0658 74.4437C22.7168 74.3648 23.3752 74.5459 23.8975 74.9478L25.2735 76.0154C24.8579 76.8658 24.7499 77.8359 24.9679 78.7623C25.1858 79.6888 25.7163 80.515 26.47 81.1021L21.4351 87.5911C20.6792 87.0068 19.7471 86.6982 18.7955 86.7173C17.844 86.7363 16.9312 87.0819 16.2106 87.6957L14.8347 86.6281C14.3157 86.222 13.9766 85.6293 13.8914 84.979C13.8061 84.3287 13.9816 83.6736 14.3795 83.1562V83.1562ZM30.9783 79.3502L30.9531 79.3827C30.8196 79.5548 30.7605 79.7734 30.789 79.9904C30.8174 80.2074 30.9311 80.4051 31.1048 80.5399L34.3809 83.0819L25.318 94.7622L22.042 92.2203C21.9563 92.1538 21.8584 92.1049 21.754 92.0762C21.6496 92.0476 21.5407 92.0399 21.4337 92.0536C21.3267 92.0673 21.2236 92.102 21.1305 92.1558C21.0375 92.2097 20.9562 92.2815 20.8915 92.3672L20.8663 92.3996C20.5625 92.7778 20.1527 93.0571 19.6882 93.2025C19.2238 93.3478 18.7254 93.3528 18.2555 93.2167C17.7856 93.0806 17.3652 92.8095 17.0469 92.4374C16.7286 92.0654 16.5266 91.6089 16.4662 91.1251C16.4058 90.6414 16.4898 90.152 16.7075 89.7183C16.9252 89.2846 17.2671 88.9259 17.6902 88.6871C18.1133 88.4483 18.5988 88.34 19.0858 88.376C19.5729 88.4119 20.0398 88.5903 20.4281 88.889L23.7042 91.4309C23.8779 91.5657 24.0976 91.6266 24.3149 91.6003C24.5322 91.5739 24.7293 91.4624 24.8629 91.2903C24.9964 91.1182 25.0554 90.8996 25.027 90.6826C24.9985 90.4656 24.8849 90.2679 24.7111 90.133L22.7455 88.6079L27.7804 82.1188L29.7461 83.644C29.9198 83.7788 30.1395 83.8397 30.3568 83.8134C30.5741 83.787 30.7712 83.6755 30.9048 83.5034C31.0383 83.3313 31.0973 83.1127 31.0689 82.8957C31.0404 82.6787 30.9268 82.481 30.753 82.3461L27.477 79.8042C27.0897 79.5036 26.799 79.0964 26.6414 78.6337C26.4838 78.1709 26.4663 77.6733 26.5911 77.2033C26.716 76.7334 26.9776 76.312 27.3431 75.9921C27.7086 75.6722 28.1618 75.468 28.6456 75.4053C29.1295 75.3426 29.6224 75.424 30.0626 75.6394C30.5028 75.8548 30.8707 76.1946 31.1199 76.6161C31.3691 77.0375 31.4886 77.5219 31.4634 78.0084C31.4382 78.4948 31.2694 78.9616 30.9783 79.3502V79.3502Z" fill="black"/>
</g>
<g clip-path="url(#clip3_784_5171)">
<path d="M101.567 107.117L102.943 108.185C103.812 108.859 104.911 109.164 105.997 109.032C107.083 108.9 108.069 108.343 108.737 107.482L114.779 99.6955C115.446 98.835 115.741 97.7419 115.599 96.6567C115.457 95.5716 114.889 94.5832 114.02 93.909L112.644 92.8414C113.063 91.9913 113.173 91.0201 112.955 90.0925C112.737 89.1649 112.206 88.3378 111.45 87.7515C110.694 87.1651 109.761 86.8556 108.808 86.8752C107.856 86.8949 106.942 87.2425 106.223 87.8593L103.537 85.7749C103.189 85.5053 102.75 85.3834 102.315 85.4361C101.88 85.4888 101.486 85.7118 101.219 86.056L92.1564 97.7363C91.8893 98.0806 91.7712 98.5178 91.8281 98.9518C91.885 99.3859 92.1123 99.7813 92.4598 100.051L95.1462 102.135C94.7274 102.985 94.6176 103.957 94.8352 104.884C95.0528 105.812 95.5845 106.639 96.3402 107.225C97.0959 107.812 98.0291 108.121 98.9817 108.102C99.9343 108.082 100.848 107.734 101.567 107.117V107.117ZM113.468 98.6787L107.426 106.466C107.024 106.98 106.433 107.312 105.782 107.391C105.131 107.47 104.472 107.289 103.95 106.887L102.574 105.82C102.99 104.969 103.098 103.999 102.88 103.073C102.662 102.146 102.131 101.32 101.378 100.733L106.413 94.2438C107.168 94.8281 108.101 95.1367 109.052 95.1177C110.004 95.0986 110.916 94.7531 111.637 94.1393L113.013 95.2069C113.532 95.613 113.871 96.2057 113.956 96.856C114.042 97.5063 113.866 98.1614 113.468 98.6787V98.6787ZM96.8694 102.485L96.8945 102.452C97.0281 102.28 97.0871 102.062 97.0587 101.845C97.0302 101.628 96.9166 101.43 96.7428 101.295L93.4668 98.7531L102.53 87.0728L105.806 89.6147C105.891 89.6811 105.989 89.7301 106.094 89.7587C106.198 89.7873 106.307 89.795 106.414 89.7814C106.521 89.7677 106.624 89.733 106.717 89.6791C106.81 89.6253 106.891 89.5535 106.956 89.4678L106.981 89.4353C107.285 89.0571 107.695 88.7778 108.159 88.6325C108.624 88.4871 109.122 88.4822 109.592 88.6183C110.062 88.7544 110.482 89.0255 110.801 89.3975C111.119 89.7696 111.321 90.2261 111.381 90.7098C111.442 91.1935 111.358 91.6829 111.14 92.1166C110.922 92.5504 110.581 92.9091 110.157 93.1479C109.734 93.3867 109.249 93.4949 108.762 93.459C108.275 93.4231 107.808 93.2446 107.42 92.946L104.143 90.4041C103.97 90.2693 103.75 90.2083 103.533 90.2347C103.315 90.261 103.118 90.3725 102.985 90.5446C102.851 90.7167 102.792 90.9353 102.821 91.1524C102.849 91.3694 102.963 91.5671 103.137 91.7019L105.102 93.2271L100.067 99.7161L98.1016 98.191C97.9278 98.0562 97.7081 97.9952 97.4908 98.0216C97.2735 98.0479 97.0764 98.1594 96.9429 98.3315C96.8094 98.5036 96.7503 98.7222 96.7788 98.9393C96.8072 99.1563 96.9208 99.354 97.0946 99.4888L100.371 102.031C100.758 102.331 101.049 102.739 101.206 103.201C101.364 103.664 101.381 104.162 101.257 104.632C101.132 105.102 100.87 105.523 100.505 105.843C100.139 106.163 99.6859 106.367 99.202 106.43C98.7182 106.492 98.2252 106.411 97.785 106.196C97.3448 105.98 96.977 105.64 96.7278 105.219C96.4786 104.797 96.3591 104.313 96.3842 103.827C96.4094 103.34 96.5782 102.873 96.8694 102.485V102.485Z" fill="black"/>
</g>
<g clip-path="url(#clip4_784_5171)">
<path d="M50.1164 44.3356L48.7405 43.268C47.8716 42.5938 46.7731 42.2891 45.6866 42.4209C44.6001 42.5527 43.6146 43.1101 42.947 43.9706L36.905 51.7575C36.2374 52.618 35.9422 53.7111 36.0845 54.7963C36.2267 55.8814 36.7948 56.8698 37.6636 57.544L39.0396 58.6116C38.6209 59.4617 38.511 60.4329 38.7286 61.3605C38.9462 62.2881 39.4779 63.1152 40.2336 63.7015C40.9893 64.2879 41.9225 64.5974 42.8751 64.5778C43.8277 64.5581 44.7411 64.2105 45.4606 63.5937L48.147 65.6781C48.4945 65.9477 48.9339 66.0696 49.3685 66.0169C49.8031 65.9642 50.1973 65.7412 50.4644 65.397L59.5272 53.7167C59.7943 53.3725 59.9124 52.9352 59.8555 52.5012C59.7985 52.0671 59.5713 51.6717 59.2238 51.4021L56.5374 49.3177C56.9561 48.4676 57.066 47.4964 56.8484 46.5688C56.6308 45.6412 56.0991 44.8141 55.3434 44.2278C54.5877 43.6414 53.6545 43.3319 52.7019 43.3515C51.7493 43.3712 50.8359 43.7188 50.1164 44.3356V44.3356ZM38.2155 52.7743L44.2574 44.9874C44.6596 44.4734 45.2506 44.1407 45.9017 44.0618C46.5528 43.9828 47.2112 44.164 47.7335 44.5658L49.1094 45.6334C48.6938 46.4839 48.5859 47.4539 48.8038 48.3804C49.0217 49.3068 49.5522 50.1331 50.306 50.7201L45.271 57.2092C44.5152 56.6249 43.583 56.3163 42.6315 56.3353C41.68 56.3544 40.7671 56.6999 40.0465 57.3138L38.6706 56.2462C38.1516 55.84 37.8126 55.2473 37.7273 54.597C37.6421 53.9467 37.8175 53.2916 38.2155 52.7743V52.7743ZM54.8142 48.9683L54.789 49.0007C54.6555 49.1728 54.5965 49.3914 54.6249 49.6085C54.6534 49.8255 54.767 50.0232 54.9408 50.158L58.2168 52.6999L49.1539 64.3802L45.8779 61.8383C45.7922 61.7719 45.6944 61.7229 45.59 61.6943C45.4855 61.6657 45.3767 61.658 45.2696 61.6716C45.1626 61.6853 45.0596 61.7201 44.9665 61.7739C44.8734 61.8277 44.7921 61.8995 44.7274 61.9852L44.7022 62.0177C44.3984 62.3959 43.9886 62.6752 43.5242 62.8205C43.0597 62.9659 42.5613 62.9708 42.0914 62.8347C41.6216 62.6986 41.2011 62.4275 40.8828 62.0555C40.5645 61.6834 40.3625 61.2269 40.3021 60.7432C40.2418 60.2595 40.3257 59.7701 40.5434 59.3364C40.7612 58.9027 41.103 58.5439 41.5261 58.3051C41.9492 58.0663 42.4347 57.9581 42.9218 57.994C43.4088 58.0299 43.8758 58.2084 44.2641 58.507L47.5401 61.0489C47.7139 61.1837 47.9336 61.2447 48.1509 61.2183C48.3682 61.192 48.5653 61.0805 48.6988 60.9084C48.8323 60.7363 48.8914 60.5177 48.8629 60.3006C48.8345 60.0836 48.7209 59.8859 48.5471 59.7511L46.5815 58.2259L51.6164 51.7369L53.582 53.262C53.7558 53.3968 53.9755 53.4578 54.1928 53.4314C54.4101 53.4051 54.6072 53.2936 54.7407 53.1215C54.8742 52.9494 54.9333 52.7308 54.9048 52.5137C54.8764 52.2967 54.7628 52.099 54.589 51.9642L51.3129 49.4223C50.9256 49.1217 50.6349 48.7144 50.4773 48.2517C50.3197 47.789 50.3022 47.2914 50.4271 46.8214C50.5519 46.3514 50.8135 45.93 51.1791 45.6101C51.5446 45.2902 51.9977 45.0861 52.4816 45.0233C52.9654 44.9606 53.4584 45.042 53.8986 45.2575C54.3388 45.4729 54.7066 45.8127 54.9558 46.2341C55.205 46.6556 55.3245 47.14 55.2994 47.6264C55.2742 48.1128 55.1054 48.5797 54.8142 48.9683V48.9683Z" fill="black"/>
</g>
<g clip-path="url(#clip5_784_5171)">
<path d="M125.403 76.7348L126.779 77.8024C127.648 78.4766 128.746 78.7813 129.833 78.6495C130.919 78.5178 131.905 77.9603 132.573 77.0998L138.614 69.3129C139.282 68.4524 139.577 67.3593 139.435 66.2742C139.293 65.189 138.725 64.2006 137.856 63.5265L136.48 62.4589C136.899 61.6087 137.009 60.6376 136.791 59.7099C136.573 58.7823 136.042 57.9553 135.286 57.3689C134.53 56.7826 133.597 56.473 132.644 56.4926C131.692 56.5123 130.778 56.86 130.059 57.4767L127.373 55.3924C127.025 55.1227 126.586 55.0008 126.151 55.0535C125.716 55.1062 125.322 55.3292 125.055 55.6734L115.992 67.3538C115.725 67.698 115.607 68.1352 115.664 68.5693C115.721 69.0033 115.948 69.3987 116.296 69.6684L118.982 71.7527C118.563 72.6029 118.454 73.574 118.671 74.5016C118.889 75.4293 119.42 76.2563 120.176 76.8427C120.932 77.429 121.865 77.7386 122.818 77.7189C123.77 77.6993 124.684 77.3516 125.403 76.7348V76.7348ZM137.304 68.2961L131.262 76.083C130.86 76.597 130.269 76.9297 129.618 77.0087C128.967 77.0876 128.308 76.9065 127.786 76.5046L126.41 75.437C126.826 74.5866 126.934 73.6165 126.716 72.6901C126.498 71.7636 125.967 70.9374 125.214 70.3503L130.248 63.8613C131.004 64.4456 131.937 64.7541 132.888 64.7351C133.84 64.7161 134.752 64.3705 135.473 63.7567L136.849 64.8243C137.368 65.2304 137.707 65.8231 137.792 66.4734C137.877 67.1237 137.702 67.7788 137.304 68.2961V68.2961ZM120.705 72.1022L120.73 72.0697C120.864 71.8976 120.923 71.679 120.895 71.462C120.866 71.2449 120.753 71.0473 120.579 70.9124L117.303 68.3705L126.366 56.6902L129.642 59.2321C129.727 59.2986 129.825 59.3475 129.93 59.3762C130.034 59.4048 130.143 59.4125 130.25 59.3988C130.357 59.3851 130.46 59.3504 130.553 59.2966C130.646 59.2427 130.727 59.1709 130.792 59.0852L130.817 59.0528C131.121 58.6745 131.531 58.3953 131.995 58.2499C132.46 58.1046 132.958 58.0996 133.428 58.2357C133.898 58.3718 134.318 58.6429 134.637 59.015C134.955 59.387 135.157 59.8435 135.217 60.3272C135.278 60.811 135.194 61.3003 134.976 61.7341C134.758 62.1678 134.417 62.5265 133.993 62.7653C133.57 63.0041 133.085 63.1124 132.598 63.0764C132.111 63.0405 131.644 62.8621 131.255 62.5634L127.979 60.0215C127.806 59.8867 127.586 59.8258 127.369 59.8521C127.151 59.8785 126.954 59.99 126.821 60.1621C126.687 60.3342 126.628 60.5528 126.657 60.7698C126.685 60.9868 126.799 61.1845 126.972 61.3193L128.938 62.8445L123.903 69.3336L121.938 67.8084C121.764 67.6736 121.544 67.6127 121.327 67.639C121.109 67.6654 120.912 67.7769 120.779 67.949C120.645 68.1211 120.586 68.3397 120.615 68.5567C120.643 68.7737 120.757 68.9714 120.931 69.1062L124.207 71.6481C124.594 71.9488 124.885 72.356 125.042 72.8187C125.2 73.2815 125.217 73.7791 125.092 74.249C124.968 74.719 124.706 75.1404 124.34 75.4603C123.975 75.7802 123.522 75.9844 123.038 76.0471C122.554 76.1098 122.061 76.0284 121.621 75.813C121.181 75.5976 120.813 75.2578 120.564 74.8363C120.315 74.4148 120.195 73.9305 120.22 73.444C120.245 72.9576 120.414 72.4908 120.705 72.1022V72.1022Z" fill="black"/>
</g>
<g clip-path="url(#clip6_784_5171)">
<path d="M73.9562 13.9547L72.5803 12.8871C71.7114 12.213 70.6129 11.9083 69.5264 12.04C68.4399 12.1718 67.4545 12.7293 66.7868 13.5898L60.7449 21.3767C60.0772 22.2372 59.782 23.3302 59.9243 24.4154C60.0666 25.5006 60.6346 26.489 61.5035 27.1631L62.8794 28.2307C62.4607 29.0808 62.3508 30.052 62.5684 30.9796C62.7861 31.9073 63.3177 32.7343 64.0734 33.3207C64.8291 33.907 65.7623 34.2166 66.7149 34.1969C67.6676 34.1773 68.581 33.8296 69.3004 33.2128L71.9868 35.2972C72.3343 35.5669 72.7737 35.6887 73.2083 35.636C73.6429 35.5833 74.0371 35.3603 74.3042 35.0161L83.3671 23.3358C83.6341 22.9916 83.7522 22.5544 83.6953 22.1203C83.6384 21.6862 83.4112 21.2909 83.0636 21.0212L80.3773 18.9369C80.796 18.0867 80.9058 17.1156 80.6882 16.1879C80.4706 15.2603 79.9389 14.4333 79.1832 13.8469C78.4276 13.2606 77.4944 12.951 76.5417 12.9706C75.5891 12.9903 74.6757 13.338 73.9562 13.9547V13.9547ZM62.0553 22.3934L68.0972 14.6065C68.4995 14.0926 69.0905 13.7599 69.7416 13.6809C70.3926 13.6019 71.051 13.7831 71.5733 14.1849L72.9493 15.2525C72.5336 16.103 72.4257 17.0731 72.6436 17.9995C72.8616 18.9259 73.392 19.7522 74.1458 20.3392L69.1109 26.8283C68.355 26.244 67.4229 25.9354 66.4713 25.9545C65.5198 25.9735 64.6069 26.319 63.8864 26.9329L62.5105 25.8653C61.9915 25.4592 61.6524 24.8664 61.5672 24.2162C61.4819 23.5659 61.6574 22.9107 62.0553 22.3934V22.3934ZM78.6541 18.5874L78.6289 18.6198C78.4954 18.7919 78.4363 19.0106 78.4648 19.2276C78.4932 19.4446 78.6068 19.6423 78.7806 19.7771L82.0566 22.319L72.9938 33.9994L69.7177 31.4575C69.6321 31.391 69.5342 31.342 69.4298 31.3134C69.3254 31.2848 69.2165 31.2771 69.1095 31.2908C69.0024 31.3044 68.8994 31.3392 68.8063 31.393C68.7132 31.4469 68.632 31.5187 68.5672 31.6044L68.5421 31.6368C68.2383 32.015 67.8284 32.2943 67.364 32.4397C66.8996 32.585 66.4012 32.59 65.9313 32.4539C65.4614 32.3178 65.041 32.0467 64.7227 31.6746C64.4044 31.3025 64.2024 30.846 64.142 30.3623C64.0816 29.8786 64.1656 29.3892 64.3833 28.9555C64.601 28.5218 64.9429 28.163 65.366 27.9242C65.789 27.6854 66.2745 27.5772 66.7616 27.6131C67.2487 27.6491 67.7156 27.8275 68.1039 28.1261L71.3799 30.668C71.5537 30.8029 71.7734 30.8638 71.9907 30.8375C72.208 30.8111 72.4051 30.6996 72.5386 30.5275C72.6722 30.3554 72.7312 30.1368 72.7028 29.9198C72.6743 29.7027 72.5607 29.5051 72.3869 29.3702L70.4213 27.8451L75.4562 21.356L77.4218 22.8811C77.5956 23.016 77.8153 23.0769 78.0326 23.0506C78.2499 23.0242 78.447 22.9127 78.5805 22.7406C78.7141 22.5685 78.7731 22.3499 78.7447 22.1329C78.7162 21.9158 78.6026 21.7182 78.4288 21.5833L75.1528 19.0414C74.7655 18.7408 74.4748 18.3336 74.3171 17.8708C74.1595 17.4081 74.1421 16.9105 74.2669 16.4405C74.3918 15.9706 74.6534 15.5492 75.0189 15.2293C75.3844 14.9094 75.8376 14.7052 76.3214 14.6425C76.8052 14.5797 77.2982 14.6612 77.7384 14.8766C78.1786 15.092 78.5464 15.4318 78.7956 15.8533C79.0449 16.2747 79.1644 16.7591 79.1392 17.2455C79.114 17.732 78.9452 18.1988 78.6541 18.5874V18.5874Z" fill="black"/>
</g>
<path d="M74.8838 90.6277C72.9104 90.6277 70.9771 90.3477 69.0838 89.7877C67.2171 89.201 65.6438 88.401 64.3638 87.3877L66.5638 83.3477C67.5771 84.1743 68.8038 84.841 70.2438 85.3477C71.7104 85.8543 73.2304 86.1077 74.8038 86.1077C76.6438 86.1077 78.0838 85.721 79.1238 84.9477C80.1904 84.1743 80.7238 83.1343 80.7238 81.8277C80.7238 80.9477 80.4971 80.1743 80.0438 79.5077C79.6171 78.841 78.8438 78.3343 77.7238 77.9877C76.6304 77.641 75.1238 77.4677 73.2038 77.4677H66.4438L67.8838 62.2277H84.3238V66.5877H69.8038L72.5238 64.1077L71.4438 75.5077L68.7238 73.0677H74.3638C77.1371 73.0677 79.3638 73.441 81.0438 74.1877C82.7504 74.9077 83.9904 75.921 84.7638 77.2277C85.5638 78.5077 85.9638 79.9743 85.9638 81.6277C85.9638 83.2543 85.5638 84.7477 84.7638 86.1077C83.9638 87.4677 82.7371 88.561 81.0838 89.3877C79.4571 90.2143 77.3904 90.6277 74.8838 90.6277Z" fill="black"/>
</g>
<defs>
<clipPath id="clip0_784_5171">
<rect width="150" height="150" fill="white"/>
</clipPath>
<clipPath id="clip1_784_5171">
<rect width="26.2826" height="26.5378" fill="white" transform="translate(98.5938 125.62) rotate(127.808)"/>
</clipPath>
<clipPath id="clip2_784_5171">
<rect width="26.2826" height="26.5378" fill="white" transform="translate(5.41406 86.5951) rotate(-52.1919)"/>
</clipPath>
<clipPath id="clip3_784_5171">
<rect width="26.2826" height="26.5378" fill="white" transform="translate(122.434 95.2399) rotate(127.808)"/>
</clipPath>
<clipPath id="clip4_784_5171">
<rect width="26.2826" height="26.5378" fill="white" transform="translate(29.25 56.2131) rotate(-52.1919)"/>
</clipPath>
<clipPath id="clip5_784_5171">
<rect width="26.2826" height="26.5378" fill="white" transform="translate(146.27 64.8573) rotate(127.808)"/>
</clipPath>
<clipPath id="clip6_784_5171">
<rect width="26.2826" height="26.5378" fill="white" transform="translate(53.0898 25.8323) rotate(-52.1919)"/>
</clipPath>
</defs>
</svg>
