<svg width="150" height="150" viewBox="0 0 150 150" fill="none" xmlns="http://www.w3.org/2000/svg">
<g clip-path="url(#clip0_784_5167)">
<rect x="114.305" y="114.84" width="39.3001" height="114.693" rx="4.5" transform="rotate(150 114.305 114.84)" fill="#FFDF7F" stroke="black"/>
<g clip-path="url(#clip1_784_5167)">
<path d="M132.912 96.5885L134.42 95.7177C135.373 95.1678 136.07 94.2658 136.358 93.21C136.647 92.1542 136.503 91.0312 135.958 90.088L131.03 81.5524C130.486 80.6092 129.585 79.923 128.526 79.6449C127.468 79.3667 126.338 79.5194 125.386 80.0692L123.878 80.94C123.249 80.2312 122.391 79.7627 121.45 79.6138C120.509 79.4649 119.542 79.6448 118.714 80.1231C117.885 80.6013 117.246 81.3484 116.905 82.2379C116.563 83.1274 116.54 84.1045 116.839 85.0036L113.895 86.7037C113.514 86.9236 113.235 87.2844 113.119 87.7067C113.004 88.1291 113.062 88.5783 113.279 88.9556L120.671 101.759C120.889 102.136 121.25 102.411 121.673 102.522C122.096 102.633 122.548 102.572 122.929 102.352L125.874 100.652C126.503 101.361 127.361 101.829 128.302 101.978C129.243 102.127 130.209 101.947 131.038 101.469C131.866 100.991 132.505 100.244 132.847 99.3542C133.188 98.4647 133.212 97.4876 132.912 96.5885V96.5885ZM129.594 82.3817L134.522 90.9173C134.846 91.4839 134.93 92.1568 134.758 92.7894C134.585 93.4221 134.168 93.9633 133.599 94.2951L132.091 95.1659C131.46 94.4598 130.603 93.9935 129.663 93.8454C128.723 93.6972 127.757 93.8763 126.929 94.3525L122.822 87.2396C123.649 86.7604 124.287 86.0138 124.628 85.1256C124.97 84.2374 124.995 83.2616 124.699 82.3626L126.207 81.4918C126.779 81.1647 127.456 81.0746 128.09 81.2413C128.725 81.408 129.265 81.8179 129.594 82.3817V82.3817ZM126.848 99.1885L126.828 99.1529C126.719 98.9643 126.539 98.8271 126.327 98.7714C126.115 98.7158 125.889 98.7463 125.699 98.8563L122.108 100.93L114.716 88.1263L118.307 86.053C118.401 85.9988 118.483 85.9267 118.549 85.8408C118.615 85.7549 118.663 85.657 118.691 85.5527C118.719 85.4485 118.726 85.3399 118.711 85.2334C118.696 85.1269 118.66 85.0245 118.605 84.9322L118.585 84.8967C118.349 84.4725 118.246 83.9876 118.286 83.5026C118.327 83.0177 118.511 82.5543 118.814 82.1707C119.118 81.787 119.528 81.5001 119.993 81.3459C120.457 81.1917 120.956 81.1771 121.427 81.3039C121.898 81.4307 122.319 81.6933 122.638 82.0587C122.958 82.4241 123.161 82.8762 123.222 83.3581C123.283 83.84 123.2 84.3305 122.983 84.7679C122.766 85.2053 122.424 85.5702 122.001 85.817L118.41 87.8902C118.22 88.0002 118.08 88.1806 118.022 88.3918C117.965 88.6029 117.994 88.8275 118.102 89.0162C118.211 89.2048 118.392 89.3421 118.603 89.3977C118.815 89.4533 119.041 89.4228 119.231 89.3128L121.386 88.0689L125.493 95.1818L123.338 96.4258C123.148 96.5357 123.008 96.7162 122.95 96.9273C122.893 97.1385 122.922 97.3631 123.03 97.5517C123.139 97.7404 123.32 97.8776 123.531 97.9332C123.743 97.9889 123.969 97.9583 124.159 97.8484L127.75 95.7751C128.175 95.53 128.662 95.4146 129.15 95.4435C129.638 95.4723 130.105 95.6441 130.493 95.9372C130.881 96.2303 131.173 96.6317 131.331 97.091C131.489 97.5503 131.507 98.047 131.382 98.5187C131.257 98.9904 130.996 99.4161 130.63 99.7423C130.264 100.069 129.811 100.281 129.326 100.352C128.842 100.424 128.348 100.352 127.907 100.145C127.467 99.9375 127.098 99.6049 126.848 99.1885V99.1885Z" fill="black"/>
</g>
<g clip-path="url(#clip2_784_5167)">
<path d="M55.3534 120.508L53.8452 121.378C52.8928 121.928 52.1958 122.83 51.9074 123.886C51.619 124.942 51.763 126.065 52.3076 127.008L57.2355 135.544C57.7801 136.487 58.6807 137.173 59.7392 137.451C60.7978 137.729 61.9275 137.577 62.8799 137.027L64.3881 136.156C65.0171 136.865 65.8748 137.333 66.8159 137.482C67.757 137.631 68.7237 137.451 69.552 136.973C70.3803 136.495 71.0195 135.748 71.3611 134.858C71.7027 133.969 71.7258 132.992 71.4265 132.092L74.3711 130.392C74.752 130.172 75.0309 129.812 75.1462 129.389C75.2615 128.967 75.204 128.518 74.9861 128.141L67.5942 115.337C67.3763 114.96 67.0161 114.685 66.5927 114.574C66.1693 114.463 65.7174 114.524 65.3364 114.744L62.3918 116.444C61.7628 115.735 60.9051 115.267 59.964 115.118C59.0229 114.969 58.0562 115.149 57.2279 115.627C56.3996 116.105 55.7604 116.852 55.4188 117.742C55.0772 118.631 55.0541 119.608 55.3534 120.508V120.508ZM58.6719 134.714L53.744 126.179C53.42 125.612 53.3352 124.939 53.508 124.307C53.6808 123.674 54.0972 123.133 54.6666 122.801L56.1748 121.93C56.8052 122.636 57.6627 123.103 58.6028 123.251C59.5429 123.399 60.5084 123.22 61.3366 122.744L65.4433 129.857C64.6168 130.336 63.9789 131.082 63.6372 131.97C63.2954 132.859 63.2705 133.834 63.5668 134.733L62.0585 135.604C61.4865 135.931 60.8096 136.021 60.1753 135.855C59.541 135.688 59.0006 135.278 58.6719 134.714V134.714ZM61.4174 117.908L61.4379 117.943C61.5468 118.132 61.7269 118.269 61.9386 118.325C62.1503 118.38 62.3763 118.35 62.5668 118.24L66.1578 116.167L73.5497 128.97L69.9587 131.043C69.8648 131.097 69.7825 131.169 69.7166 131.255C69.6507 131.341 69.6024 131.439 69.5746 131.543C69.5469 131.648 69.5401 131.756 69.5548 131.863C69.5695 131.969 69.6053 132.072 69.6602 132.164L69.6807 132.199C69.9162 132.624 70.02 133.109 69.9791 133.593C69.9383 134.078 69.7546 134.542 69.4511 134.925C69.1476 135.309 68.7378 135.596 68.2731 135.75C67.8084 135.904 67.3094 135.919 66.8387 135.792C66.368 135.665 65.9466 135.403 65.6272 135.037C65.3079 134.672 65.1048 134.22 65.0435 133.738C64.9822 133.256 65.0654 132.766 65.2826 132.328C65.4998 131.891 65.8414 131.526 66.2646 131.279L69.8556 129.206C70.0461 129.096 70.1855 128.915 70.2432 128.704C70.3008 128.493 70.2721 128.269 70.1631 128.08C70.0542 127.891 69.8741 127.754 69.6624 127.698C69.4507 127.643 69.2248 127.673 69.0343 127.783L66.8797 129.027L62.773 121.914L64.9276 120.67C65.1181 120.56 65.2575 120.38 65.3152 120.169C65.3729 119.958 65.3441 119.733 65.2352 119.544C65.1262 119.356 64.9461 119.218 64.7344 119.163C64.5227 119.107 64.2968 119.138 64.1063 119.248L60.5153 121.321C60.0907 121.566 59.6038 121.681 59.1158 121.653C58.6278 121.624 58.1605 121.452 57.7724 121.159C57.3844 120.866 57.0931 120.464 56.9349 120.005C56.7768 119.546 56.7589 119.049 56.8836 118.577C57.0082 118.106 57.2699 117.68 57.6356 117.354C58.0013 117.028 58.4549 116.815 58.9392 116.744C59.4236 116.672 59.9172 116.744 60.3581 116.952C60.799 117.159 61.1675 117.491 61.4174 117.908V117.908Z" fill="black"/>
</g>
<g clip-path="url(#clip3_784_5167)">
<path d="M113.787 63.0417L115.295 62.1709C116.248 61.6211 116.945 60.719 117.233 59.6633C117.522 58.6075 117.378 57.4844 116.833 56.5412L111.905 48.0057C111.361 47.0624 110.46 46.3763 109.401 46.0981C108.343 45.82 107.213 45.9726 106.261 46.5225L104.753 47.3932C104.124 46.6844 103.266 46.2159 102.325 46.067C101.384 45.9181 100.417 46.0981 99.5886 46.5763C98.7603 47.0545 98.1212 47.8017 97.7796 48.6912C97.4379 49.5806 97.4148 50.5577 97.7142 51.4568L94.7696 53.1569C94.3886 53.3769 94.1098 53.7377 93.9944 54.16C93.8791 54.5823 93.9367 55.0315 94.1545 55.4088L101.546 68.2121C101.764 68.5894 102.125 68.8639 102.548 68.9751C102.971 69.0864 103.423 69.0253 103.804 68.8054L106.749 67.1053C107.378 67.8141 108.236 68.2827 109.177 68.4315C110.118 68.5804 111.084 68.4005 111.913 67.9223C112.741 67.444 113.38 66.6969 113.722 65.8074C114.063 64.9179 114.087 63.9409 113.787 63.0417V63.0417ZM110.469 48.835L115.397 57.3705C115.721 57.9371 115.805 58.61 115.633 59.2427C115.46 59.8753 115.043 60.4165 114.474 60.7484L112.966 61.6191C112.335 60.9131 111.478 60.4467 110.538 60.2986C109.598 60.1505 108.632 60.3296 107.804 60.8058L103.697 53.6928C104.524 53.2136 105.162 52.4671 105.503 51.5788C105.845 50.6906 105.87 49.7149 105.574 48.8158L107.082 47.9451C107.654 47.6179 108.331 47.5279 108.965 47.6945C109.6 47.8612 110.14 48.2711 110.469 48.835V48.835ZM107.723 65.6417L107.703 65.6062C107.594 65.4175 107.414 65.2803 107.202 65.2247C106.99 65.169 106.764 65.1996 106.574 65.3095L102.983 67.3828L95.5909 54.5795L99.1819 52.5062C99.2758 52.452 99.3581 52.3799 99.424 52.294C99.49 52.2082 99.5382 52.1103 99.566 52.006C99.5938 51.9017 99.6005 51.7932 99.5858 51.6867C99.5711 51.5802 99.5353 51.4778 99.4804 51.3855L99.4599 51.3499C99.2244 50.9258 99.1206 50.4408 99.1615 49.9559C99.2023 49.4709 99.386 49.0076 99.6895 48.6239C99.993 48.2403 100.403 47.9534 100.868 47.7992C101.332 47.645 101.831 47.6304 102.302 47.7572C102.773 47.884 103.194 48.1465 103.513 48.512C103.833 48.8774 104.036 49.3294 104.097 49.8113C104.158 50.2933 104.075 50.7837 103.858 51.2211C103.641 51.6585 103.299 52.0235 102.876 52.2702L99.285 54.3435C99.0945 54.4535 98.9551 54.6339 98.8975 54.845C98.8398 55.0562 98.8686 55.2808 98.9775 55.4694C99.0864 55.6581 99.2665 55.7953 99.4782 55.8509C99.6899 55.9066 99.9159 55.876 100.106 55.7661L102.261 54.5221L106.368 61.6351L104.213 62.879C104.023 62.989 103.883 63.1694 103.825 63.3806C103.768 63.5917 103.797 63.8163 103.905 64.005C104.014 64.1936 104.195 64.3308 104.406 64.3865C104.618 64.4421 104.844 64.4116 105.034 64.3016L108.625 62.2283C109.05 61.9833 109.537 61.8679 110.025 61.8967C110.513 61.9256 110.98 62.0973 111.368 62.3905C111.756 62.6836 112.048 63.085 112.206 63.5443C112.364 64.0035 112.382 64.5002 112.257 64.9719C112.132 65.4436 111.871 65.8693 111.505 66.1955C111.139 66.5218 110.686 66.734 110.201 66.8056C109.717 66.8771 109.223 66.8048 108.782 66.5978C108.342 66.3907 107.973 66.0581 107.723 65.6417V65.6417Z" fill="black"/>
</g>
<g clip-path="url(#clip4_784_5167)">
<path d="M36.2206 86.9626L34.7124 87.8333C33.76 88.3832 33.063 89.2852 32.7746 90.341C32.4862 91.3968 32.6302 92.5198 33.1747 93.4631L38.1027 101.999C38.6473 102.942 39.5479 103.628 40.6064 103.906C41.6649 104.184 42.7947 104.032 43.7471 103.482L45.2553 102.611C45.8843 103.32 46.742 103.788 47.6831 103.937C48.6242 104.086 49.5908 103.906 50.4192 103.428C51.2475 102.95 51.8866 102.203 52.2283 101.313C52.5699 100.424 52.593 99.4466 52.2936 98.5474L55.2383 96.8474C55.6192 96.6274 55.898 96.2666 56.0134 95.8443C56.1287 95.422 56.0712 94.9728 55.8533 94.5955L48.4613 81.7922C48.2435 81.4149 47.8833 81.1404 47.4599 81.0291C47.0365 80.9179 46.5846 80.9789 46.2036 81.1989L43.259 82.899C42.63 82.1902 41.7723 81.7216 40.8311 81.5727C39.89 81.4238 38.9234 81.6038 38.0951 82.082C37.2667 82.5603 36.6276 83.3074 36.286 84.1969C35.9444 85.0863 35.9213 86.0634 36.2206 86.9626V86.9626ZM39.5391 101.169L34.6111 92.6338C34.2872 92.0672 34.2024 91.3943 34.3752 90.7616C34.548 90.1289 34.9644 89.5878 35.5337 89.2559L37.042 88.3851C37.6724 89.0912 38.5299 89.5575 39.47 89.7057C40.4101 89.8538 41.3755 89.6747 42.2038 89.1985L46.3105 96.3115C45.4839 96.7907 44.8461 97.5372 44.5044 98.4254C44.1626 99.3137 44.1377 100.289 44.4339 101.188L42.9257 102.059C42.3537 102.386 41.6768 102.476 41.0425 102.31C40.4082 102.143 39.8678 101.733 39.5391 101.169V101.169ZM42.2845 84.3625L42.3051 84.3981C42.414 84.5867 42.5941 84.724 42.8058 84.7796C43.0175 84.8352 43.2435 84.8047 43.4339 84.6947L47.0249 82.6215L54.4169 95.4248L50.8259 97.498C50.732 97.5522 50.6497 97.6244 50.5838 97.7102C50.5178 97.7961 50.4696 97.894 50.4418 97.9983C50.414 98.1025 50.4073 98.2111 50.422 98.3176C50.4367 98.4241 50.4725 98.5265 50.5274 98.6188L50.5479 98.6544C50.7834 99.0785 50.8872 99.5635 50.8463 100.048C50.8055 100.533 50.6218 100.997 50.3183 101.38C50.0148 101.764 49.605 102.051 49.1403 102.205C48.6755 102.359 48.1766 102.374 47.7059 102.247C47.2352 102.12 46.8138 101.858 46.4944 101.492C46.1751 101.127 45.972 100.675 45.9107 100.193C45.8494 99.711 45.9326 99.2206 46.1498 98.7831C46.367 98.3457 46.7086 97.9808 47.1318 97.7341L50.7228 95.6608C50.9133 95.5508 51.0527 95.3704 51.1104 95.1592C51.168 94.9481 51.1392 94.7235 51.0303 94.5348C50.9214 94.3462 50.7413 94.209 50.5296 94.1533C50.3179 94.0977 50.0919 94.1282 49.9015 94.2382L47.7469 95.4822L43.6402 88.3692L45.7948 87.1253C45.9853 87.0153 46.1247 86.8349 46.1824 86.6237C46.24 86.4126 46.2113 86.188 46.1023 85.9993C45.9934 85.8107 45.8133 85.6734 45.6016 85.6178C45.3899 85.5622 45.164 85.5927 44.9735 85.7027L41.3825 87.7759C40.9578 88.021 40.471 88.1364 39.983 88.1075C39.495 88.0787 39.0276 87.9069 38.6396 87.6138C38.2516 87.3207 37.9603 86.9193 37.8021 86.46C37.644 86.0007 37.6261 85.5041 37.7508 85.0324C37.8754 84.5607 38.1371 84.135 38.5028 83.8087C38.8685 83.4825 39.322 83.2703 39.8064 83.1987C40.2908 83.1272 40.7844 83.1994 41.2253 83.4065C41.6662 83.6136 42.0347 83.9462 42.2845 84.3625V84.3625Z" fill="black"/>
</g>
<g clip-path="url(#clip5_784_5167)">
<path d="M94.6544 29.4968L96.1626 28.626C97.115 28.0762 97.812 27.1741 98.1004 26.1183C98.3888 25.0626 98.2448 23.9395 97.7003 22.9963L92.7723 14.4608C92.2277 13.5175 91.3271 12.8314 90.2686 12.5532C89.2101 12.275 88.0803 12.4277 87.1279 12.9775L85.6197 13.8483C84.9907 13.1395 84.133 12.671 83.1919 12.5221C82.2508 12.3732 81.2842 12.5531 80.4558 13.0314C79.6275 13.5096 78.9884 14.2568 78.6467 15.1462C78.3051 16.0357 78.282 17.0128 78.5814 17.9119L75.6367 19.612C75.2558 19.8319 74.977 20.1928 74.8616 20.6151C74.7463 21.0374 74.8038 21.4866 75.0217 21.8639L82.4137 34.6672C82.6315 35.0445 82.9917 35.319 83.4151 35.4302C83.8385 35.5415 84.2904 35.4804 84.6714 35.2605L87.616 33.5604C88.245 34.2692 89.1027 34.7377 90.0439 34.8866C90.985 35.0355 91.9516 34.8556 92.7799 34.3773C93.6083 33.8991 94.2474 33.1519 94.589 32.2625C94.9306 31.373 94.9537 30.3959 94.6544 29.4968V29.4968ZM91.3359 15.2901L96.2639 23.8256C96.5878 24.3922 96.6726 25.0651 96.4998 25.6977C96.327 26.3304 95.9106 26.8716 95.3413 27.2034L93.833 28.0742C93.2026 27.3682 92.3451 26.9018 91.405 26.7537C90.4649 26.6055 89.4995 26.7846 88.6712 27.2608L84.5645 20.1479C85.3911 19.6687 86.0289 18.9222 86.3706 18.0339C86.7124 17.1457 86.7373 16.1699 86.4411 15.2709L87.9493 14.4001C88.5213 14.073 89.1982 13.9829 89.8325 14.1496C90.4668 14.3163 91.0072 14.7262 91.3359 15.2901V15.2901ZM88.5905 32.0968L88.5699 32.0613C88.461 31.8726 88.2809 31.7354 88.0692 31.6797C87.8575 31.6241 87.6315 31.6546 87.4411 31.7646L83.8501 33.8379L76.4581 21.0346L80.0491 18.9613C80.143 18.9071 80.2253 18.835 80.2912 18.7491C80.3572 18.6632 80.4054 18.5653 80.4332 18.4611C80.461 18.3568 80.4677 18.2483 80.453 18.1418C80.4383 18.0352 80.4025 17.9329 80.3476 17.8406L80.3271 17.805C80.0916 17.3808 79.9878 16.8959 80.0287 16.411C80.0695 15.926 80.2532 15.4627 80.5567 15.079C80.8602 14.6953 81.27 14.4084 81.7347 14.2542C82.1995 14.1 82.6984 14.0854 83.1691 14.2122C83.6398 14.339 84.0612 14.6016 84.3806 14.967C84.6999 15.3325 84.903 15.7845 84.9643 16.2664C85.0256 16.7484 84.9424 17.2388 84.7252 17.6762C84.508 18.1136 84.1664 18.4786 83.7432 18.7253L80.1522 20.7986C79.9617 20.9085 79.8223 21.0889 79.7646 21.3001C79.707 21.5113 79.7358 21.7359 79.8447 21.9245C79.9536 22.1132 80.1337 22.2504 80.3454 22.306C80.5571 22.3617 80.7831 22.3311 80.9735 22.2212L83.1281 20.9772L87.2348 28.0901L85.0802 29.3341C84.8897 29.4441 84.7503 29.6245 84.6926 29.8356C84.635 30.0468 84.6637 30.2714 84.7727 30.46C84.8816 30.6487 85.0617 30.7859 85.2734 30.8416C85.4851 30.8972 85.711 30.8667 85.9015 30.7567L89.4925 28.6834C89.9172 28.4383 90.404 28.323 90.892 28.3518C91.38 28.3807 91.8474 28.5524 92.2354 28.8455C92.6234 29.1387 92.9147 29.5401 93.0729 29.9993C93.231 30.4586 93.2489 30.9553 93.1242 31.427C92.9996 31.8987 92.7379 32.3244 92.3722 32.6506C92.0065 32.9768 91.553 33.1891 91.0686 33.2606C90.5842 33.3322 90.0906 33.2599 89.6497 33.0529C89.2088 32.8458 88.8403 32.5132 88.5905 32.0968V32.0968Z" fill="black"/>
</g>
<g clip-path="url(#clip6_784_5167)">
<path d="M17.0956 53.4149L15.5874 54.2857C14.635 54.8356 13.938 55.7376 13.6496 56.7934C13.3612 57.8492 13.5052 58.9722 14.0497 59.9155L18.9777 68.451C19.5223 69.3942 20.4229 70.0804 21.4814 70.3585C22.5399 70.6367 23.6697 70.4841 24.6221 69.9342L26.1303 69.0634C26.7593 69.7722 27.617 70.2408 28.5581 70.3896C29.4992 70.5385 30.4658 70.3586 31.2942 69.8804C32.1225 69.4021 32.7616 68.655 33.1033 67.7655C33.4449 66.876 33.468 65.899 33.1686 64.9998L36.1133 63.2997C36.4942 63.0798 36.773 62.719 36.8884 62.2967C37.0037 61.8744 36.9462 61.4251 36.7283 61.0479L29.3363 48.2446C29.1185 47.8673 28.7583 47.5928 28.3349 47.4815C27.9115 47.3703 27.4596 47.4313 27.0786 47.6513L24.134 49.3513C23.505 48.6425 22.6473 48.174 21.7061 48.0251C20.765 47.8762 19.7984 48.0562 18.9701 48.5344C18.1417 49.0126 17.5026 49.7598 17.161 50.6493C16.8194 51.5387 16.7963 52.5158 17.0956 53.4149V53.4149ZM20.4141 67.6217L15.4861 59.0861C15.1622 58.5196 15.0774 57.8467 15.2502 57.214C15.423 56.5813 15.8394 56.0401 16.4087 55.7083L17.917 54.8375C18.5474 55.5436 19.4049 56.0099 20.345 56.1581C21.2851 56.3062 22.2505 56.1271 23.0788 55.6509L27.1855 62.7639C26.3589 63.243 25.7211 63.9896 25.3794 64.8778C25.0376 65.7661 25.0127 66.7418 25.3089 67.6408L23.8007 68.5116C23.2287 68.8388 22.5518 68.9288 21.9175 68.7621C21.2832 68.5954 20.7428 68.1855 20.4141 67.6217V67.6217ZM23.1595 50.8149L23.1801 50.8505C23.289 51.0391 23.4691 51.1764 23.6808 51.232C23.8925 51.2876 24.1185 51.2571 24.3089 51.1471L27.8999 49.0739L35.2919 61.8772L31.7009 63.9504C31.607 64.0046 31.5247 64.0768 31.4588 64.1626C31.3928 64.2485 31.3446 64.3464 31.3168 64.4507C31.289 64.5549 31.2823 64.6635 31.297 64.77C31.3117 64.8765 31.3475 64.9789 31.4024 65.0712L31.4229 65.1068C31.6584 65.5309 31.7622 66.0159 31.7213 66.5008C31.6805 66.9857 31.4968 67.4491 31.1933 67.8327C30.8898 68.2164 30.48 68.5033 30.0153 68.6575C29.5505 68.8117 29.0516 68.8263 28.5809 68.6995C28.1102 68.5727 27.6888 68.3101 27.3694 67.9447C27.0501 67.5793 26.847 67.1273 26.7857 66.6453C26.7244 66.1634 26.8076 65.673 27.0248 65.2355C27.242 64.7981 27.5836 64.4332 28.0068 64.1864L31.5978 62.1132C31.7883 62.0032 31.9277 61.8228 31.9854 61.6116C32.043 61.4005 32.0142 61.1759 31.9053 60.9872C31.7964 60.7986 31.6163 60.6614 31.4046 60.6057C31.1929 60.5501 30.9669 60.5806 30.7765 60.6906L28.6219 61.9346L24.5152 54.8216L26.6698 53.5776C26.8603 53.4677 26.9997 53.2873 27.0574 53.0761C27.115 52.865 27.0863 52.6403 26.9773 52.4517C26.8684 52.2631 26.6883 52.1258 26.4766 52.0702C26.2649 52.0146 26.039 52.0451 25.8485 52.1551L22.2575 54.2283C21.8328 54.4734 21.346 54.5888 20.858 54.5599C20.37 54.5311 19.9026 54.3593 19.5146 54.0662C19.1266 53.7731 18.8353 53.3717 18.6771 52.9124C18.519 52.4531 18.5011 51.9565 18.6258 51.4848C18.7504 51.0131 19.0121 50.5874 19.3778 50.2611C19.7435 49.9349 20.197 49.7227 20.6814 49.6511C21.1658 49.5795 21.6594 49.6518 22.1003 49.8589C22.5412 50.0659 22.9097 50.3985 23.1595 50.8149V50.8149Z" fill="black"/>
</g>
<path d="M73.24 89.5V63.5L75.52 65.86H67.32V61.5H78.44V89.5H73.24Z" fill="black"/>
</g>
<defs>
<clipPath id="clip0_784_5167">
<rect width="150" height="150" fill="white"/>
</clipPath>
<clipPath id="clip1_784_5167">
<rect width="26.2826" height="26.5378" fill="white" transform="translate(129.797 72.7809) rotate(60)"/>
</clipPath>
<clipPath id="clip2_784_5167">
<rect width="26.2826" height="26.5378" fill="white" transform="translate(58.4688 144.315) rotate(-120)"/>
</clipPath>
<clipPath id="clip3_784_5167">
<rect width="26.2826" height="26.5378" fill="white" transform="translate(110.672 39.2341) rotate(60)"/>
</clipPath>
<clipPath id="clip4_784_5167">
<rect width="26.2826" height="26.5378" fill="white" transform="translate(39.3359 110.77) rotate(-120)"/>
</clipPath>
<clipPath id="clip5_784_5167">
<rect width="26.2826" height="26.5378" fill="white" transform="translate(91.5391 5.68921) rotate(60)"/>
</clipPath>
<clipPath id="clip6_784_5167">
<rect width="26.2826" height="26.5378" fill="white" transform="translate(20.2109 77.2225) rotate(-120)"/>
</clipPath>
</defs>
</svg>
