<svg width="150" height="150" viewBox="0 0 150 150" fill="none" xmlns="http://www.w3.org/2000/svg">
<rect x="96.7188" y="132.347" width="39.3001" height="114.693" rx="4.5" transform="rotate(-180 96.7188 132.347)" fill="#FFDF7F" stroke="black"/>
<path d="M114.354 122.647L116.096 122.647C117.195 122.647 118.25 122.215 119.028 121.445C119.805 120.674 120.242 119.63 120.242 118.541L120.242 108.685C120.242 107.596 119.805 106.551 119.028 105.781C118.25 105.011 117.195 104.578 116.096 104.578L114.354 104.578C114.164 103.65 113.655 102.815 112.915 102.216C112.174 101.616 111.247 101.289 110.291 101.289C109.334 101.289 108.407 101.616 107.666 102.216C106.926 102.815 106.417 103.65 106.227 104.578L102.827 104.578C102.387 104.578 101.965 104.751 101.654 105.059C101.343 105.367 101.168 105.785 101.168 106.221L101.168 121.005C101.168 121.44 101.343 121.858 101.654 122.166C101.965 122.474 102.387 122.647 102.827 122.647L106.227 122.647C106.417 123.576 106.926 124.41 107.666 125.01C108.407 125.609 109.334 125.937 110.291 125.937C111.247 125.937 112.174 125.609 112.915 125.01C113.655 124.41 114.164 123.576 114.354 122.647V122.647ZM118.584 108.685L118.584 118.541C118.581 119.193 118.318 119.819 117.852 120.28C117.386 120.742 116.755 121.002 116.096 121.005L114.354 121.005C114.161 120.078 113.652 119.246 112.912 118.647C112.172 118.049 111.246 117.721 110.291 117.719L110.291 109.506C111.246 109.504 112.172 109.177 112.912 108.578C113.652 107.98 114.161 107.148 114.354 106.221L116.096 106.221C116.755 106.224 117.386 106.484 117.852 106.945C118.318 107.407 118.581 108.032 118.584 108.685V108.685ZM107.803 121.867L107.803 121.826C107.803 121.608 107.715 121.399 107.56 121.245C107.404 121.091 107.193 121.005 106.973 121.005L102.827 121.005L102.827 106.221L106.973 106.221C107.082 106.221 107.189 106.199 107.289 106.158C107.389 106.117 107.48 106.056 107.556 105.98C107.632 105.903 107.692 105.813 107.733 105.713C107.773 105.613 107.794 105.507 107.792 105.399L107.792 105.358C107.8 104.873 107.953 104.401 108.231 104.002C108.509 103.602 108.899 103.293 109.354 103.112C109.809 102.932 110.307 102.888 110.787 102.987C111.266 103.086 111.706 103.323 112.05 103.668C112.394 104.013 112.628 104.451 112.722 104.927C112.815 105.404 112.765 105.897 112.577 106.345C112.39 106.793 112.072 107.176 111.665 107.446C111.259 107.716 110.78 107.861 110.291 107.863L106.144 107.863C105.924 107.863 105.713 107.95 105.558 108.104C105.402 108.258 105.315 108.467 105.315 108.685C105.315 108.903 105.402 109.112 105.558 109.266C105.713 109.42 105.924 109.506 106.144 109.506L108.632 109.506L108.632 117.719L106.144 117.719C105.924 117.719 105.713 117.806 105.558 117.96C105.402 118.114 105.315 118.323 105.315 118.541C105.315 118.759 105.402 118.968 105.558 119.122C105.713 119.276 105.924 119.362 106.144 119.362L110.291 119.362C110.781 119.362 111.26 119.506 111.668 119.775C112.077 120.044 112.395 120.426 112.585 120.874C112.774 121.322 112.826 121.815 112.733 122.292C112.641 122.769 112.408 123.208 112.064 123.554C111.72 123.9 111.281 124.138 110.801 124.238C110.321 124.337 109.822 124.294 109.367 124.114C108.912 123.934 108.52 123.624 108.242 123.225C107.964 122.825 107.811 122.353 107.803 121.867V121.867Z" fill="black"/>
<path d="M35.224 104.582L33.4825 104.582C32.3827 104.582 31.3281 105.014 30.5504 105.784C29.7728 106.555 29.3359 107.599 29.3359 108.688L29.3359 118.544C29.3359 119.633 29.7728 120.678 30.5504 121.448C31.3281 122.218 32.3827 122.651 33.4825 122.651L35.224 122.651C35.4143 123.579 35.9229 124.414 36.6635 125.013C37.4041 125.613 38.3311 125.94 39.2876 125.94C40.2441 125.94 41.1712 125.613 41.9117 125.013C42.6523 124.414 43.1609 123.579 43.3512 122.651L46.7514 122.651C47.1913 122.651 47.6131 122.478 47.9242 122.17C48.2352 121.862 48.41 121.444 48.41 121.008L48.41 106.224C48.41 105.789 48.2352 105.371 47.9242 105.063C47.6131 104.755 47.1913 104.582 46.7514 104.582L43.3512 104.582C43.1609 103.653 42.6523 102.819 41.9117 102.219C41.1712 101.62 40.2441 101.292 39.2876 101.292C38.3311 101.292 37.4041 101.62 36.6635 102.219C35.9229 102.819 35.4143 103.653 35.224 104.582V104.582ZM30.9945 118.544L30.9945 108.688C30.9973 108.036 31.2603 107.41 31.7263 106.949C32.1922 106.487 32.8235 106.227 33.4825 106.224L35.224 106.224C35.417 107.151 35.9264 107.983 36.6665 108.582C37.4066 109.18 38.3322 109.508 39.2876 109.51L39.2876 117.723C38.3322 117.725 37.4066 118.052 36.6665 118.651C35.9264 119.249 35.417 120.082 35.224 121.008L33.4825 121.008C32.8235 121.005 32.1922 120.745 31.7263 120.284C31.2603 119.822 30.9973 119.197 30.9945 118.544V118.544ZM41.7755 105.362L41.7755 105.403C41.7755 105.621 41.8629 105.83 42.0184 105.984C42.174 106.138 42.3849 106.224 42.6048 106.224L46.7514 106.224L46.7514 121.008L42.6048 121.008C42.4964 121.008 42.3891 121.03 42.289 121.071C42.189 121.112 42.0982 121.173 42.0221 121.249C41.9459 121.326 41.8858 121.416 41.8452 121.516C41.8047 121.616 41.7845 121.722 41.7859 121.83L41.7859 121.871C41.7777 122.356 41.6252 122.828 41.3473 123.227C41.0695 123.627 40.6787 123.936 40.2241 124.117C39.7694 124.297 39.271 124.341 38.7915 124.242C38.3119 124.143 37.8725 123.906 37.5283 123.561C37.184 123.216 36.9503 122.778 36.8565 122.302C36.7626 121.825 36.8128 121.332 37.0007 120.884C37.1886 120.436 37.5058 120.053 37.9126 119.783C38.3195 119.513 38.7978 119.368 39.2876 119.366L43.4341 119.366C43.6541 119.366 43.865 119.279 44.0205 119.125C44.1761 118.971 44.2634 118.762 44.2634 118.544C44.2634 118.326 44.1761 118.117 44.0205 117.963C43.865 117.809 43.6541 117.723 43.4341 117.723L40.9462 117.723L40.9462 109.51L43.4341 109.51C43.6541 109.51 43.865 109.423 44.0205 109.269C44.1761 109.115 44.2634 108.906 44.2634 108.688C44.2634 108.47 44.1761 108.261 44.0205 108.107C43.865 107.953 43.6541 107.867 43.4341 107.867L39.2876 107.867C38.7973 107.867 38.318 107.723 37.9098 107.454C37.5016 107.185 37.1828 106.803 36.9933 106.355C36.8038 105.907 36.7522 105.414 36.8449 104.937C36.9376 104.46 37.1704 104.021 37.5143 103.675C37.8581 103.329 38.2975 103.091 38.7773 102.991C39.2572 102.892 39.756 102.935 40.2113 103.115C40.6666 103.295 41.0579 103.605 41.3362 104.004C41.6145 104.404 41.7674 104.876 41.7755 105.362V105.362Z" fill="black"/>
<path d="M114.565 84.0305L116.307 84.0305C117.406 84.0305 118.461 83.5978 119.239 82.8277C120.016 82.0575 120.453 81.013 120.453 79.9238L120.453 70.0679C120.453 68.9787 120.016 67.9342 119.239 67.164C118.461 66.3939 117.406 65.9612 116.307 65.9612L114.565 65.9612C114.375 65.0329 113.866 64.1982 113.126 63.5987C112.385 62.9992 111.458 62.6718 110.501 62.6718C109.545 62.6718 108.618 62.9992 107.877 63.5987C107.137 64.1982 106.628 65.0329 106.438 65.9612L103.038 65.9612C102.598 65.9612 102.176 66.1343 101.865 66.4423C101.554 66.7504 101.379 67.1682 101.379 67.6039L101.379 82.3878C101.379 82.8235 101.554 83.2413 101.865 83.5494C102.176 83.8574 102.598 84.0305 103.038 84.0305L106.438 84.0305C106.628 84.9588 107.137 85.7935 107.877 86.393C108.618 86.9925 109.545 87.3199 110.501 87.3199C111.458 87.3199 112.385 86.9925 113.126 86.393C113.866 85.7935 114.375 84.9588 114.565 84.0305V84.0305ZM118.795 70.0679L118.795 79.9238C118.792 80.5765 118.529 81.2017 118.063 81.6632C117.597 82.1247 116.966 82.3851 116.307 82.3878L114.565 82.3878C114.372 81.4611 113.863 80.6286 113.123 80.0302C112.382 79.4318 111.457 79.1042 110.501 79.1025L110.501 70.8892C111.457 70.8875 112.382 70.5598 113.123 69.9615C113.863 69.3631 114.372 68.5306 114.565 67.6039L116.307 67.6039C116.966 67.6066 117.597 67.867 118.063 68.3285C118.529 68.79 118.792 69.4152 118.795 70.0679V70.0679ZM108.014 83.2502L108.014 83.2092C108.014 82.9913 107.926 82.7824 107.771 82.6284C107.615 82.4744 107.404 82.3878 107.184 82.3878L103.038 82.3878L103.038 67.6039L107.184 67.6039C107.293 67.6039 107.4 67.5826 107.5 67.5412C107.6 67.4998 107.691 67.4391 107.767 67.3627C107.843 67.2863 107.903 67.1957 107.944 67.0961C107.984 66.9965 108.005 66.8899 108.003 66.7825L108.003 66.7415C108.011 66.2564 108.164 65.7845 108.442 65.385C108.72 64.9854 109.11 64.676 109.565 64.4955C110.02 64.315 110.518 64.2714 110.998 64.3702C111.477 64.4691 111.917 64.7059 112.261 65.0511C112.605 65.3962 112.839 65.8343 112.933 66.3105C113.026 66.7866 112.976 67.2796 112.788 67.7276C112.601 68.1756 112.283 68.5588 111.876 68.829C111.47 69.0992 110.991 69.2444 110.501 69.2465L106.355 69.2465C106.135 69.2465 105.924 69.3331 105.769 69.4871C105.613 69.6411 105.526 69.85 105.526 70.0679C105.526 70.2857 105.613 70.4946 105.769 70.6486C105.924 70.8027 106.135 70.8892 106.355 70.8892L108.843 70.8892L108.843 79.1025L106.355 79.1025C106.135 79.1025 105.924 79.189 105.769 79.3431C105.613 79.4971 105.526 79.706 105.526 79.9238C105.526 80.1417 105.613 80.3506 105.769 80.5046C105.924 80.6586 106.135 80.7452 106.355 80.7452L110.501 80.7452C110.992 80.7452 111.471 80.8888 111.879 81.1577C112.287 81.4267 112.606 81.8091 112.796 82.257C112.985 82.7048 113.037 83.1982 112.944 83.675C112.851 84.1518 112.619 84.5908 112.275 84.937C111.931 85.2832 111.492 85.521 111.012 85.6207C110.532 85.7204 110.033 85.6774 109.578 85.4972C109.122 85.317 108.731 85.0076 108.453 84.6078C108.175 84.208 108.022 83.7357 108.014 83.2502V83.2502Z" fill="black"/>
<path d="M35.431 65.9678L33.6895 65.9678C32.5898 65.9678 31.5351 66.4005 30.7575 67.1706C29.9798 67.9408 29.543 68.9853 29.543 70.0745L29.543 79.9304C29.543 81.0196 29.9798 82.0641 30.7575 82.8343C31.5351 83.6044 32.5898 84.0371 33.6895 84.0371L35.431 84.0371C35.6214 84.9654 36.1299 85.8001 36.8705 86.3996C37.6111 86.999 38.5382 87.3265 39.4946 87.3265C40.4511 87.3265 41.3782 86.999 42.1188 86.3996C42.8594 85.8001 43.3679 84.9654 43.5582 84.0371L46.9584 84.0371C47.3983 84.0371 47.8202 83.864 48.1312 83.556C48.4423 83.2479 48.617 82.8301 48.617 82.3944L48.617 67.6105C48.617 67.1748 48.4423 66.757 48.1312 66.4489C47.8202 66.1409 47.3983 65.9678 46.9584 65.9678L43.5582 65.9678C43.3679 65.0394 42.8594 64.2048 42.1188 63.6053C41.3782 63.0058 40.4511 62.6783 39.4946 62.6783C38.5382 62.6783 37.6111 63.0058 36.8705 63.6053C36.1299 64.2048 35.6214 65.0394 35.431 65.9678V65.9678ZM31.2016 79.9304L31.2016 70.0745C31.2043 69.4218 31.4673 68.7966 31.9333 68.3351C32.3993 67.8736 33.0305 67.6132 33.6895 67.6105L35.431 67.6105C35.624 68.5372 36.1334 69.3697 36.8735 69.9681C37.6136 70.5664 38.5393 70.8941 39.4946 70.8958L39.4946 79.1091C38.5393 79.1108 37.6136 79.4384 36.8735 80.0368C36.1334 80.6352 35.624 81.4677 35.431 82.3944L33.6895 82.3944C33.0305 82.3917 32.3993 82.1313 31.9333 81.6698C31.4673 81.2083 31.2043 80.5831 31.2016 79.9304V79.9304ZM41.9826 66.7481L41.9826 66.7891C41.9826 67.007 42.0699 67.2159 42.2255 67.3699C42.381 67.5239 42.5919 67.6105 42.8119 67.6105L46.9584 67.6105L46.9584 82.3944L42.8119 82.3944C42.7034 82.3944 42.5961 82.4157 42.4961 82.4571C42.396 82.4985 42.3053 82.5592 42.2291 82.6356C42.1529 82.712 42.0928 82.8026 42.0523 82.9022C42.0117 83.0018 41.9916 83.1084 41.9929 83.2158L41.9929 83.2568C41.9848 83.7419 41.8322 84.2138 41.5544 84.6133C41.2765 85.0129 40.8858 85.3223 40.4311 85.5028C39.9764 85.6833 39.4781 85.7269 38.9985 85.6281C38.5189 85.5292 38.0795 85.2924 37.7353 84.9472C37.3911 84.6021 37.1574 84.164 37.0635 83.6878C36.9697 83.2117 37.0198 82.7187 37.2077 82.2707C37.3956 81.8226 37.7128 81.4395 38.1197 81.1693C38.5265 80.8991 39.0048 80.7539 39.4946 80.7518L43.6412 80.7518C43.8611 80.7518 44.0721 80.6652 44.2276 80.5112C44.3831 80.3572 44.4705 80.1483 44.4705 79.9304C44.4705 79.7126 44.3831 79.5037 44.2276 79.3497C44.0721 79.1956 43.8611 79.1091 43.6412 79.1091L41.1533 79.1091L41.1533 70.8958L43.6412 70.8958C43.8611 70.8958 44.0721 70.8093 44.2276 70.6552C44.3831 70.5012 44.4705 70.2923 44.4705 70.0745C44.4705 69.8566 44.3831 69.6477 44.2276 69.4937C44.0721 69.3397 43.8611 69.2531 43.6412 69.2531L39.4946 69.2531C39.0044 69.2531 38.525 69.1095 38.1168 68.8405C37.7086 68.5716 37.3898 68.1891 37.2003 67.7413C37.0109 67.2934 36.9592 66.8001 37.0519 66.3233C37.1446 65.8465 37.3775 65.4074 37.7213 65.0613C38.0651 64.7151 38.5045 64.4772 38.9844 64.3776C39.4642 64.2779 39.9631 64.3209 40.4183 64.5011C40.8736 64.6813 41.265 64.9907 41.5433 65.3905C41.8216 65.7903 41.9744 66.2626 41.9826 66.7481V66.7481Z" fill="black"/>
<path d="M114.772 45.416L116.514 45.416C117.613 45.416 118.668 44.9833 119.446 44.2132C120.223 43.443 120.66 42.3985 120.66 41.3093L120.66 31.4534C120.66 30.3642 120.223 29.3197 119.446 28.5495C118.668 27.7794 117.613 27.3467 116.514 27.3467L114.772 27.3467C114.582 26.4184 114.073 25.5837 113.333 24.9842C112.592 24.3847 111.665 24.0573 110.708 24.0573C109.752 24.0573 108.825 24.3847 108.084 24.9842C107.344 25.5837 106.835 26.4184 106.645 27.3467L103.245 27.3467C102.805 27.3467 102.383 27.5198 102.072 27.8278C101.761 28.1359 101.586 28.5537 101.586 28.9894L101.586 43.7733C101.586 44.209 101.761 44.6268 102.072 44.9349C102.383 45.2429 102.805 45.416 103.245 45.416L106.645 45.416C106.835 46.3443 107.344 47.179 108.084 47.7785C108.825 48.378 109.752 48.7054 110.708 48.7054C111.665 48.7054 112.592 48.378 113.333 47.7785C114.073 47.179 114.582 46.3443 114.772 45.416V45.416ZM119.002 31.4534L119.002 41.3093C118.999 41.962 118.736 42.5872 118.27 43.0487C117.804 43.5102 117.173 43.7706 116.514 43.7733L114.772 43.7733C114.579 42.8466 114.07 42.0141 113.33 41.4157C112.589 40.8173 111.664 40.4897 110.708 40.488L110.708 32.2747C111.664 32.273 112.589 31.9453 113.33 31.347C114.07 30.7486 114.579 29.9161 114.772 28.9894L116.514 28.9894C117.173 28.9921 117.804 29.2525 118.27 29.714C118.736 30.1755 118.999 30.8007 119.002 31.4534V31.4534ZM108.221 44.6357L108.221 44.5947C108.221 44.3768 108.133 44.1679 107.978 44.0139C107.822 43.8599 107.611 43.7733 107.391 43.7733L103.245 43.7733L103.245 28.9894L107.391 28.9894C107.5 28.9894 107.607 28.9681 107.707 28.9267C107.807 28.8853 107.898 28.8246 107.974 28.7482C108.05 28.6718 108.11 28.5812 108.151 28.4816C108.191 28.382 108.212 28.2754 108.21 28.168L108.21 28.127C108.218 27.6419 108.371 27.17 108.649 26.7705C108.927 26.3709 109.317 26.0615 109.772 25.881C110.227 25.7005 110.725 25.6569 111.205 25.7557C111.684 25.8546 112.124 26.0914 112.468 26.4366C112.812 26.7817 113.046 27.2198 113.14 27.696C113.233 28.1721 113.183 28.6651 112.995 29.1131C112.808 29.5611 112.49 29.9443 112.083 30.2145C111.677 30.4847 111.198 30.6299 110.708 30.632L106.562 30.632C106.342 30.632 106.131 30.7186 105.976 30.8726C105.82 31.0266 105.733 31.2355 105.733 31.4534C105.733 31.6712 105.82 31.8801 105.976 32.0341C106.131 32.1882 106.342 32.2747 106.562 32.2747L109.05 32.2747L109.05 40.488L106.562 40.488C106.342 40.488 106.131 40.5745 105.976 40.7286C105.82 40.8826 105.733 41.0915 105.733 41.3093C105.733 41.5272 105.82 41.7361 105.976 41.8901C106.131 42.0441 106.342 42.1307 106.562 42.1307L110.708 42.1307C111.199 42.1307 111.678 42.2743 112.086 42.5432C112.494 42.8122 112.813 43.1946 113.003 43.6425C113.192 44.0903 113.244 44.5837 113.151 45.0605C113.059 45.5373 112.826 45.9763 112.482 46.3225C112.138 46.6687 111.699 46.9065 111.219 47.0062C110.739 47.1059 110.24 47.0629 109.785 46.8827C109.33 46.7025 108.938 46.393 108.66 45.9933C108.382 45.5935 108.229 45.1212 108.221 44.6357V44.6357Z" fill="black"/>
<path d="M35.6381 27.3496L33.8965 27.3496C32.7968 27.3496 31.7421 27.7823 30.9645 28.5524C30.1869 29.3226 29.75 30.3671 29.75 31.4563L29.75 41.3123C29.75 42.4014 30.1869 43.446 30.9645 44.2161C31.7421 44.9863 32.7968 45.4189 33.8965 45.4189L35.6381 45.4189C35.8284 46.3473 36.337 47.1819 37.0775 47.7814C37.8181 48.3809 38.7452 48.7084 39.7017 48.7084C40.6582 48.7084 41.5852 48.3809 42.3258 47.7814C43.0664 47.1819 43.5749 46.3473 43.7653 45.4189L47.1654 45.4189C47.6053 45.4189 48.0272 45.2459 48.3382 44.9378C48.6493 44.6297 48.824 44.2119 48.824 43.7763L48.824 28.9923C48.824 28.5566 48.6493 28.1388 48.3382 27.8308C48.0272 27.5227 47.6053 27.3496 47.1654 27.3496L43.7653 27.3496C43.5749 26.4213 43.0664 25.5867 42.3258 24.9872C41.5852 24.3877 40.6582 24.0602 39.7017 24.0602C38.7452 24.0602 37.8181 24.3877 37.0775 24.9872C36.337 25.5867 35.8284 26.4213 35.6381 27.3496V27.3496ZM31.4086 41.3123L31.4086 31.4563C31.4113 30.8036 31.6743 30.1785 32.1403 29.717C32.6063 29.2555 33.2375 28.995 33.8965 28.9923L35.6381 28.9923C35.8311 29.919 36.3405 30.7516 37.0806 31.3499C37.8207 31.9483 38.7463 32.2759 39.7017 32.2776L39.7017 40.4909C38.7463 40.4927 37.8207 40.8203 37.0806 41.4186C36.3405 42.017 35.8311 42.8496 35.6381 43.7763L33.8965 43.7763C33.2375 43.7736 32.6063 43.5131 32.1403 43.0516C31.6743 42.5901 31.4113 41.9649 31.4086 41.3123V41.3123ZM42.1896 28.1299L42.1896 28.171C42.1896 28.3888 42.277 28.5977 42.4325 28.7517C42.588 28.9058 42.799 28.9923 43.0189 28.9923L47.1654 28.9923L47.1654 43.7763L43.0189 43.7763C42.9105 43.7763 42.8031 43.7976 42.7031 43.839C42.603 43.8804 42.5123 43.941 42.4361 44.0174C42.3599 44.0938 42.2998 44.1845 42.2593 44.2841C42.2188 44.3837 42.1986 44.4902 42.2 44.5976L42.2 44.6387C42.1918 45.1237 42.0392 45.5956 41.7614 45.9952C41.4835 46.3947 41.0928 46.7041 40.6381 46.8846C40.1835 47.0652 39.6851 47.1087 39.2055 47.0099C38.726 46.9111 38.2865 46.6742 37.9423 46.3291C37.5981 45.9839 37.3644 45.5458 37.2706 45.0697C37.1767 44.5935 37.2269 44.1005 37.4147 43.6525C37.6026 43.2045 37.9199 42.8213 38.3267 42.5511C38.7335 42.2809 39.2118 42.1357 39.7017 42.1336L43.8482 42.1336C44.0681 42.1336 44.2791 42.0471 44.4346 41.893C44.5901 41.739 44.6775 41.5301 44.6775 41.3123C44.6775 41.0944 44.5901 40.8855 44.4346 40.7315C44.2791 40.5775 44.0681 40.4909 43.8482 40.4909L41.3603 40.4909L41.3603 32.2776L43.8482 32.2776C44.0681 32.2776 44.2791 32.1911 44.4346 32.0371C44.5901 31.883 44.6775 31.6741 44.6775 31.4563C44.6775 31.2385 44.5901 31.0295 44.4346 30.8755C44.2791 30.7215 44.0681 30.635 43.8482 30.635L39.7017 30.635C39.2114 30.6349 38.7321 30.4914 38.3239 30.2224C37.9157 29.9534 37.5968 29.571 37.4074 29.1231C37.2179 28.6753 37.1663 28.182 37.259 27.7052C37.3516 27.2283 37.5845 26.7893 37.9283 26.4431C38.2721 26.0969 38.7115 25.8591 39.1914 25.7594C39.6712 25.6598 40.1701 25.7027 40.6254 25.8829C41.0806 26.0632 41.472 26.3726 41.7503 26.7723C42.0286 27.1721 42.1814 27.6444 42.1896 28.1299V28.1299Z" fill="black"/>
<path d="M61.8103 89.5V63.5L64.0903 65.86H55.8903V61.5H67.0103V89.5H61.8103ZM72.1647 83.14V79.54L85.9647 61.5H91.5247L77.9247 79.54L75.3247 78.74H97.5247V83.14H72.1647ZM87.5247 89.5V83.14L87.6847 78.74V73.1H92.5647V89.5H87.5247Z" fill="black"/>
</svg>
