<svg width="1549" height="1335" viewBox="0 0 1549 1335" fill="none" xmlns="http://www.w3.org/2000/svg">
<path d="M820.29 1086.51L809.918 1074.93C809.824 1074.83 809.708 1074.75 809.578 1074.69C809.448 1074.63 809.306 1074.6 809.163 1074.6C809.02 1074.6 808.878 1074.63 808.748 1074.69C808.618 1074.75 808.502 1074.83 808.408 1074.93L798.04 1086.51C798.008 1086.55 797.988 1086.59 797.981 1086.64C797.974 1086.68 797.981 1086.73 798.001 1086.77C798.021 1086.81 798.052 1086.85 798.093 1086.88C798.133 1086.9 798.179 1086.91 798.227 1086.91H800.758C800.902 1086.91 801.04 1086.85 801.137 1086.75L807.977 1079.11V1096.16C807.977 1096.29 808.09 1096.4 808.227 1096.4H810.102C810.24 1096.4 810.352 1096.29 810.352 1096.16V1079.11L817.193 1086.75C817.287 1086.85 817.424 1086.91 817.571 1086.91H820.102C820.315 1086.91 820.43 1086.67 820.29 1086.51Z" fill="black"/>
<path d="M147.744 251.891V572.7H275.2L413.039 569.277V555.717H355.281C357.137 513.401 394.559 500.763 413.039 499.734V251.891H147.744Z" fill="#B1D09D"/>
<path d="M275.2 572.7V1140.05H517.179V1102.46H464.148C467.131 1065.04 500.745 1048.81 517.179 1045.38V1022.95V572.7L413.039 569.277L275.2 572.7Z" fill="#B1D09D"/>
<path d="M1184.89 1134.7V1002.81H983.635V1015.82H1041.95C1040.89 1057.71 1002.63 1069.27 983.635 1069.81V1134.7H1184.89Z" fill="#AC84BB"/>
<path d="M1184.89 896.303H983.635V912.689H1041.73C1036.96 953.045 1001.01 966.775 983.635 968.596V1002.81H1184.89V896.303Z" fill="#AC84BB"/>
<path d="M1034.11 778.958H981.178L983.635 857.746V896.303H1184.89V854.933C1202.45 854.166 1239.05 841.558 1245 797.261H1184.89V778.958H1088.3C1087.2 763.374 1074.62 731.189 1033.09 727.123L1034.11 778.958Z" fill="#279869"/>
<path d="M1373.73 627.613H981.178V778.958H1034.11L1033.09 727.123C1074.62 731.189 1087.2 763.374 1088.3 778.958H1184.89H1186.07H1373.73V627.613Z" fill="#B1D09D"/>
<path d="M1373.73 1134.7V778.958H1186.07H1184.89V797.261H1245C1239.05 841.558 1202.45 854.166 1184.89 854.933V896.303V1002.81V1134.7H1373.73Z" fill="#B1D09D"/>
<path d="M1373.73 251.891H893.385V627.613H981.178H1373.73V251.891Z" fill="#279869"/>
<path d="M893.385 872.555L743.55 1022.95H660.877H517.179V1045.38C500.745 1048.81 467.131 1065.04 464.148 1102.46H517.179V1140.05H759.159V1187.95C773.876 1187.8 803.795 1178.54 805.74 1142.65C806.624 1177.65 840.393 1187.43 857.168 1187.95V1134.7H983.635V1069.81C1002.63 1069.27 1040.89 1057.71 1041.95 1015.82H983.635V1002.81V968.596C1001.01 966.775 1036.96 953.045 1041.73 912.689H983.635V896.303V857.746L981.178 778.958V627.613H893.385V872.555Z" fill="#279869"/>
<path d="M147.744 251.891V250.641H146.494V251.891H147.744ZM1373.73 251.891H1374.98V250.641H1373.73V251.891ZM1373.73 1134.7V1135.95H1374.98V1134.7H1373.73ZM857.168 1134.7V1133.45H855.918V1134.7H857.168ZM147.744 572.7H146.494V573.95H147.744V572.7ZM275.2 1140.05H273.95V1141.3H275.2V1140.05ZM759.159 1140.05H760.409V1138.8H759.159V1140.05ZM413.039 499.734L413.108 500.982L414.289 500.916V499.734H413.039ZM893.385 872.555L894.27 873.438L894.635 873.072V872.555H893.385ZM743.55 1022.95V1024.2H744.069L744.436 1023.83L743.55 1022.95ZM1088.3 778.958L1087.05 779.045L1087.13 780.208H1088.3V778.958ZM981.178 778.958H979.928V778.977L979.928 778.996L981.178 778.958ZM1034.11 778.958V780.208H1035.39L1035.36 778.933L1034.11 778.958ZM1184.89 854.933L1184.83 853.684L1183.64 853.736V854.933H1184.89ZM1184.89 797.261H1183.64V798.511H1184.89V797.261ZM983.635 857.746H984.885V857.727L984.884 857.707L983.635 857.746ZM983.635 912.689H982.385V913.939H983.635V912.689ZM983.635 968.596L983.504 967.353L982.385 967.47V968.596H983.635ZM983.635 1069.81L983.599 1068.56L982.385 1068.59V1069.81H983.635ZM517.179 1102.46H518.429V1101.21H517.179V1102.46ZM517.179 1045.38L517.435 1046.6L518.429 1046.39V1045.38H517.179ZM517.179 572.7H518.429V571.49L517.22 571.45L517.179 572.7ZM355.281 555.717L354.032 555.663L353.975 556.967H355.281V555.717ZM464.148 1102.46L462.902 1102.36L462.795 1103.71H464.148V1102.46ZM1041.95 1015.82L1043.2 1015.85L1043.24 1014.57H1041.95V1015.82ZM1041.73 912.689L1042.97 912.836L1043.14 911.439H1041.73V912.689ZM1033.09 727.123L1033.21 725.879L1031.81 725.742L1031.84 727.148L1033.09 727.123ZM759.159 1187.95H757.909V1189.21L759.171 1189.2L759.159 1187.95ZM857.168 1187.95L857.129 1189.2L858.418 1189.24V1187.95H857.168ZM805.74 1142.65L806.99 1142.62L804.492 1142.58L805.74 1142.65ZM413.039 555.717H414.289V554.467H413.039V555.717ZM983.635 1015.82H982.385V1017.07H983.635V1015.82ZM1245 797.261L1246.24 797.427L1246.43 796.011H1245V797.261ZM146.494 251.891V572.7H148.994V251.891H146.494ZM147.744 573.95H275.2V571.45H147.744V573.95ZM273.95 572.7V1140.05H276.45V572.7H273.95ZM147.744 253.141H413.039V250.641H147.744V253.141ZM411.789 251.891V499.734H414.289V251.891H411.789ZM413.039 253.141H893.385V250.641H413.039V253.141ZM893.385 253.141H1373.73V250.641H893.385V253.141ZM892.499 871.673L742.665 1022.07L744.436 1023.83L894.27 873.438L892.499 871.673ZM743.55 1021.7H660.877V1024.2H743.55V1021.7ZM1372.48 251.891V627.613H1374.98V251.891H1372.48ZM981.178 628.863H1373.73V626.363H981.178V628.863ZM1372.48 627.613V778.958H1374.98V627.613H1372.48ZM1372.48 778.958V1134.7H1374.98V778.958H1372.48ZM979.928 627.613V778.958H982.428V627.613H979.928ZM981.178 780.208H1034.11V777.708H981.178V780.208ZM1373.73 1133.45H1184.89V1135.95H1373.73V1133.45ZM1373.73 777.708H1186.07V780.208H1373.73V777.708ZM1186.07 777.708H1184.89V780.208H1186.07V777.708ZM1184.89 777.708H1088.3V780.208H1184.89V777.708ZM1183.64 778.958V797.261H1186.14V778.958H1183.64ZM1186.14 896.303V854.933H1183.64V896.303H1186.14ZM1184.89 895.053H983.635V897.553H1184.89V895.053ZM984.885 896.303V857.746H982.385V896.303H984.885ZM982.385 857.746V912.689H984.885V857.746H982.385ZM1186.14 1134.7V1002.81H1183.64V1134.7H1186.14ZM1186.14 1002.81V896.303H1183.64V1002.81H1186.14ZM1184.89 1001.56H983.635V1004.06H1184.89V1001.56ZM984.885 1002.81V968.596H982.385V1002.81H984.885ZM1184.89 1133.45H983.635V1135.95H1184.89V1133.45ZM983.635 1133.45H857.168V1135.95H983.635V1133.45ZM984.885 1134.7V1069.81H982.385V1134.7H984.885ZM275.2 1141.3H517.179V1138.8H275.2V1141.3ZM517.179 1141.3H759.159V1138.8H517.179V1141.3ZM518.429 1140.05V1102.46H515.929V1140.05H518.429ZM412.998 570.526L517.138 573.949L517.22 571.45L413.08 568.028L412.998 570.526ZM275.231 573.949L413.07 570.527L413.008 568.028L275.169 571.45L275.231 573.949ZM412.969 498.485C403.539 499.011 389.322 502.486 377.195 511.229C365.02 520.007 354.979 534.084 354.032 555.663L356.53 555.772C357.44 535.034 367.038 521.634 378.657 513.257C390.326 504.844 404.059 501.486 413.108 500.982L412.969 498.485ZM516.924 1044.15C508.529 1045.91 495.82 1050.9 484.812 1060.22C473.779 1069.55 464.425 1083.25 462.902 1102.36L465.394 1102.56C466.854 1084.24 475.798 1071.12 486.427 1062.13C497.08 1053.11 509.396 1048.28 517.435 1046.6L516.924 1044.15ZM983.67 1071.06C993.351 1070.78 1007.91 1067.71 1020.22 1059.35C1032.59 1050.96 1042.66 1037.24 1043.2 1015.85L1040.7 1015.78C1040.19 1036.29 1030.6 1049.29 1018.82 1057.28C1006.99 1065.32 992.917 1068.29 983.599 1068.56L983.67 1071.06ZM983.765 969.839C992.645 968.909 1006.2 964.953 1018.15 956.098C1030.15 947.219 1040.54 933.404 1042.97 912.836L1040.49 912.542C1038.15 932.331 1028.19 945.559 1016.67 954.089C1005.11 962.643 992.002 966.462 983.504 967.353L983.765 969.839ZM1089.55 778.87C1088.42 762.891 1075.54 730.023 1033.21 725.879L1032.97 728.367C1073.7 732.355 1085.98 763.857 1087.05 779.045L1089.55 778.87ZM757.909 1140.05V1187.95H760.409V1140.05H757.909ZM855.918 1134.7V1187.95H858.418V1134.7H855.918ZM759.171 1189.2C766.736 1189.12 778.157 1186.72 787.965 1179.72C797.826 1172.69 805.995 1161.05 806.988 1142.72L804.492 1142.58C803.541 1160.13 795.777 1171.08 786.513 1177.68C777.196 1184.33 766.299 1186.63 759.146 1186.7L759.171 1189.2ZM857.206 1186.7C848.989 1186.45 836.589 1183.92 826.174 1177.18C815.814 1170.49 807.42 1159.64 806.99 1142.62L804.49 1142.68C804.944 1160.66 813.877 1172.21 824.816 1179.28C835.701 1186.32 848.573 1188.94 857.129 1189.2L857.206 1186.7ZM518.429 1045.38V1022.95H515.929V1045.38H518.429ZM518.429 1022.95V572.7H515.929V1022.95H518.429ZM660.877 1021.7H517.179V1024.2H660.877V1021.7ZM355.281 556.967H413.039V554.467H355.281V556.967ZM411.789 555.717V569.277H414.289V555.717H411.789ZM464.148 1103.71H517.179V1101.21H464.148V1103.71ZM1041.95 1014.57H983.635V1017.07H1041.95V1014.57ZM984.885 1015.82V1002.81H982.385V1015.82H984.885ZM983.635 913.939H1041.73V911.439H983.635V913.939ZM984.884 857.707L982.427 778.919L979.928 778.996L982.385 857.785L984.884 857.707ZM1184.94 856.182C1202.85 855.4 1240.18 842.549 1246.24 797.427L1243.77 797.094C1237.93 840.567 1202.05 852.932 1184.83 853.684L1184.94 856.182ZM1184.89 798.511H1245V796.011H1184.89V798.511ZM1035.36 778.933L1034.34 727.099L1031.84 727.148L1032.86 778.982L1035.36 778.933ZM892.135 251.891V627.613H894.635V251.891H892.135ZM892.135 627.613V872.555H894.635V627.613H892.135ZM981.178 626.363H893.385V628.863H981.178V626.363ZM982.385 896.303V912.689H984.885V896.303H982.385Z" fill="black" fill-opacity="0.6"/>
<path fill-rule="evenodd" clip-rule="evenodd" d="M147.744 572.7V251.891H413.039V500.045C369.312 501.415 356.314 537.731 355.281 555.717H413.039V569.277L517.179 572.7V1022.95H660.877H743.55L893.385 872.555V251.891H1373.73V627.613V778.958V1134.7H1184.89H983.635H857.168V1187.95C840.393 1187.43 806.624 1177.65 805.74 1142.65C803.795 1178.54 773.876 1187.8 759.159 1187.95V1140.05H517.179H275.2V572.7H147.744Z" fill="#5F5F5F" fill-opacity="0.4"/>
<path d="M229.219 419.331V399.883H238.671C241.141 399.883 243 400.347 244.247 401.277C245.516 402.206 246.151 403.441 246.151 404.983C246.151 406.501 245.629 407.703 244.587 408.587C243.567 409.471 242.184 409.913 240.439 409.913L240.983 408.825C242.864 408.825 244.36 409.267 245.471 410.151C246.581 411.035 247.137 412.315 247.137 413.993C247.137 415.67 246.468 416.985 245.131 417.937C243.793 418.866 241.833 419.331 239.249 419.331H229.219ZM233.503 416.169H238.977C240.223 416.169 241.175 415.965 241.833 415.557C242.49 415.126 242.819 414.48 242.819 413.619C242.819 412.735 242.49 412.089 241.833 411.681C241.175 411.273 240.223 411.069 238.977 411.069H232.925V407.975H238.195C239.373 407.975 240.269 407.771 240.881 407.363C241.515 406.932 241.833 406.309 241.833 405.493C241.833 404.699 241.515 404.099 240.881 403.691C240.269 403.26 239.373 403.045 238.195 403.045H233.503V416.169ZM255.038 407.805H264.898V411.137H255.038V407.805ZM255.616 415.897H266.428V419.331H251.332V399.883H266.054V403.351H255.616V415.897ZM285.237 413.585C285.237 414.809 284.897 415.874 284.217 416.781C283.56 417.687 282.619 418.401 281.395 418.923C280.171 419.421 278.675 419.671 276.907 419.671C275.389 419.671 273.893 419.467 272.419 419.059C270.969 418.651 269.801 418.118 268.917 417.461L270.515 414.129C271.331 414.741 272.329 415.228 273.507 415.591C274.686 415.953 275.887 416.135 277.111 416.135C278.562 416.135 279.571 415.919 280.137 415.489C280.704 415.058 280.987 414.548 280.987 413.959C280.987 413.415 280.772 412.984 280.341 412.667C279.933 412.349 279.378 412.1 278.675 411.919C277.995 411.715 277.247 411.533 276.431 411.375C275.615 411.193 274.799 410.989 273.983 410.763C273.167 410.536 272.419 410.219 271.739 409.811C271.059 409.403 270.504 408.859 270.073 408.179C269.665 407.499 269.461 406.637 269.461 405.595C269.461 404.393 269.801 403.339 270.481 402.433C271.161 401.526 272.113 400.823 273.337 400.325C274.584 399.826 276.046 399.577 277.723 399.577C278.925 399.577 280.126 399.713 281.327 399.985C282.551 400.234 283.617 400.653 284.523 401.243L283.061 404.575C282.2 404.008 281.293 403.623 280.341 403.419C279.412 403.192 278.494 403.079 277.587 403.079C276.227 403.079 275.241 403.294 274.629 403.725C274.04 404.155 273.745 404.699 273.745 405.357C273.745 405.901 273.949 406.331 274.357 406.649C274.788 406.966 275.343 407.227 276.023 407.431C276.703 407.612 277.451 407.782 278.267 407.941C279.106 408.099 279.922 408.303 280.715 408.553C281.531 408.779 282.279 409.097 282.959 409.505C283.662 409.89 284.217 410.411 284.625 411.069C285.033 411.726 285.237 412.565 285.237 413.585ZM289.25 419.331V399.883H297.648C299.393 399.883 300.901 400.166 302.17 400.733C303.439 401.277 304.414 402.07 305.094 403.113C305.797 404.155 306.148 405.413 306.148 406.887C306.148 408.36 305.797 409.629 305.094 410.695C304.414 411.737 303.439 412.542 302.17 413.109C300.901 413.653 299.393 413.925 297.648 413.925H291.63L293.534 411.953V419.331H289.25ZM293.534 412.463L291.97 410.457H297.342C298.838 410.457 299.96 410.151 300.708 409.539C301.456 408.904 301.83 408.02 301.83 406.887C301.83 405.753 301.456 404.881 300.708 404.269C299.96 403.657 298.838 403.351 297.342 403.351H291.97L293.534 401.379V412.463ZM310.633 419.331V399.883H314.917V415.863H324.913V419.331H310.633Z" fill="black"/>
<path d="M630.765 460.331V440.883H640.217C642.687 440.883 644.546 441.347 645.793 442.277C647.062 443.206 647.697 444.441 647.697 445.983C647.697 447.501 647.175 448.703 646.133 449.587C645.113 450.471 643.73 450.913 641.985 450.913L642.529 449.825C644.41 449.825 645.906 450.267 647.017 451.151C648.127 452.035 648.683 453.315 648.683 454.993C648.683 456.67 648.014 457.985 646.677 458.937C645.339 459.866 643.379 460.331 640.795 460.331H630.765ZM635.049 457.169H640.523C641.769 457.169 642.721 456.965 643.379 456.557C644.036 456.126 644.365 455.48 644.365 454.619C644.365 453.735 644.036 453.089 643.379 452.681C642.721 452.273 641.769 452.069 640.523 452.069H634.471V448.975H639.741C640.919 448.975 641.815 448.771 642.427 448.363C643.061 447.932 643.379 447.309 643.379 446.493C643.379 445.699 643.061 445.099 642.427 444.691C641.815 444.26 640.919 444.045 639.741 444.045H635.049V457.169ZM652.878 460.331V440.883H662.33C664.801 440.883 666.659 441.347 667.906 442.277C669.175 443.206 669.81 444.441 669.81 445.983C669.81 447.501 669.289 448.703 668.246 449.587C667.226 450.471 665.843 450.913 664.098 450.913L664.642 449.825C666.523 449.825 668.019 450.267 669.13 451.151C670.241 452.035 670.796 453.315 670.796 454.993C670.796 456.67 670.127 457.985 668.79 458.937C667.453 459.866 665.492 460.331 662.908 460.331H652.878ZM657.162 457.169H662.636C663.883 457.169 664.835 456.965 665.492 456.557C666.149 456.126 666.478 455.48 666.478 454.619C666.478 453.735 666.149 453.089 665.492 452.681C664.835 452.273 663.883 452.069 662.636 452.069H656.584V448.975H661.854C663.033 448.975 663.928 448.771 664.54 448.363C665.175 447.932 665.492 447.309 665.492 446.493C665.492 445.699 665.175 445.099 664.54 444.691C663.928 444.26 663.033 444.045 661.854 444.045H657.162V457.169ZM689.373 454.585C689.373 455.809 689.033 456.874 688.353 457.781C687.696 458.687 686.755 459.401 685.531 459.923C684.307 460.421 682.811 460.671 681.043 460.671C679.525 460.671 678.029 460.467 676.555 460.059C675.105 459.651 673.937 459.118 673.053 458.461L674.651 455.129C675.467 455.741 676.465 456.228 677.643 456.591C678.822 456.953 680.023 457.135 681.247 457.135C682.698 457.135 683.707 456.919 684.273 456.489C684.84 456.058 685.123 455.548 685.123 454.959C685.123 454.415 684.908 453.984 684.477 453.667C684.069 453.349 683.514 453.1 682.811 452.919C682.131 452.715 681.383 452.533 680.567 452.375C679.751 452.193 678.935 451.989 678.119 451.763C677.303 451.536 676.555 451.219 675.875 450.811C675.195 450.403 674.64 449.859 674.209 449.179C673.801 448.499 673.597 447.637 673.597 446.595C673.597 445.393 673.937 444.339 674.617 443.433C675.297 442.526 676.249 441.823 677.473 441.325C678.72 440.826 680.182 440.577 681.859 440.577C683.061 440.577 684.262 440.713 685.463 440.985C686.687 441.234 687.753 441.653 688.659 442.243L687.197 445.575C686.336 445.008 685.429 444.623 684.477 444.419C683.548 444.192 682.63 444.079 681.723 444.079C680.363 444.079 679.377 444.294 678.765 444.725C678.176 445.155 677.881 445.699 677.881 446.357C677.881 446.901 678.085 447.331 678.493 447.649C678.924 447.966 679.479 448.227 680.159 448.431C680.839 448.612 681.587 448.782 682.403 448.941C683.242 449.099 684.058 449.303 684.851 449.553C685.667 449.779 686.415 450.097 687.095 450.505C687.798 450.89 688.353 451.411 688.761 452.069C689.169 452.726 689.373 453.565 689.373 454.585Z" fill="black"/>
<path d="M740.916 221.401V211.105H745.362C746.286 211.105 747.084 211.255 747.756 211.555C748.428 211.843 748.944 212.263 749.304 212.815C749.676 213.367 749.862 214.033 749.862 214.813C749.862 215.581 749.676 216.241 749.304 216.793C748.944 217.345 748.428 217.765 747.756 218.053C747.084 218.341 746.286 218.485 745.362 218.485H742.176L743.184 217.495V221.401H740.916ZM747.612 221.401L744.966 217.657H747.414L750.06 221.401H747.612ZM743.184 217.765L742.356 216.703H745.2C745.992 216.703 746.586 216.541 746.982 216.217C747.378 215.881 747.576 215.413 747.576 214.813C747.576 214.213 747.378 213.751 746.982 213.427C746.586 213.103 745.992 212.941 745.2 212.941H742.356L743.184 211.897V217.765ZM757.219 221.581C756.127 221.581 755.149 221.353 754.285 220.897C753.433 220.429 752.761 219.793 752.269 218.989C751.777 218.185 751.531 217.273 751.531 216.253C751.531 215.233 751.777 214.327 752.269 213.535C752.761 212.731 753.433 212.101 754.285 211.645C755.149 211.177 756.121 210.943 757.201 210.943C758.293 210.943 759.265 211.177 760.117 211.645C760.981 212.101 761.659 212.731 762.151 213.535C762.643 214.327 762.889 215.233 762.889 216.253C762.889 217.273 762.643 218.185 762.151 218.989C761.659 219.793 760.981 220.429 760.117 220.897C759.265 221.353 758.299 221.581 757.219 221.581ZM757.201 219.655C757.861 219.655 758.443 219.511 758.947 219.223C759.463 218.923 759.865 218.515 760.153 217.999C760.441 217.483 760.585 216.901 760.585 216.253C760.585 215.593 760.435 215.011 760.135 214.507C759.847 213.991 759.451 213.589 758.947 213.301C758.443 213.013 757.867 212.869 757.219 212.869C756.571 212.869 755.989 213.013 755.473 213.301C754.957 213.589 754.549 213.991 754.249 214.507C753.961 215.011 753.817 215.593 753.817 216.253C753.817 216.901 753.961 217.483 754.249 217.999C754.549 218.515 754.957 218.923 755.473 219.223C755.989 219.511 756.565 219.655 757.201 219.655ZM769.998 221.581C768.906 221.581 767.928 221.353 767.064 220.897C766.212 220.429 765.54 219.793 765.048 218.989C764.556 218.185 764.31 217.273 764.31 216.253C764.31 215.233 764.556 214.327 765.048 213.535C765.54 212.731 766.212 212.101 767.064 211.645C767.928 211.177 768.9 210.943 769.98 210.943C771.072 210.943 772.044 211.177 772.896 211.645C773.76 212.101 774.438 212.731 774.93 213.535C775.422 214.327 775.668 215.233 775.668 216.253C775.668 217.273 775.422 218.185 774.93 218.989C774.438 219.793 773.76 220.429 772.896 220.897C772.044 221.353 771.078 221.581 769.998 221.581ZM769.98 219.655C770.64 219.655 771.222 219.511 771.726 219.223C772.242 218.923 772.644 218.515 772.932 217.999C773.22 217.483 773.364 216.901 773.364 216.253C773.364 215.593 773.214 215.011 772.914 214.507C772.626 213.991 772.23 213.589 771.726 213.301C771.222 213.013 770.646 212.869 769.998 212.869C769.35 212.869 768.768 213.013 768.252 213.301C767.736 213.589 767.328 213.991 767.028 214.507C766.74 215.011 766.596 215.593 766.596 216.253C766.596 216.901 766.74 217.483 767.028 217.999C767.328 218.515 767.736 218.923 768.252 219.223C768.768 219.511 769.344 219.655 769.98 219.655ZM779.915 215.785H785.117V217.603H779.915V215.785ZM780.203 221.401H777.935V211.105H785.729V212.941H780.203V221.401ZM801.789 220.267C801.441 220.543 801.039 220.783 800.583 220.987C800.139 221.179 799.671 221.323 799.179 221.419C798.687 221.527 798.189 221.581 797.685 221.581C796.581 221.581 795.591 221.353 794.715 220.897C793.851 220.429 793.173 219.793 792.681 218.989C792.189 218.185 791.943 217.273 791.943 216.253C791.943 215.233 792.189 214.327 792.681 213.535C793.173 212.731 793.845 212.101 794.697 211.645C795.561 211.177 796.539 210.943 797.631 210.943C798.591 210.943 799.431 211.087 800.151 211.375C800.871 211.651 801.471 212.083 801.951 212.671L800.475 214.093C800.103 213.673 799.683 213.367 799.215 213.175C798.747 212.971 798.231 212.869 797.667 212.869C797.007 212.869 796.413 213.013 795.885 213.301C795.369 213.589 794.961 213.991 794.661 214.507C794.373 215.011 794.229 215.593 794.229 216.253C794.229 216.913 794.379 217.501 794.679 218.017C794.979 218.533 795.393 218.935 795.921 219.223C796.449 219.511 797.055 219.655 797.739 219.655C798.279 219.655 798.771 219.571 799.215 219.403C799.671 219.235 800.097 218.983 800.493 218.647L801.789 220.267ZM799.647 220.285V216.163H801.789V220.267L799.647 220.285ZM802.945 221.401L807.625 211.105H809.875L814.537 221.401H812.287L808.363 212.257H809.119L805.159 221.401H802.945ZM805.267 219.169L805.879 217.441H811.243L811.855 219.169H805.267ZM816.009 221.401V211.105H820.455C821.379 211.105 822.177 211.255 822.849 211.555C823.521 211.843 824.037 212.263 824.397 212.815C824.769 213.367 824.955 214.033 824.955 214.813C824.955 215.581 824.769 216.241 824.397 216.793C824.037 217.345 823.521 217.765 822.849 218.053C822.177 218.341 821.379 218.485 820.455 218.485H817.269L818.277 217.495V221.401H816.009ZM822.705 221.401L820.059 217.657H822.507L825.153 221.401H822.705ZM818.277 217.765L817.449 216.703H820.293C821.085 216.703 821.679 216.541 822.075 216.217C822.471 215.881 822.669 215.413 822.669 214.813C822.669 214.213 822.471 213.751 822.075 213.427C821.679 213.103 821.085 212.941 820.293 212.941H817.449L818.277 211.897V217.765ZM827.47 221.401V211.105H832.132C833.308 211.105 834.322 211.315 835.174 211.735C836.038 212.155 836.704 212.755 837.172 213.535C837.652 214.303 837.892 215.209 837.892 216.253C837.892 217.309 837.652 218.221 837.172 218.989C836.704 219.757 836.038 220.351 835.174 220.771C834.322 221.191 833.308 221.401 832.132 221.401H827.47ZM829.738 219.565H832.06C832.792 219.565 833.422 219.433 833.95 219.169C834.478 218.905 834.886 218.527 835.174 218.035C835.462 217.543 835.606 216.949 835.606 216.253C835.606 215.557 835.462 214.963 835.174 214.471C834.886 213.979 834.478 213.607 833.95 213.355C833.422 213.091 832.792 212.959 832.06 212.959H829.738V219.565ZM842.141 215.299H847.361V217.063H842.141V215.299ZM842.447 219.583H848.171V221.401H840.179V211.105H847.973V212.941H842.447V219.583ZM850.515 221.401V211.105H852.387L858.597 218.629H857.751V211.105H860.001V221.401H858.129L851.919 213.877H852.783V221.401H850.515Z" fill="black"/>
<path d="M563.298 937.997V918.549H567.582V926.369H576.932V918.549H581.216V937.997H576.932V929.905H567.582V937.997H563.298ZM596.284 938.337C594.221 938.337 592.374 937.906 590.742 937.045C589.132 936.161 587.863 934.96 586.934 933.441C586.004 931.922 585.54 930.2 585.54 928.273C585.54 926.346 586.004 924.635 586.934 923.139C587.863 921.62 589.132 920.43 590.742 919.569C592.374 918.685 594.21 918.243 596.25 918.243C598.312 918.243 600.148 918.685 601.758 919.569C603.39 920.43 604.67 921.62 605.6 923.139C606.529 924.635 606.994 926.346 606.994 928.273C606.994 930.2 606.529 931.922 605.6 933.441C604.67 934.96 603.39 936.161 601.758 937.045C600.148 937.906 598.324 938.337 596.284 938.337ZM596.25 934.699C597.496 934.699 598.596 934.427 599.548 933.883C600.522 933.316 601.282 932.546 601.826 931.571C602.37 930.596 602.642 929.497 602.642 928.273C602.642 927.026 602.358 925.927 601.792 924.975C601.248 924 600.5 923.241 599.548 922.697C598.596 922.153 597.508 921.881 596.284 921.881C595.06 921.881 593.96 922.153 592.986 922.697C592.011 923.241 591.24 924 590.674 924.975C590.13 925.927 589.858 927.026 589.858 928.273C589.858 929.497 590.13 930.596 590.674 931.571C591.24 932.546 592.011 933.316 592.986 933.883C593.96 934.427 595.048 934.699 596.25 934.699ZM614.514 937.997V922.051H608.122V918.549H625.19V922.051H618.798V937.997H614.514ZM637.673 937.997V918.549H646.479C648.7 918.549 650.616 918.946 652.225 919.739C653.857 920.532 655.115 921.666 655.999 923.139C656.906 924.59 657.359 926.301 657.359 928.273C657.359 930.268 656.906 931.99 655.999 933.441C655.115 934.892 653.857 936.014 652.225 936.807C650.616 937.6 648.7 937.997 646.479 937.997H637.673ZM641.957 934.529H646.343C647.726 934.529 648.916 934.28 649.913 933.781C650.91 933.282 651.681 932.568 652.225 931.639C652.769 930.71 653.041 929.588 653.041 928.273C653.041 926.958 652.769 925.836 652.225 924.907C651.681 923.978 650.91 923.275 649.913 922.799C648.916 922.3 647.726 922.051 646.343 922.051H641.957V934.529ZM665.385 926.471H675.245V929.803H665.385V926.471ZM665.963 934.563H676.775V937.997H661.679V918.549H676.401V922.017H665.963V934.563ZM695.584 932.251C695.584 933.475 695.244 934.54 694.564 935.447C693.907 936.354 692.966 937.068 691.742 937.589C690.518 938.088 689.022 938.337 687.254 938.337C685.735 938.337 684.239 938.133 682.766 937.725C681.315 937.317 680.148 936.784 679.264 936.127L680.862 932.795C681.678 933.407 682.675 933.894 683.854 934.257C685.033 934.62 686.234 934.801 687.458 934.801C688.909 934.801 689.917 934.586 690.484 934.155C691.051 933.724 691.334 933.214 691.334 932.625C691.334 932.081 691.119 931.65 690.688 931.333C690.28 931.016 689.725 930.766 689.022 930.585C688.342 930.381 687.594 930.2 686.778 930.041C685.962 929.86 685.146 929.656 684.33 929.429C683.514 929.202 682.766 928.885 682.086 928.477C681.406 928.069 680.851 927.525 680.42 926.845C680.012 926.165 679.808 925.304 679.808 924.261C679.808 923.06 680.148 922.006 680.828 921.099C681.508 920.192 682.46 919.49 683.684 918.991C684.931 918.492 686.393 918.243 688.07 918.243C689.271 918.243 690.473 918.379 691.674 918.651C692.898 918.9 693.963 919.32 694.87 919.909L693.408 923.241C692.547 922.674 691.64 922.289 690.688 922.085C689.759 921.858 688.841 921.745 687.934 921.745C686.574 921.745 685.588 921.96 684.976 922.391C684.387 922.822 684.092 923.366 684.092 924.023C684.092 924.567 684.296 924.998 684.704 925.315C685.135 925.632 685.69 925.893 686.37 926.097C687.05 926.278 687.798 926.448 688.614 926.607C689.453 926.766 690.269 926.97 691.062 927.219C691.878 927.446 692.626 927.763 693.306 928.171C694.009 928.556 694.564 929.078 694.972 929.735C695.38 930.392 695.584 931.231 695.584 932.251ZM703.439 933.509L703.201 928.511L712.925 918.549H717.685L709.185 927.593L706.771 930.075L703.439 933.509ZM699.597 937.997V918.549H703.881V937.997H699.597ZM713.129 937.997L705.955 929.463L708.743 926.369L718.195 937.997H713.129ZM721.112 937.997V918.549H725.396V937.997H721.112ZM731.306 937.997V918.549H734.842L746.572 932.761H744.974V918.549H749.224V937.997H745.688L733.958 923.785H735.59V937.997H731.306ZM772.146 935.855C771.488 936.376 770.729 936.83 769.868 937.215C769.029 937.578 768.145 937.85 767.216 938.031C766.286 938.235 765.346 938.337 764.394 938.337C762.308 938.337 760.438 937.906 758.784 937.045C757.152 936.161 755.871 934.96 754.942 933.441C754.012 931.922 753.548 930.2 753.548 928.273C753.548 926.346 754.012 924.635 754.942 923.139C755.871 921.62 757.14 920.43 758.75 919.569C760.382 918.685 762.229 918.243 764.292 918.243C766.105 918.243 767.692 918.515 769.052 919.059C770.412 919.58 771.545 920.396 772.452 921.507L769.663 924.193C768.961 923.4 768.168 922.822 767.284 922.459C766.4 922.074 765.425 921.881 764.36 921.881C763.113 921.881 761.991 922.153 760.994 922.697C760.019 923.241 759.248 924 758.682 924.975C758.138 925.927 757.866 927.026 757.866 928.273C757.866 929.52 758.149 930.63 758.716 931.605C759.282 932.58 760.064 933.339 761.062 933.883C762.059 934.427 763.204 934.699 764.496 934.699C765.516 934.699 766.445 934.54 767.284 934.223C768.145 933.906 768.95 933.43 769.698 932.795L772.146 935.855ZM768.1 935.889V928.103H772.146V935.855L768.1 935.889Z" fill="black"/>
<path d="M328.324 852.012V832.564H336.722C338.468 832.564 339.975 832.848 341.244 833.414C342.514 833.958 343.488 834.752 344.168 835.794C344.871 836.837 345.222 838.095 345.222 839.568C345.222 841.042 344.871 842.311 344.168 843.376C343.488 844.419 342.514 845.224 341.244 845.79C339.975 846.334 338.468 846.606 336.722 846.606H330.704L332.608 844.634V852.012H328.324ZM332.608 845.144L331.044 843.138H336.416C337.912 843.138 339.034 842.832 339.782 842.22C340.53 841.586 340.904 840.702 340.904 839.568C340.904 838.435 340.53 837.562 339.782 836.95C339.034 836.338 337.912 836.032 336.416 836.032H331.044L332.608 834.06V845.144ZM345.052 852.012L353.892 832.564H358.142L366.948 852.012H362.698L355.286 834.74H356.714L349.234 852.012H345.052ZM349.438 847.796L350.594 844.532H360.726L361.882 847.796H349.438ZM373.095 852.012V844.192L373.911 846.912L365.207 832.564H369.763L376.563 843.648H374.183L380.983 832.564H385.335L376.631 846.912L377.413 844.192V852.012H373.095ZM388.156 852.012V832.564H396.554C398.3 832.564 399.807 832.848 401.076 833.414C402.346 833.958 403.32 834.752 404 835.794C404.703 836.837 405.054 838.095 405.054 839.568C405.054 841.019 404.703 842.266 404 843.308C403.32 844.351 402.346 845.144 401.076 845.688C399.807 846.232 398.3 846.504 396.554 846.504H390.536L392.44 844.634V852.012H388.156ZM400.804 852.012L395.806 844.94H400.43L405.428 852.012H400.804ZM392.44 845.144L390.876 843.138H396.248C397.744 843.138 398.866 842.832 399.614 842.22C400.362 841.586 400.736 840.702 400.736 839.568C400.736 838.435 400.362 837.562 399.614 836.95C398.866 836.338 397.744 836.032 396.248 836.032H390.876L392.44 834.06V845.144ZM418.951 852.352C416.888 852.352 415.041 851.922 413.409 851.06C411.799 850.176 410.53 848.975 409.601 847.456C408.671 845.938 408.207 844.215 408.207 842.288C408.207 840.362 408.671 838.65 409.601 837.154C410.53 835.636 411.799 834.446 413.409 833.584C415.041 832.7 416.877 832.258 418.917 832.258C420.979 832.258 422.815 832.7 424.425 833.584C426.057 834.446 427.337 835.636 428.267 837.154C429.196 838.65 429.661 840.362 429.661 842.288C429.661 844.215 429.196 845.938 428.267 847.456C427.337 848.975 426.057 850.176 424.425 851.06C422.815 851.922 420.991 852.352 418.951 852.352ZM418.917 848.714C420.163 848.714 421.263 848.442 422.215 847.898C423.189 847.332 423.949 846.561 424.493 845.586C425.037 844.612 425.309 843.512 425.309 842.288C425.309 841.042 425.025 839.942 424.459 838.99C423.915 838.016 423.167 837.256 422.215 836.712C421.263 836.168 420.175 835.896 418.951 835.896C417.727 835.896 416.627 836.168 415.653 836.712C414.678 837.256 413.907 838.016 413.341 838.99C412.797 839.942 412.525 841.042 412.525 842.288C412.525 843.512 412.797 844.612 413.341 845.586C413.907 846.561 414.678 847.332 415.653 847.898C416.627 848.442 417.715 848.714 418.917 848.714ZM433.943 852.012V832.564H438.227V848.544H448.223V852.012H433.943ZM451.441 852.012V832.564H455.725V848.544H465.721V852.012H451.441Z" fill="black"/>
<path d="M1047.03 949.997V936.269H1052.96C1054.19 936.269 1055.26 936.469 1056.15 936.869C1057.05 937.253 1057.74 937.813 1058.22 938.549C1058.71 939.285 1058.96 940.173 1058.96 941.213C1058.96 942.237 1058.71 943.117 1058.22 943.853C1057.74 944.589 1057.05 945.149 1056.15 945.533C1055.26 945.917 1054.19 946.109 1052.96 946.109H1048.71L1050.06 944.789V949.997H1047.03ZM1055.96 949.997L1052.43 945.005H1055.7L1059.23 949.997H1055.96ZM1050.06 945.149L1048.95 943.733H1052.75C1053.8 943.733 1054.59 943.517 1055.12 943.085C1055.65 942.637 1055.91 942.013 1055.91 941.213C1055.91 940.413 1055.65 939.797 1055.12 939.365C1054.59 938.933 1053.8 938.717 1052.75 938.717H1048.95L1050.06 937.325V945.149ZM1064.93 941.861H1071.89V944.213H1064.93V941.861ZM1065.34 947.573H1072.97V949.997H1062.31V936.269H1072.71V938.717H1065.34V947.573ZM1082.5 950.237C1081.06 950.237 1079.78 949.933 1078.64 949.325C1077.5 948.701 1076.61 947.853 1075.95 946.781C1075.3 945.709 1074.97 944.493 1074.97 943.133C1074.97 941.773 1075.3 940.565 1075.95 939.509C1076.61 938.437 1077.5 937.597 1078.64 936.989C1079.78 936.365 1081.06 936.053 1082.5 936.053C1083.75 936.053 1084.84 936.245 1085.77 936.629C1086.71 936.997 1087.51 937.581 1088.17 938.381L1086.2 940.253C1085.72 939.693 1085.18 939.285 1084.57 939.029C1083.96 938.757 1083.3 938.621 1082.6 938.621C1081.72 938.621 1080.93 938.813 1080.22 939.197C1079.54 939.581 1078.99 940.117 1078.59 940.805C1078.21 941.477 1078.02 942.253 1078.02 943.133C1078.02 944.013 1078.21 944.797 1078.59 945.485C1078.99 946.173 1079.54 946.709 1080.22 947.093C1080.93 947.477 1081.72 947.669 1082.6 947.669C1083.3 947.669 1083.96 947.533 1084.57 947.261C1085.18 946.989 1085.72 946.573 1086.2 946.013L1088.17 947.909C1087.51 948.693 1086.71 949.277 1085.77 949.661C1084.82 950.045 1083.74 950.237 1082.5 950.237ZM1093.43 949.997V938.741H1088.92V936.269H1100.96V938.741H1096.45V949.997H1093.43ZM1100.09 949.997L1106.33 936.269H1109.33L1115.55 949.997H1112.55L1107.32 937.805H1108.32L1103.04 949.997H1100.09ZM1103.19 947.021L1104 944.717H1111.16L1111.97 947.021H1103.19ZM1117.51 949.997V936.269H1120.01L1128.29 946.301H1127.16V936.269H1130.16V949.997H1127.66L1119.38 939.965H1120.53V949.997H1117.51ZM1146.34 948.485C1145.87 948.853 1145.34 949.173 1144.73 949.445C1144.14 949.701 1143.51 949.893 1142.86 950.021C1142.2 950.165 1141.54 950.237 1140.87 950.237C1139.39 950.237 1138.07 949.933 1136.91 949.325C1135.75 948.701 1134.85 947.853 1134.19 946.781C1133.54 945.709 1133.21 944.493 1133.21 943.133C1133.21 941.773 1133.54 940.565 1134.19 939.509C1134.85 938.437 1135.75 937.597 1136.88 936.989C1138.03 936.365 1139.34 936.053 1140.79 936.053C1142.07 936.053 1143.19 936.245 1144.15 936.629C1145.11 936.997 1145.91 937.573 1146.55 938.357L1144.59 940.253C1144.09 939.693 1143.53 939.285 1142.91 939.029C1142.28 938.757 1141.59 938.621 1140.84 938.621C1139.96 938.621 1139.17 938.813 1138.47 939.197C1137.78 939.581 1137.23 940.117 1136.83 940.805C1136.45 941.477 1136.26 942.253 1136.26 943.133C1136.26 944.013 1136.46 944.797 1136.86 945.485C1137.26 946.173 1137.81 946.709 1138.51 947.093C1139.22 947.477 1140.03 947.669 1140.94 947.669C1141.66 947.669 1142.31 947.557 1142.91 947.333C1143.51 947.109 1144.08 946.773 1144.61 946.325L1146.34 948.485ZM1143.48 948.509V943.013H1146.34V948.485L1143.48 948.509ZM1150.09 949.997V936.269H1153.11V947.549H1160.17V949.997H1150.09ZM1165.06 941.861H1172.02V944.213H1165.06V941.861ZM1165.46 947.573H1173.1V949.997H1162.44V936.269H1172.83V938.717H1165.46V947.573ZM1077.08 978.997V965.269H1083.01C1084.24 965.269 1085.3 965.469 1086.2 965.869C1087.1 966.253 1087.78 966.813 1088.26 967.549C1088.76 968.285 1089.01 969.173 1089.01 970.213C1089.01 971.237 1088.76 972.117 1088.26 972.853C1087.78 973.589 1087.1 974.149 1086.2 974.533C1085.3 974.917 1084.24 975.109 1083.01 975.109H1078.76L1080.1 973.789V978.997H1077.08ZM1086.01 978.997L1082.48 974.005H1085.74L1089.27 978.997H1086.01ZM1080.1 974.149L1079 972.733H1082.79C1083.85 972.733 1084.64 972.517 1085.17 972.085C1085.7 971.637 1085.96 971.013 1085.96 970.213C1085.96 969.413 1085.7 968.797 1085.17 968.365C1084.64 967.933 1083.85 967.717 1082.79 967.717H1079L1080.1 966.325V974.149ZM1098.82 979.237C1097.36 979.237 1096.06 978.933 1094.91 978.325C1093.77 977.701 1092.87 976.853 1092.22 975.781C1091.56 974.709 1091.23 973.493 1091.23 972.133C1091.23 970.773 1091.56 969.565 1092.22 968.509C1092.87 967.437 1093.77 966.597 1094.91 965.989C1096.06 965.365 1097.35 965.053 1098.79 965.053C1100.25 965.053 1101.55 965.365 1102.68 965.989C1103.83 966.597 1104.74 967.437 1105.39 968.509C1106.05 969.565 1106.38 970.773 1106.38 972.133C1106.38 973.493 1106.05 974.709 1105.39 975.781C1104.74 976.853 1103.83 977.701 1102.68 978.325C1101.55 978.933 1100.26 979.237 1098.82 979.237ZM1098.79 976.669C1099.67 976.669 1100.45 976.477 1101.12 976.093C1101.81 975.693 1102.35 975.149 1102.73 974.461C1103.11 973.773 1103.31 972.997 1103.31 972.133C1103.31 971.253 1103.11 970.477 1102.71 969.805C1102.32 969.117 1101.79 968.581 1101.12 968.197C1100.45 967.813 1099.68 967.621 1098.82 967.621C1097.95 967.621 1097.18 967.813 1096.49 968.197C1095.8 968.581 1095.26 969.117 1094.86 969.805C1094.47 970.477 1094.28 971.253 1094.28 972.133C1094.28 972.997 1094.47 973.773 1094.86 974.461C1095.26 975.149 1095.8 975.693 1096.49 976.093C1097.18 976.477 1097.95 976.669 1098.79 976.669ZM1115.86 979.237C1114.4 979.237 1113.1 978.933 1111.94 978.325C1110.81 977.701 1109.91 976.853 1109.26 975.781C1108.6 974.709 1108.27 973.493 1108.27 972.133C1108.27 970.773 1108.6 969.565 1109.26 968.509C1109.91 967.437 1110.81 966.597 1111.94 965.989C1113.1 965.365 1114.39 965.053 1115.83 965.053C1117.29 965.053 1118.58 965.365 1119.72 965.989C1120.87 966.597 1121.78 967.437 1122.43 968.509C1123.09 969.565 1123.42 970.773 1123.42 972.133C1123.42 973.493 1123.09 974.709 1122.43 975.781C1121.78 976.853 1120.87 977.701 1119.72 978.325C1118.58 978.933 1117.3 979.237 1115.86 979.237ZM1115.83 976.669C1116.71 976.669 1117.49 976.477 1118.16 976.093C1118.85 975.693 1119.38 975.149 1119.77 974.461C1120.15 973.773 1120.34 972.997 1120.34 972.133C1120.34 971.253 1120.14 970.477 1119.74 969.805C1119.36 969.117 1118.83 968.581 1118.16 968.197C1117.49 967.813 1116.72 967.621 1115.86 967.621C1114.99 967.621 1114.22 967.813 1113.53 968.197C1112.84 968.581 1112.3 969.117 1111.9 969.805C1111.51 970.477 1111.32 971.253 1111.32 972.133C1111.32 972.997 1111.51 973.773 1111.9 974.461C1112.3 975.149 1112.84 975.693 1113.53 976.093C1114.22 976.477 1114.98 976.669 1115.83 976.669ZM1126.44 978.997V965.269H1129.03L1134.86 974.869H1133.64L1139.38 965.269H1141.97L1141.99 978.997H1139.11L1139.09 969.805H1139.54L1134.89 977.461H1133.52L1128.72 969.805H1129.32V978.997H1126.44Z" fill="black"/>
<path d="M1049.34 438.566L1042.85 419.118H1047.27L1052.95 436.526H1050.7L1056.65 419.118H1060.67L1066.34 436.526H1064.2L1070.02 419.118H1074.16L1067.67 438.566H1063.08L1057.95 423.164H1059.14L1053.97 438.566H1049.34ZM1086.48 438.906C1084.41 438.906 1082.57 438.475 1080.93 437.614C1079.32 436.73 1078.05 435.529 1077.13 434.01C1076.2 432.491 1075.73 430.769 1075.73 428.842C1075.73 426.915 1076.2 425.204 1077.13 423.708C1078.05 422.189 1079.32 420.999 1080.93 420.138C1082.57 419.254 1084.4 418.812 1086.44 418.812C1088.5 418.812 1090.34 419.254 1091.95 420.138C1093.58 420.999 1094.86 422.189 1095.79 423.708C1096.72 425.204 1097.19 426.915 1097.19 428.842C1097.19 430.769 1096.72 432.491 1095.79 434.01C1094.86 435.529 1093.58 436.73 1091.95 437.614C1090.34 438.475 1088.52 438.906 1086.48 438.906ZM1086.44 435.268C1087.69 435.268 1088.79 434.996 1089.74 434.452C1090.71 433.885 1091.47 433.115 1092.02 432.14C1092.56 431.165 1092.83 430.066 1092.83 428.842C1092.83 427.595 1092.55 426.496 1091.98 425.544C1091.44 424.569 1090.69 423.81 1089.74 423.266C1088.79 422.722 1087.7 422.45 1086.48 422.45C1085.25 422.45 1084.15 422.722 1083.18 423.266C1082.2 423.81 1081.43 424.569 1080.87 425.544C1080.32 426.496 1080.05 427.595 1080.05 428.842C1080.05 430.066 1080.32 431.165 1080.87 432.14C1081.43 433.115 1082.2 433.885 1083.18 434.452C1084.15 434.996 1085.24 435.268 1086.44 435.268ZM1101.47 438.566V419.118H1109.87C1111.61 419.118 1113.12 419.401 1114.39 419.968C1115.66 420.512 1116.63 421.305 1117.31 422.348C1118.01 423.391 1118.37 424.649 1118.37 426.122C1118.37 427.573 1118.01 428.819 1117.31 429.862C1116.63 430.905 1115.66 431.698 1114.39 432.242C1113.12 432.786 1111.61 433.058 1109.87 433.058H1103.85L1105.75 431.188V438.566H1101.47ZM1114.12 438.566L1109.12 431.494H1113.74L1118.74 438.566H1114.12ZM1105.75 431.698L1104.19 429.692H1109.56C1111.06 429.692 1112.18 429.386 1112.93 428.774C1113.67 428.139 1114.05 427.255 1114.05 426.122C1114.05 424.989 1113.67 424.116 1112.93 423.504C1112.18 422.892 1111.06 422.586 1109.56 422.586H1104.19L1105.75 420.614V431.698ZM1126.96 434.078L1126.72 429.08L1136.44 419.118H1141.2L1132.7 428.162L1130.29 430.644L1126.96 434.078ZM1123.12 438.566V419.118H1127.4V438.566H1123.12ZM1136.65 438.566L1129.47 430.032L1132.26 426.938L1141.71 438.566H1136.65ZM1163.11 438.906C1161.07 438.906 1159.24 438.475 1157.63 437.614C1156.02 436.73 1154.75 435.529 1153.82 434.01C1152.89 432.491 1152.43 430.769 1152.43 428.842C1152.43 426.915 1152.89 425.204 1153.82 423.708C1154.75 422.189 1156.02 420.999 1157.63 420.138C1159.24 419.254 1161.07 418.812 1163.11 418.812C1164.87 418.812 1166.42 419.084 1167.73 419.628C1169.07 420.149 1170.2 420.977 1171.13 422.11L1168.34 424.762C1167.66 423.969 1166.89 423.391 1166.03 423.028C1165.17 422.643 1164.24 422.45 1163.24 422.45C1162 422.45 1160.87 422.722 1159.88 423.266C1158.9 423.81 1158.13 424.569 1157.56 425.544C1157.02 426.496 1156.75 427.595 1156.75 428.842C1156.75 430.089 1157.02 431.199 1157.56 432.174C1158.13 433.149 1158.9 433.908 1159.88 434.452C1160.87 434.996 1162 435.268 1163.24 435.268C1164.24 435.268 1165.17 435.075 1166.03 434.69C1166.89 434.305 1167.66 433.715 1168.34 432.922L1171.13 435.608C1170.2 436.719 1169.07 437.546 1167.73 438.09C1166.39 438.634 1164.85 438.906 1163.11 438.906ZM1171.39 438.566L1180.23 419.118H1184.48L1193.28 438.566H1189.03L1181.62 421.294H1183.05L1175.57 438.566H1171.39ZM1175.77 434.35L1176.93 431.086H1187.06L1188.22 434.35H1175.77ZM1199.8 427.958H1209.63V431.392H1199.8V427.958ZM1200.35 438.566H1196.06V419.118H1210.79V422.586H1200.35V438.566ZM1218.43 427.04H1228.29V430.372H1218.43V427.04ZM1219.01 435.132H1229.82V438.566H1214.72V419.118H1229.45V422.586H1219.01V435.132Z" fill="black"/>
<path d="M1231.54 965.251C1231.54 966.475 1231.2 967.54 1230.52 968.447C1229.86 969.354 1228.92 970.068 1227.69 970.589C1226.47 971.088 1224.97 971.337 1223.21 971.337C1221.69 971.337 1220.19 971.133 1218.72 970.725C1217.27 970.317 1216.1 969.784 1215.22 969.127L1216.81 965.795C1217.63 966.407 1218.63 966.894 1219.81 967.257C1220.99 967.62 1222.19 967.801 1223.41 967.801C1224.86 967.801 1225.87 967.586 1226.44 967.155C1227 966.724 1227.29 966.214 1227.29 965.625C1227.29 965.081 1227.07 964.65 1226.64 964.333C1226.23 964.016 1225.68 963.766 1224.97 963.585C1224.29 963.381 1223.55 963.2 1222.73 963.041C1221.91 962.86 1221.1 962.656 1220.28 962.429C1219.47 962.202 1218.72 961.885 1218.04 961.477C1217.36 961.069 1216.8 960.525 1216.37 959.845C1215.96 959.165 1215.76 958.304 1215.76 957.261C1215.76 956.06 1216.1 955.006 1216.78 954.099C1217.46 953.192 1218.41 952.49 1219.64 951.991C1220.88 951.492 1222.35 951.243 1224.02 951.243C1225.22 951.243 1226.43 951.379 1227.63 951.651C1228.85 951.9 1229.92 952.32 1230.82 952.909L1229.36 956.241C1228.5 955.674 1227.59 955.289 1226.64 955.085C1225.71 954.858 1224.79 954.745 1223.89 954.745C1222.53 954.745 1221.54 954.96 1220.93 955.391C1220.34 955.822 1220.04 956.366 1220.04 957.023C1220.04 957.567 1220.25 957.998 1220.66 958.315C1221.09 958.632 1221.64 958.893 1222.32 959.097C1223 959.278 1223.75 959.448 1224.57 959.607C1225.41 959.766 1226.22 959.97 1227.01 960.219C1227.83 960.446 1228.58 960.763 1229.26 961.171C1229.96 961.556 1230.52 962.078 1230.92 962.735C1231.33 963.392 1231.54 964.231 1231.54 965.251ZM1239.26 959.471H1249.12V962.803H1239.26V959.471ZM1239.83 967.563H1250.65V970.997H1235.55V951.549H1250.27V955.017H1239.83V967.563ZM1255.07 970.997V951.549H1263.47C1265.22 951.549 1266.72 951.832 1267.99 952.399C1269.26 952.943 1270.24 953.736 1270.92 954.779C1271.62 955.822 1271.97 957.08 1271.97 958.553C1271.97 960.004 1271.62 961.25 1270.92 962.293C1270.24 963.336 1269.26 964.129 1267.99 964.673C1266.72 965.217 1265.22 965.489 1263.47 965.489H1257.45L1259.36 963.619V970.997H1255.07ZM1267.72 970.997L1262.72 963.925H1267.35L1272.34 970.997H1267.72ZM1259.36 964.129L1257.79 962.123H1263.16C1264.66 962.123 1265.78 961.817 1266.53 961.205C1267.28 960.57 1267.65 959.686 1267.65 958.553C1267.65 957.42 1267.28 956.547 1266.53 955.935C1265.78 955.323 1264.66 955.017 1263.16 955.017H1257.79L1259.36 953.045V964.129ZM1282.4 970.997L1273.83 951.549H1278.42L1285.9 968.991H1283.28L1290.87 951.549H1295.18L1286.65 970.997H1282.4ZM1301.91 959.471H1311.77V962.803H1301.91V959.471ZM1302.49 967.563H1313.3V970.997H1298.2V951.549H1312.93V955.017H1302.49V967.563ZM1317.73 970.997V951.549H1326.13C1327.87 951.549 1329.38 951.832 1330.65 952.399C1331.92 952.943 1332.89 953.736 1333.57 954.779C1334.27 955.822 1334.63 957.08 1334.63 958.553C1334.63 960.004 1334.27 961.25 1333.57 962.293C1332.89 963.336 1331.92 964.129 1330.65 964.673C1329.38 965.217 1327.87 965.489 1326.13 965.489H1320.11L1322.01 963.619V970.997H1317.73ZM1330.38 970.997L1325.38 963.925H1330L1335 970.997H1330.38ZM1322.01 964.129L1320.45 962.123H1325.82C1327.32 962.123 1328.44 961.817 1329.19 961.205C1329.93 960.57 1330.31 959.686 1330.31 958.553C1330.31 957.42 1329.93 956.547 1329.19 955.935C1328.44 955.323 1327.32 955.017 1325.82 955.017H1320.45L1322.01 953.045V964.129ZM1253.46 1012V992.549H1261.86C1263.61 992.549 1265.11 992.832 1266.38 993.399C1267.65 993.943 1268.63 994.736 1269.31 995.779C1270.01 996.822 1270.36 998.08 1270.36 999.553C1270.36 1001 1270.01 1002.25 1269.31 1003.29C1268.63 1004.34 1267.65 1005.13 1266.38 1005.67C1265.11 1006.22 1263.61 1006.49 1261.86 1006.49H1255.84L1257.75 1004.62V1012H1253.46ZM1266.11 1012L1261.11 1004.93H1265.74L1270.73 1012H1266.11ZM1257.75 1005.13L1256.18 1003.12H1261.55C1263.05 1003.12 1264.17 1002.82 1264.92 1002.21C1265.67 1001.57 1266.04 1000.69 1266.04 999.553C1266.04 998.42 1265.67 997.547 1264.92 996.935C1264.17 996.323 1263.05 996.017 1261.55 996.017H1256.18L1257.75 994.045V1005.13ZM1275.11 1012V992.549H1278.78L1287.04 1006.15H1285.31L1293.44 992.549H1297.11L1297.14 1012H1293.06L1293.03 998.975H1293.67L1287.08 1009.82H1285.14L1278.34 998.975H1279.19V1012H1275.11Z" fill="black"/>
<path d="M1032.6 847.451C1030.74 847.451 1029.14 847.111 1027.8 846.431C1026.49 845.728 1025.48 844.731 1024.78 843.439C1024.08 842.124 1023.72 840.572 1023.72 838.781V827.663H1028.01V838.645C1028.01 840.322 1028.4 841.603 1029.2 842.487C1029.99 843.371 1031.14 843.813 1032.63 843.813C1034.11 843.813 1035.23 843.382 1036 842.521C1036.79 841.637 1037.19 840.345 1037.19 838.645V827.663H1041.4V838.781C1041.4 840.572 1041.05 842.124 1040.35 843.439C1039.67 844.731 1038.67 845.728 1037.36 846.431C1036.04 847.111 1034.46 847.451 1032.6 847.451ZM1050.71 847.111V831.165H1044.31V827.663H1061.38V831.165H1054.99V847.111H1050.71ZM1064.47 847.111V827.663H1068.75V847.111H1064.47ZM1074.66 847.111V827.663H1078.95V843.643H1088.94V847.111H1074.66ZM1092.16 847.111V827.663H1096.44V847.111H1092.16ZM1105.92 847.111V831.165H1099.53V827.663H1116.6V831.165H1110.21V847.111H1105.92ZM1124.11 847.111V839.291L1124.93 842.011L1116.23 827.663H1120.78L1127.58 838.747H1125.2L1132 827.663H1136.35L1127.65 842.011L1128.43 839.291V847.111H1124.11Z" fill="black"/>
<path d="M1054.97 1064.25C1054.97 1065.48 1054.63 1066.54 1053.95 1067.45C1053.29 1068.36 1052.35 1069.07 1051.12 1069.59C1049.9 1070.09 1048.4 1070.34 1046.64 1070.34C1045.12 1070.34 1043.62 1070.14 1042.15 1069.73C1040.7 1069.32 1039.53 1068.79 1038.65 1068.13L1040.24 1064.8C1041.06 1065.41 1042.06 1065.9 1043.24 1066.26C1044.41 1066.62 1045.62 1066.8 1046.84 1066.8C1048.29 1066.8 1049.3 1066.59 1049.87 1066.16C1050.43 1065.73 1050.72 1065.22 1050.72 1064.63C1050.72 1064.08 1050.5 1063.65 1050.07 1063.34C1049.66 1063.02 1049.11 1062.77 1048.4 1062.59C1047.72 1062.38 1046.98 1062.2 1046.16 1062.04C1045.34 1061.86 1044.53 1061.66 1043.71 1061.43C1042.9 1061.21 1042.15 1060.89 1041.47 1060.48C1040.79 1060.07 1040.23 1059.53 1039.8 1058.85C1039.39 1058.17 1039.19 1057.31 1039.19 1056.26C1039.19 1055.06 1039.53 1054.01 1040.21 1053.1C1040.89 1052.2 1041.84 1051.49 1043.07 1050.99C1044.31 1050.5 1045.77 1050.25 1047.45 1050.25C1048.65 1050.25 1049.85 1050.38 1051.06 1050.65C1052.28 1050.9 1053.35 1051.32 1054.25 1051.91L1052.79 1055.24C1051.93 1054.68 1051.02 1054.29 1050.07 1054.09C1049.14 1053.86 1048.22 1053.75 1047.32 1053.75C1045.96 1053.75 1044.97 1053.96 1044.36 1054.39C1043.77 1054.82 1043.47 1055.37 1043.47 1056.03C1043.47 1056.57 1043.68 1057 1044.09 1057.32C1044.52 1057.64 1045.07 1057.9 1045.75 1058.1C1046.43 1058.28 1047.18 1058.45 1048 1058.61C1048.83 1058.77 1049.65 1058.97 1050.44 1059.22C1051.26 1059.45 1052.01 1059.77 1052.69 1060.17C1053.39 1060.56 1053.95 1061.08 1054.35 1061.74C1054.76 1062.4 1054.97 1063.23 1054.97 1064.25ZM1068.12 1070.34C1066.06 1070.34 1064.21 1069.91 1062.58 1069.05C1060.97 1068.16 1059.7 1066.96 1058.77 1065.44C1057.85 1063.93 1057.38 1062.2 1057.38 1060.28C1057.38 1058.35 1057.85 1056.64 1058.77 1055.14C1059.7 1053.62 1060.97 1052.43 1062.58 1051.57C1064.21 1050.69 1066.05 1050.25 1068.09 1050.25C1070.15 1050.25 1071.99 1050.69 1073.6 1051.57C1075.23 1052.43 1076.51 1053.62 1077.44 1055.14C1078.37 1056.64 1078.83 1058.35 1078.83 1060.28C1078.83 1062.2 1078.37 1063.93 1077.44 1065.44C1076.51 1066.96 1075.23 1068.16 1073.6 1069.05C1071.99 1069.91 1070.16 1070.34 1068.12 1070.34ZM1074.65 1074.42C1073.63 1074.42 1072.68 1074.26 1071.8 1073.94C1070.91 1073.65 1070.01 1073.15 1069.08 1072.45C1068.17 1071.75 1067.16 1070.79 1066.05 1069.59L1070.64 1068.47C1071.16 1069.15 1071.64 1069.68 1072.07 1070.07C1072.5 1070.48 1072.93 1070.77 1073.36 1070.95C1073.79 1071.13 1074.26 1071.22 1074.75 1071.22C1075.93 1071.22 1076.98 1070.75 1077.88 1069.8L1079.89 1072.18C1079.25 1072.95 1078.49 1073.51 1077.61 1073.88C1076.73 1074.24 1075.74 1074.42 1074.65 1074.42ZM1068.09 1066.7C1069.34 1066.7 1070.44 1066.43 1071.39 1065.89C1072.36 1065.32 1073.12 1064.55 1073.67 1063.57C1074.21 1062.6 1074.48 1061.5 1074.48 1060.28C1074.48 1059.03 1074.2 1057.93 1073.63 1056.98C1073.09 1056 1072.34 1055.24 1071.39 1054.7C1070.44 1054.16 1069.34 1053.88 1068.09 1053.88C1066.89 1053.88 1065.8 1054.16 1064.83 1054.7C1063.85 1055.24 1063.08 1056 1062.51 1056.98C1061.97 1057.93 1061.7 1059.03 1061.7 1060.28C1061.7 1061.5 1061.97 1062.6 1062.51 1063.57C1063.08 1064.55 1063.85 1065.32 1064.83 1065.89C1065.8 1066.43 1066.89 1066.7 1068.09 1066.7ZM1091.79 1070.34C1089.93 1070.34 1088.33 1070 1086.99 1069.32C1085.68 1068.62 1084.67 1067.62 1083.97 1066.33C1083.26 1065.01 1082.91 1063.46 1082.91 1061.67V1050.55H1087.2V1061.53C1087.2 1063.21 1087.59 1064.49 1088.39 1065.38C1089.18 1066.26 1090.33 1066.7 1091.82 1066.7C1093.29 1066.7 1094.42 1066.27 1095.19 1065.41C1095.98 1064.53 1096.38 1063.23 1096.38 1061.53V1050.55H1100.59V1061.67C1100.59 1063.46 1100.24 1065.01 1099.54 1066.33C1098.86 1067.62 1097.86 1068.62 1096.55 1069.32C1095.23 1070 1093.65 1070.34 1091.79 1070.34ZM1102.7 1070L1111.54 1050.55H1115.79L1124.6 1070H1120.35L1112.93 1052.73H1114.36L1106.88 1070H1102.7ZM1107.09 1065.78L1108.24 1062.52H1118.37L1119.53 1065.78H1107.09ZM1127.38 1070V1050.55H1135.78C1137.52 1050.55 1139.03 1050.84 1140.3 1051.4C1141.57 1051.95 1142.54 1052.74 1143.22 1053.78C1143.92 1054.82 1144.28 1056.08 1144.28 1057.56C1144.28 1059.01 1143.92 1060.25 1143.22 1061.3C1142.54 1062.34 1141.57 1063.13 1140.3 1063.68C1139.03 1064.22 1137.52 1064.49 1135.78 1064.49H1129.76L1131.66 1062.62V1070H1127.38ZM1140.03 1070L1135.03 1062.93H1139.65L1144.65 1070H1140.03ZM1131.66 1063.13L1130.1 1061.13H1135.47C1136.97 1061.13 1138.09 1060.82 1138.84 1060.21C1139.58 1059.57 1139.96 1058.69 1139.96 1057.56C1139.96 1056.42 1139.58 1055.55 1138.84 1054.94C1138.09 1054.33 1136.97 1054.02 1135.47 1054.02H1130.1L1131.66 1052.05V1063.13ZM1152.73 1058.47H1162.59V1061.81H1152.73V1058.47ZM1153.31 1066.57H1164.12V1070H1149.03V1050.55H1163.75V1054.02H1153.31V1066.57ZM1055.63 1111V1091.55H1064.02C1065.77 1091.55 1067.28 1091.84 1068.55 1092.4C1069.81 1092.95 1070.79 1093.74 1071.47 1094.78C1072.17 1095.82 1072.52 1097.08 1072.52 1098.56C1072.52 1100.01 1072.17 1101.25 1071.47 1102.3C1070.79 1103.34 1069.81 1104.13 1068.55 1104.68C1067.28 1105.22 1065.77 1105.49 1064.02 1105.49H1058.01L1059.91 1103.62V1111H1055.63ZM1068.27 1111L1063.28 1103.93H1067.9L1072.9 1111H1068.27ZM1059.91 1104.13L1058.35 1102.13H1063.72C1065.21 1102.13 1066.34 1101.82 1067.08 1101.21C1067.83 1100.57 1068.21 1099.69 1068.21 1098.56C1068.21 1097.42 1067.83 1096.55 1067.08 1095.94C1066.34 1095.33 1065.21 1095.02 1063.72 1095.02H1058.35L1059.91 1093.05V1104.13ZM1086.42 1111.34C1084.36 1111.34 1082.51 1110.91 1080.88 1110.05C1079.27 1109.16 1078 1107.96 1077.07 1106.44C1076.14 1104.93 1075.68 1103.2 1075.68 1101.28C1075.68 1099.35 1076.14 1097.64 1077.07 1096.14C1078 1094.62 1079.27 1093.43 1080.88 1092.57C1082.51 1091.69 1084.35 1091.25 1086.39 1091.25C1088.45 1091.25 1090.28 1091.69 1091.89 1092.57C1093.53 1093.43 1094.81 1094.62 1095.74 1096.14C1096.67 1097.64 1097.13 1099.35 1097.13 1101.28C1097.13 1103.2 1096.67 1104.93 1095.74 1106.44C1094.81 1107.96 1093.53 1109.16 1091.89 1110.05C1090.28 1110.91 1088.46 1111.34 1086.42 1111.34ZM1086.39 1107.7C1087.63 1107.7 1088.73 1107.43 1089.68 1106.89C1090.66 1106.32 1091.42 1105.55 1091.96 1104.57C1092.51 1103.6 1092.78 1102.5 1092.78 1101.28C1092.78 1100.03 1092.49 1098.93 1091.93 1097.98C1091.38 1097 1090.64 1096.24 1089.68 1095.7C1088.73 1095.16 1087.64 1094.88 1086.42 1094.88C1085.2 1094.88 1084.1 1095.16 1083.12 1095.7C1082.15 1096.24 1081.38 1097 1080.81 1097.98C1080.27 1098.93 1079.99 1100.03 1079.99 1101.28C1079.99 1102.5 1080.27 1103.6 1080.81 1104.57C1081.38 1105.55 1082.15 1106.32 1083.12 1106.89C1084.1 1107.43 1085.18 1107.7 1086.39 1107.7ZM1110.56 1111.34C1108.5 1111.34 1106.65 1110.91 1105.02 1110.05C1103.41 1109.16 1102.14 1107.96 1101.21 1106.44C1100.28 1104.93 1099.81 1103.2 1099.81 1101.28C1099.81 1099.35 1100.28 1097.64 1101.21 1096.14C1102.14 1094.62 1103.41 1093.43 1105.02 1092.57C1106.65 1091.69 1108.48 1091.25 1110.52 1091.25C1112.59 1091.25 1114.42 1091.69 1116.03 1092.57C1117.66 1093.43 1118.95 1094.62 1119.87 1096.14C1120.8 1097.64 1121.27 1099.35 1121.27 1101.28C1121.27 1103.2 1120.8 1104.93 1119.87 1106.44C1118.95 1107.96 1117.66 1109.16 1116.03 1110.05C1114.42 1110.91 1112.6 1111.34 1110.56 1111.34ZM1110.52 1107.7C1111.77 1107.7 1112.87 1107.43 1113.82 1106.89C1114.8 1106.32 1115.56 1105.55 1116.1 1104.57C1116.64 1103.6 1116.92 1102.5 1116.92 1101.28C1116.92 1100.03 1116.63 1098.93 1116.07 1097.98C1115.52 1097 1114.77 1096.24 1113.82 1095.7C1112.87 1095.16 1111.78 1094.88 1110.56 1094.88C1109.33 1094.88 1108.24 1095.16 1107.26 1095.7C1106.29 1096.24 1105.52 1097 1104.95 1097.98C1104.4 1098.93 1104.13 1100.03 1104.13 1101.28C1104.13 1102.5 1104.4 1103.6 1104.95 1104.57C1105.52 1105.55 1106.29 1106.32 1107.26 1106.89C1108.24 1107.43 1109.32 1107.7 1110.52 1107.7ZM1125.55 1111V1091.55H1129.22L1137.49 1105.15H1135.75L1143.88 1091.55H1147.55L1147.58 1111H1143.5L1143.47 1097.98H1144.12L1137.52 1108.82H1135.58L1128.78 1097.98H1129.63V1111H1125.55Z" fill="black"/>
<path d="M1070.26 724.92V705.472H1074.55V724.92H1070.26ZM1084.03 724.92V708.974H1077.64V705.472H1094.7V708.974H1088.31V724.92H1084.03ZM1121.57 719.174C1121.57 720.398 1121.23 721.464 1120.55 722.37C1119.89 723.277 1118.95 723.991 1117.73 724.512C1116.5 725.011 1115.01 725.26 1113.24 725.26C1111.72 725.26 1110.22 725.056 1108.75 724.648C1107.3 724.24 1106.13 723.708 1105.25 723.05L1106.85 719.718C1107.66 720.33 1108.66 720.818 1109.84 721.18C1111.02 721.543 1112.22 721.724 1113.44 721.724C1114.89 721.724 1115.9 721.509 1116.47 721.078C1117.04 720.648 1117.32 720.138 1117.32 719.548C1117.32 719.004 1117.1 718.574 1116.67 718.256C1116.26 717.939 1115.71 717.69 1115.01 717.508C1114.33 717.304 1113.58 717.123 1112.76 716.964C1111.95 716.783 1111.13 716.579 1110.31 716.352C1109.5 716.126 1108.75 715.808 1108.07 715.4C1107.39 714.992 1106.84 714.448 1106.4 713.768C1106 713.088 1105.79 712.227 1105.79 711.184C1105.79 709.983 1106.13 708.929 1106.81 708.022C1107.49 707.116 1108.44 706.413 1109.67 705.914C1110.92 705.416 1112.38 705.166 1114.05 705.166C1115.26 705.166 1116.46 705.302 1117.66 705.574C1118.88 705.824 1119.95 706.243 1120.85 706.832L1119.39 710.164C1118.53 709.598 1117.62 709.212 1116.67 709.008C1115.74 708.782 1114.83 708.668 1113.92 708.668C1112.56 708.668 1111.57 708.884 1110.96 709.314C1110.37 709.745 1110.08 710.289 1110.08 710.946C1110.08 711.49 1110.28 711.921 1110.69 712.238C1111.12 712.556 1111.67 712.816 1112.35 713.02C1113.03 713.202 1113.78 713.372 1114.6 713.53C1115.44 713.689 1116.25 713.893 1117.05 714.142C1117.86 714.369 1118.61 714.686 1119.29 715.094C1119.99 715.48 1120.55 716.001 1120.96 716.658C1121.36 717.316 1121.57 718.154 1121.57 719.174ZM1128.82 724.92V708.974H1122.43V705.472H1139.5V708.974H1133.1V724.92H1128.82ZM1151.4 725.26C1149.33 725.26 1147.49 724.83 1145.85 723.968C1144.24 723.084 1142.97 721.883 1142.05 720.364C1141.12 718.846 1140.65 717.123 1140.65 715.196C1140.65 713.27 1141.12 711.558 1142.05 710.062C1142.97 708.544 1144.24 707.354 1145.85 706.492C1147.49 705.608 1149.32 705.166 1151.36 705.166C1153.42 705.166 1155.26 705.608 1156.87 706.492C1158.5 707.354 1159.78 708.544 1160.71 710.062C1161.64 711.558 1162.11 713.27 1162.11 715.196C1162.11 717.123 1161.64 718.846 1160.71 720.364C1159.78 721.883 1158.5 723.084 1156.87 723.968C1155.26 724.83 1153.44 725.26 1151.4 725.26ZM1151.36 721.622C1152.61 721.622 1153.71 721.35 1154.66 720.806C1155.63 720.24 1156.39 719.469 1156.94 718.494C1157.48 717.52 1157.75 716.42 1157.75 715.196C1157.75 713.95 1157.47 712.85 1156.9 711.898C1156.36 710.924 1155.61 710.164 1154.66 709.62C1153.71 709.076 1152.62 708.804 1151.4 708.804C1150.17 708.804 1149.07 709.076 1148.1 709.62C1147.12 710.164 1146.35 710.924 1145.79 711.898C1145.24 712.85 1144.97 713.95 1144.97 715.196C1144.97 716.42 1145.24 717.52 1145.79 718.494C1146.35 719.469 1147.12 720.24 1148.1 720.806C1149.07 721.35 1150.16 721.622 1151.36 721.622ZM1166.39 724.92V705.472H1174.79C1176.53 705.472 1178.04 705.756 1179.31 706.322C1180.58 706.866 1181.55 707.66 1182.23 708.702C1182.93 709.745 1183.29 711.003 1183.29 712.476C1183.29 713.927 1182.93 715.174 1182.23 716.216C1181.55 717.259 1180.58 718.052 1179.31 718.596C1178.04 719.14 1176.53 719.412 1174.79 719.412H1168.77L1170.67 717.542V724.92H1166.39ZM1179.04 724.92L1174.04 717.848H1178.66L1183.66 724.92H1179.04ZM1170.67 718.052L1169.11 716.046H1174.48C1175.98 716.046 1177.1 715.74 1177.85 715.128C1178.59 714.494 1178.97 713.61 1178.97 712.476C1178.97 711.343 1178.59 710.47 1177.85 709.858C1177.1 709.246 1175.98 708.94 1174.48 708.94H1169.11L1170.67 706.968V718.052ZM1191.74 713.394H1201.6V716.726H1191.74V713.394ZM1192.32 721.486H1203.13V724.92H1188.04V705.472H1202.76V708.94H1192.32V721.486ZM1216.96 724.92V705.472H1225.35C1227.1 705.472 1228.61 705.756 1229.88 706.322C1231.15 706.866 1232.12 707.66 1232.8 708.702C1233.5 709.745 1233.85 711.003 1233.85 712.476C1233.85 713.927 1233.5 715.174 1232.8 716.216C1232.12 717.259 1231.15 718.052 1229.88 718.596C1228.61 719.14 1227.1 719.412 1225.35 719.412H1219.34L1221.24 717.542V724.92H1216.96ZM1229.6 724.92L1224.61 717.848H1229.23L1234.23 724.92H1229.6ZM1221.24 718.052L1219.68 716.046H1225.05C1226.54 716.046 1227.67 715.74 1228.41 715.128C1229.16 714.494 1229.54 713.61 1229.54 712.476C1229.54 711.343 1229.16 710.47 1228.41 709.858C1227.67 709.246 1226.54 708.94 1225.05 708.94H1219.68L1221.24 706.968V718.052ZM1247.75 725.26C1245.69 725.26 1243.84 724.83 1242.21 723.968C1240.6 723.084 1239.33 721.883 1238.4 720.364C1237.47 718.846 1237.01 717.123 1237.01 715.196C1237.01 713.27 1237.47 711.558 1238.4 710.062C1239.33 708.544 1240.6 707.354 1242.21 706.492C1243.84 705.608 1245.68 705.166 1247.72 705.166C1249.78 705.166 1251.62 705.608 1253.22 706.492C1254.86 707.354 1256.14 708.544 1257.07 710.062C1258 711.558 1258.46 713.27 1258.46 715.196C1258.46 717.123 1258 718.846 1257.07 720.364C1256.14 721.883 1254.86 723.084 1253.22 723.968C1251.62 724.83 1249.79 725.26 1247.75 725.26ZM1247.72 721.622C1248.96 721.622 1250.06 721.35 1251.01 720.806C1251.99 720.24 1252.75 719.469 1253.29 718.494C1253.84 717.52 1254.11 716.42 1254.11 715.196C1254.11 713.95 1253.83 712.85 1253.26 711.898C1252.71 710.924 1251.97 710.164 1251.01 709.62C1250.06 709.076 1248.97 708.804 1247.75 708.804C1246.53 708.804 1245.43 709.076 1244.45 709.62C1243.48 710.164 1242.71 710.924 1242.14 711.898C1241.6 712.85 1241.32 713.95 1241.32 715.196C1241.32 716.42 1241.6 717.52 1242.14 718.494C1242.71 719.469 1243.48 720.24 1244.45 720.806C1245.43 721.35 1246.52 721.622 1247.72 721.622ZM1271.89 725.26C1269.83 725.26 1267.98 724.83 1266.35 723.968C1264.74 723.084 1263.47 721.883 1262.54 720.364C1261.61 718.846 1261.15 717.123 1261.15 715.196C1261.15 713.27 1261.61 711.558 1262.54 710.062C1263.47 708.544 1264.74 707.354 1266.35 706.492C1267.98 705.608 1269.82 705.166 1271.86 705.166C1273.92 705.166 1275.75 705.608 1277.36 706.492C1279 707.354 1280.28 708.544 1281.21 710.062C1282.13 711.558 1282.6 713.27 1282.6 715.196C1282.6 717.123 1282.13 718.846 1281.21 720.364C1280.28 721.883 1279 723.084 1277.36 723.968C1275.75 724.83 1273.93 725.26 1271.89 725.26ZM1271.86 721.622C1273.1 721.622 1274.2 721.35 1275.15 720.806C1276.13 720.24 1276.89 719.469 1277.43 718.494C1277.98 717.52 1278.25 716.42 1278.25 715.196C1278.25 713.95 1277.96 712.85 1277.4 711.898C1276.85 710.924 1276.11 710.164 1275.15 709.62C1274.2 709.076 1273.11 708.804 1271.89 708.804C1270.67 708.804 1269.57 709.076 1268.59 709.62C1267.62 710.164 1266.85 710.924 1266.28 711.898C1265.74 712.85 1265.46 713.95 1265.46 715.196C1265.46 716.42 1265.74 717.52 1266.28 718.494C1266.85 719.469 1267.62 720.24 1268.59 720.806C1269.57 721.35 1270.65 721.622 1271.86 721.622ZM1286.88 724.92V705.472H1290.55L1298.82 719.072H1297.08L1305.21 705.472H1308.88L1308.91 724.92H1304.83L1304.8 711.898H1305.45L1298.85 722.744H1296.91L1290.11 711.898H1290.96V724.92H1286.88Z" fill="black"/>
<path d="M785.729 1116.84H790.949V1118.6H785.729V1116.84ZM786.035 1121.12H791.759V1122.94H783.767V1112.64H791.561V1114.48H786.035V1121.12ZM794.103 1122.94V1112.64H795.975L802.185 1120.17H801.339V1112.64H803.589V1122.94H801.717L795.507 1115.41H796.371V1122.94H794.103ZM808.614 1122.94V1114.5H805.23V1112.64H814.266V1114.5H810.882V1122.94H808.614ZM815.899 1122.94V1112.64H820.345C821.269 1112.64 822.067 1112.79 822.739 1113.09C823.411 1113.38 823.927 1113.8 824.287 1114.35C824.659 1114.9 824.845 1115.57 824.845 1116.35C824.845 1117.12 824.659 1117.78 824.287 1118.33C823.927 1118.88 823.411 1119.3 822.739 1119.59C822.067 1119.88 821.269 1120.02 820.345 1120.02H817.159L818.167 1119.03V1122.94H815.899ZM822.595 1122.94L819.949 1119.19H822.397L825.043 1122.94H822.595ZM818.167 1119.3L817.339 1118.24H820.183C820.975 1118.24 821.569 1118.08 821.965 1117.75C822.361 1117.42 822.559 1116.95 822.559 1116.35C822.559 1115.75 822.361 1115.29 821.965 1114.96C821.569 1114.64 820.975 1114.48 820.183 1114.48H817.339L818.167 1113.43V1119.3ZM829.723 1122.94V1118.8L830.155 1120.24L825.547 1112.64H827.959L831.559 1118.51H830.299L833.899 1112.64H836.203L831.595 1120.24L832.009 1118.8V1122.94H829.723Z" fill="black"/>
</svg>
