<svg width="1407" height="1099" viewBox="0 0 1407 1099" fill="none" xmlns="http://www.w3.org/2000/svg">
<path d="M759.116 1016.65L748.744 1005.07C748.65 1004.97 748.534 1004.88 748.404 1004.83C748.274 1004.77 748.132 1004.74 747.989 1004.74C747.846 1004.74 747.705 1004.77 747.574 1004.83C747.444 1004.88 747.328 1004.97 747.235 1005.07L736.866 1016.65C736.834 1016.69 736.814 1016.73 736.807 1016.77C736.8 1016.82 736.807 1016.87 736.827 1016.91C736.847 1016.95 736.879 1016.99 736.919 1017.01C736.959 1017.04 737.006 1017.05 737.053 1017.05H739.585C739.728 1017.05 739.866 1016.99 739.963 1016.88L746.803 1009.25V1026.29C746.803 1026.43 746.916 1026.54 747.053 1026.54H748.928C749.066 1026.54 749.178 1026.43 749.178 1026.29V1009.25L756.019 1016.88C756.113 1016.99 756.25 1017.05 756.397 1017.05H758.928C759.141 1017.05 759.256 1016.81 759.116 1016.65Z" fill="black"/>
<path d="M90.5078 74.353V395.161H217.964L355.802 391.739V378.179H298.045C299.901 335.863 337.323 323.225 355.802 322.195V74.353H90.5078Z" fill="#4572C5"/>
<path d="M217.964 395.161V962.514H459.943V924.921H406.912C409.895 887.5 443.509 871.273 459.943 867.838V845.412V395.161L355.802 391.739L217.964 395.161Z" fill="#4572C5"/>
<path d="M1127.65 957.161V825.276H926.398V838.278H984.718C983.657 880.173 945.396 891.728 926.398 892.268V957.161H1127.65Z" fill="#7030A2"/>
<path d="M1127.65 718.765H926.398V735.151H984.497C979.724 775.507 943.776 789.237 926.398 791.058V825.276H1127.65V718.765Z" fill="#7030A2"/>
<path d="M1316.49 450.075H923.941V601.419H976.878L975.855 549.585C1017.39 553.651 1029.96 585.836 1031.06 601.419H1127.65H1128.83H1316.49V450.075Z" fill="#EE7E32"/>
<path d="M1316.49 957.161V601.419H1128.83H1127.65V619.723H1187.77C1181.82 664.02 1145.21 676.628 1127.65 677.395V718.765V825.276V957.161H1316.49Z" fill="#EE7E32"/>
<path d="M1316.49 74.353H836.148V450.075H923.941H1316.49V74.353Z" fill="#6FAE46"/>
<path d="M90.5078 74.353V73.103H89.2578V74.353H90.5078ZM1316.49 74.353H1317.74V73.103H1316.49V74.353ZM1316.49 957.161V958.411H1317.74V957.161H1316.49ZM799.931 957.161V955.911H798.681V957.161H799.931ZM90.5078 395.161H89.2578V396.411H90.5078V395.161ZM217.964 962.514H216.714V963.764H217.964V962.514ZM701.923 962.514H703.173V961.264H701.923V962.514ZM355.802 322.195L355.872 323.444L357.052 323.378V322.195H355.802ZM836.148 695.017L837.034 695.9L837.398 695.534V695.017H836.148ZM686.314 845.412V846.662H686.833L687.2 846.294L686.314 845.412ZM1031.06 601.419L1029.82 601.507L1029.9 602.669H1031.06V601.419ZM923.941 601.419H922.691V601.439L922.692 601.458L923.941 601.419ZM976.878 601.419V602.669H978.153L978.128 601.395L976.878 601.419ZM1127.65 677.395L1127.6 676.146L1126.4 676.198V677.395H1127.65ZM1127.65 619.723H1126.4V620.973H1127.65V619.723ZM926.398 680.208H927.648V680.189L927.648 680.169L926.398 680.208ZM926.398 735.151H925.148V736.401H926.398V735.151ZM926.398 791.058L926.268 789.815L925.148 789.932V791.058H926.398ZM926.398 892.268L926.363 891.019L925.148 891.053V892.268H926.398ZM459.943 924.921H461.193V923.671H459.943V924.921ZM459.943 867.838L460.199 869.061L461.193 868.853V867.838H459.943ZM459.943 395.161H461.193V393.952L459.984 393.912L459.943 395.161ZM298.045 378.179L296.796 378.125L296.739 379.429H298.045V378.179ZM406.912 924.921L405.666 924.822L405.558 926.171H406.912V924.921ZM984.718 838.278L985.967 838.31L986 837.028H984.718V838.278ZM984.497 735.151L985.738 735.298L985.904 733.901H984.497V735.151ZM975.855 549.585L975.977 548.341L974.577 548.204L974.605 549.61L975.855 549.585ZM701.923 1010.41H700.673V1011.67L701.935 1011.66L701.923 1010.41ZM799.931 1010.41L799.893 1011.66L801.181 1011.7V1010.41H799.931ZM748.504 965.113L749.753 965.082L747.255 965.046L748.504 965.113ZM355.802 378.179H357.052V376.929H355.802V378.179ZM926.398 838.278H925.148V839.528H926.398V838.278ZM1187.77 619.723L1189.01 619.889L1189.2 618.473H1187.77V619.723ZM89.2578 74.353V395.161H91.7578V74.353H89.2578ZM90.5078 396.411H217.964V393.911H90.5078V396.411ZM216.714 395.161V962.514H219.214V395.161H216.714ZM90.5078 75.603H355.802V73.103H90.5078V75.603ZM354.552 74.353V322.195H357.052V74.353H354.552ZM355.802 75.603H836.148V73.103H355.802V75.603ZM836.148 75.603H1316.49V73.103H836.148V75.603ZM835.263 694.135L685.428 844.53L687.2 846.294L837.034 695.9L835.263 694.135ZM686.314 844.162H603.641V846.662H686.314V844.162ZM1315.24 74.353V450.075H1317.74V74.353H1315.24ZM923.941 451.325H1316.49V448.825H923.941V451.325ZM1315.24 450.075V601.419H1317.74V450.075H1315.24ZM1315.24 601.419V957.161H1317.74V601.419H1315.24ZM922.691 450.075V601.419H925.191V450.075H922.691ZM923.941 602.669H976.878V600.169H923.941V602.669ZM1316.49 955.911H1127.65V958.411H1316.49V955.911ZM1316.49 600.169H1128.83V602.669H1316.49V600.169ZM1128.83 600.169H1127.65V602.669H1128.83V600.169ZM1127.65 600.169H1031.06V602.669H1127.65V600.169ZM1126.4 601.419V619.723H1128.9V601.419H1126.4ZM1128.9 718.765V677.395H1126.4V718.765H1128.9ZM1127.65 717.515H926.398V720.015H1127.65V717.515ZM927.648 718.765V680.208H925.148V718.765H927.648ZM925.148 680.208V735.151H927.648V680.208H925.148ZM1128.9 957.161V825.276H1126.4V957.161H1128.9ZM1128.9 825.276V718.765H1126.4V825.276H1128.9ZM1127.65 824.026H926.398V826.526H1127.65V824.026ZM927.648 825.276V791.058H925.148V825.276H927.648ZM1127.65 955.911H926.398V958.411H1127.65V955.911ZM926.398 955.911H799.931V958.411H926.398V955.911ZM927.648 957.161V892.268H925.148V957.161H927.648ZM217.964 963.764H459.943V961.264H217.964V963.764ZM459.943 963.764H701.923V961.264H459.943V963.764ZM461.193 962.514V924.921H458.693V962.514H461.193ZM355.761 392.988L459.902 396.411L459.984 393.912L355.843 390.49L355.761 392.988ZM217.995 396.411L355.833 392.989L355.771 390.489L217.933 393.912L217.995 396.411ZM355.733 320.947C346.303 321.473 332.086 324.948 319.959 333.691C307.784 342.469 297.743 356.546 296.796 378.125L299.294 378.234C300.203 357.496 309.801 344.096 321.421 335.719C333.089 327.306 346.823 323.948 355.872 323.444L355.733 320.947ZM459.687 866.614C451.292 868.369 438.584 873.367 427.576 882.681C416.543 892.015 407.189 905.717 405.666 924.822L408.158 925.021C409.618 906.704 418.562 893.582 429.191 884.589C439.844 875.576 452.159 870.742 460.199 869.061L459.687 866.614ZM926.434 893.518C936.114 893.242 950.675 890.171 962.987 881.815C975.355 873.422 985.426 859.704 985.967 838.31L983.468 838.246C982.949 858.747 973.359 871.755 961.583 879.747C949.749 887.778 935.68 890.754 926.363 891.019L926.434 893.518ZM926.529 792.301C935.409 791.371 948.96 787.415 960.918 778.56C972.91 769.681 983.306 755.866 985.738 735.298L983.256 735.004C980.915 754.793 970.95 768.021 959.431 776.551C947.877 785.105 934.765 788.924 926.268 789.815L926.529 792.301ZM1032.31 601.332C1031.18 585.353 1018.3 552.485 975.977 548.341L975.733 550.829C1016.47 554.817 1028.75 586.319 1029.82 601.507L1032.31 601.332ZM700.673 962.514V1010.41H703.173V962.514H700.673ZM798.681 957.161V1010.41H801.181V957.161H798.681ZM701.935 1011.66C709.5 1011.59 720.92 1009.18 730.729 1002.18C740.59 995.148 748.758 983.516 749.752 965.181L747.255 965.046C746.305 982.596 738.541 993.539 729.277 1000.15C719.96 1006.79 709.062 1009.09 701.91 1009.16L701.935 1011.66ZM799.97 1009.16C791.752 1008.91 779.352 1006.38 768.937 999.645C758.577 992.947 750.183 982.106 749.753 965.082L747.254 965.145C747.708 983.122 756.641 994.672 767.58 1001.74C778.464 1008.78 791.336 1011.4 799.893 1011.66L799.97 1009.16ZM461.193 867.838V845.412H458.693V867.838H461.193ZM461.193 845.412V395.161H458.693V845.412H461.193ZM603.641 844.162H459.943V846.662H603.641V844.162ZM298.045 379.429H355.802V376.929H298.045V379.429ZM354.552 378.179V391.739H357.052V378.179H354.552ZM406.912 926.171H459.943V923.671H406.912V926.171ZM984.718 837.028H926.398V839.528H984.718V837.028ZM927.648 838.278V825.276H925.148V838.278H927.648ZM926.398 736.401H984.497V733.901H926.398V736.401ZM927.648 680.169L925.191 601.38L922.692 601.458L925.149 680.247L927.648 680.169ZM1127.71 678.643C1145.61 677.862 1182.95 665.011 1189.01 619.889L1186.53 619.556C1180.69 663.029 1144.81 675.394 1127.6 676.146L1127.71 678.643ZM1127.65 620.973H1187.77V618.473H1127.65V620.973ZM978.128 601.395L977.105 549.56L974.605 549.61L975.629 601.444L978.128 601.395ZM834.898 74.353V450.075H837.398V74.353H834.898ZM834.898 450.075V695.017H837.398V450.075H834.898ZM923.941 448.825H836.148V451.325H923.941V448.825ZM925.148 718.765V735.151H927.648V718.765H925.148Z" fill="black" fill-opacity="0.6"/>
<path d="M221.439 143.985V124.537H230.891C233.362 124.537 235.221 125.002 236.467 125.931C237.737 126.86 238.371 128.096 238.371 129.637C238.371 131.156 237.85 132.357 236.807 133.241C235.787 134.125 234.405 134.567 232.659 134.567L233.203 133.479C235.085 133.479 236.581 133.921 237.691 134.805C238.802 135.689 239.357 136.97 239.357 138.647C239.357 140.324 238.689 141.639 237.351 142.591C236.014 143.52 234.053 143.985 231.469 143.985H221.439ZM225.723 140.823H231.197C232.444 140.823 233.396 140.619 234.053 140.211C234.711 139.78 235.039 139.134 235.039 138.273C235.039 137.389 234.711 136.743 234.053 136.335C233.396 135.927 232.444 135.723 231.197 135.723H225.145V132.629H230.415C231.594 132.629 232.489 132.425 233.101 132.017C233.736 131.586 234.053 130.963 234.053 130.147C234.053 129.354 233.736 128.753 233.101 128.345C232.489 127.914 231.594 127.699 230.415 127.699H225.723V140.823ZM247.259 132.459H257.119V135.791H247.259V132.459ZM247.837 140.551H258.649V143.985H243.553V124.537H258.275V128.005H247.837V140.551ZM277.458 138.239C277.458 139.463 277.118 140.528 276.438 141.435C275.781 142.342 274.84 143.056 273.616 143.577C272.392 144.076 270.896 144.325 269.128 144.325C267.609 144.325 266.113 144.121 264.64 143.713C263.189 143.305 262.022 142.772 261.138 142.115L262.736 138.783C263.552 139.395 264.549 139.882 265.728 140.245C266.907 140.608 268.108 140.789 269.332 140.789C270.783 140.789 271.791 140.574 272.358 140.143C272.925 139.712 273.208 139.202 273.208 138.613C273.208 138.069 272.993 137.638 272.562 137.321C272.154 137.004 271.599 136.754 270.896 136.573C270.216 136.369 269.468 136.188 268.652 136.029C267.836 135.848 267.02 135.644 266.204 135.417C265.388 135.19 264.64 134.873 263.96 134.465C263.28 134.057 262.725 133.513 262.294 132.833C261.886 132.153 261.682 131.292 261.682 130.249C261.682 129.048 262.022 127.994 262.702 127.087C263.382 126.18 264.334 125.478 265.558 124.979C266.805 124.48 268.267 124.231 269.944 124.231C271.145 124.231 272.347 124.367 273.548 124.639C274.772 124.888 275.837 125.308 276.744 125.897L275.282 129.229C274.421 128.662 273.514 128.277 272.562 128.073C271.633 127.846 270.715 127.733 269.808 127.733C268.448 127.733 267.462 127.948 266.85 128.379C266.261 128.81 265.966 129.354 265.966 130.011C265.966 130.555 266.17 130.986 266.578 131.303C267.009 131.62 267.564 131.881 268.244 132.085C268.924 132.266 269.672 132.436 270.488 132.595C271.327 132.754 272.143 132.958 272.936 133.207C273.752 133.434 274.5 133.751 275.18 134.159C275.883 134.544 276.438 135.066 276.846 135.723C277.254 136.38 277.458 137.219 277.458 138.239ZM281.471 143.985V124.537H289.869C291.614 124.537 293.121 124.82 294.391 125.387C295.66 125.931 296.635 126.724 297.315 127.767C298.017 128.81 298.369 130.068 298.369 131.541C298.369 133.014 298.017 134.284 297.315 135.349C296.635 136.392 295.66 137.196 294.391 137.763C293.121 138.307 291.614 138.579 289.869 138.579H283.851L285.755 136.607V143.985H281.471ZM285.755 137.117L284.191 135.111H289.563C291.059 135.111 292.181 134.805 292.929 134.193C293.677 133.558 294.051 132.674 294.051 131.541C294.051 130.408 293.677 129.535 292.929 128.923C292.181 128.311 291.059 128.005 289.563 128.005H284.191L285.755 126.033V137.117ZM302.854 143.985V124.537H307.138V140.517H317.134V143.985H302.854Z" fill="black"/>
<path d="M123.512 369.068H104.064V364.784H111.884V355.434H104.064V351.15H123.512V355.434H115.42V364.784H123.512V369.068ZM123.852 336.082C123.852 338.145 123.421 339.992 122.56 341.624C121.676 343.234 120.474 344.503 118.956 345.432C117.437 346.362 115.714 346.826 113.788 346.826C111.861 346.826 110.15 346.362 108.654 345.432C107.135 344.503 105.945 343.234 105.084 341.624C104.2 339.992 103.758 338.156 103.758 336.116C103.758 334.054 104.2 332.218 105.084 330.608C105.945 328.976 107.135 327.696 108.654 326.766C110.15 325.837 111.861 325.372 113.788 325.372C115.714 325.372 117.437 325.837 118.956 326.766C120.474 327.696 121.676 328.976 122.56 330.608C123.421 332.218 123.852 334.042 123.852 336.082ZM120.214 336.116C120.214 334.87 119.942 333.77 119.398 332.818C118.831 331.844 118.06 331.084 117.086 330.54C116.111 329.996 115.012 329.724 113.788 329.724C112.541 329.724 111.442 330.008 110.49 330.574C109.515 331.118 108.756 331.866 108.212 332.818C107.668 333.77 107.396 334.858 107.396 336.082C107.396 337.306 107.668 338.406 108.212 339.38C108.756 340.355 109.515 341.126 110.49 341.692C111.442 342.236 112.541 342.508 113.788 342.508C115.012 342.508 116.111 342.236 117.086 341.692C118.06 341.126 118.831 340.355 119.398 339.38C119.942 338.406 120.214 337.318 120.214 336.116ZM123.512 317.852H107.566V324.244H104.064V307.176H107.566V313.568H123.512V317.852ZM123.512 294.693H104.064V285.887C104.064 283.666 104.46 281.75 105.254 280.141C106.047 278.509 107.18 277.251 108.654 276.367C110.104 275.46 111.816 275.007 113.788 275.007C115.782 275.007 117.505 275.46 118.956 276.367C120.406 277.251 121.528 278.509 122.322 280.141C123.115 281.75 123.512 283.666 123.512 285.887V294.693ZM120.044 290.409V286.023C120.044 284.64 119.794 283.45 119.296 282.453C118.797 281.456 118.083 280.685 117.154 280.141C116.224 279.597 115.102 279.325 113.788 279.325C112.473 279.325 111.351 279.597 110.422 280.141C109.492 280.685 108.79 281.456 108.314 282.453C107.815 283.45 107.566 284.64 107.566 286.023V290.409H120.044ZM111.986 266.981V257.121H115.318V266.981H111.986ZM120.078 266.403V255.591H123.512V270.687H104.064V255.965H107.532V266.403H120.078ZM117.766 236.782C118.99 236.782 120.055 237.122 120.962 237.802C121.868 238.459 122.582 239.4 123.104 240.624C123.602 241.848 123.852 243.344 123.852 245.112C123.852 246.63 123.648 248.126 123.24 249.6C122.832 251.05 122.299 252.218 121.642 253.102L118.31 251.504C118.922 250.688 119.409 249.69 119.772 248.512C120.134 247.333 120.316 246.132 120.316 244.908C120.316 243.457 120.1 242.448 119.67 241.882C119.239 241.315 118.729 241.032 118.14 241.032C117.596 241.032 117.165 241.247 116.848 241.678C116.53 242.086 116.281 242.641 116.1 243.344C115.896 244.024 115.714 244.772 115.556 245.588C115.374 246.404 115.17 247.22 114.944 248.036C114.717 248.852 114.4 249.6 113.992 250.28C113.584 250.96 113.04 251.515 112.36 251.946C111.68 252.354 110.818 252.558 109.776 252.558C108.574 252.558 107.52 252.218 106.614 251.538C105.707 250.858 105.004 249.906 104.506 248.682C104.007 247.435 103.758 245.973 103.758 244.296C103.758 243.094 103.894 241.893 104.166 240.692C104.415 239.468 104.834 238.402 105.424 237.496L108.756 238.958C108.189 239.819 107.804 240.726 107.6 241.678C107.373 242.607 107.26 243.525 107.26 244.432C107.26 245.792 107.475 246.778 107.906 247.39C108.336 247.979 108.88 248.274 109.538 248.274C110.082 248.274 110.512 248.07 110.83 247.662C111.147 247.231 111.408 246.676 111.612 245.996C111.793 245.316 111.963 244.568 112.122 243.752C112.28 242.913 112.484 242.097 112.734 241.304C112.96 240.488 113.278 239.74 113.686 239.06C114.071 238.357 114.592 237.802 115.25 237.394C115.907 236.986 116.746 236.782 117.766 236.782ZM119.024 228.927L114.026 229.165L104.064 219.441V214.681L113.108 223.181L115.59 225.595L119.024 228.927ZM123.512 232.769H104.064V228.485H123.512V232.769ZM123.512 219.237L114.978 226.411L111.884 223.623L123.512 214.171V219.237ZM117.766 187.475C118.99 187.475 120.055 187.815 120.962 188.495C121.868 189.153 122.582 190.093 123.104 191.317C123.602 192.541 123.852 194.037 123.852 195.805C123.852 197.324 123.648 198.82 123.24 200.293C122.832 201.744 122.299 202.911 121.642 203.795L118.31 202.197C118.922 201.381 119.409 200.384 119.772 199.205C120.134 198.027 120.316 196.825 120.316 195.601C120.316 194.151 120.1 193.142 119.67 192.575C119.239 192.009 118.729 191.725 118.14 191.725C117.596 191.725 117.165 191.941 116.848 192.371C116.53 192.779 116.281 193.335 116.1 194.037C115.896 194.717 115.714 195.465 115.556 196.281C115.374 197.097 115.17 197.913 114.944 198.729C114.717 199.545 114.4 200.293 113.992 200.973C113.584 201.653 113.04 202.209 112.36 202.639C111.68 203.047 110.818 203.251 109.776 203.251C108.574 203.251 107.52 202.911 106.614 202.231C105.707 201.551 105.004 200.599 104.506 199.375C104.007 198.129 103.758 196.667 103.758 194.989C103.758 193.788 103.894 192.587 104.166 191.385C104.415 190.161 104.834 189.096 105.424 188.189L108.756 189.651C108.189 190.513 107.804 191.419 107.6 192.371C107.373 193.301 107.26 194.219 107.26 195.125C107.26 196.485 107.475 197.471 107.906 198.083C108.336 198.673 108.88 198.967 109.538 198.967C110.082 198.967 110.512 198.763 110.83 198.355C111.147 197.925 111.408 197.369 111.612 196.689C111.793 196.009 111.963 195.261 112.122 194.445C112.28 193.607 112.484 192.791 112.734 191.997C112.96 191.181 113.278 190.433 113.686 189.753C114.071 189.051 114.592 188.495 115.25 188.087C115.907 187.679 116.746 187.475 117.766 187.475ZM123.512 183.463H104.064V179.179H111.884V169.829H104.064V165.545H123.512V169.829H115.42V179.179H123.512V183.463ZM123.512 162.751L104.064 153.911V149.661L123.512 140.855V145.105L106.24 152.517V151.089L123.512 158.569V162.751ZM119.296 158.365L116.032 157.209V147.077L119.296 145.921V158.365ZM123.512 138.074H104.064V129.676C104.064 127.931 104.347 126.423 104.914 125.154C105.458 123.885 106.251 122.91 107.294 122.23C108.336 121.527 109.594 121.176 111.068 121.176C112.518 121.176 113.765 121.527 114.808 122.23C115.85 122.91 116.644 123.885 117.188 125.154C117.732 126.423 118.004 127.931 118.004 129.676V135.694L116.134 133.79H123.512V138.074ZM123.512 125.426L116.44 130.424V125.8L123.512 120.802V125.426ZM116.644 133.79L114.638 135.354V129.982C114.638 128.486 114.332 127.364 113.72 126.616C113.085 125.868 112.201 125.494 111.068 125.494C109.934 125.494 109.062 125.868 108.45 126.616C107.838 127.364 107.532 128.486 107.532 129.982V135.354L105.56 133.79H116.644ZM111.986 112.72V102.86H115.318V112.72H111.986ZM120.078 112.142V101.33H123.512V116.426H104.064V101.704H107.532V112.142H120.078ZM164.512 279.835H145.064V271.437C145.064 269.691 145.347 268.184 145.914 266.915C146.458 265.645 147.251 264.671 148.294 263.991C149.336 263.288 150.594 262.937 152.068 262.937C153.541 262.937 154.81 263.288 155.876 263.991C156.918 264.671 157.723 265.645 158.29 266.915C158.834 268.184 159.106 269.691 159.106 271.437V277.455L157.134 275.551H164.512V279.835ZM157.644 275.551L155.638 277.115V271.743C155.638 270.247 155.332 269.125 154.72 268.377C154.085 267.629 153.201 267.255 152.068 267.255C150.934 267.255 150.062 267.629 149.45 268.377C148.838 269.125 148.532 270.247 148.532 271.743V277.115L146.56 275.551H157.644ZM164.512 258.452H145.064V254.168H161.044V244.172H164.512V258.452ZM164.512 244.049L145.064 235.209V230.959L164.512 222.153V226.403L147.24 233.815V232.387L164.512 239.867V244.049ZM160.296 239.663L157.032 238.507V228.375L160.296 227.219V239.663ZM164.512 219.372H145.064V215.836L159.276 204.106V205.704H145.064V201.454H164.512V204.99L150.3 216.72V215.088H164.512V219.372Z" fill="black"/>
<path d="M573.526 282.793V263.345H582.978C585.449 263.345 587.308 263.809 588.554 264.739C589.824 265.668 590.458 266.903 590.458 268.445C590.458 269.963 589.937 271.165 588.894 272.049C587.874 272.933 586.492 273.375 584.746 273.375L585.29 272.287C587.172 272.287 588.668 272.729 589.778 273.613C590.889 274.497 591.444 275.777 591.444 277.455C591.444 279.132 590.776 280.447 589.438 281.399C588.101 282.328 586.14 282.793 583.556 282.793H573.526ZM577.81 279.631H583.284C584.531 279.631 585.483 279.427 586.14 279.019C586.798 278.588 587.126 277.942 587.126 277.081C587.126 276.197 586.798 275.551 586.14 275.143C585.483 274.735 584.531 274.531 583.284 274.531H577.232V271.437H582.502C583.681 271.437 584.576 271.233 585.188 270.825C585.823 270.394 586.14 269.771 586.14 268.955C586.14 268.161 585.823 267.561 585.188 267.153C584.576 266.722 583.681 266.507 582.502 266.507H577.81V279.631ZM595.64 282.793V263.345H605.092C607.562 263.345 609.421 263.809 610.668 264.739C611.937 265.668 612.572 266.903 612.572 268.445C612.572 269.963 612.05 271.165 611.008 272.049C609.988 272.933 608.605 273.375 606.86 273.375L607.404 272.287C609.285 272.287 610.781 272.729 611.892 273.613C613.002 274.497 613.558 275.777 613.558 277.455C613.558 279.132 612.889 280.447 611.552 281.399C610.214 282.328 608.254 282.793 605.67 282.793H595.64ZM599.924 279.631H605.398C606.644 279.631 607.596 279.427 608.254 279.019C608.911 278.588 609.24 277.942 609.24 277.081C609.24 276.197 608.911 275.551 608.254 275.143C607.596 274.735 606.644 274.531 605.398 274.531H599.346V271.437H604.616C605.794 271.437 606.69 271.233 607.302 270.825C607.936 270.394 608.254 269.771 608.254 268.955C608.254 268.161 607.936 267.561 607.302 267.153C606.69 266.722 605.794 266.507 604.616 266.507H599.924V279.631ZM632.135 277.047C632.135 278.271 631.795 279.336 631.115 280.243C630.458 281.149 629.517 281.863 628.293 282.385C627.069 282.883 625.573 283.133 623.805 283.133C622.286 283.133 620.79 282.929 619.317 282.521C617.866 282.113 616.699 281.58 615.815 280.923L617.413 277.591C618.229 278.203 619.226 278.69 620.405 279.053C621.584 279.415 622.785 279.597 624.009 279.597C625.46 279.597 626.468 279.381 627.035 278.951C627.602 278.52 627.885 278.01 627.885 277.421C627.885 276.877 627.67 276.446 627.239 276.129C626.831 275.811 626.276 275.562 625.573 275.381C624.893 275.177 624.145 274.995 623.329 274.837C622.513 274.655 621.697 274.451 620.881 274.225C620.065 273.998 619.317 273.681 618.637 273.273C617.957 272.865 617.402 272.321 616.971 271.641C616.563 270.961 616.359 270.099 616.359 269.057C616.359 267.855 616.699 266.801 617.379 265.895C618.059 264.988 619.011 264.285 620.235 263.787C621.482 263.288 622.944 263.039 624.621 263.039C625.822 263.039 627.024 263.175 628.225 263.447C629.449 263.696 630.514 264.115 631.421 264.705L629.959 268.037C629.098 267.47 628.191 267.085 627.239 266.881C626.31 266.654 625.392 266.541 624.485 266.541C623.125 266.541 622.139 266.756 621.527 267.187C620.938 267.617 620.643 268.161 620.643 268.819C620.643 269.363 620.847 269.793 621.255 270.111C621.686 270.428 622.241 270.689 622.921 270.893C623.601 271.074 624.349 271.244 625.165 271.403C626.004 271.561 626.82 271.765 627.613 272.015C628.429 272.241 629.177 272.559 629.857 272.967C630.56 273.352 631.115 273.873 631.523 274.531C631.931 275.188 632.135 276.027 632.135 277.047Z" fill="black"/>
<path d="M443.586 338.488V319.04H447.87V326.86H457.22V319.04H461.504V338.488H457.22V330.396H447.87V338.488H443.586ZM476.572 338.828C474.509 338.828 472.662 338.397 471.03 337.536C469.42 336.652 468.151 335.45 467.222 333.932C466.292 332.413 465.828 330.69 465.828 328.764C465.828 326.837 466.292 325.126 467.222 323.63C468.151 322.111 469.42 320.921 471.03 320.06C472.662 319.176 474.498 318.734 476.538 318.734C478.6 318.734 480.436 319.176 482.046 320.06C483.678 320.921 484.958 322.111 485.888 323.63C486.817 325.126 487.282 326.837 487.282 328.764C487.282 330.69 486.817 332.413 485.888 333.932C484.958 335.45 483.678 336.652 482.046 337.536C480.436 338.397 478.612 338.828 476.572 338.828ZM476.538 335.19C477.784 335.19 478.884 334.918 479.836 334.374C480.81 333.807 481.57 333.036 482.114 332.062C482.658 331.087 482.93 329.988 482.93 328.764C482.93 327.517 482.646 326.418 482.08 325.466C481.536 324.491 480.788 323.732 479.836 323.188C478.884 322.644 477.796 322.372 476.572 322.372C475.348 322.372 474.248 322.644 473.274 323.188C472.299 323.732 471.528 324.491 470.962 325.466C470.418 326.418 470.146 327.517 470.146 328.764C470.146 329.988 470.418 331.087 470.962 332.062C471.528 333.036 472.299 333.807 473.274 334.374C474.248 334.918 475.336 335.19 476.538 335.19ZM494.802 338.488V322.542H488.41V319.04H505.478V322.542H499.086V338.488H494.802ZM517.961 338.488V319.04H526.767C528.988 319.04 530.904 319.436 532.513 320.23C534.145 321.023 535.403 322.156 536.287 323.63C537.194 325.08 537.647 326.792 537.647 328.764C537.647 330.758 537.194 332.481 536.287 333.932C535.403 335.382 534.145 336.504 532.513 337.298C530.904 338.091 528.988 338.488 526.767 338.488H517.961ZM522.245 335.02H526.631C528.014 335.02 529.204 334.77 530.201 334.272C531.198 333.773 531.969 333.059 532.513 332.13C533.057 331.2 533.329 330.078 533.329 328.764C533.329 327.449 533.057 326.327 532.513 325.398C531.969 324.468 531.198 323.766 530.201 323.29C529.204 322.791 528.014 322.542 526.631 322.542H522.245V335.02ZM545.673 326.962H555.533V330.294H545.673V326.962ZM546.251 335.054H557.063V338.488H541.967V319.04H556.689V322.508H546.251V335.054ZM575.872 332.742C575.872 333.966 575.532 335.031 574.852 335.938C574.195 336.844 573.254 337.558 572.03 338.08C570.806 338.578 569.31 338.828 567.542 338.828C566.024 338.828 564.528 338.624 563.054 338.216C561.604 337.808 560.436 337.275 559.552 336.618L561.15 333.286C561.966 333.898 562.964 334.385 564.142 334.748C565.321 335.11 566.522 335.292 567.746 335.292C569.197 335.292 570.206 335.076 570.772 334.646C571.339 334.215 571.622 333.705 571.622 333.116C571.622 332.572 571.407 332.141 570.976 331.824C570.568 331.506 570.013 331.257 569.31 331.076C568.63 330.872 567.882 330.69 567.066 330.532C566.25 330.35 565.434 330.146 564.618 329.92C563.802 329.693 563.054 329.376 562.374 328.968C561.694 328.56 561.139 328.016 560.708 327.336C560.3 326.656 560.096 325.794 560.096 324.752C560.096 323.55 560.436 322.496 561.116 321.59C561.796 320.683 562.748 319.98 563.972 319.482C565.219 318.983 566.681 318.734 568.358 318.734C569.56 318.734 570.761 318.87 571.962 319.142C573.186 319.391 574.252 319.81 575.158 320.4L573.696 323.732C572.835 323.165 571.928 322.78 570.976 322.576C570.047 322.349 569.129 322.236 568.222 322.236C566.862 322.236 565.876 322.451 565.264 322.882C564.675 323.312 564.38 323.856 564.38 324.514C564.38 325.058 564.584 325.488 564.992 325.806C565.423 326.123 565.978 326.384 566.658 326.588C567.338 326.769 568.086 326.939 568.902 327.098C569.741 327.256 570.557 327.46 571.35 327.71C572.166 327.936 572.914 328.254 573.594 328.662C574.297 329.047 574.852 329.568 575.26 330.226C575.668 330.883 575.872 331.722 575.872 332.742ZM583.727 334L583.489 329.002L593.213 319.04H597.973L589.473 328.084L587.059 330.566L583.727 334ZM579.885 338.488V319.04H584.169V338.488H579.885ZM593.417 338.488L586.243 329.954L589.031 326.86L598.483 338.488H593.417ZM627.797 336.346C627.14 336.867 626.38 337.32 625.519 337.706C624.68 338.068 623.796 338.34 622.867 338.522C621.938 338.726 620.997 338.828 620.045 338.828C617.96 338.828 616.09 338.397 614.435 337.536C612.803 336.652 611.522 335.45 610.593 333.932C609.664 332.413 609.199 330.69 609.199 328.764C609.199 326.837 609.664 325.126 610.593 323.63C611.522 322.111 612.792 320.921 614.401 320.06C616.033 319.176 617.88 318.734 619.943 318.734C621.756 318.734 623.343 319.006 624.703 319.55C626.063 320.071 627.196 320.887 628.103 321.998L625.315 324.684C624.612 323.89 623.819 323.312 622.935 322.95C622.051 322.564 621.076 322.372 620.011 322.372C618.764 322.372 617.642 322.644 616.645 323.188C615.67 323.732 614.9 324.491 614.333 325.466C613.789 326.418 613.517 327.517 613.517 328.764C613.517 330.01 613.8 331.121 614.367 332.096C614.934 333.07 615.716 333.83 616.713 334.374C617.71 334.918 618.855 335.19 620.147 335.19C621.167 335.19 622.096 335.031 622.935 334.714C623.796 334.396 624.601 333.92 625.349 333.286L627.797 336.346ZM623.751 336.38V328.594H627.797V336.346L623.751 336.38ZM636.815 326.962H646.675V330.294H636.815V326.962ZM637.393 335.054H648.205V338.488H633.109V319.04H647.831V322.508H637.393V335.054ZM652.633 338.488V319.04H656.169L667.899 333.252H666.301V319.04H670.551V338.488H667.015L655.285 324.276H656.917V338.488H652.633ZM680.179 326.962H690.039V330.294H680.179V326.962ZM680.757 335.054H691.569V338.488H676.473V319.04H691.195V322.508H680.757V335.054ZM695.996 338.488V319.04H704.394C706.139 319.04 707.647 319.323 708.916 319.89C710.185 320.434 711.16 321.227 711.84 322.27C712.543 323.312 712.894 324.57 712.894 326.044C712.894 327.494 712.543 328.741 711.84 329.784C711.16 330.826 710.185 331.62 708.916 332.164C707.647 332.708 706.139 332.98 704.394 332.98H698.376L700.28 331.11V338.488H695.996ZM708.644 338.488L703.646 331.416H708.27L713.268 338.488H708.644ZM700.28 331.62L698.716 329.614H704.088C705.584 329.614 706.706 329.308 707.454 328.696C708.202 328.061 708.576 327.177 708.576 326.044C708.576 324.91 708.202 324.038 707.454 323.426C706.706 322.814 705.584 322.508 704.088 322.508H698.716L700.28 320.536V331.62ZM714.517 338.488L723.357 319.04H727.607L736.413 338.488H732.163L724.751 321.216H726.179L718.699 338.488H714.517ZM718.903 334.272L720.059 331.008H730.191L731.347 334.272H718.903ZM739.193 338.488V319.04H743.477V335.02H753.473V338.488H739.193Z" fill="black"/>
<path d="M488.914 782.459V763.011H493.198V770.831H502.548V763.011H506.832V782.459H502.548V774.367H493.198V782.459H488.914ZM521.9 782.799C519.838 782.799 517.99 782.368 516.358 781.507C514.749 780.623 513.48 779.422 512.55 777.903C511.621 776.384 511.156 774.662 511.156 772.735C511.156 770.808 511.621 769.097 512.55 767.601C513.48 766.082 514.749 764.892 516.358 764.031C517.99 763.147 519.826 762.705 521.866 762.705C523.929 762.705 525.765 763.147 527.374 764.031C529.006 764.892 530.287 766.082 531.216 767.601C532.146 769.097 532.61 770.808 532.61 772.735C532.61 774.662 532.146 776.384 531.216 777.903C530.287 779.422 529.006 780.623 527.374 781.507C525.765 782.368 523.94 782.799 521.9 782.799ZM521.866 779.161C523.113 779.161 524.212 778.889 525.164 778.345C526.139 777.778 526.898 777.008 527.442 776.033C527.986 775.058 528.258 773.959 528.258 772.735C528.258 771.488 527.975 770.389 527.408 769.437C526.864 768.462 526.116 767.703 525.164 767.159C524.212 766.615 523.124 766.343 521.9 766.343C520.676 766.343 519.577 766.615 518.602 767.159C517.628 767.703 516.857 768.462 516.29 769.437C515.746 770.389 515.474 771.488 515.474 772.735C515.474 773.959 515.746 775.058 516.29 776.033C516.857 777.008 517.628 777.778 518.602 778.345C519.577 778.889 520.665 779.161 521.866 779.161ZM540.131 782.459V766.513H533.739V763.011H550.807V766.513H544.415V782.459H540.131ZM563.289 782.459V763.011H572.095C574.317 763.011 576.232 763.408 577.841 764.201C579.473 764.994 580.731 766.128 581.615 767.601C582.522 769.052 582.975 770.763 582.975 772.735C582.975 774.73 582.522 776.452 581.615 777.903C580.731 779.354 579.473 780.476 577.841 781.269C576.232 782.062 574.317 782.459 572.095 782.459H563.289ZM567.573 778.991H571.959C573.342 778.991 574.532 778.742 575.529 778.243C576.527 777.744 577.297 777.03 577.841 776.101C578.385 775.172 578.657 774.05 578.657 772.735C578.657 771.42 578.385 770.298 577.841 769.369C577.297 768.44 576.527 767.737 575.529 767.261C574.532 766.762 573.342 766.513 571.959 766.513H567.573V778.991ZM591.001 770.933H600.861V774.265H591.001V770.933ZM591.579 779.025H602.391V782.459H587.295V763.011H602.017V766.479H591.579V779.025ZM621.201 776.713C621.201 777.937 620.861 779.002 620.181 779.909C619.523 780.816 618.583 781.53 617.359 782.051C616.135 782.55 614.639 782.799 612.871 782.799C611.352 782.799 609.856 782.595 608.383 782.187C606.932 781.779 605.765 781.246 604.881 780.589L606.479 777.257C607.295 777.869 608.292 778.356 609.471 778.719C610.649 779.082 611.851 779.263 613.075 779.263C614.525 779.263 615.534 779.048 616.101 778.617C616.667 778.186 616.951 777.676 616.951 777.087C616.951 776.543 616.735 776.112 616.305 775.795C615.897 775.478 615.341 775.228 614.639 775.047C613.959 774.843 613.211 774.662 612.395 774.503C611.579 774.322 610.763 774.118 609.947 773.891C609.131 773.664 608.383 773.347 607.703 772.939C607.023 772.531 606.467 771.987 606.037 771.307C605.629 770.627 605.425 769.766 605.425 768.723C605.425 767.522 605.765 766.468 606.445 765.561C607.125 764.654 608.077 763.952 609.301 763.453C610.547 762.954 612.009 762.705 613.687 762.705C614.888 762.705 616.089 762.841 617.291 763.113C618.515 763.362 619.58 763.782 620.487 764.371L619.025 767.703C618.163 767.136 617.257 766.751 616.305 766.547C615.375 766.32 614.457 766.207 613.551 766.207C612.191 766.207 611.205 766.422 610.593 766.853C610.003 767.284 609.709 767.828 609.709 768.485C609.709 769.029 609.913 769.46 610.321 769.777C610.751 770.094 611.307 770.355 611.987 770.559C612.667 770.74 613.415 770.91 614.231 771.069C615.069 771.228 615.885 771.432 616.679 771.681C617.495 771.908 618.243 772.225 618.923 772.633C619.625 773.018 620.181 773.54 620.589 774.197C620.997 774.854 621.201 775.693 621.201 776.713ZM629.055 777.971L628.817 772.973L638.541 763.011H643.301L634.801 772.055L632.387 774.537L629.055 777.971ZM625.213 782.459V763.011H629.497V782.459H625.213ZM638.745 782.459L631.571 773.925L634.359 770.831L643.811 782.459H638.745ZM507.176 821.317C506.519 821.838 505.759 822.292 504.898 822.677C504.059 823.04 503.175 823.312 502.246 823.493C501.317 823.697 500.376 823.799 499.424 823.799C497.339 823.799 495.469 823.368 493.814 822.507C492.182 821.623 490.901 820.422 489.972 818.903C489.043 817.384 488.578 815.662 488.578 813.735C488.578 811.808 489.043 810.097 489.972 808.601C490.901 807.082 492.171 805.892 493.78 805.031C495.412 804.147 497.259 803.705 499.322 803.705C501.135 803.705 502.722 803.977 504.082 804.521C505.442 805.042 506.575 805.858 507.482 806.969L504.694 809.655C503.991 808.862 503.198 808.284 502.314 807.921C501.43 807.536 500.455 807.343 499.39 807.343C498.143 807.343 497.021 807.615 496.024 808.159C495.049 808.703 494.279 809.462 493.712 810.437C493.168 811.389 492.896 812.488 492.896 813.735C492.896 814.982 493.179 816.092 493.746 817.067C494.313 818.042 495.095 818.801 496.092 819.345C497.089 819.889 498.234 820.161 499.526 820.161C500.546 820.161 501.475 820.002 502.314 819.685C503.175 819.368 503.98 818.892 504.728 818.257L507.176 821.317ZM503.13 821.351V813.565H507.176V821.317L503.13 821.351ZM516.195 811.933H526.055V815.265H516.195V811.933ZM516.773 820.025H527.585V823.459H512.489V804.011H527.211V807.479H516.773V820.025ZM532.012 823.459V804.011H535.548L547.278 818.223H545.68V804.011H549.93V823.459H546.394L534.664 809.247H536.296V823.459H532.012ZM559.558 811.933H569.418V815.265H559.558V811.933ZM560.136 820.025H570.948V823.459H555.852V804.011H570.574V807.479H560.136V820.025ZM575.375 823.459V804.011H583.773C585.519 804.011 587.026 804.294 588.295 804.861C589.565 805.405 590.539 806.198 591.219 807.241C591.922 808.284 592.273 809.542 592.273 811.015C592.273 812.466 591.922 813.712 591.219 814.755C590.539 815.798 589.565 816.591 588.295 817.135C587.026 817.679 585.519 817.951 583.773 817.951H577.755L579.659 816.081V823.459H575.375ZM588.023 823.459L583.025 816.387H587.649L592.647 823.459H588.023ZM579.659 816.591L578.095 814.585H583.467C584.963 814.585 586.085 814.279 586.833 813.667C587.581 813.032 587.955 812.148 587.955 811.015C587.955 809.882 587.581 809.009 586.833 808.397C586.085 807.785 584.963 807.479 583.467 807.479H578.095L579.659 805.507V816.591ZM593.896 823.459L602.736 804.011H606.986L615.792 823.459H611.542L604.13 806.187H605.558L598.078 823.459H593.896ZM598.282 819.243L599.438 815.979H609.57L610.726 819.243H598.282ZM618.573 823.459V804.011H622.857V819.991H632.853V823.459H618.573Z" fill="black"/>
<path d="M441.938 825.726H422.489V821.442H430.309V812.092H422.489V807.808H441.938V812.092H433.845V821.442H441.938V825.726ZM442.278 792.74C442.278 794.803 441.847 796.65 440.985 798.282C440.101 799.892 438.9 801.161 437.381 802.09C435.863 803.02 434.14 803.484 432.213 803.484C430.287 803.484 428.575 803.02 427.079 802.09C425.561 801.161 424.371 799.892 423.509 798.282C422.625 796.65 422.183 794.814 422.183 792.774C422.183 790.712 422.625 788.876 423.509 787.266C424.371 785.634 425.561 784.354 427.079 783.424C428.575 782.495 430.287 782.03 432.213 782.03C434.14 782.03 435.863 782.495 437.381 783.424C438.9 784.354 440.101 785.634 440.985 787.266C441.847 788.876 442.278 790.7 442.278 792.74ZM438.639 792.774C438.639 791.528 438.367 790.428 437.823 789.476C437.257 788.502 436.486 787.742 435.511 787.198C434.537 786.654 433.437 786.382 432.213 786.382C430.967 786.382 429.867 786.666 428.915 787.232C427.941 787.776 427.181 788.524 426.637 789.476C426.093 790.428 425.821 791.516 425.821 792.74C425.821 793.964 426.093 795.064 426.637 796.038C427.181 797.013 427.941 797.784 428.915 798.35C429.867 798.894 430.967 799.166 432.213 799.166C433.437 799.166 434.537 798.894 435.511 798.35C436.486 797.784 437.257 797.013 437.823 796.038C438.367 795.064 438.639 793.976 438.639 792.774ZM441.938 774.51H425.991V780.902H422.489V763.834H425.991V770.226H441.938V774.51ZM441.938 751.351H422.489V742.545C422.489 740.324 422.886 738.409 423.679 736.799C424.473 735.167 425.606 733.909 427.079 733.025C428.53 732.119 430.241 731.665 432.213 731.665C434.208 731.665 435.931 732.119 437.381 733.025C438.832 733.909 439.954 735.167 440.747 736.799C441.541 738.409 441.938 740.324 441.938 742.545V751.351ZM438.469 747.067V742.681C438.469 741.299 438.22 740.109 437.721 739.111C437.223 738.114 436.509 737.343 435.579 736.799C434.65 736.255 433.528 735.983 432.213 735.983C430.899 735.983 429.777 736.255 428.847 736.799C427.918 737.343 427.215 738.114 426.739 739.111C426.241 740.109 425.991 741.299 425.991 742.681V747.067H438.469ZM430.411 723.639V713.779H433.743V723.639H430.411ZM438.503 723.061V712.249H441.938V727.345H422.489V712.623H425.957V723.061H438.503ZM436.191 693.44C437.415 693.44 438.481 693.78 439.387 694.46C440.294 695.117 441.008 696.058 441.529 697.282C442.028 698.506 442.278 700.002 442.278 701.77C442.278 703.289 442.074 704.785 441.665 706.258C441.257 707.709 440.725 708.876 440.067 709.76L436.735 708.162C437.347 707.346 437.835 706.349 438.197 705.17C438.56 703.991 438.741 702.79 438.741 701.566C438.741 700.115 438.526 699.107 438.095 698.54C437.665 697.973 437.155 697.69 436.565 697.69C436.021 697.69 435.591 697.905 435.273 698.336C434.956 698.744 434.707 699.299 434.525 700.002C434.321 700.682 434.14 701.43 433.981 702.246C433.8 703.062 433.596 703.878 433.369 704.694C433.143 705.51 432.825 706.258 432.417 706.938C432.009 707.618 431.465 708.173 430.785 708.604C430.105 709.012 429.244 709.216 428.201 709.216C427 709.216 425.946 708.876 425.039 708.196C424.133 707.516 423.43 706.564 422.931 705.34C422.433 704.093 422.183 702.631 422.183 700.954C422.183 699.753 422.319 698.551 422.591 697.35C422.841 696.126 423.26 695.061 423.849 694.154L427.181 695.616C426.615 696.477 426.229 697.384 426.025 698.336C425.799 699.265 425.685 700.183 425.685 701.09C425.685 702.45 425.901 703.436 426.331 704.048C426.762 704.637 427.306 704.932 427.963 704.932C428.507 704.932 428.938 704.728 429.255 704.32C429.573 703.889 429.833 703.334 430.037 702.654C430.219 701.974 430.389 701.226 430.547 700.41C430.706 699.571 430.91 698.755 431.159 697.962C431.386 697.146 431.703 696.398 432.111 695.718C432.497 695.015 433.018 694.46 433.675 694.052C434.333 693.644 435.171 693.44 436.191 693.44ZM437.45 685.585L432.451 685.823L422.489 676.099V671.339L431.533 679.839L434.015 682.253L437.45 685.585ZM441.938 689.427H422.489V685.143H441.938V689.427ZM441.938 675.895L433.403 683.069L430.309 680.281L441.938 670.829V675.895ZM441.938 658.515H422.489V650.117C422.489 648.372 422.773 646.865 423.339 645.595C423.883 644.326 424.677 643.351 425.719 642.671C426.762 641.969 428.02 641.617 429.493 641.617C430.967 641.617 432.236 641.969 433.301 642.671C434.344 643.351 435.149 644.326 435.715 645.595C436.259 646.865 436.531 648.372 436.531 650.117V656.135L434.559 654.231H441.938V658.515ZM435.069 654.231L433.063 655.795V650.423C433.063 648.927 432.757 647.805 432.145 647.057C431.511 646.309 430.627 645.935 429.493 645.935C428.36 645.935 427.487 646.309 426.875 647.057C426.263 647.805 425.957 648.927 425.957 650.423V655.795L423.986 654.231H435.069ZM441.938 641.788L422.489 632.948V628.698L441.938 619.892V624.142L424.665 631.554V630.126L441.938 637.606V641.788ZM437.721 637.402L434.457 636.246V626.114L437.721 624.958V637.402ZM441.938 613.745H434.117L436.837 612.929L422.489 621.633V617.077L433.573 610.277V612.657L422.489 605.857V601.505L436.837 610.209L434.117 609.427H441.938V613.745ZM441.938 598.683H422.489V590.285C422.489 588.54 422.773 587.033 423.339 585.763C423.883 584.494 424.677 583.519 425.719 582.839C426.762 582.137 428.02 581.785 429.493 581.785C430.944 581.785 432.191 582.137 433.233 582.839C434.276 583.519 435.069 584.494 435.613 585.763C436.157 587.033 436.429 588.54 436.429 590.285V596.303L434.559 594.399H441.938V598.683ZM441.938 586.035L434.865 591.033V586.409L441.938 581.411V586.035ZM435.069 594.399L433.063 595.963V590.591C433.063 589.095 432.757 587.973 432.145 587.225C431.511 586.477 430.627 586.103 429.493 586.103C428.36 586.103 427.487 586.477 426.875 587.225C426.263 587.973 425.957 589.095 425.957 590.591V595.963L423.986 594.399H435.069ZM442.278 567.889C442.278 569.952 441.847 571.799 440.985 573.431C440.101 575.04 438.9 576.31 437.381 577.239C435.863 578.168 434.14 578.633 432.213 578.633C430.287 578.633 428.575 578.168 427.079 577.239C425.561 576.31 424.371 575.04 423.509 573.431C422.625 571.799 422.183 569.963 422.183 567.923C422.183 565.86 422.625 564.024 423.509 562.415C424.371 560.783 425.561 559.502 427.079 558.573C428.575 557.644 430.287 557.179 432.213 557.179C434.14 557.179 435.863 557.644 437.381 558.573C438.9 559.502 440.101 560.783 440.985 562.415C441.847 564.024 442.278 565.849 442.278 567.889ZM438.639 567.923C438.639 566.676 438.367 565.577 437.823 564.625C437.257 563.65 436.486 562.891 435.511 562.347C434.537 561.803 433.437 561.531 432.213 561.531C430.967 561.531 429.867 561.814 428.915 562.381C427.941 562.925 427.181 563.673 426.637 564.625C426.093 565.577 425.821 566.665 425.821 567.889C425.821 569.113 426.093 570.212 426.637 571.187C427.181 572.162 427.941 572.932 428.915 573.499C429.867 574.043 430.967 574.315 432.213 574.315C433.437 574.315 434.537 574.043 435.511 573.499C436.486 572.932 437.257 572.162 437.823 571.187C438.367 570.212 438.639 569.124 438.639 567.923ZM441.938 552.896H422.489V548.612H438.469V538.616H441.938V552.896ZM441.938 535.398H422.489V531.114H438.469V521.118H441.938V535.398Z" fill="black"/>
<path d="M683.679 43.8628V33.5668H688.125C689.049 33.5668 689.847 33.7168 690.519 34.0168C691.191 34.3048 691.707 34.7248 692.067 35.2768C692.439 35.8288 692.625 36.4948 692.625 37.2748C692.625 38.0428 692.439 38.7028 692.067 39.2548C691.707 39.8068 691.191 40.2268 690.519 40.5148C689.847 40.8028 689.049 40.9468 688.125 40.9468H684.939L685.947 39.9568V43.8628H683.679ZM690.375 43.8628L687.729 40.1188H690.177L692.823 43.8628H690.375ZM685.947 40.2268L685.119 39.1648H687.963C688.755 39.1648 689.349 39.0028 689.745 38.6788C690.141 38.3428 690.339 37.8748 690.339 37.2748C690.339 36.6748 690.141 36.2128 689.745 35.8888C689.349 35.5648 688.755 35.4028 687.963 35.4028H685.119L685.947 34.3588V40.2268ZM699.982 44.0428C698.89 44.0428 697.912 43.8148 697.048 43.3588C696.196 42.8908 695.524 42.2548 695.032 41.4508C694.54 40.6468 694.294 39.7348 694.294 38.7148C694.294 37.6948 694.54 36.7888 695.032 35.9968C695.524 35.1928 696.196 34.5628 697.048 34.1068C697.912 33.6388 698.884 33.4048 699.964 33.4048C701.056 33.4048 702.028 33.6388 702.88 34.1068C703.744 34.5628 704.422 35.1928 704.914 35.9968C705.406 36.7888 705.652 37.6948 705.652 38.7148C705.652 39.7348 705.406 40.6468 704.914 41.4508C704.422 42.2548 703.744 42.8908 702.88 43.3588C702.028 43.8148 701.062 44.0428 699.982 44.0428ZM699.964 42.1168C700.624 42.1168 701.206 41.9728 701.71 41.6848C702.226 41.3848 702.628 40.9768 702.916 40.4608C703.204 39.9448 703.348 39.3628 703.348 38.7148C703.348 38.0548 703.198 37.4728 702.898 36.9688C702.61 36.4528 702.214 36.0508 701.71 35.7628C701.206 35.4748 700.63 35.3308 699.982 35.3308C699.334 35.3308 698.752 35.4748 698.236 35.7628C697.72 36.0508 697.312 36.4528 697.012 36.9688C696.724 37.4728 696.58 38.0548 696.58 38.7148C696.58 39.3628 696.724 39.9448 697.012 40.4608C697.312 40.9768 697.72 41.3848 698.236 41.6848C698.752 41.9728 699.328 42.1168 699.964 42.1168ZM712.762 44.0428C711.67 44.0428 710.692 43.8148 709.828 43.3588C708.976 42.8908 708.304 42.2548 707.812 41.4508C707.32 40.6468 707.074 39.7348 707.074 38.7148C707.074 37.6948 707.32 36.7888 707.812 35.9968C708.304 35.1928 708.976 34.5628 709.828 34.1068C710.692 33.6388 711.664 33.4048 712.744 33.4048C713.836 33.4048 714.808 33.6388 715.66 34.1068C716.524 34.5628 717.202 35.1928 717.694 35.9968C718.186 36.7888 718.432 37.6948 718.432 38.7148C718.432 39.7348 718.186 40.6468 717.694 41.4508C717.202 42.2548 716.524 42.8908 715.66 43.3588C714.808 43.8148 713.842 44.0428 712.762 44.0428ZM712.744 42.1168C713.404 42.1168 713.986 41.9728 714.49 41.6848C715.006 41.3848 715.408 40.9768 715.696 40.4608C715.984 39.9448 716.128 39.3628 716.128 38.7148C716.128 38.0548 715.978 37.4728 715.678 36.9688C715.39 36.4528 714.994 36.0508 714.49 35.7628C713.986 35.4748 713.41 35.3308 712.762 35.3308C712.114 35.3308 711.532 35.4748 711.016 35.7628C710.5 36.0508 710.092 36.4528 709.792 36.9688C709.504 37.4728 709.36 38.0548 709.36 38.7148C709.36 39.3628 709.504 39.9448 709.792 40.4608C710.092 40.9768 710.5 41.3848 711.016 41.6848C711.532 41.9728 712.108 42.1168 712.744 42.1168ZM722.679 38.2468H727.881V40.0648H722.679V38.2468ZM722.967 43.8628H720.699V33.5668H728.493V35.4028H722.967V43.8628ZM744.552 42.7288C744.204 43.0048 743.802 43.2448 743.346 43.4488C742.902 43.6408 742.434 43.7848 741.942 43.8808C741.45 43.9888 740.952 44.0428 740.448 44.0428C739.344 44.0428 738.354 43.8148 737.478 43.3588C736.614 42.8908 735.936 42.2548 735.444 41.4508C734.952 40.6468 734.706 39.7348 734.706 38.7148C734.706 37.6948 734.952 36.7888 735.444 35.9968C735.936 35.1928 736.608 34.5628 737.46 34.1068C738.324 33.6388 739.302 33.4048 740.394 33.4048C741.354 33.4048 742.194 33.5488 742.914 33.8368C743.634 34.1128 744.234 34.5448 744.714 35.1328L743.238 36.5548C742.866 36.1348 742.446 35.8288 741.978 35.6368C741.51 35.4328 740.994 35.3308 740.43 35.3308C739.77 35.3308 739.176 35.4748 738.648 35.7628C738.132 36.0508 737.724 36.4528 737.424 36.9688C737.136 37.4728 736.992 38.0548 736.992 38.7148C736.992 39.3748 737.142 39.9628 737.442 40.4788C737.742 40.9948 738.156 41.3968 738.684 41.6848C739.212 41.9728 739.818 42.1168 740.502 42.1168C741.042 42.1168 741.534 42.0328 741.978 41.8648C742.434 41.6968 742.86 41.4448 743.256 41.1088L744.552 42.7288ZM742.41 42.7468V38.6248H744.552V42.7288L742.41 42.7468ZM745.709 43.8628L750.389 33.5668H752.639L757.301 43.8628H755.051L751.127 34.7188H751.883L747.923 43.8628H745.709ZM748.031 41.6308L748.643 39.9028H754.007L754.619 41.6308H748.031ZM758.773 43.8628V33.5668H763.219C764.143 33.5668 764.941 33.7168 765.613 34.0168C766.285 34.3048 766.801 34.7248 767.161 35.2768C767.533 35.8288 767.719 36.4948 767.719 37.2748C767.719 38.0428 767.533 38.7028 767.161 39.2548C766.801 39.8068 766.285 40.2268 765.613 40.5148C764.941 40.8028 764.143 40.9468 763.219 40.9468H760.033L761.041 39.9568V43.8628H758.773ZM765.469 43.8628L762.823 40.1188H765.271L767.917 43.8628H765.469ZM761.041 40.2268L760.213 39.1648H763.057C763.849 39.1648 764.443 39.0028 764.839 38.6788C765.235 38.3428 765.433 37.8748 765.433 37.2748C765.433 36.6748 765.235 36.2128 764.839 35.8888C764.443 35.5648 763.849 35.4028 763.057 35.4028H760.213L761.041 34.3588V40.2268ZM770.234 43.8628V33.5668H774.896C776.072 33.5668 777.086 33.7768 777.938 34.1968C778.802 34.6168 779.468 35.2168 779.936 35.9968C780.416 36.7648 780.656 37.6708 780.656 38.7148C780.656 39.7708 780.416 40.6828 779.936 41.4508C779.468 42.2188 778.802 42.8128 777.938 43.2328C777.086 43.6528 776.072 43.8628 774.896 43.8628H770.234ZM772.502 42.0268H774.824C775.556 42.0268 776.186 41.8948 776.714 41.6308C777.242 41.3668 777.65 40.9888 777.938 40.4968C778.226 40.0048 778.37 39.4108 778.37 38.7148C778.37 38.0188 778.226 37.4248 777.938 36.9328C777.65 36.4408 777.242 36.0688 776.714 35.8168C776.186 35.5528 775.556 35.4208 774.824 35.4208H772.502V42.0268ZM784.905 37.7608H790.125V39.5248H784.905V37.7608ZM785.211 42.0448H790.935V43.8628H782.943V33.5668H790.737V35.4028H785.211V42.0448ZM793.279 43.8628V33.5668H795.151L801.361 41.0908H800.515V33.5668H802.765V43.8628H800.893L794.683 36.3388H795.547V43.8628H793.279Z" fill="black"/>
<path d="M963.755 782.459V763.011H972.153C973.899 763.011 975.406 763.294 976.675 763.861C977.945 764.405 978.919 765.198 979.599 766.241C980.302 767.284 980.653 768.542 980.653 770.015C980.653 771.466 980.302 772.712 979.599 773.755C978.919 774.798 977.945 775.591 976.675 776.135C975.406 776.679 973.899 776.951 972.153 776.951H966.135L968.039 775.081V782.459H963.755ZM976.403 782.459L971.405 775.387H976.029L981.027 782.459H976.403ZM968.039 775.591L966.475 773.585H971.847C973.343 773.585 974.465 773.279 975.213 772.667C975.961 772.032 976.335 771.148 976.335 770.015C976.335 768.882 975.961 768.009 975.213 767.397C974.465 766.785 973.343 766.479 971.847 766.479H966.475L968.039 764.507V775.591ZM989.11 770.933H998.97V774.265H989.11V770.933ZM989.688 779.025H1000.5V782.459H985.404V763.011H1000.13V766.479H989.688V779.025ZM1014.01 782.799C1011.97 782.799 1010.14 782.368 1008.53 781.507C1006.92 780.623 1005.65 779.422 1004.72 777.903C1003.79 776.384 1003.33 774.662 1003.33 772.735C1003.33 770.808 1003.79 769.097 1004.72 767.601C1005.65 766.082 1006.92 764.892 1008.53 764.031C1010.14 763.147 1011.97 762.705 1014.01 762.705C1015.77 762.705 1017.31 762.977 1018.63 763.521C1019.97 764.042 1021.1 764.87 1022.03 766.003L1019.24 768.655C1018.56 767.862 1017.79 767.284 1016.93 766.921C1016.07 766.536 1015.14 766.343 1014.14 766.343C1012.89 766.343 1011.77 766.615 1010.78 767.159C1009.8 767.703 1009.03 768.462 1008.46 769.437C1007.92 770.389 1007.65 771.488 1007.65 772.735C1007.65 773.982 1007.92 775.092 1008.46 776.067C1009.03 777.042 1009.8 777.801 1010.78 778.345C1011.77 778.889 1012.89 779.161 1014.14 779.161C1015.14 779.161 1016.07 778.968 1016.93 778.583C1017.79 778.198 1018.56 777.608 1019.24 776.815L1022.03 779.501C1021.1 780.612 1019.97 781.439 1018.63 781.983C1017.29 782.527 1015.75 782.799 1014.01 782.799ZM1029.48 782.459V766.513H1023.09V763.011H1040.16V766.513H1033.77V782.459H1029.48ZM1038.92 782.459L1047.76 763.011H1052.01L1060.82 782.459H1056.57L1049.15 765.187H1050.58L1043.1 782.459H1038.92ZM1043.31 778.243L1044.46 774.979H1054.59L1055.75 778.243H1043.31ZM1063.6 782.459V763.011H1067.13L1078.86 777.223H1077.27V763.011H1081.52V782.459H1077.98L1066.25 768.247H1067.88V782.459H1063.6ZM1104.44 780.317C1103.78 780.838 1103.02 781.292 1102.16 781.677C1101.32 782.04 1100.44 782.312 1099.51 782.493C1098.58 782.697 1097.64 782.799 1096.68 782.799C1094.6 782.799 1092.73 782.368 1091.07 781.507C1089.44 780.623 1088.16 779.422 1087.23 777.903C1086.3 776.384 1085.84 774.662 1085.84 772.735C1085.84 770.808 1086.3 769.097 1087.23 767.601C1088.16 766.082 1089.43 764.892 1091.04 764.031C1092.67 763.147 1094.52 762.705 1096.58 762.705C1098.4 762.705 1099.98 762.977 1101.34 763.521C1102.7 764.042 1103.84 764.858 1104.74 765.969L1101.95 768.655C1101.25 767.862 1100.46 767.284 1099.57 766.921C1098.69 766.536 1097.72 766.343 1096.65 766.343C1095.4 766.343 1094.28 766.615 1093.28 767.159C1092.31 767.703 1091.54 768.462 1090.97 769.437C1090.43 770.389 1090.16 771.488 1090.16 772.735C1090.16 773.982 1090.44 775.092 1091.01 776.067C1091.57 777.042 1092.36 777.801 1093.35 778.345C1094.35 778.889 1095.49 779.161 1096.79 779.161C1097.81 779.161 1098.74 779.002 1099.57 778.685C1100.44 778.368 1101.24 777.892 1101.99 777.257L1104.44 780.317ZM1100.39 780.351V772.565H1104.44V780.317L1100.39 780.351ZM1109.75 782.459V763.011H1114.03V778.991H1124.03V782.459H1109.75ZM1130.95 770.933H1140.81V774.265H1130.95V770.933ZM1131.53 779.025H1142.34V782.459H1127.25V763.011H1141.97V766.479H1131.53V779.025ZM1006.32 823.459V804.011H1014.72C1016.47 804.011 1017.97 804.294 1019.24 804.861C1020.51 805.405 1021.49 806.198 1022.17 807.241C1022.87 808.284 1023.22 809.542 1023.22 811.015C1023.22 812.466 1022.87 813.712 1022.17 814.755C1021.49 815.798 1020.51 816.591 1019.24 817.135C1017.97 817.679 1016.47 817.951 1014.72 817.951H1008.7L1010.61 816.081V823.459H1006.32ZM1018.97 823.459L1013.97 816.387H1018.6L1023.59 823.459H1018.97ZM1010.61 816.591L1009.04 814.585H1014.41C1015.91 814.585 1017.03 814.279 1017.78 813.667C1018.53 813.032 1018.9 812.148 1018.9 811.015C1018.9 809.882 1018.53 809.009 1017.78 808.397C1017.03 807.785 1015.91 807.479 1014.41 807.479H1009.04L1010.61 805.507V816.591ZM1037.12 823.799C1035.05 823.799 1033.21 823.368 1031.57 822.507C1029.96 821.623 1028.7 820.422 1027.77 818.903C1026.84 817.384 1026.37 815.662 1026.37 813.735C1026.37 811.808 1026.84 810.097 1027.77 808.601C1028.7 807.082 1029.96 805.892 1031.57 805.031C1033.21 804.147 1035.04 803.705 1037.08 803.705C1039.14 803.705 1040.98 804.147 1042.59 805.031C1044.22 805.892 1045.5 807.082 1046.43 808.601C1047.36 810.097 1047.83 811.808 1047.83 813.735C1047.83 815.662 1047.36 817.384 1046.43 818.903C1045.5 820.422 1044.22 821.623 1042.59 822.507C1040.98 823.368 1039.16 823.799 1037.12 823.799ZM1037.08 820.161C1038.33 820.161 1039.43 819.889 1040.38 819.345C1041.35 818.778 1042.11 818.008 1042.66 817.033C1043.2 816.058 1043.47 814.959 1043.47 813.735C1043.47 812.488 1043.19 811.389 1042.62 810.437C1042.08 809.462 1041.33 808.703 1040.38 808.159C1039.43 807.615 1038.34 807.343 1037.12 807.343C1035.89 807.343 1034.79 807.615 1033.82 808.159C1032.84 808.703 1032.07 809.462 1031.51 810.437C1030.96 811.389 1030.69 812.488 1030.69 813.735C1030.69 814.959 1030.96 816.058 1031.51 817.033C1032.07 818.008 1032.84 818.778 1033.82 819.345C1034.79 819.889 1035.88 820.161 1037.08 820.161ZM1061.25 823.799C1059.19 823.799 1057.34 823.368 1055.71 822.507C1054.1 821.623 1052.83 820.422 1051.9 818.903C1050.98 817.384 1050.51 815.662 1050.51 813.735C1050.51 811.808 1050.98 810.097 1051.9 808.601C1052.83 807.082 1054.1 805.892 1055.71 805.031C1057.34 804.147 1059.18 803.705 1061.22 803.705C1063.28 803.705 1065.12 804.147 1066.73 805.031C1068.36 805.892 1069.64 807.082 1070.57 808.601C1071.5 810.097 1071.96 811.808 1071.96 813.735C1071.96 815.662 1071.5 817.384 1070.57 818.903C1069.64 820.422 1068.36 821.623 1066.73 822.507C1065.12 823.368 1063.29 823.799 1061.25 823.799ZM1061.22 820.161C1062.47 820.161 1063.57 819.889 1064.52 819.345C1065.49 818.778 1066.25 818.008 1066.8 817.033C1067.34 816.058 1067.61 814.959 1067.61 813.735C1067.61 812.488 1067.33 811.389 1066.76 810.437C1066.22 809.462 1065.47 808.703 1064.52 808.159C1063.57 807.615 1062.48 807.343 1061.25 807.343C1060.03 807.343 1058.93 807.615 1057.96 808.159C1056.98 808.703 1056.21 809.462 1055.64 810.437C1055.1 811.389 1054.83 812.488 1054.83 813.735C1054.83 814.959 1055.1 816.058 1055.64 817.033C1056.21 818.008 1056.98 818.778 1057.96 819.345C1058.93 819.889 1060.02 820.161 1061.22 820.161ZM1076.25 823.459V804.011H1079.92L1088.18 817.611H1086.45L1094.57 804.011H1098.25L1098.28 823.459H1094.2L1094.17 810.437H1094.81L1088.22 821.283H1086.28L1079.48 810.437H1080.33V823.459H1076.25Z" fill="black"/>
<path d="M992.11 261.028L985.616 241.58H990.036L995.714 258.988H993.47L999.42 241.58H1003.43L1009.11 258.988H1006.97L1012.78 241.58H1016.93L1010.44 261.028H1005.85L1000.71 245.626H1001.9L996.734 261.028H992.11ZM1029.24 261.368C1027.18 261.368 1025.33 260.937 1023.7 260.076C1022.09 259.192 1020.82 257.99 1019.89 256.472C1018.96 254.953 1018.5 253.23 1018.5 251.304C1018.5 249.377 1018.96 247.666 1019.89 246.17C1020.82 244.651 1022.09 243.461 1023.7 242.6C1025.33 241.716 1027.17 241.274 1029.21 241.274C1031.27 241.274 1033.11 241.716 1034.71 242.6C1036.35 243.461 1037.63 244.651 1038.56 246.17C1039.49 247.666 1039.95 249.377 1039.95 251.304C1039.95 253.23 1039.49 254.953 1038.56 256.472C1037.63 257.99 1036.35 259.192 1034.71 260.076C1033.11 260.937 1031.28 261.368 1029.24 261.368ZM1029.21 257.73C1030.45 257.73 1031.55 257.458 1032.5 256.914C1033.48 256.347 1034.24 255.576 1034.78 254.602C1035.33 253.627 1035.6 252.528 1035.6 251.304C1035.6 250.057 1035.32 248.958 1034.75 248.006C1034.2 247.031 1033.46 246.272 1032.5 245.728C1031.55 245.184 1030.46 244.912 1029.24 244.912C1028.02 244.912 1026.92 245.184 1025.94 245.728C1024.97 246.272 1024.2 247.031 1023.63 248.006C1023.09 248.958 1022.81 250.057 1022.81 251.304C1022.81 252.528 1023.09 253.627 1023.63 254.602C1024.2 255.576 1024.97 256.347 1025.94 256.914C1026.92 257.458 1028.01 257.73 1029.21 257.73ZM1044.23 261.028V241.58H1052.63C1054.38 241.58 1055.88 241.863 1057.15 242.43C1058.42 242.974 1059.4 243.767 1060.08 244.81C1060.78 245.852 1061.13 247.11 1061.13 248.584C1061.13 250.034 1060.78 251.281 1060.08 252.324C1059.4 253.366 1058.42 254.16 1057.15 254.704C1055.88 255.248 1054.38 255.52 1052.63 255.52H1046.61L1048.52 253.65V261.028H1044.23ZM1056.88 261.028L1051.88 253.956H1056.51L1061.51 261.028H1056.88ZM1048.52 254.16L1046.95 252.154H1052.33C1053.82 252.154 1054.94 251.848 1055.69 251.236C1056.44 250.601 1056.81 249.717 1056.81 248.584C1056.81 247.45 1056.44 246.578 1055.69 245.966C1054.94 245.354 1053.82 245.048 1052.33 245.048H1046.95L1048.52 243.076V254.16ZM1069.72 256.54L1069.49 251.542L1079.21 241.58H1083.97L1075.47 250.624L1073.06 253.106L1069.72 256.54ZM1065.88 261.028V241.58H1070.17V261.028H1065.88ZM1079.41 261.028L1072.24 252.494L1075.03 249.4L1084.48 261.028H1079.41ZM1105.87 261.368C1103.83 261.368 1102.01 260.937 1100.4 260.076C1098.79 259.192 1097.52 257.99 1096.59 256.472C1095.66 254.953 1095.2 253.23 1095.2 251.304C1095.2 249.377 1095.66 247.666 1096.59 246.17C1097.52 244.651 1098.79 243.461 1100.4 242.6C1102.01 241.716 1103.83 241.274 1105.87 241.274C1107.64 241.274 1109.18 241.546 1110.5 242.09C1111.83 242.611 1112.97 243.438 1113.9 244.572L1111.11 247.224C1110.43 246.43 1109.66 245.852 1108.8 245.49C1107.93 245.104 1107.01 244.912 1106.01 244.912C1104.76 244.912 1103.64 245.184 1102.64 245.728C1101.67 246.272 1100.9 247.031 1100.33 248.006C1099.79 248.958 1099.51 250.057 1099.51 251.304C1099.51 252.55 1099.79 253.661 1100.33 254.636C1100.9 255.61 1101.67 256.37 1102.64 256.914C1103.64 257.458 1104.76 257.73 1106.01 257.73C1107.01 257.73 1107.93 257.537 1108.8 257.152C1109.66 256.766 1110.43 256.177 1111.11 255.384L1113.9 258.07C1112.97 259.18 1111.83 260.008 1110.5 260.552C1109.16 261.096 1107.62 261.368 1105.87 261.368ZM1114.15 261.028L1122.99 241.58H1127.24L1136.05 261.028H1131.8L1124.39 243.756H1125.81L1118.33 261.028H1114.15ZM1118.54 256.812L1119.69 253.548H1129.83L1130.98 256.812H1118.54ZM1142.57 250.42H1152.4V253.854H1142.57V250.42ZM1143.11 261.028H1138.83V241.58H1153.55V245.048H1143.11V261.028ZM1161.2 249.502H1171.06V252.834H1161.2V249.502ZM1161.77 257.594H1172.59V261.028H1157.49V241.58H1172.21V245.048H1161.77V257.594Z" fill="black"/>
<path d="M1174.3 787.713C1174.3 788.937 1173.96 790.002 1173.28 790.909C1172.63 791.816 1171.68 792.53 1170.46 793.051C1169.24 793.55 1167.74 793.799 1165.97 793.799C1164.45 793.799 1162.96 793.595 1161.48 793.187C1160.03 792.779 1158.87 792.246 1157.98 791.589L1159.58 788.257C1160.4 788.869 1161.39 789.356 1162.57 789.719C1163.75 790.082 1164.95 790.263 1166.18 790.263C1167.63 790.263 1168.64 790.048 1169.2 789.617C1169.77 789.186 1170.05 788.676 1170.05 788.087C1170.05 787.543 1169.84 787.112 1169.41 786.795C1169 786.478 1168.44 786.228 1167.74 786.047C1167.06 785.843 1166.31 785.662 1165.5 785.503C1164.68 785.322 1163.86 785.118 1163.05 784.891C1162.23 784.664 1161.48 784.347 1160.8 783.939C1160.12 783.531 1159.57 782.987 1159.14 782.307C1158.73 781.627 1158.53 780.766 1158.53 779.723C1158.53 778.522 1158.87 777.468 1159.55 776.561C1160.23 775.654 1161.18 774.952 1162.4 774.453C1163.65 773.954 1165.11 773.705 1166.79 773.705C1167.99 773.705 1169.19 773.841 1170.39 774.113C1171.62 774.362 1172.68 774.782 1173.59 775.371L1172.13 778.703C1171.27 778.136 1170.36 777.751 1169.41 777.547C1168.48 777.32 1167.56 777.207 1166.65 777.207C1165.29 777.207 1164.31 777.422 1163.69 777.853C1163.11 778.284 1162.81 778.828 1162.81 779.485C1162.81 780.029 1163.01 780.46 1163.42 780.777C1163.85 781.094 1164.41 781.355 1165.09 781.559C1165.77 781.74 1166.52 781.91 1167.33 782.069C1168.17 782.228 1168.99 782.432 1169.78 782.681C1170.6 782.908 1171.34 783.225 1172.02 783.633C1172.73 784.018 1173.28 784.54 1173.69 785.197C1174.1 785.854 1174.3 786.693 1174.3 787.713ZM1182.02 781.933H1191.88V785.265H1182.02V781.933ZM1182.6 790.025H1193.41V793.459H1178.31V774.011H1193.04V777.479H1182.6V790.025ZM1197.84 793.459V774.011H1206.24C1207.98 774.011 1209.49 774.294 1210.76 774.861C1212.03 775.405 1213 776.198 1213.68 777.241C1214.39 778.284 1214.74 779.542 1214.74 781.015C1214.74 782.466 1214.39 783.712 1213.68 784.755C1213 785.798 1212.03 786.591 1210.76 787.135C1209.49 787.679 1207.98 787.951 1206.24 787.951H1200.22L1202.12 786.081V793.459H1197.84ZM1210.49 793.459L1205.49 786.387H1210.11L1215.11 793.459H1210.49ZM1202.12 786.591L1200.56 784.585H1205.93C1207.43 784.585 1208.55 784.279 1209.3 783.667C1210.04 783.032 1210.42 782.148 1210.42 781.015C1210.42 779.882 1210.04 779.009 1209.3 778.397C1208.55 777.785 1207.43 777.479 1205.93 777.479H1200.56L1202.12 775.507V786.591ZM1225.16 793.459L1216.6 774.011H1221.19L1228.67 791.453H1226.05L1233.63 774.011H1237.95L1229.41 793.459H1225.16ZM1244.68 781.933H1254.54V785.265H1244.68V781.933ZM1245.25 790.025H1256.07V793.459H1240.97V774.011H1255.69V777.479H1245.25V790.025ZM1260.49 793.459V774.011H1268.89C1270.64 774.011 1272.14 774.294 1273.41 774.861C1274.68 775.405 1275.66 776.198 1276.34 777.241C1277.04 778.284 1277.39 779.542 1277.39 781.015C1277.39 782.466 1277.04 783.712 1276.34 784.755C1275.66 785.798 1274.68 786.591 1273.41 787.135C1272.14 787.679 1270.64 787.951 1268.89 787.951H1262.87L1264.78 786.081V793.459H1260.49ZM1273.14 793.459L1268.14 786.387H1272.77L1277.76 793.459H1273.14ZM1264.78 786.591L1263.21 784.585H1268.58C1270.08 784.585 1271.2 784.279 1271.95 783.667C1272.7 783.032 1273.07 782.148 1273.07 781.015C1273.07 779.882 1272.7 779.009 1271.95 778.397C1271.2 777.785 1270.08 777.479 1268.58 777.479H1263.21L1264.78 775.507V786.591ZM1196.23 834.459V815.011H1204.63C1206.37 815.011 1207.88 815.294 1209.15 815.861C1210.42 816.405 1211.39 817.198 1212.07 818.241C1212.77 819.284 1213.13 820.542 1213.13 822.015C1213.13 823.466 1212.77 824.712 1212.07 825.755C1211.39 826.798 1210.42 827.591 1209.15 828.135C1207.88 828.679 1206.37 828.951 1204.63 828.951H1198.61L1200.51 827.081V834.459H1196.23ZM1208.88 834.459L1203.88 827.387H1208.5L1213.5 834.459H1208.88ZM1200.51 827.591L1198.95 825.585H1204.32C1205.82 825.585 1206.94 825.279 1207.69 824.667C1208.43 824.032 1208.81 823.148 1208.81 822.015C1208.81 820.882 1208.43 820.009 1207.69 819.397C1206.94 818.785 1205.82 818.479 1204.32 818.479H1198.95L1200.51 816.507V827.591ZM1217.88 834.459V815.011H1221.55L1229.81 828.611H1228.08L1236.2 815.011H1239.87L1239.91 834.459H1235.83L1235.79 821.437H1236.44L1229.84 832.283H1227.91L1221.11 821.437H1221.96V834.459H1217.88Z" fill="black"/>
<path d="M975.363 669.913C973.505 669.913 971.907 669.573 970.569 668.893C969.255 668.19 968.246 667.193 967.543 665.901C966.841 664.586 966.489 663.034 966.489 661.243V650.125H970.773V661.107C970.773 662.784 971.17 664.065 971.963 664.949C972.757 665.833 973.901 666.275 975.397 666.275C976.871 666.275 977.993 665.844 978.763 664.983C979.557 664.099 979.953 662.807 979.953 661.107V650.125H984.169V661.243C984.169 663.034 983.818 664.586 983.115 665.901C982.435 667.193 981.438 668.19 980.123 668.893C978.809 669.573 977.222 669.913 975.363 669.913ZM993.472 669.573V653.627H987.08V650.125H1004.15V653.627H997.756V669.573H993.472ZM1007.23 669.573V650.125H1011.52V669.573H1007.23ZM1017.43 669.573V650.125H1021.71V666.105H1031.71V669.573H1017.43ZM1034.93 669.573V650.125H1039.21V669.573H1034.93ZM1048.69 669.573V653.627H1042.3V650.125H1059.37V653.627H1052.97V669.573H1048.69ZM1066.88 669.573V661.753L1067.7 664.473L1058.99 650.125H1063.55L1070.35 661.209H1067.97L1074.77 650.125H1079.12L1070.42 664.473L1071.2 661.753V669.573H1066.88Z" fill="black"/>
<path d="M997.732 886.716C997.732 887.94 997.392 889.005 996.712 889.912C996.055 890.819 995.114 891.533 993.89 892.054C992.666 892.553 991.17 892.802 989.402 892.802C987.883 892.802 986.387 892.598 984.914 892.19C983.463 891.782 982.296 891.249 981.412 890.592L983.01 887.26C983.826 887.872 984.823 888.359 986.002 888.722C987.181 889.085 988.382 889.266 989.606 889.266C991.057 889.266 992.065 889.051 992.632 888.62C993.199 888.189 993.482 887.679 993.482 887.09C993.482 886.546 993.267 886.115 992.836 885.798C992.428 885.481 991.873 885.231 991.17 885.05C990.49 884.846 989.742 884.665 988.926 884.506C988.11 884.325 987.294 884.121 986.478 883.894C985.662 883.667 984.914 883.35 984.234 882.942C983.554 882.534 982.999 881.99 982.568 881.31C982.16 880.63 981.956 879.769 981.956 878.726C981.956 877.525 982.296 876.471 982.976 875.564C983.656 874.657 984.608 873.955 985.832 873.456C987.079 872.957 988.541 872.708 990.218 872.708C991.419 872.708 992.621 872.844 993.822 873.116C995.046 873.365 996.111 873.785 997.018 874.374L995.556 877.706C994.695 877.139 993.788 876.754 992.836 876.55C991.907 876.323 990.989 876.21 990.082 876.21C988.722 876.21 987.736 876.425 987.124 876.856C986.535 877.287 986.24 877.831 986.24 878.488C986.24 879.032 986.444 879.463 986.852 879.78C987.283 880.097 987.838 880.358 988.518 880.562C989.198 880.743 989.946 880.913 990.762 881.072C991.601 881.231 992.417 881.435 993.21 881.684C994.026 881.911 994.774 882.228 995.454 882.636C996.157 883.021 996.712 883.543 997.12 884.2C997.528 884.857 997.732 885.696 997.732 886.716ZM1010.89 892.802C1008.83 892.802 1006.98 892.371 1005.35 891.51C1003.74 890.626 1002.47 889.425 1001.54 887.906C1000.61 886.387 1000.15 884.665 1000.15 882.738C1000.15 880.811 1000.61 879.1 1001.54 877.604C1002.47 876.085 1003.74 874.895 1005.35 874.034C1006.98 873.15 1008.82 872.708 1010.86 872.708C1012.92 872.708 1014.76 873.15 1016.36 874.034C1018 874.895 1019.28 876.085 1020.21 877.604C1021.14 879.1 1021.6 880.811 1021.6 882.738C1021.6 884.665 1021.14 886.387 1020.21 887.906C1019.28 889.425 1018 890.626 1016.36 891.51C1014.76 892.371 1012.93 892.802 1010.89 892.802ZM1017.42 896.882C1016.4 896.882 1015.45 896.723 1014.56 896.406C1013.68 896.111 1012.77 895.613 1011.84 894.91C1010.94 894.207 1009.93 893.255 1008.82 892.054L1013.41 890.932C1013.93 891.612 1014.4 892.145 1014.83 892.53C1015.27 892.938 1015.7 893.233 1016.13 893.414C1016.56 893.595 1017.02 893.686 1017.52 893.686C1018.7 893.686 1019.74 893.21 1020.65 892.258L1022.65 894.638C1022.02 895.409 1021.26 895.975 1020.38 896.338C1019.49 896.701 1018.51 896.882 1017.42 896.882ZM1010.86 889.164C1012.1 889.164 1013.2 888.892 1014.15 888.348C1015.13 887.781 1015.89 887.011 1016.43 886.036C1016.98 885.061 1017.25 883.962 1017.25 882.738C1017.25 881.491 1016.97 880.392 1016.4 879.44C1015.85 878.465 1015.11 877.706 1014.15 877.162C1013.2 876.618 1012.1 876.346 1010.86 876.346C1009.66 876.346 1008.57 876.618 1007.59 877.162C1006.62 877.706 1005.85 878.465 1005.28 879.44C1004.74 880.392 1004.46 881.491 1004.46 882.738C1004.46 883.962 1004.74 885.061 1005.28 886.036C1005.85 887.011 1006.62 887.781 1007.59 888.348C1008.57 888.892 1009.66 889.164 1010.86 889.164ZM1034.55 892.802C1032.69 892.802 1031.1 892.462 1029.76 891.782C1028.44 891.079 1027.44 890.082 1026.73 888.79C1026.03 887.475 1025.68 885.923 1025.68 884.132V873.014H1029.96V883.996C1029.96 885.673 1030.36 886.954 1031.15 887.838C1031.95 888.722 1033.09 889.164 1034.59 889.164C1036.06 889.164 1037.18 888.733 1037.95 887.872C1038.75 886.988 1039.14 885.696 1039.14 883.996V873.014H1043.36V884.132C1043.36 885.923 1043.01 887.475 1042.31 888.79C1041.63 890.082 1040.63 891.079 1039.31 891.782C1038 892.462 1036.41 892.802 1034.55 892.802ZM1045.47 892.462L1054.31 873.014H1058.56L1067.36 892.462H1063.11L1055.7 875.19H1057.13L1049.65 892.462H1045.47ZM1049.85 888.246L1051.01 884.982H1061.14L1062.3 888.246H1049.85ZM1070.14 892.462V873.014H1078.54C1080.29 873.014 1081.79 873.297 1083.06 873.864C1084.33 874.408 1085.31 875.201 1085.99 876.244C1086.69 877.287 1087.04 878.545 1087.04 880.018C1087.04 881.469 1086.69 882.715 1085.99 883.758C1085.31 884.801 1084.33 885.594 1083.06 886.138C1081.79 886.682 1080.29 886.954 1078.54 886.954H1072.52L1074.43 885.084V892.462H1070.14ZM1082.79 892.462L1077.79 885.39H1082.42L1087.41 892.462H1082.79ZM1074.43 885.594L1072.86 883.588H1078.23C1079.73 883.588 1080.85 883.282 1081.6 882.67C1082.35 882.035 1082.72 881.151 1082.72 880.018C1082.72 878.885 1082.35 878.012 1081.6 877.4C1080.85 876.788 1079.73 876.482 1078.23 876.482H1072.86L1074.43 874.51V885.594ZM1095.5 880.936H1105.36V884.268H1095.5V880.936ZM1096.08 889.028H1106.89V892.462H1091.79V873.014H1106.51V876.482H1096.08V889.028ZM998.391 933.462V914.014H1006.79C1008.53 914.014 1010.04 914.297 1011.31 914.864C1012.58 915.408 1013.55 916.201 1014.23 917.244C1014.94 918.287 1015.29 919.545 1015.29 921.018C1015.29 922.469 1014.94 923.715 1014.23 924.758C1013.55 925.801 1012.58 926.594 1011.31 927.138C1010.04 927.682 1008.53 927.954 1006.79 927.954H1000.77L1002.67 926.084V933.462H998.391ZM1011.04 933.462L1006.04 926.39H1010.66L1015.66 933.462H1011.04ZM1002.67 926.594L1001.11 924.588H1006.48C1007.98 924.588 1009.1 924.282 1009.85 923.67C1010.6 923.035 1010.97 922.151 1010.97 921.018C1010.97 919.885 1010.6 919.012 1009.85 918.4C1009.1 917.788 1007.98 917.482 1006.48 917.482H1001.11L1002.67 915.51V926.594ZM1029.19 933.802C1027.12 933.802 1025.28 933.371 1023.64 932.51C1022.03 931.626 1020.76 930.425 1019.84 928.906C1018.91 927.387 1018.44 925.665 1018.44 923.738C1018.44 921.811 1018.91 920.1 1019.84 918.604C1020.76 917.085 1022.03 915.895 1023.64 915.034C1025.28 914.15 1027.11 913.708 1029.15 913.708C1031.21 913.708 1033.05 914.15 1034.66 915.034C1036.29 915.895 1037.57 917.085 1038.5 918.604C1039.43 920.1 1039.9 921.811 1039.9 923.738C1039.9 925.665 1039.43 927.387 1038.5 928.906C1037.57 930.425 1036.29 931.626 1034.66 932.51C1033.05 933.371 1031.23 933.802 1029.19 933.802ZM1029.15 930.164C1030.4 930.164 1031.5 929.892 1032.45 929.348C1033.42 928.781 1034.18 928.011 1034.73 927.036C1035.27 926.061 1035.54 924.962 1035.54 923.738C1035.54 922.491 1035.26 921.392 1034.69 920.44C1034.15 919.465 1033.4 918.706 1032.45 918.162C1031.5 917.618 1030.41 917.346 1029.19 917.346C1027.96 917.346 1026.86 917.618 1025.89 918.162C1024.91 918.706 1024.14 919.465 1023.58 920.44C1023.03 921.392 1022.76 922.491 1022.76 923.738C1022.76 924.962 1023.03 926.061 1023.58 927.036C1024.14 928.011 1024.91 928.781 1025.89 929.348C1026.86 929.892 1027.95 930.164 1029.15 930.164ZM1053.32 933.802C1051.26 933.802 1049.41 933.371 1047.78 932.51C1046.17 931.626 1044.9 930.425 1043.97 928.906C1043.04 927.387 1042.58 925.665 1042.58 923.738C1042.58 921.811 1043.04 920.1 1043.97 918.604C1044.9 917.085 1046.17 915.895 1047.78 915.034C1049.41 914.15 1051.25 913.708 1053.29 913.708C1055.35 913.708 1057.19 914.15 1058.8 915.034C1060.43 915.895 1061.71 917.085 1062.64 918.604C1063.57 920.1 1064.03 921.811 1064.03 923.738C1064.03 925.665 1063.57 927.387 1062.64 928.906C1061.71 930.425 1060.43 931.626 1058.8 932.51C1057.19 933.371 1055.36 933.802 1053.32 933.802ZM1053.29 930.164C1054.54 930.164 1055.64 929.892 1056.59 929.348C1057.56 928.781 1058.32 928.011 1058.87 927.036C1059.41 926.061 1059.68 924.962 1059.68 923.738C1059.68 922.491 1059.4 921.392 1058.83 920.44C1058.29 919.465 1057.54 918.706 1056.59 918.162C1055.64 917.618 1054.55 917.346 1053.32 917.346C1052.1 917.346 1051 917.618 1050.03 918.162C1049.05 918.706 1048.28 919.465 1047.71 920.44C1047.17 921.392 1046.9 922.491 1046.9 923.738C1046.9 924.962 1047.17 926.061 1047.71 927.036C1048.28 928.011 1049.05 928.781 1050.03 929.348C1051 929.892 1052.09 930.164 1053.29 930.164ZM1068.32 933.462V914.014H1071.99L1080.25 927.614H1078.52L1086.64 914.014H1090.31L1090.35 933.462H1086.27L1086.23 920.44H1086.88L1080.28 931.286H1078.35L1071.55 920.44H1072.4V933.462H1068.32Z" fill="black"/>
<path d="M1013.03 547.382V527.934H1017.31V547.382H1013.03ZM1026.79 547.382V531.436H1020.4V527.934H1037.47V531.436H1031.08V547.382H1026.79ZM1064.33 541.636C1064.33 542.86 1063.99 543.926 1063.31 544.832C1062.66 545.739 1061.72 546.453 1060.49 546.974C1059.27 547.473 1057.77 547.722 1056 547.722C1054.49 547.722 1052.99 547.518 1051.52 547.11C1050.07 546.702 1048.9 546.17 1048.01 545.512L1049.61 542.18C1050.43 542.792 1051.43 543.28 1052.6 543.642C1053.78 544.005 1054.98 544.186 1056.21 544.186C1057.66 544.186 1058.67 543.971 1059.23 543.54C1059.8 543.11 1060.08 542.6 1060.08 542.01C1060.08 541.466 1059.87 541.036 1059.44 540.718C1059.03 540.401 1058.47 540.152 1057.77 539.97C1057.09 539.766 1056.34 539.585 1055.53 539.426C1054.71 539.245 1053.9 539.041 1053.08 538.814C1052.26 538.588 1051.52 538.27 1050.84 537.862C1050.16 537.454 1049.6 536.91 1049.17 536.23C1048.76 535.55 1048.56 534.689 1048.56 533.646C1048.56 532.445 1048.9 531.391 1049.58 530.484C1050.26 529.578 1051.21 528.875 1052.43 528.376C1053.68 527.878 1055.14 527.628 1056.82 527.628C1058.02 527.628 1059.22 527.764 1060.42 528.036C1061.65 528.286 1062.71 528.705 1063.62 529.294L1062.16 532.626C1061.3 532.06 1060.39 531.674 1059.44 531.47C1058.51 531.244 1057.59 531.13 1056.68 531.13C1055.32 531.13 1054.34 531.346 1053.73 531.776C1053.14 532.207 1052.84 532.751 1052.84 533.408C1052.84 533.952 1053.05 534.383 1053.45 534.7C1053.88 535.018 1054.44 535.278 1055.12 535.482C1055.8 535.664 1056.55 535.834 1057.36 535.992C1058.2 536.151 1059.02 536.355 1059.81 536.604C1060.63 536.831 1061.38 537.148 1062.06 537.556C1062.76 537.942 1063.31 538.463 1063.72 539.12C1064.13 539.778 1064.33 540.616 1064.33 541.636ZM1071.58 547.382V531.436H1065.19V527.934H1082.26V531.436H1075.87V547.382H1071.58ZM1094.16 547.722C1092.1 547.722 1090.25 547.292 1088.62 546.43C1087.01 545.546 1085.74 544.345 1084.81 542.826C1083.88 541.308 1083.42 539.585 1083.42 537.658C1083.42 535.732 1083.88 534.02 1084.81 532.524C1085.74 531.006 1087.01 529.816 1088.62 528.954C1090.25 528.07 1092.09 527.628 1094.13 527.628C1096.19 527.628 1098.03 528.07 1099.63 528.954C1101.27 529.816 1102.55 531.006 1103.48 532.524C1104.41 534.02 1104.87 535.732 1104.87 537.658C1104.87 539.585 1104.41 541.308 1103.48 542.826C1102.55 544.345 1101.27 545.546 1099.63 546.43C1098.03 547.292 1096.2 547.722 1094.16 547.722ZM1094.13 544.084C1095.37 544.084 1096.47 543.812 1097.42 543.268C1098.4 542.702 1099.16 541.931 1099.7 540.956C1100.25 539.982 1100.52 538.882 1100.52 537.658C1100.52 536.412 1100.24 535.312 1099.67 534.36C1099.12 533.386 1098.38 532.626 1097.42 532.082C1096.47 531.538 1095.38 531.266 1094.16 531.266C1092.94 531.266 1091.84 531.538 1090.86 532.082C1089.89 532.626 1089.12 533.386 1088.55 534.36C1088.01 535.312 1087.73 536.412 1087.73 537.658C1087.73 538.882 1088.01 539.982 1088.55 540.956C1089.12 541.931 1089.89 542.702 1090.86 543.268C1091.84 543.812 1092.93 544.084 1094.13 544.084ZM1109.15 547.382V527.934H1117.55C1119.3 527.934 1120.8 528.218 1122.07 528.784C1123.34 529.328 1124.32 530.122 1125 531.164C1125.7 532.207 1126.05 533.465 1126.05 534.938C1126.05 536.389 1125.7 537.636 1125 538.678C1124.32 539.721 1123.34 540.514 1122.07 541.058C1120.8 541.602 1119.3 541.874 1117.55 541.874H1111.53L1113.44 540.004V547.382H1109.15ZM1121.8 547.382L1116.8 540.31H1121.43L1126.43 547.382H1121.8ZM1113.44 540.514L1111.87 538.508H1117.25C1118.74 538.508 1119.86 538.202 1120.61 537.59C1121.36 536.956 1121.73 536.072 1121.73 534.938C1121.73 533.805 1121.36 532.932 1120.61 532.32C1119.86 531.708 1118.74 531.402 1117.25 531.402H1111.87L1113.44 529.43V540.514ZM1134.51 535.856H1144.37V539.188H1134.51V535.856ZM1135.09 543.948H1145.9V547.382H1130.8V527.934H1145.52V531.402H1135.09V543.948ZM1159.72 547.382V527.934H1168.12C1169.87 527.934 1171.37 528.218 1172.64 528.784C1173.91 529.328 1174.89 530.122 1175.57 531.164C1176.27 532.207 1176.62 533.465 1176.62 534.938C1176.62 536.389 1176.27 537.636 1175.57 538.678C1174.89 539.721 1173.91 540.514 1172.64 541.058C1171.37 541.602 1169.87 541.874 1168.12 541.874H1162.1L1164.01 540.004V547.382H1159.72ZM1172.37 547.382L1167.37 540.31H1172L1176.99 547.382H1172.37ZM1164.01 540.514L1162.44 538.508H1167.81C1169.31 538.508 1170.43 538.202 1171.18 537.59C1171.93 536.956 1172.3 536.072 1172.3 534.938C1172.3 533.805 1171.93 532.932 1171.18 532.32C1170.43 531.708 1169.31 531.402 1167.81 531.402H1162.44L1164.01 529.43V540.514ZM1190.52 547.722C1188.45 547.722 1186.61 547.292 1184.97 546.43C1183.36 545.546 1182.1 544.345 1181.17 542.826C1180.24 541.308 1179.77 539.585 1179.77 537.658C1179.77 535.732 1180.24 534.02 1181.17 532.524C1182.1 531.006 1183.36 529.816 1184.97 528.954C1186.61 528.07 1188.44 527.628 1190.48 527.628C1192.54 527.628 1194.38 528.07 1195.99 528.954C1197.62 529.816 1198.9 531.006 1199.83 532.524C1200.76 534.02 1201.23 535.732 1201.23 537.658C1201.23 539.585 1200.76 541.308 1199.83 542.826C1198.9 544.345 1197.62 545.546 1195.99 546.43C1194.38 547.292 1192.56 547.722 1190.52 547.722ZM1190.48 544.084C1191.73 544.084 1192.83 543.812 1193.78 543.268C1194.75 542.702 1195.51 541.931 1196.06 540.956C1196.6 539.982 1196.87 538.882 1196.87 537.658C1196.87 536.412 1196.59 535.312 1196.02 534.36C1195.48 533.386 1194.73 532.626 1193.78 532.082C1192.83 531.538 1191.74 531.266 1190.52 531.266C1189.29 531.266 1188.19 531.538 1187.22 532.082C1186.24 532.626 1185.47 533.386 1184.91 534.36C1184.36 535.312 1184.09 536.412 1184.09 537.658C1184.09 538.882 1184.36 539.982 1184.91 540.956C1185.47 541.931 1186.24 542.702 1187.22 543.268C1188.19 543.812 1189.28 544.084 1190.48 544.084ZM1214.65 547.722C1212.59 547.722 1210.74 547.292 1209.11 546.43C1207.5 545.546 1206.23 544.345 1205.3 542.826C1204.38 541.308 1203.91 539.585 1203.91 537.658C1203.91 535.732 1204.38 534.02 1205.3 532.524C1206.23 531.006 1207.5 529.816 1209.11 528.954C1210.74 528.07 1212.58 527.628 1214.62 527.628C1216.68 527.628 1218.52 528.07 1220.13 528.954C1221.76 529.816 1223.04 531.006 1223.97 532.524C1224.9 534.02 1225.36 535.732 1225.36 537.658C1225.36 539.585 1224.9 541.308 1223.97 542.826C1223.04 544.345 1221.76 545.546 1220.13 546.43C1218.52 547.292 1216.69 547.722 1214.65 547.722ZM1214.62 544.084C1215.87 544.084 1216.97 543.812 1217.92 543.268C1218.89 542.702 1219.65 541.931 1220.2 540.956C1220.74 539.982 1221.01 538.882 1221.01 537.658C1221.01 536.412 1220.73 535.312 1220.16 534.36C1219.62 533.386 1218.87 532.626 1217.92 532.082C1216.97 531.538 1215.88 531.266 1214.65 531.266C1213.43 531.266 1212.33 531.538 1211.36 532.082C1210.38 532.626 1209.61 533.386 1209.04 534.36C1208.5 535.312 1208.23 536.412 1208.23 537.658C1208.23 538.882 1208.5 539.982 1209.04 540.956C1209.61 541.931 1210.38 542.702 1211.36 543.268C1212.33 543.812 1213.42 544.084 1214.62 544.084ZM1229.65 547.382V527.934H1233.32L1241.58 541.534H1239.85L1247.97 527.934H1251.65L1251.68 547.382H1247.6L1247.57 534.36H1248.21L1241.62 545.206H1239.68L1232.88 534.36H1233.73V547.382H1229.65Z" fill="black"/>
<path d="M703.721 1052.61H713.581V1055.94H703.721V1052.61ZM704.299 1060.7H715.111V1064.14H700.015V1044.69H714.738V1048.16H704.299V1060.7ZM719.539 1064.14V1044.69H723.075L734.805 1058.9H733.207V1044.69H737.457V1064.14H733.921L722.191 1049.93H723.823V1064.14H719.539ZM746.949 1064.14V1048.19H740.557V1044.69H757.625V1048.19H751.233V1064.14H746.949ZM760.711 1064.14V1044.69H769.109C770.854 1044.69 772.361 1044.97 773.631 1045.54C774.9 1046.08 775.875 1046.88 776.555 1047.92C777.257 1048.96 777.609 1050.22 777.609 1051.69C777.609 1053.14 777.257 1054.39 776.555 1055.43C775.875 1056.48 774.9 1057.27 773.631 1057.81C772.361 1058.36 770.854 1058.63 769.109 1058.63H763.091L764.995 1056.76V1064.14H760.711ZM773.359 1064.14L768.361 1057.07H772.985L777.983 1064.14H773.359ZM764.995 1057.27L763.431 1055.26H768.803C770.299 1055.26 771.421 1054.96 772.169 1054.35C772.917 1053.71 773.291 1052.83 773.291 1051.69C773.291 1050.56 772.917 1049.69 772.169 1049.08C771.421 1048.46 770.299 1048.16 768.803 1048.16H763.431L764.995 1046.19V1057.27ZM786.821 1064.14V1056.32L787.637 1059.04L778.933 1044.69H783.489L790.289 1055.77H787.909L794.709 1044.69H799.061L790.357 1059.04L791.139 1056.32V1064.14H786.821Z" fill="black"/>
<rect x="533.527" y="372.796" width="297.172" height="169.587" fill="#6FAE46"/>
</svg>
