<svg width="196" height="249" viewBox="0 0 196 249" fill="none" xmlns="http://www.w3.org/2000/svg">
<rect x="57.6641" y="68.19" width="64.0349" height="127" rx="9.5" fill="#FFDF7F" stroke="black"/>
<path d="M32.5703 84.8324H30.6016C29.3584 84.8324 28.1661 85.3215 27.287 86.1922C26.4079 87.0628 25.9141 88.2436 25.9141 89.4749V100.617C25.9141 101.848 26.4079 103.029 27.287 103.899C28.1661 104.77 29.3584 105.259 30.6016 105.259H32.5703C32.7855 106.309 33.3604 107.252 34.1976 107.93C35.0348 108.607 36.0828 108.978 37.1641 108.978C38.2453 108.978 39.2934 108.607 40.1306 107.93C40.9678 107.252 41.5426 106.309 41.7578 105.259H45.6016C46.0988 105.259 46.5758 105.063 46.9274 104.715C47.279 104.367 47.4766 103.895 47.4766 103.402V86.6894C47.4766 86.1969 47.279 85.7246 46.9274 85.3763C46.5758 85.0281 46.0988 84.8324 45.6016 84.8324H41.7578C41.5426 83.783 40.9678 82.8395 40.1306 82.1618C39.2934 81.484 38.2453 81.1138 37.1641 81.1138C36.0828 81.1138 35.0348 81.484 34.1976 82.1618C33.3604 82.8395 32.7855 83.783 32.5703 84.8324V84.8324ZM27.7891 100.617V89.4749C27.7921 88.737 28.0895 88.0303 28.6162 87.5086C29.143 86.9869 29.8566 86.6925 30.6016 86.6894H32.5703C32.7885 87.737 33.3643 88.6782 34.201 89.3546C35.0376 90.031 36.084 90.4014 37.1641 90.4033V99.6882C36.084 99.6902 35.0376 100.061 34.201 100.737C33.3643 101.413 32.7885 102.355 32.5703 103.402H30.6016C29.8566 103.399 29.143 103.105 28.6162 102.583C28.0895 102.061 27.7921 101.354 27.7891 100.617V100.617ZM39.9766 85.7145V85.7609C39.9766 86.0072 40.0753 86.2433 40.2511 86.4175C40.427 86.5916 40.6654 86.6894 40.9141 86.6894H45.6016V103.402H40.9141C40.7915 103.402 40.6701 103.426 40.5571 103.473C40.444 103.52 40.3414 103.588 40.2553 103.675C40.1691 103.761 40.1012 103.864 40.0554 103.976C40.0095 104.089 39.9867 104.209 39.9883 104.331V104.377C39.979 104.925 39.8066 105.459 39.4925 105.911C39.1784 106.362 38.7367 106.712 38.2227 106.916C37.7087 107.12 37.1453 107.169 36.6032 107.058C36.0611 106.946 35.5643 106.678 35.1752 106.288C34.786 105.898 34.5219 105.403 34.4158 104.864C34.3097 104.326 34.3664 103.769 34.5788 103.262C34.7912 102.756 35.1498 102.323 35.6097 102.017C36.0696 101.712 36.6103 101.548 37.1641 101.545H41.8516C42.1002 101.545 42.3387 101.447 42.5145 101.273C42.6903 101.099 42.7891 100.863 42.7891 100.617C42.7891 100.37 42.6903 100.134 42.5145 99.9601C42.3387 99.786 42.1002 99.6882 41.8516 99.6882H39.0391V90.4033H41.8516C42.1002 90.4033 42.3387 90.3055 42.5145 90.1314C42.6903 89.9573 42.7891 89.7211 42.7891 89.4749C42.7891 89.2286 42.6903 88.9924 42.5145 88.8183C42.3387 88.6442 42.1002 88.5464 41.8516 88.5464H37.1641C36.6098 88.5463 36.0679 88.384 35.6065 88.08C35.1451 87.7759 34.7846 87.3436 34.5704 86.8373C34.3563 86.331 34.2979 85.7734 34.4027 85.2343C34.5074 84.6953 34.7707 84.199 35.1593 83.8076C35.548 83.4163 36.0448 83.1474 36.5872 83.0348C37.1296 82.9221 37.6936 82.9707 38.2083 83.1744C38.7229 83.3781 39.1654 83.7279 39.48 84.1798C39.7946 84.6317 39.9673 85.1656 39.9766 85.7145V85.7145Z" fill="black"/>
<path d="M32.5703 144.832H30.6016C29.3584 144.832 28.1661 145.322 27.287 146.192C26.4079 147.063 25.9141 148.244 25.9141 149.475V160.617C25.9141 161.848 26.4079 163.029 27.287 163.899C28.1661 164.77 29.3584 165.259 30.6016 165.259H32.5703C32.7855 166.309 33.3604 167.252 34.1976 167.93C35.0348 168.608 36.0828 168.978 37.1641 168.978C38.2453 168.978 39.2934 168.608 40.1306 167.93C40.9678 167.252 41.5426 166.309 41.7578 165.259H45.6016C46.0988 165.259 46.5758 165.063 46.9274 164.715C47.279 164.367 47.4766 163.895 47.4766 163.402V146.689C47.4766 146.197 47.279 145.725 46.9274 145.376C46.5758 145.028 46.0988 144.832 45.6016 144.832H41.7578C41.5426 143.783 40.9678 142.839 40.1306 142.162C39.2934 141.484 38.2453 141.114 37.1641 141.114C36.0828 141.114 35.0348 141.484 34.1976 142.162C33.3604 142.839 32.7855 143.783 32.5703 144.832V144.832ZM27.7891 160.617V149.475C27.7921 148.737 28.0895 148.03 28.6162 147.509C29.143 146.987 29.8566 146.692 30.6016 146.689H32.5703C32.7885 147.737 33.3643 148.678 34.201 149.355C35.0376 150.031 36.084 150.401 37.1641 150.403V159.688C36.084 159.69 35.0376 160.061 34.201 160.737C33.3643 161.413 32.7885 162.355 32.5703 163.402H30.6016C29.8566 163.399 29.143 163.105 28.6162 162.583C28.0895 162.061 27.7921 161.355 27.7891 160.617V160.617ZM39.9766 145.715V145.761C39.9766 146.007 40.0753 146.243 40.2511 146.417C40.427 146.592 40.6654 146.689 40.9141 146.689H45.6016V163.402H40.9141C40.7915 163.402 40.6701 163.426 40.5571 163.473C40.444 163.52 40.3414 163.588 40.2553 163.675C40.1691 163.761 40.1012 163.864 40.0554 163.976C40.0095 164.089 39.9867 164.209 39.9883 164.331V164.377C39.979 164.925 39.8066 165.459 39.4925 165.911C39.1784 166.362 38.7367 166.712 38.2227 166.916C37.7087 167.12 37.1453 167.169 36.6032 167.058C36.0611 166.946 35.5643 166.678 35.1752 166.288C34.786 165.898 34.5219 165.403 34.4158 164.864C34.3097 164.326 34.3664 163.769 34.5788 163.262C34.7912 162.756 35.1498 162.323 35.6097 162.017C36.0696 161.712 36.6103 161.548 37.1641 161.545H41.8516C42.1002 161.545 42.3387 161.447 42.5145 161.273C42.6903 161.099 42.7891 160.863 42.7891 160.617C42.7891 160.37 42.6903 160.134 42.5145 159.96C42.3387 159.786 42.1002 159.688 41.8516 159.688H39.0391V150.403H41.8516C42.1002 150.403 42.3387 150.306 42.5145 150.131C42.6903 149.957 42.7891 149.721 42.7891 149.475C42.7891 149.229 42.6903 148.992 42.5145 148.818C42.3387 148.644 42.1002 148.546 41.8516 148.546H37.1641C36.6098 148.546 36.0679 148.384 35.6065 148.08C35.1451 147.776 34.7846 147.344 34.5704 146.837C34.3563 146.331 34.2979 145.773 34.4027 145.234C34.5074 144.695 34.7707 144.199 35.1593 143.808C35.548 143.416 36.0448 143.147 36.5872 143.035C37.1296 142.922 37.6936 142.971 38.2083 143.174C38.7229 143.378 39.1654 143.728 39.48 144.18C39.7946 144.632 39.9673 145.166 39.9766 145.715V145.715Z" fill="black"/>
<path d="M146.793 165.259H148.762C150.005 165.259 151.197 164.77 152.076 163.899C152.955 163.029 153.449 161.848 153.449 160.617V149.475C153.449 148.243 152.955 147.063 152.076 146.192C151.197 145.321 150.005 144.832 148.762 144.832H146.793C146.578 143.783 146.003 142.839 145.166 142.162C144.329 141.484 143.28 141.114 142.199 141.114C141.118 141.114 140.07 141.484 139.233 142.162C138.396 142.839 137.821 143.783 137.605 144.832H133.762C133.264 144.832 132.788 145.028 132.436 145.376C132.084 145.724 131.887 146.197 131.887 146.689V163.402C131.887 163.895 132.084 164.367 132.436 164.715C132.788 165.063 133.264 165.259 133.762 165.259H137.605C137.821 166.308 138.396 167.252 139.233 167.93C140.07 168.607 141.118 168.978 142.199 168.978C143.28 168.978 144.329 168.607 145.166 167.93C146.003 167.252 146.578 166.308 146.793 165.259V165.259ZM151.574 149.475V160.617C151.571 161.354 151.274 162.061 150.747 162.583C150.22 163.105 149.507 163.399 148.762 163.402H146.793C146.575 162.354 145.999 161.413 145.162 160.737C144.326 160.06 143.279 159.69 142.199 159.688V150.403C143.279 150.401 144.326 150.031 145.162 149.354C145.999 148.678 146.575 147.737 146.793 146.689H148.762C149.507 146.692 150.22 146.987 150.747 147.508C151.274 148.03 151.571 148.737 151.574 149.475V149.475ZM139.387 164.377V164.331C139.387 164.084 139.288 163.848 139.112 163.674C138.936 163.5 138.698 163.402 138.449 163.402H133.762V146.689H138.449C138.572 146.689 138.693 146.665 138.806 146.618C138.919 146.572 139.022 146.503 139.108 146.417C139.194 146.33 139.262 146.228 139.308 146.115C139.354 146.003 139.377 145.882 139.375 145.761V145.714C139.384 145.166 139.557 144.633 139.871 144.181C140.185 143.729 140.627 143.379 141.141 143.175C141.655 142.971 142.218 142.922 142.76 143.034C143.302 143.145 143.799 143.413 144.188 143.803C144.577 144.194 144.841 144.689 144.948 145.227C145.054 145.765 144.997 146.323 144.785 146.829C144.572 147.336 144.213 147.769 143.754 148.074C143.294 148.38 142.753 148.544 142.199 148.546H137.512C137.263 148.546 137.025 148.644 136.849 148.818C136.673 148.992 136.574 149.228 136.574 149.475C136.574 149.721 136.673 149.957 136.849 150.131C137.025 150.305 137.263 150.403 137.512 150.403H140.324V159.688H137.512C137.263 159.688 137.025 159.786 136.849 159.96C136.673 160.134 136.574 160.37 136.574 160.617C136.574 160.863 136.673 161.099 136.849 161.273C137.025 161.447 137.263 161.545 137.512 161.545H142.199C142.753 161.545 143.295 161.707 143.757 162.011C144.218 162.316 144.579 162.748 144.793 163.254C145.007 163.76 145.065 164.318 144.961 164.857C144.856 165.396 144.593 165.892 144.204 166.284C143.815 166.675 143.319 166.944 142.776 167.057C142.234 167.169 141.67 167.121 141.155 166.917C140.64 166.713 140.198 166.364 139.883 165.912C139.569 165.46 139.396 164.926 139.387 164.377V164.377Z" fill="black"/>
<path d="M146.793 105.259H148.762C150.005 105.259 151.197 104.77 152.076 103.899C152.955 103.029 153.449 101.848 153.449 100.617V89.4747C153.449 88.2435 152.955 87.0627 152.076 86.192C151.197 85.3214 150.005 84.8323 148.762 84.8323H146.793C146.578 83.7828 146.003 82.8393 145.166 82.1616C144.329 81.4839 143.28 81.1137 142.199 81.1137C141.118 81.1137 140.07 81.4839 139.233 82.1616C138.396 82.8393 137.821 83.7828 137.605 84.8323H133.762C133.264 84.8323 132.788 85.0279 132.436 85.3762C132.084 85.7244 131.887 86.1968 131.887 86.6893V103.402C131.887 103.895 132.084 104.367 132.436 104.715C132.788 105.063 133.264 105.259 133.762 105.259H137.605C137.821 106.308 138.396 107.252 139.233 107.93C140.07 108.607 141.118 108.978 142.199 108.978C143.28 108.978 144.329 108.607 145.166 107.93C146.003 107.252 146.578 106.308 146.793 105.259V105.259ZM151.574 89.4747V100.617C151.571 101.354 151.274 102.061 150.747 102.583C150.22 103.105 149.507 103.399 148.762 103.402H146.793C146.575 102.354 145.999 101.413 145.162 100.737C144.326 100.06 143.279 99.69 142.199 99.6881V90.4032C143.279 90.4013 144.326 90.0309 145.162 89.3545C145.999 88.6781 146.575 87.7369 146.793 86.6893H148.762C149.507 86.6923 150.22 86.9868 150.747 87.5085C151.274 88.0302 151.571 88.7369 151.574 89.4747V89.4747ZM139.387 104.377V104.331C139.387 104.084 139.288 103.848 139.112 103.674C138.936 103.5 138.698 103.402 138.449 103.402H133.762V86.6893H138.449C138.572 86.6893 138.693 86.6652 138.806 86.6184C138.919 86.5716 139.022 86.503 139.108 86.4166C139.194 86.3303 139.262 86.2278 139.308 86.1152C139.354 86.0026 139.377 85.8822 139.375 85.7608V85.7144C139.384 85.166 139.557 84.6326 139.871 84.1809C140.185 83.7292 140.627 83.3794 141.141 83.1754C141.655 82.9713 142.218 82.922 142.76 83.0338C143.302 83.1455 143.799 83.4132 144.188 83.8034C144.577 84.1936 144.841 84.6889 144.948 85.2271C145.054 85.7654 144.997 86.3227 144.785 86.8292C144.572 87.3357 144.213 87.7688 143.754 88.0742C143.294 88.3797 142.753 88.5439 142.199 88.5462H137.512C137.263 88.5462 137.025 88.6441 136.849 88.8182C136.673 88.9923 136.574 89.2285 136.574 89.4747C136.574 89.721 136.673 89.9571 136.849 90.1313C137.025 90.3054 137.263 90.4032 137.512 90.4032H140.324V99.6881H137.512C137.263 99.6881 137.025 99.7859 136.849 99.96C136.673 100.134 136.574 100.37 136.574 100.617C136.574 100.863 136.673 101.099 136.849 101.273C137.025 101.447 137.263 101.545 137.512 101.545H142.199C142.753 101.545 143.295 101.707 143.757 102.011C144.218 102.316 144.579 102.748 144.793 103.254C145.007 103.76 145.065 104.318 144.961 104.857C144.856 105.396 144.593 105.892 144.204 106.284C143.815 106.675 143.319 106.944 142.776 107.057C142.234 107.169 141.67 107.121 141.155 106.917C140.64 106.713 140.198 106.364 139.883 105.912C139.569 105.46 139.396 104.926 139.387 104.377V104.377Z" fill="black"/>
<path d="M74.8327 152.19V147.144L90.9567 131.832C92.3101 130.556 93.3154 129.435 93.9727 128.468C94.6301 127.501 95.0554 126.612 95.2487 125.8C95.4807 124.949 95.5967 124.157 95.5967 123.422C95.5967 121.566 94.9587 120.135 93.6827 119.13C92.4067 118.086 90.5314 117.564 88.0567 117.564C86.0847 117.564 84.2867 117.912 82.6627 118.608C81.0774 119.304 79.7047 120.367 78.5447 121.798L73.2667 117.738C74.8521 115.611 76.9787 113.968 79.6467 112.808C82.3534 111.609 85.3694 111.01 88.6947 111.01C91.6334 111.01 94.1854 111.493 96.3507 112.46C98.5547 113.388 100.237 114.722 101.397 116.462C102.595 118.202 103.195 120.271 103.195 122.668C103.195 123.983 103.021 125.297 102.673 126.612C102.325 127.888 101.667 129.241 100.701 130.672C99.7341 132.103 98.3227 133.707 96.4667 135.486L82.6047 148.652L81.0387 145.81H104.761V152.19H74.8327Z" fill="black"/>
</svg>
