<svg width="196" height="250" viewBox="0 0 196 250" fill="none" xmlns="http://www.w3.org/2000/svg">
<rect x="57.6641" y="68.6899" width="64.0349" height="127" rx="9.5" fill="#FFDF7F" stroke="black"/>
<path d="M32.5703 85.3324H30.6016C29.3584 85.3324 28.1661 85.8215 27.287 86.6921C26.4079 87.5627 25.9141 88.7436 25.9141 89.9748V101.117C25.9141 102.348 26.4079 103.529 27.287 104.399C28.1661 105.27 29.3584 105.759 30.6016 105.759H32.5703C32.7855 106.809 33.3604 107.752 34.1976 108.43C35.0348 109.107 36.0828 109.478 37.1641 109.478C38.2453 109.478 39.2934 109.107 40.1306 108.43C40.9678 107.752 41.5426 106.809 41.7578 105.759H45.6016C46.0988 105.759 46.5758 105.563 46.9274 105.215C47.279 104.867 47.4766 104.395 47.4766 103.902V87.1894C47.4766 86.6969 47.279 86.2245 46.9274 85.8763C46.5758 85.528 46.0988 85.3324 45.6016 85.3324H41.7578C41.5426 84.2829 40.9678 83.3394 40.1306 82.6617C39.2934 81.984 38.2453 81.6138 37.1641 81.6138C36.0828 81.6138 35.0348 81.984 34.1976 82.6617C33.3604 83.3394 32.7855 84.2829 32.5703 85.3324V85.3324ZM27.7891 101.117V89.9748C27.7921 89.237 28.0895 88.5303 28.6162 88.0086C29.143 87.4869 29.8566 87.1924 30.6016 87.1894H32.5703C32.7885 88.237 33.3643 89.1781 34.201 89.8546C35.0376 90.531 36.084 90.9013 37.1641 90.9033V100.188C36.084 100.19 35.0376 100.56 34.201 101.237C33.3643 101.913 32.7885 102.854 32.5703 103.902H30.6016C29.8566 103.899 29.143 103.605 28.6162 103.083C28.0895 102.561 27.7921 101.854 27.7891 101.117V101.117ZM39.9766 86.2144V86.2609C39.9766 86.5071 40.0753 86.7433 40.2511 86.9174C40.427 87.0915 40.6654 87.1894 40.9141 87.1894H45.6016V103.902H40.9141C40.7915 103.902 40.6701 103.926 40.5571 103.973C40.444 104.02 40.3414 104.088 40.2553 104.175C40.1691 104.261 40.1012 104.364 40.0554 104.476C40.0095 104.589 39.9867 104.709 39.9883 104.831V104.877C39.979 105.425 39.8066 105.959 39.4925 106.41C39.1784 106.862 38.7367 107.212 38.2227 107.416C37.7087 107.62 37.1453 107.669 36.6032 107.558C36.0611 107.446 35.5643 107.178 35.1752 106.788C34.786 106.398 34.5219 105.902 34.4158 105.364C34.3097 104.826 34.3664 104.269 34.5788 103.762C34.7912 103.256 35.1498 102.823 35.6097 102.517C36.0696 102.212 36.6103 102.047 37.1641 102.045H41.8516C42.1002 102.045 42.3387 101.947 42.5145 101.773C42.6903 101.599 42.7891 101.363 42.7891 101.117C42.7891 100.87 42.6903 100.634 42.5145 100.46C42.3387 100.286 42.1002 100.188 41.8516 100.188H39.0391V90.9033H41.8516C42.1002 90.9033 42.3387 90.8055 42.5145 90.6313C42.6903 90.4572 42.7891 90.2211 42.7891 89.9748C42.7891 89.7286 42.6903 89.4924 42.5145 89.3183C42.3387 89.1441 42.1002 89.0463 41.8516 89.0463H37.1641C36.6098 89.0462 36.0679 88.884 35.6065 88.5799C35.1451 88.2759 34.7846 87.8435 34.5704 87.3373C34.3563 86.831 34.2979 86.2733 34.4027 85.7343C34.5074 85.1953 34.7707 84.6989 35.1593 84.3076C35.548 83.9163 36.0448 83.6474 36.5872 83.5347C37.1296 83.422 37.6936 83.4706 38.2083 83.6744C38.7229 83.8781 39.1654 84.2279 39.48 84.6798C39.7946 85.1317 39.9673 85.6656 39.9766 86.2144V86.2144Z" fill="black"/>
<path d="M32.5703 145.332H30.6016C29.3584 145.332 28.1661 145.821 27.287 146.692C26.4079 147.563 25.9141 148.744 25.9141 149.975V161.117C25.9141 162.348 26.4079 163.529 27.287 164.399C28.1661 165.27 29.3584 165.759 30.6016 165.759H32.5703C32.7855 166.809 33.3604 167.752 34.1976 168.43C35.0348 169.107 36.0828 169.478 37.1641 169.478C38.2453 169.478 39.2934 169.107 40.1306 168.43C40.9678 167.752 41.5426 166.809 41.7578 165.759H45.6016C46.0988 165.759 46.5758 165.563 46.9274 165.215C47.279 164.867 47.4766 164.395 47.4766 163.902V147.189C47.4766 146.697 47.279 146.225 46.9274 145.876C46.5758 145.528 46.0988 145.332 45.6016 145.332H41.7578C41.5426 144.283 40.9678 143.339 40.1306 142.662C39.2934 141.984 38.2453 141.614 37.1641 141.614C36.0828 141.614 35.0348 141.984 34.1976 142.662C33.3604 143.339 32.7855 144.283 32.5703 145.332V145.332ZM27.7891 161.117V149.975C27.7921 149.237 28.0895 148.53 28.6162 148.009C29.143 147.487 29.8566 147.192 30.6016 147.189H32.5703C32.7885 148.237 33.3643 149.178 34.201 149.855C35.0376 150.531 36.084 150.901 37.1641 150.903V160.188C36.084 160.19 35.0376 160.56 34.201 161.237C33.3643 161.913 32.7885 162.854 32.5703 163.902H30.6016C29.8566 163.899 29.143 163.605 28.6162 163.083C28.0895 162.561 27.7921 161.854 27.7891 161.117V161.117ZM39.9766 146.214V146.261C39.9766 146.507 40.0753 146.743 40.2511 146.917C40.427 147.092 40.6654 147.189 40.9141 147.189H45.6016V163.902H40.9141C40.7915 163.902 40.6701 163.926 40.5571 163.973C40.444 164.02 40.3414 164.088 40.2553 164.175C40.1691 164.261 40.1012 164.364 40.0554 164.476C40.0095 164.589 39.9867 164.709 39.9883 164.831V164.877C39.979 165.425 39.8066 165.959 39.4925 166.41C39.1784 166.862 38.7367 167.212 38.2227 167.416C37.7087 167.62 37.1453 167.669 36.6032 167.558C36.0611 167.446 35.5643 167.178 35.1752 166.788C34.786 166.398 34.5219 165.902 34.4158 165.364C34.3097 164.826 34.3664 164.269 34.5788 163.762C34.7912 163.256 35.1498 162.823 35.6097 162.517C36.0696 162.212 36.6103 162.047 37.1641 162.045H41.8516C42.1002 162.045 42.3387 161.947 42.5145 161.773C42.6903 161.599 42.7891 161.363 42.7891 161.117C42.7891 160.87 42.6903 160.634 42.5145 160.46C42.3387 160.286 42.1002 160.188 41.8516 160.188H39.0391V150.903H41.8516C42.1002 150.903 42.3387 150.805 42.5145 150.631C42.6903 150.457 42.7891 150.221 42.7891 149.975C42.7891 149.729 42.6903 149.492 42.5145 149.318C42.3387 149.144 42.1002 149.046 41.8516 149.046H37.1641C36.6098 149.046 36.0679 148.884 35.6065 148.58C35.1451 148.276 34.7846 147.844 34.5704 147.337C34.3563 146.831 34.2979 146.273 34.4027 145.734C34.5074 145.195 34.7707 144.699 35.1593 144.308C35.548 143.916 36.0448 143.647 36.5872 143.535C37.1296 143.422 37.6936 143.471 38.2083 143.674C38.7229 143.878 39.1654 144.228 39.48 144.68C39.7946 145.132 39.9673 145.666 39.9766 146.214V146.214Z" fill="black"/>
<path d="M146.793 165.759H148.762C150.005 165.759 151.197 165.27 152.076 164.399C152.955 163.529 153.449 162.348 153.449 161.116V149.975C153.449 148.743 152.955 147.563 152.076 146.692C151.197 145.821 150.005 145.332 148.762 145.332H146.793C146.578 144.283 146.003 143.339 145.166 142.662C144.329 141.984 143.28 141.614 142.199 141.614C141.118 141.614 140.07 141.984 139.233 142.662C138.396 143.339 137.821 144.283 137.605 145.332H133.762C133.264 145.332 132.788 145.528 132.436 145.876C132.084 146.224 131.887 146.697 131.887 147.189V163.902C131.887 164.394 132.084 164.867 132.436 165.215C132.788 165.563 133.264 165.759 133.762 165.759H137.605C137.821 166.808 138.396 167.752 139.233 168.43C140.07 169.107 141.118 169.478 142.199 169.478C143.28 169.478 144.329 169.107 145.166 168.43C146.003 167.752 146.578 166.808 146.793 165.759V165.759ZM151.574 149.975V161.116C151.571 161.854 151.274 162.561 150.747 163.083C150.22 163.604 149.507 163.899 148.762 163.902H146.793C146.575 162.854 145.999 161.913 145.162 161.237C144.326 160.56 143.279 160.19 142.199 160.188V150.903C143.279 150.901 144.326 150.531 145.162 149.854C145.999 149.178 146.575 148.237 146.793 147.189H148.762C149.507 147.192 150.22 147.487 150.747 148.008C151.274 148.53 151.571 149.237 151.574 149.975V149.975ZM139.387 164.877V164.83C139.387 164.584 139.288 164.348 139.112 164.174C138.936 164 138.698 163.902 138.449 163.902H133.762V147.189H138.449C138.572 147.189 138.693 147.165 138.806 147.118C138.919 147.072 139.022 147.003 139.108 146.917C139.194 146.83 139.262 146.728 139.308 146.615C139.354 146.503 139.377 146.382 139.375 146.261V146.214C139.384 145.666 139.557 145.133 139.871 144.681C140.185 144.229 140.627 143.879 141.141 143.675C141.655 143.471 142.218 143.422 142.76 143.534C143.302 143.645 143.799 143.913 144.188 144.303C144.577 144.694 144.841 145.189 144.948 145.727C145.054 146.265 144.997 146.823 144.785 147.329C144.572 147.836 144.213 148.269 143.754 148.574C143.294 148.88 142.753 149.044 142.199 149.046H137.512C137.263 149.046 137.025 149.144 136.849 149.318C136.673 149.492 136.574 149.728 136.574 149.975C136.574 150.221 136.673 150.457 136.849 150.631C137.025 150.805 137.263 150.903 137.512 150.903H140.324V160.188H137.512C137.263 160.188 137.025 160.286 136.849 160.46C136.673 160.634 136.574 160.87 136.574 161.116C136.574 161.363 136.673 161.599 136.849 161.773C137.025 161.947 137.263 162.045 137.512 162.045H142.199C142.753 162.045 143.295 162.207 143.757 162.511C144.218 162.815 144.579 163.248 144.793 163.754C145.007 164.26 145.065 164.818 144.961 165.357C144.856 165.896 144.593 166.392 144.204 166.784C143.815 167.175 143.319 167.444 142.776 167.557C142.234 167.669 141.67 167.621 141.155 167.417C140.64 167.213 140.198 166.863 139.883 166.412C139.569 165.96 139.396 165.426 139.387 164.877V164.877Z" fill="black"/>
<path d="M146.793 105.759H148.762C150.005 105.759 151.197 105.27 152.076 104.399C152.955 103.529 153.449 102.348 153.449 101.116V89.9747C153.449 88.7434 152.955 87.5626 152.076 86.692C151.197 85.8214 150.005 85.3322 148.762 85.3322H146.793C146.578 84.2828 146.003 83.3393 145.166 82.6616C144.329 81.9839 143.28 81.6136 142.199 81.6136C141.118 81.6136 140.07 81.9839 139.233 82.6616C138.396 83.3393 137.821 84.2828 137.605 85.3322H133.762C133.264 85.3322 132.788 85.5279 132.436 85.8761C132.084 86.2244 131.887 86.6967 131.887 87.1892V103.902C131.887 104.394 132.084 104.867 132.436 105.215C132.788 105.563 133.264 105.759 133.762 105.759H137.605C137.821 106.808 138.396 107.752 139.233 108.43C140.07 109.107 141.118 109.478 142.199 109.478C143.28 109.478 144.329 109.107 145.166 108.43C146.003 107.752 146.578 106.808 146.793 105.759V105.759ZM151.574 89.9747V101.116C151.571 101.854 151.274 102.561 150.747 103.083C150.22 103.604 149.507 103.899 148.762 103.902H146.793C146.575 102.854 145.999 101.913 145.162 101.237C144.326 100.56 143.279 100.19 142.199 100.188V90.9032C143.279 90.9012 144.326 90.5308 145.162 89.8544C145.999 89.178 146.575 88.2368 146.793 87.1892H148.762C149.507 87.1923 150.22 87.4867 150.747 88.0084C151.274 88.5301 151.571 89.2369 151.574 89.9747V89.9747ZM139.387 104.877V104.83C139.387 104.584 139.288 104.348 139.112 104.174C138.936 104 138.698 103.902 138.449 103.902H133.762V87.1892H138.449C138.572 87.1892 138.693 87.1651 138.806 87.1183C138.919 87.0715 139.022 87.003 139.108 86.9166C139.194 86.8302 139.262 86.7278 139.308 86.6152C139.354 86.5026 139.377 86.3821 139.375 86.2607V86.2143C139.384 85.666 139.557 85.1325 139.871 84.6808C140.185 84.2292 140.627 83.8794 141.141 83.6753C141.655 83.4712 142.218 83.422 142.76 83.5337C143.302 83.6454 143.799 83.9132 144.188 84.3034C144.577 84.6935 144.841 85.1888 144.948 85.7271C145.054 86.2653 144.997 86.8226 144.785 87.3291C144.572 87.8356 144.213 88.2687 143.754 88.5742C143.294 88.8796 142.753 89.0438 142.199 89.0462H137.512C137.263 89.0462 137.025 89.144 136.849 89.3181C136.673 89.4923 136.574 89.7284 136.574 89.9747C136.574 90.2209 136.673 90.4571 136.849 90.6312C137.025 90.8053 137.263 90.9032 137.512 90.9032H140.324V100.188H137.512C137.263 100.188 137.025 100.286 136.849 100.46C136.673 100.634 136.574 100.87 136.574 101.116C136.574 101.363 136.673 101.599 136.849 101.773C137.025 101.947 137.263 102.045 137.512 102.045H142.199C142.753 102.045 143.295 102.207 143.757 102.511C144.218 102.815 144.579 103.248 144.793 103.754C145.007 104.26 145.065 104.818 144.961 105.357C144.856 105.896 144.593 106.392 144.204 106.784C143.815 107.175 143.319 107.444 142.776 107.557C142.234 107.669 141.67 107.621 141.155 107.417C140.64 107.213 140.198 106.863 139.883 106.412C139.569 105.96 139.396 105.426 139.387 104.877V104.877Z" fill="black"/>
<path d="M80.9752 137.5V134.542L90.4272 125.566C91.2205 124.818 91.8098 124.161 92.1952 123.594C92.5805 123.027 92.8298 122.506 92.9432 122.03C93.0792 121.531 93.1472 121.067 93.1472 120.636C93.1472 119.548 92.7732 118.709 92.0252 118.12C91.2772 117.508 90.1778 117.202 88.7272 117.202C87.5712 117.202 86.5172 117.406 85.5652 117.814C84.6358 118.222 83.8312 118.845 83.1512 119.684L80.0572 117.304C80.9865 116.057 82.2332 115.094 83.7972 114.414C85.3838 113.711 87.1518 113.36 89.1012 113.36C90.8238 113.36 92.3198 113.643 93.5892 114.21C94.8812 114.754 95.8672 115.536 96.5472 116.556C97.2498 117.576 97.6012 118.789 97.6012 120.194C97.6012 120.965 97.4992 121.735 97.2952 122.506C97.0912 123.254 96.7058 124.047 96.1392 124.886C95.5725 125.725 94.7452 126.665 93.6572 127.708L85.5312 135.426L84.6132 133.76H98.5192V137.5H80.9752Z" fill="black"/>
</svg>
